<?xml version="1.0" standalone="no"?>
<!DOCTYPE svg PUBLIC "-//W3C//DTD SVG 1.1//EN" "http://www.w3.org/Graphics/SVG/1.1/DTD/svg11.dtd" >
<svg xmlns="http://www.w3.org/2000/svg" xmlns:xlink="http://www.w3.org/1999/xlink" version="1.1">
<metadata></metadata>
<defs>
<font id="rawlineextrabold" horiz-adv-x="0" >
<font-face units-per-em="2048" ascent="1638" descent="-410" />
<missing-glyph horiz-adv-x="477" />
<glyph unicode="fi" horiz-adv-x="1214" d="M182 739h-137v248h137v88q0 193 127.5 317t335.5 124q112 0 215 -37.5t215 -110.5l-127 -248q-63 55 -137 87t-145 32q-74 0 -115 -42.5t-41 -109.5v-100h594v-987h-328v739h-266v-739h-328v739z" />
<glyph unicode="fl" horiz-adv-x="1402" d="M1122 -16q-135 0 -216 70t-81 177v787q0 111 -31 166t-120 55q-161 0 -164 -205v-47h162v-248h-162v-739h-328v739h-137v248h137v119q0 201 128 305.5t352 104.5q247 0 369 -115.5t122 -319.5v-686q0 -56 22 -88.5t66 -32.5q30 0 69 12t56 21l41 -264q-23 -14 -114 -36.5 t-171 -22.5z" />
<glyph unicode="&#xd;" />
<glyph unicode=" "  horiz-adv-x="477" />
<glyph unicode="&#x09;" horiz-adv-x="477" />
<glyph unicode="&#xa0;" horiz-adv-x="477" />
<glyph unicode="!" horiz-adv-x="681" d="M176 578v890h328v-890h-328zM176 0v340h328v-340h-328z" />
<glyph unicode="&#x22;" horiz-adv-x="882" d="M117 1020v467h276v-467h-276zM489 1020v467h277v-467h-277z" />
<glyph unicode="#" horiz-adv-x="1511" d="M1438 844h-312l-55 -234h266v-243h-325l-88 -367h-262l90 367h-187l-90 -367h-262l92 367h-231v243h288l56 234h-244v225h299l94 385h262l-96 -385h189l94 385h262l-96 -385h256v-225zM811 610l55 234h-188l-55 -234h188z" />
<glyph unicode="$" horiz-adv-x="1312" d="M1233 428q0 -90 -26.5 -163t-72 -122.5t-109 -84t-134 -51.5t-150.5 -21v-238h-149v240q-140 12 -278 58t-246 118l147 293q29 -31 151 -89.5t250 -74.5v270q-2 1 -96 29q-104 32 -174.5 67t-120.5 82t-73 108.5t-23 143.5q0 136 62.5 239.5t165.5 160t235 69.5v207h149 v-207q217 -20 449 -155l-148 -279q-18 23 -119.5 71.5t-203.5 63.5v-278q10 -2 30.5 -8t30.5 -9q91 -25 155 -49.5t124 -61t96 -80.5t57 -107t21 -142zM475 1047q0 -47 33.5 -76.5t107.5 -55.5v250q-141 -12 -141 -118zM719 287q153 9 153 108q0 48 -38 79t-115 58v-245z " />
<glyph unicode="%" horiz-adv-x="1671" d="M70 1159q0 131 102 223.5t248 92.5q147 0 248.5 -92.5t101.5 -223.5q0 -132 -101.5 -224.5t-248.5 -92.5q-146 0 -248 92.5t-102 224.5zM211 115l577 663l525 695l147 -132l-559 -647l-545 -712zM543 1159q0 65 -36 110.5t-87 45.5t-87 -46.5t-36 -109.5q0 -65 36 -111.5 t87 -46.5t87 46.5t36 111.5zM901 295q0 132 102 224.5t248 92.5q147 0 249 -92.5t102 -224.5q0 -131 -102 -223t-249 -92q-146 0 -248 92t-102 223zM1376 295q0 64 -37 111t-88 47t-87 -46.5t-36 -111.5t36 -110.5t87 -45.5t88 46.5t37 109.5z" />
<glyph unicode="&#x26;" horiz-adv-x="1492" d="M1499 0h-430l-96 102q-177 -122 -395 -122q-115 0 -211 37.5t-158.5 100.5t-96.5 142.5t-34 165.5q0 122 61.5 216t167.5 175q-76 89 -106.5 154t-30.5 141q0 164 116 262.5t294 98.5q63 0 121.5 -12.5t111 -39.5t91 -65.5t61 -94t22.5 -122.5q0 -200 -221 -369l229 -240 q56 131 56 291h264q0 -283 -127 -493zM580 1233q-50 0 -81.5 -31t-31.5 -78q0 -31 18 -56t78 -85q65 42 94 76t29 76q0 44 -29.5 71t-76.5 27zM612 236q97 0 185 55l-289 307q-117 -86 -117 -174q0 -72 60.5 -130t160.5 -58z" />
<glyph unicode="'" horiz-adv-x="512" d="M117 1018v469h276v-469h-276z" />
<glyph unicode="(" horiz-adv-x="665" d="M373 1565l250 -103q-34 -53 -73 -130.5t-82.5 -182t-72 -224t-28.5 -220.5q0 -153 63.5 -323.5t183.5 -385.5l-237 -117q-316 472 -316 832q0 192 80 393.5t232 460.5z" />
<glyph unicode=")" horiz-adv-x="663" d="M287 -121l-238 117q120 216 184 386t64 323q0 101 -28.5 220.5t-72 224t-82.5 182t-73 130.5l250 103q151 -258 231 -460t80 -394q0 -361 -315 -832z" />
<glyph unicode="*" horiz-adv-x="724" d="M145 1044l97 154l-146 43l43 137l150 -69l-13 164h170l-12 -164l152 69l43 -137l-146 -43l97 -154l-121 -79l-97 161l-96 -161z" />
<glyph unicode="+" horiz-adv-x="868" d="M776 858v-262h-194v-213h-295v213h-193v262h193v213h295v-213h194z" />
<glyph unicode="," horiz-adv-x="497" d="M147 -276l64 280h-100v330h276v-330l-96 -280h-144z" />
<glyph unicode="-" horiz-adv-x="851" d="M111 416v295h630v-295h-630z" />
<glyph unicode="." horiz-adv-x="489" d="M111 0v334h268v-334h-268z" />
<glyph unicode="/" horiz-adv-x="1505" d="M1450 1454l-1034 -1454h-363l1034 1454h363z" />
<glyph unicode="0" horiz-adv-x="1447" d="M80 717q0 105 28 210.5t84.5 200t132.5 167.5t179.5 116t218.5 43q123 0 230 -46t181.5 -122t128.5 -172.5t79.5 -198t25.5 -198.5q0 -106 -28.5 -212t-84.5 -200t-132 -166.5t-180 -115t-220 -43.5q-103 0 -194.5 32t-161 87t-125 127t-90.5 154.5t-53.5 168 t-18.5 168.5zM723 279q78 0 139.5 42t96 109t52 140.5t17.5 146.5q0 79 -19 155t-55.5 140.5t-96.5 103.5t-134 39q-77 0 -138 -42t-95.5 -109t-52 -140.5t-17.5 -146.5q1 -80 19.5 -155.5t54 -140t95 -103.5t134.5 -39z" />
<glyph unicode="1" horiz-adv-x="1060" d="M1016 295v-295h-883v295h289v850q-37 -52 -147.5 -114t-188.5 -62v301q41 0 90.5 19.5t90.5 47t77 57t56 49t22 23.5h334v-1171h260z" />
<glyph unicode="2" horiz-adv-x="1267" d="M80 0q0 259 60 394t231 239q37 23 109.5 61.5t117 65t94.5 66t74.5 86t24.5 102.5q0 80 -48.5 123t-128.5 43q-90 0 -176 -47.5t-151 -114.5l-205 217q81 92 234 163.5t343 71.5q239 0 371.5 -118t132.5 -318q0 -67 -17 -126t-45 -104.5t-71.5 -88.5t-88 -75.5 t-103.5 -68.5q-173 -98 -242 -154t-109 -122h678v-295h-1085z" />
<glyph unicode="3" horiz-adv-x="1200" d="M547 -12q-333 0 -494 209l170 231q48 -63 126 -101t183 -38q116 0 178 42.5t62 125.5q0 180 -317 180h-66v235h70q127 0 201.5 45.5t74.5 126.5q0 68 -51 108t-131 40q-88 0 -159 -42.5t-115 -117.5l-211 242q68 88 211.5 142t304.5 54q223 0 362 -103t139 -269 q0 -121 -75 -212.5t-195 -117.5q131 -22 214 -125.5t83 -243.5q0 -190 -155.5 -300.5t-409.5 -110.5z" />
<glyph unicode="4" horiz-adv-x="1210" d="M625 2v305h-572v293l676 856h223v-856h181v-293h-181v-305h-327zM379 600h283v365z" />
<glyph unicode="5" horiz-adv-x="1177" d="M553 -18q-159 0 -286.5 63.5t-194.5 177.5l184 203q57 -73 137.5 -115.5t161.5 -42.5q94 0 152.5 55.5t58.5 145.5q0 87 -54.5 142t-138.5 55q-56 0 -104 -25.5t-74 -69.5h-284l170 885h723v-299h-486l-43 -248q37 37 146 37q210 0 345.5 -131.5t135.5 -337.5 q0 -219 -154.5 -357t-394.5 -138z" />
<glyph unicode="6" horiz-adv-x="1245" d="M657 969q-181 0 -268 -117q4 156 75 243t191 87q81 0 153.5 -37t123.5 -103l184 209q-88 104 -204.5 159.5t-249.5 55.5q-268 0 -421 -209t-153 -587q0 -325 143.5 -507.5t397.5 -182.5q150 0 273 67.5t193 184t70 257.5q0 204 -145.5 342t-362.5 138zM403 489 q0 92 66 157t160 65q93 0 159 -65t66 -157q0 -95 -67 -164t-158 -69t-158.5 69t-67.5 164z" />
<glyph unicode="7" horiz-adv-x="1185" d="M682 1157h-610v299h1126l-717 -1454h-370z" />
<glyph unicode="8" horiz-adv-x="1243" d="M621 -18q-146 0 -268 58t-195.5 166.5t-73.5 246.5q0 107 59.5 189.5t143.5 133.5q-69 38 -114.5 110t-45.5 150t30 146.5t80 117.5t114 84.5t133 52.5t137 17q86 0 172 -27.5t159.5 -77.5t119.5 -131t46 -178q0 -78 -47.5 -153t-116.5 -111q86 -51 145.5 -137.5 t59.5 -198.5q0 -135 -73 -240.5t-195 -161.5t-270 -56zM621 887q64 0 113.5 38.5t49.5 104.5q0 58 -47.5 96.5t-115.5 38.5t-115 -38.5t-47 -96.5q0 -67 49.5 -105t112.5 -38zM621 641q-87 0 -146 -50.5t-59 -131.5q0 -78 61.5 -129t145.5 -51t144 52.5t60 129.5 q0 83 -60 131.5t-146 48.5z" />
<glyph unicode="9" horiz-adv-x="1243" d="M588 475q180 0 266 119q-3 -156 -74 -243t-192 -87q-79 0 -151.5 36.5t-125.5 102.5l-184 -208q88 -104 205 -159.5t252 -55.5q267 0 420 209t153 587q0 325 -143.5 507.5t-397.5 182.5q-151 0 -274.5 -67.5t-193.5 -184.5t-70 -258q0 -204 146.5 -342.5t363.5 -138.5z M842 956q0 -92 -66.5 -156.5t-159.5 -64.5t-159 64.5t-66 156.5q0 95 67 164.5t158 69.5q90 0 158 -69.5t68 -164.5z" />
<glyph unicode=":" horiz-adv-x="561" d="M147 729v334h267v-334h-267zM147 0v334h267v-334h-267z" />
<glyph unicode=";" horiz-adv-x="573" d="M152 729v334h266v-334h-266zM184 -276l66 280h-100v330h276v-330l-96 -280h-146z" />
<glyph unicode="&#x3c;" horiz-adv-x="1060" d="M66 600l864 524v-348l-389 -246l389 -231v-367l-864 512v156z" />
<glyph unicode="=" horiz-adv-x="890" d="M121 668v209h649v-209h-649zM121 254v209h649v-209h-649z" />
<glyph unicode="&#x3e;" horiz-adv-x="1060" d="M995 444l-866 -512v367l391 231l-391 246v348l866 -524v-156z" />
<glyph unicode="?" horiz-adv-x="1003" d="M223 502q0 108 33.5 182.5t132.5 128.5q8 5 43 23.5t57.5 31t56 36.5t53.5 46t35 52.5t15 62.5q0 65 -48 104t-114 39q-38 0 -71.5 -13.5t-60 -40t-41 -45t-33.5 -48.5l-211 147q54 124 169 194.5t261 70.5q81 0 155.5 -23.5t138.5 -70.5t102 -128.5t38 -187.5 q0 -113 -47.5 -192.5t-143.5 -141.5q-26 -17 -69 -40t-69.5 -39t-55 -38t-42 -49.5t-13.5 -60.5h-271zM229 0v307h269v-307h-269z" />
<glyph unicode="@" horiz-adv-x="1736" d="M1640 453q0 -32 -1.5 -63.5t-9 -82t-20 -94t-37.5 -90.5t-57.5 -80t-83.5 -54.5t-114 -21.5q-101 0 -147.5 46.5t-55.5 113.5q-66 -64 -157 -99.5t-191 -35.5q-150 0 -232.5 79.5t-82.5 211.5q0 67 22 120.5t58.5 87.5t86.5 57t103.5 32.5t112.5 9.5q116 0 221 -43 q0 107 -50.5 164t-177.5 57q-165 0 -266 -88l-57 170q149 102 356 102q61 0 111.5 -9t88 -24t67 -39t48.5 -48t33 -57.5t21.5 -61t11.5 -65.5t5 -64.5t1 -63.5v-168q0 -43 1.5 -72.5t7 -64.5t16 -56t30 -35.5t46.5 -14.5q49 0 83.5 39t50 100t21.5 112.5t6 100.5 q0 186 -80 333t-229.5 231.5t-343.5 84.5q-191 0 -338 -82.5t-226 -228t-79 -330.5q0 -133 43 -250t121.5 -204.5t195 -138t256.5 -50.5q63 0 125.5 13t93 24.5t103.5 40.5l37 -121q-171 -82 -363 -82q-153 0 -289 55.5t-236.5 154.5t-159 245t-58.5 317q0 179 64 325.5 t173 240.5t249.5 145t297.5 51q122 0 235 -30.5t211.5 -94t171 -154.5t114.5 -220t42 -283zM1053 317v82q-127 39 -217 39q-193 0 -193 -151q0 -65 37 -100t108 -35q98 0 170 38q44 21 69.5 54.5t25.5 72.5z" />
<glyph unicode="A" horiz-adv-x="1372" d="M506 1454h362l500 -1454h-344l-113 326h-452l-111 -326h-344zM856 557l-170 559l-174 -559h344z" />
<glyph unicode="B" horiz-adv-x="1400" d="M848 0h-709v1454h809q98 0 176 -55.5t117 -139.5t39 -178q0 -107 -55 -199.5t-154 -136.5q128 -38 199 -132.5t71 -239.5q0 -121 -68 -207t-177.5 -126t-247.5 -40zM475 1167v-301h330q59 0 100 39.5t41 112.5q0 70 -36.5 109.5t-92.5 39.5h-342zM862 602h-387v-317h373 q65 0 108 43.5t43 111.5t-39 115t-98 47z" />
<glyph unicode="C" horiz-adv-x="1409" d="M784 1462q199 0 352 -86t228 -231l-258 -180q-24 55 -62 95.5t-83.5 62t-91 31t-93.5 9.5q-75 0 -138 -25t-107 -67.5t-74.5 -99t-45 -118t-14.5 -126.5q0 -116 46.5 -216t135 -162t201.5 -62q65 0 125.5 19t116.5 65.5t84 115.5l274 -161q-41 -103 -141 -182 t-221.5 -117.5t-245.5 -38.5q-153 0 -289 65t-228.5 170.5t-146 241t-53.5 274.5q0 106 31 210t94 196.5t149 163t203.5 112t251.5 41.5z" />
<glyph unicode="D" horiz-adv-x="1466" d="M139 0v1454h543q175 0 314.5 -56.5t228.5 -156t135.5 -230t46.5 -282.5q0 -330 -198.5 -529.5t-526.5 -199.5h-543zM682 1159h-207v-864h207q180 0 281.5 120.5t101.5 313.5q0 195 -102 312.5t-281 117.5z" />
<glyph unicode="E" horiz-adv-x="1226" d="M1161 295v-295h-1022v1454h1004v-295h-668v-282h574v-273h-574v-309h686z" />
<glyph unicode="F" horiz-adv-x="1165" d="M139 0v1454h987v-295h-651v-313h537v-273h-537v-573h-336z" />
<glyph unicode="G" horiz-adv-x="1499" d="M856 760h561v-760h-278v143q-166 -153 -383 -153q-142 0 -270 55t-222.5 151.5t-150.5 237t-56 303.5q0 148 56 282.5t151.5 232t230.5 155t287 57.5q199 0 352.5 -84.5t229.5 -232.5l-250 -189q-49 96 -142.5 151.5t-201.5 55.5q-164 0 -268.5 -126.5t-104.5 -313.5 q0 -190 108.5 -313t278.5 -123q199 0 355 182v45h-283v244z" />
<glyph unicode="H" horiz-adv-x="1529" d="M1391 1454v-1454h-336v596h-580v-596h-336v1454h336v-563h580v563h336z" />
<glyph unicode="I" horiz-adv-x="614" d="M139 0v1454h336v-1454h-336z" />
<glyph unicode="J" horiz-adv-x="1011" d="M82 342q29 -21 96.5 -43.5t147.5 -22.5q59 0 99 16t65.5 46t39 84t18.5 118.5t5 161.5v752h336v-739q0 -103 -5 -180t-19 -158t-39.5 -138t-67.5 -109.5t-101 -84t-142 -50t-189 -18.5q-185 0 -318 91z" />
<glyph unicode="K" horiz-adv-x="1390" d="M139 0v1454h336v-627l533 627h376l-544 -649l581 -805h-385l-409 584l-152 -156v-428h-336z" />
<glyph unicode="L" horiz-adv-x="1198" d="M139 0v1454h336v-1159h705v-295h-1041z" />
<glyph unicode="M" horiz-adv-x="1761" d="M1286 0v866l-313 -630h-185l-313 630v-866h-336v1454h365l377 -760l379 760h362v-1454h-336z" />
<glyph unicode="N" horiz-adv-x="1554" d="M475 831v-831h-336v1454h267l673 -856v856h336v-1454h-274z" />
<glyph unicode="O" horiz-adv-x="1556" d="M55 729q0 192 93 359.5t261.5 270.5t372.5 103q126 0 240 -41t200 -113t149.5 -165.5t96.5 -201.5t33 -218q0 -191 -92 -359t-260 -272t-373 -104q-157 0 -294 63t-229.5 167t-145 237.5t-52.5 273.5zM778 287q92 0 166.5 38t120.5 101.5t70 141.5t24 161 q0 85 -25.5 162.5t-72.5 138.5t-120.5 97t-162.5 36q-92 0 -166 -37.5t-120 -100t-70.5 -139.5t-24.5 -161q0 -85 25 -163t72 -139.5t120.5 -98.5t163.5 -37z" />
<glyph unicode="P" horiz-adv-x="1275" d="M139 0v1454h621q100 0 190 -43t151.5 -112t97.5 -157.5t36 -178.5q0 -128 -57 -240t-165 -183t-243 -71h-295v-469h-336zM475 762h275q62 0 103.5 53.5t41.5 147.5q0 95 -47 145.5t-111 50.5h-262v-397z" />
<glyph unicode="Q" horiz-adv-x="1554" d="M1522 0h-316l-76 82q-165 -92 -354 -92q-157 0 -294 63t-229.5 166t-145 236.5t-52.5 273.5q0 192 93 360t261.5 271.5t372.5 103.5q157 0 294 -64t228.5 -168.5t144 -237.5t52.5 -271q0 -136 -49 -264t-139 -228zM778 289q74 0 144 26l-234 258h316l90 -100 q65 110 65 256q0 85 -25.5 163t-72.5 139t-120.5 97.5t-162.5 36.5q-92 0 -166 -37.5t-120 -100.5t-70.5 -140.5t-24.5 -161.5q0 -85 25 -162.5t72 -139t120.5 -98t163.5 -36.5z" />
<glyph unicode="R" horiz-adv-x="1372" d="M139 0v1454h656q132 0 243 -72.5t171.5 -185t60.5 -233.5q0 -133 -64.5 -247.5t-173.5 -174.5l320 -541h-371l-279 469h-227v-469h-336zM475 762h307q61 0 103.5 57t42.5 144q0 85 -48 140.5t-108 55.5h-297v-397z" />
<glyph unicode="S" horiz-adv-x="1259" d="M1012 1028q-23 29 -148.5 84t-238.5 55q-181 0 -181 -120q0 -34 15.5 -58t60.5 -45t82 -33t123 -36q17 -5 25 -7q91 -25 155 -49.5t123.5 -61t95.5 -80.5t57 -106.5t21 -142.5q0 -96 -30 -172.5t-81 -126.5t-122 -83.5t-148 -47.5t-164 -14q-162 0 -327.5 48t-292.5 132 l147 293q11 -13 55.5 -39t109 -56.5t151 -52.5t164.5 -22q178 0 178 108q0 18 -5 33.5t-17 28.5t-24 23.5t-35 21.5t-41 18.5t-50 17.5t-54 17t-62 18t-65 19q-104 32 -174.5 67t-120.5 82t-73 108.5t-23 143.5q0 112 43 203t116.5 149t170.5 89.5t207 31.5q254 0 524 -159z " />
<glyph unicode="T" horiz-adv-x="1271" d="M1247 1159h-442v-1159h-336v1159h-444v295h1222v-295z" />
<glyph unicode="U" horiz-adv-x="1529" d="M764 -12q-136 0 -245.5 39t-183 105.5t-123 159.5t-71.5 197.5t-22 221.5v743h336v-743q0 -87 17 -160.5t52 -134t96.5 -95t143.5 -34.5q83 0 145 35.5t96.5 97t51 134t16.5 157.5v743h336v-743q0 -154 -38.5 -283t-115 -228.5t-202 -155.5t-289.5 -56z" />
<glyph unicode="V" horiz-adv-x="1380" d="M350 1454l342 -1061l338 1061h354l-528 -1454h-330l-532 1454h356z" />
<glyph unicode="W" horiz-adv-x="2160" d="M618 1452h310l151 -465l152 465h311l-248 -676l148 -387l364 1065h367l-567 -1454h-291l-236 569l-233 -569h-293l-565 1454h364l367 -1065l143 387z" />
<glyph unicode="X" horiz-adv-x="1333" d="M352 1454l316 -502l315 502h365l-482 -737l465 -717h-364l-299 481l-299 -481h-367l465 717l-481 737h366z" />
<glyph unicode="Y" horiz-adv-x="1357" d="M365 1454l313 -643l317 643h367l-518 -958v-496h-334v500l-510 954h365z" />
<glyph unicode="Z" horiz-adv-x="1280" d="M57 252l742 907h-713v295h1116v-252l-706 -907h714v-295h-1153v252z" />
<glyph unicode="[" horiz-adv-x="698" d="M164 -82v1598h440v-261h-137v-1077h137v-260h-440z" />
<glyph unicode="\" horiz-adv-x="1357" d="M416 1454l891 -1454h-361l-893 1454h363z" />
<glyph unicode="]" horiz-adv-x="698" d="M96 -82v260h135v1077h-135v261h439v-1598h-439z" />
<glyph unicode="^" horiz-adv-x="1236" d="M78 621l405 833h273l403 -833h-266l-275 563l-278 -563h-262z" />
<glyph unicode="_" horiz-adv-x="940" d="M102 -295v295h738v-295h-738z" />
<glyph unicode="`" horiz-adv-x="550" d="M94 1495h297l107 -266l-207 -58z" />
<glyph unicode="a" horiz-adv-x="1200" d="M45 322q0 159 129 258.5t334 99.5q140 0 240 -43v47q0 182 -216 182q-87 0 -165.5 -28.5t-169.5 -89.5l-99 208q215 140 467 140q243 0 376.5 -116.5t133.5 -334.5v-280q0 -49 15.5 -69.5t54.5 -23.5v-272q-76 -16 -139 -16q-175 0 -201 137l-6 47q-71 -91 -170.5 -139.5 t-208.5 -48.5q-161 0 -268 98t-107 244zM696 281q52 42 52 84v96q-100 35 -185 35q-91 0 -150 -41t-59 -105q0 -56 44.5 -95.5t117.5 -39.5q49 0 97.5 18t82.5 48z" />
<glyph unicode="b" horiz-adv-x="1310" d="M397 178v-178h-284v1495h327v-596q53 94 144 145.5t209 51.5q133 0 240.5 -75.5t167 -204.5t59.5 -284q0 -154 -65 -280.5t-180.5 -199t-256.5 -72.5q-122 0 -214 51.5t-147 146.5zM924 532q0 117 -69.5 201t-172.5 84q-76 0 -141.5 -52t-100.5 -134v-225 q32 -68 94.5 -109t131.5 -41q113 0 185.5 79t72.5 197z" />
<glyph unicode="c" horiz-adv-x="1167" d="M627 -20q-132 0 -242.5 45.5t-183 122.5t-112.5 178t-40 213t39.5 212.5t112 177.5t183 122t243.5 45q179 0 308 -77t195 -208l-319 -96q-63 102 -186 102q-103 0 -171.5 -77t-68.5 -201q0 -125 69 -204t171 -79q61 0 112 29t76 77l320 -98q-62 -129 -194 -206.5 t-312 -77.5z" />
<glyph unicode="d" horiz-adv-x="1339" d="M51 539q0 155 60 282t169 201t246 74q111 0 202.5 -53t141.5 -144v596h328v-1130q0 -49 15.5 -69.5t54.5 -23.5v-272q-79 -16 -140 -16q-85 0 -137 36.5t-63 102.5l-6 55q-55 -97 -152.5 -147.5t-210.5 -50.5q-146 0 -262.5 73t-181 200.5t-64.5 285.5zM872 406v225 q-31 81 -99 133.5t-142 52.5q-104 0 -173 -84.5t-69 -200.5q0 -120 73 -198t185 -78q68 0 130.5 41t94.5 109z" />
<glyph unicode="e" horiz-adv-x="1236" d="M627 -20q-132 0 -242.5 44.5t-183 119.5t-112.5 174t-40 208q0 116 39.5 219.5t111.5 181.5t182.5 123.5t244.5 45.5t244 -45.5t181 -122.5t109.5 -176.5t38.5 -210.5q0 -51 -8 -105h-795q7 -103 76.5 -162t163.5 -59q74 0 139 36t88 93l279 -78q-65 -130 -200 -208 t-316 -78zM389 637h467q-10 101 -74.5 162t-158.5 61q-95 0 -159.5 -61t-74.5 -162z" />
<glyph unicode="f" horiz-adv-x="788" d="M182 0v739h-137v248h137v88q0 200 103 320.5t272 120.5q131 0 281 -64l-60 -246q-79 33 -147 33q-121 0 -121 -152v-100h250v-248h-250v-739h-328z" />
<glyph unicode="g" horiz-adv-x="1310" d="M53 539q0 156 63 283t177.5 200.5t259.5 73.5q119 0 211 -51.5t149 -145.5v176h285v-1001q0 -243 -172.5 -387t-450.5 -144q-319 0 -512 215l177 179q59 -68 148 -108t187 -40q61 0 113 16.5t93.5 49.5t65 89t23.5 130v104q-48 -87 -139.5 -134.5t-200.5 -47.5 q-139 0 -249 73.5t-169 197t-59 272.5zM870 406v225q-32 84 -99.5 135t-143.5 51q-103 0 -171.5 -85.5t-68.5 -201.5q0 -118 73.5 -196t182.5 -78q73 0 133.5 41t93.5 109z" />
<glyph unicode="h" horiz-adv-x="1253" d="M1149 0h-328v604q0 102 -40 152.5t-113 50.5q-62 0 -131 -54.5t-97 -136.5v-616h-327v1495h327v-600q58 95 156 148t215 53q338 0 338 -408v-688z" />
<glyph unicode="i" horiz-adv-x="552" d="M113 1198v297h327v-297h-327zM113 0v1075h327v-1075h-327z" />
<glyph unicode="j" horiz-adv-x="561" d="M123 1198v297h328v-297h-328zM-233 -311l137 223q43 -43 110 -43q47 0 78 31.5t31 81.5v1093h328v-1069q0 -184 -113 -302t-283 -118t-288 103z" />
<glyph unicode="k" horiz-adv-x="1165" d="M836 0l-281 430l-115 -117v-313h-327v1495h327v-864l365 444h346l-387 -463l420 -612h-348z" />
<glyph unicode="l" horiz-adv-x="686" d="M109 1495h327v-1112q0 -125 94 -125q55 0 119 31l43 -246q-61 -28 -141.5 -44.5t-149.5 -16.5q-140 0 -216 74t-76 212v1227z" />
<glyph unicode="m" horiz-adv-x="1914" d="M1812 0h-327v604q0 102 -37.5 152.5t-101.5 50.5q-67 0 -129.5 -54t-90.5 -137v-616h-327v604q0 102 -38 152.5t-102 50.5q-66 0 -129 -54t-90 -137v-616h-327v1075h295v-180q59 97 161.5 149t235.5 52q126 0 199.5 -58t97.5 -151q62 100 163 154.5t228 54.5 q319 0 319 -408v-688z" />
<glyph unicode="n" horiz-adv-x="1253" d="M1149 0h-328v604q0 102 -39 152.5t-106 50.5q-69 0 -138 -54.5t-98 -136.5v-616h-327v1075h295v-180q59 96 167.5 148.5t249.5 52.5q324 0 324 -408v-688z" />
<glyph unicode="o" horiz-adv-x="1249" d="M49 537q0 112 39 212.5t110.5 178t182 123t244.5 45.5q133 0 243 -45.5t182 -123t111 -178t39 -212.5q0 -111 -39 -211.5t-110.5 -177.5t-181.5 -122.5t-244 -45.5t-244.5 45.5t-182 122.5t-110.5 177.5t-39 211.5zM625 256q102 0 169.5 79t67.5 202q0 125 -67 202.5 t-170 77.5t-171.5 -78.5t-68.5 -201.5q0 -125 68 -203t172 -78z" />
<glyph unicode="p" horiz-adv-x="1310" d="M440 174v-610h-327v1511h284v-174q126 195 361 195q142 0 256.5 -73.5t178.5 -200.5t64 -281q0 -241 -131.5 -401t-332.5 -160q-120 0 -211.5 51t-141.5 143zM924 543q0 119 -73 196.5t-185 77.5q-68 0 -131 -40t-95 -107v-221q33 -83 100.5 -138t141.5 -55 q104 0 173 84.5t69 202.5z" />
<glyph unicode="q" horiz-adv-x="1310" d="M53 541q0 155 64.5 282t179.5 200t256 73q231 0 360 -197v176h285v-1513h-328v612q-110 -194 -352 -194q-133 0 -239.5 74.5t-166 202.5t-59.5 284zM870 401v228q-25 79 -94 133.5t-143 54.5q-104 0 -175 -84.5t-71 -200.5q0 -121 71.5 -198.5t184.5 -77.5q136 0 227 145 z" />
<glyph unicode="r" horiz-adv-x="819" d="M795 795q-123 -2 -218 -40.5t-137 -109.5v-645h-327v1075h301v-217q56 107 143 170t184 64q42 0 54 -2v-295z" />
<glyph unicode="s" horiz-adv-x="1017" d="M524 -20q-141 0 -270.5 46t-218.5 132l112 207q199 -146 367 -146q133 0 133 84q0 42 -52 66q-26 12 -134 45q-59 20 -98.5 34t-82 33t-68.5 36t-51.5 40t-39 48.5t-21.5 58t-8 71.5q0 162 122 261.5t327 99.5q245 0 413 -152l-127 -205q-174 121 -303 121 q-58 0 -92.5 -21t-34.5 -65q0 -41 36 -63t132 -49q74 -23 122 -39.5t98 -38.5t79 -45t53.5 -53.5t35 -69t10.5 -86.5q0 -163 -118.5 -256.5t-320.5 -93.5z" />
<glyph unicode="t" horiz-adv-x="823" d="M809 57q-178 -77 -330 -77q-64 0 -116.5 15.5t-94 48.5t-65 89.5t-23.5 132.5v561h-137v248h137v342h328v-342h219v-248h-219v-448q0 -100 94 -100q61 0 143 38z" />
<glyph unicode="u" horiz-adv-x="1284" d="M102 387v688h328v-616q0 -98 39 -150.5t111 -52.5q148 0 235 156v663h328v-710q0 -49 15.5 -69.5t53.5 -23.5v-272q-81 -16 -139 -16q-86 0 -137.5 35.5t-63.5 101.5l-6 65q-143 -206 -428 -206q-164 0 -250 104t-86 303z" />
<glyph unicode="v" horiz-adv-x="1138" d="M391 0l-381 1075h338l236 -780l235 780h307l-378 -1075h-357z" />
<glyph unicode="w" horiz-adv-x="1740" d="M1438 1075h311l-444 -1075h-271l-164 438l-163 -438h-271l-444 1075h309l289 -766l102 299l-192 467h268l102 -323l103 323h266l-190 -467l102 -299z" />
<glyph unicode="x" horiz-adv-x="1110" d="M344 1075l191 -303l20 -39l20 39l191 303h338l-361 -534l369 -541h-338l-201 301l-18 39l-18 -39l-201 -301h-338l369 535l-361 540h338z" />
<glyph unicode="y" horiz-adv-x="1130" d="M121 -162q77 -26 141 -26q59 0 92.5 41.5t59.5 146.5l-410 1075h338l250 -739l213 739h309l-409 -1249q-43 -134 -155.5 -216.5t-260.5 -82.5q-91 0 -168 31v280z" />
<glyph unicode="z" horiz-adv-x="1011" d="M49 197l547 651h-518v227h862v-196l-541 -652h555v-227h-905v197z" />
<glyph unicode="{" horiz-adv-x="704" d="M485 1255v-370q0 -78 -77 -148q77 -69 77 -147v-393h113v-260h-360q-17 0 -32.5 14.5t-15.5 46.5v481q0 56 -33 97t-77 51v225q42 0 76 46t34 97v459q0 32 16.5 47t31.5 15h360v-261h-113z" />
<glyph unicode="|" horiz-adv-x="595" d="M160 -266v1853h276v-1853h-276z" />
<glyph unicode="}" horiz-adv-x="704" d="M106 1255v261h359q16 0 31.5 -14.5t15.5 -47.5v-459q0 -51 35.5 -97t77.5 -46v-225q-44 -10 -78.5 -51t-34.5 -97v-481q0 -33 -14.5 -47t-32.5 -14h-359v260h113v393q0 78 76 147q-76 69 -76 148v370h-113z" />
<glyph unicode="~" horiz-adv-x="1202" d="M414 752q52 0 106 -17t91.5 -37.5t85.5 -37.5t89 -17q33 0 60 10.5t41.5 24.5t24.5 30t13 26t3 14h176q0 -14 -9 -44t-33 -74t-58.5 -82t-92.5 -65.5t-127 -27.5q-51 0 -104.5 16.5t-91.5 35.5t-86.5 35.5t-89.5 16.5q-33 0 -59 -10.5t-39 -24.5t-21 -30.5t-10 -25.5 t-2 -13h-177q0 20 9 53t32.5 76t57 80t89 62.5t122.5 25.5z" />
<glyph unicode="&#xa1;" horiz-adv-x="677" d="M502 1456v-340h-328v340h328zM502 879v-891h-328v891h328z" />
<glyph unicode="&#xa2;" horiz-adv-x="1236" d="M565 -246v228q-138 11 -251.5 93t-174.5 202.5t-61 250.5q0 140 54 257t166 199.5t267 107.5v229h142v-229q144 -5 264 -76.5t190 -204.5l-319 -96q-21 38 -58.5 62.5t-76.5 29.5v-543q47 13 85 38.5t52 59.5l319 -98q-40 -89 -125 -156.5t-171.5 -97.5t-159.5 -30v-226 h-142zM565 281v512q-69 -21 -109 -95t-40 -170q0 -81 40 -149t109 -98z" />
<glyph unicode="&#xa3;" horiz-adv-x="1155" d="M1001 276l80 -241q-48 -29 -113.5 -47.5t-125.5 -18.5q-62 0 -194 32t-199 32q-124 0 -279 -51l-68 233q87 63 141 150.5t62 177.5h-184v243h131q-7 16 -26 58t-28 64t-21 57t-17.5 66.5t-5.5 62.5q0 155 128 262.5t314 107.5q129 0 246.5 -57t199.5 -158l-170 -200 q-51 65 -130.5 108t-149.5 43q-66 0 -107 -39t-41 -102q0 -37 15 -78.5t44 -101.5t42 -93h383v-243h-342q-7 -74 -44.5 -143t-111.5 -148q88 29 156 29q48 0 138 -16.5t134 -16.5q57 0 143 28z" />
<glyph unicode="&#xa4;" horiz-adv-x="1146" d="M360 1026q95 53 215 53q114 0 211 -51l142 143l127 -127l-135 -135q63 -94 63 -217q0 -126 -65 -221l137 -135l-117 -117l-147 137q-91 -51 -216 -51q-124 0 -219 53l-147 -139l-119 117l139 139q-61 99 -61 217q0 121 59 213l-137 139l129 127zM575 504q75 0 124 52 t49 136t-49 135.5t-124 51.5t-123.5 -52t-48.5 -137q0 -82 49 -134t123 -52z" />
<glyph unicode="&#xa5;" horiz-adv-x="1486" d="M1092 852h141v-211h-250l-78 -145v-64h330v-211h-330v-221h-334v221h-327v211h327v68l-75 141h-250v211h143l-328 602h363l313 -668l320 668h366z" />
<glyph unicode="&#xa6;" horiz-adv-x="602" d="M440 1587v-799h-278v799h278zM440 532v-798h-278v798h278z" />
<glyph unicode="&#xa7;" horiz-adv-x="1107" d="M1026 250q0 -91 -30.5 -166t-79.5 -123t-112 -80.5t-125.5 -46.5t-123.5 -14q-79 0 -156 23.5t-135 60.5t-98 71.5t-68 67.5l209 201q107 -113 232 -113q62 0 104.5 28.5t42.5 78.5q0 21 -8 36t-19 23.5t-30 14t-33 7.5t-35 3q-211 17 -322.5 117t-111.5 259q0 28 4 54 t8 38.5t11.5 31.5t7.5 20q-27 31 -50.5 90t-23.5 129q0 78 34 151.5t92.5 129t141.5 89t176 33.5q71 0 137 -20t111.5 -47t89.5 -68.5t68 -71t51 -67.5l-250 -119q-61 103 -186 103q-62 0 -98.5 -29.5t-36.5 -77.5q0 -55 34.5 -74.5t98.5 -21.5q66 -2 127 -13.5t121.5 -38 t104.5 -65.5t71.5 -100.5t27.5 -137.5q0 -94 -34 -159q61 -64 61 -207zM662 537q28 22 28 69q0 53 -40 78t-89 25q-67 0 -90 14q-27 -24 -27 -70q0 -42 26 -66t56.5 -29t74 -10t61.5 -11z" />
<glyph unicode="&#xa8;" horiz-adv-x="1040" d="M170 1214v265h270v-265h-270zM600 1214v265h270v-265h-270z" />
<glyph unicode="&#xa9;" horiz-adv-x="1728" d="M84 727q0 156 58.5 293t160.5 234.5t245.5 153.5t307.5 56q168 0 315 -56t251.5 -153.5t164.5 -234.5t60 -293q0 -157 -60 -294.5t-164.5 -235.5t-251.5 -154.5t-315 -56.5q-164 0 -307.5 56.5t-245.5 154.5t-160.5 235.5t-58.5 294.5zM1518 725q0 128 -50.5 242.5 t-138 198t-210.5 132t-263 48.5q-135 0 -255 -48.5t-204.5 -131.5t-134 -197.5t-49.5 -241.5q0 -172 83 -314.5t231 -225.5t329 -83q184 0 335 78t239 220.5t88 322.5zM356 725q0 95 34 181t97 153t162.5 107t222.5 40q165 0 285.5 -72.5t177.5 -197.5l-307 -94 q-25 49 -67 72.5t-91 23.5q-84 0 -136 -60t-52 -153q0 -95 57 -153t133 -58q50 0 92.5 26t67.5 72l307 -94q-56 -120 -176.5 -196t-285.5 -76q-118 0 -217 38t-165 103t-102.5 152.5t-36.5 185.5z" />
<glyph unicode="&#xaa;" horiz-adv-x="915" d="M76 926q0 110 86 180t221 70q92 0 156 -31v31q0 127 -138 127q-102 0 -223 -82l-69 145q140 96 315 96q165 0 254.5 -80t89.5 -233v-182q0 -34 13 -49.5t44 -16.5v-199q-61 -12 -106 -12q-120 0 -139 98l-5 33q-102 -133 -251 -133q-106 0 -177 68.5t-71 169.5zM508 901 q31 24 31 53v68q-55 25 -117 25q-57 0 -93 -28.5t-36 -72.5q0 -37 28.5 -62.5t69.5 -25.5q71 0 117 43z" />
<glyph unicode="&#xab;" horiz-adv-x="1390" d="M68 600l553 395v-264l-295 -201l295 -186v-264l-553 364v156zM721 600l553 395v-264l-295 -201l295 -186v-264l-553 364v156z" />
<glyph unicode="&#xac;" horiz-adv-x="1275" d="M1149 850v-649h-277v354h-761v295h1038z" />
<glyph unicode="&#xad;" horiz-adv-x="1259" d="M111 416v295h1038v-295h-1038z" />
<glyph unicode="&#xae;" horiz-adv-x="1728" d="M84 727q0 156 58.5 292.5t160 234.5t246.5 154t311 56q221 0 401.5 -95.5t283 -264.5t102.5 -377q0 -157 -60 -294.5t-164.5 -235.5t-250.5 -154.5t-312 -56.5t-311 56.5t-246.5 154.5t-160 235.5t-58.5 294.5zM1509 723q0 172 -83 314.5t-232 225.5t-332 83 q-139 0 -259.5 -48.5t-204 -132t-131.5 -198t-48 -242.5t48 -243t131.5 -198.5t204 -132.5t259.5 -49q135 0 254.5 47t206 128.5t136.5 197t50 248.5zM520 1176h404q123 0 208 -94.5t85 -209.5q0 -79 -41.5 -149.5t-106.5 -106.5l203 -329h-256l-178 286h-86v-286h-232v889z M901 762q40 0 64 27t24 83q0 57 -26.5 84t-65.5 27h-145v-221h149z" />
<glyph unicode="&#xaf;" horiz-adv-x="876" d="M127 1272v198h623v-198h-623z" />
<glyph unicode="&#xb0;" horiz-adv-x="598" d="M299 1483q98 0 161.5 -62t63.5 -155q0 -105 -63 -169.5t-162 -64.5q-98 0 -161.5 65.5t-63.5 168.5q0 93 63.5 155t161.5 62zM227 1257q0 -31 21 -49q19 -22 51 -22q33 0 49 22q21 15 21 49q0 32 -21 50q-14 20 -49 20q-34 0 -51 -20q-21 -21 -21 -50z" />
<glyph unicode="&#xb1;" horiz-adv-x="974" d="M862 911v-260h-227v-248h-295v248h-227v260h227v248h295v-248h227zM111 33v260h749v-260h-749z" />
<glyph unicode="&#xb2;" horiz-adv-x="876" d="M57 784q0 164 57 250t214 156q19 8 61 25.5t64.5 27t55 27.5t49 33.5t29.5 38t13 47.5q0 52 -45.5 83t-120.5 31q-146 0 -250 -108l-121 139q42 56 150 98.5t244 42.5q171 0 262.5 -72.5t91.5 -201.5q0 -210 -262 -291q-89 -27 -132.5 -60t-43.5 -79h436v-187h-752z" />
<glyph unicode="&#xb3;" horiz-adv-x="847" d="M53 926l99 129q84 -99 243 -99q78 0 129 25t51 76q0 52 -58.5 76t-188.5 24h-49v168h49q113 0 165 22t52 68q0 48 -44.5 69t-105.5 21q-141 0 -229 -92l-115 143q47 56 150.5 87.5t210.5 31.5q155 0 252.5 -68t97.5 -173q0 -70 -45 -119t-123 -64q86 -13 137 -76.5 t51 -150.5q0 -86 -54 -145t-136.5 -84t-185.5 -25q-127 0 -223.5 41t-129.5 115z" />
<glyph unicode="&#xb4;" horiz-adv-x="550" d="M303 1171l-209 58l107 266h297z" />
<glyph unicode="&#xb5;" horiz-adv-x="1400" d="M156 1075h327v-616q0 -203 158 -203q62 0 123.5 38t105.5 118v663h328v-706q0 -49 18 -69.5t64 -23.5v-276q-88 -16 -154 -16q-85 0 -137 37t-63 104l-6 61q-30 -69 -119 -137.5t-180 -68.5q-65 0 -107.5 33.5t-50.5 64.5l20 -514h-327v1511z" />
<glyph unicode="&#xb6;" horiz-adv-x="1390" d="M647 1454h649v-244h-143v-1374h-279v572h-83v-572h-279v572q-198 0 -320 142t-122 374q0 252 151.5 391t425.5 139zM512 649v561q-78 -6 -124 -82.5t-46 -195.5q0 -120 48.5 -197t121.5 -86zM874 1210h-83v-561h83v561z" />
<glyph unicode="&#xb7;" horiz-adv-x="489" d="M111 492v339h268v-339h-268z" />
<glyph unicode="&#xb8;" horiz-adv-x="702" d="M303 -430q-129 0 -250 65l78 170q56 -41 117 -41q45 0 71.5 22.5t26.5 63.5q0 76 -100 150l106 66q90 -64 139.5 -129t49.5 -150q0 -94 -61.5 -155.5t-176.5 -61.5z" />
<glyph unicode="&#xb9;" horiz-adv-x="632" d="M590 975v-189h-492v189h158v498q-24 -33 -86.5 -70t-106.5 -37v190q37 0 85.5 30t76.5 56.5t31 32.5h193v-700h141z" />
<glyph unicode="&#xba;" horiz-adv-x="903" d="M66 1075q0 105 44 192t133 141t208 54q120 0 209.5 -54t133.5 -141t44 -192q0 -78 -26 -147.5t-73.5 -123t-122 -85t-165.5 -31.5q-177 0 -281 112.5t-104 274.5zM451 887q65 0 108 52t43 136t-43 136.5t-108 52.5q-64 0 -107 -52.5t-43 -136.5q0 -83 43 -135.5 t107 -52.5z" />
<glyph unicode="&#xbb;" horiz-adv-x="1390" d="M670 444l-553 -364v264l295 186l-295 201v264l553 -395v-156zM1323 444l-553 -364v264l295 186l-295 201v264l553 -395v-156z" />
<glyph unicode="&#xbc;" horiz-adv-x="1875" d="M590 797v-189h-492v189h158v497q-24 -33 -86.5 -69.5t-106.5 -36.5v190q37 0 85.5 30t76.5 56.5t31 32.5h193v-700h141zM231 115l578 663l524 695l148 -132l-559 -647l-545 -712zM1489 2v195h-432v172l506 514h145v-531h113v-155h-113v-195h-219zM1237 352h260v271z" />
<glyph unicode="&#xbd;" horiz-adv-x="1959" d="M590 797v-189h-492v189h158v497q-24 -33 -86.5 -69.5t-106.5 -36.5v190q37 0 85.5 30t76.5 56.5t31 32.5h193v-700h141zM231 115l578 663l524 695l148 -132l-559 -647l-545 -712zM1139 0q0 164 55.5 250t210.5 156q19 8 61 25.5t64 27t54 27t49 33t29.5 38t12.5 47.5 q0 52 -45 83.5t-119 31.5q-140 0 -247 -111l-119 142q40 56 147.5 98.5t241.5 42.5q168 0 259 -73t91 -202q0 -209 -260 -290q-174 -54 -174 -140h436v-186h-747z" />
<glyph unicode="&#xbe;" horiz-adv-x="2091" d="M53 748l99 129q84 -99 243 -99q78 0 129 25t51 76q0 52 -58.5 76t-188.5 24h-49v168h49q113 0 165 22t52 68q0 48 -44.5 69t-105.5 21q-141 0 -229 -92l-115 143q47 56 150.5 87.5t210.5 31.5q155 0 252.5 -68.5t97.5 -173.5q0 -70 -45 -118.5t-123 -63.5 q86 -13 137 -76.5t51 -150.5q0 -86 -54 -145t-136.5 -84t-185.5 -25q-127 0 -223.5 41t-129.5 115zM446 115l578 663l524 695l148 -132l-559 -647l-545 -712zM1704 2v195h-432v172l506 514h145v-531h113v-155h-113v-195h-219zM1452 352h260v271z" />
<glyph unicode="&#xbf;" horiz-adv-x="989" d="M766 1036v-307h-268v307h268zM772 535q0 -108 -33.5 -183t-132.5 -129q-8 -5 -43 -23.5t-57.5 -31t-56 -36.5t-53.5 -46t-35 -52.5t-15 -62.5q0 -65 48 -104t114 -39q38 0 71.5 13.5t60 40t41.5 45.5t34 48l211 -147q-54 -124 -169 -194t-261 -70q-64 0 -125 14 t-117.5 45.5t-99 78t-68 116.5t-25.5 155q0 113 47.5 192.5t143.5 141.5q26 17 69 40t70 39t55 38.5t42 50t14 60.5h270z" />
<glyph unicode="&#xc0;" horiz-adv-x="1372" d="M408 1872h297l106 -266l-207 -58zM506 1454h362l500 -1454h-344l-113 326h-452l-111 -326h-344zM856 557l-170 559l-174 -559h344z" />
<glyph unicode="&#xc1;" horiz-adv-x="1372" d="M793 1548l-209 58l106 266h297zM506 1454h362l500 -1454h-344l-113 326h-452l-111 -326h-344zM856 557l-170 559l-174 -559h344z" />
<glyph unicode="&#xc2;" horiz-adv-x="1372" d="M344 1651l225 221h236l223 -221l-168 -74l-174 129l-174 -129zM506 1454h362l500 -1454h-344l-113 326h-452l-111 -326h-344zM856 557l-170 559l-174 -559h344z" />
<glyph unicode="&#xc3;" horiz-adv-x="1372" d="M551 1675q-25 0 -44 -10t-28.5 -22.5t-15.5 -28.5t-7 -24.5t-1 -12.5h-176q0 21 8 54t28 75t48.5 77.5t74.5 60t101 24.5q43 0 83 -15.5t65.5 -34t58.5 -34t65 -15.5q26 0 47 10.5t31.5 24t17.5 29.5t9 25.5t2 13.5h176q0 -16 -8.5 -47t-29.5 -74t-50.5 -80.5 t-77.5 -63.5t-105 -26q-53 0 -101.5 23.5t-91 47t-79.5 23.5zM506 1454h362l500 -1454h-344l-113 326h-452l-111 -326h-344zM856 557l-170 559l-174 -559h344z" />
<glyph unicode="&#xc4;" horiz-adv-x="1372" d="M336 1593v265h270v-265h-270zM766 1593v265h270v-265h-270zM506 1454h362l500 -1454h-344l-113 326h-452l-111 -326h-344zM856 557l-170 559l-174 -559h344z" />
<glyph unicode="&#xc5;" horiz-adv-x="1372" d="M686 1896q102 0 163.5 -51.5t61.5 -138.5q0 -86 -61.5 -136t-163.5 -50q-103 0 -165 50t-62 136q0 87 62 138.5t165 51.5zM600 1708q0 -34 25 -59t61 -25q35 0 60.5 25t25.5 59q0 35 -24.5 58.5t-61.5 23.5t-61.5 -23.5t-24.5 -58.5zM506 1454h362l500 -1454h-344 l-113 326h-452l-111 -326h-344zM856 557l-170 559l-174 -559h344z" />
<glyph unicode="&#xc6;" horiz-adv-x="1982" d="M844 1454h1054v-295h-632v-272h522v-293h-522v-299h651v-295h-985v326h-440l-187 -326h-358zM905 621v458l-272 -458h272z" />
<glyph unicode="&#xc7;" horiz-adv-x="1409" d="M1380 326q-53 -132 -192 -218.5t-307 -111.5q100 -97 100 -209q0 -94 -61.5 -155.5t-176.5 -61.5q-128 0 -249 65l77 170q56 -41 117 -41q45 0 71.5 22.5t26.5 63.5q0 70 -90 142q-139 15 -260.5 85t-203.5 173t-129.5 230.5t-47.5 258.5q0 106 31 210t94 196.5t149 163 t203.5 112t251.5 41.5q199 0 352 -86t228 -231l-258 -180q-24 55 -62 95.5t-83.5 62t-91 31t-93.5 9.5q-75 0 -138 -25t-107 -67.5t-74.5 -99t-45 -118t-14.5 -126.5q0 -116 46.5 -216t135 -162t201.5 -62q65 0 125.5 19t116.5 65.5t84 115.5z" />
<glyph unicode="&#xc8;" horiz-adv-x="1226" d="M379 1872h297l106 -266l-207 -58zM1161 295v-295h-1022v1454h1004v-295h-668v-282h574v-273h-574v-309h686z" />
<glyph unicode="&#xc9;" horiz-adv-x="1226" d="M764 1548l-209 58l107 266h296zM1161 295v-295h-1022v1454h1004v-295h-668v-282h574v-273h-574v-309h686z" />
<glyph unicode="&#xca;" horiz-adv-x="1226" d="M315 1651l226 221h235l223 -221l-168 -74l-174 129l-174 -129zM1161 295v-295h-1022v1454h1004v-295h-668v-282h574v-273h-574v-309h686z" />
<glyph unicode="&#xcb;" horiz-adv-x="1226" d="M307 1593v265h271v-265h-271zM737 1593v265h271v-265h-271zM1161 295v-295h-1022v1454h1004v-295h-668v-282h574v-273h-574v-309h686z" />
<glyph unicode="&#xcc;" horiz-adv-x="614" d="M29 1872h297l106 -266l-207 -58zM139 0v1454h336v-1454h-336z" />
<glyph unicode="&#xcd;" horiz-adv-x="614" d="M414 1548l-209 58l106 266h297zM139 0v1454h336v-1454h-336z" />
<glyph unicode="&#xce;" horiz-adv-x="614" d="M-35 1651l225 221h236l223 -221l-168 -74l-174 129l-174 -129zM139 0v1454h336v-1454h-336z" />
<glyph unicode="&#xcf;" horiz-adv-x="614" d="M-43 1593v265h270v-265h-270zM387 1593v265h270v-265h-270zM139 0v1454h336v-1454h-336z" />
<glyph unicode="&#xd0;" horiz-adv-x="1476" d="M692 1454q175 0 314.5 -56.5t228.5 -156t135.5 -230t46.5 -282.5q0 -330 -198.5 -529.5t-526.5 -199.5h-542v610h-89v242h89v602h542zM692 295q180 0 281.5 120.5t101.5 313.5q0 195 -102 312.5t-281 117.5h-207v-307h263v-242h-263v-315h207z" />
<glyph unicode="&#xd1;" horiz-adv-x="1554" d="M639 1675q-25 0 -44 -10t-28.5 -22.5t-15.5 -28.5t-7 -24.5t-1 -12.5h-176q0 21 8 54t28 75t48.5 77.5t74.5 60t101 24.5q43 0 83 -15.5t65.5 -34t58.5 -34t65 -15.5q26 0 47 10.5t31.5 24t17.5 29.5t9 25.5t2 13.5h176q0 -16 -8.5 -47t-29.5 -74t-50.5 -80.5 t-77.5 -63.5t-105 -26q-53 0 -101.5 23.5t-91 47t-79.5 23.5zM475 831v-831h-336v1454h267l673 -856v856h336v-1454h-274z" />
<glyph unicode="&#xd2;" horiz-adv-x="1556" d="M504 1872h297l106 -266l-207 -58zM55 729q0 192 93 359.5t261.5 270.5t372.5 103q126 0 240 -41t200 -113t149.5 -165.5t96.5 -201.5t33 -218q0 -191 -92 -359t-260 -272t-373 -104q-157 0 -294 63t-229.5 167t-145 237.5t-52.5 273.5zM778 287q92 0 166.5 38 t120.5 101.5t70 141.5t24 161q0 85 -25.5 162.5t-72.5 138.5t-120.5 97t-162.5 36q-92 0 -166 -37.5t-120 -100t-70.5 -139.5t-24.5 -161q0 -85 25 -163t72 -139.5t120.5 -98.5t163.5 -37z" />
<glyph unicode="&#xd3;" horiz-adv-x="1556" d="M889 1548l-209 58l106 266h297zM55 729q0 192 93 359.5t261.5 270.5t372.5 103q126 0 240 -41t200 -113t149.5 -165.5t96.5 -201.5t33 -218q0 -191 -92 -359t-260 -272t-373 -104q-157 0 -294 63t-229.5 167t-145 237.5t-52.5 273.5zM778 287q92 0 166.5 38t120.5 101.5 t70 141.5t24 161q0 85 -25.5 162.5t-72.5 138.5t-120.5 97t-162.5 36q-92 0 -166 -37.5t-120 -100t-70.5 -139.5t-24.5 -161q0 -85 25 -163t72 -139.5t120.5 -98.5t163.5 -37z" />
<glyph unicode="&#xd4;" horiz-adv-x="1556" d="M440 1651l226 221h235l223 -221l-168 -74l-174 129l-174 -129zM55 729q0 192 93 359.5t261.5 270.5t372.5 103q126 0 240 -41t200 -113t149.5 -165.5t96.5 -201.5t33 -218q0 -191 -92 -359t-260 -272t-373 -104q-157 0 -294 63t-229.5 167t-145 237.5t-52.5 273.5z M778 287q92 0 166.5 38t120.5 101.5t70 141.5t24 161q0 85 -25.5 162.5t-72.5 138.5t-120.5 97t-162.5 36q-92 0 -166 -37.5t-120 -100t-70.5 -139.5t-24.5 -161q0 -85 25 -163t72 -139.5t120.5 -98.5t163.5 -37z" />
<glyph unicode="&#xd5;" horiz-adv-x="1556" d="M647 1675q-25 0 -44 -10t-28.5 -22.5t-15.5 -28.5t-7 -24.5t-1 -12.5h-176q0 21 8 54t28 75t48.5 77.5t74.5 60t101 24.5q43 0 83 -15.5t65.5 -34t58.5 -34t65 -15.5q26 0 47 10.5t31.5 24t17.5 29.5t9 25.5t2 13.5h176q0 -12 -6.5 -36.5t-19 -58t-34.5 -67.5t-50.5 -63 t-70 -47.5t-89.5 -18.5q-42 0 -82.5 14.5t-66.5 32.5t-60 32.5t-64 14.5zM55 729q0 192 93 359.5t261.5 270.5t372.5 103q126 0 240 -41t200 -113t149.5 -165.5t96.5 -201.5t33 -218q0 -191 -92 -359t-260 -272t-373 -104q-157 0 -294 63t-229.5 167t-145 237.5t-52.5 273.5 zM778 287q92 0 166.5 38t120.5 101.5t70 141.5t24 161q0 85 -25.5 162.5t-72.5 138.5t-120.5 97t-162.5 36q-92 0 -166 -37.5t-120 -100t-70.5 -139.5t-24.5 -161q0 -85 25 -163t72 -139.5t120.5 -98.5t163.5 -37z" />
<glyph unicode="&#xd6;" horiz-adv-x="1556" d="M432 1593v265h270v-265h-270zM862 1593v265h271v-265h-271zM55 729q0 192 93 359.5t261.5 270.5t372.5 103q126 0 240 -41t200 -113t149.5 -165.5t96.5 -201.5t33 -218q0 -191 -92 -359t-260 -272t-373 -104q-157 0 -294 63t-229.5 167t-145 237.5t-52.5 273.5zM778 287 q92 0 166.5 38t120.5 101.5t70 141.5t24 161q0 85 -25.5 162.5t-72.5 138.5t-120.5 97t-162.5 36q-92 0 -166 -37.5t-120 -100t-70.5 -139.5t-24.5 -161q0 -85 25 -163t72 -139.5t120.5 -98.5t163.5 -37z" />
<glyph unicode="&#xd7;" horiz-adv-x="991" d="M895 371l-205 -203l-196 194l-195 -194l-203 203l193 194l-183 187l205 202l185 -184l184 184l203 -202l-185 -185z" />
<glyph unicode="&#xd8;" horiz-adv-x="1554" d="M1311 1223q91 -104 140.5 -234.5t49.5 -265.5q0 -191 -92 -359t-260 -272t-373 -104q-162 0 -297 63l-37 -51h-362l164 229q-91 103 -140 233t-49 267q0 192 93 359.5t261.5 270.5t372.5 103q158 0 293 -63l39 55h363zM397 725q0 -119 45 -215l453 635q-53 18 -117 18 q-92 0 -166 -37.5t-120 -100t-70.5 -139.5t-24.5 -161zM778 287q92 0 166.5 38t120.5 101.5t70 141.5t24 161q0 113 -45 215l-455 -639q56 -18 119 -18z" />
<glyph unicode="&#xd9;" horiz-adv-x="1529" d="M485 1872h297l107 -266l-207 -58zM764 -12q-136 0 -245.5 39t-183 105.5t-123 159.5t-71.5 197.5t-22 221.5v743h336v-743q0 -87 17 -160.5t52 -134t96.5 -95t143.5 -34.5q83 0 145 35.5t96.5 97t51 134t16.5 157.5v743h336v-743q0 -154 -38.5 -283t-115 -228.5 t-202 -155.5t-289.5 -56z" />
<glyph unicode="&#xda;" horiz-adv-x="1529" d="M870 1548l-208 58l106 266h297zM764 -12q-136 0 -245.5 39t-183 105.5t-123 159.5t-71.5 197.5t-22 221.5v743h336v-743q0 -87 17 -160.5t52 -134t96.5 -95t143.5 -34.5q83 0 145 35.5t96.5 97t51 134t16.5 157.5v743h336v-743q0 -154 -38.5 -283t-115 -228.5 t-202 -155.5t-289.5 -56z" />
<glyph unicode="&#xdb;" horiz-adv-x="1529" d="M422 1651l225 221h236l223 -221l-168 -74l-174 129l-174 -129zM764 -12q-136 0 -245.5 39t-183 105.5t-123 159.5t-71.5 197.5t-22 221.5v743h336v-743q0 -87 17 -160.5t52 -134t96.5 -95t143.5 -34.5q83 0 145 35.5t96.5 97t51 134t16.5 157.5v743h336v-743 q0 -154 -38.5 -283t-115 -228.5t-202 -155.5t-289.5 -56z" />
<glyph unicode="&#xdc;" horiz-adv-x="1529" d="M414 1593v265h270v-265h-270zM844 1593v265h270v-265h-270zM764 -12q-136 0 -245.5 39t-183 105.5t-123 159.5t-71.5 197.5t-22 221.5v743h336v-743q0 -87 17 -160.5t52 -134t96.5 -95t143.5 -34.5q83 0 145 35.5t96.5 97t51 134t16.5 157.5v743h336v-743 q0 -154 -38.5 -283t-115 -228.5t-202 -155.5t-289.5 -56z" />
<glyph unicode="&#xdd;" horiz-adv-x="1357" d="M784 1548l-209 58l107 266h297zM365 1454l313 -643l317 643h367l-518 -958v-496h-334v500l-510 954h365z" />
<glyph unicode="&#xde;" horiz-adv-x="1239" d="M1202 711q0 -129 -57 -241t-164.5 -182.5t-241.5 -70.5h-264v-217h-336v1454h336v-254h252q100 0 190 -42.5t151.5 -111t97.5 -157t36 -178.5zM866 711q0 86 -47 141t-108 55h-236v-395h246q62 0 103.5 56.5t41.5 142.5z" />
<glyph unicode="&#xdf;" horiz-adv-x="1146" d="M512 289q108 0 175 47t67 137q0 85 -58.5 132.5t-132.5 47.5h-45v293h43q57 0 89 32.5t32 86.5q0 36 -14 61.5t-36 37.5t-41 17t-36 5q-39 0 -67 -17t-40.5 -45t-18 -53.5t-5.5 -52.5v-1018h-311v1075q0 167 134.5 277t336.5 110q181 0 295 -91.5t114 -248.5 q0 -101 -48.5 -184.5t-115.5 -112.5q126 -42 197.5 -144t71.5 -247q0 -97 -33 -174t-88.5 -127t-132 -83t-158.5 -47t-174 -15v301z" />
<glyph unicode="&#xe0;" horiz-adv-x="1200" d="M287 1495h297l106 -266l-207 -58zM45 322q0 159 129 258.5t334 99.5q140 0 240 -43v47q0 182 -216 182q-87 0 -165.5 -28.5t-169.5 -89.5l-99 208q215 140 467 140q243 0 376.5 -116.5t133.5 -334.5v-280q0 -49 15.5 -69.5t54.5 -23.5v-272q-76 -16 -139 -16 q-175 0 -201 137l-6 47q-71 -91 -170.5 -139.5t-208.5 -48.5q-161 0 -268 98t-107 244zM696 281q52 42 52 84v96q-100 35 -185 35q-91 0 -150 -41t-59 -105q0 -56 44.5 -95.5t117.5 -39.5q49 0 97.5 18t82.5 48z" />
<glyph unicode="&#xe1;" horiz-adv-x="1200" d="M672 1171l-209 58l106 266h297zM45 322q0 159 129 258.5t334 99.5q140 0 240 -43v47q0 182 -216 182q-87 0 -165.5 -28.5t-169.5 -89.5l-99 208q215 140 467 140q243 0 376.5 -116.5t133.5 -334.5v-280q0 -49 15.5 -69.5t54.5 -23.5v-272q-76 -16 -139 -16 q-175 0 -201 137l-6 47q-71 -91 -170.5 -139.5t-208.5 -48.5q-161 0 -268 98t-107 244zM696 281q52 42 52 84v96q-100 35 -185 35q-91 0 -150 -41t-59 -105q0 -56 44.5 -95.5t117.5 -39.5q49 0 97.5 18t82.5 48z" />
<glyph unicode="&#xe2;" horiz-adv-x="1200" d="M223 1274l226 221h235l223 -221l-168 -74l-174 129l-174 -129zM45 322q0 159 129 258.5t334 99.5q140 0 240 -43v47q0 182 -216 182q-87 0 -165.5 -28.5t-169.5 -89.5l-99 208q215 140 467 140q243 0 376.5 -116.5t133.5 -334.5v-280q0 -49 15.5 -69.5t54.5 -23.5v-272 q-76 -16 -139 -16q-175 0 -201 137l-6 47q-71 -91 -170.5 -139.5t-208.5 -48.5q-161 0 -268 98t-107 244zM696 281q52 42 52 84v96q-100 35 -185 35q-91 0 -150 -41t-59 -105q0 -56 44.5 -95.5t117.5 -39.5q49 0 97.5 18t82.5 48z" />
<glyph unicode="&#xe3;" horiz-adv-x="1200" d="M430 1298q-25 0 -44 -10t-28.5 -22.5t-15.5 -28.5t-7 -24.5t-1 -12.5h-176q0 21 8 54t28 75t48.5 77.5t74.5 60t101 24.5q43 0 83 -15.5t65.5 -33.5t58.5 -33.5t65 -15.5q26 0 47 10t31.5 24t17.5 30t9 25t2 13h176q0 -16 -8.5 -47t-29.5 -74t-50.5 -80.5t-77.5 -63.5 t-105 -26q-53 0 -101.5 23.5t-91 47t-79.5 23.5zM45 322q0 159 129 258.5t334 99.5q140 0 240 -43v47q0 182 -216 182q-87 0 -165.5 -28.5t-169.5 -89.5l-99 208q215 140 467 140q243 0 376.5 -116.5t133.5 -334.5v-280q0 -49 15.5 -69.5t54.5 -23.5v-272q-76 -16 -139 -16 q-175 0 -201 137l-6 47q-71 -91 -170.5 -139.5t-208.5 -48.5q-161 0 -268 98t-107 244zM696 281q52 42 52 84v96q-100 35 -185 35q-91 0 -150 -41t-59 -105q0 -56 44.5 -95.5t117.5 -39.5q49 0 97.5 18t82.5 48z" />
<glyph unicode="&#xe4;" horiz-adv-x="1200" d="M215 1217v264h270v-264h-270zM645 1217v264h270v-264h-270zM45 322q0 159 129 258.5t334 99.5q140 0 240 -43v47q0 182 -216 182q-87 0 -165.5 -28.5t-169.5 -89.5l-99 208q215 140 467 140q243 0 376.5 -116.5t133.5 -334.5v-280q0 -49 15.5 -69.5t54.5 -23.5v-272 q-76 -16 -139 -16q-175 0 -201 137l-6 47q-71 -91 -170.5 -139.5t-208.5 -48.5q-161 0 -268 98t-107 244zM696 281q52 42 52 84v96q-100 35 -185 35q-91 0 -150 -41t-59 -105q0 -56 44.5 -95.5t117.5 -39.5q49 0 97.5 18t82.5 48z" />
<glyph unicode="&#xe5;" horiz-adv-x="1200" d="M565 1520q102 0 164 -52t62 -139q0 -86 -62 -136t-164 -50q-103 0 -165 50t-62 136q0 87 62 139t165 52zM479 1331q0 -34 25 -59t61 -25q35 0 60.5 25t25.5 59q0 35 -24.5 58.5t-61.5 23.5t-61.5 -23.5t-24.5 -58.5zM45 322q0 159 129 258.5t334 99.5q140 0 240 -43v47 q0 182 -216 182q-87 0 -165.5 -28.5t-169.5 -89.5l-99 208q215 140 467 140q243 0 376.5 -116.5t133.5 -334.5v-280q0 -49 15.5 -69.5t54.5 -23.5v-272q-76 -16 -139 -16q-175 0 -201 137l-6 47q-71 -91 -170.5 -139.5t-208.5 -48.5q-161 0 -268 98t-107 244zM696 281 q52 42 52 84v96q-100 35 -185 35q-91 0 -150 -41t-59 -105q0 -56 44.5 -95.5t117.5 -39.5q49 0 97.5 18t82.5 48z" />
<glyph unicode="&#xe6;" horiz-adv-x="1923" d="M45 322q0 158 129 258t332 100q131 0 231 -41q0 37 8 61q-6 86 -58 128t-155 42q-158 0 -335 -118l-97 204q215 140 465 140q244 0 375 -131q151 131 371 131q134 0 244 -45t182 -122.5t111 -178t40 -213.5q0 -56 -10 -101h-799q7 -103 77.5 -162t166.5 -59 q75 0 139.5 36t87.5 93l279 -78q-63 -130 -199 -208t-317 -78q-152 0 -272.5 57.5t-194.5 157.5q-72 -107 -191 -161t-239 -54q-158 0 -264.5 98t-106.5 244zM1542 635q-11 102 -75 163.5t-160 61.5q-97 0 -161 -62t-73 -163h469zM700 283q48 38 48 75q-11 57 -11 109 q-91 31 -176 31q-89 0 -148 -42t-59 -106q0 -58 45 -96.5t113 -38.5q113 0 188 68z" />
<glyph unicode="&#xe7;" horiz-adv-x="1167" d="M1133 264q-52 -107 -153 -180t-239 -96q95 -92 95 -201q0 -94 -61.5 -155.5t-176.5 -61.5q-129 0 -250 65l78 170q56 -41 117 -41q45 0 71.5 22.5t26.5 63.5q0 66 -78 132q-157 14 -275.5 94.5t-178.5 201t-60 261.5q0 112 39.5 212.5t112 177.5t183 122t243.5 45 q179 0 308 -77t195 -208l-319 -96q-63 102 -186 102q-103 0 -171.5 -77t-68.5 -201q0 -125 69 -204t171 -79q61 0 112 29t76 77z" />
<glyph unicode="&#xe8;" horiz-adv-x="1236" d="M346 1495h297l107 -266l-207 -58zM627 -20q-132 0 -242.5 44.5t-183 119.5t-112.5 174t-40 208q0 116 39.5 219.5t111.5 181.5t182.5 123.5t244.5 45.5t244 -45.5t181 -122.5t109.5 -176.5t38.5 -210.5q0 -51 -8 -105h-795q7 -103 76.5 -162t163.5 -59q74 0 139 36t88 93 l279 -78q-65 -130 -200 -208t-316 -78zM389 637h467q-10 101 -74.5 162t-158.5 61q-95 0 -159.5 -61t-74.5 -162z" />
<glyph unicode="&#xe9;" horiz-adv-x="1236" d="M731 1171l-209 58l107 266h297zM627 -20q-132 0 -242.5 44.5t-183 119.5t-112.5 174t-40 208q0 116 39.5 219.5t111.5 181.5t182.5 123.5t244.5 45.5t244 -45.5t181 -122.5t109.5 -176.5t38.5 -210.5q0 -51 -8 -105h-795q7 -103 76.5 -162t163.5 -59q74 0 139 36t88 93 l279 -78q-65 -130 -200 -208t-316 -78zM389 637h467q-10 101 -74.5 162t-158.5 61q-95 0 -159.5 -61t-74.5 -162z" />
<glyph unicode="&#xea;" horiz-adv-x="1236" d="M283 1274l225 221h235l224 -221l-168 -74l-174 129l-174 -129zM627 -20q-132 0 -242.5 44.5t-183 119.5t-112.5 174t-40 208q0 116 39.5 219.5t111.5 181.5t182.5 123.5t244.5 45.5t244 -45.5t181 -122.5t109.5 -176.5t38.5 -210.5q0 -51 -8 -105h-795q7 -103 76.5 -162 t163.5 -59q74 0 139 36t88 93l279 -78q-65 -130 -200 -208t-316 -78zM389 637h467q-10 101 -74.5 162t-158.5 61q-95 0 -159.5 -61t-74.5 -162z" />
<glyph unicode="&#xeb;" horiz-adv-x="1236" d="M274 1217v264h271v-264h-271zM705 1217v264h270v-264h-270zM627 -20q-132 0 -242.5 44.5t-183 119.5t-112.5 174t-40 208q0 116 39.5 219.5t111.5 181.5t182.5 123.5t244.5 45.5t244 -45.5t181 -122.5t109.5 -176.5t38.5 -210.5q0 -51 -8 -105h-795q7 -103 76.5 -162 t163.5 -59q74 0 139 36t88 93l279 -78q-65 -130 -200 -208t-316 -78zM389 637h467q-10 101 -74.5 162t-158.5 61q-95 0 -159.5 -61t-74.5 -162z" />
<glyph unicode="&#xec;" horiz-adv-x="552" d="M-2 1495h297l106 -266l-206 -58zM113 0v1075h327v-1075h-327z" />
<glyph unicode="&#xed;" horiz-adv-x="552" d="M383 1171l-209 58l107 266h297zM113 0v1075h327v-1075h-327z" />
<glyph unicode="&#xee;" horiz-adv-x="552" d="M-66 1274l226 221h235l223 -221l-167 -74l-175 129l-174 -129zM113 0v1075h327v-1075h-327z" />
<glyph unicode="&#xef;" horiz-adv-x="552" d="M-74 1217v264h271v-264h-271zM356 1217v264h271v-264h-271zM113 0v1075h327v-1075h-327z" />
<glyph unicode="&#xf0;" horiz-adv-x="1263" d="M965 1262q116 -139 178.5 -315t62.5 -351q0 -286 -158.5 -451t-420.5 -165q-163 0 -294 64t-204.5 178t-73.5 257q0 203 143 345.5t349 142.5q94 0 178.5 -35t142.5 -96q-41 174 -153 315l-174 -94l-92 125l157 84q-126 115 -344 229h408q98 -48 184 -121l156 84l90 -125 zM629 256q105 0 172 64.5t67 162.5q0 97 -66.5 159.5t-170.5 62.5t-172 -64t-68 -162q0 -97 67.5 -160t170.5 -63z" />
<glyph unicode="&#xf1;" horiz-adv-x="1253" d="M528 1298q-25 0 -44 -10t-28.5 -22.5t-15.5 -28.5t-7 -24.5t-1 -12.5h-176q0 21 8 54t28 75t48.5 77.5t74.5 60t101 24.5q43 0 83 -15.5t65.5 -33.5t58.5 -33.5t65 -15.5q26 0 47 10t31.5 24t17.5 30t9 25t2 13h176q0 -12 -6.5 -36.5t-19 -58t-34.5 -67.5t-50.5 -63 t-70 -47.5t-89.5 -18.5q-42 0 -82.5 14.5t-66.5 32.5t-60 32.5t-64 14.5zM1149 0h-328v604q0 102 -39 152.5t-106 50.5q-69 0 -138 -54.5t-98 -136.5v-616h-327v1075h295v-180q59 96 167.5 148.5t249.5 52.5q324 0 324 -408v-688z" />
<glyph unicode="&#xf2;" horiz-adv-x="1249" d="M346 1495h297l107 -266l-207 -58zM49 537q0 112 39 212.5t110.5 178t182 123t244.5 45.5q133 0 243 -45.5t182 -123t111 -178t39 -212.5q0 -111 -39 -211.5t-110.5 -177.5t-181.5 -122.5t-244 -45.5t-244.5 45.5t-182 122.5t-110.5 177.5t-39 211.5zM625 256 q102 0 169.5 79t67.5 202q0 125 -67 202.5t-170 77.5t-171.5 -78.5t-68.5 -201.5q0 -125 68 -203t172 -78z" />
<glyph unicode="&#xf3;" horiz-adv-x="1249" d="M731 1171l-209 58l107 266h297zM49 537q0 112 39 212.5t110.5 178t182 123t244.5 45.5q133 0 243 -45.5t182 -123t111 -178t39 -212.5q0 -111 -39 -211.5t-110.5 -177.5t-181.5 -122.5t-244 -45.5t-244.5 45.5t-182 122.5t-110.5 177.5t-39 211.5zM625 256 q102 0 169.5 79t67.5 202q0 125 -67 202.5t-170 77.5t-171.5 -78.5t-68.5 -201.5q0 -125 68 -203t172 -78z" />
<glyph unicode="&#xf4;" horiz-adv-x="1249" d="M283 1274l225 221h235l224 -221l-168 -74l-174 129l-174 -129zM49 537q0 112 39 212.5t110.5 178t182 123t244.5 45.5q133 0 243 -45.5t182 -123t111 -178t39 -212.5q0 -111 -39 -211.5t-110.5 -177.5t-181.5 -122.5t-244 -45.5t-244.5 45.5t-182 122.5t-110.5 177.5 t-39 211.5zM625 256q102 0 169.5 79t67.5 202q0 125 -67 202.5t-170 77.5t-171.5 -78.5t-68.5 -201.5q0 -125 68 -203t172 -78z" />
<glyph unicode="&#xf5;" horiz-adv-x="1249" d="M489 1298q-25 0 -44 -10t-28.5 -22.5t-15.5 -28.5t-7 -24.5t-1 -12.5h-176q0 21 8 54t28 75t48.5 77.5t74.5 60t101 24.5q43 0 83.5 -15.5t65.5 -33.5t58.5 -33.5t65.5 -15.5q26 0 46.5 10t31.5 24t17.5 30t8.5 25t2 13h176q0 -12 -6.5 -36.5t-19 -58t-34.5 -67.5 t-50.5 -63t-70 -47.5t-89.5 -18.5q-42 0 -82.5 14.5t-66.5 32.5t-60 32.5t-64 14.5zM49 537q0 112 39 212.5t110.5 178t182 123t244.5 45.5q133 0 243 -45.5t182 -123t111 -178t39 -212.5q0 -111 -39 -211.5t-110.5 -177.5t-181.5 -122.5t-244 -45.5t-244.5 45.5t-182 122.5 t-110.5 177.5t-39 211.5zM625 256q102 0 169.5 79t67.5 202q0 125 -67 202.5t-170 77.5t-171.5 -78.5t-68.5 -201.5q0 -125 68 -203t172 -78z" />
<glyph unicode="&#xf6;" horiz-adv-x="1249" d="M274 1217v264h271v-264h-271zM705 1217v264h270v-264h-270zM49 537q0 112 39 212.5t110.5 178t182 123t244.5 45.5q133 0 243 -45.5t182 -123t111 -178t39 -212.5q0 -111 -39 -211.5t-110.5 -177.5t-181.5 -122.5t-244 -45.5t-244.5 45.5t-182 122.5t-110.5 177.5 t-39 211.5zM625 256q102 0 169.5 79t67.5 202q0 125 -67 202.5t-170 77.5t-171.5 -78.5t-68.5 -201.5q0 -125 68 -203t172 -78z" />
<glyph unicode="&#xf7;" horiz-adv-x="1021" d="M375 872v293h274v-293h-274zM98 492v260h828v-260h-828zM375 78v293h274v-293h-274z" />
<glyph unicode="&#xf8;" horiz-adv-x="1249" d="M1049 928q151 -157 151 -391q0 -111 -39 -211.5t-110.5 -177.5t-181.5 -122.5t-244 -45.5q-184 0 -314 79l-61 -69h-191l136 164q-146 155 -146 383q0 112 39 212.5t110.5 178t182 123t244.5 45.5q171 0 303 -74l55 63h193zM625 817q-103 0 -171.5 -78.5t-68.5 -201.5 q0 -82 31 -146l321 395q-51 31 -112 31zM625 256q102 0 169.5 79t67.5 202q0 88 -35 153l-325 -399q53 -35 123 -35z" />
<glyph unicode="&#xf9;" horiz-adv-x="1284" d="M344 1495h297l107 -266l-207 -58zM102 387v688h328v-616q0 -98 39 -150.5t111 -52.5q148 0 235 156v663h328v-710q0 -49 15.5 -69.5t53.5 -23.5v-272q-81 -16 -139 -16q-86 0 -137.5 35.5t-63.5 101.5l-6 65q-143 -206 -428 -206q-164 0 -250 104t-86 303z" />
<glyph unicode="&#xfa;" horiz-adv-x="1284" d="M729 1171l-209 58l107 266h297zM102 387v688h328v-616q0 -98 39 -150.5t111 -52.5q148 0 235 156v663h328v-710q0 -49 15.5 -69.5t53.5 -23.5v-272q-81 -16 -139 -16q-86 0 -137.5 35.5t-63.5 101.5l-6 65q-143 -206 -428 -206q-164 0 -250 104t-86 303z" />
<glyph unicode="&#xfb;" horiz-adv-x="1284" d="M281 1274l225 221h235l224 -221l-168 -74l-174 129l-174 -129zM102 387v688h328v-616q0 -98 39 -150.5t111 -52.5q148 0 235 156v663h328v-710q0 -49 15.5 -69.5t53.5 -23.5v-272q-81 -16 -139 -16q-86 0 -137.5 35.5t-63.5 101.5l-6 65q-143 -206 -428 -206 q-164 0 -250 104t-86 303z" />
<glyph unicode="&#xfc;" horiz-adv-x="1284" d="M272 1217v264h271v-264h-271zM702 1217v264h271v-264h-271zM102 387v688h328v-616q0 -98 39 -150.5t111 -52.5q148 0 235 156v663h328v-710q0 -49 15.5 -69.5t53.5 -23.5v-272q-81 -16 -139 -16q-86 0 -137.5 35.5t-63.5 101.5l-6 65q-143 -206 -428 -206 q-164 0 -250 104t-86 303z" />
<glyph unicode="&#xfd;" horiz-adv-x="1130" d="M698 1171l-209 58l107 266h297zM121 -162q77 -26 141 -26q59 0 92.5 41.5t59.5 146.5l-410 1075h338l250 -739l213 739h309l-409 -1249q-43 -134 -155.5 -216.5t-260.5 -82.5q-91 0 -168 31v280z" />
<glyph unicode="&#xfe;" horiz-adv-x="1228" d="M637 -55q-76 0 -125.5 23t-62.5 48v-452h-336v1890h336v-424q19 29 69 53.5t135 24.5q117 0 218.5 -52t168 -135.5t104.5 -187.5t38 -209q0 -113 -44 -219.5t-117 -185.5t-174 -126.5t-210 -47.5zM633 815q-113 0 -184 -135v-318q0 -40 57 -82t121 -42q95 0 157 83.5 t62 208.5q0 120 -57.5 202.5t-155.5 82.5z" />
<glyph unicode="&#xff;" horiz-adv-x="1130" d="M242 1217v264h270v-264h-270zM672 1217v264h270v-264h-270zM121 -162q77 -26 141 -26q59 0 92.5 41.5t59.5 146.5l-410 1075h338l250 -739l213 739h309l-409 -1249q-43 -134 -155.5 -216.5t-260.5 -82.5q-91 0 -168 31v280z" />
<glyph unicode="&#x100;" horiz-adv-x="1372" d="M377 1649v198h622v-198h-622zM506 1454h362l500 -1454h-344l-113 326h-452l-111 -326h-344zM856 557l-170 559l-174 -559h344z" />
<glyph unicode="&#x101;" horiz-adv-x="1200" d="M256 1272v198h623v-198h-623zM45 322q0 159 129 258.5t334 99.5q140 0 240 -43v47q0 182 -216 182q-87 0 -165.5 -28.5t-169.5 -89.5l-99 208q215 140 467 140q243 0 376.5 -116.5t133.5 -334.5v-280q0 -49 15.5 -69.5t54.5 -23.5v-272q-76 -16 -139 -16q-175 0 -201 137 l-6 47q-71 -91 -170.5 -139.5t-208.5 -48.5q-161 0 -268 98t-107 244zM696 281q52 42 52 84v96q-100 35 -185 35q-91 0 -150 -41t-59 -105q0 -56 44.5 -95.5t117.5 -39.5q49 0 97.5 18t82.5 48z" />
<glyph unicode="&#x102;" horiz-adv-x="1372" d="M811 1872h170q0 -132 -82.5 -216.5t-212.5 -84.5q-129 0 -212 84.5t-83 216.5h174q0 -65 36 -111.5t85 -46.5q48 0 83.5 44.5t41.5 113.5zM506 1454h362l500 -1454h-344l-113 326h-452l-111 -326h-344zM856 557l-170 559l-174 -559h344z" />
<glyph unicode="&#x103;" horiz-adv-x="1200" d="M690 1495h170q0 -132 -82.5 -216.5t-212.5 -84.5q-129 0 -212 84.5t-83 216.5h174q0 -65 36 -111.5t85 -46.5q48 0 83.5 44.5t41.5 113.5zM45 322q0 159 129 258.5t334 99.5q140 0 240 -43v47q0 182 -216 182q-87 0 -165.5 -28.5t-169.5 -89.5l-99 208q215 140 467 140 q243 0 376.5 -116.5t133.5 -334.5v-280q0 -49 15.5 -69.5t54.5 -23.5v-272q-76 -16 -139 -16q-175 0 -201 137l-6 47q-71 -91 -170.5 -139.5t-208.5 -48.5q-161 0 -268 98t-107 244zM696 281q52 42 52 84v96q-100 35 -185 35q-91 0 -150 -41t-59 -105q0 -56 44.5 -95.5 t117.5 -39.5q49 0 97.5 18t82.5 48z" />
<glyph unicode="&#x104;" horiz-adv-x="1372" d="M1217 -170q0 -75 147 -78l-61 -178q-148 16 -219.5 69.5t-71.5 125.5q0 123 147 231h-135l-113 326h-452l-111 -326h-344l502 1454h362l500 -1454q-151 -100 -151 -170zM512 557h344l-170 559z" />
<glyph unicode="&#x105;" horiz-adv-x="1200" d="M1145 0q-152 -100 -152 -170q0 -75 148 -78l-62 -178q-148 16 -219.5 69.5t-71.5 125.5q0 120 138 225q-102 26 -121 127l-6 47q-71 -91 -170.5 -139.5t-208.5 -48.5q-161 0 -268 98t-107 244q0 159 129 258.5t334 99.5q140 0 240 -43v47q0 182 -216 182 q-87 0 -165.5 -28.5t-169.5 -89.5l-99 208q215 140 467 140q243 0 376.5 -116.5t133.5 -334.5v-280q0 -49 15.5 -69.5t54.5 -23.5v-272zM748 365v96q-100 35 -185 35q-91 0 -150 -41t-59 -105q0 -56 44.5 -95.5t117.5 -39.5q49 0 97.5 18t82.5 48q52 42 52 84z" />
<glyph unicode="&#x106;" horiz-adv-x="1409" d="M889 1548l-209 58l106 266h297zM784 1462q199 0 352 -86t228 -231l-258 -180q-24 55 -62 95.5t-83.5 62t-91 31t-93.5 9.5q-75 0 -138 -25t-107 -67.5t-74.5 -99t-45 -118t-14.5 -126.5q0 -116 46.5 -216t135 -162t201.5 -62q65 0 125.5 19t116.5 65.5t84 115.5l274 -161 q-41 -103 -141 -182t-221.5 -117.5t-245.5 -38.5q-153 0 -289 65t-228.5 170.5t-146 241t-53.5 274.5q0 106 31 210t94 196.5t149 163t203.5 112t251.5 41.5z" />
<glyph unicode="&#x107;" horiz-adv-x="1167" d="M733 1171l-209 58l107 266h297zM627 -20q-132 0 -242.5 45.5t-183 122.5t-112.5 178t-40 213t39.5 212.5t112 177.5t183 122t243.5 45q179 0 308 -77t195 -208l-319 -96q-63 102 -186 102q-103 0 -171.5 -77t-68.5 -201q0 -125 69 -204t171 -79q61 0 112 29t76 77 l320 -98q-62 -129 -194 -206.5t-312 -77.5z" />
<glyph unicode="&#x108;" horiz-adv-x="1409" d="M440 1651l226 221h235l223 -221l-168 -74l-174 129l-174 -129zM784 1462q199 0 352 -86t228 -231l-258 -180q-24 55 -62 95.5t-83.5 62t-91 31t-93.5 9.5q-75 0 -138 -25t-107 -67.5t-74.5 -99t-45 -118t-14.5 -126.5q0 -116 46.5 -216t135 -162t201.5 -62q65 0 125.5 19 t116.5 65.5t84 115.5l274 -161q-41 -103 -141 -182t-221.5 -117.5t-245.5 -38.5q-153 0 -289 65t-228.5 170.5t-146 241t-53.5 274.5q0 106 31 210t94 196.5t149 163t203.5 112t251.5 41.5z" />
<glyph unicode="&#x109;" horiz-adv-x="1167" d="M285 1274l225 221h235l224 -221l-168 -74l-174 129l-174 -129zM627 -20q-132 0 -242.5 45.5t-183 122.5t-112.5 178t-40 213t39.5 212.5t112 177.5t183 122t243.5 45q179 0 308 -77t195 -208l-319 -96q-63 102 -186 102q-103 0 -171.5 -77t-68.5 -201q0 -125 69 -204 t171 -79q61 0 112 29t76 77l320 -98q-62 -129 -194 -206.5t-312 -77.5z" />
<glyph unicode="&#x10a;" horiz-adv-x="1409" d="M635 1591v281h295v-281h-295zM784 1462q199 0 352 -86t228 -231l-258 -180q-24 55 -62 95.5t-83.5 62t-91 31t-93.5 9.5q-75 0 -138 -25t-107 -67.5t-74.5 -99t-45 -118t-14.5 -126.5q0 -116 46.5 -216t135 -162t201.5 -62q65 0 125.5 19t116.5 65.5t84 115.5l274 -161 q-41 -103 -141 -182t-221.5 -117.5t-245.5 -38.5q-153 0 -289 65t-228.5 170.5t-146 241t-53.5 274.5q0 106 31 210t94 196.5t149 163t203.5 112t251.5 41.5z" />
<glyph unicode="&#x10b;" horiz-adv-x="1167" d="M479 1214v281h295v-281h-295zM627 -20q-132 0 -242.5 45.5t-183 122.5t-112.5 178t-40 213t39.5 212.5t112 177.5t183 122t243.5 45q179 0 308 -77t195 -208l-319 -96q-63 102 -186 102q-103 0 -171.5 -77t-68.5 -201q0 -125 69 -204t171 -79q61 0 112 29t76 77l320 -98 q-62 -129 -194 -206.5t-312 -77.5z" />
<glyph unicode="&#x10c;" horiz-adv-x="1409" d="M608 1872l174 -129l174 129l168 -76l-223 -219h-235l-226 219zM784 1462q199 0 352 -86t228 -231l-258 -180q-24 55 -62 95.5t-83.5 62t-91 31t-93.5 9.5q-75 0 -138 -25t-107 -67.5t-74.5 -99t-45 -118t-14.5 -126.5q0 -116 46.5 -216t135 -162t201.5 -62q65 0 125.5 19 t116.5 65.5t84 115.5l274 -161q-41 -103 -141 -182t-221.5 -117.5t-245.5 -38.5q-153 0 -289 65t-228.5 170.5t-146 241t-53.5 274.5q0 106 31 210t94 196.5t149 163t203.5 112t251.5 41.5z" />
<glyph unicode="&#x10d;" horiz-adv-x="1167" d="M453 1495l174 -129l174 129l168 -76l-224 -219h-235l-225 219zM627 -20q-132 0 -242.5 45.5t-183 122.5t-112.5 178t-40 213t39.5 212.5t112 177.5t183 122t243.5 45q179 0 308 -77t195 -208l-319 -96q-63 102 -186 102q-103 0 -171.5 -77t-68.5 -201q0 -125 69 -204 t171 -79q61 0 112 29t76 77l320 -98q-62 -129 -194 -206.5t-312 -77.5z" />
<glyph unicode="&#x10e;" horiz-adv-x="1466" d="M489 1872l175 -129l174 129l168 -76l-224 -219h-235l-225 219zM139 0v1454h543q175 0 314.5 -56.5t228.5 -156t135.5 -230t46.5 -282.5q0 -330 -198.5 -529.5t-526.5 -199.5h-543zM682 1159h-207v-864h207q180 0 281.5 120.5t101.5 313.5q0 195 -102 312.5t-281 117.5z " />
<glyph unicode="&#x10f;" horiz-adv-x="1339" d="M51 539q0 155 60 282t169 201t246 74q111 0 202.5 -53t141.5 -144v596h328v-1130q0 -49 15.5 -69.5t54.5 -23.5v-272q-79 -16 -140 -16q-85 0 -137 36.5t-63 102.5l-6 55q-55 -97 -152.5 -147.5t-210.5 -50.5q-146 0 -262.5 73t-181 200.5t-64.5 285.5zM1456 1171 l-209 58l107 266h297zM872 406v225q-31 81 -99 133.5t-142 52.5q-104 0 -173 -84.5t-69 -200.5q0 -120 73 -198t185 -78q68 0 130.5 41t94.5 109z" />
<glyph unicode="&#x110;" horiz-adv-x="1476" d="M692 1454q175 0 314.5 -56.5t228.5 -156t135.5 -230t46.5 -282.5q0 -330 -198.5 -529.5t-526.5 -199.5h-542v610h-89v242h89v602h542zM692 295q180 0 281.5 120.5t101.5 313.5q0 195 -102 312.5t-281 117.5h-207v-307h263v-242h-263v-315h207z" />
<glyph unicode="&#x111;" horiz-adv-x="1339" d="M1323 1204h-125v-839q0 -49 15.5 -69.5t54.5 -23.5v-272q-79 -16 -140 -16q-85 0 -137 36.5t-63 102.5l-6 55q-55 -97 -152.5 -147.5t-210.5 -50.5q-146 0 -262.5 73t-181 200.5t-64.5 285.5q0 155 60 282t169 201t246 74q111 0 202.5 -53t141.5 -144v305h-190v193h190 v98h328v-98h125v-193zM872 406v225q-31 81 -99 133.5t-142 52.5q-104 0 -173 -84.5t-69 -200.5q0 -120 73 -198t185 -78q68 0 130.5 41t94.5 109z" />
<glyph unicode="&#x112;" horiz-adv-x="1226" d="M348 1649v198h623v-198h-623zM1161 295v-295h-1022v1454h1004v-295h-668v-282h574v-273h-574v-309h686z" />
<glyph unicode="&#x113;" horiz-adv-x="1236" d="M315 1272v198h623v-198h-623zM627 -20q-132 0 -242.5 44.5t-183 119.5t-112.5 174t-40 208q0 116 39.5 219.5t111.5 181.5t182.5 123.5t244.5 45.5t244 -45.5t181 -122.5t109.5 -176.5t38.5 -210.5q0 -51 -8 -105h-795q7 -103 76.5 -162t163.5 -59q74 0 139 36t88 93 l279 -78q-65 -130 -200 -208t-316 -78zM389 637h467q-10 101 -74.5 162t-158.5 61q-95 0 -159.5 -61t-74.5 -162z" />
<glyph unicode="&#x114;" horiz-adv-x="1226" d="M782 1872h170q0 -132 -82.5 -216.5t-212.5 -84.5q-129 0 -212 84.5t-83 216.5h175q0 -65 35.5 -111.5t84.5 -46.5q48 0 83.5 44.5t41.5 113.5zM1161 295v-295h-1022v1454h1004v-295h-668v-282h574v-273h-574v-309h686z" />
<glyph unicode="&#x115;" horiz-adv-x="1236" d="M750 1495h170q0 -132 -82.5 -216.5t-212.5 -84.5q-129 0 -212 84.5t-83 216.5h174q0 -65 36 -111.5t85 -46.5q48 0 83.5 44.5t41.5 113.5zM627 -20q-132 0 -242.5 44.5t-183 119.5t-112.5 174t-40 208q0 116 39.5 219.5t111.5 181.5t182.5 123.5t244.5 45.5t244 -45.5 t181 -122.5t109.5 -176.5t38.5 -210.5q0 -51 -8 -105h-795q7 -103 76.5 -162t163.5 -59q74 0 139 36t88 93l279 -78q-65 -130 -200 -208t-316 -78zM389 637h467q-10 101 -74.5 162t-158.5 61q-95 0 -159.5 -61t-74.5 -162z" />
<glyph unicode="&#x116;" horiz-adv-x="1226" d="M510 1591v281h295v-281h-295zM1161 295v-295h-1022v1454h1004v-295h-668v-282h574v-273h-574v-309h686z" />
<glyph unicode="&#x117;" horiz-adv-x="1236" d="M477 1214v281h295v-281h-295zM627 -20q-132 0 -242.5 44.5t-183 119.5t-112.5 174t-40 208q0 116 39.5 219.5t111.5 181.5t182.5 123.5t244.5 45.5t244 -45.5t181 -122.5t109.5 -176.5t38.5 -210.5q0 -51 -8 -105h-795q7 -103 76.5 -162t163.5 -59q74 0 139 36t88 93 l279 -78q-65 -130 -200 -208t-316 -78zM389 637h467q-10 101 -74.5 162t-158.5 61q-95 0 -159.5 -61t-74.5 -162z" />
<glyph unicode="&#x118;" horiz-adv-x="1226" d="M1161 0q-151 -100 -151 -170q0 -75 147 -78l-61 -178q-148 16 -219.5 69.5t-71.5 125.5q0 123 147 231h-813v1454h1004v-295h-668v-282h574v-273h-574v-309h686v-295z" />
<glyph unicode="&#x119;" horiz-adv-x="1236" d="M1200 541q0 -51 -8 -105h-795q7 -103 76.5 -162t163.5 -59q74 0 139 36t88 93l279 -78q-48 -98 -139.5 -168.5t-212.5 -99.5q-150 -101 -150 -168q0 -75 147 -78l-61 -178q-148 16 -219.5 69.5t-71.5 125.5q0 114 123 213q-234 23 -372 178t-138 366q0 116 39.5 219.5 t111.5 181.5t182.5 123.5t244.5 45.5t244 -45.5t181 -122.5t109.5 -176.5t38.5 -210.5zM389 637h467q-10 101 -74.5 162t-158.5 61q-95 0 -159.5 -61t-74.5 -162z" />
<glyph unicode="&#x11a;" horiz-adv-x="1226" d="M483 1872l174 -129l174 129l168 -76l-223 -219h-235l-226 219zM1161 295v-295h-1022v1454h1004v-295h-668v-282h574v-273h-574v-309h686z" />
<glyph unicode="&#x11b;" horiz-adv-x="1236" d="M451 1495l174 -129l174 129l168 -76l-224 -219h-235l-225 219zM627 -20q-132 0 -242.5 44.5t-183 119.5t-112.5 174t-40 208q0 116 39.5 219.5t111.5 181.5t182.5 123.5t244.5 45.5t244 -45.5t181 -122.5t109.5 -176.5t38.5 -210.5q0 -51 -8 -105h-795q7 -103 76.5 -162 t163.5 -59q74 0 139 36t88 93l279 -78q-65 -130 -200 -208t-316 -78zM389 637h467q-10 101 -74.5 162t-158.5 61q-95 0 -159.5 -61t-74.5 -162z" />
<glyph unicode="&#x11c;" horiz-adv-x="1499" d="M782 1706l-174 -129l-168 74l226 221h235l223 -221l-168 -74zM856 760h561v-760h-278v143q-166 -153 -383 -153q-142 0 -270 55t-222.5 151.5t-150.5 237t-56 303.5q0 148 56 282.5t151.5 232t230.5 155t287 57.5q199 0 352.5 -84.5t229.5 -232.5l-250 -189 q-49 96 -142.5 151.5t-201.5 55.5q-164 0 -268.5 -126.5t-104.5 -313.5q0 -190 108.5 -313t278.5 -123q199 0 355 182v45h-283v244z" />
<glyph unicode="&#x11d;" horiz-adv-x="1310" d="M311 1274l226 221h235l223 -221l-168 -74l-174 129l-174 -129zM53 539q0 156 63 283t177.5 200.5t259.5 73.5q119 0 211 -51.5t149 -145.5v176h285v-1001q0 -243 -172.5 -387t-450.5 -144q-319 0 -512 215l177 179q59 -68 148 -108t187 -40q61 0 113 16.5t93.5 49.5 t65 89t23.5 130v104q-48 -87 -139.5 -134.5t-200.5 -47.5q-139 0 -249 73.5t-169 197t-59 272.5zM870 406v225q-32 84 -99.5 135t-143.5 51q-103 0 -171.5 -85.5t-68.5 -201.5q0 -118 73.5 -196t182.5 -78q73 0 133.5 41t93.5 109z" />
<glyph unicode="&#x11e;" horiz-adv-x="1499" d="M782 1571q-129 0 -212 84.5t-83 216.5h175q0 -65 35.5 -111.5t84.5 -46.5q48 0 83.5 44.5t41.5 113.5h170q0 -132 -82.5 -216.5t-212.5 -84.5zM856 760h561v-760h-278v143q-166 -153 -383 -153q-142 0 -270 55t-222.5 151.5t-150.5 237t-56 303.5q0 148 56 282.5 t151.5 232t230.5 155t287 57.5q199 0 352.5 -84.5t229.5 -232.5l-250 -189q-49 96 -142.5 151.5t-201.5 55.5q-164 0 -268.5 -126.5t-104.5 -313.5q0 -190 108.5 -313t278.5 -123q199 0 355 182v45h-283v244z" />
<glyph unicode="&#x11f;" horiz-adv-x="1310" d="M778 1495h170q0 -132 -82.5 -216.5t-212.5 -84.5q-129 0 -212 84.5t-83 216.5h174q0 -65 36 -111.5t85 -46.5q48 0 83.5 44.5t41.5 113.5zM53 539q0 156 63 283t177.5 200.5t259.5 73.5q119 0 211 -51.5t149 -145.5v176h285v-1001q0 -243 -172.5 -387t-450.5 -144 q-319 0 -512 215l177 179q59 -68 148 -108t187 -40q61 0 113 16.5t93.5 49.5t65 89t23.5 130v104q-48 -87 -139.5 -134.5t-200.5 -47.5q-139 0 -249 73.5t-169 197t-59 272.5zM870 406v225q-32 84 -99.5 135t-143.5 51q-103 0 -171.5 -85.5t-68.5 -201.5q0 -118 73.5 -196 t182.5 -78q73 0 133.5 41t93.5 109z" />
<glyph unicode="&#x120;" horiz-adv-x="1499" d="M930 1872v-281h-295v281h295zM856 760h561v-760h-278v143q-166 -153 -383 -153q-142 0 -270 55t-222.5 151.5t-150.5 237t-56 303.5q0 148 56 282.5t151.5 232t230.5 155t287 57.5q199 0 352.5 -84.5t229.5 -232.5l-250 -189q-49 96 -142.5 151.5t-201.5 55.5 q-164 0 -268.5 -126.5t-104.5 -313.5q0 -190 108.5 -313t278.5 -123q199 0 355 182v45h-283v244z" />
<glyph unicode="&#x121;" horiz-adv-x="1310" d="M506 1214v281h295v-281h-295zM53 539q0 156 63 283t177.5 200.5t259.5 73.5q119 0 211 -51.5t149 -145.5v176h285v-1001q0 -243 -172.5 -387t-450.5 -144q-319 0 -512 215l177 179q59 -68 148 -108t187 -40q61 0 113 16.5t93.5 49.5t65 89t23.5 130v104 q-48 -87 -139.5 -134.5t-200.5 -47.5q-139 0 -249 73.5t-169 197t-59 272.5zM870 406v225q-32 84 -99.5 135t-143.5 51q-103 0 -171.5 -85.5t-68.5 -201.5q0 -118 73.5 -196t182.5 -78q73 0 133.5 41t93.5 109z" />
<glyph unicode="&#x122;" horiz-adv-x="1499" d="M856 760h561v-760h-278v143q-166 -153 -383 -153q-142 0 -270 55t-222.5 151.5t-150.5 237t-56 303.5q0 148 56 282.5t151.5 232t230.5 155t287 57.5q199 0 352.5 -84.5t229.5 -232.5l-250 -189q-49 96 -142.5 151.5t-201.5 55.5q-164 0 -268.5 -126.5t-104.5 -313.5 q0 -190 108.5 -313t278.5 -123q199 0 355 182v45h-283v244zM614 -299v203h275v-203l-96 -137h-144l64 137h-99z" />
<glyph unicode="&#x123;" horiz-adv-x="1310" d="M756 1495l-64 -125h96v-184h-272v184l94 125h146zM53 539q0 156 63 283t177.5 200.5t259.5 73.5q119 0 211 -51.5t149 -145.5v176h285v-1001q0 -243 -172.5 -387t-450.5 -144q-319 0 -512 215l177 179q59 -68 148 -108t187 -40q61 0 113 16.5t93.5 49.5t65 89t23.5 130 v104q-48 -87 -139.5 -134.5t-200.5 -47.5q-139 0 -249 73.5t-169 197t-59 272.5zM870 406v225q-32 84 -99.5 135t-143.5 51q-103 0 -171.5 -85.5t-68.5 -201.5q0 -118 73.5 -196t182.5 -78q73 0 133.5 41t93.5 109z" />
<glyph unicode="&#x124;" horiz-adv-x="1529" d="M430 1651l225 221h236l223 -221l-168 -74l-174 129l-174 -129zM1391 1454v-1454h-336v596h-580v-596h-336v1454h336v-563h580v563h336z" />
<glyph unicode="&#x125;" horiz-adv-x="1253" d="M319 1653l226 221h235l224 -221l-168 -74l-174 129l-175 -129zM1149 0h-328v604q0 102 -40 152.5t-113 50.5q-62 0 -131 -54.5t-97 -136.5v-616h-327v1495h327v-600q58 95 156 148t215 53q338 0 338 -408v-688z" />
<glyph unicode="&#x126;" horiz-adv-x="1546" d="M1501 1264v-168h-102v-1096h-336v596h-580v-596h-336v1096h-102v168h102v190h336v-190h580v190h336v-190h102zM1063 891v205h-580v-205h580z" />
<glyph unicode="&#x127;" horiz-adv-x="1253" d="M811 1096q338 0 338 -408v-688h-328v604q0 102 -40 152.5t-113 50.5q-62 0 -131 -54.5t-97 -136.5v-616h-327v1204h-78v193h78v98h327v-98h240v-193h-240v-309q58 95 156 148t215 53z" />
<glyph unicode="&#x128;" horiz-adv-x="614" d="M172 1675q-25 0 -44 -10t-28.5 -22.5t-15.5 -28.5t-7 -24.5t-1 -12.5h-176q0 21 8 54t28 75t48.5 77.5t74.5 60t101 24.5q43 0 83 -15.5t65.5 -34t58.5 -34t65 -15.5q26 0 47 10.5t31.5 24t17.5 29.5t9 25.5t2 13.5h176q0 -16 -8.5 -47t-29.5 -74t-50.5 -80.5 t-77.5 -63.5t-105 -26q-53 0 -101.5 23.5t-91 47t-79.5 23.5zM139 0v1454h336v-1454h-336z" />
<glyph unicode="&#x129;" horiz-adv-x="552" d="M141 1298q-25 0 -44 -10t-28.5 -22.5t-15.5 -28.5t-7 -24.5t-1 -12.5h-176q0 21 8 54t28 75t48.5 77.5t74.5 60t101 24.5q43 0 83 -15.5t65.5 -33.5t58.5 -33.5t65 -15.5q26 0 47 10t31.5 24t17.5 30t9 25t2 13h176q0 -12 -6.5 -36.5t-19 -58t-34.5 -67.5t-50.5 -63 t-70 -47.5t-89.5 -18.5q-42 0 -82.5 14.5t-66.5 32.5t-60 32.5t-64 14.5zM113 0v1075h327v-1075h-327z" />
<glyph unicode="&#x12a;" horiz-adv-x="614" d="M-2 1649v198h623v-198h-623zM139 0v1454h336v-1454h-336z" />
<glyph unicode="&#x12b;" horiz-adv-x="552" d="M-33 1272v198h623v-198h-623zM113 0v1075h327v-1075h-327z" />
<glyph unicode="&#x12c;" horiz-adv-x="614" d="M432 1872h170q0 -132 -82.5 -216.5t-212.5 -84.5q-129 0 -212 84.5t-83 216.5h174q0 -65 36 -111.5t85 -46.5q48 0 83.5 44.5t41.5 113.5zM139 0v1454h336v-1454h-336z" />
<glyph unicode="&#x12d;" horiz-adv-x="552" d="M401 1495h170q0 -132 -82.5 -216.5t-212.5 -84.5q-129 0 -211.5 84.5t-82.5 216.5h174q0 -65 35.5 -111.5t84.5 -46.5q48 0 83.5 44.5t41.5 113.5zM113 0v1075h327v-1075h-327z" />
<glyph unicode="&#x12e;" horiz-adv-x="614" d="M475 0q-151 -100 -151 -170q0 -75 147 -78l-61 -178q-148 16 -219.5 69.5t-71.5 125.5q0 123 147 231h-127v1454h336v-1454z" />
<glyph unicode="&#x12f;" horiz-adv-x="552" d="M113 1495h327v-297h-327v297zM113 0v1075h327v-1075q-151 -100 -151 -170q0 -75 147 -78l-61 -178q-148 16 -219.5 69.5t-71.5 125.5q0 123 147 231h-118z" />
<glyph unicode="&#x130;" horiz-adv-x="614" d="M160 1591v281h295v-281h-295zM139 0v1454h336v-1454h-336z" />
<glyph unicode="&#x131;" horiz-adv-x="552" d="M113 0v1075h327v-1075h-327z" />
<glyph unicode="&#x134;" horiz-adv-x="1011" d="M383 1651l225 221h236l223 -221l-168 -74l-174 129l-174 -129zM82 342q29 -21 96.5 -43.5t147.5 -22.5q59 0 99 16t65.5 46t39 84t18.5 118.5t5 161.5v752h336v-739q0 -103 -5 -180t-19 -158t-39.5 -138t-67.5 -109.5t-101 -84t-142 -50t-189 -18.5q-185 0 -318 91z" />
<glyph unicode="&#x135;" horiz-adv-x="552" d="M-66 1274l226 221h235l223 -221l-167 -74l-175 129l-174 -129zM-244 -311l138 223q43 -43 110 -43q47 0 78 31.5t31 81.5v1093h327v-1069q0 -184 -112.5 -302t-282.5 -118q-168 0 -289 103z" />
<glyph unicode="&#x136;" horiz-adv-x="1390" d="M139 0v1454h336v-627l533 627h376l-544 -649l581 -805h-385l-409 584l-152 -156v-428h-336zM631 -436l63 137h-98v203h274v-203l-96 -137h-143z" />
<glyph unicode="&#x137;" horiz-adv-x="1165" d="M836 0l-281 430l-115 -117v-313h-327v1495h327v-864l365 444h346l-387 -463l420 -612h-348zM494 -436l63 137h-98v203h274v-203l-96 -137h-143z" />
<glyph unicode="&#x138;" horiz-adv-x="1165" d="M836 0l-281 432l-115 -119v-313h-327v1075h327v-446l363 446h348l-387 -463l420 -612h-348z" />
<glyph unicode="&#x139;" horiz-adv-x="1198" d="M416 1548l-209 58l106 266h297zM139 0v1454h336v-1159h705v-295h-1041z" />
<glyph unicode="&#x13a;" horiz-adv-x="686" d="M379 1550l-209 58l106 266h297zM109 1495h327v-1112q0 -125 94 -125q55 0 119 31l43 -246q-61 -28 -141.5 -44.5t-149.5 -16.5q-140 0 -216 74t-76 212v1227z" />
<glyph unicode="&#x13b;" horiz-adv-x="1198" d="M139 0v1454h336v-1159h705v-295h-1041zM580 -436l63 137h-98v203h274v-203l-96 -137h-143z" />
<glyph unicode="&#x13c;" horiz-adv-x="686" d="M109 1495h327v-1112q0 -125 94 -125q55 0 119 31l43 -246q-61 -28 -141.5 -44.5t-149.5 -16.5q-140 0 -216 74t-76 212v1227zM291 -436l63 137h-98v203h274v-203l-96 -137h-143z" />
<glyph unicode="&#x13d;" horiz-adv-x="1198" d="M932 1174l-209 57l106 266h297zM139 0v1454h336v-1159h705v-295h-1041z" />
<glyph unicode="&#x13e;" horiz-adv-x="686" d="M109 1495h327v-1112q0 -125 94 -125q55 0 119 31l43 -246q-61 -28 -141.5 -44.5t-149.5 -16.5q-140 0 -216 74t-76 212v1227zM721 1171l-209 58l106 266h297z" />
<glyph unicode="&#x13f;" horiz-adv-x="1198" d="M139 0v1454h336v-1159h705v-295h-1041zM745 666v340h269v-340h-269z" />
<glyph unicode="&#x140;" horiz-adv-x="878" d="M109 1495h327v-1112q0 -125 94 -125q55 0 119 31l43 -246q-61 -28 -141.5 -44.5t-149.5 -16.5q-140 0 -216 74t-76 212v1227zM575 494v340h269v-340h-269z" />
<glyph unicode="&#x141;" horiz-adv-x="1218" d="M498 295h704v-295h-1040v561l-103 -57l-77 176l180 102v672h336v-483l188 106l76 -176l-264 -149v-457z" />
<glyph unicode="&#x142;" horiz-adv-x="745" d="M702 289l43 -246q-61 -28 -141 -44.5t-149 -16.5q-140 0 -216.5 74t-76.5 212v318l-94 -51l-78 176l172 94v690h327v-512l173 94l77 -176l-250 -137v-381q0 -125 95 -125q54 0 118 31z" />
<glyph unicode="&#x143;" horiz-adv-x="1554" d="M881 1548l-209 58l106 266h297zM475 831v-831h-336v1454h267l673 -856v856h336v-1454h-274z" />
<glyph unicode="&#x144;" horiz-adv-x="1253" d="M770 1171l-209 58l107 266h297zM1149 0h-328v604q0 102 -39 152.5t-106 50.5q-69 0 -138 -54.5t-98 -136.5v-616h-327v1075h295v-180q59 96 167.5 148.5t249.5 52.5q324 0 324 -408v-688z" />
<glyph unicode="&#x145;" horiz-adv-x="1554" d="M475 831v-831h-336v1454h267l673 -856v856h336v-1454h-274zM666 -436l63 137h-98v203h274v-203l-96 -137h-143z" />
<glyph unicode="&#x146;" horiz-adv-x="1253" d="M1149 0h-328v604q0 102 -39 152.5t-106 50.5q-69 0 -138 -54.5t-98 -136.5v-616h-327v1075h295v-180q59 96 167.5 148.5t249.5 52.5q324 0 324 -408v-688zM518 -436l64 137h-99v203h275v-203l-96 -137h-144z" />
<glyph unicode="&#x147;" horiz-adv-x="1554" d="M600 1872l174 -129l174 129l168 -76l-223 -219h-236l-225 219zM475 831v-831h-336v1454h267l673 -856v856h336v-1454h-274z" />
<glyph unicode="&#x148;" horiz-adv-x="1253" d="M489 1495l175 -129l174 129l168 -76l-224 -219h-235l-225 219zM1149 0h-328v604q0 102 -39 152.5t-106 50.5q-69 0 -138 -54.5t-98 -136.5v-616h-327v1075h295v-180q59 96 167.5 148.5t249.5 52.5q324 0 324 -408v-688z" />
<glyph unicode="&#x14a;" horiz-adv-x="1521" d="M475 821v-821h-336v1454h258l647 -838v836h336v-1456q0 -182 -113.5 -296t-281.5 -114q-169 0 -287 103l138 223q40 -43 108 -43q47 0 78 31.5t31 81.5v90z" />
<glyph unicode="&#x14b;" horiz-adv-x="1251" d="M465 -311l137 223q43 -43 111 -43q46 0 77 31.5t31 81.5v622q0 102 -39 152.5t-106 50.5q-69 0 -138 -54.5t-98 -136.5v-616h-327v1075h295v-180q59 96 167.5 148.5t249.5 52.5q324 0 324 -408v-682q0 -184 -113 -302t-282 -118q-168 0 -289 103z" />
<glyph unicode="&#x14c;" horiz-adv-x="1556" d="M473 1649v198h623v-198h-623zM55 729q0 192 93 359.5t261.5 270.5t372.5 103q126 0 240 -41t200 -113t149.5 -165.5t96.5 -201.5t33 -218q0 -191 -92 -359t-260 -272t-373 -104q-157 0 -294 63t-229.5 167t-145 237.5t-52.5 273.5zM778 287q92 0 166.5 38t120.5 101.5 t70 141.5t24 161q0 85 -25.5 162.5t-72.5 138.5t-120.5 97t-162.5 36q-92 0 -166 -37.5t-120 -100t-70.5 -139.5t-24.5 -161q0 -85 25 -163t72 -139.5t120.5 -98.5t163.5 -37z" />
<glyph unicode="&#x14d;" horiz-adv-x="1249" d="M315 1272v198h623v-198h-623zM49 537q0 112 39 212.5t110.5 178t182 123t244.5 45.5q133 0 243 -45.5t182 -123t111 -178t39 -212.5q0 -111 -39 -211.5t-110.5 -177.5t-181.5 -122.5t-244 -45.5t-244.5 45.5t-182 122.5t-110.5 177.5t-39 211.5zM625 256q102 0 169.5 79 t67.5 202q0 125 -67 202.5t-170 77.5t-171.5 -78.5t-68.5 -201.5q0 -125 68 -203t172 -78z" />
<glyph unicode="&#x14e;" horiz-adv-x="1556" d="M907 1872h170q0 -132 -82.5 -216.5t-212.5 -84.5q-129 0 -212 84.5t-83 216.5h175q0 -65 35.5 -111.5t84.5 -46.5q48 0 83.5 44.5t41.5 113.5zM55 729q0 192 93 359.5t261.5 270.5t372.5 103q126 0 240 -41t200 -113t149.5 -165.5t96.5 -201.5t33 -218q0 -191 -92 -359 t-260 -272t-373 -104q-157 0 -294 63t-229.5 167t-145 237.5t-52.5 273.5zM778 287q92 0 166.5 38t120.5 101.5t70 141.5t24 161q0 85 -25.5 162.5t-72.5 138.5t-120.5 97t-162.5 36q-92 0 -166 -37.5t-120 -100t-70.5 -139.5t-24.5 -161q0 -85 25 -163t72 -139.5 t120.5 -98.5t163.5 -37z" />
<glyph unicode="&#x14f;" horiz-adv-x="1249" d="M750 1495h170q0 -132 -82.5 -216.5t-212.5 -84.5q-129 0 -212 84.5t-83 216.5h174q0 -65 36 -111.5t85 -46.5q48 0 83.5 44.5t41.5 113.5zM49 537q0 112 39 212.5t110.5 178t182 123t244.5 45.5q133 0 243 -45.5t182 -123t111 -178t39 -212.5q0 -111 -39 -211.5 t-110.5 -177.5t-181.5 -122.5t-244 -45.5t-244.5 45.5t-182 122.5t-110.5 177.5t-39 211.5zM625 256q102 0 169.5 79t67.5 202q0 125 -67 202.5t-170 77.5t-171.5 -78.5t-68.5 -201.5q0 -125 68 -203t172 -78z" />
<glyph unicode="&#x150;" horiz-adv-x="1556" d="M653 1550l-157 58l92 266h246zM1012 1550l-158 58l90 266h246zM55 729q0 192 93 359.5t261.5 270.5t372.5 103q126 0 240 -41t200 -113t149.5 -165.5t96.5 -201.5t33 -218q0 -191 -92 -359t-260 -272t-373 -104q-157 0 -294 63t-229.5 167t-145 237.5t-52.5 273.5z M778 287q92 0 166.5 38t120.5 101.5t70 141.5t24 161q0 85 -25.5 162.5t-72.5 138.5t-120.5 97t-162.5 36q-92 0 -166 -37.5t-120 -100t-70.5 -139.5t-24.5 -161q0 -85 25 -163t72 -139.5t120.5 -98.5t163.5 -37z" />
<glyph unicode="&#x151;" horiz-adv-x="1249" d="M496 1174l-158 57l92 266h246zM854 1174l-158 57l90 266h246zM49 537q0 112 39 212.5t110.5 178t182 123t244.5 45.5q133 0 243 -45.5t182 -123t111 -178t39 -212.5q0 -111 -39 -211.5t-110.5 -177.5t-181.5 -122.5t-244 -45.5t-244.5 45.5t-182 122.5t-110.5 177.5 t-39 211.5zM625 256q102 0 169.5 79t67.5 202q0 125 -67 202.5t-170 77.5t-171.5 -78.5t-68.5 -201.5q0 -125 68 -203t172 -78z" />
<glyph unicode="&#x152;" horiz-adv-x="2170" d="M2105 295v-295h-989v154q-72 -75 -167.5 -119.5t-200.5 -44.5q-151 0 -282.5 63t-220 166t-139.5 236.5t-51 273.5q0 143 53 277t144.5 235t223 162t278.5 61q208 0 362 -161v151h971v-295h-635v-272h524v-293h-524v-299h653zM1102 729q0 115 -40 213t-122 160.5 t-190 62.5q-68 0 -126 -24.5t-99 -67t-70.5 -99t-43.5 -120t-14 -129.5q0 -114 40 -212t122 -161t191 -63q85 0 154 37.5t111 100.5t64.5 140.5t22.5 161.5z" />
<glyph unicode="&#x153;" horiz-adv-x="2052" d="M49 537q0 243 161 401t408 158q255 0 412 -217q87 111 187.5 164t228.5 53q247 0 405.5 -156.5t163.5 -402.5q0 -47 -8 -101h-795q8 -97 78.5 -162t169.5 -65q77 0 143 38.5t89 96.5l268 -78q-66 -132 -203.5 -209t-306.5 -77q-118 0 -216.5 49t-203.5 155 q-102 -108 -197 -156t-212 -48q-249 0 -410.5 157t-161.5 400zM1675 635q-10 101 -76.5 163t-162.5 62t-160.5 -62.5t-73.5 -162.5h473zM862 537q0 123 -66.5 201.5t-170.5 78.5q-105 0 -172.5 -78.5t-67.5 -201.5q0 -124 67.5 -202.5t172.5 -78.5q104 0 170.5 79t66.5 202z " />
<glyph unicode="&#x154;" horiz-adv-x="1372" d="M754 1548l-209 58l106 266h297zM139 0v1454h656q132 0 243 -72.5t171.5 -185t60.5 -233.5q0 -133 -64.5 -247.5t-173.5 -174.5l320 -541h-371l-279 469h-227v-469h-336zM475 762h307q61 0 103.5 57t42.5 144q0 85 -48 140.5t-108 55.5h-297v-397z" />
<glyph unicode="&#x155;" horiz-adv-x="819" d="M553 1171l-209 58l107 266h297zM795 795q-123 -2 -218 -40.5t-137 -109.5v-645h-327v1075h301v-217q56 107 143 170t184 64q42 0 54 -2v-295z" />
<glyph unicode="&#x156;" horiz-adv-x="1372" d="M139 0v1454h656q132 0 243 -72.5t171.5 -185t60.5 -233.5q0 -133 -64.5 -247.5t-173.5 -174.5l320 -541h-371l-279 469h-227v-469h-336zM475 762h307q61 0 103.5 57t42.5 144q0 85 -48 140.5t-108 55.5h-297v-397zM604 -436l64 137h-99v203h275v-203l-96 -137h-144z" />
<glyph unicode="&#x157;" horiz-adv-x="819" d="M795 795q-123 -2 -218 -40.5t-137 -109.5v-645h-327v1075h301v-217q56 107 143 170t184 64q42 0 54 -2v-295zM156 -436l63 137h-98v203h274v-203l-96 -137h-143z" />
<glyph unicode="&#x158;" horiz-adv-x="1372" d="M473 1872l174 -129l174 129l168 -76l-223 -219h-236l-225 219zM139 0v1454h656q132 0 243 -72.5t171.5 -185t60.5 -233.5q0 -133 -64.5 -247.5t-173.5 -174.5l320 -541h-371l-279 469h-227v-469h-336zM475 762h307q61 0 103.5 57t42.5 144q0 85 -48 140.5t-108 55.5h-297 v-397z" />
<glyph unicode="&#x159;" horiz-adv-x="819" d="M272 1495l174 -129l175 129l167 -76l-223 -219h-235l-226 219zM795 795q-123 -2 -218 -40.5t-137 -109.5v-645h-327v1075h301v-217q56 107 143 170t184 64q42 0 54 -2v-295z" />
<glyph unicode="&#x15a;" horiz-adv-x="1259" d="M750 1556l-209 58l106 266h297zM1012 1028q-23 29 -148.5 84t-238.5 55q-181 0 -181 -120q0 -34 15.5 -58t60.5 -45t82 -33t123 -36q17 -5 25 -7q91 -25 155 -49.5t123.5 -61t95.5 -80.5t57 -106.5t21 -142.5q0 -96 -30 -172.5t-81 -126.5t-122 -83.5t-148 -47.5 t-164 -14q-162 0 -327.5 48t-292.5 132l147 293q11 -13 55.5 -39t109 -56.5t151 -52.5t164.5 -22q178 0 178 108q0 18 -5 33.5t-17 28.5t-24 23.5t-35 21.5t-41 18.5t-50 17.5t-54 17t-62 18t-65 19q-104 32 -174.5 67t-120.5 82t-73 108.5t-23 143.5q0 112 43 203 t116.5 149t170.5 89.5t207 31.5q254 0 524 -159z" />
<glyph unicode="&#x15b;" horiz-adv-x="1017" d="M633 1171l-209 58l106 266h297zM524 -20q-141 0 -270.5 46t-218.5 132l112 207q199 -146 367 -146q133 0 133 84q0 42 -52 66q-26 12 -134 45q-59 20 -98.5 34t-82 33t-68.5 36t-51.5 40t-39 48.5t-21.5 58t-8 71.5q0 162 122 261.5t327 99.5q245 0 413 -152l-127 -205 q-174 121 -303 121q-58 0 -92.5 -21t-34.5 -65q0 -41 36 -63t132 -49q74 -23 122 -39.5t98 -38.5t79 -45t53.5 -53.5t35 -69t10.5 -86.5q0 -163 -118.5 -256.5t-320.5 -93.5z" />
<glyph unicode="&#x15c;" horiz-adv-x="1259" d="M301 1659l225 221h236l223 -221l-168 -74l-174 129l-174 -129zM1012 1028q-23 29 -148.5 84t-238.5 55q-181 0 -181 -120q0 -34 15.5 -58t60.5 -45t82 -33t123 -36q17 -5 25 -7q91 -25 155 -49.5t123.5 -61t95.5 -80.5t57 -106.5t21 -142.5q0 -96 -30 -172.5t-81 -126.5 t-122 -83.5t-148 -47.5t-164 -14q-162 0 -327.5 48t-292.5 132l147 293q11 -13 55.5 -39t109 -56.5t151 -52.5t164.5 -22q178 0 178 108q0 18 -5 33.5t-17 28.5t-24 23.5t-35 21.5t-41 18.5t-50 17.5t-54 17t-62 18t-65 19q-104 32 -174.5 67t-120.5 82t-73 108.5t-23 143.5 q0 112 43 203t116.5 149t170.5 89.5t207 31.5q254 0 524 -159z" />
<glyph unicode="&#x15d;" horiz-adv-x="1017" d="M184 1274l226 221h235l223 -221l-168 -74l-174 129l-174 -129zM524 -20q-141 0 -270.5 46t-218.5 132l112 207q199 -146 367 -146q133 0 133 84q0 42 -52 66q-26 12 -134 45q-59 20 -98.5 34t-82 33t-68.5 36t-51.5 40t-39 48.5t-21.5 58t-8 71.5q0 162 122 261.5 t327 99.5q245 0 413 -152l-127 -205q-174 121 -303 121q-58 0 -92.5 -21t-34.5 -65q0 -41 36 -63t132 -49q74 -23 122 -39.5t98 -38.5t79 -45t53.5 -53.5t35 -69t10.5 -86.5q0 -163 -118.5 -256.5t-320.5 -93.5z" />
<glyph unicode="&#x15e;" horiz-adv-x="1259" d="M1202 428q0 -83 -22.5 -151.5t-61.5 -117t-94.5 -84t-117.5 -55.5t-134 -30q96 -93 96 -203q0 -94 -61 -155.5t-176 -61.5q-129 0 -250 65l78 170q56 -41 116 -41q45 0 72 22.5t27 63.5q0 66 -82 136q-147 9 -293 56t-262 122l147 293q11 -13 55.5 -39t109 -56.5 t151 -52.5t164.5 -22q178 0 178 108q0 18 -5 33.5t-17 28.5t-24 23.5t-35 21.5t-41 18.5t-50 17.5t-54 17t-62 18t-65 19q-104 32 -174.5 67t-120.5 82t-73 108.5t-23 143.5q0 112 43 203t116.5 149t170.5 89.5t207 31.5q254 0 524 -159l-147 -279q-23 29 -148.5 84 t-238.5 55q-181 0 -181 -120q0 -34 15.5 -58t60.5 -45t82 -33t123 -36q17 -5 25 -7q91 -25 155 -49.5t123.5 -61t95.5 -80.5t57 -106.5t21 -142.5z" />
<glyph unicode="&#x15f;" horiz-adv-x="1017" d="M963 330q0 -137 -85 -226t-235 -114q94 -91 94 -203q0 -94 -61 -155.5t-176 -61.5q-129 0 -250 65l78 170q56 -41 116 -41q45 0 72 22.5t27 63.5q0 66 -78 132q-125 9 -237.5 54t-192.5 122l112 207q199 -146 367 -146q133 0 133 84q0 42 -52 66q-26 12 -134 45 q-59 20 -98.5 34t-82 33t-68.5 36t-51.5 40t-39 48.5t-21.5 58t-8 71.5q0 162 122 261.5t327 99.5q245 0 413 -152l-127 -205q-174 121 -303 121q-58 0 -92.5 -21t-34.5 -65q0 -41 36 -63t132 -49q74 -23 122 -39.5t98 -38.5t79 -45t53.5 -53.5t35 -69t10.5 -86.5z" />
<glyph unicode="&#x160;" horiz-adv-x="1259" d="M469 1880l174 -129l174 129l168 -76l-223 -219h-236l-225 219zM1012 1028q-23 29 -148.5 84t-238.5 55q-181 0 -181 -120q0 -34 15.5 -58t60.5 -45t82 -33t123 -36q17 -5 25 -7q91 -25 155 -49.5t123.5 -61t95.5 -80.5t57 -106.5t21 -142.5q0 -96 -30 -172.5t-81 -126.5 t-122 -83.5t-148 -47.5t-164 -14q-162 0 -327.5 48t-292.5 132l147 293q11 -13 55.5 -39t109 -56.5t151 -52.5t164.5 -22q178 0 178 108q0 18 -5 33.5t-17 28.5t-24 23.5t-35 21.5t-41 18.5t-50 17.5t-54 17t-62 18t-65 19q-104 32 -174.5 67t-120.5 82t-73 108.5t-23 143.5 q0 112 43 203t116.5 149t170.5 89.5t207 31.5q254 0 524 -159z" />
<glyph unicode="&#x161;" horiz-adv-x="1017" d="M352 1495l174 -129l174 129l168 -76l-223 -219h-235l-226 219zM524 -20q-141 0 -270.5 46t-218.5 132l112 207q199 -146 367 -146q133 0 133 84q0 42 -52 66q-26 12 -134 45q-59 20 -98.5 34t-82 33t-68.5 36t-51.5 40t-39 48.5t-21.5 58t-8 71.5q0 162 122 261.5 t327 99.5q245 0 413 -152l-127 -205q-174 121 -303 121q-58 0 -92.5 -21t-34.5 -65q0 -41 36 -63t132 -49q74 -23 122 -39.5t98 -38.5t79 -45t53.5 -53.5t35 -69t10.5 -86.5q0 -163 -118.5 -256.5t-320.5 -93.5z" />
<glyph unicode="&#x162;" horiz-adv-x="1271" d="M805 1159v-1159h-66q107 -97 107 -213q0 -94 -61.5 -155.5t-176.5 -61.5q-129 0 -250 65l78 170q56 -41 117 -41q45 0 71.5 22.5t26.5 63.5q0 76 -100 150h-82v1159h-444v295h1222v-295h-442z" />
<glyph unicode="&#x163;" horiz-adv-x="823" d="M590 -10q94 -94 94 -203q0 -94 -61.5 -155.5t-176.5 -61.5q-128 0 -249 65l77 170q56 -41 117 -41q45 0 71.5 22.5t26.5 63.5q0 67 -81 136q-104 16 -166 84.5t-62 195.5v561h-137v248h137v342h328v-342h219v-248h-219v-448q0 -100 94 -100q61 0 143 38l64 -260 q-107 -47 -219 -67z" />
<glyph unicode="&#x164;" horiz-adv-x="1271" d="M475 1872l174 -129l174 129l168 -76l-223 -219h-236l-225 219zM1247 1159h-442v-1159h-336v1159h-444v295h1222v-295z" />
<glyph unicode="&#x165;" horiz-adv-x="823" d="M795 1171l-209 58l106 266h297zM809 57q-178 -77 -330 -77q-64 0 -116.5 15.5t-94 48.5t-65 89.5t-23.5 132.5v561h-137v248h137v342h328v-342h219v-248h-219v-448q0 -100 94 -100q61 0 143 38z" />
<glyph unicode="&#x166;" horiz-adv-x="1320" d="M1272 1159h-443v-418h345v-168h-345v-573h-335v573h-347v168h347v418h-445v295h1223v-295z" />
<glyph unicode="&#x167;" horiz-adv-x="825" d="M748 317l63 -260q-178 -77 -330 -77q-64 0 -116.5 15.5t-94 48.5t-65 89.5t-23.5 132.5v226h-121v192h121v143h-137v248h137v342h328v-342h219v-248h-219v-143h197v-192h-197v-113q0 -100 94 -100q62 0 144 38z" />
<glyph unicode="&#x168;" horiz-adv-x="1529" d="M629 1675q-25 0 -44.5 -10t-29 -22.5t-15 -28.5t-7 -24.5t-1.5 -12.5h-176q0 21 8 54t28 75t48.5 77.5t74.5 60t101 24.5t103 -25t89.5 -49.5t80.5 -24.5q26 0 46.5 10.5t31.5 24t17.5 29.5t8.5 25.5t2 13.5h176q0 -12 -6.5 -36.5t-19 -58t-34.5 -67.5t-50.5 -63 t-70 -47.5t-89.5 -18.5q-53 0 -101.5 23.5t-91 47t-79.5 23.5zM764 -12q-136 0 -245.5 39t-183 105.5t-123 159.5t-71.5 197.5t-22 221.5v743h336v-743q0 -87 17 -160.5t52 -134t96.5 -95t143.5 -34.5q83 0 145 35.5t96.5 97t51 134t16.5 157.5v743h336v-743 q0 -154 -38.5 -283t-115 -228.5t-202 -155.5t-289.5 -56z" />
<glyph unicode="&#x169;" horiz-adv-x="1284" d="M487 1298q-25 0 -44 -10t-28.5 -22.5t-15.5 -28.5t-7 -24.5t-1 -12.5h-176q0 21 8 54t28 75t48.5 77.5t74.5 60t101 24.5q43 0 83.5 -15.5t65.5 -33.5t58.5 -33.5t65.5 -15.5q26 0 46.5 10t31.5 24t17.5 30t8.5 25t2 13h176q0 -12 -6.5 -36.5t-19 -58t-34.5 -67.5 t-50.5 -63t-70 -47.5t-89.5 -18.5q-42 0 -82.5 14.5t-66.5 32.5t-60 32.5t-64 14.5zM102 387v688h328v-616q0 -98 39 -150.5t111 -52.5q148 0 235 156v663h328v-710q0 -49 15.5 -69.5t53.5 -23.5v-272q-81 -16 -139 -16q-86 0 -137.5 35.5t-63.5 101.5l-6 65 q-143 -206 -428 -206q-164 0 -250 104t-86 303z" />
<glyph unicode="&#x16a;" horiz-adv-x="1529" d="M455 1649v198h622v-198h-622zM764 -12q-136 0 -245.5 39t-183 105.5t-123 159.5t-71.5 197.5t-22 221.5v743h336v-743q0 -87 17 -160.5t52 -134t96.5 -95t143.5 -34.5q83 0 145 35.5t96.5 97t51 134t16.5 157.5v743h336v-743q0 -154 -38.5 -283t-115 -228.5t-202 -155.5 t-289.5 -56z" />
<glyph unicode="&#x16b;" horiz-adv-x="1284" d="M313 1272v198h623v-198h-623zM102 387v688h328v-616q0 -98 39 -150.5t111 -52.5q148 0 235 156v663h328v-710q0 -49 15.5 -69.5t53.5 -23.5v-272q-81 -16 -139 -16q-86 0 -137.5 35.5t-63.5 101.5l-6 65q-143 -206 -428 -206q-164 0 -250 104t-86 303z" />
<glyph unicode="&#x16c;" horiz-adv-x="1529" d="M889 1872h170q0 -132 -82.5 -216.5t-212.5 -84.5q-129 0 -212 84.5t-83 216.5h174q0 -65 36 -111.5t85 -46.5q48 0 83.5 44.5t41.5 113.5zM764 -12q-136 0 -245.5 39t-183 105.5t-123 159.5t-71.5 197.5t-22 221.5v743h336v-743q0 -87 17 -160.5t52 -134t96.5 -95 t143.5 -34.5q83 0 145 35.5t96.5 97t51 134t16.5 157.5v743h336v-743q0 -154 -38.5 -283t-115 -228.5t-202 -155.5t-289.5 -56z" />
<glyph unicode="&#x16d;" horiz-adv-x="1284" d="M748 1495h170q0 -132 -82.5 -216.5t-212.5 -84.5q-129 0 -212 84.5t-83 216.5h174q0 -65 36 -111.5t85 -46.5q48 0 83.5 44.5t41.5 113.5zM102 387v688h328v-616q0 -98 39 -150.5t111 -52.5q148 0 235 156v663h328v-710q0 -49 15.5 -69.5t53.5 -23.5v-272 q-81 -16 -139 -16q-86 0 -137.5 35.5t-63.5 101.5l-6 65q-143 -206 -428 -206q-164 0 -250 104t-86 303z" />
<glyph unicode="&#x16e;" horiz-adv-x="1529" d="M764 1896q102 0 163.5 -51.5t61.5 -138.5q0 -86 -61.5 -136t-163.5 -50q-103 0 -165 50t-62 136q0 87 62 138.5t165 51.5zM678 1708q0 -34 25 -59t61 -25q35 0 60.5 25t25.5 59q0 35 -24.5 58.5t-61.5 23.5t-61.5 -23.5t-24.5 -58.5zM764 -12q-136 0 -245.5 39 t-183 105.5t-123 159.5t-71.5 197.5t-22 221.5v743h336v-743q0 -87 17 -160.5t52 -134t96.5 -95t143.5 -34.5q83 0 145 35.5t96.5 97t51 134t16.5 157.5v743h336v-743q0 -154 -38.5 -283t-115 -228.5t-202 -155.5t-289.5 -56z" />
<glyph unicode="&#x16f;" horiz-adv-x="1284" d="M623 1520q102 0 163.5 -52t61.5 -139q0 -86 -61.5 -136t-163.5 -50q-103 0 -165.5 50t-62.5 136q0 87 62.5 139t165.5 52zM537 1331q0 -34 25 -59t61 -25q35 0 60.5 25t25.5 59q0 35 -24.5 58.5t-61.5 23.5t-61.5 -23.5t-24.5 -58.5zM102 387v688h328v-616 q0 -98 39 -150.5t111 -52.5q148 0 235 156v663h328v-710q0 -49 15.5 -69.5t53.5 -23.5v-272q-81 -16 -139 -16q-86 0 -137.5 35.5t-63.5 101.5l-6 65q-143 -206 -428 -206q-164 0 -250 104t-86 303z" />
<glyph unicode="&#x170;" horiz-adv-x="1529" d="M635 1550l-158 58l92 266h246zM993 1550l-157 58l90 266h245zM764 -12q-136 0 -245.5 39t-183 105.5t-123 159.5t-71.5 197.5t-22 221.5v743h336v-743q0 -87 17 -160.5t52 -134t96.5 -95t143.5 -34.5q83 0 145 35.5t96.5 97t51 134t16.5 157.5v743h336v-743 q0 -154 -38.5 -283t-115 -228.5t-202 -155.5t-289.5 -56z" />
<glyph unicode="&#x171;" horiz-adv-x="1284" d="M494 1174l-158 57l92 266h246zM852 1174l-158 57l90 266h246zM102 387v688h328v-616q0 -98 39 -150.5t111 -52.5q148 0 235 156v663h328v-710q0 -49 15.5 -69.5t53.5 -23.5v-272q-81 -16 -139 -16q-86 0 -137.5 35.5t-63.5 101.5l-6 65q-143 -206 -428 -206 q-164 0 -250 104t-86 303z" />
<glyph unicode="&#x172;" horiz-adv-x="1529" d="M1073 1454h336v-743q0 -179 -49.5 -322.5t-158.5 -246.5t-269 -138q-144 -97 -144 -164q0 -75 148 -78l-62 -178q-148 16 -219 69.5t-71 125.5q0 114 121 211q-153 11 -268.5 73t-183.5 162.5t-101 222t-33 263.5v743h336v-743q0 -87 17 -160.5t52 -134t96.5 -95 t143.5 -34.5q83 0 145 35.5t96.5 97t51 134t16.5 157.5v743z" />
<glyph unicode="&#x173;" horiz-adv-x="1284" d="M1212 0q-151 -100 -151 -170q0 -75 147 -78l-61 -178q-148 16 -219.5 69.5t-71.5 125.5q0 121 137 225q-103 27 -121 127l-6 65q-143 -206 -428 -206q-164 0 -250 104t-86 303v688h328v-616q0 -98 39 -150.5t111 -52.5q148 0 235 156v663h328v-710q0 -49 15.5 -69.5 t53.5 -23.5v-272z" />
<glyph unicode="&#x174;" horiz-adv-x="2160" d="M737 1651l226 221h235l223 -221l-168 -74l-174 129l-174 -129zM618 1452h310l151 -465l152 465h311l-248 -676l148 -387l364 1065h367l-567 -1454h-291l-236 569l-233 -569h-293l-565 1454h364l367 -1065l143 387z" />
<glyph unicode="&#x175;" horiz-adv-x="1740" d="M528 1274l226 221h235l223 -221l-168 -74l-174 129l-174 -129zM1438 1075h311l-444 -1075h-271l-164 438l-163 -438h-271l-444 1075h309l289 -766l102 299l-192 467h268l102 -323l103 323h266l-190 -467l102 -299z" />
<glyph unicode="&#x176;" horiz-adv-x="1357" d="M336 1651l225 221h236l223 -221l-168 -74l-174 129l-174 -129zM365 1454l313 -643l317 643h367l-518 -958v-496h-334v500l-510 954h365z" />
<glyph unicode="&#x177;" horiz-adv-x="1130" d="M250 1274l225 221h236l223 -221l-168 -74l-174 129l-174 -129zM121 -162q77 -26 141 -26q59 0 92.5 41.5t59.5 146.5l-410 1075h338l250 -739l213 739h309l-409 -1249q-43 -134 -155.5 -216.5t-260.5 -82.5q-91 0 -168 31v280z" />
<glyph unicode="&#x178;" horiz-adv-x="1357" d="M328 1593v265h270v-265h-270zM758 1593v265h270v-265h-270zM365 1454l313 -643l317 643h367l-518 -958v-496h-334v500l-510 954h365z" />
<glyph unicode="&#x179;" horiz-adv-x="1280" d="M768 1548l-209 58l107 266h297zM57 252l742 907h-713v295h1116v-252l-706 -907h714v-295h-1153v252z" />
<glyph unicode="&#x17a;" horiz-adv-x="1011" d="M610 1171l-209 58l107 266h297zM49 197l547 651h-518v227h862v-196l-541 -652h555v-227h-905v197z" />
<glyph unicode="&#x17b;" horiz-adv-x="1280" d="M514 1591v281h295v-281h-295zM57 252l742 907h-713v295h1116v-252l-706 -907h714v-295h-1153v252z" />
<glyph unicode="&#x17c;" horiz-adv-x="1011" d="M356 1214v281h295v-281h-295zM49 197l547 651h-518v227h862v-196l-541 -652h555v-227h-905v197z" />
<glyph unicode="&#x17d;" horiz-adv-x="1280" d="M487 1872l175 -129l174 129l168 -76l-224 -219h-235l-226 219zM57 252l742 907h-713v295h1116v-252l-706 -907h714v-295h-1153v252z" />
<glyph unicode="&#x17e;" horiz-adv-x="1011" d="M330 1495l174 -129l174 129l168 -76l-223 -219h-236l-225 219zM49 197l547 651h-518v227h862v-196l-541 -652h555v-227h-905v197z" />
<glyph unicode="&#x18f;" horiz-adv-x="1540" d="M33 698q0 65 12 131h1071q-17 158 -117 247t-237 89q-106 0 -193.5 -53.5t-113.5 -140.5l-346 106q85 177 257 281t398 104q129 0 244.5 -41.5t201 -112.5t148 -163t94 -195.5t31.5 -208.5q0 -143 -50 -277.5t-140 -240t-228.5 -169.5t-302.5 -64q-132 0 -250 41.5 t-204 112t-149 161.5t-94.5 192t-31.5 201zM1110 578h-707q17 -132 117.5 -212.5t245.5 -80.5q138 0 232.5 80t111.5 213z" />
<glyph unicode="&#x192;" horiz-adv-x="1138" d="M59 -311l138 223q40 -43 108 -43q47 0 78 31.5t31 81.5v720h-138v248h138v125q0 201 102.5 321t271.5 120q131 0 281 -64l-59 -246q-79 33 -148 33q-121 0 -121 -152v-137h250v-248h-250v-712q0 -178 -113.5 -291t-281.5 -113q-169 0 -287 103z" />
<glyph unicode="&#x1a0;" horiz-adv-x="1556" d="M1223 1307q131 -105 204.5 -261t73.5 -323q0 -191 -92 -359t-260 -272t-373 -104q-157 0 -294 63t-229.5 167t-145 237.5t-52.5 273.5q0 192 93 359.5t261.5 270.5t372.5 103q55 0 123 -10q74 0 118 10t69 37q11 11 17.5 22t10 29.5t4.5 25t1.5 33t0.5 29.5h232 q-1 -48 -3.5 -78t-11 -74t-29 -81t-52.5 -68q-7 -7 -39 -30zM778 287q92 0 166.5 38t120.5 101.5t70 141.5t24 161q0 85 -25.5 162.5t-72.5 138.5t-120.5 97t-162.5 36q-92 0 -166 -37.5t-120 -100t-70.5 -139.5t-24.5 -161q0 -85 25 -163t72 -139.5t120.5 -98.5t163.5 -37z " />
<glyph unicode="&#x1a1;" horiz-adv-x="1249" d="M1053 924q147 -156 147 -387q0 -111 -39 -211.5t-110.5 -177.5t-181.5 -122.5t-244 -45.5t-244.5 45.5t-182 122.5t-110.5 177.5t-39 211.5q0 112 39 212.5t110.5 178t182 123t244.5 45.5q77 0 170 -21q97 6 133 45q9 9 15.5 20.5t9.5 19.5t5.5 24.5t3 23t1 27.5t0.5 25 h231q-1 -48 -3.5 -78t-11 -74.5t-29 -81.5t-52.5 -68q-20 -20 -45 -34zM625 256q102 0 169.5 79t67.5 202q0 125 -67 202.5t-170 77.5t-171.5 -78.5t-68.5 -201.5q0 -125 68 -203t172 -78z" />
<glyph unicode="&#x1af;" horiz-adv-x="1529" d="M1423 1640h232q-1 -48 -3.5 -78t-11 -74t-29 -81t-52.5 -68q-48 -48 -150 -77v-551q0 -154 -38.5 -283t-115 -228.5t-202 -155.5t-289.5 -56q-136 0 -245.5 39t-183 105.5t-123 159.5t-71.5 197.5t-22 221.5v743h336v-743q0 -87 17 -160.5t52 -134t96.5 -95t143.5 -34.5 q83 0 145 35.5t96.5 97t51 134t16.5 157.5v743h125q147 0 191 47q11 11 17.5 22t10 29.5t4.5 25t1.5 33t0.5 29.5z" />
<glyph unicode="&#x1b0;" horiz-adv-x="1284" d="M1200 1262h232q-1 -47 -3.5 -78t-11.5 -74.5t-29.5 -80.5t-52.5 -68q-63 -63 -192 -91v-505q0 -49 15.5 -69.5t53.5 -23.5v-272q-81 -16 -139 -16q-86 0 -137.5 35.5t-63.5 101.5l-6 65q-143 -206 -428 -206q-164 0 -250 104t-86 303v688h328v-616q0 -98 39 -150.5 t111 -52.5q148 0 235 156v663h160q76 0 120.5 10t69.5 37q9 9 15.5 20.5t9.5 19.5t5.5 24.5t3 23t1 27.5t0.5 25z" />
<glyph unicode="&#x1e6;" horiz-adv-x="1499" d="M901 1577h-235l-226 219l168 76l174 -129l174 129l168 -76zM856 760h561v-760h-278v143q-166 -153 -383 -153q-142 0 -270 55t-222.5 151.5t-150.5 237t-56 303.5q0 148 56 282.5t151.5 232t230.5 155t287 57.5q199 0 352.5 -84.5t229.5 -232.5l-250 -189 q-49 96 -142.5 151.5t-201.5 55.5q-164 0 -268.5 -126.5t-104.5 -313.5q0 -190 108.5 -313t278.5 -123q199 0 355 182v45h-283v244z" />
<glyph unicode="&#x1e7;" horiz-adv-x="1310" d="M479 1495l174 -129l174 129l168 -76l-223 -219h-235l-226 219zM53 539q0 156 63 283t177.5 200.5t259.5 73.5q119 0 211 -51.5t149 -145.5v176h285v-1001q0 -243 -172.5 -387t-450.5 -144q-319 0 -512 215l177 179q59 -68 148 -108t187 -40q61 0 113 16.5t93.5 49.5 t65 89t23.5 130v104q-48 -87 -139.5 -134.5t-200.5 -47.5q-139 0 -249 73.5t-169 197t-59 272.5zM870 406v225q-32 84 -99.5 135t-143.5 51q-103 0 -171.5 -85.5t-68.5 -201.5q0 -118 73.5 -196t182.5 -78q73 0 133.5 41t93.5 109z" />
<glyph unicode="&#x1ea;" horiz-adv-x="1556" d="M944 8q-143 -96 -143 -166q0 -75 147 -78l-61 -178q-148 16 -219.5 69.5t-71.5 125.5q0 111 119 209q-145 12 -270 79.5t-209.5 169t-132.5 229.5t-48 261q0 192 93 359.5t261.5 270.5t372.5 103q126 0 240 -41t200 -113t149.5 -165.5t96.5 -201.5t33 -218 q0 -164 -69.5 -313.5t-197 -256.5t-290.5 -145zM397 725q0 -85 25 -163t72 -139.5t120.5 -98.5t163.5 -37q92 0 166.5 38t120.5 101.5t70 141.5t24 161q0 85 -25.5 162.5t-72.5 138.5t-120.5 97t-162.5 36q-92 0 -166 -37.5t-120 -100t-70.5 -139.5t-24.5 -161z" />
<glyph unicode="&#x1eb;" horiz-adv-x="1249" d="M786 -2q-149 -98 -149 -168q0 -75 147 -78l-61 -178q-148 16 -219.5 69.5t-71.5 125.5q0 114 125 215q-158 14 -275 94.5t-175 199.5t-58 259q0 112 39 212.5t110.5 178t182 123t244.5 45.5q133 0 243 -45.5t182 -123t111 -178t39 -212.5q0 -192 -110 -341.5t-304 -197.5 zM385 537q0 -125 68 -203t172 -78q102 0 169.5 79t67.5 202q0 125 -67 202.5t-170 77.5t-171.5 -78.5t-68.5 -201.5z" />
<glyph unicode="&#x1fa;" horiz-adv-x="1372" d="M874 1436l494 -1436h-344l-113 326h-452l-111 -326h-344l496 1436q-39 45 -39 112q0 121 106 166l90 201h297l-137 -205q96 -52 96 -162q0 -67 -39 -112zM688 1632q-37 0 -61.5 -23.5t-24.5 -58.5q0 -34 25 -59t61 -25q35 0 60.5 25t25.5 59q0 35 -24.5 58.5t-61.5 23.5z M512 557h344l-170 559z" />
<glyph unicode="&#x1fb;" horiz-adv-x="1200" d="M715 1550l-209 58l106 266h297zM565 1520q102 0 164 -52t62 -139q0 -86 -62 -136t-164 -50q-103 0 -165 50t-62 136q0 87 62 139t165 52zM479 1331q0 -34 25 -59t61 -25q35 0 60.5 25t25.5 59q0 35 -24.5 58.5t-61.5 23.5t-61.5 -23.5t-24.5 -58.5zM45 322 q0 159 129 258.5t334 99.5q140 0 240 -43v47q0 182 -216 182q-87 0 -165.5 -28.5t-169.5 -89.5l-99 208q215 140 467 140q243 0 376.5 -116.5t133.5 -334.5v-280q0 -49 15.5 -69.5t54.5 -23.5v-272q-76 -16 -139 -16q-175 0 -201 137l-6 47q-71 -91 -170.5 -139.5 t-208.5 -48.5q-161 0 -268 98t-107 244zM696 281q52 42 52 84v96q-100 35 -185 35q-91 0 -150 -41t-59 -105q0 -56 44.5 -95.5t117.5 -39.5q49 0 97.5 18t82.5 48z" />
<glyph unicode="&#x1fc;" horiz-adv-x="1982" d="M1372 1548l-209 58l107 266h297zM844 1454h1054v-295h-632v-272h522v-293h-522v-299h651v-295h-985v326h-440l-187 -326h-358zM905 621v458l-272 -458h272z" />
<glyph unicode="&#x1fd;" horiz-adv-x="1923" d="M1059 1171l-209 58l106 266h297zM45 322q0 158 129 258t332 100q131 0 231 -41q0 37 8 61q-6 86 -58 128t-155 42q-158 0 -335 -118l-97 204q215 140 465 140q244 0 375 -131q151 131 371 131q134 0 244 -45t182 -122.5t111 -178t40 -213.5q0 -56 -10 -101h-799 q7 -103 77.5 -162t166.5 -59q75 0 139.5 36t87.5 93l279 -78q-63 -130 -199 -208t-317 -78q-152 0 -272.5 57.5t-194.5 157.5q-72 -107 -191 -161t-239 -54q-158 0 -264.5 98t-106.5 244zM1542 635q-11 102 -75 163.5t-160 61.5q-97 0 -161 -62t-73 -163h469zM700 283 q48 38 48 75q-11 57 -11 109q-91 31 -176 31q-89 0 -148 -42t-59 -106q0 -58 45 -96.5t113 -38.5q113 0 188 68z" />
<glyph unicode="&#x1fe;" horiz-adv-x="1554" d="M1083 1872l-194 -324l-209 58l106 266h297zM1311 1223q91 -104 140.5 -234.5t49.5 -265.5q0 -191 -92 -359t-260 -272t-373 -104q-162 0 -297 63l-37 -51h-362l164 229q-91 103 -140 233t-49 267q0 192 93 359.5t261.5 270.5t372.5 103q158 0 293 -63l39 55h363zM397 725 q0 -119 45 -215l453 635q-53 18 -117 18q-92 0 -166 -37.5t-120 -100t-70.5 -139.5t-24.5 -161zM778 287q92 0 166.5 38t120.5 101.5t70 141.5t24 161q0 113 -45 215l-455 -639q56 -18 119 -18z" />
<glyph unicode="&#x1ff;" horiz-adv-x="1249" d="M856 1495l-194 -324l-209 58l106 266h297zM1049 928q151 -157 151 -391q0 -111 -39 -211.5t-110.5 -177.5t-181.5 -122.5t-244 -45.5q-184 0 -314 79l-61 -69h-191l136 164q-146 155 -146 383q0 112 39 212.5t110.5 178t182 123t244.5 45.5q171 0 303 -74l55 63h193z M625 817q-103 0 -171.5 -78.5t-68.5 -201.5q0 -82 31 -146l321 395q-51 31 -112 31zM625 256q102 0 169.5 79t67.5 202q0 88 -35 153l-325 -399q53 -35 123 -35z" />
<glyph unicode="&#x200;" horiz-adv-x="1372" d="M274 1874h246l92 -266l-159 -58zM631 1874h248l90 -266l-158 -58zM506 1454h362l500 -1454h-344l-113 326h-452l-111 -326h-344zM856 557l-170 559l-174 -559h344z" />
<glyph unicode="&#x201;" horiz-adv-x="1200" d="M154 1497h245l93 -266l-160 -57zM510 1497h248l90 -266l-158 -57zM45 322q0 159 129 258.5t334 99.5q140 0 240 -43v47q0 182 -216 182q-87 0 -165.5 -28.5t-169.5 -89.5l-99 208q215 140 467 140q243 0 376.5 -116.5t133.5 -334.5v-280q0 -49 15.5 -69.5t54.5 -23.5 v-272q-76 -16 -139 -16q-175 0 -201 137l-6 47q-71 -91 -170.5 -139.5t-208.5 -48.5q-161 0 -268 98t-107 244zM696 281q52 42 52 84v96q-100 35 -185 35q-91 0 -150 -41t-59 -105q0 -56 44.5 -95.5t117.5 -39.5q49 0 97.5 18t82.5 48z" />
<glyph unicode="&#x202;" horiz-adv-x="1372" d="M565 1571h-174q0 132 83 216.5t212 84.5q130 0 212.5 -84.5t82.5 -216.5h-170q-6 69 -41.5 113.5t-83.5 44.5q-49 0 -85 -46.5t-36 -111.5zM506 1454h362l500 -1454h-344l-113 326h-452l-111 -326h-344zM856 557l-170 559l-174 -559h344z" />
<glyph unicode="&#x203;" horiz-adv-x="1200" d="M444 1194h-174q0 132 83 216.5t212 84.5q130 0 212.5 -84.5t82.5 -216.5h-170q-6 69 -41.5 113.5t-83.5 44.5q-49 0 -85 -46.5t-36 -111.5zM45 322q0 159 129 258.5t334 99.5q140 0 240 -43v47q0 182 -216 182q-87 0 -165.5 -28.5t-169.5 -89.5l-99 208q215 140 467 140 q243 0 376.5 -116.5t133.5 -334.5v-280q0 -49 15.5 -69.5t54.5 -23.5v-272q-76 -16 -139 -16q-175 0 -201 137l-6 47q-71 -91 -170.5 -139.5t-208.5 -48.5q-161 0 -268 98t-107 244zM696 281q52 42 52 84v96q-100 35 -185 35q-91 0 -150 -41t-59 -105q0 -56 44.5 -95.5 t117.5 -39.5q49 0 97.5 18t82.5 48z" />
<glyph unicode="&#x204;" horiz-adv-x="1226" d="M246 1874h246l92 -266l-160 -58zM602 1874h248l90 -266l-158 -58zM1161 295v-295h-1022v1454h1004v-295h-668v-282h574v-273h-574v-309h686z" />
<glyph unicode="&#x205;" horiz-adv-x="1236" d="M213 1497h246l92 -266l-160 -57zM569 1497h248l90 -266l-157 -57zM627 -20q-132 0 -242.5 44.5t-183 119.5t-112.5 174t-40 208q0 116 39.5 219.5t111.5 181.5t182.5 123.5t244.5 45.5t244 -45.5t181 -122.5t109.5 -176.5t38.5 -210.5q0 -51 -8 -105h-795 q7 -103 76.5 -162t163.5 -59q74 0 139 36t88 93l279 -78q-65 -130 -200 -208t-316 -78zM389 637h467q-10 101 -74.5 162t-158.5 61q-95 0 -159.5 -61t-74.5 -162z" />
<glyph unicode="&#x206;" horiz-adv-x="1226" d="M537 1571h-175q0 132 83 216.5t212 84.5q130 0 212.5 -84.5t82.5 -216.5h-170q-6 69 -41.5 113.5t-83.5 44.5q-49 0 -84.5 -46.5t-35.5 -111.5zM1161 295v-295h-1022v1454h1004v-295h-668v-282h574v-273h-574v-309h686z" />
<glyph unicode="&#x207;" horiz-adv-x="1236" d="M504 1194h-174q0 132 83 216.5t212 84.5q130 0 212.5 -84.5t82.5 -216.5h-170q-6 69 -41.5 113.5t-83.5 44.5q-49 0 -85 -46.5t-36 -111.5zM627 -20q-132 0 -242.5 44.5t-183 119.5t-112.5 174t-40 208q0 116 39.5 219.5t111.5 181.5t182.5 123.5t244.5 45.5t244 -45.5 t181 -122.5t109.5 -176.5t38.5 -210.5q0 -51 -8 -105h-795q7 -103 76.5 -162t163.5 -59q74 0 139 36t88 93l279 -78q-65 -130 -200 -208t-316 -78zM389 637h467q-10 101 -74.5 162t-158.5 61q-95 0 -159.5 -61t-74.5 -162z" />
<glyph unicode="&#x208;" horiz-adv-x="614" d="M-104 1874h245l92 -266l-159 -58zM252 1874h248l90 -266l-158 -58zM139 0v1454h336v-1454h-336z" />
<glyph unicode="&#x209;" horiz-adv-x="552" d="M-135 1497h246l92 -266l-160 -57zM221 1497h248l90 -266l-158 -57zM113 0v1075h327v-1075h-327z" />
<glyph unicode="&#x20a;" horiz-adv-x="614" d="M186 1571h-174q0 132 83 216.5t212 84.5q130 0 212.5 -84.5t82.5 -216.5h-170q-6 69 -41.5 113.5t-83.5 44.5q-49 0 -85 -46.5t-36 -111.5zM139 0v1454h336v-1454h-336z" />
<glyph unicode="&#x20b;" horiz-adv-x="552" d="M156 1194h-174q0 132 82.5 216.5t211.5 84.5q130 0 212.5 -84.5t82.5 -216.5h-170q-6 69 -41.5 113.5t-83.5 44.5q-49 0 -84.5 -46.5t-35.5 -111.5zM113 0v1075h327v-1075h-327z" />
<glyph unicode="&#x20c;" horiz-adv-x="1556" d="M371 1874h245l93 -266l-160 -58zM727 1874h248l90 -266l-158 -58zM55 729q0 192 93 359.5t261.5 270.5t372.5 103q126 0 240 -41t200 -113t149.5 -165.5t96.5 -201.5t33 -218q0 -191 -92 -359t-260 -272t-373 -104q-157 0 -294 63t-229.5 167t-145 237.5t-52.5 273.5z M778 287q92 0 166.5 38t120.5 101.5t70 141.5t24 161q0 85 -25.5 162.5t-72.5 138.5t-120.5 97t-162.5 36q-92 0 -166 -37.5t-120 -100t-70.5 -139.5t-24.5 -161q0 -85 25 -163t72 -139.5t120.5 -98.5t163.5 -37z" />
<glyph unicode="&#x20d;" horiz-adv-x="1249" d="M213 1497h246l92 -266l-160 -57zM569 1497h248l90 -266l-157 -57zM49 537q0 112 39 212.5t110.5 178t182 123t244.5 45.5q133 0 243 -45.5t182 -123t111 -178t39 -212.5q0 -111 -39 -211.5t-110.5 -177.5t-181.5 -122.5t-244 -45.5t-244.5 45.5t-182 122.5t-110.5 177.5 t-39 211.5zM625 256q102 0 169.5 79t67.5 202q0 125 -67 202.5t-170 77.5t-171.5 -78.5t-68.5 -201.5q0 -125 68 -203t172 -78z" />
<glyph unicode="&#x20e;" horiz-adv-x="1556" d="M662 1571h-175q0 132 83 216.5t212 84.5q130 0 212.5 -84.5t82.5 -216.5h-170q-6 69 -41.5 113.5t-83.5 44.5q-49 0 -84.5 -46.5t-35.5 -111.5zM55 729q0 192 93 359.5t261.5 270.5t372.5 103q126 0 240 -41t200 -113t149.5 -165.5t96.5 -201.5t33 -218q0 -191 -92 -359 t-260 -272t-373 -104q-157 0 -294 63t-229.5 167t-145 237.5t-52.5 273.5zM778 287q92 0 166.5 38t120.5 101.5t70 141.5t24 161q0 85 -25.5 162.5t-72.5 138.5t-120.5 97t-162.5 36q-92 0 -166 -37.5t-120 -100t-70.5 -139.5t-24.5 -161q0 -85 25 -163t72 -139.5 t120.5 -98.5t163.5 -37z" />
<glyph unicode="&#x20f;" horiz-adv-x="1249" d="M504 1194h-174q0 132 83 216.5t212 84.5q130 0 212.5 -84.5t82.5 -216.5h-170q-6 69 -41.5 113.5t-83.5 44.5q-49 0 -85 -46.5t-36 -111.5zM49 537q0 112 39 212.5t110.5 178t182 123t244.5 45.5q133 0 243 -45.5t182 -123t111 -178t39 -212.5q0 -111 -39 -211.5 t-110.5 -177.5t-181.5 -122.5t-244 -45.5t-244.5 45.5t-182 122.5t-110.5 177.5t-39 211.5zM625 256q102 0 169.5 79t67.5 202q0 125 -67 202.5t-170 77.5t-171.5 -78.5t-68.5 -201.5q0 -125 68 -203t172 -78z" />
<glyph unicode="&#x210;" horiz-adv-x="1372" d="M236 1874h245l92 -266l-159 -58zM592 1874h248l90 -266l-158 -58zM139 0v1454h656q132 0 243 -72.5t171.5 -185t60.5 -233.5q0 -133 -64.5 -247.5t-173.5 -174.5l320 -541h-371l-279 469h-227v-469h-336zM475 762h307q61 0 103.5 57t42.5 144q0 85 -48 140.5t-108 55.5 h-297v-397z" />
<glyph unicode="&#x211;" horiz-adv-x="819" d="M35 1497h246l92 -266l-160 -57zM391 1497h248l90 -266l-158 -57zM795 795q-123 -2 -218 -40.5t-137 -109.5v-645h-327v1075h301v-217q56 107 143 170t184 64q42 0 54 -2v-295z" />
<glyph unicode="&#x212;" horiz-adv-x="1372" d="M526 1571h-174q0 132 83 216.5t212 84.5q130 0 212.5 -84.5t82.5 -216.5h-170q-6 69 -41.5 113.5t-83.5 44.5q-49 0 -85 -46.5t-36 -111.5zM139 0v1454h656q132 0 243 -72.5t171.5 -185t60.5 -233.5q0 -133 -64.5 -247.5t-173.5 -174.5l320 -541h-371l-279 469h-227v-469 h-336zM475 762h307q61 0 103.5 57t42.5 144q0 85 -48 140.5t-108 55.5h-297v-397z" />
<glyph unicode="&#x213;" horiz-adv-x="819" d="M326 1194h-174q0 132 82.5 216.5t211.5 84.5q130 0 212.5 -84.5t82.5 -216.5h-170q-6 69 -41.5 113.5t-83.5 44.5q-49 0 -84.5 -46.5t-35.5 -111.5zM795 795q-123 -2 -218 -40.5t-137 -109.5v-645h-327v1075h301v-217q56 107 143 170t184 64q42 0 54 -2v-295z" />
<glyph unicode="&#x214;" horiz-adv-x="1529" d="M352 1874h246l92 -266l-160 -58zM709 1874h247l91 -266l-158 -58zM764 -12q-136 0 -245.5 39t-183 105.5t-123 159.5t-71.5 197.5t-22 221.5v743h336v-743q0 -87 17 -160.5t52 -134t96.5 -95t143.5 -34.5q83 0 145 35.5t96.5 97t51 134t16.5 157.5v743h336v-743 q0 -154 -38.5 -283t-115 -228.5t-202 -155.5t-289.5 -56z" />
<glyph unicode="&#x215;" horiz-adv-x="1284" d="M211 1497h246l92 -266l-160 -57zM567 1497h248l90 -266l-157 -57zM102 387v688h328v-616q0 -98 39 -150.5t111 -52.5q148 0 235 156v663h328v-710q0 -49 15.5 -69.5t53.5 -23.5v-272q-81 -16 -139 -16q-86 0 -137.5 35.5t-63.5 101.5l-6 65q-143 -206 -428 -206 q-164 0 -250 104t-86 303z" />
<glyph unicode="&#x216;" horiz-adv-x="1529" d="M643 1571h-174q0 132 83 216.5t212 84.5q130 0 212.5 -84.5t82.5 -216.5h-170q-6 69 -41.5 113.5t-83.5 44.5q-49 0 -85 -46.5t-36 -111.5zM764 -12q-136 0 -245.5 39t-183 105.5t-123 159.5t-71.5 197.5t-22 221.5v743h336v-743q0 -87 17 -160.5t52 -134t96.5 -95 t143.5 -34.5q83 0 145 35.5t96.5 97t51 134t16.5 157.5v743h336v-743q0 -154 -38.5 -283t-115 -228.5t-202 -155.5t-289.5 -56z" />
<glyph unicode="&#x217;" horiz-adv-x="1284" d="M502 1194h-174q0 132 83 216.5t212 84.5q130 0 212.5 -84.5t82.5 -216.5h-170q-6 69 -41.5 113.5t-83.5 44.5q-49 0 -85 -46.5t-36 -111.5zM102 387v688h328v-616q0 -98 39 -150.5t111 -52.5q148 0 235 156v663h328v-710q0 -49 15.5 -69.5t53.5 -23.5v-272 q-81 -16 -139 -16q-86 0 -137.5 35.5t-63.5 101.5l-6 65q-143 -206 -428 -206q-164 0 -250 104t-86 303z" />
<glyph unicode="&#x218;" horiz-adv-x="1259" d="M1012 1028q-23 29 -148.5 84t-238.5 55q-181 0 -181 -120q0 -34 15.5 -58t60.5 -45t82 -33t123 -36q17 -5 25 -7q91 -25 155 -49.5t123.5 -61t95.5 -80.5t57 -106.5t21 -142.5q0 -96 -30 -172.5t-81 -126.5t-122 -83.5t-148 -47.5t-164 -14q-162 0 -327.5 48t-292.5 132 l147 293q11 -13 55.5 -39t109 -56.5t151 -52.5t164.5 -22q178 0 178 108q0 18 -5 33.5t-17 28.5t-24 23.5t-35 21.5t-41 18.5t-50 17.5t-54 17t-62 18t-65 19q-104 32 -174.5 67t-120.5 82t-73 108.5t-23 143.5q0 112 43 203t116.5 149t170.5 89.5t207 31.5q254 0 524 -159z M551 -436l63 137h-98v203h275v-203l-97 -137h-143z" />
<glyph unicode="&#x219;" horiz-adv-x="1017" d="M524 -20q-141 0 -270.5 46t-218.5 132l112 207q199 -146 367 -146q133 0 133 84q0 42 -52 66q-26 12 -134 45q-59 20 -98.5 34t-82 33t-68.5 36t-51.5 40t-39 48.5t-21.5 58t-8 71.5q0 162 122 261.5t327 99.5q245 0 413 -152l-127 -205q-174 121 -303 121 q-58 0 -92.5 -21t-34.5 -65q0 -41 36 -63t132 -49q74 -23 122 -39.5t98 -38.5t79 -45t53.5 -53.5t35 -69t10.5 -86.5q0 -163 -118.5 -256.5t-320.5 -93.5zM420 -436l63 137h-98v203h274v-203l-96 -137h-143z" />
<glyph unicode="&#x21a;" horiz-adv-x="1271" d="M1247 1159h-442v-1159h-336v1159h-444v295h1222v-295zM528 -436l64 137h-98v203h274v-203l-96 -137h-144z" />
<glyph unicode="&#x21b;" horiz-adv-x="823" d="M809 57q-178 -77 -330 -77q-64 0 -116.5 15.5t-94 48.5t-65 89.5t-23.5 132.5v561h-137v248h137v342h328v-342h219v-248h-219v-448q0 -100 94 -100q61 0 143 38zM367 -436l63 137h-98v203h274v-203l-96 -137h-143z" />
<glyph unicode="&#x22a;" horiz-adv-x="1556" d="M473 2050v199h623v-199h-623zM432 1593v265h270v-265h-270zM862 1593v265h271v-265h-271zM55 729q0 192 93 359.5t261.5 270.5t372.5 103q126 0 240 -41t200 -113t149.5 -165.5t96.5 -201.5t33 -218q0 -191 -92 -359t-260 -272t-373 -104q-157 0 -294 63t-229.5 167 t-145 237.5t-52.5 273.5zM778 287q92 0 166.5 38t120.5 101.5t70 141.5t24 161q0 85 -25.5 162.5t-72.5 138.5t-120.5 97t-162.5 36q-92 0 -166 -37.5t-120 -100t-70.5 -139.5t-24.5 -161q0 -85 25 -163t72 -139.5t120.5 -98.5t163.5 -37z" />
<glyph unicode="&#x22b;" horiz-adv-x="1249" d="M315 1673v199h623v-199h-623zM274 1217v264h271v-264h-271zM705 1217v264h270v-264h-270zM49 537q0 112 39 212.5t110.5 178t182 123t244.5 45.5q133 0 243 -45.5t182 -123t111 -178t39 -212.5q0 -111 -39 -211.5t-110.5 -177.5t-181.5 -122.5t-244 -45.5t-244.5 45.5 t-182 122.5t-110.5 177.5t-39 211.5zM625 256q102 0 169.5 79t67.5 202q0 125 -67 202.5t-170 77.5t-171.5 -78.5t-68.5 -201.5q0 -125 68 -203t172 -78z" />
<glyph unicode="&#x22c;" horiz-adv-x="1556" d="M473 2068v199h623v-199h-623zM647 1675q-25 0 -44 -10t-28.5 -22.5t-15.5 -28.5t-7 -24.5t-1 -12.5h-176q0 21 8 54t28 75t48.5 77.5t74.5 60t101 24.5q43 0 83 -15.5t65.5 -34t58.5 -34t65 -15.5q26 0 47 10.5t31.5 24t17.5 29.5t9 25.5t2 13.5h176q0 -12 -6.5 -36.5 t-19 -58t-34.5 -67.5t-50.5 -63t-70 -47.5t-89.5 -18.5q-42 0 -82.5 14.5t-66.5 32.5t-60 32.5t-64 14.5zM55 729q0 192 93 359.5t261.5 270.5t372.5 103q126 0 240 -41t200 -113t149.5 -165.5t96.5 -201.5t33 -218q0 -191 -92 -359t-260 -272t-373 -104q-157 0 -294 63 t-229.5 167t-145 237.5t-52.5 273.5zM778 287q92 0 166.5 38t120.5 101.5t70 141.5t24 161q0 85 -25.5 162.5t-72.5 138.5t-120.5 97t-162.5 36q-92 0 -166 -37.5t-120 -100t-70.5 -139.5t-24.5 -161q0 -85 25 -163t72 -139.5t120.5 -98.5t163.5 -37z" />
<glyph unicode="&#x22d;" horiz-adv-x="1249" d="M315 1692v198h623v-198h-623zM489 1298q-25 0 -44 -10t-28.5 -22.5t-15.5 -28.5t-7 -24.5t-1 -12.5h-176q0 21 8 54t28 75t48.5 77.5t74.5 60t101 24.5q43 0 83.5 -15.5t65.5 -33.5t58.5 -33.5t65.5 -15.5q26 0 46.5 10t31.5 24t17.5 30t8.5 25t2 13h176 q0 -12 -6.5 -36.5t-19 -58t-34.5 -67.5t-50.5 -63t-70 -47.5t-89.5 -18.5q-42 0 -82.5 14.5t-66.5 32.5t-60 32.5t-64 14.5zM49 537q0 112 39 212.5t110.5 178t182 123t244.5 45.5q133 0 243 -45.5t182 -123t111 -178t39 -212.5q0 -111 -39 -211.5t-110.5 -177.5 t-181.5 -122.5t-244 -45.5t-244.5 45.5t-182 122.5t-110.5 177.5t-39 211.5zM625 256q102 0 169.5 79t67.5 202q0 125 -67 202.5t-170 77.5t-171.5 -78.5t-68.5 -201.5q0 -125 68 -203t172 -78z" />
<glyph unicode="&#x230;" horiz-adv-x="1556" d="M473 2068v199h623v-199h-623zM635 1591v281h295v-281h-295zM55 729q0 192 93 359.5t261.5 270.5t372.5 103q126 0 240 -41t200 -113t149.5 -165.5t96.5 -201.5t33 -218q0 -191 -92 -359t-260 -272t-373 -104q-157 0 -294 63t-229.5 167t-145 237.5t-52.5 273.5zM778 287 q92 0 166.5 38t120.5 101.5t70 141.5t24 161q0 85 -25.5 162.5t-72.5 138.5t-120.5 97t-162.5 36q-92 0 -166 -37.5t-120 -100t-70.5 -139.5t-24.5 -161q0 -85 25 -163t72 -139.5t120.5 -98.5t163.5 -37z" />
<glyph unicode="&#x231;" horiz-adv-x="1249" d="M315 1692v198h623v-198h-623zM477 1214v281h295v-281h-295zM49 537q0 112 39 212.5t110.5 178t182 123t244.5 45.5q133 0 243 -45.5t182 -123t111 -178t39 -212.5q0 -111 -39 -211.5t-110.5 -177.5t-181.5 -122.5t-244 -45.5t-244.5 45.5t-182 122.5t-110.5 177.5 t-39 211.5zM625 256q102 0 169.5 79t67.5 202q0 125 -67 202.5t-170 77.5t-171.5 -78.5t-68.5 -201.5q0 -125 68 -203t172 -78z" />
<glyph unicode="&#x232;" horiz-adv-x="1357" d="M369 1649v198h622v-198h-622zM365 1454l313 -643l317 643h367l-518 -958v-496h-334v500l-510 954h365z" />
<glyph unicode="&#x233;" horiz-adv-x="1130" d="M283 1272v198h622v-198h-622zM121 -162q77 -26 141 -26q59 0 92.5 41.5t59.5 146.5l-410 1075h338l250 -739l213 739h309l-409 -1249q-43 -134 -155.5 -216.5t-260.5 -82.5q-91 0 -168 31v280z" />
<glyph unicode="&#x237;" horiz-adv-x="552" d="M-244 -311l138 223q43 -43 110 -43q47 0 78 31.5t31 81.5v1093h327v-1069q0 -184 -112.5 -302t-282.5 -118q-168 0 -289 103z" />
<glyph unicode="&#x259;" horiz-adv-x="1236" d="M612 -20q-134 0 -244 45t-181.5 122t-110.5 177.5t-39 212.5q0 48 8 102h795q-7 103 -76.5 161t-163.5 58q-75 0 -139.5 -36t-87.5 -93l-279 80q65 129 200.5 208t315.5 79q132 0 242.5 -44.5t183 -120.5t112.5 -175.5t40 -210.5q0 -116 -39 -218t-111 -179.5 t-182 -122.5t-244 -45zM616 215q95 0 158 61t72 162h-463q9 -101 74 -162t159 -61z" />
<glyph unicode="&#x2b9;" horiz-adv-x="512" d="M117 1018v469h276l-76 -469h-200z" />
<glyph unicode="&#x2ba;" horiz-adv-x="1021" d="M117 1018v469h276l-76 -469h-200zM629 1018v469h276l-76 -469h-200z" />
<glyph unicode="&#x2bb;" horiz-adv-x="450" d="M289 1495l-64 -125h97v-184h-273v184l94 125h146z" />
<glyph unicode="&#x2bc;" horiz-adv-x="550" d="M303 1171l-209 58l107 266h297z" />
<glyph unicode="&#x2be;" horiz-adv-x="321" d="M47 1143v104q35 0 61.5 25t26.5 59q0 35 -25.5 58.5t-62.5 23.5v107q103 0 165 -52t62 -139q0 -86 -62 -136t-165 -50z" />
<glyph unicode="&#x2bf;" horiz-adv-x="321" d="M274 1143q-103 0 -165 50t-62 136q0 87 62 139t165 52v-107q-37 0 -61.5 -23.5t-24.5 -58.5q0 -34 25 -59t61 -25v-104z" />
<glyph unicode="&#x2c6;" horiz-adv-x="786" d="M51 1274l225 221h236l223 -221l-168 -74l-174 129l-174 -129z" />
<glyph unicode="&#x2c7;" horiz-adv-x="786" d="M219 1495l174 -129l174 129l168 -76l-223 -219h-236l-225 219z" />
<glyph unicode="&#x2c8;" horiz-adv-x="602" d="M440 1587v-799h-278v799h278z" />
<glyph unicode="&#x2c9;" horiz-adv-x="876" d="M127 1272v198h623v-198h-623z" />
<glyph unicode="&#x2ca;" horiz-adv-x="512" d="M117 1018v469h276l-76 -469h-200z" />
<glyph unicode="&#x2cb;" horiz-adv-x="512" d="M193 1018l-76 469h276v-469h-200z" />
<glyph unicode="&#x2cc;" horiz-adv-x="602" d="M440 532v-798h-278v798h278z" />
<glyph unicode="&#x2d8;" horiz-adv-x="710" d="M479 1495h170q0 -132 -82.5 -216.5t-212.5 -84.5q-129 0 -212 84.5t-83 216.5h174q0 -65 36 -111.5t85 -46.5q48 0 83.5 44.5t41.5 113.5z" />
<glyph unicode="&#x2d9;" horiz-adv-x="499" d="M102 1214v281h295v-281h-295z" />
<glyph unicode="&#x2da;" horiz-adv-x="548" d="M274 1520q102 0 164 -52t62 -139q0 -86 -62 -136t-164 -50q-103 0 -165 50t-62 136q0 87 62 139t165 52zM188 1331q0 -34 25 -59t61 -25q35 0 60.5 25t25.5 59q0 35 -24.5 58.5t-61.5 23.5t-61.5 -23.5t-24.5 -58.5z" />
<glyph unicode="&#x2db;" horiz-adv-x="632" d="M139 -229q0 74 55.5 145.5t163.5 130.5h107l31 -45q-152 -100 -152 -170q0 -75 148 -78l-62 -178q-148 16 -219.5 69.5t-71.5 125.5z" />
<glyph unicode="&#x2dc;" horiz-adv-x="921" d="M326 1298q-25 0 -44.5 -10t-29 -22.5t-15 -28.5t-7 -24.5t-1.5 -12.5h-176q0 21 8 54t28 75t48.5 77.5t74.5 60t101 24.5q43 0 83.5 -15.5t65.5 -33.5t58.5 -33.5t65.5 -15.5q26 0 46.5 10t31.5 24t17.5 30t8.5 25t2 13h176q0 -12 -6.5 -36.5t-19 -58t-34.5 -67.5 t-50.5 -63t-70 -47.5t-89.5 -18.5q-53 0 -101.5 23.5t-91 47t-79.5 23.5z" />
<glyph unicode="&#x2dd;" horiz-adv-x="780" d="M217 1171l-158 58l93 266h245zM575 1171l-157 58l90 266h246z" />
<glyph unicode="&#x300;" d="M-457 1495h297l107 -266l-207 -58z" />
<glyph unicode="&#x301;" d="M-248 1171l-209 58l107 266h297z" />
<glyph unicode="&#x302;" d="M-735 1274l225 221h236l223 -221l-168 -74l-174 129l-174 -129z" />
<glyph unicode="&#x303;" d="M-596 1298q-25 0 -44 -10t-28.5 -22.5t-15.5 -28.5t-7 -24.5t-1 -12.5h-176q0 21 8 54t28 75t48.5 77.5t74.5 60t101 24.5q43 0 83 -15.5t65.5 -33.5t58.5 -33.5t65 -15.5q26 0 47 10t31.5 24t17.5 30t9 25t2 13h176q0 -16 -8.5 -47t-29.5 -74t-50.5 -80.5t-77.5 -63.5 t-105 -26q-53 0 -101.5 23.5t-91 47t-79.5 23.5z" />
<glyph unicode="&#x304;" d="M-750 1272v198h623v-198h-623z" />
<glyph unicode="&#x306;" d="M-231 1495h170q0 -132 -82.5 -216.5t-212.5 -84.5q-129 0 -212 84.5t-83 216.5h174q0 -65 36 -111.5t85 -46.5q48 0 83.5 44.5t41.5 113.5z" />
<glyph unicode="&#x307;" d="M-397 1214v281h295v-281h-295z" />
<glyph unicode="&#x308;" d="M-870 1214v265h270v-265h-270zM-440 1214v265h270v-265h-270z" />
<glyph unicode="&#x309;" d="M-707 1397l-94 92q106 106 221 106q85 0 135 -44.5t50 -116.5q0 -67 -33 -117.5t-109 -112.5l-79 84q69 54 69 101q0 27 -16 43t-43 16q-26 0 -46.5 -11t-54.5 -40z" />
<glyph unicode="&#x30a;" d="M-274 1520q102 0 163.5 -52t61.5 -139q0 -86 -61.5 -136t-163.5 -50q-103 0 -165.5 50t-62.5 136q0 87 62.5 139t165.5 52zM-360 1331q0 -34 25 -59t61 -25q35 0 60.5 25t25.5 59q0 35 -24.5 58.5t-61.5 23.5t-61.5 -23.5t-24.5 -58.5z" />
<glyph unicode="&#x30b;" d="M-563 1171l-158 58l92 266h246zM-205 1171l-157 58l90 266h245z" />
<glyph unicode="&#x30c;" d="M-567 1495l174 -129l174 129l168 -76l-223 -219h-236l-225 219z" />
<glyph unicode="&#x30f;" d="M-754 1495h246l92 -266l-159 -58zM-397 1495h247l91 -266l-158 -58z" />
<glyph unicode="&#x311;" d="M-477 1194h-174q0 132 83 216.5t212 84.5q130 0 212.5 -84.5t82.5 -216.5h-170q-6 69 -41.5 113.5t-83.5 44.5q-49 0 -85 -46.5t-36 -111.5z" />
<glyph unicode="&#x312;" d="M-162 1495l-63 -125h96v-184h-272v184l94 125h145z" />
<glyph unicode="&#x31b;" d="M-563 977l4 223q76 0 120.5 10t69.5 37q9 9 15.5 20.5t9.5 19.5t5.5 24.5t3 22.5t1 27t0.5 25h232q-1 -47 -3.5 -78t-11.5 -74.5t-29.5 -80.5t-52.5 -68q-49 -49 -150.5 -78.5t-213.5 -29.5z" />
<glyph unicode="&#x323;" d="M-397 -422v281h295v-281h-295z" />
<glyph unicode="&#x324;" d="M-870 -422v264h270v-264h-270zM-440 -422v264h270v-264h-270z" />
<glyph unicode="&#x326;" d="M-289 -436l64 137h-99v203h275v-203l-96 -137h-144z" />
<glyph unicode="&#x327;" d="M-305 -430q-129 0 -250 65l78 170q56 -41 117 -41q45 0 71.5 22.5t26.5 63.5q0 76 -100 150l106 66q90 -64 139 -129t49 -150q0 -94 -61 -155.5t-176 -61.5z" />
<glyph unicode="&#x328;" d="M-494 -229q0 74 56 145.5t164 130.5h106l31 -45q-152 -100 -152 -170q0 -75 148 -78l-62 -178q-148 16 -219.5 69.5t-71.5 125.5z" />
<glyph unicode="&#x32e;" d="M-231 -106h170q0 -132 -82.5 -217t-212.5 -85q-129 0 -212 85t-83 217h174q0 -65 36 -111.5t85 -46.5q48 0 83.5 44.5t41.5 113.5z" />
<glyph unicode="&#x331;" d="M-750 -356v198h623v-198h-623z" />
<glyph unicode="&#x335;" d="M-748 492v192h646v-192h-646z" />
<glyph unicode="&#x3c0;" horiz-adv-x="1353" d="M528 791v-791h-325v791h-150v278h1192v-278h-180v-408q0 -123 104 -123q56 0 109 29l43 -246q-61 -28 -141.5 -44.5t-149.5 -16.5q-139 0 -216 74.5t-77 211.5v523h-209z" />
<glyph unicode="&#x400;" horiz-adv-x="1226" d="M379 1872h297l106 -266l-207 -58zM1161 295v-295h-1022v1454h1004v-295h-668v-282h574v-273h-574v-309h686z" />
<glyph unicode="&#x401;" horiz-adv-x="1226" d="M307 1593v265h271v-265h-271zM737 1593v265h271v-265h-271zM1161 295v-295h-1022v1454h1004v-295h-668v-282h574v-273h-574v-309h686z" />
<glyph unicode="&#x402;" horiz-adv-x="1587" d="M1006 -18q-133 0 -248 38l84 273q72 -33 133 -33q97 0 156 50t59 153q0 96 -63 151.5t-164 55.5q-177 0 -338 -127v-543h-328v1169h-272v285h1161v-285h-561v-335q168 114 383 114q232 0 371 -133t139 -352q0 -229 -135.5 -355t-376.5 -126z" />
<glyph unicode="&#x403;" horiz-adv-x="1114" d="M788 1550l-208 58l106 266h297zM145 0v1454h918v-295h-582v-1159h-336z" />
<glyph unicode="&#x404;" horiz-adv-x="1468" d="M776 -12q-128 0 -243 41.5t-201 113.5t-149.5 167t-95.5 205t-32 224q0 110 29.5 214.5t91 196.5t147 161.5t205.5 110t260 40.5q201 0 355 -86t229 -231l-258 -180q-31 73 -89 119t-117.5 62.5t-127.5 16.5q-144 0 -236.5 -78.5t-121.5 -207.5h479v-269h-487 q21 -138 124 -229.5t246 -91.5q103 0 196 49.5t136 150.5l275 -161q-42 -103 -143.5 -182t-224 -117.5t-247.5 -38.5z" />
<glyph unicode="&#x405;" horiz-adv-x="1259" d="M1012 1028q-23 29 -148.5 84t-238.5 55q-181 0 -181 -120q0 -34 15.5 -58t60.5 -45t82 -33t123 -36q17 -5 25 -7q91 -25 155 -49.5t123.5 -61t95.5 -80.5t57 -106.5t21 -142.5q0 -96 -30 -172.5t-81 -126.5t-122 -83.5t-148 -47.5t-164 -14q-162 0 -327.5 48t-292.5 132 l147 293q11 -13 55.5 -39t109 -56.5t151 -52.5t164.5 -22q178 0 178 108q0 18 -5 33.5t-17 28.5t-24 23.5t-35 21.5t-41 18.5t-50 17.5t-54 17t-62 18t-65 19q-104 32 -174.5 67t-120.5 82t-73 108.5t-23 143.5q0 112 43 203t116.5 149t170.5 89.5t207 31.5q254 0 524 -159z " />
<glyph unicode="&#x406;" horiz-adv-x="614" d="M139 0v1454h336v-1454h-336z" />
<glyph unicode="&#x407;" horiz-adv-x="614" d="M-43 1593v265h270v-265h-270zM387 1593v265h270v-265h-270zM139 0v1454h336v-1454h-336z" />
<glyph unicode="&#x408;" horiz-adv-x="1011" d="M82 342q29 -21 96.5 -43.5t147.5 -22.5q59 0 99 16t65.5 46t39 84t18.5 118.5t5 161.5v752h336v-739q0 -103 -5 -180t-19 -158t-39.5 -138t-67.5 -109.5t-101 -84t-142 -50t-189 -18.5q-185 0 -318 91z" />
<glyph unicode="&#x409;" horiz-adv-x="2131" d="M57 -12v291q77 8 124.5 38.5t85.5 112t57 229.5t26 385l15 410h978v-532h246q232 0 364 -124t132 -337q0 -210 -127 -335.5t-350 -125.5h-600v1159h-340l-4 -229q-5 -230 -31 -392t-71 -269.5t-119.5 -169t-165 -86t-220.5 -25.5zM1343 274h218q89 0 134.5 51t45.5 136 q0 78 -46 132t-136 54h-216v-373z" />
<glyph unicode="&#x40a;" horiz-adv-x="2142" d="M145 0v1454h336v-559h537v559h338v-543h243q232 0 364 -122t132 -332q0 -208 -127 -332.5t-350 -124.5h-600v602h-537v-602h-336zM1356 274h215q89 0 134.5 50t45.5 133q0 77 -45.5 128.5t-136.5 51.5h-213v-363z" />
<glyph unicode="&#x40b;" horiz-adv-x="1548" d="M297 0v1169h-272v285h1128v-285h-528v-292q157 63 333 63q240 0 369 -129.5t129 -394.5v-416h-330v379q0 125 -56 186.5t-181 61.5q-146 0 -264 -66v-561h-328z" />
<glyph unicode="&#x40c;" horiz-adv-x="1452" d="M821 1550l-209 58l107 266h297zM145 0v1454h334v-563h115l405 563h373l-520 -702l565 -752h-407l-426 586h-105v-586h-334z" />
<glyph unicode="&#x40d;" horiz-adv-x="1572" d="M508 1874h297l106 -266l-206 -58zM147 0v1454h336v-979l627 979h313v-1454h-336v956l-618 -956h-322z" />
<glyph unicode="&#x40e;" horiz-adv-x="1327" d="M684 1561q-153 0 -246.5 82.5t-93.5 211.5h172q0 -66 43 -108.5t125 -42.5q153 0 170 151h172q0 -129 -94 -211.5t-248 -82.5zM270 -12v276h129q52 0 80.5 21t46.5 69l19 49l-559 1051h370l338 -711l299 711h355l-568 -1257q-58 -117 -134.5 -163t-205.5 -46h-170z" />
<glyph unicode="&#x40f;" horiz-adv-x="1466" d="M594 -279v279h-455v1454h336v-1159h516v1159h336v-1454h-446v-279h-287z" />
<glyph unicode="&#x410;" horiz-adv-x="1372" d="M506 1454h362l500 -1454h-344l-113 326h-452l-111 -326h-344zM856 557l-170 559l-174 -559h344z" />
<glyph unicode="&#x411;" horiz-adv-x="1380" d="M145 0v1454h1078v-289h-742v-291h359q243 0 371 -114t128 -314q0 -207 -124 -326.5t-357 -119.5h-713zM481 289h330q93 0 137.5 48t44.5 120q0 157 -186 157h-326v-325z" />
<glyph unicode="&#x412;" horiz-adv-x="1400" d="M848 0h-709v1454h809q98 0 176 -55.5t117 -139.5t39 -178q0 -107 -55 -199.5t-154 -136.5q128 -38 199 -132.5t71 -239.5q0 -121 -68 -207t-177.5 -126t-247.5 -40zM475 1167v-301h330q59 0 100 39.5t41 112.5q0 70 -36.5 109.5t-92.5 39.5h-342zM862 602h-387v-317h373 q65 0 108 43.5t43 111.5t-39 115t-98 47z" />
<glyph unicode="&#x413;" horiz-adv-x="1114" d="M145 0v1454h918v-295h-582v-1159h-336z" />
<glyph unicode="&#x414;" horiz-adv-x="1650" d="M57 -279v574h82q107 0 162.5 175t67.5 564l12 420h1008v-1159h198v-574h-295v279h-942v-279h-293zM532 295h521v864h-365l-6 -172q-8 -295 -40.5 -456.5t-109.5 -235.5z" />
<glyph unicode="&#x415;" horiz-adv-x="1226" d="M1161 295v-295h-1022v1454h1004v-295h-668v-282h574v-273h-574v-309h686z" />
<glyph unicode="&#x416;" horiz-adv-x="2260" d="M35 0l559 754l-516 700h391l399 -563h95v563h335v-563h95l399 563h391l-516 -700l559 -754h-385l-444 586h-99v-586h-335v586h-99l-444 -586h-385z" />
<glyph unicode="&#x417;" horiz-adv-x="1288" d="M649 -14q-188 0 -338.5 75t-238.5 211l252 156q51 -77 132.5 -120.5t184.5 -43.5q116 0 173.5 47t57.5 127t-55.5 126t-169.5 46h-186v252h188q91 0 138 40.5t47 111.5q0 70 -50.5 110.5t-154.5 40.5q-113 0 -193 -41t-123 -112l-243 172q99 135 236 207.5t337 72.5 q244 0 380 -103t136 -296q0 -102 -48.5 -186t-149.5 -131q120 -35 185.5 -126t65.5 -216q0 -133 -73.5 -229t-199.5 -143.5t-290 -47.5z" />
<glyph unicode="&#x418;" horiz-adv-x="1572" d="M147 0v1454h336v-979l627 979h313v-1454h-336v956l-618 -956h-322z" />
<glyph unicode="&#x419;" horiz-adv-x="1572" d="M786 1561q-153 0 -246.5 82.5t-93.5 211.5h172q0 -66 43 -108.5t125 -42.5q153 0 170 151h172q0 -129 -94 -211.5t-248 -82.5zM147 0v1454h336v-979l627 979h313v-1454h-336v956l-618 -956h-322z" />
<glyph unicode="&#x41a;" horiz-adv-x="1452" d="M145 0v1454h334v-563h115l405 563h373l-520 -702l565 -752h-407l-426 586h-105v-586h-334z" />
<glyph unicode="&#x41b;" horiz-adv-x="1519" d="M1044 0v1159h-360l-8 -223q-7 -191 -26 -333t-53.5 -248.5t-81.5 -175.5t-116 -112t-150.5 -60.5t-191.5 -18.5v291q50 0 87 11.5t70.5 42.5t56 84.5t41 137.5t29.5 202t17 277l15 420h1007v-1454h-336z" />
<glyph unicode="&#x41c;" horiz-adv-x="1761" d="M1286 0v866l-313 -630h-185l-313 630v-866h-336v1454h365l377 -760l379 760h362v-1454h-336z" />
<glyph unicode="&#x41d;" horiz-adv-x="1529" d="M1391 1454v-1454h-336v596h-580v-596h-336v1454h336v-563h580v563h336z" />
<glyph unicode="&#x41e;" horiz-adv-x="1556" d="M55 729q0 192 93 359.5t261.5 270.5t372.5 103q126 0 240 -41t200 -113t149.5 -165.5t96.5 -201.5t33 -218q0 -191 -92 -359t-260 -272t-373 -104q-157 0 -294 63t-229.5 167t-145 237.5t-52.5 273.5zM778 287q92 0 166.5 38t120.5 101.5t70 141.5t24 161 q0 85 -25.5 162.5t-72.5 138.5t-120.5 97t-162.5 36q-92 0 -166 -37.5t-120 -100t-70.5 -139.5t-24.5 -161q0 -85 25 -163t72 -139.5t120.5 -98.5t163.5 -37z" />
<glyph unicode="&#x41f;" horiz-adv-x="1501" d="M145 0v1454h1211v-1454h-336v1159h-539v-1159h-336z" />
<glyph unicode="&#x420;" horiz-adv-x="1275" d="M139 0v1454h621q100 0 190 -43t151.5 -112t97.5 -157.5t36 -178.5q0 -128 -57 -240t-165 -183t-243 -71h-295v-469h-336zM475 762h275q62 0 103.5 53.5t41.5 147.5q0 95 -47 145.5t-111 50.5h-262v-397z" />
<glyph unicode="&#x421;" horiz-adv-x="1409" d="M784 1462q199 0 352 -86t228 -231l-258 -180q-24 55 -62 95.5t-83.5 62t-91 31t-93.5 9.5q-75 0 -138 -25t-107 -67.5t-74.5 -99t-45 -118t-14.5 -126.5q0 -116 46.5 -216t135 -162t201.5 -62q65 0 125.5 19t116.5 65.5t84 115.5l274 -161q-41 -103 -141 -182 t-221.5 -117.5t-245.5 -38.5q-153 0 -289 65t-228.5 170.5t-146 241t-53.5 274.5q0 106 31 210t94 196.5t149 163t203.5 112t251.5 41.5z" />
<glyph unicode="&#x422;" horiz-adv-x="1271" d="M1247 1159h-442v-1159h-336v1159h-444v295h1222v-295z" />
<glyph unicode="&#x423;" horiz-adv-x="1327" d="M270 -12v276h129q52 0 80.5 21t46.5 69l19 49l-559 1051h370l338 -711l299 711h355l-568 -1257q-58 -117 -134.5 -163t-205.5 -46h-170z" />
<glyph unicode="&#x424;" horiz-adv-x="1705" d="M694 0v131q-127 7 -243 56t-204 130t-140.5 199.5t-51.5 255.5q1 115 36 216t96 175.5t142 130t174 86t191 35.5v115h318v-115q124 -7 238 -54t203.5 -127.5t143 -200.5t54.5 -261q1 -110 -33.5 -209t-95 -174.5t-141.5 -132t-175 -88.5t-194 -37v-131h-318zM702 399v748 q-135 -13 -223 -111t-88 -264q0 -165 90.5 -262.5t220.5 -110.5zM1004 399q132 13 221.5 110.5t89.5 262.5q0 164 -89.5 263t-221.5 112v-748z" />
<glyph unicode="&#x425;" horiz-adv-x="1333" d="M352 1454l316 -502l315 502h365l-482 -737l465 -717h-364l-299 481l-299 -481h-367l465 717l-481 737h366z" />
<glyph unicode="&#x426;" horiz-adv-x="1570" d="M1212 -279v279h-1073v1454h336v-1159h498v1159h336v-1159h198v-574h-295z" />
<glyph unicode="&#x427;" horiz-adv-x="1417" d="M950 0v543q-143 -62 -305 -62q-266 0 -396 117.5t-130 368.5v487h327v-448q0 -117 62 -170.5t215 -53.5q117 0 227 47v625h328v-1454h-328z" />
<glyph unicode="&#x428;" horiz-adv-x="2066" d="M139 0v1454h336v-1159h391v1159h336v-1159h389v1159h336v-1454h-1788z" />
<glyph unicode="&#x429;" horiz-adv-x="2189" d="M1831 -279v279h-1692v1454h336v-1159h391v1159h336v-1159h389v1159h336v-1159h199v-574h-295z" />
<glyph unicode="&#x42a;" horiz-adv-x="1525" d="M362 0v1178h-321v276h657v-502h265q242 0 378 -126.5t136 -346.5q0 -219 -132 -349t-364 -130h-619zM698 274h236q99 0 150 56t51 149q0 85 -51.5 142t-151.5 57h-234v-404z" />
<glyph unicode="&#x42b;" horiz-adv-x="1937" d="M139 0v1454h336v-502h270q242 0 378.5 -127t136.5 -346t-132.5 -349t-363.5 -130h-625zM1462 0v1454h336v-1454h-336zM475 274h242q99 0 150 56t51 149q0 85 -51.5 142t-151.5 57h-240v-404z" />
<glyph unicode="&#x42c;" horiz-adv-x="1314" d="M145 0v1454h336v-502h271q242 0 378 -126.5t136 -346.5q0 -219 -132.5 -349t-363.5 -130h-625zM481 274h240q101 0 152 56t51 149q0 85 -51.5 142t-151.5 57h-240v-404z" />
<glyph unicode="&#x42d;" horiz-adv-x="1456" d="M670 -12q-403 0 -607 336l279 163q47 -94 132.5 -147t197.5 -53q151 0 248.5 89.5t123.5 231.5h-489v269h481q-31 128 -125 207t-239 79q-112 0 -196.5 -53.5t-131.5 -148.5l-264 186q99 150 242.5 232.5t353.5 82.5q134 0 251 -40t203 -109.5t147.5 -163t92.5 -202 t31 -224.5q0 -148 -52.5 -281.5t-146 -234t-232 -160t-300.5 -59.5z" />
<glyph unicode="&#x42e;" horiz-adv-x="2078" d="M1339 -12q-269 0 -448 161t-217 439h-199v-588h-336v1454h336v-573h201q41 272 223.5 426.5t446.5 154.5q306 0 491.5 -202.5t185.5 -536.5q0 -176 -51 -316.5t-142.5 -231.5t-216 -139t-274.5 -48zM1341 287q166 0 253 119.5t87 322.5q0 204 -89.5 319t-252.5 115 q-162 0 -248.5 -118t-86.5 -320q0 -204 87.5 -321t249.5 -117z" />
<glyph unicode="&#x42f;" horiz-adv-x="1413" d="M100 0l344 569q-128 50 -200 162t-72 262q0 201 136.5 331t350.5 130h615v-1454h-336v530h-102h-52l-305 -530h-379zM702 815h236v354h-231q-82 0 -137.5 -44t-55.5 -132t52 -133t136 -45z" />
<glyph unicode="&#x430;" horiz-adv-x="1200" d="M45 322q0 159 129 258.5t334 99.5q140 0 240 -43v47q0 182 -216 182q-87 0 -165.5 -28.5t-169.5 -89.5l-99 208q215 140 467 140q243 0 376.5 -116.5t133.5 -334.5v-280q0 -49 15.5 -69.5t54.5 -23.5v-272q-76 -16 -139 -16q-175 0 -201 137l-6 47q-71 -91 -170.5 -139.5 t-208.5 -48.5q-161 0 -268 98t-107 244zM696 281q52 42 52 84v96q-100 35 -185 35q-91 0 -150 -41t-59 -105q0 -56 44.5 -95.5t117.5 -39.5q49 0 97.5 18t82.5 48z" />
<glyph unicode="&#x431;" horiz-adv-x="1286" d="M664 -20q-282 0 -428 165.5t-146 491.5q0 191 33.5 326t107 224.5t174.5 141.5t250 84l463 105l4 -258l-465 -113q-308 -82 -333 -367q141 211 434 211q210 0 344.5 -134.5t134.5 -344.5q0 -238 -150.5 -385t-422.5 -147zM664 256q107 0 172 66t65 174q0 104 -65.5 169.5 t-171.5 65.5q-104 0 -171 -65t-67 -170q0 -109 65.5 -174.5t172.5 -65.5z" />
<glyph unicode="&#x432;" horiz-adv-x="1185" d="M115 0v1075h622q86 0 151.5 -21t103.5 -58t56.5 -82.5t18.5 -98.5q0 -187 -166 -262q100 -28 157.5 -92t57.5 -168q0 -154 -106.5 -223.5t-311.5 -69.5h-583zM426 643h229q47 0 76 31.5t29 79.5q0 44 -29 73t-74 29h-231v-213zM426 219h262q47 0 79 32t32 79q0 50 -31 81 t-78 31h-264v-223z" />
<glyph unicode="&#x433;" horiz-adv-x="882" d="M115 0v1075h739v-287h-412v-788h-327z" />
<glyph unicode="&#x434;" horiz-adv-x="1343" d="M43 -264v549h33q41 1 72 20t59.5 65.5t45.5 135t21 217.5l17 352h846v-790h153v-549h-286v264h-674v-264h-287zM473 285h336v518h-234l-6 -115q-9 -170 -32 -265t-64 -138z" />
<glyph unicode="&#x435;" horiz-adv-x="1236" d="M627 -20q-132 0 -242.5 44.5t-183 119.5t-112.5 174t-40 208q0 116 39.5 219.5t111.5 181.5t182.5 123.5t244.5 45.5t244 -45.5t181 -122.5t109.5 -176.5t38.5 -210.5q0 -51 -8 -105h-795q7 -103 76.5 -162t163.5 -59q74 0 139 36t88 93l279 -78q-65 -130 -200 -208 t-316 -78zM389 637h467q-10 101 -74.5 162t-158.5 61q-95 0 -159.5 -61t-74.5 -162z" />
<glyph unicode="&#x436;" horiz-adv-x="1812" d="M31 0l368 559l-348 516h365l256 -385h67v385h336v-385h74l252 385h362l-346 -516l371 -559h-371l-268 406h-74v-406h-336v406h-69l-271 -406h-368z" />
<glyph unicode="&#x437;" horiz-adv-x="1046" d="M526 -18q-350 0 -489 237l262 119q68 -96 209 -96q82 0 126 29.5t44 78.5q0 46 -38 73t-112 28h-112v198h114q52 0 80.5 25t28.5 67q0 93 -141 93q-119 0 -176 -91l-246 131q61 104 174.5 162t263.5 58q184 0 299 -80t115 -226q0 -74 -36.5 -137t-111.5 -90 q99 -29 150 -97.5t51 -164.5q0 -151 -126.5 -234t-328.5 -83z" />
<glyph unicode="&#x438;" horiz-adv-x="1269" d="M115 0v1075h327v-639l416 639h299v-1075h-328v621l-413 -621h-301z" />
<glyph unicode="&#x439;" horiz-adv-x="1269" d="M637 1182q-153 0 -246.5 83t-93.5 212h172q0 -66 43 -109t125 -43q79 0 120.5 41t49.5 111h172q0 -129 -94 -212t-248 -83zM115 0v1075h327v-639l416 639h299v-1075h-328v621l-413 -621h-301z" />
<glyph unicode="&#x43a;" horiz-adv-x="1226" d="M115 0v1075h325v-385h78l266 385h353l-369 -516l408 -559h-375l-289 406h-72v-406h-325z" />
<glyph unicode="&#x43b;" horiz-adv-x="1239" d="M43 -16v290q69 1 111.5 35.5t70.5 134.5t35 279l14 352h850v-1075h-327v788h-232l-4 -100q-10 -205 -44 -340.5t-99 -216t-154.5 -113.5t-220.5 -34z" />
<glyph unicode="&#x43c;" horiz-adv-x="1517" d="M115 0v1075h342l303 -575l303 575h340v-1075h-311v629l-232 -441h-203l-231 441v-629h-311z" />
<glyph unicode="&#x43d;" horiz-adv-x="1251" d="M115 0v1075h327v-389h367v389h328v-1075h-328v416h-367v-416h-327z" />
<glyph unicode="&#x43e;" horiz-adv-x="1249" d="M49 537q0 112 39 212.5t110.5 178t182 123t244.5 45.5q133 0 243 -45.5t182 -123t111 -178t39 -212.5q0 -111 -39 -211.5t-110.5 -177.5t-181.5 -122.5t-244 -45.5t-244.5 45.5t-182 122.5t-110.5 177.5t-39 211.5zM625 256q102 0 169.5 79t67.5 202q0 125 -67 202.5 t-170 77.5t-171.5 -78.5t-68.5 -201.5q0 -125 68 -203t172 -78z" />
<glyph unicode="&#x43f;" horiz-adv-x="1234" d="M115 0v1075h1005v-1075h-327v788h-351v-788h-327z" />
<glyph unicode="&#x440;" horiz-adv-x="1310" d="M440 174v-610h-327v1511h284v-174q126 195 361 195q142 0 256.5 -73.5t178.5 -200.5t64 -281q0 -241 -131.5 -401t-332.5 -160q-120 0 -211.5 51t-141.5 143zM924 543q0 119 -73 196.5t-185 77.5q-68 0 -131 -40t-95 -107v-221q33 -83 100.5 -138t141.5 -55 q104 0 173 84.5t69 202.5z" />
<glyph unicode="&#x441;" horiz-adv-x="1167" d="M627 -20q-132 0 -242.5 45.5t-183 122.5t-112.5 178t-40 213t39.5 212.5t112 177.5t183 122t243.5 45q179 0 308 -77t195 -208l-319 -96q-63 102 -186 102q-103 0 -171.5 -77t-68.5 -201q0 -125 69 -204t171 -79q61 0 112 29t76 77l320 -98q-62 -129 -194 -206.5 t-312 -77.5z" />
<glyph unicode="&#x442;" horiz-adv-x="1034" d="M354 0v788h-325v287h979v-287h-326v-788h-328z" />
<glyph unicode="&#x443;" horiz-adv-x="1130" d="M121 -162q77 -26 141 -26q59 0 92.5 41.5t59.5 146.5l-410 1075h338l250 -739l213 739h309l-409 -1249q-43 -134 -155.5 -216.5t-260.5 -82.5q-91 0 -168 31v280z" />
<glyph unicode="&#x444;" horiz-adv-x="1562" d="M616 -436v436h-26q-126 0 -230 43.5t-171 118t-103.5 171t-36.5 204.5t37 205t104 171.5t171 118t229 43.5h26v420h328v-420h29q125 0 228.5 -43.5t171 -118t104 -171.5t36.5 -205t-36.5 -204.5t-103.5 -171t-170.5 -118t-229.5 -43.5h-29v-436h-328zM590 260h45v553h-45 q-97 0 -159 -77t-62 -199q0 -124 62 -200.5t159 -76.5zM928 260h45q97 0 159 76.5t62 200.5q0 122 -62 199t-159 77h-45v-553z" />
<glyph unicode="&#x445;" horiz-adv-x="1110" d="M344 1075l191 -303l20 -39l20 39l191 303h338l-361 -534l369 -541h-338l-201 301l-18 39l-18 -39l-201 -301h-338l369 535l-361 540h338z" />
<glyph unicode="&#x446;" horiz-adv-x="1286" d="M946 -264v264h-831v1075h327v-790h310v790h327v-790h154v-549h-287z" />
<glyph unicode="&#x447;" horiz-adv-x="1150" d="M707 0v362q-106 -49 -258 -49q-169 0 -267 93t-98 264v405h328v-362q0 -152 143 -152q85 0 152 31v483h327v-1075h-327z" />
<glyph unicode="&#x448;" horiz-adv-x="1806" d="M115 0v1075h327v-790h297v790h328v-790h297v790h328v-1075h-1577z" />
<glyph unicode="&#x449;" horiz-adv-x="1898" d="M1559 -264v264h-1444v1075h327v-790h297v790h328v-790h297v790h328v-790h153v-549h-286z" />
<glyph unicode="&#x44a;" horiz-adv-x="1290" d="M295 0v813h-256v262h569v-321h234q192 0 298.5 -100t106.5 -267q0 -175 -101.5 -281t-283.5 -106h-567zM608 248h201q65 0 99 37.5t34 99.5t-33.5 98.5t-101.5 36.5h-199v-272z" />
<glyph unicode="&#x44b;" horiz-adv-x="1626" d="M115 0v1075h327v-321h174q192 0 299 -100t107 -267q0 -176 -100.5 -281.5t-284.5 -105.5h-522zM1184 0v1075h327v-1075h-327zM442 248h142q65 0 99 37.5t34 99.5t-33.5 98.5t-101.5 36.5h-140v-272z" />
<glyph unicode="&#x44c;" horiz-adv-x="1124" d="M115 0v1075h327v-321h232q192 0 298.5 -100t106.5 -267q0 -176 -100.5 -281.5t-284.5 -105.5h-579zM442 248h199q65 0 99 37.5t34 99.5t-33 98.5t-102 36.5h-197v-272z" />
<glyph unicode="&#x44d;" horiz-adv-x="1198" d="M573 -20q-169 0 -300 71.5t-201 198.5l260 121q78 -131 225 -131q93 0 161.5 54.5t92.5 141.5h-330v209h328q-26 85 -92 137t-160 52q-152 0 -225 -123l-246 131q69 119 195 186.5t292 67.5q136 0 247.5 -46t182 -123.5t108.5 -177.5t38 -210q0 -88 -24 -170 t-72.5 -152.5t-116 -123.5t-161.5 -83t-202 -30z" />
<glyph unicode="&#x44e;" horiz-adv-x="1730" d="M1124 -20q-213 0 -353 114.5t-181 298.5h-150v-393h-327v1075h327v-397h150q41 187 181.5 302.5t352.5 115.5q131 0 237.5 -45t175.5 -122t106.5 -177.5t37.5 -214.5q0 -113 -38 -214t-107.5 -177.5t-176 -121t-235.5 -44.5zM1124 256q97 0 158 77t61 204q0 128 -61 204 t-158 76q-96 0 -155.5 -76t-59.5 -204q0 -127 60 -204t155 -77z" />
<glyph unicode="&#x44f;" horiz-adv-x="1187" d="M70 0l254 412q-195 64 -195 307q0 164 109.5 262t283.5 98h551v-1079h-328v354h-108l-209 -354h-358zM567 586h178v245h-174q-60 0 -94.5 -32t-34.5 -88q0 -57 32.5 -91t92.5 -34z" />
<glyph unicode="&#x450;" horiz-adv-x="1236" d="M336 1497h297l106 -266l-207 -57zM627 -20q-132 0 -242.5 44.5t-183 119.5t-112.5 174t-40 208q0 116 39.5 219.5t111.5 181.5t182.5 123.5t244.5 45.5t244 -45.5t181 -122.5t109.5 -176.5t38.5 -210.5q0 -51 -8 -105h-795q7 -103 76.5 -162t163.5 -59q74 0 139 36t88 93 l279 -78q-65 -130 -200 -208t-316 -78zM389 637h467q-10 101 -74.5 162t-158.5 61q-95 0 -159.5 -61t-74.5 -162z" />
<glyph unicode="&#x451;" horiz-adv-x="1236" d="M274 1217v264h271v-264h-271zM705 1217v264h270v-264h-270zM627 -20q-132 0 -242.5 44.5t-183 119.5t-112.5 174t-40 208q0 116 39.5 219.5t111.5 181.5t182.5 123.5t244.5 45.5t244 -45.5t181 -122.5t109.5 -176.5t38.5 -210.5q0 -51 -8 -105h-795q7 -103 76.5 -162 t163.5 -59q74 0 139 36t88 93l279 -78q-65 -130 -200 -208t-316 -78zM389 637h467q-10 101 -74.5 162t-158.5 61q-95 0 -159.5 -61t-74.5 -162z" />
<glyph unicode="&#x452;" horiz-adv-x="1263" d="M705 -436q-32 0 -62.5 4t-55.5 10.5t-49.5 16t-43 19t-36.5 21t-30.5 21.5t-24.5 20.5t-18 17t-12 12.5l-6 7l221 164q1 -1 7.5 -7t14.5 -12t19 -13t26 -11t31 -4q46 0 77 18t57 65.5t38.5 138.5t13.5 229q0 158 -23.5 245t-70.5 120.5t-129 33.5q-69 0 -118 -42 t-74 -118v-520h-328v1108h-162v190h162v197h328v-197h432v-190h-432v-297q122 158 317 158q115 0 192.5 -33t131.5 -111.5t78 -209t24 -324.5q0 -136 -15 -244t-50.5 -200t-91.5 -153t-141 -95.5t-197 -34.5z" />
<glyph unicode="&#x453;" horiz-adv-x="882" d="M682 1171l-209 58l107 266h297zM115 0v1075h739v-287h-412v-788h-327z" />
<glyph unicode="&#x454;" horiz-adv-x="1198" d="M625 -20q-134 0 -245 46.5t-182 124.5t-110 178t-39 210t38.5 210t109.5 177.5t182.5 123.5t247.5 46q165 0 290.5 -67.5t194.5 -186.5l-246 -131q-70 123 -225 123q-94 0 -160 -52t-92 -137h330v-209h-332q23 -89 92.5 -142.5t163.5 -53.5q145 0 223 131l260 -121 q-70 -127 -201 -198.5t-300 -71.5z" />
<glyph unicode="&#x455;" horiz-adv-x="1017" d="M524 -20q-141 0 -270.5 46t-218.5 132l112 207q199 -146 367 -146q133 0 133 84q0 42 -52 66q-26 12 -134 45q-59 20 -98.5 34t-82 33t-68.5 36t-51.5 40t-39 48.5t-21.5 58t-8 71.5q0 162 122 261.5t327 99.5q245 0 413 -152l-127 -205q-174 121 -303 121 q-58 0 -92.5 -21t-34.5 -65q0 -41 36 -63t132 -49q74 -23 122 -39.5t98 -38.5t79 -45t53.5 -53.5t35 -69t10.5 -86.5q0 -163 -118.5 -256.5t-320.5 -93.5z" />
<glyph unicode="&#x456;" horiz-adv-x="552" d="M113 1198v297h327v-297h-327zM113 0v1075h327v-1075h-327z" />
<glyph unicode="&#x457;" horiz-adv-x="552" d="M-74 1217v264h271v-264h-271zM356 1217v264h271v-264h-271zM113 0v1075h327v-1075h-327z" />
<glyph unicode="&#x458;" horiz-adv-x="561" d="M123 1198v297h328v-297h-328zM-233 -311l137 223q43 -43 110 -43q47 0 78 31.5t31 81.5v1093h328v-1069q0 -184 -113 -302t-283 -118t-288 103z" />
<glyph unicode="&#x459;" horiz-adv-x="1748" d="M43 -16v290q69 1 111.5 35.5t70.5 134.5t35 279l14 352h836v-340h188q193 0 299.5 -96.5t106.5 -261.5q0 -171 -100.5 -274t-284.5 -103h-537v788h-217l-4 -100q-10 -205 -44 -340.5t-99 -216t-154.5 -113.5t-220.5 -34zM1110 248h156q65 0 99 35t34 94q0 57 -33 91 t-100 34h-156v-254z" />
<glyph unicode="&#x45a;" horiz-adv-x="1783" d="M115 0v1075h327v-385h379v385h320v-340h192q194 0 301 -96.5t107 -261.5q0 -171 -101.5 -274t-283.5 -103h-535v406h-379v-406h-327zM1141 248h159q67 0 100.5 35t33.5 94q0 57 -33 91t-101 34h-159v-254z" />
<glyph unicode="&#x45b;" horiz-adv-x="1286" d="M129 0v1108h-162v190h162v197h328v-197h432v-190h-432v-297q125 158 336 158q198 0 286 -99.5t88 -296.5v-573h-327v487q0 193 -170 193q-157 0 -213 -160v-520h-328z" />
<glyph unicode="&#x45c;" horiz-adv-x="1226" d="M709 1171l-209 58l106 266h297zM115 0v1075h325v-385h78l266 385h353l-369 -516l408 -559h-375l-289 406h-72v-406h-325z" />
<glyph unicode="&#x45d;" horiz-adv-x="1269" d="M358 1495h297l107 -266l-207 -58zM115 0v1075h327v-639l416 639h299v-1075h-328v621l-413 -621h-301z" />
<glyph unicode="&#x45e;" horiz-adv-x="1130" d="M565 1182q-153 0 -246.5 83t-93.5 212h172q0 -66 43 -109t125 -43q79 0 120.5 41t49.5 111h172q0 -129 -94 -212t-248 -83zM121 -162q77 -26 141 -26q59 0 92.5 41.5t59.5 146.5l-410 1075h338l250 -739l213 739h309l-409 -1249q-43 -134 -155.5 -216.5t-260.5 -82.5 q-91 0 -168 31v280z" />
<glyph unicode="&#x45f;" horiz-adv-x="1232" d="M477 -264v264h-362v1075h327v-790h349v790h327v-1075h-364v-264h-277z" />
<glyph unicode="&#x462;" horiz-adv-x="1370" d="M807 952q242 0 378 -126.5t136 -346.5q0 -219 -132.5 -349t-363.5 -130h-624v1135h-213v190h213v172h336v-172h323v-190h-323v-183h270zM776 274q101 0 152 56t51 149q0 85 -51.5 142t-151.5 57h-239v-404h239z" />
<glyph unicode="&#x463;" horiz-adv-x="1185" d="M176 0v1014h-223v198h223v283h328v-283h330v-198h-330v-260h233q192 0 299 -100t107 -267q0 -176 -100.5 -281.5t-284.5 -105.5h-582zM504 248h201q65 0 99 37.5t34 99.5q0 61 -34 98t-102 37h-198v-272z" />
<glyph unicode="&#x46a;" horiz-adv-x="2242" d="M35 0l559 737l-516 717h2085l-516 -717l559 -737h-375l-442 569h-101v-569h-336v569h-98l-444 -569h-375zM860 874h522l267 381h-1057z" />
<glyph unicode="&#x46b;" horiz-adv-x="1878" d="M31 0l418 559l-381 516h1744l-380 -516l419 -559h-393l-297 406h-53v-406h-334v406h-53l-295 -406h-395zM748 655h389l184 256h-760z" />
<glyph unicode="&#x472;" horiz-adv-x="1564" d="M782 1462q126 0 240 -41t200 -113t149.5 -165.5t96.5 -201.5t33 -218q0 -191 -92 -359t-260 -272t-373 -104q-157 0 -294 63t-229.5 167t-145 237.5t-52.5 273.5q0 192 93 359.5t261.5 270.5t372.5 103zM778 1163q-153 0 -249 -96.5t-123 -243.5h745q-26 148 -124 244 t-249 96zM778 287q83 0 152 31t114.5 84.5t73.5 120t37 141.5h-754q10 -102 55.5 -186t129.5 -137.5t192 -53.5z" />
<glyph unicode="&#x473;" horiz-adv-x="1247" d="M625 1096q133 0 243 -45.5t182 -123t111 -178t39 -212.5q0 -111 -39 -211.5t-110.5 -177.5t-181.5 -122.5t-244 -45.5t-244.5 45.5t-182 122.5t-110.5 177.5t-39 211.5q0 112 39 212.5t110.5 178t182 123t244.5 45.5zM625 817q-86 0 -150 -57t-84 -152h465 q-19 95 -82 152t-149 57zM625 256q88 0 152 60t81 159h-469q17 -99 82 -159t154 -60z" />
<glyph unicode="&#x474;" horiz-adv-x="1478" d="M551 0l-557 1454h356l342 -1016l256 740q47 146 129.5 211t237.5 65h139v-276h-90q-59 0 -91 -25t-56 -86l-410 -1067h-256z" />
<glyph unicode="&#x475;" horiz-adv-x="1214" d="M391 0l-381 1075h328l235 -796l166 542q37 134 114 194t220 60h131v-250h-80q-55 0 -84 -22.5t-49 -79.5l-272 -723h-328z" />
<glyph unicode="&#x490;" horiz-adv-x="1112" d="M143 0v1454h627v328h291v-623h-582v-1159h-336z" />
<glyph unicode="&#x491;" horiz-adv-x="882" d="M115 0v1075h450v264h289v-551h-412v-788h-327z" />
<glyph unicode="&#x492;" horiz-adv-x="1173" d="M1122 1159h-581v-391h333v-213h-333v-555h-336v555h-191v213h191v686h917v-295z" />
<glyph unicode="&#x493;" horiz-adv-x="962" d="M932 788h-412v-260h277v-198h-277v-330h-327v330h-168v198h168v547h739v-287z" />
<glyph unicode="&#x494;" horiz-adv-x="1458" d="M834 799q257 0 394.5 -145.5t137.5 -401.5q0 -258 -135.5 -400.5t-374.5 -142.5q-132 0 -250 39l86 272q69 -32 133 -32q93 0 153 65t60 199q0 268 -262 268q-84 0 -150.5 -24t-150.5 -80v-416h-336v1454h918v-295h-582v-452q159 92 359 92z" />
<glyph unicode="&#x495;" horiz-adv-x="1232" d="M788 643q87 0 158 -33t116 -90.5t69 -132.5t24 -160v-61q0 -270 -119.5 -434t-316.5 -164q-168 0 -283 100l137 221q39 -39 105 -39q73 0 110 74t39 209v41q0 109 -47.5 162t-130.5 53q-135 0 -207 -78v-311h-327v1075h739v-287h-412v-243q121 98 346 98z" />
<glyph unicode="&#x496;" horiz-adv-x="2279" d="M2007 295h238v-574h-287v279h-129v16l-432 570h-99v-586h-335v586h-99l-444 -586h-385l559 754l-516 700h391l399 -563h95v563h335v-563h95l399 563h391l-516 -700z" />
<glyph unicode="&#x497;" horiz-adv-x="1867" d="M1618 256h209v-520h-264v264h-146l-268 406h-74v-406h-336v406h-69l-271 -406h-368l368 559l-348 516h365l256 -385h67v385h336v-385h74l252 385h362l-346 -516z" />
<glyph unicode="&#x498;" horiz-adv-x="1288" d="M1212 406q0 -174 -120.5 -281t-323.5 -133q98 -91 98 -205q0 -94 -61 -155.5t-176 -61.5q-129 0 -250 65l78 170q56 -41 116 -41q45 0 72 22.5t27 63.5q0 69 -84 138q-169 12 -302.5 85.5t-213.5 198.5l252 156q51 -77 132.5 -120.5t184.5 -43.5q116 0 173.5 47t57.5 127 t-55.5 126t-169.5 46h-186v252h188q91 0 138 40.5t47 111.5q0 70 -50.5 110.5t-154.5 40.5q-113 0 -193 -41t-123 -112l-243 172q99 135 236 207.5t337 72.5q244 0 380 -103t136 -296q0 -102 -48.5 -186t-149.5 -131q120 -35 185.5 -126t65.5 -216z" />
<glyph unicode="&#x499;" horiz-adv-x="1046" d="M981 299q0 -130 -96 -211t-256 -100q92 -92 92 -201q0 -94 -61.5 -155.5t-176.5 -61.5q-129 0 -250 65l78 170q56 -41 117 -41q45 0 71.5 22.5t26.5 63.5q0 66 -82 136q-284 23 -407 233l262 119q68 -96 209 -96q82 0 126 29.5t44 78.5q0 46 -38 73t-112 28h-112v198h114 q52 0 80.5 25t28.5 67q0 93 -141 93q-119 0 -176 -91l-246 131q61 104 174.5 162t263.5 58q184 0 299 -80t115 -226q0 -74 -36.5 -137t-111.5 -90q99 -29 150 -97.5t51 -164.5z" />
<glyph unicode="&#x49a;" horiz-adv-x="1464" d="M1196 295h234v-574h-287v279h-133l-426 586h-105v-586h-334v1454h334v-563h115l405 563h373l-520 -702z" />
<glyph unicode="&#x49b;" horiz-adv-x="1247" d="M989 256h217v-520h-264v264h-141l-289 406h-72v-406h-325v1075h325v-385h78l266 385h353l-369 -516z" />
<glyph unicode="&#x49c;" horiz-adv-x="1447" d="M1063 752l414 -752h-367l-324 604h-36v-227h-138v227h-139v-604h-334v1454h334v-580h139v211h138v-211h32l305 580h347z" />
<glyph unicode="&#x49d;" horiz-adv-x="1351" d="M973 559l325 -559h-356l-240 410h-53v-170h-123v170h-88v-410h-325v1075h325v-391h88v166h123v-166h53l218 391h346z" />
<glyph unicode="&#x4a0;" horiz-adv-x="1564" d="M1030 752l565 -752h-407l-426 586h-105v-586h-333v1178h-308v276h641v-563h115l406 563h372z" />
<glyph unicode="&#x4a1;" horiz-adv-x="1316" d="M928 559l407 -559h-374l-289 406h-72v-406h-326v809h-258v266h584v-385h78l266 385h352z" />
<glyph unicode="&#x4a2;" horiz-adv-x="1654" d="M1391 295h198v-574h-286v279h-248v596h-580v-596h-336v1454h336v-563h580v563h336v-1159z" />
<glyph unicode="&#x4a3;" horiz-adv-x="1359" d="M1137 285h170v-549h-293v264h-205v416h-367v-416h-327v1075h327v-389h367v389h328v-790z" />
<glyph unicode="&#x4a4;" horiz-adv-x="2023" d="M1972 1454v-295h-581v-1159h-336v596h-580v-596h-336v1454h336v-563h580v563h917z" />
<glyph unicode="&#x4a5;" horiz-adv-x="1576" d="M1548 1075v-287h-411v-788h-328v416h-367v-416h-327v1075h327v-389h367v387l-2 2h741z" />
<glyph unicode="&#x4aa;" horiz-adv-x="1409" d="M1380 326q-50 -124 -177.5 -209.5t-284.5 -114.5v-283h-279v281q-170 34 -305 147.5t-207 269.5t-72 322q0 106 31 210t94 196.5t149 163t203.5 112t251.5 41.5q199 0 352 -86t228 -231l-258 -180q-24 55 -62 95.5t-83.5 62t-91 31t-93.5 9.5q-75 0 -138 -25t-107 -67.5 t-74.5 -99t-45 -118t-14.5 -126.5q0 -116 46.5 -216t135 -162t201.5 -62q65 0 125.5 19t116.5 65.5t84 115.5z" />
<glyph unicode="&#x4ab;" horiz-adv-x="1167" d="M1133 264q-51 -104 -148 -176t-229 -96v-256h-277v260q-199 43 -314.5 195t-115.5 348q0 112 39.5 212.5t112 177.5t183 122t243.5 45q179 0 308 -77t195 -208l-319 -96q-63 102 -186 102q-103 0 -171.5 -77t-68.5 -201q0 -125 69 -204t171 -79q61 0 112 29t76 77z" />
<glyph unicode="&#x4ae;" horiz-adv-x="1357" d="M365 1454l313 -643l317 643h367l-518 -958v-496h-334v500l-510 954h365z" />
<glyph unicode="&#x4af;" horiz-adv-x="1138" d="M406 -436v436l-396 1075h338l236 -813l237 813h307l-395 -1075v-436h-327z" />
<glyph unicode="&#x4b0;" horiz-adv-x="1323" d="M492 0v266h-334v211h334v23l-510 954h364l313 -668l318 668h366l-516 -958v-19h336v-211h-336v-266h-335z" />
<glyph unicode="&#x4b1;" horiz-adv-x="1112" d="M414 -436v295h-254v141h254l-396 1075h326l238 -844l241 844h312l-394 -1075h240v-141h-240v-295h-327z" />
<glyph unicode="&#x4b6;" horiz-adv-x="1513" d="M1278 295h170v-574h-287v279h-211v543q-143 -62 -305 -62q-266 0 -396 117.5t-130 368.5v487h327v-448q0 -117 62 -170.5t215 -53.5q117 0 227 47v625h328v-1159z" />
<glyph unicode="&#x4b7;" horiz-adv-x="1220" d="M1034 285h131v-549h-293v264h-204v285h39v77q-106 -49 -258 -49q-169 0 -267 93t-98 264v405h328v-362q0 -152 143 -152q85 0 152 31v483h327v-790z" />
<glyph unicode="&#x4b8;" horiz-adv-x="1417" d="M950 1454h328v-1454h-328v543q-68 -34 -170 -51v-187h-137v176q-264 0 -394 117.5t-130 368.5v487h327v-448q0 -101 45 -154t152 -66v228h137v-228q85 8 170 43v625z" />
<glyph unicode="&#x4b9;" horiz-adv-x="1208" d="M764 1075h330v-1075h-330v362q-56 -26 -105 -34v-170h-122v155h-31q-195 0 -308.5 93t-113.5 264v405h328v-362q0 -64 29 -100t96 -46v201h122v-205q54 6 105 29v483z" />
<glyph unicode="&#x4ba;" horiz-adv-x="1417" d="M467 1454v-543q143 62 305 62q266 0 396 -117.5t130 -368.5v-487h-327v449q0 117 -62 170t-215 53q-117 0 -227 -47v-625h-328v1454h328z" />
<glyph unicode="&#x4bb;" horiz-adv-x="1253" d="M1149 0h-328v604q0 102 -40 152.5t-113 50.5q-62 0 -131 -54.5t-97 -136.5v-616h-327v1495h327v-600q58 95 156 148t215 53q338 0 338 -408v-688z" />
<glyph unicode="&#x4c0;" horiz-adv-x="614" d="M139 0v1454h336v-1454h-336z" />
<glyph unicode="&#x4c1;" horiz-adv-x="2260" d="M1133 1561q-153 0 -246.5 82.5t-93.5 211.5h172q0 -66 43 -108.5t125 -42.5q153 0 170 151h172q0 -129 -94 -211.5t-248 -82.5zM35 0l559 754l-516 700h391l399 -563h95v563h335v-563h95l399 563h391l-516 -700l559 -754h-385l-444 586h-99v-586h-335v586h-99l-444 -586 h-385z" />
<glyph unicode="&#x4c2;" horiz-adv-x="1812" d="M907 1182q-153 0 -246.5 83t-93.5 212h172q0 -66 43 -109t125 -43q79 0 120.5 41t49.5 111h172q0 -129 -94 -212t-248 -83zM31 0l368 559l-348 516h365l256 -385h67v385h336v-385h74l252 385h362l-346 -516l371 -559h-371l-268 406h-74v-406h-336v406h-69l-271 -406h-368 z" />
<glyph unicode="&#x4cb;" horiz-adv-x="1417" d="M950 1454h328v-1454h-291v-279h-287v486h250v393q-140 -61 -319 -61q-258 0 -385 117t-127 368v430h327v-391q0 -114 62.5 -168.5t200.5 -54.5q123 0 241 47v567z" />
<glyph unicode="&#x4cc;" horiz-adv-x="1122" d="M526 -264v414h164v260q-118 -45 -223 -45q-171 0 -277 102.5t-106 269.5v338h311v-295q0 -86 37 -128t119 -42q75 0 139 37v428h318v-1075h-203v-264h-279z" />
<glyph unicode="&#x4cf;" horiz-adv-x="552" d="M113 0v1075h327v-1075h-327z" />
<glyph unicode="&#x4d0;" horiz-adv-x="1372" d="M686 1561q-153 0 -246.5 82.5t-93.5 211.5h172q0 -66 43 -108.5t125 -42.5q153 0 170 151h172q0 -129 -94 -211.5t-248 -82.5zM506 1454h362l500 -1454h-344l-113 326h-452l-111 -326h-344zM856 557l-170 559l-174 -559h344z" />
<glyph unicode="&#x4d1;" horiz-adv-x="1200" d="M600 1182q-153 0 -246.5 83t-93.5 212h172q0 -66 43 -109t125 -43q79 0 120.5 41t49.5 111h172q0 -129 -94 -212t-248 -83zM45 322q0 159 129 258.5t334 99.5q140 0 240 -43v47q0 182 -216 182q-87 0 -165.5 -28.5t-169.5 -89.5l-99 208q215 140 467 140 q243 0 376.5 -116.5t133.5 -334.5v-280q0 -49 15.5 -69.5t54.5 -23.5v-272q-76 -16 -139 -16q-175 0 -201 137l-6 47q-71 -91 -170.5 -139.5t-208.5 -48.5q-161 0 -268 98t-107 244zM696 281q52 42 52 84v96q-100 35 -185 35q-91 0 -150 -41t-59 -105q0 -56 44.5 -95.5 t117.5 -39.5q49 0 97.5 18t82.5 48z" />
<glyph unicode="&#x4d2;" horiz-adv-x="1372" d="M336 1595v265h270v-265h-270zM766 1595v265h270v-265h-270zM506 1454h362l500 -1454h-344l-113 326h-452l-111 -326h-344zM856 557l-170 559l-174 -559h344z" />
<glyph unicode="&#x4d3;" horiz-adv-x="1200" d="M250 1217v264h270v-264h-270zM680 1217v264h270v-264h-270zM45 322q0 159 129 258.5t334 99.5q140 0 240 -43v47q0 182 -216 182q-87 0 -165.5 -28.5t-169.5 -89.5l-99 208q215 140 467 140q243 0 376.5 -116.5t133.5 -334.5v-280q0 -49 15.5 -69.5t54.5 -23.5v-272 q-76 -16 -139 -16q-175 0 -201 137l-6 47q-71 -91 -170.5 -139.5t-208.5 -48.5q-161 0 -268 98t-107 244zM696 281q52 42 52 84v96q-100 35 -185 35q-91 0 -150 -41t-59 -105q0 -56 44.5 -95.5t117.5 -39.5q49 0 97.5 18t82.5 48z" />
<glyph unicode="&#x4d4;" horiz-adv-x="1982" d="M844 1454h1054v-295h-632v-272h522v-293h-522v-299h651v-295h-985v326h-440l-187 -326h-358zM905 621v458l-272 -458h272z" />
<glyph unicode="&#x4d5;" horiz-adv-x="1923" d="M45 322q0 158 129 258t332 100q131 0 231 -41q0 37 8 61q-6 86 -58 128t-155 42q-158 0 -335 -118l-97 204q215 140 465 140q244 0 375 -131q151 131 371 131q134 0 244 -45t182 -122.5t111 -178t40 -213.5q0 -56 -10 -101h-799q7 -103 77.5 -162t166.5 -59 q75 0 139.5 36t87.5 93l279 -78q-63 -130 -199 -208t-317 -78q-152 0 -272.5 57.5t-194.5 157.5q-72 -107 -191 -161t-239 -54q-158 0 -264.5 98t-106.5 244zM1542 635q-11 102 -75 163.5t-160 61.5q-97 0 -161 -62t-73 -163h469zM700 283q48 38 48 75q-11 57 -11 109 q-91 31 -176 31q-89 0 -148 -42t-59 -106q0 -58 45 -96.5t113 -38.5q113 0 188 68z" />
<glyph unicode="&#x4d6;" horiz-adv-x="1226" d="M657 1559q-153 0 -246.5 82.5t-93.5 211.5h172q0 -66 43 -108.5t125 -42.5q153 0 170 151h172q0 -129 -94 -211.5t-248 -82.5zM1161 295v-295h-1022v1454h1004v-295h-668v-282h574v-273h-574v-309h686z" />
<glyph unicode="&#x4d7;" horiz-adv-x="1236" d="M625 1182q-153 0 -246.5 83t-93.5 212h172q0 -66 43 -109t125 -43q79 0 120.5 41t49.5 111h172q0 -129 -94 -212t-248 -83zM627 -20q-132 0 -242.5 44.5t-183 119.5t-112.5 174t-40 208q0 116 39.5 219.5t111.5 181.5t182.5 123.5t244.5 45.5t244 -45.5t181 -122.5 t109.5 -176.5t38.5 -210.5q0 -51 -8 -105h-795q7 -103 76.5 -162t163.5 -59q74 0 139 36t88 93l279 -78q-65 -130 -200 -208t-316 -78zM389 637h467q-10 101 -74.5 162t-158.5 61q-95 0 -159.5 -61t-74.5 -162z" />
<glyph unicode="&#x4d8;" horiz-adv-x="1540" d="M33 698q0 65 12 131h1071q-17 158 -117 247t-237 89q-106 0 -193.5 -53.5t-113.5 -140.5l-346 106q85 177 257 281t398 104q129 0 244.5 -41.5t201 -112.5t148 -163t94 -195.5t31.5 -208.5q0 -143 -50 -277.5t-140 -240t-228.5 -169.5t-302.5 -64q-132 0 -250 41.5 t-204 112t-149 161.5t-94.5 192t-31.5 201zM1110 578h-707q17 -132 117.5 -212.5t245.5 -80.5q138 0 232.5 80t111.5 213z" />
<glyph unicode="&#x4d9;" horiz-adv-x="1236" d="M612 -20q-134 0 -244 45t-181.5 122t-110.5 177.5t-39 212.5q0 48 8 102h795q-7 103 -76.5 161t-163.5 58q-75 0 -139.5 -36t-87.5 -93l-279 80q65 129 200.5 208t315.5 79q132 0 242.5 -44.5t183 -120.5t112.5 -175.5t40 -210.5q0 -116 -39 -218t-111 -179.5 t-182 -122.5t-244 -45zM616 215q95 0 158 61t72 162h-463q9 -101 74 -162t159 -61z" />
<glyph unicode="&#x4dc;" horiz-adv-x="2260" d="M782 1595v265h271v-265h-271zM1212 1595v265h271v-265h-271zM35 0l559 754l-516 700h391l399 -563h95v563h335v-563h95l399 563h391l-516 -700l559 -754h-385l-444 586h-99v-586h-335v586h-99l-444 -586h-385z" />
<glyph unicode="&#x4dd;" horiz-adv-x="1812" d="M557 1217v264h270v-264h-270zM987 1217v264h270v-264h-270zM31 0l368 559l-348 516h365l256 -385h67v385h336v-385h74l252 385h362l-346 -516l371 -559h-371l-268 406h-74v-406h-336v406h-69l-271 -406h-368z" />
<glyph unicode="&#x4de;" horiz-adv-x="1288" d="M299 1595v265h270v-265h-270zM729 1595v265h270v-265h-270zM649 -14q-188 0 -338.5 75t-238.5 211l252 156q51 -77 132.5 -120.5t184.5 -43.5q116 0 173.5 47t57.5 127t-55.5 126t-169.5 46h-186v252h188q91 0 138 40.5t47 111.5q0 70 -50.5 110.5t-154.5 40.5 q-113 0 -193 -41t-123 -112l-243 172q99 135 236 207.5t337 72.5q244 0 380 -103t136 -296q0 -102 -48.5 -186t-149.5 -131q120 -35 185.5 -126t65.5 -216q0 -133 -73.5 -229t-199.5 -143.5t-290 -47.5z" />
<glyph unicode="&#x4df;" horiz-adv-x="1046" d="M162 1217v264h270v-264h-270zM592 1217v264h270v-264h-270zM526 -18q-350 0 -489 237l262 119q68 -96 209 -96q82 0 126 29.5t44 78.5q0 46 -38 73t-112 28h-112v198h114q52 0 80.5 25t28.5 67q0 93 -141 93q-119 0 -176 -91l-246 131q61 104 174.5 162t263.5 58 q184 0 299 -80t115 -226q0 -74 -36.5 -137t-111.5 -90q99 -29 150 -97.5t51 -164.5q0 -151 -126.5 -234t-328.5 -83z" />
<glyph unicode="&#x4e2;" horiz-adv-x="1572" d="M477 1651v198h623v-198h-623zM147 0v1454h336v-979l627 979h313v-1454h-336v956l-618 -956h-322z" />
<glyph unicode="&#x4e3;" horiz-adv-x="1269" d="M328 1272v198h622v-198h-622zM115 0v1075h327v-639l416 639h299v-1075h-328v621l-413 -621h-301z" />
<glyph unicode="&#x4e4;" horiz-adv-x="1572" d="M436 1595v265h271v-265h-271zM866 1595v265h271v-265h-271zM147 0v1454h336v-979l627 979h313v-1454h-336v956l-618 -956h-322z" />
<glyph unicode="&#x4e5;" horiz-adv-x="1269" d="M287 1217v264h270v-264h-270zM717 1217v264h270v-264h-270zM115 0v1075h327v-639l416 639h299v-1075h-328v621l-413 -621h-301z" />
<glyph unicode="&#x4e6;" horiz-adv-x="1556" d="M432 1593v265h270v-265h-270zM862 1593v265h271v-265h-271zM55 729q0 192 93 359.5t261.5 270.5t372.5 103q126 0 240 -41t200 -113t149.5 -165.5t96.5 -201.5t33 -218q0 -191 -92 -359t-260 -272t-373 -104q-157 0 -294 63t-229.5 167t-145 237.5t-52.5 273.5zM778 287 q92 0 166.5 38t120.5 101.5t70 141.5t24 161q0 85 -25.5 162.5t-72.5 138.5t-120.5 97t-162.5 36q-92 0 -166 -37.5t-120 -100t-70.5 -139.5t-24.5 -161q0 -85 25 -163t72 -139.5t120.5 -98.5t163.5 -37z" />
<glyph unicode="&#x4e7;" horiz-adv-x="1249" d="M274 1217v264h271v-264h-271zM705 1217v264h270v-264h-270zM49 537q0 112 39 212.5t110.5 178t182 123t244.5 45.5q133 0 243 -45.5t182 -123t111 -178t39 -212.5q0 -111 -39 -211.5t-110.5 -177.5t-181.5 -122.5t-244 -45.5t-244.5 45.5t-182 122.5t-110.5 177.5 t-39 211.5zM625 256q102 0 169.5 79t67.5 202q0 125 -67 202.5t-170 77.5t-171.5 -78.5t-68.5 -201.5q0 -125 68 -203t172 -78z" />
<glyph unicode="&#x4e8;" horiz-adv-x="1564" d="M782 1462q126 0 240 -41t200 -113t149.5 -165.5t96.5 -201.5t33 -218q0 -191 -92 -359t-260 -272t-373 -104q-157 0 -294 63t-229.5 167t-145 237.5t-52.5 273.5q0 192 93 359.5t261.5 270.5t372.5 103zM778 1163q-153 0 -249 -96.5t-123 -243.5h745q-26 148 -124 244 t-249 96zM778 287q83 0 152 31t114.5 84.5t73.5 120t37 141.5h-754q10 -102 55.5 -186t129.5 -137.5t192 -53.5z" />
<glyph unicode="&#x4e9;" horiz-adv-x="1247" d="M625 1096q133 0 243 -45.5t182 -123t111 -178t39 -212.5q0 -111 -39 -211.5t-110.5 -177.5t-181.5 -122.5t-244 -45.5t-244.5 45.5t-182 122.5t-110.5 177.5t-39 211.5q0 112 39 212.5t110.5 178t182 123t244.5 45.5zM625 817q-86 0 -150 -57t-84 -152h465 q-19 95 -82 152t-149 57zM625 256q88 0 152 60t81 159h-469q17 -99 82 -159t154 -60z" />
<glyph unicode="&#x4ee;" horiz-adv-x="1327" d="M375 1651v198h622v-198h-622zM270 -12v276h129q52 0 80.5 21t46.5 69l19 49l-559 1051h370l338 -711l299 711h355l-568 -1257q-58 -117 -134.5 -163t-205.5 -46h-170z" />
<glyph unicode="&#x4ef;" horiz-adv-x="1130" d="M256 1272v198h623v-198h-623zM121 -162q77 -26 141 -26q59 0 92.5 41.5t59.5 146.5l-410 1075h338l250 -739l213 739h309l-409 -1249q-43 -134 -155.5 -216.5t-260.5 -82.5q-91 0 -168 31v280z" />
<glyph unicode="&#x4f0;" horiz-adv-x="1327" d="M334 1595v265h270v-265h-270zM764 1595v265h270v-265h-270zM270 -12v276h129q52 0 80.5 21t46.5 69l19 49l-559 1051h370l338 -711l299 711h355l-568 -1257q-58 -117 -134.5 -163t-205.5 -46h-170z" />
<glyph unicode="&#x4f1;" horiz-adv-x="1130" d="M215 1217v264h270v-264h-270zM645 1217v264h270v-264h-270zM121 -162q77 -26 141 -26q59 0 92.5 41.5t59.5 146.5l-410 1075h338l250 -739l213 739h309l-409 -1249q-43 -134 -155.5 -216.5t-260.5 -82.5q-91 0 -168 31v280z" />
<glyph unicode="&#x4f2;" horiz-adv-x="1327" d="M555 1552l-158 58l92 266h246zM913 1552l-157 58l90 266h246zM270 -12v276h129q52 0 80.5 21t46.5 69l19 49l-559 1051h370l338 -711l299 711h355l-568 -1257q-58 -117 -134.5 -163t-205.5 -46h-170z" />
<glyph unicode="&#x4f3;" horiz-adv-x="1130" d="M436 1174l-157 57l92 266h245zM795 1174l-158 57l90 266h246zM121 -162q77 -26 141 -26q59 0 92.5 41.5t59.5 146.5l-410 1075h338l250 -739l213 739h309l-409 -1249q-43 -134 -155.5 -216.5t-260.5 -82.5q-91 0 -168 31v280z" />
<glyph unicode="&#x4f4;" horiz-adv-x="1417" d="M375 1595v265h270v-265h-270zM805 1595v265h270v-265h-270zM950 0v543q-143 -62 -305 -62q-266 0 -396 117.5t-130 368.5v487h327v-448q0 -117 62 -170.5t215 -53.5q117 0 227 47v625h328v-1454h-328z" />
<glyph unicode="&#x4f5;" horiz-adv-x="1150" d="M215 1217v264h270v-264h-270zM645 1217v264h270v-264h-270zM707 0v362q-106 -49 -258 -49q-169 0 -267 93t-98 264v405h328v-362q0 -152 143 -152q85 0 152 31v483h327v-1075h-327z" />
<glyph unicode="&#x4f6;" horiz-adv-x="1114" d="M1063 1159h-582v-864h181v-574h-287v279h-230v1454h918v-295z" />
<glyph unicode="&#x4f7;" horiz-adv-x="882" d="M854 788h-412v-503h176v-549h-292v264h-211v1075h739v-287z" />
<glyph unicode="&#x4f8;" horiz-adv-x="1937" d="M621 1595v265h270v-265h-270zM1051 1595v265h270v-265h-270zM139 0v1454h336v-502h270q242 0 378.5 -127t136.5 -346t-132.5 -349t-363.5 -130h-625zM1462 0v1454h336v-1454h-336zM475 274h242q99 0 150 56t51 149q0 85 -51.5 142t-151.5 57h-240v-404z" />
<glyph unicode="&#x4f9;" horiz-adv-x="1626" d="M465 1217v264h270v-264h-270zM895 1217v264h270v-264h-270zM115 0v1075h327v-321h174q192 0 299 -100t107 -267q0 -176 -100.5 -281.5t-284.5 -105.5h-522zM1184 0v1075h327v-1075h-327zM442 248h142q65 0 99 37.5t34 99.5t-33.5 98.5t-101.5 36.5h-140v-272z" />
<glyph unicode="&#x51a;" horiz-adv-x="1554" d="M1522 0h-316l-76 82q-165 -92 -354 -92q-157 0 -294 63t-229.5 166t-145 236.5t-52.5 273.5q0 192 93 360t261.5 271.5t372.5 103.5q157 0 294 -64t228.5 -168.5t144 -237.5t52.5 -271q0 -136 -49 -264t-139 -228zM778 289q74 0 144 26l-234 258h316l90 -100 q65 110 65 256q0 85 -25.5 163t-72.5 139t-120.5 97.5t-162.5 36.5q-92 0 -166 -37.5t-120 -100.5t-70.5 -140.5t-24.5 -161.5q0 -85 25 -162.5t72 -139t120.5 -98t163.5 -36.5z" />
<glyph unicode="&#x51b;" horiz-adv-x="1310" d="M53 541q0 155 64.5 282t179.5 200t256 73q231 0 360 -197v176h285v-1513h-328v612q-110 -194 -352 -194q-133 0 -239.5 74.5t-166 202.5t-59.5 284zM870 401v228q-25 79 -94 133.5t-143 54.5q-104 0 -175 -84.5t-71 -200.5q0 -121 71.5 -198.5t184.5 -77.5q136 0 227 145 z" />
<glyph unicode="&#x51c;" horiz-adv-x="2160" d="M618 1452h310l151 -465l152 465h311l-248 -676l148 -387l364 1065h367l-567 -1454h-291l-236 569l-233 -569h-293l-565 1454h364l367 -1065l143 387z" />
<glyph unicode="&#x51d;" horiz-adv-x="1740" d="M1438 1075h311l-444 -1075h-271l-164 438l-163 -438h-271l-444 1075h309l289 -766l102 299l-192 467h268l102 -323l103 323h266l-190 -467l102 -299z" />
<glyph unicode="&#x524;" horiz-adv-x="1603" d="M1356 295h182v-574h-287v279h-231v1159h-539v-1159h-336v1454h1211v-1159z" />
<glyph unicode="&#x525;" horiz-adv-x="1343" d="M1120 285h170v-549h-293v264h-204v788h-351v-788h-327v1075h1005v-790z" />
<glyph unicode="&#x1e08;" horiz-adv-x="1409" d="M1083 1872l-194 -324l-209 58l106 266h297zM1380 326q-53 -132 -192 -218.5t-307 -111.5q100 -97 100 -209q0 -94 -61.5 -155.5t-176.5 -61.5q-128 0 -249 65l77 170q56 -41 117 -41q45 0 71.5 22.5t26.5 63.5q0 70 -90 142q-139 15 -260.5 85t-203.5 173t-129.5 230.5 t-47.5 258.5q0 106 31 210t94 196.5t149 163t203.5 112t251.5 41.5q199 0 352 -86t228 -231l-258 -180q-24 55 -62 95.5t-83.5 62t-91 31t-93.5 9.5q-75 0 -138 -25t-107 -67.5t-74.5 -99t-45 -118t-14.5 -126.5q0 -116 46.5 -216t135 -162t201.5 -62q65 0 125.5 19 t116.5 65.5t84 115.5z" />
<glyph unicode="&#x1e09;" horiz-adv-x="1167" d="M928 1495l-195 -324l-209 58l107 266h297zM1133 264q-52 -107 -153 -180t-239 -96q95 -92 95 -201q0 -94 -61.5 -155.5t-176.5 -61.5q-129 0 -250 65l78 170q56 -41 117 -41q45 0 71.5 22.5t26.5 63.5q0 66 -78 132q-157 14 -275.5 94.5t-178.5 201t-60 261.5 q0 112 39.5 212.5t112 177.5t183 122t243.5 45q179 0 308 -77t195 -208l-319 -96q-63 102 -186 102q-103 0 -171.5 -77t-68.5 -201q0 -125 69 -204t171 -79q61 0 112 29t76 77z" />
<glyph unicode="&#x1e0c;" horiz-adv-x="1466" d="M139 0v1454h543q175 0 314.5 -56.5t228.5 -156t135.5 -230t46.5 -282.5q0 -330 -198.5 -529.5t-526.5 -199.5h-543zM682 1159h-207v-864h207q180 0 281.5 120.5t101.5 313.5q0 195 -102 312.5t-281 117.5zM586 -422v281h295v-281h-295z" />
<glyph unicode="&#x1e0d;" horiz-adv-x="1339" d="M51 539q0 155 60 282t169 201t246 74q111 0 202.5 -53t141.5 -144v596h328v-1130q0 -49 15.5 -69.5t54.5 -23.5v-272q-79 -16 -140 -16q-85 0 -137 36.5t-63 102.5l-6 55q-55 -97 -152.5 -147.5t-210.5 -50.5q-146 0 -262.5 73t-181 200.5t-64.5 285.5zM872 406v225 q-31 81 -99 133.5t-142 52.5q-104 0 -173 -84.5t-69 -200.5q0 -120 73 -198t185 -78q68 0 130.5 41t94.5 109zM524 -422v281h295v-281h-295z" />
<glyph unicode="&#x1e0e;" horiz-adv-x="1466" d="M139 0v1454h543q175 0 314.5 -56.5t228.5 -156t135.5 -230t46.5 -282.5q0 -330 -198.5 -529.5t-526.5 -199.5h-543zM682 1159h-207v-864h207q180 0 281.5 120.5t101.5 313.5q0 195 -102 312.5t-281 117.5zM422 -356v198h622v-198h-622z" />
<glyph unicode="&#x1e0f;" horiz-adv-x="1339" d="M51 539q0 155 60 282t169 201t246 74q111 0 202.5 -53t141.5 -144v596h328v-1130q0 -49 15.5 -69.5t54.5 -23.5v-272q-79 -16 -140 -16q-85 0 -137 36.5t-63 102.5l-6 55q-55 -97 -152.5 -147.5t-210.5 -50.5q-146 0 -262.5 73t-181 200.5t-64.5 285.5zM872 406v225 q-31 81 -99 133.5t-142 52.5q-104 0 -173 -84.5t-69 -200.5q0 -120 73 -198t185 -78q68 0 130.5 41t94.5 109zM360 -356v198h623v-198h-623z" />
<glyph unicode="&#x1e14;" horiz-adv-x="1226" d="M381 2267h297l106 -266l-206 -57zM348 1649v198h623v-198h-623zM1161 295v-295h-1022v1454h1004v-295h-668v-282h574v-273h-574v-309h686z" />
<glyph unicode="&#x1e15;" horiz-adv-x="1236" d="M348 1890h297l107 -266l-207 -57zM315 1272v198h623v-198h-623zM627 -20q-132 0 -242.5 44.5t-183 119.5t-112.5 174t-40 208q0 116 39.5 219.5t111.5 181.5t182.5 123.5t244.5 45.5t244 -45.5t181 -122.5t109.5 -176.5t38.5 -210.5q0 -51 -8 -105h-795q7 -103 76.5 -162 t163.5 -59q74 0 139 36t88 93l279 -78q-65 -130 -200 -208t-316 -78zM389 637h467q-10 101 -74.5 162t-158.5 61q-95 0 -159.5 -61t-74.5 -162z" />
<glyph unicode="&#x1e16;" horiz-adv-x="1226" d="M766 1944l-209 57l107 266h297zM348 1649v198h623v-198h-623zM1161 295v-295h-1022v1454h1004v-295h-668v-282h574v-273h-574v-309h686z" />
<glyph unicode="&#x1e17;" horiz-adv-x="1236" d="M733 1567l-209 57l107 266h297zM315 1272v198h623v-198h-623zM627 -20q-132 0 -242.5 44.5t-183 119.5t-112.5 174t-40 208q0 116 39.5 219.5t111.5 181.5t182.5 123.5t244.5 45.5t244 -45.5t181 -122.5t109.5 -176.5t38.5 -210.5q0 -51 -8 -105h-795q7 -103 76.5 -162 t163.5 -59q74 0 139 36t88 93l279 -78q-65 -130 -200 -208t-316 -78zM389 637h467q-10 101 -74.5 162t-158.5 61q-95 0 -159.5 -61t-74.5 -162z" />
<glyph unicode="&#x1e1c;" horiz-adv-x="1226" d="M657 1571q-129 0 -212 84.5t-83 216.5h175q0 -65 35.5 -111.5t84.5 -46.5q48 0 83.5 44.5t41.5 113.5h170q0 -132 -82.5 -216.5t-212.5 -84.5zM1161 295v-295h-401q106 -96 106 -213q0 -94 -61 -155.5t-176 -61.5q-129 0 -250 65l78 170q56 -41 116 -41q45 0 72 22.5 t27 63.5q0 75 -101 150h-432v1454h1004v-295h-668v-282h574v-273h-574v-309h686z" />
<glyph unicode="&#x1e1d;" horiz-adv-x="1236" d="M625 1194q-129 0 -212 84.5t-83 216.5h174q0 -65 36 -111.5t85 -46.5q48 0 83.5 44.5t41.5 113.5h170q0 -132 -82.5 -216.5t-212.5 -84.5zM1200 541q0 -51 -8 -105h-795q7 -103 76.5 -162t163.5 -59q74 0 139 36t88 93l279 -78q-53 -108 -158.5 -181.5t-245.5 -96.5 q95 -92 95 -201q0 -94 -61.5 -155.5t-176.5 -61.5q-129 0 -250 65l78 170q56 -41 117 -41q45 0 71.5 22.5t26.5 63.5q0 66 -78 132q-157 15 -275 94t-177.5 196t-59.5 254q0 116 39.5 219.5t111.5 181.5t182.5 123.5t244.5 45.5t244 -45.5t181 -122.5t109.5 -176.5 t38.5 -210.5zM389 637h467q-10 101 -74.5 162t-158.5 61q-95 0 -159.5 -61t-74.5 -162z" />
<glyph unicode="&#x1e20;" horiz-adv-x="1499" d="M1096 1847v-198h-623v198h623zM856 760h561v-760h-278v143q-166 -153 -383 -153q-142 0 -270 55t-222.5 151.5t-150.5 237t-56 303.5q0 148 56 282.5t151.5 232t230.5 155t287 57.5q199 0 352.5 -84.5t229.5 -232.5l-250 -189q-49 96 -142.5 151.5t-201.5 55.5 q-164 0 -268.5 -126.5t-104.5 -313.5q0 -190 108.5 -313t278.5 -123q199 0 355 182v45h-283v244z" />
<glyph unicode="&#x1e21;" horiz-adv-x="1310" d="M344 1272v198h623v-198h-623zM53 539q0 156 63 283t177.5 200.5t259.5 73.5q119 0 211 -51.5t149 -145.5v176h285v-1001q0 -243 -172.5 -387t-450.5 -144q-319 0 -512 215l177 179q59 -68 148 -108t187 -40q61 0 113 16.5t93.5 49.5t65 89t23.5 130v104 q-48 -87 -139.5 -134.5t-200.5 -47.5q-139 0 -249 73.5t-169 197t-59 272.5zM870 406v225q-32 84 -99.5 135t-143.5 51q-103 0 -171.5 -85.5t-68.5 -201.5q0 -118 73.5 -196t182.5 -78q73 0 133.5 41t93.5 109z" />
<glyph unicode="&#x1e24;" horiz-adv-x="1529" d="M1391 1454v-1454h-336v596h-580v-596h-336v1454h336v-563h580v563h336zM618 -422v281h295v-281h-295z" />
<glyph unicode="&#x1e25;" horiz-adv-x="1253" d="M1149 0h-328v604q0 102 -40 152.5t-113 50.5q-62 0 -131 -54.5t-97 -136.5v-616h-327v1495h327v-600q58 95 156 148t215 53q338 0 338 -408v-688zM479 -422v281h295v-281h-295z" />
<glyph unicode="&#x1e2a;" horiz-adv-x="1529" d="M1391 1454v-1454h-336v596h-580v-596h-336v1454h336v-563h580v563h336zM891 -106h170q0 -132 -82.5 -217t-212.5 -85q-129 0 -212 85t-83 217h174q0 -65 36 -111.5t85 -46.5q48 0 83.5 44.5t41.5 113.5z" />
<glyph unicode="&#x1e2b;" horiz-adv-x="1253" d="M1149 0h-328v604q0 102 -40 152.5t-113 50.5q-62 0 -131 -54.5t-97 -136.5v-616h-327v1495h327v-600q58 95 156 148t215 53q338 0 338 -408v-688zM752 -106h170q0 -132 -82.5 -217t-212.5 -85q-129 0 -212 85t-83 217h174q0 -65 36 -111.5t85 -46.5q48 0 83.5 44.5 t41.5 113.5z" />
<glyph unicode="&#x1e2e;" horiz-adv-x="614" d="M414 1950l-209 57l106 266h297zM-43 1593v265h270v-265h-270zM387 1593v265h270v-265h-270zM139 0v1454h336v-1454h-336z" />
<glyph unicode="&#x1e2f;" horiz-adv-x="552" d="M383 1573l-209 57l107 266h297zM-74 1217v264h271v-264h-271zM356 1217v264h271v-264h-271zM113 0v1075h327v-1075h-327z" />
<glyph unicode="&#x1e36;" horiz-adv-x="1198" d="M139 0v1454h336v-1159h705v-295h-1041zM541 -422v281h295v-281h-295z" />
<glyph unicode="&#x1e37;" horiz-adv-x="686" d="M109 1495h327v-1112q0 -125 94 -125q55 0 119 31l43 -246q-61 -28 -141.5 -44.5t-149.5 -16.5q-140 0 -216 74t-76 212v1227zM252 -422v281h295v-281h-295z" />
<glyph unicode="&#x1e3a;" horiz-adv-x="1198" d="M139 0v1454h336v-1159h705v-295h-1041zM377 -356v198h622v-198h-622z" />
<glyph unicode="&#x1e3b;" horiz-adv-x="686" d="M109 1495h327v-1112q0 -125 94 -125q55 0 119 31l43 -246q-61 -28 -141.5 -44.5t-149.5 -16.5q-140 0 -216 74t-76 212v1227zM88 -356v198h623v-198h-623z" />
<glyph unicode="&#x1e42;" horiz-adv-x="1761" d="M1286 0v866l-313 -630h-185l-313 630v-866h-336v1454h365l377 -760l379 760h362v-1454h-336zM733 -422v281h295v-281h-295z" />
<glyph unicode="&#x1e43;" horiz-adv-x="1914" d="M1812 0h-327v604q0 102 -37.5 152.5t-101.5 50.5q-67 0 -129.5 -54t-90.5 -137v-616h-327v604q0 102 -38 152.5t-102 50.5q-66 0 -129 -54t-90 -137v-616h-327v1075h295v-180q59 97 161.5 149t235.5 52q126 0 199.5 -58t97.5 -151q62 100 163 154.5t228 54.5 q319 0 319 -408v-688zM811 -422v281h295v-281h-295z" />
<glyph unicode="&#x1e44;" horiz-adv-x="1554" d="M627 1591v281h295v-281h-295zM475 831v-831h-336v1454h267l673 -856v856h336v-1454h-274z" />
<glyph unicode="&#x1e45;" horiz-adv-x="1253" d="M516 1214v281h295v-281h-295zM1149 0h-328v604q0 102 -39 152.5t-106 50.5q-69 0 -138 -54.5t-98 -136.5v-616h-327v1075h295v-180q59 96 167.5 148.5t249.5 52.5q324 0 324 -408v-688z" />
<glyph unicode="&#x1e46;" horiz-adv-x="1554" d="M475 831v-831h-336v1454h267l673 -856v856h336v-1454h-274zM627 -422v281h295v-281h-295z" />
<glyph unicode="&#x1e47;" horiz-adv-x="1253" d="M1149 0h-328v604q0 102 -39 152.5t-106 50.5q-69 0 -138 -54.5t-98 -136.5v-616h-327v1075h295v-180q59 96 167.5 148.5t249.5 52.5q324 0 324 -408v-688zM479 -422v281h295v-281h-295z" />
<glyph unicode="&#x1e48;" horiz-adv-x="1554" d="M475 831v-831h-336v1454h267l673 -856v856h336v-1454h-274zM463 -356v198h622v-198h-622z" />
<glyph unicode="&#x1e49;" horiz-adv-x="1253" d="M1149 0h-328v604q0 102 -39 152.5t-106 50.5q-69 0 -138 -54.5t-98 -136.5v-616h-327v1075h295v-180q59 96 167.5 148.5t249.5 52.5q324 0 324 -408v-688zM315 -356v198h623v-198h-623z" />
<glyph unicode="&#x1e4c;" horiz-adv-x="1556" d="M889 1968l-209 57l106 267h297zM647 1675q-25 0 -44 -10t-28.5 -22.5t-15.5 -28.5t-7 -24.5t-1 -12.5h-176q0 21 8 54t28 75t48.5 77.5t74.5 60t101 24.5q43 0 83 -15.5t65.5 -34t58.5 -34t65 -15.5q26 0 47 10.5t31.5 24t17.5 29.5t9 25.5t2 13.5h176q0 -12 -6.5 -36.5 t-19 -58t-34.5 -67.5t-50.5 -63t-70 -47.5t-89.5 -18.5q-42 0 -82.5 14.5t-66.5 32.5t-60 32.5t-64 14.5zM55 729q0 192 93 359.5t261.5 270.5t372.5 103q126 0 240 -41t200 -113t149.5 -165.5t96.5 -201.5t33 -218q0 -191 -92 -359t-260 -272t-373 -104q-157 0 -294 63 t-229.5 167t-145 237.5t-52.5 273.5zM778 287q92 0 166.5 38t120.5 101.5t70 141.5t24 161q0 85 -25.5 162.5t-72.5 138.5t-120.5 97t-162.5 36q-92 0 -166 -37.5t-120 -100t-70.5 -139.5t-24.5 -161q0 -85 25 -163t72 -139.5t120.5 -98.5t163.5 -37z" />
<glyph unicode="&#x1e4d;" horiz-adv-x="1249" d="M731 1591l-209 58l107 266h297zM489 1298q-25 0 -44 -10t-28.5 -22.5t-15.5 -28.5t-7 -24.5t-1 -12.5h-176q0 21 8 54t28 75t48.5 77.5t74.5 60t101 24.5q43 0 83.5 -15.5t65.5 -33.5t58.5 -33.5t65.5 -15.5q26 0 46.5 10t31.5 24t17.5 30t8.5 25t2 13h176 q0 -12 -6.5 -36.5t-19 -58t-34.5 -67.5t-50.5 -63t-70 -47.5t-89.5 -18.5q-42 0 -82.5 14.5t-66.5 32.5t-60 32.5t-64 14.5zM49 537q0 112 39 212.5t110.5 178t182 123t244.5 45.5q133 0 243 -45.5t182 -123t111 -178t39 -212.5q0 -111 -39 -211.5t-110.5 -177.5 t-181.5 -122.5t-244 -45.5t-244.5 45.5t-182 122.5t-110.5 177.5t-39 211.5zM625 256q102 0 169.5 79t67.5 202q0 125 -67 202.5t-170 77.5t-171.5 -78.5t-68.5 -201.5q0 -125 68 -203t172 -78z" />
<glyph unicode="&#x1e4e;" horiz-adv-x="1556" d="M432 2013v264h270v-264h-270zM862 2013v264h271v-264h-271zM647 1675q-25 0 -44 -10t-28.5 -22.5t-15.5 -28.5t-7 -24.5t-1 -12.5h-176q0 21 8 54t28 75t48.5 77.5t74.5 60t101 24.5q43 0 83 -15.5t65.5 -34t58.5 -34t65 -15.5q26 0 47 10.5t31.5 24t17.5 29.5t9 25.5 t2 13.5h176q0 -12 -6.5 -36.5t-19 -58t-34.5 -67.5t-50.5 -63t-70 -47.5t-89.5 -18.5q-42 0 -82.5 14.5t-66.5 32.5t-60 32.5t-64 14.5zM55 729q0 192 93 359.5t261.5 270.5t372.5 103q126 0 240 -41t200 -113t149.5 -165.5t96.5 -201.5t33 -218q0 -191 -92 -359t-260 -272 t-373 -104q-157 0 -294 63t-229.5 167t-145 237.5t-52.5 273.5zM778 287q92 0 166.5 38t120.5 101.5t70 141.5t24 161q0 85 -25.5 162.5t-72.5 138.5t-120.5 97t-162.5 36q-92 0 -166 -37.5t-120 -100t-70.5 -139.5t-24.5 -161q0 -85 25 -163t72 -139.5t120.5 -98.5 t163.5 -37z" />
<glyph unicode="&#x1e4f;" horiz-adv-x="1249" d="M274 1636v265h271v-265h-271zM705 1636v265h270v-265h-270zM489 1298q-25 0 -44 -10t-28.5 -22.5t-15.5 -28.5t-7 -24.5t-1 -12.5h-176q0 21 8 54t28 75t48.5 77.5t74.5 60t101 24.5q43 0 83.5 -15.5t65.5 -33.5t58.5 -33.5t65.5 -15.5q26 0 46.5 10t31.5 24t17.5 30 t8.5 25t2 13h176q0 -12 -6.5 -36.5t-19 -58t-34.5 -67.5t-50.5 -63t-70 -47.5t-89.5 -18.5q-42 0 -82.5 14.5t-66.5 32.5t-60 32.5t-64 14.5zM49 537q0 112 39 212.5t110.5 178t182 123t244.5 45.5q133 0 243 -45.5t182 -123t111 -178t39 -212.5q0 -111 -39 -211.5 t-110.5 -177.5t-181.5 -122.5t-244 -45.5t-244.5 45.5t-182 122.5t-110.5 177.5t-39 211.5zM625 256q102 0 169.5 79t67.5 202q0 125 -67 202.5t-170 77.5t-171.5 -78.5t-68.5 -201.5q0 -125 68 -203t172 -78z" />
<glyph unicode="&#x1e50;" horiz-adv-x="1556" d="M506 2267h297l106 -266l-207 -57zM473 1649v198h623v-198h-623zM55 729q0 192 93 359.5t261.5 270.5t372.5 103q126 0 240 -41t200 -113t149.5 -165.5t96.5 -201.5t33 -218q0 -191 -92 -359t-260 -272t-373 -104q-157 0 -294 63t-229.5 167t-145 237.5t-52.5 273.5z M778 287q92 0 166.5 38t120.5 101.5t70 141.5t24 161q0 85 -25.5 162.5t-72.5 138.5t-120.5 97t-162.5 36q-92 0 -166 -37.5t-120 -100t-70.5 -139.5t-24.5 -161q0 -85 25 -163t72 -139.5t120.5 -98.5t163.5 -37z" />
<glyph unicode="&#x1e51;" horiz-adv-x="1249" d="M348 1890h297l107 -266l-207 -57zM315 1272v198h623v-198h-623zM49 537q0 112 39 212.5t110.5 178t182 123t244.5 45.5q133 0 243 -45.5t182 -123t111 -178t39 -212.5q0 -111 -39 -211.5t-110.5 -177.5t-181.5 -122.5t-244 -45.5t-244.5 45.5t-182 122.5t-110.5 177.5 t-39 211.5zM625 256q102 0 169.5 79t67.5 202q0 125 -67 202.5t-170 77.5t-171.5 -78.5t-68.5 -201.5q0 -125 68 -203t172 -78z" />
<glyph unicode="&#x1e52;" horiz-adv-x="1556" d="M891 1944l-209 57l106 266h297zM473 1649v198h623v-198h-623zM55 729q0 192 93 359.5t261.5 270.5t372.5 103q126 0 240 -41t200 -113t149.5 -165.5t96.5 -201.5t33 -218q0 -191 -92 -359t-260 -272t-373 -104q-157 0 -294 63t-229.5 167t-145 237.5t-52.5 273.5z M778 287q92 0 166.5 38t120.5 101.5t70 141.5t24 161q0 85 -25.5 162.5t-72.5 138.5t-120.5 97t-162.5 36q-92 0 -166 -37.5t-120 -100t-70.5 -139.5t-24.5 -161q0 -85 25 -163t72 -139.5t120.5 -98.5t163.5 -37z" />
<glyph unicode="&#x1e53;" horiz-adv-x="1249" d="M733 1567l-209 57l107 266h297zM315 1272v198h623v-198h-623zM49 537q0 112 39 212.5t110.5 178t182 123t244.5 45.5q133 0 243 -45.5t182 -123t111 -178t39 -212.5q0 -111 -39 -211.5t-110.5 -177.5t-181.5 -122.5t-244 -45.5t-244.5 45.5t-182 122.5t-110.5 177.5 t-39 211.5zM625 256q102 0 169.5 79t67.5 202q0 125 -67 202.5t-170 77.5t-171.5 -78.5t-68.5 -201.5q0 -125 68 -203t172 -78z" />
<glyph unicode="&#x1e5a;" horiz-adv-x="1372" d="M139 0v1454h656q132 0 243 -72.5t171.5 -185t60.5 -233.5q0 -133 -64.5 -247.5t-173.5 -174.5l320 -541h-371l-279 469h-227v-469h-336zM475 762h307q61 0 103.5 57t42.5 144q0 85 -48 140.5t-108 55.5h-297v-397zM565 -422v281h295v-281h-295z" />
<glyph unicode="&#x1e5b;" horiz-adv-x="819" d="M795 795q-123 -2 -218 -40.5t-137 -109.5v-645h-327v1075h301v-217q56 107 143 170t184 64q42 0 54 -2v-295zM117 -422v281h295v-281h-295z" />
<glyph unicode="&#x1e5e;" horiz-adv-x="1372" d="M139 0v1454h656q132 0 243 -72.5t171.5 -185t60.5 -233.5q0 -133 -64.5 -247.5t-173.5 -174.5l320 -541h-371l-279 469h-227v-469h-336zM475 762h307q61 0 103.5 57t42.5 144q0 85 -48 140.5t-108 55.5h-297v-397zM401 -356v198h623v-198h-623z" />
<glyph unicode="&#x1e5f;" horiz-adv-x="819" d="M795 795q-123 -2 -218 -40.5t-137 -109.5v-645h-327v1075h301v-217q56 107 143 170t184 64q42 0 54 -2v-295zM-47 -356v198h622v-198h-622z" />
<glyph unicode="&#x1e60;" horiz-adv-x="1259" d="M496 1599v281h295v-281h-295zM1012 1028q-23 29 -148.5 84t-238.5 55q-181 0 -181 -120q0 -34 15.5 -58t60.5 -45t82 -33t123 -36q17 -5 25 -7q91 -25 155 -49.5t123.5 -61t95.5 -80.5t57 -106.5t21 -142.5q0 -96 -30 -172.5t-81 -126.5t-122 -83.5t-148 -47.5t-164 -14 q-162 0 -327.5 48t-292.5 132l147 293q11 -13 55.5 -39t109 -56.5t151 -52.5t164.5 -22q178 0 178 108q0 18 -5 33.5t-17 28.5t-24 23.5t-35 21.5t-41 18.5t-50 17.5t-54 17t-62 18t-65 19q-104 32 -174.5 67t-120.5 82t-73 108.5t-23 143.5q0 112 43 203t116.5 149 t170.5 89.5t207 31.5q254 0 524 -159z" />
<glyph unicode="&#x1e61;" horiz-adv-x="1017" d="M379 1214v281h295v-281h-295zM524 -20q-141 0 -270.5 46t-218.5 132l112 207q199 -146 367 -146q133 0 133 84q0 42 -52 66q-26 12 -134 45q-59 20 -98.5 34t-82 33t-68.5 36t-51.5 40t-39 48.5t-21.5 58t-8 71.5q0 162 122 261.5t327 99.5q245 0 413 -152l-127 -205 q-174 121 -303 121q-58 0 -92.5 -21t-34.5 -65q0 -41 36 -63t132 -49q74 -23 122 -39.5t98 -38.5t79 -45t53.5 -53.5t35 -69t10.5 -86.5q0 -163 -118.5 -256.5t-320.5 -93.5z" />
<glyph unicode="&#x1e62;" horiz-adv-x="1259" d="M1012 1028q-23 29 -148.5 84t-238.5 55q-181 0 -181 -120q0 -34 15.5 -58t60.5 -45t82 -33t123 -36q17 -5 25 -7q91 -25 155 -49.5t123.5 -61t95.5 -80.5t57 -106.5t21 -142.5q0 -96 -30 -172.5t-81 -126.5t-122 -83.5t-148 -47.5t-164 -14q-162 0 -327.5 48t-292.5 132 l147 293q11 -13 55.5 -39t109 -56.5t151 -52.5t164.5 -22q178 0 178 108q0 18 -5 33.5t-17 28.5t-24 23.5t-35 21.5t-41 18.5t-50 17.5t-54 17t-62 18t-65 19q-104 32 -174.5 67t-120.5 82t-73 108.5t-23 143.5q0 112 43 203t116.5 149t170.5 89.5t207 31.5q254 0 524 -159z M512 -422v281h295v-281h-295z" />
<glyph unicode="&#x1e63;" horiz-adv-x="1017" d="M524 -20q-141 0 -270.5 46t-218.5 132l112 207q199 -146 367 -146q133 0 133 84q0 42 -52 66q-26 12 -134 45q-59 20 -98.5 34t-82 33t-68.5 36t-51.5 40t-39 48.5t-21.5 58t-8 71.5q0 162 122 261.5t327 99.5q245 0 413 -152l-127 -205q-174 121 -303 121 q-58 0 -92.5 -21t-34.5 -65q0 -41 36 -63t132 -49q74 -23 122 -39.5t98 -38.5t79 -45t53.5 -53.5t35 -69t10.5 -86.5q0 -163 -118.5 -256.5t-320.5 -93.5zM381 -422v281h295v-281h-295z" />
<glyph unicode="&#x1e64;" horiz-adv-x="1259" d="M596 2019v281h295v-281h-295zM750 1556l-209 58l106 266h297zM1012 1028q-23 29 -148.5 84t-238.5 55q-181 0 -181 -120q0 -34 15.5 -58t60.5 -45t82 -33t123 -36q17 -5 25 -7q91 -25 155 -49.5t123.5 -61t95.5 -80.5t57 -106.5t21 -142.5q0 -96 -30 -172.5t-81 -126.5 t-122 -83.5t-148 -47.5t-164 -14q-162 0 -327.5 48t-292.5 132l147 293q11 -13 55.5 -39t109 -56.5t151 -52.5t164.5 -22q178 0 178 108q0 18 -5 33.5t-17 28.5t-24 23.5t-35 21.5t-41 18.5t-50 17.5t-54 17t-62 18t-65 19q-104 32 -174.5 67t-120.5 82t-73 108.5t-23 143.5 q0 112 43 203t116.5 149t170.5 89.5t207 31.5q254 0 524 -159z" />
<glyph unicode="&#x1e65;" horiz-adv-x="1017" d="M479 1634v281h295v-281h-295zM633 1171l-209 58l106 266h297zM524 -20q-141 0 -270.5 46t-218.5 132l112 207q199 -146 367 -146q133 0 133 84q0 42 -52 66q-26 12 -134 45q-59 20 -98.5 34t-82 33t-68.5 36t-51.5 40t-39 48.5t-21.5 58t-8 71.5q0 162 122 261.5 t327 99.5q245 0 413 -152l-127 -205q-174 121 -303 121q-58 0 -92.5 -21t-34.5 -65q0 -41 36 -63t132 -49q74 -23 122 -39.5t98 -38.5t79 -45t53.5 -53.5t35 -69t10.5 -86.5q0 -163 -118.5 -256.5t-320.5 -93.5z" />
<glyph unicode="&#x1e66;" horiz-adv-x="1259" d="M496 2019v281h295v-281h-295zM469 1880l174 -129l174 129l168 -76l-223 -219h-236l-225 219zM1012 1028q-23 29 -148.5 84t-238.5 55q-181 0 -181 -120q0 -34 15.5 -58t60.5 -45t82 -33t123 -36q17 -5 25 -7q91 -25 155 -49.5t123.5 -61t95.5 -80.5t57 -106.5t21 -142.5 q0 -96 -30 -172.5t-81 -126.5t-122 -83.5t-148 -47.5t-164 -14q-162 0 -327.5 48t-292.5 132l147 293q11 -13 55.5 -39t109 -56.5t151 -52.5t164.5 -22q178 0 178 108q0 18 -5 33.5t-17 28.5t-24 23.5t-35 21.5t-41 18.5t-50 17.5t-54 17t-62 18t-65 19q-104 32 -174.5 67 t-120.5 82t-73 108.5t-23 143.5q0 112 43 203t116.5 149t170.5 89.5t207 31.5q254 0 524 -159z" />
<glyph unicode="&#x1e67;" horiz-adv-x="1017" d="M379 1634v281h295v-281h-295zM352 1495l174 -129l174 129l168 -76l-223 -219h-235l-226 219zM524 -20q-141 0 -270.5 46t-218.5 132l112 207q199 -146 367 -146q133 0 133 84q0 42 -52 66q-26 12 -134 45q-59 20 -98.5 34t-82 33t-68.5 36t-51.5 40t-39 48.5t-21.5 58 t-8 71.5q0 162 122 261.5t327 99.5q245 0 413 -152l-127 -205q-174 121 -303 121q-58 0 -92.5 -21t-34.5 -65q0 -41 36 -63t132 -49q74 -23 122 -39.5t98 -38.5t79 -45t53.5 -53.5t35 -69t10.5 -86.5q0 -163 -118.5 -256.5t-320.5 -93.5z" />
<glyph unicode="&#x1e68;" horiz-adv-x="1259" d="M496 1599v281h295v-281h-295zM1012 1028q-23 29 -148.5 84t-238.5 55q-181 0 -181 -120q0 -34 15.5 -58t60.5 -45t82 -33t123 -36q17 -5 25 -7q91 -25 155 -49.5t123.5 -61t95.5 -80.5t57 -106.5t21 -142.5q0 -96 -30 -172.5t-81 -126.5t-122 -83.5t-148 -47.5t-164 -14 q-162 0 -327.5 48t-292.5 132l147 293q11 -13 55.5 -39t109 -56.5t151 -52.5t164.5 -22q178 0 178 108q0 18 -5 33.5t-17 28.5t-24 23.5t-35 21.5t-41 18.5t-50 17.5t-54 17t-62 18t-65 19q-104 32 -174.5 67t-120.5 82t-73 108.5t-23 143.5q0 112 43 203t116.5 149 t170.5 89.5t207 31.5q254 0 524 -159zM512 -422v281h295v-281h-295z" />
<glyph unicode="&#x1e69;" horiz-adv-x="1017" d="M379 1214v281h295v-281h-295zM524 -20q-141 0 -270.5 46t-218.5 132l112 207q199 -146 367 -146q133 0 133 84q0 42 -52 66q-26 12 -134 45q-59 20 -98.5 34t-82 33t-68.5 36t-51.5 40t-39 48.5t-21.5 58t-8 71.5q0 162 122 261.5t327 99.5q245 0 413 -152l-127 -205 q-174 121 -303 121q-58 0 -92.5 -21t-34.5 -65q0 -41 36 -63t132 -49q74 -23 122 -39.5t98 -38.5t79 -45t53.5 -53.5t35 -69t10.5 -86.5q0 -163 -118.5 -256.5t-320.5 -93.5zM381 -422v281h295v-281h-295z" />
<glyph unicode="&#x1e6c;" horiz-adv-x="1271" d="M1247 1159h-442v-1159h-336v1159h-444v295h1222v-295zM489 -422v281h295v-281h-295z" />
<glyph unicode="&#x1e6d;" horiz-adv-x="823" d="M809 57q-178 -77 -330 -77q-64 0 -116.5 15.5t-94 48.5t-65 89.5t-23.5 132.5v561h-137v248h137v342h328v-342h219v-248h-219v-448q0 -100 94 -100q61 0 143 38zM328 -422v281h295v-281h-295z" />
<glyph unicode="&#x1e6e;" horiz-adv-x="1271" d="M1247 1159h-442v-1159h-336v1159h-444v295h1222v-295zM326 -356v198h622v-198h-622z" />
<glyph unicode="&#x1e6f;" horiz-adv-x="823" d="M809 57q-178 -77 -330 -77q-64 0 -116.5 15.5t-94 48.5t-65 89.5t-23.5 132.5v561h-137v248h137v342h328v-342h219v-248h-219v-448q0 -100 94 -100q61 0 143 38zM164 -356v198h622v-198h-622z" />
<glyph unicode="&#x1e78;" horiz-adv-x="1529" d="M870 1968l-208 57l106 267h297zM629 1675q-25 0 -44.5 -10t-29 -22.5t-15 -28.5t-7 -24.5t-1.5 -12.5h-176q0 21 8 54t28 75t48.5 77.5t74.5 60t101 24.5t103 -25t89.5 -49.5t80.5 -24.5q26 0 46.5 10.5t31.5 24t17.5 29.5t8.5 25.5t2 13.5h176q0 -12 -6.5 -36.5t-19 -58 t-34.5 -67.5t-50.5 -63t-70 -47.5t-89.5 -18.5q-53 0 -101.5 23.5t-91 47t-79.5 23.5zM764 -12q-136 0 -245.5 39t-183 105.5t-123 159.5t-71.5 197.5t-22 221.5v743h336v-743q0 -87 17 -160.5t52 -134t96.5 -95t143.5 -34.5q83 0 145 35.5t96.5 97t51 134t16.5 157.5v743 h336v-743q0 -154 -38.5 -283t-115 -228.5t-202 -155.5t-289.5 -56z" />
<glyph unicode="&#x1e79;" horiz-adv-x="1284" d="M729 1591l-209 58l107 266h297zM487 1298q-25 0 -44 -10t-28.5 -22.5t-15.5 -28.5t-7 -24.5t-1 -12.5h-176q0 21 8 54t28 75t48.5 77.5t74.5 60t101 24.5q43 0 83.5 -15.5t65.5 -33.5t58.5 -33.5t65.5 -15.5q26 0 46.5 10t31.5 24t17.5 30t8.5 25t2 13h176 q0 -12 -6.5 -36.5t-19 -58t-34.5 -67.5t-50.5 -63t-70 -47.5t-89.5 -18.5q-42 0 -82.5 14.5t-66.5 32.5t-60 32.5t-64 14.5zM102 387v688h328v-616q0 -98 39 -150.5t111 -52.5q148 0 235 156v663h328v-710q0 -49 15.5 -69.5t53.5 -23.5v-272q-81 -16 -139 -16 q-86 0 -137.5 35.5t-63.5 101.5l-6 65q-143 -206 -428 -206q-164 0 -250 104t-86 303z" />
<glyph unicode="&#x1e7a;" horiz-adv-x="1529" d="M416 1989v264h270v-264h-270zM846 1989v264h270v-264h-270zM455 1649v198h622v-198h-622zM764 -12q-136 0 -245.5 39t-183 105.5t-123 159.5t-71.5 197.5t-22 221.5v743h336v-743q0 -87 17 -160.5t52 -134t96.5 -95t143.5 -34.5q83 0 145 35.5t96.5 97t51 134t16.5 157.5 v743h336v-743q0 -154 -38.5 -283t-115 -228.5t-202 -155.5t-289.5 -56z" />
<glyph unicode="&#x1e7b;" horiz-adv-x="1284" d="M274 1612v264h271v-264h-271zM705 1612v264h270v-264h-270zM313 1272v198h623v-198h-623zM102 387v688h328v-616q0 -98 39 -150.5t111 -52.5q148 0 235 156v663h328v-710q0 -49 15.5 -69.5t53.5 -23.5v-272q-81 -16 -139 -16q-86 0 -137.5 35.5t-63.5 101.5l-6 65 q-143 -206 -428 -206q-164 0 -250 104t-86 303z" />
<glyph unicode="&#x1e80;" horiz-adv-x="2160" d="M801 1872h297l106 -266l-207 -58zM618 1452h310l151 -465l152 465h311l-248 -676l148 -387l364 1065h367l-567 -1454h-291l-236 569l-233 -569h-293l-565 1454h364l367 -1065l143 387z" />
<glyph unicode="&#x1e81;" horiz-adv-x="1740" d="M592 1495h297l106 -266l-207 -58zM1438 1075h311l-444 -1075h-271l-164 438l-163 -438h-271l-444 1075h309l289 -766l102 299l-192 467h268l102 -323l103 323h266l-190 -467l102 -299z" />
<glyph unicode="&#x1e82;" horiz-adv-x="2160" d="M1186 1548l-209 58l106 266h297zM618 1452h310l151 -465l152 465h311l-248 -676l148 -387l364 1065h367l-567 -1454h-291l-236 569l-233 -569h-293l-565 1454h364l367 -1065l143 387z" />
<glyph unicode="&#x1e83;" horiz-adv-x="1740" d="M977 1171l-209 58l106 266h297zM1438 1075h311l-444 -1075h-271l-164 438l-163 -438h-271l-444 1075h309l289 -766l102 299l-192 467h268l102 -323l103 323h266l-190 -467l102 -299z" />
<glyph unicode="&#x1e84;" horiz-adv-x="2160" d="M729 1593v265h270v-265h-270zM1159 1593v265h271v-265h-271zM618 1452h310l151 -465l152 465h311l-248 -676l148 -387l364 1065h367l-567 -1454h-291l-236 569l-233 -569h-293l-565 1454h364l367 -1065l143 387z" />
<glyph unicode="&#x1e85;" horiz-adv-x="1740" d="M520 1217v264h271v-264h-271zM950 1217v264h271v-264h-271zM1438 1075h311l-444 -1075h-271l-164 438l-163 -438h-271l-444 1075h309l289 -766l102 299l-192 467h268l102 -323l103 323h266l-190 -467l102 -299z" />
<glyph unicode="&#x1e8e;" horiz-adv-x="1357" d="M530 1591v281h295v-281h-295zM365 1454l313 -643l317 643h367l-518 -958v-496h-334v500l-510 954h365z" />
<glyph unicode="&#x1e8f;" horiz-adv-x="1130" d="M444 1214v281h295v-281h-295zM121 -162q77 -26 141 -26q59 0 92.5 41.5t59.5 146.5l-410 1075h338l250 -739l213 739h309l-409 -1249q-43 -134 -155.5 -216.5t-260.5 -82.5q-91 0 -168 31v280z" />
<glyph unicode="&#x1e92;" horiz-adv-x="1280" d="M57 252l742 907h-713v295h1116v-252l-706 -907h714v-295h-1153v252zM492 -422v281h294v-281h-294z" />
<glyph unicode="&#x1e93;" horiz-adv-x="1011" d="M49 197l547 651h-518v227h862v-196l-541 -652h555v-227h-905v197zM358 -422v281h295v-281h-295z" />
<glyph unicode="&#x1e97;" horiz-adv-x="823" d="M-2 1595v265h270v-265h-270zM428 1595v265h270v-265h-270zM809 57q-178 -77 -330 -77q-64 0 -116.5 15.5t-94 48.5t-65 89.5t-23.5 132.5v561h-137v248h137v342h328v-342h219v-248h-219v-448q0 -100 94 -100q61 0 143 38z" />
<glyph unicode="&#x1e9e;" horiz-adv-x="1433" d="M1008 653q47 -15 72.5 -23.5t63 -22t57 -22.5t47 -22.5t41 -25.5t31.5 -28.5t26.5 -33.5t17 -38.5t11.5 -46.5t3 -54q0 -168 -109.5 -262t-303.5 -94q-139 0 -269 46t-219 132l115 207q184 -146 340 -146q129 0 129 86q0 38 -33.5 59.5t-124.5 49.5q-53 18 -87 30.5 t-73.5 29t-64.5 31t-51 33t-41 38.5t-27.5 44.5t-18 54t-5.5 64.5q0 292 401 369q-64 92 -213 92q-299 0 -299 -323v-877h-311v936q0 130 47.5 232.5t130.5 165.5t190 95.5t232 32.5q230 0 382.5 -109.5t186.5 -318.5l16 -92q-237 -40 -307 -60q-150 -44 -151 -114 q0 -39 40.5 -63.5t127.5 -51.5z" />
<glyph unicode="&#x1ea0;" horiz-adv-x="1372" d="M506 1454h362l500 -1454h-344l-113 326h-452l-111 -326h-344zM856 557l-170 559l-174 -559h344zM561 -422v281h295v-281h-295z" />
<glyph unicode="&#x1ea1;" horiz-adv-x="1200" d="M45 322q0 159 129 258.5t334 99.5q140 0 240 -43v47q0 182 -216 182q-87 0 -165.5 -28.5t-169.5 -89.5l-99 208q215 140 467 140q243 0 376.5 -116.5t133.5 -334.5v-280q0 -49 15.5 -69.5t54.5 -23.5v-272q-76 -16 -139 -16q-175 0 -201 137l-6 47q-71 -91 -170.5 -139.5 t-208.5 -48.5q-161 0 -268 98t-107 244zM696 281q52 42 52 84v96q-100 35 -185 35q-91 0 -150 -41t-59 -105q0 -56 44.5 -95.5t117.5 -39.5q49 0 97.5 18t82.5 48zM465 -422v281h295v-281h-295z" />
<glyph unicode="&#x1ea2;" horiz-adv-x="1372" d="M578 1774l-95 92q106 106 222 106q85 0 134.5 -45t49.5 -117q0 -67 -32.5 -117t-108.5 -112l-80 84q69 54 69 100q0 27 -16 43.5t-43 16.5q-26 0 -46 -11t-54 -40zM506 1454h362l500 -1454h-344l-113 326h-452l-111 -326h-344zM856 557l-170 559l-174 -559h344z" />
<glyph unicode="&#x1ea3;" horiz-adv-x="1200" d="M457 1397l-95 92q106 106 222 106q85 0 134.5 -44.5t49.5 -116.5q0 -68 -32.5 -118t-108.5 -112l-80 84q69 54 69 101q0 27 -16 43t-43 16q-26 0 -46 -11t-54 -40zM45 322q0 159 129 258.5t334 99.5q140 0 240 -43v47q0 182 -216 182q-87 0 -165.5 -28.5t-169.5 -89.5 l-99 208q215 140 467 140q243 0 376.5 -116.5t133.5 -334.5v-280q0 -49 15.5 -69.5t54.5 -23.5v-272q-76 -16 -139 -16q-175 0 -201 137l-6 47q-71 -91 -170.5 -139.5t-208.5 -48.5q-161 0 -268 98t-107 244zM696 281q52 42 52 84v96q-100 35 -185 35q-91 0 -150 -41 t-59 -105q0 -56 44.5 -95.5t117.5 -39.5q49 0 97.5 18t82.5 48z" />
<glyph unicode="&#x1ea4;" horiz-adv-x="1372" d="M1106 1776l-209 57l107 266h296zM338 1636l225 222h236l223 -222l-168 -73l-174 129l-174 -129zM506 1454h362l500 -1454h-344l-113 326h-452l-111 -326h-344zM856 557l-170 559l-174 -559h344z" />
<glyph unicode="&#x1ea5;" horiz-adv-x="1200" d="M985 1399l-209 57l107 266h297zM217 1260l225 221h236l223 -221l-168 -74l-174 129l-174 -129zM45 322q0 159 129 258.5t334 99.5q140 0 240 -43v47q0 182 -216 182q-87 0 -165.5 -28.5t-169.5 -89.5l-99 208q215 140 467 140q243 0 376.5 -116.5t133.5 -334.5v-280 q0 -49 15.5 -69.5t54.5 -23.5v-272q-76 -16 -139 -16q-175 0 -201 137l-6 47q-71 -91 -170.5 -139.5t-208.5 -48.5q-161 0 -268 98t-107 244zM696 281q52 42 52 84v96q-100 35 -185 35q-91 0 -150 -41t-59 -105q0 -56 44.5 -95.5t117.5 -39.5q49 0 97.5 18t82.5 48z" />
<glyph unicode="&#x1ea6;" horiz-adv-x="1372" d="M47 2091h297l107 -266l-207 -58zM336 1636l225 222h236l223 -222l-168 -73l-174 129l-174 -129zM506 1454h362l500 -1454h-344l-113 326h-452l-111 -326h-344zM856 557l-170 559l-174 -559h344z" />
<glyph unicode="&#x1ea7;" horiz-adv-x="1200" d="M-74 1714h297l107 -266l-207 -57zM215 1260l225 221h236l223 -221l-168 -74l-174 129l-174 -129zM45 322q0 159 129 258.5t334 99.5q140 0 240 -43v47q0 182 -216 182q-87 0 -165.5 -28.5t-169.5 -89.5l-99 208q215 140 467 140q243 0 376.5 -116.5t133.5 -334.5v-280 q0 -49 15.5 -69.5t54.5 -23.5v-272q-76 -16 -139 -16q-175 0 -201 137l-6 47q-71 -91 -170.5 -139.5t-208.5 -48.5q-161 0 -268 98t-107 244zM696 281q52 42 52 84v96q-100 35 -185 35q-91 0 -150 -41t-59 -105q0 -56 44.5 -95.5t117.5 -39.5q49 0 97.5 18t82.5 48z" />
<glyph unicode="&#x1ea8;" horiz-adv-x="1372" d="M881 1919l-95 92q107 107 222 107q85 0 134.5 -45t49.5 -117q0 -68 -32.5 -118t-108.5 -112l-80 84q69 54 69 101q0 27 -16 43t-43 16q-26 0 -46 -11t-54 -40zM322 1636l225 222h235l224 -222l-168 -73l-174 129l-175 -129zM506 1454h362l500 -1454h-344l-113 326h-452 l-111 -326h-344zM856 557l-170 559l-174 -559h344z" />
<glyph unicode="&#x1ea9;" horiz-adv-x="1200" d="M760 1542l-94 92q107 107 221 107q85 0 134.5 -45t49.5 -117q0 -67 -32.5 -117t-108.5 -112l-80 84q70 54 70 100q0 26 -16 42.5t-44 16.5q-26 0 -46 -11t-54 -40zM201 1260l225 221h236l223 -221l-168 -74l-174 129l-174 -129zM45 322q0 159 129 258.5t334 99.5 q140 0 240 -43v47q0 182 -216 182q-87 0 -165.5 -28.5t-169.5 -89.5l-99 208q215 140 467 140q243 0 376.5 -116.5t133.5 -334.5v-280q0 -49 15.5 -69.5t54.5 -23.5v-272q-76 -16 -139 -16q-175 0 -201 137l-6 47q-71 -91 -170.5 -139.5t-208.5 -48.5q-161 0 -268 98 t-107 244zM696 281q52 42 52 84v96q-100 35 -185 35q-91 0 -150 -41t-59 -105q0 -56 44.5 -95.5t117.5 -39.5q49 0 97.5 18t82.5 48z" />
<glyph unicode="&#x1eaa;" horiz-adv-x="1372" d="M543 2028q-25 0 -44.5 -10t-29 -23t-15 -29t-7 -24.5t-1.5 -12.5h-176q0 21 8 54t28 75t48.5 77.5t74.5 60t101 24.5q43 0 83.5 -15.5t65.5 -33.5t58.5 -33.5t65.5 -15.5q26 0 46.5 10t31.5 24t17.5 30t8.5 25t2 13h176q0 -12 -6.5 -36.5t-19 -58t-34.5 -67.5t-50.5 -63 t-70 -47.5t-89.5 -18.5q-42 0 -82 15t-66.5 32.5t-60 32.5t-63.5 15zM332 1634l225 221h236l223 -221l-168 -73l-174 129l-174 -129zM506 1454h362l500 -1454h-344l-113 326h-452l-111 -326h-344zM856 557l-170 559l-174 -559h344z" />
<glyph unicode="&#x1eab;" horiz-adv-x="1200" d="M422 1651q-25 0 -44 -10t-28.5 -23t-15.5 -29t-7 -24.5t-1 -12.5h-176q0 21 8 54t28 75t48.5 77.5t74.5 60t101 24.5q43 0 83 -15.5t65.5 -33.5t58.5 -33.5t65 -15.5q26 0 46.5 10t31.5 24t17.5 30t8.5 25t2 13h177q0 -16 -8.5 -47t-29.5 -74t-50.5 -80.5t-77.5 -63.5 t-105 -26q-42 0 -82 15t-66.5 32.5t-60 32.5t-63.5 15zM211 1257l225 222h236l223 -222l-168 -73l-174 129l-174 -129zM45 322q0 159 129 258.5t334 99.5q140 0 240 -43v47q0 182 -216 182q-87 0 -165.5 -28.5t-169.5 -89.5l-99 208q215 140 467 140q243 0 376.5 -116.5 t133.5 -334.5v-280q0 -49 15.5 -69.5t54.5 -23.5v-272q-76 -16 -139 -16q-175 0 -201 137l-6 47q-71 -91 -170.5 -139.5t-208.5 -48.5q-161 0 -268 98t-107 244zM696 281q52 42 52 84v96q-100 35 -185 35q-91 0 -150 -41t-59 -105q0 -56 44.5 -95.5t117.5 -39.5 q49 0 97.5 18t82.5 48z" />
<glyph unicode="&#x1eac;" horiz-adv-x="1372" d="M344 1651l225 221h236l223 -221l-168 -74l-174 129l-174 -129zM506 1454h362l500 -1454h-344l-113 326h-452l-111 -326h-344zM856 557l-170 559l-174 -559h344zM561 -422v281h295v-281h-295z" />
<glyph unicode="&#x1ead;" horiz-adv-x="1200" d="M223 1274l226 221h235l223 -221l-168 -74l-174 129l-174 -129zM45 322q0 159 129 258.5t334 99.5q140 0 240 -43v47q0 182 -216 182q-87 0 -165.5 -28.5t-169.5 -89.5l-99 208q215 140 467 140q243 0 376.5 -116.5t133.5 -334.5v-280q0 -49 15.5 -69.5t54.5 -23.5v-272 q-76 -16 -139 -16q-175 0 -201 137l-6 47q-71 -91 -170.5 -139.5t-208.5 -48.5q-161 0 -268 98t-107 244zM696 281q52 42 52 84v96q-100 35 -185 35q-91 0 -150 -41t-59 -105q0 -56 44.5 -95.5t117.5 -39.5q49 0 97.5 18t82.5 48zM465 -422v281h295v-281h-295z" />
<glyph unicode="&#x1eae;" horiz-adv-x="1372" d="M774 1876l-209 57l107 267h297zM797 1853h170q0 -132 -82.5 -216.5t-212.5 -84.5q-129 0 -212 84.5t-83 216.5h174q0 -64 35.5 -110.5t85.5 -46.5q48 0 83.5 44.5t41.5 112.5zM506 1454h362l500 -1454h-344l-113 326h-452l-111 -326h-344zM856 557l-170 559l-174 -559 h344z" />
<glyph unicode="&#x1eaf;" horiz-adv-x="1200" d="M653 1499l-209 57l107 267h297zM676 1477h170q0 -132 -82.5 -216.5t-212.5 -84.5q-129 0 -212 84.5t-83 216.5h174q0 -65 36 -111.5t85 -46.5q48 0 83.5 44.5t41.5 113.5zM45 322q0 159 129 258.5t334 99.5q140 0 240 -43v47q0 182 -216 182q-87 0 -165.5 -28.5 t-169.5 -89.5l-99 208q215 140 467 140q243 0 376.5 -116.5t133.5 -334.5v-280q0 -49 15.5 -69.5t54.5 -23.5v-272q-76 -16 -139 -16q-175 0 -201 137l-6 47q-71 -91 -170.5 -139.5t-208.5 -48.5q-161 0 -268 98t-107 244zM696 281q52 42 52 84v96q-100 35 -185 35 q-91 0 -150 -41t-59 -105q0 -56 44.5 -95.5t117.5 -39.5q49 0 97.5 18t82.5 48z" />
<glyph unicode="&#x1eb0;" horiz-adv-x="1372" d="M387 2226h297l107 -266l-207 -57zM795 1853h170q0 -132 -82.5 -216.5t-212.5 -84.5q-129 0 -212 84.5t-83 216.5h174q0 -64 35.5 -110.5t85.5 -46.5q48 0 83.5 44.5t41.5 112.5zM506 1454h362l500 -1454h-344l-113 326h-452l-111 -326h-344zM856 557l-170 559l-174 -559 h344z" />
<glyph unicode="&#x1eb1;" horiz-adv-x="1200" d="M266 1849h297l107 -266l-207 -57zM674 1477h170q0 -132 -82.5 -216.5t-212.5 -84.5q-129 0 -212 84.5t-83 216.5h174q0 -65 36 -111.5t85 -46.5q48 0 83.5 44.5t41.5 113.5zM45 322q0 159 129 258.5t334 99.5q140 0 240 -43v47q0 182 -216 182q-87 0 -165.5 -28.5 t-169.5 -89.5l-99 208q215 140 467 140q243 0 376.5 -116.5t133.5 -334.5v-280q0 -49 15.5 -69.5t54.5 -23.5v-272q-76 -16 -139 -16q-175 0 -201 137l-6 47q-71 -91 -170.5 -139.5t-208.5 -48.5q-161 0 -268 98t-107 244zM696 281q52 42 52 84v96q-100 35 -185 35 q-91 0 -150 -41t-59 -105q0 -56 44.5 -95.5t117.5 -39.5q49 0 97.5 18t82.5 48z" />
<glyph unicode="&#x1eb2;" horiz-adv-x="1372" d="M528 2042l-94 92q107 107 221 107q85 0 135 -45t50 -117q0 -67 -33 -117.5t-109 -112.5l-80 84q70 54 70 101q0 27 -16 43t-43 16q-26 0 -46.5 -11t-54.5 -40zM813 1855h170q0 -132 -82.5 -216.5t-212.5 -84.5q-129 0 -212 84.5t-83 216.5h174q0 -64 35.5 -110.5 t85.5 -46.5q48 0 83.5 44.5t41.5 112.5zM506 1454h362l500 -1454h-344l-113 326h-452l-111 -326h-344zM856 557l-170 559l-174 -559h344z" />
<glyph unicode="&#x1eb3;" horiz-adv-x="1200" d="M408 1665l-95 92q107 107 222 107q85 0 134.5 -45t49.5 -117q0 -67 -32.5 -117t-108.5 -112l-80 83q69 54 69 101q0 27 -16 43t-43 16q-26 0 -46 -11t-54 -40zM692 1479h170q0 -132 -82.5 -216.5t-212.5 -84.5q-129 0 -212 84.5t-83 216.5h174q0 -65 36 -111.5t85 -46.5 q48 0 83.5 44.5t41.5 113.5zM45 322q0 159 129 258.5t334 99.5q140 0 240 -43v47q0 182 -216 182q-87 0 -165.5 -28.5t-169.5 -89.5l-99 208q215 140 467 140q243 0 376.5 -116.5t133.5 -334.5v-280q0 -49 15.5 -69.5t54.5 -23.5v-272q-76 -16 -139 -16q-175 0 -201 137 l-6 47q-71 -91 -170.5 -139.5t-208.5 -48.5q-161 0 -268 98t-107 244zM696 281q52 42 52 84v96q-100 35 -185 35q-91 0 -150 -41t-59 -105q0 -56 44.5 -95.5t117.5 -39.5q49 0 97.5 18t82.5 48z" />
<glyph unicode="&#x1eb4;" horiz-adv-x="1372" d="M506 2034q-25 0 -44 -10t-28.5 -23t-15.5 -29t-7 -24.5t-1 -12.5h-177q0 21 8 54t28.5 75t49 77.5t74.5 60t101 24.5q43 0 83 -15.5t65.5 -33.5t58.5 -33.5t65 -15.5q26 0 46.5 10t31.5 24t17.5 30t8.5 25t2 13h177q0 -16 -8.5 -47t-29.5 -74t-50.5 -80.5t-77.5 -63.5 t-105 -26q-42 0 -82 15t-66.5 32.5t-60 32.5t-63.5 15zM766 1855h170q0 -132 -82.5 -216.5t-212.5 -84.5q-129 0 -212 84.5t-83 216.5h174q0 -64 35.5 -110.5t85.5 -46.5q48 0 83.5 44.5t41.5 112.5zM506 1454h362l500 -1454h-344l-113 326h-452l-111 -326h-344zM856 557 l-170 559l-174 -559h344z" />
<glyph unicode="&#x1eb5;" horiz-adv-x="1200" d="M385 1657q-25 0 -44 -10t-28.5 -22.5t-15.5 -28.5t-7 -24.5t-1 -12.5h-176q0 27 14.5 71.5t42.5 95.5t82 87t121 36q43 0 83 -15.5t65.5 -33.5t58.5 -33.5t65 -15.5q26 0 47 10t31.5 24t17.5 30t9 25t2 13h176q0 -16 -8.5 -47t-29.5 -73.5t-50.5 -80t-77.5 -63.5 t-105 -26q-53 0 -101.5 23.5t-91 47t-79.5 23.5zM645 1479h170q0 -132 -82.5 -216.5t-212.5 -84.5q-129 0 -212 84.5t-83 216.5h174q0 -65 36 -111.5t85 -46.5q48 0 83.5 44.5t41.5 113.5zM45 322q0 159 129 258.5t334 99.5q140 0 240 -43v47q0 182 -216 182 q-87 0 -165.5 -28.5t-169.5 -89.5l-99 208q215 140 467 140q243 0 376.5 -116.5t133.5 -334.5v-280q0 -49 15.5 -69.5t54.5 -23.5v-272q-76 -16 -139 -16q-175 0 -201 137l-6 47q-71 -91 -170.5 -139.5t-208.5 -48.5q-161 0 -268 98t-107 244zM696 281q52 42 52 84v96 q-100 35 -185 35q-91 0 -150 -41t-59 -105q0 -56 44.5 -95.5t117.5 -39.5q49 0 97.5 18t82.5 48z" />
<glyph unicode="&#x1eb6;" horiz-adv-x="1372" d="M811 1872h170q0 -132 -82.5 -216.5t-212.5 -84.5q-129 0 -212 84.5t-83 216.5h174q0 -65 36 -111.5t85 -46.5q48 0 83.5 44.5t41.5 113.5zM506 1454h362l500 -1454h-344l-113 326h-452l-111 -326h-344zM856 557l-170 559l-174 -559h344zM561 -422v281h295v-281h-295z" />
</font>
</defs>
</svg>
