<?xml version="1.0" standalone="no"?>
<!DOCTYPE svg PUBLIC "-//W3C//DTD SVG 1.1//EN" "http://www.w3.org/Graphics/SVG/1.1/DTD/svg11.dtd" >
<svg xmlns="http://www.w3.org/2000/svg" xmlns:xlink="http://www.w3.org/1999/xlink" version="1.1">
<metadata></metadata>
<defs>
<font id="rawlineregular" horiz-adv-x="1218" >
<font-face units-per-em="2048" ascent="1638" descent="-410" />
<missing-glyph horiz-adv-x="522" />
<glyph unicode="fi" horiz-adv-x="1032" d="M205 956h-148v111h148v29q0 61 13.5 120t44 113.5t73.5 96t106.5 66t139.5 24.5q99 0 179.5 -30.5t129.5 -66.5l-64 -100q-35 32 -99.5 53t-137.5 21q-63 0 -111.5 -26t-77 -69t-43 -93.5t-14.5 -104.5v-33h535v-1067h-140v956h-395v-956h-139v956z" />
<glyph unicode="fl" horiz-adv-x="1193" d="M1004 -12q-95 0 -150 56.5t-55 150.5v974q0 41 -12 79t-36.5 71.5t-70 53.5t-105.5 20q-115 0 -171.5 -83t-59.5 -216v-27h225v-111h-225v-956h-139v956h-148v111h148v39q0 187 94 298.5t274 111.5q176 0 270.5 -88.5t94.5 -231.5v-954q0 -72 24 -100.5t70 -28.5 q67 0 142 24l24 -114q-32 -14 -88.5 -24.5t-105.5 -10.5z" />
<glyph unicode="&#xd;" horiz-adv-x="0" />
<glyph unicode=" "  horiz-adv-x="522" />
<glyph unicode="&#x09;" horiz-adv-x="522" />
<glyph unicode="&#xa0;" horiz-adv-x="522" />
<glyph unicode="!" horiz-adv-x="516" d="M188 467v1001h140v-1001h-140zM188 0v229h140v-229h-140z" />
<glyph unicode="&#x22;" horiz-adv-x="598" d="M141 1069v397h121v-397h-121zM336 1069v397h121v-397h-121z" />
<glyph unicode="#" horiz-adv-x="1392" d="M1315 936h-264l-97 -401h275v-111h-301l-103 -424h-118l104 424h-387l-102 -424h-119l104 424h-231v111h258l96 401h-266v104h293l100 414h119l-103 -414h388l100 414h119l-103 -414h238v-104zM838 535l96 401h-387l-96 -401h387z" />
<glyph unicode="$" horiz-adv-x="1267" d="M1186 381q0 -127 -64.5 -215.5t-175.5 -131.5t-260 -46v-199h-94v201q-296 21 -514 209l72 116q74 -78 192 -132t258 -66v551h-4q-99 23 -166 44t-128 51.5t-96 68.5t-55 91.5t-20 123.5q0 186 125.5 293.5t335.5 121.5v207h94v-205q251 -11 428 -168l-70 -114 q-60 67 -154.5 108t-211.5 47v-549h4q84 -18 145.5 -35.5t122 -41.5t101 -54t73 -69.5t47.5 -91t15 -115.5zM279 1067q0 -110 72.5 -164t248.5 -96v528q-163 -9 -242 -78.5t-79 -189.5zM678 115q170 2 263 65.5t93 186.5q0 114 -83 174.5t-273 107.5v-534z" />
<glyph unicode="%" horiz-adv-x="1462" d="M82 1180q0 123 89.5 209t217.5 86q127 0 216 -86t89 -209q0 -122 -89 -207.5t-216 -85.5t-217 85.5t-90 207.5zM133 55l572 697l557 710l71 -61l-571 -696l-559 -713zM590 1180q0 88 -60 150.5t-141 62.5q-84 0 -143.5 -63.5t-59.5 -149.5q0 -88 60 -150.5t143 -62.5 t142 63.5t59 149.5zM770 274q0 121 89.5 207t215.5 86q127 0 217 -85.5t90 -207.5q0 -123 -89.5 -208.5t-217.5 -85.5q-126 0 -215.5 85.5t-89.5 208.5zM1276 274q0 87 -60.5 150t-140.5 63q-83 0 -142 -63.5t-59 -149.5q0 -89 59.5 -151t141.5 -62q84 0 142.5 63t58.5 150z " />
<glyph unicode="&#x26;" horiz-adv-x="1366" d="M1354 0h-185l-168 176q-86 -94 -198.5 -145t-241.5 -51q-128 0 -233.5 49t-168.5 140t-63 206q0 71 23.5 134t69.5 116.5t95.5 94.5t118.5 87q-111 120 -154.5 195t-43.5 151q0 135 104.5 227.5t259.5 92.5q145 0 242.5 -80.5t97.5 -206.5q0 -49 -17.5 -95t-43 -81.5 t-70.5 -76t-84.5 -69.5t-99.5 -69l405 -424q88 163 88 358h119q0 -249 -123 -446zM569 1364q-100 0 -167.5 -60.5t-67.5 -146.5q0 -51 36 -108t142 -170q141 93 204.5 158t63.5 145t-59.5 131t-151.5 51zM575 92q101 0 190.5 44t158.5 124l-441 463q-122 -85 -187 -167.5 t-65 -184.5q0 -87 51.5 -152t128 -96t164.5 -31z" />
<glyph unicode="'" horiz-adv-x="403" d="M141 1067v399h121v-399h-121z" />
<glyph unicode="(" horiz-adv-x="550" d="M377 1513l106 -51q-98 -146 -180 -363t-82 -397q0 -158 68.5 -346.5t191.5 -375.5l-104 -56q-287 427 -287 785q0 192 74 383t213 421z" />
<glyph unicode=")" horiz-adv-x="548" d="M172 -76l-102 56q122 188 191 376.5t69 345.5q0 180 -82.5 397.5t-181.5 362.5l108 51q138 -232 211.5 -422t73.5 -382q0 -363 -287 -785z" />
<glyph unicode="*" horiz-adv-x="657" d="M178 1118l88 127l-139 45l23 74l141 -53l-4 149h84l-4 -149l141 53l22 -74l-139 -45l90 -127l-65 -45l-86 133l-88 -133z" />
<glyph unicode="+" horiz-adv-x="849" d="M743 784v-114h-254v-277h-129v277h-254v114h254v277h129v-277h254z" />
<glyph unicode="," horiz-adv-x="460" d="M176 -166l35 172h-47v195h135v-195l-51 -172h-72z" />
<glyph unicode="-" horiz-adv-x="864" d="M133 494v129h598v-129h-598z" />
<glyph unicode="." horiz-adv-x="387" d="M133 0v201h121v-201h-121z" />
<glyph unicode="/" horiz-adv-x="1236" d="M1180 1454l-967 -1454h-158l967 1454h158z" />
<glyph unicode="0" horiz-adv-x="1400" d="M98 717q0 132 42.5 263t118.5 236.5t191.5 171.5t249.5 66q96 0 182 -32.5t150.5 -88.5t116 -128.5t84.5 -155.5t50 -167.5t17 -164.5q0 -106 -26.5 -212t-78.5 -199.5t-123 -166t-167.5 -115.5t-204.5 -44q-114 3 -213.5 49t-169.5 120.5t-120.5 169.5t-74.5 196.5 t-24 201.5zM700 109q89 0 165 38.5t128.5 101t90.5 143t55.5 163.5t17.5 162q0 86 -19.5 172.5t-58.5 164.5t-93 138.5t-128 96.5t-158 36q-89 0 -165.5 -38.5t-129 -101.5t-89.5 -143.5t-54.5 -163t-17.5 -161.5q3 -110 33.5 -215.5t85.5 -194.5t142.5 -143.5t194.5 -54.5z " />
<glyph unicode="1" horiz-adv-x="851" d="M811 127v-127h-678v127h277v1190q-38 -53 -142.5 -114.5t-181.5 -61.5v131q40 0 88 20t87 48.5t74 58.5t54 50t21 24h141v-1346h260z" />
<glyph unicode="2" horiz-adv-x="1189" d="M98 0q-3 125 20 225.5t71 176t110.5 131t146.5 100.5q41 23 106.5 53.5t111 51.5t98.5 54t85.5 67t54.5 84t22 110q0 123 -81 205.5t-233 82.5q-75 0 -142.5 -20t-118 -54t-84.5 -66t-62 -68l-92 90q17 21 36 42t68.5 62t103 70t136 52.5t170.5 23.5q109 0 197 -33.5 t142.5 -92t83.5 -133t29 -159.5q0 -42 -8 -81t-19.5 -70t-33 -60.5t-40.5 -51.5t-50 -45.5t-53.5 -38t-59 -34t-58.5 -30t-60 -28t-56 -26.5q-102 -46 -174.5 -94.5t-113 -91t-63.5 -93.5t-30 -90.5t-8 -93.5h829v-127h-981z" />
<glyph unicode="3" horiz-adv-x="1196" d="M584 -18q-194 0 -328.5 93t-157.5 244l86 78q8 -111 121 -197.5t279 -86.5q157 0 260.5 78.5t103.5 201.5q0 134 -126 211.5t-341 77.5h-69v121h69q203 0 315.5 67t112.5 195q0 126 -98 204.5t-238 78.5q-131 0 -228.5 -58t-137.5 -149l-96 94q56 109 183 173.5t277 64.5 q208 0 346 -116t138 -288q0 -124 -73 -205.5t-212 -115.5q145 -28 233.5 -130.5t88.5 -240.5q0 -118 -70.5 -209.5t-185.5 -138.5t-252 -47z" />
<glyph unicode="4" horiz-adv-x="1165" d="M768 0v389h-715v125l758 940h96v-938h180v-127h-180v-389h-139zM203 516h577v721z" />
<glyph unicode="5" horiz-adv-x="1138" d="M549 -20q-154 0 -278.5 75.5t-188.5 204.5l94 70q56 -102 157 -163t218 -61q154 0 257 99t103 254q0 149 -100 245.5t-248 96.5q-96 0 -180.5 -43t-138.5 -121h-131l163 817h703v-129h-598l-102 -522q112 121 301 121q200 0 336.5 -130.5t136.5 -332.5q0 -140 -68 -251 t-182.5 -170.5t-253.5 -59.5z" />
<glyph unicode="6" horiz-adv-x="1234" d="M645 971q-138 0 -248.5 -72t-154.5 -192q1 298 109.5 466t291.5 168q115 0 208 -62t136 -167l90 82q-60 126 -175 198t-259 72q-248 0 -392.5 -222.5t-144.5 -653.5q0 -280 145 -444t378 -164q217 0 366.5 145.5t149.5 353.5q0 135 -66.5 248t-181.5 178.5t-252 65.5z M252 479q0 155 112 266t267 111q156 0 268.5 -111t112.5 -266t-112 -266t-267 -111t-268 111.5t-113 265.5z" />
<glyph unicode="7" horiz-adv-x="1067" d="M848 1325h-785v129h1006l-737 -1454h-156z" />
<glyph unicode="8" horiz-adv-x="1214" d="M602 -16q-216 0 -358 124.5t-142 303.5q0 130 86.5 227.5t204.5 138.5q-104 43 -171.5 123t-67.5 182q0 70 26.5 130.5t71 104t103 75t123 46.5t130.5 15q83 0 163 -25t145.5 -70t106 -116.5t40.5 -157.5q0 -102 -69.5 -183t-174.5 -124q127 -44 210 -143.5t83 -231.5 q0 -123 -70.5 -220t-186 -148t-253.5 -51zM606 829q75 0 146 28.5t120.5 88t49.5 135.5q0 112 -94 179t-224 67q-126 0 -218.5 -69t-92.5 -181q0 -76 49 -134.5t119.5 -86t144.5 -27.5zM604 719q-90 0 -171.5 -37t-134 -109t-52.5 -161q0 -91 56 -162t138 -106t170 -35 q89 0 171 37t136 108.5t54 159.5q0 93 -56.5 164.5t-139 106t-171.5 34.5z" />
<glyph unicode="9" horiz-adv-x="1234" d="M590 473q138 0 248.5 72t154.5 192q0 -297 -109 -465t-292 -168q-115 0 -209 62.5t-137 165.5l-88 -80q60 -128 174.5 -200t257.5 -72q249 0 392.5 222t143.5 656q0 280 -144 443t-378 163q-107 0 -202 -39t-163.5 -105.5t-108.5 -159t-40 -195.5q0 -134 66.5 -247 t181.5 -179t252 -66zM985 965q0 -154 -113 -265.5t-268 -111.5t-267 112t-112 267q0 154 111 265t266 111t269 -112t114 -266z" />
<glyph unicode=":" horiz-adv-x="385" d="M133 860v201h119v-201h-119zM133 0v201h119v-201h-119z" />
<glyph unicode=";" horiz-adv-x="419" d="M143 860v201h119v-201h-119zM156 -166l34 172h-47v195h136v-195l-52 -172h-71z" />
<glyph unicode="&#x3c;" horiz-adv-x="1040" d="M68 565l858 516v-149l-656 -402l656 -399v-154l-858 512v76z" />
<glyph unicode="=" horiz-adv-x="897" d="M139 633v100h619v-100h-619zM139 397v101h619v-101h-619z" />
<glyph unicode="&#x3e;" horiz-adv-x="1040" d="M971 489l-858 -512v154l655 399l-655 402v149l858 -516v-76z" />
<glyph unicode="?" horiz-adv-x="974" d="M315 414q0 132 41.5 212.5t132.5 135.5q16 10 58 33t65.5 37t58.5 42.5t54.5 56t34 69.5t14.5 90q0 126 -82 196t-196 70q-105 0 -194.5 -59t-135.5 -150l-96 61q56 123 173.5 194t254.5 71q77 0 147.5 -24.5t127 -71.5t90.5 -124t34 -172q0 -45 -9 -85t-20.5 -68.5 t-36.5 -57.5t-42 -45.5t-54 -40.5t-54 -34t-60 -33q-37 -20 -57.5 -33t-49 -39.5t-43.5 -54.5t-26 -73.5t-11 -102.5h-119zM317 0v219h121v-219h-121z" />
<glyph unicode="@" horiz-adv-x="1714" d="M1599 455q0 -31 -2 -64t-9.5 -83.5t-19.5 -94.5t-35 -90.5t-53 -79.5t-76.5 -54.5t-103.5 -21.5q-49 0 -82.5 15t-51.5 44t-26 58.5t-12 71.5q-61 -64 -152.5 -105t-193.5 -41q-142 0 -224.5 76.5t-82.5 198.5q0 60 22.5 108.5t59 78.5t86.5 50.5t102 28.5t109 8 q128 0 260 -47q0 77 -12 134.5t-39.5 103t-78.5 69t-124 23.5q-155 0 -287 -97l-36 80q159 107 335 107q63 0 113.5 -13.5t85 -35t60 -55t39.5 -68t22.5 -79.5t11 -83t2.5 -86v-264q0 -51 3.5 -84t14.5 -63t33 -44t56 -14q49 0 87.5 29t61.5 73.5t38 102.5t20.5 110t5.5 101 q0 195 -88 357t-243 255.5t-343 93.5q-185 0 -341 -88.5t-248.5 -248.5t-92.5 -357q0 -192 87 -352.5t241.5 -254t343.5 -93.5q156 0 313 77l27 -65q-165 -82 -342 -82q-151 0 -288 58.5t-237.5 159.5t-159.5 245t-59 307q0 169 63 314t168 242.5t242 152.5t285 55 q150 0 286 -57t237.5 -158t161.5 -248t60 -317zM1112 352v82q-9 1 -50 13t-97.5 22t-114.5 10q-57 0 -105 -9.5t-88.5 -30.5t-64 -59.5t-23.5 -90.5q0 -84 61.5 -137.5t157.5 -53.5q99 0 191 45q78 36 105.5 88.5t27.5 120.5z" />
<glyph unicode="A" horiz-adv-x="1384" d="M633 1454h121l604 -1454h-152l-188 455h-653l-187 -455h-153zM985 567l-293 719l-297 -719h590z" />
<glyph unicode="B" horiz-adv-x="1363" d="M868 0h-686v1454h701q98 0 175.5 -55.5t116.5 -139t39 -176.5q0 -110 -55.5 -202t-152.5 -136q124 -37 197 -137.5t73 -232.5q0 -106 -55.5 -192.5t-148.5 -134.5t-204 -48zM326 1329v-536h499q105 0 176.5 80t71.5 188q0 112 -67 190t-168 78h-512zM883 676h-557v-551 h542q109 0 187 82.5t78 191.5q0 110 -72.5 193.5t-177.5 83.5z" />
<glyph unicode="C" horiz-adv-x="1404" d="M776 1462q188 0 328.5 -86.5t208.5 -230.5l-113 -70q-45 92 -119 152t-151 83t-162 23q-101 0 -189 -34.5t-151.5 -93.5t-109 -136.5t-67.5 -164t-22 -175.5q0 -160 71 -300.5t197.5 -226t276.5 -85.5q86 0 169 27.5t159.5 90t120.5 152.5l118 -61 q-45 -104 -140.5 -182.5t-208 -117t-226.5 -38.5q-116 0 -223 42t-189 115.5t-143 168t-93 204t-32 219.5q0 133 47 261t132.5 232t219 168t291.5 64z" />
<glyph unicode="D" horiz-adv-x="1464" d="M182 0v1454h494q136 0 250 -37t195.5 -103t138.5 -156.5t84.5 -199t27.5 -229.5q0 -331 -189.5 -530t-506.5 -199h-494zM676 1327h-350v-1200h350q175 0 302 80t189 214.5t62 307.5q0 267 -146.5 432.5t-406.5 165.5z" />
<glyph unicode="E" horiz-adv-x="1247" d="M1159 127v-127h-977v1454h959v-127h-815v-524h710v-121h-710v-555h833z" />
<glyph unicode="F" horiz-adv-x="1206" d="M182 0v1454h955v-127h-811v-534h684v-119h-684v-674h-144z" />
<glyph unicode="G" horiz-adv-x="1466" d="M909 715h445v-715h-121v213q-201 -223 -467 -223q-114 0 -220.5 41t-188.5 113t-144 165t-94.5 201.5t-32.5 218.5q0 144 51 278.5t139 235t214 161t268 60.5q206 0 344 -84.5t211 -232.5l-111 -74q-137 262 -446 262q-117 0 -217.5 -51.5t-167.5 -136.5t-104.5 -194.5 t-37.5 -225.5q0 -121 42.5 -233t115 -194.5t174.5 -131.5t215 -49q254 0 457 243v242h-324v111z" />
<glyph unicode="H" horiz-adv-x="1511" d="M1329 1454v-1454h-141v680h-862v-680h-144v1454h144v-647h862v647h141z" />
<glyph unicode="I" horiz-adv-x="507" d="M182 0v1454h144v-1454h-144z" />
<glyph unicode="J" horiz-adv-x="985" d="M70 182q111 -76 276 -76q71 0 123.5 15.5t89 49.5t60 79t36.5 114.5t18 143.5t5 178v768h143v-739q0 -102 -4 -179t-16.5 -157.5t-33.5 -138t-56.5 -110t-84.5 -84.5t-118.5 -50.5t-157.5 -18.5q-188 0 -321 91z" />
<glyph unicode="K" horiz-adv-x="1316" d="M182 0v1452h144v-844l800 846h158l-594 -639l625 -815h-162l-555 729l-272 -283v-446h-144z" />
<glyph unicode="L" horiz-adv-x="1193" d="M182 0v1454h144v-1327h839v-127h-983z" />
<glyph unicode="M" horiz-adv-x="1796" d="M1470 0v1184l-526 -920h-90l-528 920v-1184h-144v1454h148l567 -995l571 995h146v-1454h-144z" />
<glyph unicode="N" horiz-adv-x="1581" d="M326 1190v-1190h-144v1454h119l954 -1212v1210h144v-1452h-133z" />
<glyph unicode="O" horiz-adv-x="1538" d="M86 727q0 144 53 278.5t142.5 235.5t218 162t270.5 61q118 0 226 -41.5t189.5 -113.5t142 -166t91.5 -201.5t31 -216.5q0 -144 -52.5 -278t-142 -235t-217.5 -161.5t-270 -60.5q-148 0 -277.5 63t-217 166t-137.5 235.5t-50 272.5zM768 119q120 0 223 53t171 139 t106.5 194.5t38.5 221.5q0 158 -68 296t-193 224t-278 86q-120 0 -223 -52.5t-171 -138t-106.5 -194t-38.5 -221.5q0 -118 40 -228t109.5 -194t171.5 -135t218 -51z" />
<glyph unicode="P" horiz-adv-x="1273" d="M182 0v1454h602q120 0 221.5 -67.5t156.5 -172t55 -217.5q0 -120 -52 -224.5t-149.5 -170t-218.5 -65.5h-471v-537h-144zM326 664h465q125 0 203.5 98t78.5 235q0 136 -87.5 233t-207.5 97h-452v-663z" />
<glyph unicode="Q" horiz-adv-x="1533" d="M1450 725q0 -148 -54 -284t-151 -238l172 -203h-141l-109 129q-179 -139 -399 -139q-119 1 -226.5 41.5t-189.5 111.5t-142.5 163.5t-92 201t-31.5 219.5q0 144 53 278.5t142.5 235.5t218 162t270.5 61q118 0 226 -41.5t189.5 -113.5t142 -166t91.5 -201.5t31 -216.5z M768 119q179 0 313 112l-182 215h141l117 -139q72 86 111 196t39 224q0 158 -68 296.5t-193 225t-278 86.5q-96 0 -182.5 -34t-150.5 -93.5t-111 -136.5t-71 -165.5t-24 -178.5q0 -118 40 -228t109.5 -194t171.5 -135t218 -51z" />
<glyph unicode="R" horiz-adv-x="1337" d="M182 0v1454h615q120 0 220.5 -67.5t155 -172t54.5 -217.5q0 -160 -90 -283.5t-234 -152.5l357 -561h-162l-342 537h-430v-537h-144zM326 664h475q83 0 148.5 47.5t99.5 123t34 162.5q0 133 -87.5 231.5t-207.5 98.5h-462v-663z" />
<glyph unicode="S" horiz-adv-x="1243" d="M1032 1182q-64 71 -167 113t-230 42q-187 0 -278 -70.5t-91 -199.5q0 -51 16.5 -89.5t44.5 -65.5t81.5 -49.5t111 -38.5t150.5 -36q84 -18 145.5 -35.5t122 -41.5t101 -54t73 -69.5t47.5 -91t15 -115.5q0 -130 -68.5 -220t-184.5 -131.5t-272 -41.5q-337 0 -583 211 l71 116q82 -88 219.5 -144t296.5 -56q176 0 272.5 64t96.5 188q0 53 -19 93.5t-51 70t-90 54.5t-120.5 43t-157.5 40q-99 23 -166 44t-128 51.5t-96 68.5t-55 91.5t-20 123.5q0 198 142.5 307.5t375.5 109.5q273 0 465 -168z" />
<glyph unicode="T" horiz-adv-x="1249" d="M1214 1327h-518v-1327h-143v1327h-518v127h1179v-127z" />
<glyph unicode="U" horiz-adv-x="1546" d="M774 -10q-134 0 -240 41t-175 109t-114 163.5t-64 198.5t-19 219v733h141v-733q0 -96 14 -180t48 -163t86 -135.5t134 -90t187 -33.5q107 0 190.5 34.5t135.5 91.5t85.5 136.5t46.5 162.5t13 177v733h143v-733q0 -121 -20.5 -226.5t-67 -199.5t-116 -160.5t-174 -105.5 t-234.5 -39z" />
<glyph unicode="V" horiz-adv-x="1390" d="M176 1454l520 -1276l518 1276h150l-602 -1454h-131l-604 1454h149z" />
<glyph unicode="W" horiz-adv-x="2142" d="M729 1444h135l205 -516l207 516h137l-254 -621l279 -657l526 1288h156l-617 -1454h-127l-305 719l-307 -719h-125l-614 1454h153l529 -1288l276 657z" />
<glyph unicode="X" horiz-adv-x="1294" d="M174 1454l475 -633l473 633h162l-557 -737l541 -717h-162l-457 612l-459 -612h-163l540 717l-557 737h164z" />
<glyph unicode="Y" horiz-adv-x="1333" d="M190 1454l476 -782l479 782h155l-563 -913v-541h-143v545l-561 909h157z" />
<glyph unicode="Z" horiz-adv-x="1288" d="M63 113l990 1214h-973v127h1139v-113l-977 -1214h975v-127h-1154v113z" />
<glyph unicode="[" horiz-adv-x="528" d="M180 -82v1598h244v-117h-113v-1364h113v-117h-244z" />
<glyph unicode="\" horiz-adv-x="1163" d="M215 1454l891 -1454h-156l-893 1454h158z" />
<glyph unicode="]" horiz-adv-x="528" d="M102 -82v117h115v1364h-115v117h246v-1598h-246z" />
<glyph unicode="^" horiz-adv-x="1103" d="M88 621l406 833h118l404 -833h-123l-340 702l-346 -702h-119z" />
<glyph unicode="_" horiz-adv-x="1046" d="M133 -127v127h780v-127h-780z" />
<glyph unicode="`" horiz-adv-x="454" d="M100 1495h146l123 -190l-90 -35z" />
<glyph unicode="a" horiz-adv-x="1116" d="M68 307q0 147 124.5 236.5t325.5 89.5q172 0 311 -49v90q0 136 -80.5 215.5t-220.5 79.5q-161 0 -342 -125l-53 98q208 143 410 143q197 0 311.5 -113t114.5 -310v-494q0 -29 12 -42t39 -15v-111q-50 -6 -64 -4q-49 1 -76.5 30.5t-29.5 67.5l-2 78q-71 -90 -185 -141 t-235 -51q-155 0 -257.5 94.5t-102.5 232.5zM782 225q47 53 47 103v155q-139 56 -294 56q-151 0 -242.5 -60.5t-91.5 -161.5q0 -94 71 -162.5t189 -68.5q99 0 186 38.5t135 100.5z" />
<glyph unicode="b" horiz-adv-x="1263" d="M279 207v-207h-125v1495h139v-651q158 241 405 241q108 0 201 -47.5t154 -125.5t95 -177.5t34 -204.5q0 -148 -66 -274t-183 -201t-257 -75q-123 0 -229.5 62.5t-167.5 164.5zM1040 530q0 112 -47.5 210.5t-136 160.5t-197.5 62q-119 0 -215 -75.5t-151 -191.5v-331 q10 -70 68 -132t135 -96.5t147 -34.5q113 0 205 61.5t142 159t50 207.5z" />
<glyph unicode="c" horiz-adv-x="1124" d="M616 -20q-152 0 -275.5 76t-192 203t-68.5 278t67 276t190 198.5t277 73.5q149 0 263 -68t172 -186l-136 -43q-44 82 -125.5 128.5t-179.5 46.5q-164 0 -275.5 -122t-111.5 -304q0 -180 115 -307.5t274 -127.5q102 0 194.5 54.5t117.5 128.5l137 -41 q-45 -116 -167.5 -190t-275.5 -74z" />
<glyph unicode="d" horiz-adv-x="1273" d="M82 530q0 150 62 276.5t174.5 202.5t250.5 76q127 0 233.5 -67.5t170.5 -173.5v651h139v-1327q0 -29 11.5 -42t37.5 -15v-111q-44 -6 -63 -4q-44 3 -76.5 34.5t-32.5 71.5v105q-63 -104 -171 -165.5t-226 -61.5q-108 0 -204.5 45.5t-162.5 121.5t-104.5 176t-38.5 207z M973 367v329q-40 110 -149 188.5t-220 78.5q-110 0 -198.5 -63t-134.5 -161t-46 -209q0 -114 52.5 -212.5t144.5 -157t201 -58.5t221 80t129 185z" />
<glyph unicode="e" horiz-adv-x="1202" d="M614 -20q-151 0 -274.5 76t-191.5 203.5t-68 277.5q0 148 68 273.5t191 200t273 74.5q152 0 274.5 -75.5t188.5 -200t66 -270.5q0 -46 -2 -56h-914q13 -171 127 -284t269 -113q105 0 197 53.5t130 139.5l121 -33q-50 -118 -175.5 -192t-279.5 -74zM221 584h789 q-13 172 -125.5 282.5t-270.5 110.5t-270.5 -111t-122.5 -282z" />
<glyph unicode="f" horiz-adv-x="675" d="M205 0v956h-148v111h148v29q0 195 84 307.5t229 112.5q130 0 225 -68l-43 -100q-60 47 -155 47q-97 0 -149 -76.5t-52 -218.5v-33h295v-111h-295v-956h-139z" />
<glyph unicode="g" horiz-adv-x="1265" d="M82 530q0 148 62 274.5t176.5 203.5t257.5 77q244 0 409 -241v223h125v-1071q0 -144 -72 -248.5t-188.5 -154.5t-261.5 -50q-176 0 -290 62t-189 180l86 68q61 -98 165 -148.5t228 -50.5q79 0 147.5 21.5t121.5 63t83.5 108t30.5 149.5v211q-61 -101 -168 -161t-223 -60 q-142 0 -258 77.5t-179 201.5t-63 265zM973 367v329q-44 116 -149 191.5t-220 75.5q-114 0 -203 -65.5t-133.5 -163.5t-44.5 -206q0 -113 53 -211t145 -156.5t200 -58.5q122 0 227.5 82t124.5 183z" />
<glyph unicode="h" horiz-adv-x="1193" d="M1051 0h-140v596q0 362 -245 362q-120 0 -228.5 -88t-144.5 -217v-653h-139v1495h139v-670q63 120 176 190t244 70q175 0 256.5 -121.5t81.5 -338.5v-625z" />
<glyph unicode="i" horiz-adv-x="446" d="M154 1290v205h139v-205h-139zM154 0v1067h139v-1067h-139z" />
<glyph unicode="j" horiz-adv-x="460" d="M168 1290v205h139v-205h-139zM-240 -291l68 94q54 -49 149 -49q74 0 132.5 55.5t58.5 135.5v1122h139v-1114q0 -137 -94.5 -230.5t-218.5 -93.5q-148 0 -234 80z" />
<glyph unicode="k" horiz-adv-x="1085" d="M915 0l-395 547l-227 -213v-334h-139v1495h139v-1012l604 582h154l-437 -436l453 -629h-152z" />
<glyph unicode="l" horiz-adv-x="557" d="M160 1495h139v-1253q0 -74 25 -101.5t73 -27.5q68 0 138 24l24 -112q-39 -15 -95 -26t-97 -11q-96 0 -151.5 55.5t-55.5 151.5v1300z" />
<glyph unicode="m" horiz-adv-x="1882" d="M1741 0h-139v596q0 362 -236 362q-120 0 -215.5 -85t-134.5 -222v-651h-139v596q0 188 -57.5 275t-176.5 87t-214.5 -84t-135.5 -221v-653h-139v1067h127v-242q66 124 172.5 192t234.5 68q131 0 214 -75t102 -199q149 274 411 274q172 0 249 -119.5t77 -340.5v-625z" />
<glyph unicode="n" horiz-adv-x="1193" d="M1051 0h-140v596q0 188 -55.5 275t-173.5 87q-125 0 -238 -87.5t-151 -217.5v-653h-139v1067h127v-242q65 118 187.5 189t264.5 71q87 0 149.5 -31.5t99 -93.5t53 -144t16.5 -191v-625z" />
<glyph unicode="o" d="M80 530q0 111 40 212.5t109 177t168 120.5t211 45q150 0 272.5 -76t190.5 -203t68 -276q0 -148 -67.5 -273.5t-190 -201t-273.5 -75.5t-273 75.5t-188.5 201t-66.5 273.5zM608 102q160 0 274.5 126t114.5 304t-114.5 304.5t-274.5 126.5q-104 0 -193 -58t-141.5 -158.5 t-52.5 -218.5q0 -178 113.5 -302t273.5 -124z" />
<glyph unicode="p" horiz-adv-x="1263" d="M293 221v-657h-139v1503h125v-207q66 102 172 163.5t225 61.5q142 0 259.5 -79t182 -205.5t64.5 -268.5q0 -150 -60.5 -276t-172 -201t-251.5 -75q-128 0 -233.5 66.5t-171.5 174.5zM1040 532q0 174 -116 302.5t-281 128.5q-70 0 -147 -35.5t-135 -98.5t-68 -131v-327 q48 -117 149 -193t217 -76q111 0 200 62.5t135 160t46 207.5z" />
<glyph unicode="q" horiz-adv-x="1263" d="M82 532q0 147 67 274t184.5 203t256.5 76q121 0 227 -63t168 -164v209h125v-1503h-139v657q-76 -118 -180 -179.5t-226 -61.5q-140 0 -252 78t-171.5 203.5t-59.5 270.5zM971 354v330q-17 109 -127.5 194t-227.5 85q-111 0 -202.5 -63t-141 -162t-49.5 -208 q0 -115 48.5 -212.5t137.5 -156.5t199 -59q118 0 211 70.5t152 181.5z" />
<glyph unicode="r" horiz-adv-x="718" d="M686 944q-141 -5 -246 -78.5t-147 -201.5v-664h-139v1067h131v-256q55 112 146 181.5t194 78.5q40 3 61 0v-127z" />
<glyph unicode="s" horiz-adv-x="989" d="M504 -20q-273 0 -438 174l57 98q168 -160 375 -160q127 0 203.5 51.5t76.5 143.5q0 56 -38 92.5t-82 51.5t-153 43q-28 7 -42 11q-90 25 -147 47.5t-103 55.5t-66 77.5t-20 106.5q0 149 111 231t288 82q120 0 216 -38.5t155 -108.5l-68 -94q-111 129 -311 129 q-110 0 -185 -45t-75 -140q0 -28 6 -49.5t23.5 -39t33.5 -29t52 -25t62 -22t79 -23.5q51 -14 78.5 -21.5t69.5 -21t64.5 -23t53.5 -24.5t47.5 -29t35.5 -34t28 -41.5t15.5 -49t6.5 -59.5q0 -148 -111.5 -232.5t-297.5 -84.5z" />
<glyph unicode="t" horiz-adv-x="686" d="M666 51q-1 -1 -20.5 -9.5t-32 -13.5t-37.5 -13.5t-46 -13.5t-50 -9t-56 -4q-96 0 -160.5 53.5t-64.5 151.5v763h-148v111h148v360h139v-360h246v-111h-246v-725q4 -56 40 -85t89 -29q87 0 162 47z" />
<glyph unicode="u" horiz-adv-x="1216" d="M143 440v627h140v-602q0 -363 247 -363q124 0 231 80.5t154 212.5v672h140v-899q0 -29 11.5 -42t37.5 -15v-111q-33 -4 -66 -4q-43 3 -71.5 32t-30.5 70l-4 144q-68 -123 -188 -192.5t-261 -69.5q-167 0 -253.5 116.5t-86.5 343.5z" />
<glyph unicode="v" horiz-adv-x="1091" d="M471 0l-432 1067h145l365 -928l366 928h138l-432 -1067h-150z" />
<glyph unicode="w" horiz-adv-x="1665" d="M1497 1067h137l-458 -1067h-121l-224 530l-221 -530h-121l-458 1067h135l389 -924l197 482l-181 440h125l135 -346l138 346h123l-179 -440l197 -482z" />
<glyph unicode="x" horiz-adv-x="1032" d="M186 1067l314 -418l16 -31l16 31l312 418h157l-405 -537l405 -530h-157l-312 416l-16 28l-16 -28l-312 -416h-157l403 530l-403 537h155z" />
<glyph unicode="y" horiz-adv-x="1110" d="M215 -328q77 -4 94 0q37 4 69.5 61.5t117.5 266.5l-465 1067h147l391 -924l361 924h139l-553 -1376q-56 -145 -217 -148q-41 -3 -84 4v125z" />
<glyph unicode="z" horiz-adv-x="1007" d="M63 94l715 869h-698v104h856v-94l-711 -869h709v-104h-871v94z" />
<glyph unicode="{" horiz-adv-x="530" d="M315 1399v-535q0 -77 -55 -127q29 -25 42 -61t13 -66v-557h113v-116h-192q-20 0 -34 14.5t-14 46.5v575q0 42 -21.5 75.5t-57.5 37.5v107q38 0 58.5 36.5t20.5 71.5v553q0 33 16 47.5t32 14.5h192v-117h-113z" />
<glyph unicode="|" horiz-adv-x="473" d="M176 -266v1853h121v-1853h-121z" />
<glyph unicode="}" horiz-adv-x="530" d="M102 1399v117h193q15 0 31 -14.5t16 -47.5v-553q0 -35 20 -71.5t58 -36.5v-107q-36 -4 -57 -37t-21 -76v-575q0 -32 -14.5 -46.5t-32.5 -14.5h-193v116h113v557q0 81 53 127q-53 48 -53 127v535h-113z" />
<glyph unicode="~" horiz-adv-x="1046" d="M356 705q42 0 88 -18.5t80 -41t78 -41t82 -18.5q29 0 54 10t40.5 24.5t26.5 30t15.5 26.5t4.5 15h88q0 -6 -6.5 -25.5t-24.5 -49.5t-42.5 -57t-66.5 -46.5t-91 -19.5q-45 0 -94 18.5t-84 40.5t-76.5 40.5t-73.5 18.5q-27 0 -50.5 -12t-37.5 -28.5t-24.5 -34.5 t-14.5 -29.5t-4 -13.5h-88q0 10 7 32.5t24.5 53.5t41.5 58.5t63 47t85 19.5z" />
<glyph unicode="&#xa1;" horiz-adv-x="514" d="M326 1464v-229h-140v229h140zM326 997v-1001h-140v1001h140z" />
<glyph unicode="&#xa2;" horiz-adv-x="1148" d="M565 -246v228q-135 11 -246 93t-171 202.5t-60 250.5q0 103 34 199t94.5 171.5t151 125t197.5 59.5v238h76v-238q294 -9 416 -252l-133 -43q-91 160 -283 170v-854q55 3 115.5 25.5t111 64.5t64.5 91l137 -41q-31 -83 -107 -145.5t-159.5 -90.5t-161.5 -28v-226h-76z M565 111v843q-102 -10 -180 -75t-116 -157t-38 -194q0 -153 95 -273.5t239 -143.5z" />
<glyph unicode="&#xa3;" horiz-adv-x="1021" d="M899 129l35 -106q-108 -54 -223 -54q-61 0 -169.5 24.5t-172.5 24.5q-103 0 -222 -34l-36 102q140 139 197 236.5t57 197.5q0 59 -21 131h-238v111h193q-14 29 -45 85t-47.5 89t-31.5 82.5t-15 95.5q0 146 108 248t262 102q110 0 210 -57.5t161 -157.5l-82 -86 q-50 85 -129 135t-164 50q-100 0 -168.5 -70.5t-68.5 -171.5q0 -53 20.5 -106.5t62 -127t58.5 -110.5h365v-111h-324q16 -62 16 -123q0 -103 -47.5 -197.5t-163.5 -219.5q74 18 150 18q60 0 152 -18.5t139 -18.5q72 0 182 37z" />
<glyph unicode="&#xa4;" horiz-adv-x="1099" d="M319 983q93 80 230 80q128 0 231 -80l144 145l69 -67l-147 -148q72 -98 72 -225q0 -126 -74 -225l149 -148l-61 -59l-152 141q-96 -80 -231 -80q-131 0 -234 80l-145 -141l-61 59l145 146q-74 104 -74 227q0 130 72 227l-143 146l67 67zM549 416q104 0 178 80t74 194 q0 115 -73.5 194t-178.5 79t-178.5 -80.5t-73.5 -196.5q0 -112 74 -191t178 -79z" />
<glyph unicode="&#xa5;" horiz-adv-x="1384" d="M885 750h172v-99h-228l-67 -110v-56h297v-98h-297v-387h-144v387h-292v98h292v60l-63 106h-229v99h176l-443 704h156l475 -782l479 782h158z" />
<glyph unicode="&#xa6;" horiz-adv-x="479" d="M301 1587v-833h-123v833h123zM301 567v-833h-123v833h123z" />
<glyph unicode="&#xa7;" horiz-adv-x="1036" d="M948 184q0 -72 -25.5 -133.5t-67.5 -103t-96 -71t-111 -43t-113 -13.5q-226 0 -408 186l92 86q145 -139 311 -139q107 0 191 62.5t84 164.5q0 45 -16 78.5t-39.5 53t-60 32t-68.5 17t-74 6.5q-182 9 -291 93t-109 238q0 107 54 176q-45 33 -75 96.5t-30 143.5 q0 100 58.5 181.5t150 125t191.5 43.5q140 0 228.5 -53t149.5 -141l-110 -51q-33 62 -104.5 90t-155.5 28q-107 0 -187.5 -61.5t-80.5 -161.5q0 -206 270 -209q61 0 118 -10.5t110.5 -34.5t93 -59.5t63.5 -90t24 -122.5q0 -57 -17 -108t-44 -81q94 -58 94 -215zM723 440 q27 21 43 61.5t16 84.5q0 56 -25 97.5t-67 64t-87 33t-93 10.5q-106 0 -176 28q-23 -22 -37 -59.5t-14 -77.5q0 -72 31.5 -117.5t85 -63.5t108 -25.5t118 -15t97.5 -20.5z" />
<glyph unicode="&#xa8;" horiz-adv-x="673" d="M125 1296v193h119v-193h-119zM430 1296v193h119v-193h-119z" />
<glyph unicode="&#xa9;" horiz-adv-x="1703" d="M98 727q0 156 57 293t156.5 234.5t239 153.5t299.5 56q214 0 387 -95.5t271 -264.5t98 -377q0 -157 -57.5 -294.5t-157.5 -235.5t-240.5 -154.5t-300.5 -56.5t-299.5 56.5t-239 154.5t-156.5 235.5t-57 294.5zM1526 723q0 141 -51.5 264.5t-141 211.5t-215 139t-268.5 51 q-189 0 -343 -86.5t-241.5 -238.5t-87.5 -339q0 -186 87 -338t241 -239t344 -87q188 0 342 83t244 235t90 344zM387 727q0 70 18 138t55.5 129.5t91.5 108.5t132 75t170 28q136 0 241.5 -59.5t151.5 -167.5l-135 -43q-37 81 -109.5 114t-148.5 33q-78 0 -141.5 -31 t-102.5 -82.5t-59.5 -114t-20.5 -128.5q0 -81 30.5 -149.5t78.5 -112t105.5 -68t113.5 -24.5q80 0 157.5 43t110.5 112l136 -39q-15 -39 -50 -79.5t-84.5 -76.5t-118.5 -58.5t-143 -22.5q-126 0 -234.5 57.5t-176.5 167.5t-68 250z" />
<glyph unicode="&#xaa;" horiz-adv-x="888" d="M98 934q0 98 85.5 160.5t219.5 62.5q126 0 207 -37v58q0 88 -51 139t-143 51q-109 0 -234 -84l-41 76q143 94 285 94q144 0 225.5 -76t81.5 -213v-293q0 -22 9 -33t30 -12v-106q-50 -4 -57 -4q-36 1 -58.5 22t-25.5 52l-2 51q-51 -64 -126.5 -98.5t-162.5 -34.5 q-102 0 -172 65t-70 160zM586 889q24 24 24 53v107q-70 32 -188 32q-94 0 -151.5 -38t-57.5 -101q0 -60 46 -100.5t114 -40.5q66 0 124 24t89 64z" />
<glyph unicode="&#xab;" horiz-adv-x="1173" d="M84 565l508 365v-121l-395 -279l395 -274v-121l-508 354v76zM535 565l509 365v-121l-395 -279l395 -274v-121l-509 354v76z" />
<glyph unicode="&#xac;" horiz-adv-x="1191" d="M1049 745v-487h-123v360h-776v127h899z" />
<glyph unicode="&#xad;" horiz-adv-x="1167" d="M133 494v129h899v-129h-899z" />
<glyph unicode="&#xae;" horiz-adv-x="1703" d="M98 727q0 208 97.5 377t270 264.5t386.5 95.5q213 0 385.5 -95.5t270.5 -264.5t98 -377q0 -157 -57.5 -294.5t-157 -235.5t-239.5 -154.5t-300 -56.5t-300.5 56.5t-240 154.5t-156.5 235.5t-57 294.5zM1524 725q0 186 -87 338t-241 239t-344 87t-344.5 -87t-241 -238.5 t-86.5 -336.5q0 -140 51 -264t139.5 -212.5t213.5 -140t268 -51.5q140 0 264 49t214 135.5t142 211.5t52 270zM539 1188h391q116 0 196 -90.5t80 -202.5q0 -101 -59 -179.5t-152 -97.5l228 -358h-119l-217 344h-240v-344h-108v928zM930 698q81 0 125.5 55t44.5 142 q0 85 -50.5 140t-127.5 55h-275v-392h283z" />
<glyph unicode="&#xaf;" horiz-adv-x="811" d="M111 1358v96h591v-96h-591z" />
<glyph unicode="&#xb0;" horiz-adv-x="544" d="M272 1483q72 0 121 -48.5t49 -119.5q0 -73 -49 -122.5t-121 -49.5q-71 0 -120.5 49.5t-49.5 122.5q0 70 49.5 119t120.5 49zM182 1313q0 -37 27 -64q26 -26 63 -26q40 0 66 26q24 27 24 64q0 36 -24 63t-66 27q-39 0 -63 -27q-27 -27 -27 -63z" />
<glyph unicode="&#xb1;" horiz-adv-x="956" d="M809 805v-117h-266v-287h-129v287h-267v117h267v287h129v-287h266zM147 125v117h662v-117h-662z" />
<glyph unicode="&#xb2;" horiz-adv-x="794" d="M74 834q0 153 61 237t197 137q17 7 63 23.5t67 25t55.5 27t51 35.5t30 43t13.5 57q0 66 -54.5 109t-154.5 43q-157 0 -260 -113l-61 64q10 15 33.5 35t64 45t103.5 42t133 17q144 0 221.5 -67.5t77.5 -176.5q0 -28 -7 -53t-16 -44t-27.5 -37.5t-32 -30.5t-40 -26 t-40.5 -21t-44.5 -17.5t-41 -14t-40.5 -12.5q-211 -72 -211 -239h490v-88h-631z" />
<glyph unicode="&#xb3;" horiz-adv-x="798" d="M72 1004l55 59q7 -55 80.5 -102.5t179.5 -47.5q102 0 171 40.5t69 105.5q0 71 -82.5 111t-222.5 40h-48v84h48q131 0 203.5 34.5t72.5 101.5q0 66 -63 106.5t-154 40.5q-83 0 -145.5 -31t-94.5 -84l-61 70q36 59 119 94t182 35q135 0 225 -64t90 -161q0 -70 -47.5 -116 t-138.5 -65q94 -13 151.5 -71t57.5 -137q0 -102 -96.5 -164t-233.5 -62q-128 0 -215 50t-102 133z" />
<glyph unicode="&#xb4;" horiz-adv-x="454" d="M193 1270l-93 35l121 190h148z" />
<glyph unicode="&#xb5;" horiz-adv-x="1269" d="M168 1067h139v-602q0 -183 62.5 -273t189.5 -90q123 0 229.5 80.5t153.5 212.5v672h139v-887q0 -57 49 -57v-123q-33 -4 -67 -4q-45 3 -75 35.5t-30 74.5v136q-55 -112 -168.5 -187t-238.5 -75q-95 0 -159 47t-93 127l8 -588h-139v1501z" />
<glyph unicode="&#xb6;" horiz-adv-x="1232" d="M647 1454h494v-111h-144v-1507h-123v637h-151v-637h-121v637q-246 3 -389 133.5t-143 354.5q0 232 152 362.5t425 130.5zM602 584v759q-197 -1 -304.5 -102t-107.5 -276q0 -92 32.5 -164.5t90 -117.5t130.5 -69.5t159 -29.5zM874 1343h-151v-759h151v759z" />
<glyph unicode="&#xb7;" horiz-adv-x="387" d="M133 504v229h121v-229h-121z" />
<glyph unicode="&#xb8;" horiz-adv-x="579" d="M305 -369q-120 0 -233 58l41 80q95 -45 170 -45q141 0 141 104q0 50 -35 90t-108 82l59 39q89 -55 133.5 -108t44.5 -126q0 -83 -57 -128.5t-156 -45.5z" />
<glyph unicode="&#xb9;" horiz-adv-x="557" d="M512 924v-93h-412v93h166v632q-25 -31 -87 -65.5t-109 -34.5v92q25 0 54 11t53 27t44.5 32.5t32 28.5t12.5 14h92v-737h154z" />
<glyph unicode="&#xba;" horiz-adv-x="919" d="M90 1081q0 155 104.5 264t264.5 109t265 -109t105 -264q0 -153 -104.5 -262.5t-265.5 -109.5t-265 109.5t-104 262.5zM459 809q105 0 178.5 79.5t73.5 194.5q0 114 -73.5 192.5t-178.5 78.5q-103 0 -177.5 -80t-74.5 -195q0 -113 73.5 -191.5t178.5 -78.5z" />
<glyph unicode="&#xbb;" horiz-adv-x="1173" d="M639 489l-510 -354v121l395 274l-395 279v121l510 -365v-76zM1090 489l-508 -354v121l395 274l-395 279v121l508 -365v-76z" />
<glyph unicode="&#xbc;" horiz-adv-x="1630" d="M512 760v-92h-412v92h166v633q-26 -31 -87.5 -66t-108.5 -35v92q25 0 54 11t53 27t44.5 32.5t32 28.5t12.5 14h92v-737h154zM115 55l571 697l557 710l72 -61l-572 -696l-559 -713zM1360 0v211h-467v86l496 520h63v-516h117v-90h-117v-211h-92zM991 301h371v391z" />
<glyph unicode="&#xbd;" horiz-adv-x="1652" d="M512 760v-92h-412v92h166v633q-26 -31 -87.5 -66t-108.5 -35v92q25 0 54 11t53 27t44.5 32.5t32 28.5t12.5 14h92v-737h154zM115 55l571 697l557 710l72 -61l-572 -696l-559 -713zM944 0q0 154 60 239t192 138q16 6 52 19t55.5 21t49.5 21.5t47 27t34.5 31.5t25.5 40.5 t8 48.5q0 66 -52.5 109.5t-149.5 43.5q-150 0 -254 -114l-60 65q13 16 34.5 34.5t61.5 44t100.5 42t129.5 16.5q140 0 215.5 -67.5t75.5 -175.5q0 -34 -9.5 -63.5t-23.5 -51t-37.5 -41t-43.5 -32t-50.5 -26t-50 -20.5t-49.5 -17q-10 -3 -15 -5q-209 -72 -209 -238h490v-90 h-627z" />
<glyph unicode="&#xbe;" horiz-adv-x="1871" d="M72 840l55 59q7 -55 80.5 -102t179.5 -47q102 0 171 40t69 105q0 71 -82.5 111.5t-222.5 40.5h-48v83h48q131 0 203.5 34.5t72.5 101.5q0 66 -63 106.5t-154 40.5q-83 0 -145.5 -31t-94.5 -84l-61 70q36 59 119 94t182 35q135 0 225 -64t90 -161q0 -142 -186 -180 q94 -13 151.5 -71.5t57.5 -137.5q0 -102 -96.5 -164t-233.5 -62q-128 0 -215 50t-102 133zM356 55l572 697l557 710l71 -61l-571 -696l-559 -713zM1602 0v211h-467v86l495 520h64v-516h116v-90h-116v-211h-92zM1233 301h371v391z" />
<glyph unicode="&#xbf;" horiz-adv-x="960" d="M649 1036v-219h-121v219h121zM651 623q0 -132 -41.5 -213t-132.5 -136q-16 -10 -57.5 -33t-65.5 -37t-59 -42.5t-54 -55.5t-33.5 -69t-14.5 -90q0 -126 82 -196t196 -70q106 0 195 58.5t135 149.5l96 -61q-56 -123 -173.5 -193.5t-254.5 -70.5q-77 0 -147.5 24.5 t-127 71.5t-90.5 123.5t-34 171.5q0 45 9 85t20.5 68.5t36.5 57.5t42 45.5t54 40.5t54 34t60 33q36 20 57 33.5t49 39.5t43 54.5t26 74t11 102.5h119z" />
<glyph unicode="&#xc0;" horiz-adv-x="1384" d="M502 1880h145l123 -190l-90 -35zM633 1454h121l604 -1454h-152l-188 455h-653l-187 -455h-153zM985 567l-293 719l-297 -719h590z" />
<glyph unicode="&#xc1;" horiz-adv-x="1384" d="M739 1653l-92 35l121 190h147zM633 1454h121l604 -1454h-152l-188 455h-653l-187 -455h-153zM985 567l-293 719l-297 -719h590z" />
<glyph unicode="&#xc2;" horiz-adv-x="1384" d="M440 1704l201 174h102l203 -174l-80 -43l-174 129l-174 -129zM633 1454h121l604 -1454h-152l-188 455h-653l-187 -455h-153zM985 567l-293 719l-297 -719h590z" />
<glyph unicode="&#xc3;" horiz-adv-x="1384" d="M555 1772q-31 0 -53.5 -13.5t-32 -33t-13 -32.5t-3.5 -20h-86q0 16 8 43t26.5 62.5t58.5 60.5t93 25q48 0 92.5 -21.5t86 -43t83.5 -21.5q30 0 53 10t34.5 23t18.5 28.5t9 24.5t2 14h86q0 -11 -4.5 -30t-18.5 -47.5t-35 -52.5t-58.5 -41t-84.5 -17q-52 0 -99.5 20.5 t-87.5 41t-75 20.5zM633 1454h121l604 -1454h-152l-188 455h-653l-187 -455h-153zM985 567l-293 719l-297 -719h590z" />
<glyph unicode="&#xc4;" horiz-adv-x="1384" d="M479 1681v193h119v-193h-119zM784 1681v193h119v-193h-119zM633 1454h121l604 -1454h-152l-188 455h-653l-187 -455h-153zM985 567l-293 719l-297 -719h590z" />
<glyph unicode="&#xc5;" horiz-adv-x="1384" d="M692 1927q79 0 130.5 -48.5t51.5 -123.5t-51 -122.5t-131 -47.5q-79 0 -130.5 47.5t-51.5 122.5t52 123.5t130 48.5zM592 1755q0 -43 28.5 -71.5t71.5 -28.5q40 0 71.5 28.5t31.5 71.5q0 46 -29.5 73t-73.5 27q-43 0 -71.5 -27t-28.5 -73zM633 1454h121l604 -1454h-152 l-188 455h-653l-187 -455h-153zM985 567l-293 719l-297 -719h590z" />
<glyph unicode="&#xc6;" horiz-adv-x="1968" d="M883 1454h985v-127h-807v-522h696v-127h-696v-551h825v-127h-964v455h-531l-289 -455h-155zM911 582v700l-454 -700h454z" />
<glyph unicode="&#xc7;" horiz-adv-x="1404" d="M1341 326q-41 -92 -120.5 -164.5t-175 -114t-199.5 -55.5q110 -82 110 -187q0 -83 -57 -128.5t-156 -45.5q-120 0 -233 58l41 80q95 -45 170 -45q141 0 141 104q0 47 -30 84t-93 76q-140 7 -264 74.5t-208 172t-132.5 236t-48.5 266.5q0 133 47 261t132.5 232t219 168 t291.5 64q188 0 328.5 -86.5t208.5 -230.5l-113 -70q-45 92 -119 152t-151 83t-162 23q-101 0 -189 -34.5t-151.5 -93.5t-109 -136.5t-67.5 -164t-22 -175.5q0 -160 71 -300.5t197.5 -226t276.5 -85.5q86 0 169 27.5t159.5 90t120.5 152.5z" />
<glyph unicode="&#xc8;" horiz-adv-x="1247" d="M500 1880h145l123 -190l-90 -35zM1159 127v-127h-977v1454h959v-127h-815v-524h710v-121h-710v-555h833z" />
<glyph unicode="&#xc9;" horiz-adv-x="1247" d="M737 1653l-92 35l121 190h147zM1159 127v-127h-977v1454h959v-127h-815v-524h710v-121h-710v-555h833z" />
<glyph unicode="&#xca;" horiz-adv-x="1247" d="M438 1704l201 174h102l203 -174l-80 -43l-174 129l-174 -129zM1159 127v-127h-977v1454h959v-127h-815v-524h710v-121h-710v-555h833z" />
<glyph unicode="&#xcb;" horiz-adv-x="1247" d="M477 1681v193h119v-193h-119zM782 1681v193h119v-193h-119zM1159 127v-127h-977v1454h959v-127h-815v-524h710v-121h-710v-555h833z" />
<glyph unicode="&#xcc;" horiz-adv-x="507" d="M63 1880h146l123 -190l-90 -35zM182 0v1454h144v-1454h-144z" />
<glyph unicode="&#xcd;" horiz-adv-x="507" d="M301 1653l-92 35l121 190h147zM182 0v1454h144v-1454h-144z" />
<glyph unicode="&#xce;" horiz-adv-x="507" d="M2 1704l201 174h102l203 -174l-80 -43l-174 129l-174 -129zM182 0v1454h144v-1454h-144z" />
<glyph unicode="&#xcf;" horiz-adv-x="507" d="M41 1681v193h119v-193h-119zM346 1681v193h119v-193h-119zM182 0v1454h144v-1454h-144z" />
<glyph unicode="&#xd0;" horiz-adv-x="1476" d="M688 1454q136 0 250 -37t195.5 -103t138.5 -156.5t84.5 -199t27.5 -229.5q0 -331 -189.5 -530t-506.5 -199h-493v676h-125v110h125v668h493zM688 127q175 0 302 80t189 214.5t62 307.5q0 267 -146.5 432.5t-406.5 165.5h-350v-541h348v-110h-348v-549h350z" />
<glyph unicode="&#xd1;" horiz-adv-x="1581" d="M659 1772q-31 0 -53.5 -13.5t-32 -33t-13 -32.5t-3.5 -20h-86q0 16 8 43t26.5 62.5t58.5 60.5t93 25q48 0 92.5 -21.5t86.5 -43t84 -21.5q30 0 52.5 10t34 23t19 28.5t9 24.5t1.5 14h86q0 -15 -8.5 -41.5t-28.5 -61.5t-62.5 -60t-100.5 -25q-52 0 -99.5 20.5t-88 41 t-75.5 20.5zM326 1190v-1190h-144v1454h119l954 -1212v1210h144v-1452h-133z" />
<glyph unicode="&#xd2;" horiz-adv-x="1538" d="M580 1880h145l123 -190l-90 -35zM86 727q0 144 53 278.5t142.5 235.5t218 162t270.5 61q118 0 226 -41.5t189.5 -113.5t142 -166t91.5 -201.5t31 -216.5q0 -144 -52.5 -278t-142 -235t-217.5 -161.5t-270 -60.5q-148 0 -277.5 63t-217 166t-137.5 235.5t-50 272.5z M768 119q120 0 223 53t171 139t106.5 194.5t38.5 221.5q0 158 -68 296t-193 224t-278 86q-120 0 -223 -52.5t-171 -138t-106.5 -194t-38.5 -221.5q0 -118 40 -228t109.5 -194t171.5 -135t218 -51z" />
<glyph unicode="&#xd3;" horiz-adv-x="1538" d="M817 1653l-92 35l121 190h147zM86 727q0 144 53 278.5t142.5 235.5t218 162t270.5 61q118 0 226 -41.5t189.5 -113.5t142 -166t91.5 -201.5t31 -216.5q0 -144 -52.5 -278t-142 -235t-217.5 -161.5t-270 -60.5q-148 0 -277.5 63t-217 166t-137.5 235.5t-50 272.5zM768 119 q120 0 223 53t171 139t106.5 194.5t38.5 221.5q0 158 -68 296t-193 224t-278 86q-120 0 -223 -52.5t-171 -138t-106.5 -194t-38.5 -221.5q0 -118 40 -228t109.5 -194t171.5 -135t218 -51z" />
<glyph unicode="&#xd4;" horiz-adv-x="1538" d="M518 1704l201 174h102l203 -174l-80 -43l-174 129l-174 -129zM86 727q0 144 53 278.5t142.5 235.5t218 162t270.5 61q118 0 226 -41.5t189.5 -113.5t142 -166t91.5 -201.5t31 -216.5q0 -144 -52.5 -278t-142 -235t-217.5 -161.5t-270 -60.5q-148 0 -277.5 63t-217 166 t-137.5 235.5t-50 272.5zM768 119q120 0 223 53t171 139t106.5 194.5t38.5 221.5q0 158 -68 296t-193 224t-278 86q-120 0 -223 -52.5t-171 -138t-106.5 -194t-38.5 -221.5q0 -118 40 -228t109.5 -194t171.5 -135t218 -51z" />
<glyph unicode="&#xd5;" horiz-adv-x="1538" d="M633 1772q-31 0 -53.5 -13.5t-32 -32.5t-13.5 -32.5t-4 -20.5h-86q0 11 4.5 31t17.5 48.5t32.5 52.5t54.5 41.5t78 17.5q48 0 92.5 -21.5t86 -43t83.5 -21.5q30 0 53 10t34.5 23t18.5 28.5t9 24.5t2 14h86q0 -11 -4.5 -30t-18.5 -47.5t-35 -52.5t-58.5 -41t-84.5 -17 q-52 0 -99.5 20.5t-87.5 41t-75 20.5zM86 727q0 144 53 278.5t142.5 235.5t218 162t270.5 61q118 0 226 -41.5t189.5 -113.5t142 -166t91.5 -201.5t31 -216.5q0 -144 -52.5 -278t-142 -235t-217.5 -161.5t-270 -60.5q-148 0 -277.5 63t-217 166t-137.5 235.5t-50 272.5z M768 119q120 0 223 53t171 139t106.5 194.5t38.5 221.5q0 158 -68 296t-193 224t-278 86q-120 0 -223 -52.5t-171 -138t-106.5 -194t-38.5 -221.5q0 -118 40 -228t109.5 -194t171.5 -135t218 -51z" />
<glyph unicode="&#xd6;" horiz-adv-x="1538" d="M557 1681v193h119v-193h-119zM862 1681v193h119v-193h-119zM86 727q0 144 53 278.5t142.5 235.5t218 162t270.5 61q118 0 226 -41.5t189.5 -113.5t142 -166t91.5 -201.5t31 -216.5q0 -144 -52.5 -278t-142 -235t-217.5 -161.5t-270 -60.5q-148 0 -277.5 63t-217 166 t-137.5 235.5t-50 272.5zM768 119q120 0 223 53t171 139t106.5 194.5t38.5 221.5q0 158 -68 296t-193 224t-278 86q-120 0 -223 -52.5t-171 -138t-106.5 -194t-38.5 -221.5q0 -118 40 -228t109.5 -194t171.5 -135t218 -51z" />
<glyph unicode="&#xd7;" horiz-adv-x="935" d="M807 309l-90 -88l-250 248l-248 -248l-88 90l248 246l-246 248l90 88l244 -246l248 248l88 -90l-246 -248z" />
<glyph unicode="&#xd8;" horiz-adv-x="1538" d="M1217 1280q110 -107 171.5 -254t61.5 -301q0 -144 -52.5 -278t-142 -235t-217.5 -161.5t-270 -60.5q-188 0 -344 100l-59 -90h-158l112 170q-110 106 -171.5 253t-61.5 304q0 144 53 278.5t142.5 235.5t218 162t270.5 61q187 0 342 -102l62 92h157zM229 727 q0 -125 43.5 -240t122.5 -202l643 966q-125 82 -270 82q-120 0 -223 -52.5t-171 -138t-106.5 -194t-38.5 -221.5zM768 119q120 0 223 53t171 139t106.5 194.5t38.5 221.5q0 124 -43.5 238.5t-122.5 199.5l-643 -966q127 -80 270 -80z" />
<glyph unicode="&#xd9;" horiz-adv-x="1546" d="M584 1880h145l123 -190l-90 -35zM774 -10q-134 0 -240 41t-175 109t-114 163.5t-64 198.5t-19 219v733h141v-733q0 -96 14 -180t48 -163t86 -135.5t134 -90t187 -33.5q107 0 190.5 34.5t135.5 91.5t85.5 136.5t46.5 162.5t13 177v733h143v-733q0 -121 -20.5 -226.5 t-67 -199.5t-116 -160.5t-174 -105.5t-234.5 -39z" />
<glyph unicode="&#xda;" horiz-adv-x="1546" d="M821 1653l-92 35l121 190h147zM774 -10q-134 0 -240 41t-175 109t-114 163.5t-64 198.5t-19 219v733h141v-733q0 -96 14 -180t48 -163t86 -135.5t134 -90t187 -33.5q107 0 190.5 34.5t135.5 91.5t85.5 136.5t46.5 162.5t13 177v733h143v-733q0 -121 -20.5 -226.5 t-67 -199.5t-116 -160.5t-174 -105.5t-234.5 -39z" />
<glyph unicode="&#xdb;" horiz-adv-x="1546" d="M522 1704l201 174h102l203 -174l-80 -43l-174 129l-174 -129zM774 -10q-134 0 -240 41t-175 109t-114 163.5t-64 198.5t-19 219v733h141v-733q0 -96 14 -180t48 -163t86 -135.5t134 -90t187 -33.5q107 0 190.5 34.5t135.5 91.5t85.5 136.5t46.5 162.5t13 177v733h143 v-733q0 -121 -20.5 -226.5t-67 -199.5t-116 -160.5t-174 -105.5t-234.5 -39z" />
<glyph unicode="&#xdc;" horiz-adv-x="1546" d="M561 1681v193h119v-193h-119zM866 1681v193h119v-193h-119zM774 -10q-134 0 -240 41t-175 109t-114 163.5t-64 198.5t-19 219v733h141v-733q0 -96 14 -180t48 -163t86 -135.5t134 -90t187 -33.5q107 0 190.5 34.5t135.5 91.5t85.5 136.5t46.5 162.5t13 177v733h143v-733 q0 -121 -20.5 -226.5t-67 -199.5t-116 -160.5t-174 -105.5t-234.5 -39z" />
<glyph unicode="&#xdd;" horiz-adv-x="1333" d="M713 1653l-92 35l120 190h148zM190 1454l476 -782l479 782h155l-563 -913v-541h-143v545l-561 909h157z" />
<glyph unicode="&#xde;" horiz-adv-x="1234" d="M1178 709q0 -120 -51.5 -224.5t-148.5 -170.5t-218 -66h-434v-248h-144v1454h144v-289h419q121 0 222.5 -67.5t156 -171.5t54.5 -217zM1036 709q0 132 -87.5 230.5t-207.5 98.5h-415v-661h428q84 0 149.5 48t99 123t33.5 161z" />
<glyph unicode="&#xdf;" horiz-adv-x="1128" d="M487 117q197 3 308.5 82t111.5 233q0 144 -94.5 233t-247.5 89h-39v127h37q109 0 178.5 65t69.5 168q0 105 -72.5 165t-179.5 60q-130 0 -201 -86t-71 -219v-1034h-133v1055q0 181 114 294t295 113q164 0 272.5 -91.5t108.5 -235.5q0 -108 -62.5 -198t-152.5 -112 q150 -32 236 -141t86 -260q0 -203 -152 -315.5t-412 -120.5v129z" />
<glyph unicode="&#xe0;" horiz-adv-x="1116" d="M348 1497h146l122 -190l-90 -35zM68 307q0 147 124.5 236.5t325.5 89.5q172 0 311 -49v90q0 136 -80.5 215.5t-220.5 79.5q-161 0 -342 -125l-53 98q208 143 410 143q197 0 311.5 -113t114.5 -310v-494q0 -29 12 -42t39 -15v-111q-50 -6 -64 -4q-49 1 -76.5 30.5 t-29.5 67.5l-2 78q-71 -90 -185 -141t-235 -51q-155 0 -257.5 94.5t-102.5 232.5zM782 225q47 53 47 103v155q-139 56 -294 56q-151 0 -242.5 -60.5t-91.5 -161.5q0 -94 71 -162.5t189 -68.5q99 0 186 38.5t135 100.5z" />
<glyph unicode="&#xe1;" horiz-adv-x="1116" d="M586 1270l-92 35l120 190h148zM68 307q0 147 124.5 236.5t325.5 89.5q172 0 311 -49v90q0 136 -80.5 215.5t-220.5 79.5q-161 0 -342 -125l-53 98q208 143 410 143q197 0 311.5 -113t114.5 -310v-494q0 -29 12 -42t39 -15v-111q-50 -6 -64 -4q-49 1 -76.5 30.5 t-29.5 67.5l-2 78q-71 -90 -185 -141t-235 -51q-155 0 -257.5 94.5t-102.5 232.5zM782 225q47 53 47 103v155q-139 56 -294 56q-151 0 -242.5 -60.5t-91.5 -161.5q0 -94 71 -162.5t189 -68.5q99 0 186 38.5t135 100.5z" />
<glyph unicode="&#xe2;" horiz-adv-x="1116" d="M287 1321l200 174h103l203 -174l-80 -43l-174 129l-174 -129zM68 307q0 147 124.5 236.5t325.5 89.5q172 0 311 -49v90q0 136 -80.5 215.5t-220.5 79.5q-161 0 -342 -125l-53 98q208 143 410 143q197 0 311.5 -113t114.5 -310v-494q0 -29 12 -42t39 -15v-111 q-50 -6 -64 -4q-49 1 -76.5 30.5t-29.5 67.5l-2 78q-71 -90 -185 -141t-235 -51q-155 0 -257.5 94.5t-102.5 232.5zM782 225q47 53 47 103v155q-139 56 -294 56q-151 0 -242.5 -60.5t-91.5 -161.5q0 -94 71 -162.5t189 -68.5q99 0 186 38.5t135 100.5z" />
<glyph unicode="&#xe3;" horiz-adv-x="1116" d="M401 1389q-31 0 -53.5 -13.5t-32 -33t-13 -32.5t-3.5 -20h-86q0 16 8 43t26.5 62.5t58.5 60.5t93 25q48 0 92.5 -21.5t86.5 -43t84 -21.5q30 0 52.5 10t34 23t19 28.5t9 24.5t1.5 14h86q0 -15 -8.5 -41.5t-28.5 -61.5t-62.5 -60t-100.5 -25q-52 0 -99.5 20.5t-88 41 t-75.5 20.5zM68 307q0 147 124.5 236.5t325.5 89.5q172 0 311 -49v90q0 136 -80.5 215.5t-220.5 79.5q-161 0 -342 -125l-53 98q208 143 410 143q197 0 311.5 -113t114.5 -310v-494q0 -29 12 -42t39 -15v-111q-50 -6 -64 -4q-49 1 -76.5 30.5t-29.5 67.5l-2 78 q-71 -90 -185 -141t-235 -51q-155 0 -257.5 94.5t-102.5 232.5zM782 225q47 53 47 103v155q-139 56 -294 56q-151 0 -242.5 -60.5t-91.5 -161.5q0 -94 71 -162.5t189 -68.5q99 0 186 38.5t135 100.5z" />
<glyph unicode="&#xe4;" horiz-adv-x="1116" d="M326 1298v193h118v-193h-118zM631 1298v193h119v-193h-119zM68 307q0 147 124.5 236.5t325.5 89.5q172 0 311 -49v90q0 136 -80.5 215.5t-220.5 79.5q-161 0 -342 -125l-53 98q208 143 410 143q197 0 311.5 -113t114.5 -310v-494q0 -29 12 -42t39 -15v-111q-50 -6 -64 -4 q-49 1 -76.5 30.5t-29.5 67.5l-2 78q-71 -90 -185 -141t-235 -51q-155 0 -257.5 94.5t-102.5 232.5zM782 225q47 53 47 103v155q-139 56 -294 56q-151 0 -242.5 -60.5t-91.5 -161.5q0 -94 71 -162.5t189 -68.5q99 0 186 38.5t135 100.5z" />
<glyph unicode="&#xe5;" horiz-adv-x="1116" d="M539 1544q79 0 130.5 -48.5t51.5 -123.5t-51 -122.5t-131 -47.5q-79 0 -131 48t-52 122q0 75 52.5 123.5t130.5 48.5zM438 1372q0 -43 29 -71.5t72 -28.5q40 0 71 28.5t31 71.5q0 46 -29 73.5t-73 27.5q-43 0 -72 -27.5t-29 -73.5zM68 307q0 147 124.5 236.5t325.5 89.5 q172 0 311 -49v90q0 136 -80.5 215.5t-220.5 79.5q-161 0 -342 -125l-53 98q208 143 410 143q197 0 311.5 -113t114.5 -310v-494q0 -29 12 -42t39 -15v-111q-50 -6 -64 -4q-49 1 -76.5 30.5t-29.5 67.5l-2 78q-71 -90 -185 -141t-235 -51q-155 0 -257.5 94.5t-102.5 232.5z M782 225q47 53 47 103v155q-139 56 -294 56q-151 0 -242.5 -60.5t-91.5 -161.5q0 -94 71 -162.5t189 -68.5q99 0 186 38.5t135 100.5z" />
<glyph unicode="&#xe6;" horiz-adv-x="1908" d="M68 311q0 141 124 231.5t320 90.5q143 0 274 -41q7 90 35 156q-20 110 -97 171.5t-198 61.5q-158 0 -342 -127l-49 92q210 139 404 139q131 0 225.5 -55.5t142.5 -157.5q68 98 175 155.5t233 57.5q152 0 274.5 -75t189.5 -201t68 -277l-2 -49h-927q13 -171 130.5 -284 t278.5 -113q105 0 197.5 54t128.5 139l123 -33q-52 -118 -176.5 -192t-278.5 -74q-137 0 -252.5 63.5t-187.5 171.5q-63 -116 -193.5 -175.5t-267.5 -59.5q-149 0 -250.5 95.5t-101.5 235.5zM1714 578q-14 175 -126 287t-275 112t-274.5 -113t-120.5 -286h796zM793 236 q33 38 36 71q-39 77 -43 197q-121 41 -256 41q-148 0 -239.5 -61.5t-91.5 -161.5q0 -99 74 -167.5t180 -68.5q108 0 200 41t140 109z" />
<glyph unicode="&#xe7;" horiz-adv-x="1124" d="M1059 244q-38 -98 -134 -168t-220 -90q100 -80 100 -181q0 -83 -57 -128.5t-156 -45.5q-121 0 -234 58l41 80q95 -45 170 -45q142 0 142 104q0 83 -111 152q-148 4 -268 81t-186 202.5t-66 273.5q0 151 67 276t190 198.5t277 73.5q149 0 263 -68t172 -186l-136 -43 q-44 82 -125.5 128.5t-179.5 46.5q-164 0 -275.5 -122t-111.5 -304q0 -180 115 -307.5t274 -127.5q102 0 194.5 54.5t117.5 128.5z" />
<glyph unicode="&#xe8;" horiz-adv-x="1202" d="M418 1497h145l123 -190l-90 -35zM614 -20q-151 0 -274.5 76t-191.5 203.5t-68 277.5q0 148 68 273.5t191 200t273 74.5q152 0 274.5 -75.5t188.5 -200t66 -270.5q0 -46 -2 -56h-914q13 -171 127 -284t269 -113q105 0 197 53.5t130 139.5l121 -33q-50 -118 -175.5 -192 t-279.5 -74zM221 584h789q-13 172 -125.5 282.5t-270.5 110.5t-270.5 -111t-122.5 -282z" />
<glyph unicode="&#xe9;" horiz-adv-x="1202" d="M655 1270l-92 35l121 190h147zM614 -20q-151 0 -274.5 76t-191.5 203.5t-68 277.5q0 148 68 273.5t191 200t273 74.5q152 0 274.5 -75.5t188.5 -200t66 -270.5q0 -46 -2 -56h-914q13 -171 127 -284t269 -113q105 0 197 53.5t130 139.5l121 -33q-50 -118 -175.5 -192 t-279.5 -74zM221 584h789q-13 172 -125.5 282.5t-270.5 110.5t-270.5 -111t-122.5 -282z" />
<glyph unicode="&#xea;" horiz-adv-x="1202" d="M356 1321l201 174h102l203 -174l-80 -43l-174 129l-174 -129zM614 -20q-151 0 -274.5 76t-191.5 203.5t-68 277.5q0 148 68 273.5t191 200t273 74.5q152 0 274.5 -75.5t188.5 -200t66 -270.5q0 -46 -2 -56h-914q13 -171 127 -284t269 -113q105 0 197 53.5t130 139.5 l121 -33q-50 -118 -175.5 -192t-279.5 -74zM221 584h789q-13 172 -125.5 282.5t-270.5 110.5t-270.5 -111t-122.5 -282z" />
<glyph unicode="&#xeb;" horiz-adv-x="1202" d="M395 1298v193h119v-193h-119zM700 1298v193h119v-193h-119zM614 -20q-151 0 -274.5 76t-191.5 203.5t-68 277.5q0 148 68 273.5t191 200t273 74.5q152 0 274.5 -75.5t188.5 -200t66 -270.5q0 -46 -2 -56h-914q13 -171 127 -284t269 -113q105 0 197 53.5t130 139.5 l121 -33q-50 -118 -175.5 -192t-279.5 -74zM221 584h789q-13 172 -125.5 282.5t-270.5 110.5t-270.5 -111t-122.5 -282z" />
<glyph unicode="&#xec;" horiz-adv-x="446" d="M33 1497h145l123 -190l-90 -35zM154 0v1067h139v-1067h-139z" />
<glyph unicode="&#xed;" horiz-adv-x="446" d="M270 1270l-92 35l121 190h147zM154 0v1067h139v-1067h-139z" />
<glyph unicode="&#xee;" horiz-adv-x="446" d="M-29 1321l201 174h102l203 -174l-80 -43l-174 129l-174 -129zM154 0v1067h139v-1067h-139z" />
<glyph unicode="&#xef;" horiz-adv-x="446" d="M10 1298v193h119v-193h-119zM315 1298v193h119v-193h-119zM154 0v1067h139v-1067h-139z" />
<glyph unicode="&#xf0;" horiz-adv-x="1232" d="M848 1296q297 -300 297 -729q0 -129 -43 -240t-116.5 -186.5t-172 -118t-207.5 -42.5q-105 0 -201 39t-166 105.5t-111.5 158.5t-41.5 194q0 132 67.5 246t183.5 181t251 67q134 0 247 -66.5t169 -173.5q-46 296 -263 510l-231 -143l-45 63l219 133q-116 99 -295 201h197 q112 -65 205 -145l178 110l45 -61zM610 102q163 0 278.5 116.5t115.5 275.5q0 151 -113.5 255.5t-274.5 104.5t-275 -111t-114 -268q0 -155 112 -264t271 -109z" />
<glyph unicode="&#xf1;" horiz-adv-x="1193" d="M469 1389q-31 0 -53.5 -13.5t-32 -33t-13 -32.5t-3.5 -20h-86q0 16 8 43t26.5 62.5t58.5 60.5t93 25q48 0 92.5 -21.5t86 -43t83.5 -21.5q30 0 53 10t34.5 23t18.5 28.5t9 24.5t2 14h86q0 -11 -4.5 -30t-18.5 -47.5t-35 -52.5t-58.5 -41t-84.5 -17q-52 0 -99.5 20.5 t-87.5 41t-75 20.5zM1051 0h-140v596q0 188 -55.5 275t-173.5 87q-125 0 -238 -87.5t-151 -217.5v-653h-139v1067h127v-242q65 118 187.5 189t264.5 71q87 0 149.5 -31.5t99 -93.5t53 -144t16.5 -191v-625z" />
<glyph unicode="&#xf2;" d="M418 1497h145l123 -190l-90 -35zM80 530q0 111 40 212.5t109 177t168 120.5t211 45q150 0 272.5 -76t190.5 -203t68 -276q0 -148 -67.5 -273.5t-190 -201t-273.5 -75.5t-273 75.5t-188.5 201t-66.5 273.5zM608 102q160 0 274.5 126t114.5 304t-114.5 304.5t-274.5 126.5 q-104 0 -193 -58t-141.5 -158.5t-52.5 -218.5q0 -178 113.5 -302t273.5 -124z" />
<glyph unicode="&#xf3;" d="M655 1270l-92 35l121 190h147zM80 530q0 111 40 212.5t109 177t168 120.5t211 45q150 0 272.5 -76t190.5 -203t68 -276q0 -148 -67.5 -273.5t-190 -201t-273.5 -75.5t-273 75.5t-188.5 201t-66.5 273.5zM608 102q160 0 274.5 126t114.5 304t-114.5 304.5t-274.5 126.5 q-104 0 -193 -58t-141.5 -158.5t-52.5 -218.5q0 -178 113.5 -302t273.5 -124z" />
<glyph unicode="&#xf4;" d="M356 1321l201 174h102l203 -174l-80 -43l-174 129l-174 -129zM80 530q0 111 40 212.5t109 177t168 120.5t211 45q150 0 272.5 -76t190.5 -203t68 -276q0 -148 -67.5 -273.5t-190 -201t-273.5 -75.5t-273 75.5t-188.5 201t-66.5 273.5zM608 102q160 0 274.5 126t114.5 304 t-114.5 304.5t-274.5 126.5q-104 0 -193 -58t-141.5 -158.5t-52.5 -218.5q0 -178 113.5 -302t273.5 -124z" />
<glyph unicode="&#xf5;" d="M471 1389q-31 0 -53.5 -13.5t-32 -33t-13 -32.5t-3.5 -20h-86q0 16 8 43t26.5 62.5t58.5 60.5t93 25q48 0 92.5 -21.5t86 -43t83.5 -21.5q30 0 53 10t34.5 23t18.5 28.5t9 24.5t2 14h86q0 -11 -4.5 -30t-18.5 -47.5t-35 -52.5t-58.5 -41t-84.5 -17q-52 0 -99.5 20.5 t-87.5 41t-75 20.5zM80 530q0 111 40 212.5t109 177t168 120.5t211 45q150 0 272.5 -76t190.5 -203t68 -276q0 -148 -67.5 -273.5t-190 -201t-273.5 -75.5t-273 75.5t-188.5 201t-66.5 273.5zM608 102q160 0 274.5 126t114.5 304t-114.5 304.5t-274.5 126.5q-104 0 -193 -58 t-141.5 -158.5t-52.5 -218.5q0 -178 113.5 -302t273.5 -124z" />
<glyph unicode="&#xf6;" d="M395 1298v193h119v-193h-119zM700 1298v193h119v-193h-119zM80 530q0 111 40 212.5t109 177t168 120.5t211 45q150 0 272.5 -76t190.5 -203t68 -276q0 -148 -67.5 -273.5t-190 -201t-273.5 -75.5t-273 75.5t-188.5 201t-66.5 273.5zM608 102q160 0 274.5 126t114.5 304 t-114.5 304.5t-274.5 126.5q-104 0 -193 -58t-141.5 -158.5t-52.5 -218.5q0 -178 113.5 -302t273.5 -124z" />
<glyph unicode="&#xf7;" horiz-adv-x="1099" d="M489 817v187h121v-187h-121zM137 520v117h826v-117h-826zM489 152v184h121v-184h-121z" />
<glyph unicode="&#xf8;" d="M958 950q86 -77 133.5 -187t47.5 -233q0 -148 -67.5 -273.5t-190 -201t-273.5 -75.5q-148 0 -272 75l-45 -57h-123l90 117q-84 76 -131 184.5t-47 230.5q0 111 40 212.5t109 177t168 120.5t211 45q147 0 271 -75l45 61h127zM221 528q0 -185 123 -311l455 690 q-88 56 -191 56q-104 0 -193 -58t-141.5 -158.5t-52.5 -218.5zM608 102q160 0 274.5 126t114.5 304q0 91 -32.5 171.5t-90.5 140.5l-456 -686q88 -56 190 -56z" />
<glyph unicode="&#xf9;" horiz-adv-x="1216" d="M403 1497h146l123 -190l-90 -35zM143 440v627h140v-602q0 -363 247 -363q124 0 231 80.5t154 212.5v672h140v-899q0 -29 11.5 -42t37.5 -15v-111q-33 -4 -66 -4q-43 3 -71.5 32t-30.5 70l-4 144q-68 -123 -188 -192.5t-261 -69.5q-167 0 -253.5 116.5t-86.5 343.5z" />
<glyph unicode="&#xfa;" horiz-adv-x="1216" d="M641 1270l-92 35l121 190h147zM143 440v627h140v-602q0 -363 247 -363q124 0 231 80.5t154 212.5v672h140v-899q0 -29 11.5 -42t37.5 -15v-111q-33 -4 -66 -4q-43 3 -71.5 32t-30.5 70l-4 144q-68 -123 -188 -192.5t-261 -69.5q-167 0 -253.5 116.5t-86.5 343.5z" />
<glyph unicode="&#xfb;" horiz-adv-x="1216" d="M342 1321l201 174h102l203 -174l-80 -43l-174 129l-174 -129zM143 440v627h140v-602q0 -363 247 -363q124 0 231 80.5t154 212.5v672h140v-899q0 -29 11.5 -42t37.5 -15v-111q-33 -4 -66 -4q-43 3 -71.5 32t-30.5 70l-4 144q-68 -123 -188 -192.5t-261 -69.5 q-167 0 -253.5 116.5t-86.5 343.5z" />
<glyph unicode="&#xfc;" horiz-adv-x="1216" d="M381 1298v193h119v-193h-119zM686 1298v193h119v-193h-119zM143 440v627h140v-602q0 -363 247 -363q124 0 231 80.5t154 212.5v672h140v-899q0 -29 11.5 -42t37.5 -15v-111q-33 -4 -66 -4q-43 3 -71.5 32t-30.5 70l-4 144q-68 -123 -188 -192.5t-261 -69.5 q-167 0 -253.5 116.5t-86.5 343.5z" />
<glyph unicode="&#xfd;" horiz-adv-x="1110" d="M616 1270l-92 35l121 190h148zM215 -328q77 -4 94 0q37 4 69.5 61.5t117.5 266.5l-465 1067h147l391 -924l361 924h139l-553 -1376q-56 -145 -217 -148q-41 -3 -84 4v125z" />
<glyph unicode="&#xfe;" horiz-adv-x="1234" d="M633 -33q-107 0 -198 53.5t-140 131.5v-588h-141v1890h141v-565q141 201 356 201q114 0 211.5 -50.5t160.5 -131.5t98.5 -180.5t35.5 -201.5q-3 -147 -72 -275t-189 -206t-263 -78zM645 963q-115 0 -204 -70.5t-146 -179.5v-361q0 -63 54.5 -124t132.5 -96.5t149 -35.5 q108 0 197 62t137.5 160.5t48.5 209.5q0 113 -45.5 212t-131 161t-192.5 62z" />
<glyph unicode="&#xff;" horiz-adv-x="1110" d="M356 1298v193h119v-193h-119zM662 1298v193h118v-193h-118zM215 -328q77 -4 94 0q37 4 69.5 61.5t117.5 266.5l-465 1067h147l391 -924l361 924h139l-553 -1376q-56 -145 -217 -148q-41 -3 -84 4v125z" />
<glyph unicode="&#x100;" horiz-adv-x="1384" d="M397 1741v96h592v-96h-592zM633 1454h121l604 -1454h-152l-188 455h-653l-187 -455h-153zM985 567l-293 719l-297 -719h590z" />
<glyph unicode="&#x101;" horiz-adv-x="1116" d="M244 1358v96h592v-96h-592zM68 307q0 147 124.5 236.5t325.5 89.5q172 0 311 -49v90q0 136 -80.5 215.5t-220.5 79.5q-161 0 -342 -125l-53 98q208 143 410 143q197 0 311.5 -113t114.5 -310v-494q0 -29 12 -42t39 -15v-111q-50 -6 -64 -4q-49 1 -76.5 30.5t-29.5 67.5 l-2 78q-71 -90 -185 -141t-235 -51q-155 0 -257.5 94.5t-102.5 232.5zM782 225q47 53 47 103v155q-139 56 -294 56q-151 0 -242.5 -60.5t-91.5 -161.5q0 -94 71 -162.5t189 -68.5q99 0 186 38.5t135 100.5z" />
<glyph unicode="&#x102;" horiz-adv-x="1384" d="M809 1878h84q0 -87 -58.5 -147t-142.5 -60q-85 0 -142.5 59.5t-57.5 147.5h86q0 -52 35 -93.5t79 -41.5q43 0 77 39t40 96zM633 1454h121l604 -1454h-152l-188 455h-653l-187 -455h-153zM985 567l-293 719l-297 -719h590z" />
<glyph unicode="&#x103;" horiz-adv-x="1116" d="M655 1495h84q0 -87 -58 -147t-142 -60q-85 0 -143 59.5t-58 147.5h86q0 -52 35.5 -93.5t79.5 -41.5q43 0 76.5 39t39.5 96zM68 307q0 147 124.5 236.5t325.5 89.5q172 0 311 -49v90q0 136 -80.5 215.5t-220.5 79.5q-161 0 -342 -125l-53 98q208 143 410 143 q197 0 311.5 -113t114.5 -310v-494q0 -29 12 -42t39 -15v-111q-50 -6 -64 -4q-49 1 -76.5 30.5t-29.5 67.5l-2 78q-71 -90 -185 -141t-235 -51q-155 0 -257.5 94.5t-102.5 232.5zM782 225q47 53 47 103v155q-139 56 -294 56q-151 0 -242.5 -60.5t-91.5 -161.5 q0 -94 71 -162.5t189 -68.5q99 0 186 38.5t135 100.5z" />
<glyph unicode="&#x104;" horiz-adv-x="1384" d="M1198 -197q0 -38 37.5 -56t118.5 -28l-35 -92q-219 22 -219 158q0 109 139 215h-33l-188 455h-653l-187 -455h-153l608 1454h121l604 -1454q-85 -64 -122.5 -110.5t-37.5 -86.5zM395 567h590l-293 719z" />
<glyph unicode="&#x105;" horiz-adv-x="1116" d="M1020 0q-85 -64 -122.5 -110.5t-37.5 -86.5q0 -38 37.5 -56t118.5 -28l-35 -92q-219 22 -219 158q0 112 147 221q-55 25 -59 88l-2 78q-71 -90 -185 -141t-235 -51q-155 0 -257.5 94.5t-102.5 232.5q0 147 124.5 236.5t325.5 89.5q172 0 311 -49v90q0 136 -80.5 215.5 t-220.5 79.5q-161 0 -342 -125l-53 98q208 143 410 143q197 0 311.5 -113t114.5 -310v-494q0 -29 12 -42t39 -15v-111zM829 328v155q-139 56 -294 56q-151 0 -242.5 -60.5t-91.5 -161.5q0 -94 71 -162.5t189 -68.5q99 0 186 38.5t135 100.5q47 53 47 103z" />
<glyph unicode="&#x106;" horiz-adv-x="1404" d="M819 1653l-92 35l121 190h147zM776 1462q188 0 328.5 -86.5t208.5 -230.5l-113 -70q-45 92 -119 152t-151 83t-162 23q-101 0 -189 -34.5t-151.5 -93.5t-109 -136.5t-67.5 -164t-22 -175.5q0 -160 71 -300.5t197.5 -226t276.5 -85.5q86 0 169 27.5t159.5 90t120.5 152.5 l118 -61q-45 -104 -140.5 -182.5t-208 -117t-226.5 -38.5q-116 0 -223 42t-189 115.5t-143 168t-93 204t-32 219.5q0 133 47 261t132.5 232t219 168t291.5 64z" />
<glyph unicode="&#x107;" horiz-adv-x="1124" d="M657 1270l-92 35l121 190h148zM616 -20q-152 0 -275.5 76t-192 203t-68.5 278t67 276t190 198.5t277 73.5q149 0 263 -68t172 -186l-136 -43q-44 82 -125.5 128.5t-179.5 46.5q-164 0 -275.5 -122t-111.5 -304q0 -180 115 -307.5t274 -127.5q102 0 194.5 54.5 t117.5 128.5l137 -41q-45 -116 -167.5 -190t-275.5 -74z" />
<glyph unicode="&#x108;" horiz-adv-x="1404" d="M520 1704l201 174h102l203 -174l-80 -43l-174 129l-174 -129zM776 1462q188 0 328.5 -86.5t208.5 -230.5l-113 -70q-45 92 -119 152t-151 83t-162 23q-101 0 -189 -34.5t-151.5 -93.5t-109 -136.5t-67.5 -164t-22 -175.5q0 -160 71 -300.5t197.5 -226t276.5 -85.5 q86 0 169 27.5t159.5 90t120.5 152.5l118 -61q-45 -104 -140.5 -182.5t-208 -117t-226.5 -38.5q-116 0 -223 42t-189 115.5t-143 168t-93 204t-32 219.5q0 133 47 261t132.5 232t219 168t291.5 64z" />
<glyph unicode="&#x109;" horiz-adv-x="1124" d="M358 1321l201 174h103l202 -174l-80 -43l-174 129l-174 -129zM616 -20q-152 0 -275.5 76t-192 203t-68.5 278t67 276t190 198.5t277 73.5q149 0 263 -68t172 -186l-136 -43q-44 82 -125.5 128.5t-179.5 46.5q-164 0 -275.5 -122t-111.5 -304q0 -180 115 -307.5 t274 -127.5q102 0 194.5 54.5t117.5 128.5l137 -41q-45 -116 -167.5 -190t-275.5 -74z" />
<glyph unicode="&#x10a;" horiz-adv-x="1404" d="M709 1679v199h127v-199h-127zM776 1462q188 0 328.5 -86.5t208.5 -230.5l-113 -70q-45 92 -119 152t-151 83t-162 23q-101 0 -189 -34.5t-151.5 -93.5t-109 -136.5t-67.5 -164t-22 -175.5q0 -160 71 -300.5t197.5 -226t276.5 -85.5q86 0 169 27.5t159.5 90t120.5 152.5 l118 -61q-45 -104 -140.5 -182.5t-208 -117t-226.5 -38.5q-116 0 -223 42t-189 115.5t-143 168t-93 204t-32 219.5q0 133 47 261t132.5 232t219 168t291.5 64z" />
<glyph unicode="&#x10b;" horiz-adv-x="1124" d="M547 1296v199h127v-199h-127zM616 -20q-152 0 -275.5 76t-192 203t-68.5 278t67 276t190 198.5t277 73.5q149 0 263 -68t172 -186l-136 -43q-44 82 -125.5 128.5t-179.5 46.5q-164 0 -275.5 -122t-111.5 -304q0 -180 115 -307.5t274 -127.5q102 0 194.5 54.5t117.5 128.5 l137 -41q-45 -116 -167.5 -190t-275.5 -74z" />
<glyph unicode="&#x10c;" horiz-adv-x="1404" d="M598 1878l174 -129l174 129l80 -41l-203 -176h-102l-201 176zM776 1462q188 0 328.5 -86.5t208.5 -230.5l-113 -70q-45 92 -119 152t-151 83t-162 23q-101 0 -189 -34.5t-151.5 -93.5t-109 -136.5t-67.5 -164t-22 -175.5q0 -160 71 -300.5t197.5 -226t276.5 -85.5 q86 0 169 27.5t159.5 90t120.5 152.5l118 -61q-45 -104 -140.5 -182.5t-208 -117t-226.5 -38.5q-116 0 -223 42t-189 115.5t-143 168t-93 204t-32 219.5q0 133 47 261t132.5 232t219 168t291.5 64z" />
<glyph unicode="&#x10d;" horiz-adv-x="1124" d="M436 1495l174 -129l174 129l80 -41l-202 -176h-103l-201 176zM616 -20q-152 0 -275.5 76t-192 203t-68.5 278t67 276t190 198.5t277 73.5q149 0 263 -68t172 -186l-136 -43q-44 82 -125.5 128.5t-179.5 46.5q-164 0 -275.5 -122t-111.5 -304q0 -180 115 -307.5 t274 -127.5q102 0 194.5 54.5t117.5 128.5l137 -41q-45 -116 -167.5 -190t-275.5 -74z" />
<glyph unicode="&#x10e;" horiz-adv-x="1464" d="M530 1878l175 -129l174 129l79 -41l-202 -176h-103l-200 176zM182 0v1454h494q136 0 250 -37t195.5 -103t138.5 -156.5t84.5 -199t27.5 -229.5q0 -331 -189.5 -530t-506.5 -199h-494zM676 1327h-350v-1200h350q175 0 302 80t189 214.5t62 307.5q0 267 -146.5 432.5 t-406.5 165.5z" />
<glyph unicode="&#x10f;" horiz-adv-x="1273" d="M82 530q0 150 62 276.5t174.5 202.5t250.5 76q127 0 233.5 -67.5t170.5 -173.5v651h139v-1327q0 -29 11.5 -42t37.5 -15v-111q-44 -6 -63 -4q-44 3 -76.5 34.5t-32.5 71.5v105q-63 -104 -171 -165.5t-226 -61.5q-108 0 -204.5 45.5t-162.5 121.5t-104.5 176t-38.5 207z M1280 1270l-92 35l121 190h147zM973 367v329q-40 110 -149 188.5t-220 78.5q-110 0 -198.5 -63t-134.5 -161t-46 -209q0 -114 52.5 -212.5t144.5 -157t201 -58.5t221 80t129 185z" />
<glyph unicode="&#x110;" horiz-adv-x="1476" d="M688 1454q136 0 250 -37t195.5 -103t138.5 -156.5t84.5 -199t27.5 -229.5q0 -331 -189.5 -530t-506.5 -199h-493v676h-125v110h125v668h493zM688 127q175 0 302 80t189 214.5t62 307.5q0 267 -146.5 432.5t-406.5 165.5h-350v-541h348v-110h-348v-549h350z" />
<glyph unicode="&#x111;" horiz-adv-x="1273" d="M1255 1264h-143v-1096q0 -29 11.5 -42t37.5 -15v-111q-44 -6 -63 -4q-44 3 -76.5 34.5t-32.5 71.5v105q-63 -104 -171 -165.5t-226 -61.5q-108 0 -204.5 45.5t-162.5 121.5t-104.5 176t-38.5 207q0 150 62 276.5t174.5 202.5t250.5 76q127 0 233.5 -67.5t170.5 -173.5 v420h-234v94h234v137h139v-137h143v-94zM973 367v329q-40 110 -149 188.5t-220 78.5q-110 0 -198.5 -63t-134.5 -161t-46 -209q0 -114 52.5 -212.5t144.5 -157t201 -58.5t221 80t129 185z" />
<glyph unicode="&#x112;" horiz-adv-x="1247" d="M395 1741v96h592v-96h-592zM1159 127v-127h-977v1454h959v-127h-815v-524h710v-121h-710v-555h833z" />
<glyph unicode="&#x113;" horiz-adv-x="1202" d="M313 1358v96h592v-96h-592zM614 -20q-151 0 -274.5 76t-191.5 203.5t-68 277.5q0 148 68 273.5t191 200t273 74.5q152 0 274.5 -75.5t188.5 -200t66 -270.5q0 -46 -2 -56h-914q13 -171 127 -284t269 -113q105 0 197 53.5t130 139.5l121 -33q-50 -118 -175.5 -192 t-279.5 -74zM221 584h789q-13 172 -125.5 282.5t-270.5 110.5t-270.5 -111t-122.5 -282z" />
<glyph unicode="&#x114;" horiz-adv-x="1247" d="M807 1878h84q0 -87 -58.5 -147t-142.5 -60q-85 0 -143 59.5t-58 147.5h86q0 -52 35.5 -93.5t79.5 -41.5q43 0 77 39t40 96zM1159 127v-127h-977v1454h959v-127h-815v-524h710v-121h-710v-555h833z" />
<glyph unicode="&#x115;" horiz-adv-x="1202" d="M725 1495h84q0 -87 -58.5 -147t-142.5 -60q-85 0 -142.5 59.5t-57.5 147.5h86q0 -52 35 -93.5t79 -41.5q43 0 77 39t40 96zM614 -20q-151 0 -274.5 76t-191.5 203.5t-68 277.5q0 148 68 273.5t191 200t273 74.5q152 0 274.5 -75.5t188.5 -200t66 -270.5q0 -46 -2 -56 h-914q13 -171 127 -284t269 -113q105 0 197 53.5t130 139.5l121 -33q-50 -118 -175.5 -192t-279.5 -74zM221 584h789q-13 172 -125.5 282.5t-270.5 110.5t-270.5 -111t-122.5 -282z" />
<glyph unicode="&#x116;" horiz-adv-x="1247" d="M627 1679v199h127v-199h-127zM1159 127v-127h-977v1454h959v-127h-815v-524h710v-121h-710v-555h833z" />
<glyph unicode="&#x117;" horiz-adv-x="1202" d="M545 1296v199h127v-199h-127zM614 -20q-151 0 -274.5 76t-191.5 203.5t-68 277.5q0 148 68 273.5t191 200t273 74.5q152 0 274.5 -75.5t188.5 -200t66 -270.5q0 -46 -2 -56h-914q13 -171 127 -284t269 -113q105 0 197 53.5t130 139.5l121 -33q-50 -118 -175.5 -192 t-279.5 -74zM221 584h789q-13 172 -125.5 282.5t-270.5 110.5t-270.5 -111t-122.5 -282z" />
<glyph unicode="&#x118;" horiz-adv-x="1247" d="M1159 0q-85 -64 -122.5 -110.5t-37.5 -86.5q0 -38 37.5 -56t118.5 -28l-35 -92q-219 22 -219 158q0 109 139 215h-858v1454h959v-127h-815v-524h710v-121h-710v-555h833v-127z" />
<glyph unicode="&#x119;" horiz-adv-x="1202" d="M1141 539q0 -46 -2 -56h-914q13 -171 127 -284t269 -113q105 0 197 53.5t130 139.5l121 -33q-36 -89 -119.5 -154.5t-193.5 -93.5q-83 -65 -119.5 -110.5t-36.5 -84.5q0 -38 37.5 -56t118.5 -28l-35 -92q-219 22 -219 158q0 102 112 195q-151 0 -274.5 76t-191.5 203.5 t-68 277.5q0 148 68 273.5t191 200t273 74.5q152 0 274.5 -75.5t188.5 -200t66 -270.5zM221 584h789q-13 172 -125.5 282.5t-270.5 110.5t-270.5 -111t-122.5 -282z" />
<glyph unicode="&#x11a;" horiz-adv-x="1247" d="M516 1878l174 -129l174 129l80 -41l-203 -176h-102l-201 176zM1159 127v-127h-977v1454h959v-127h-815v-524h710v-121h-710v-555h833z" />
<glyph unicode="&#x11b;" horiz-adv-x="1202" d="M434 1495l174 -129l174 129l80 -41l-203 -176h-102l-201 176zM614 -20q-151 0 -274.5 76t-191.5 203.5t-68 277.5q0 148 68 273.5t191 200t273 74.5q152 0 274.5 -75.5t188.5 -200t66 -270.5q0 -46 -2 -56h-914q13 -171 127 -284t269 -113q105 0 197 53.5t130 139.5 l121 -33q-50 -118 -175.5 -192t-279.5 -74zM221 584h789q-13 172 -125.5 282.5t-270.5 110.5t-270.5 -111t-122.5 -282z" />
<glyph unicode="&#x11c;" horiz-adv-x="1466" d="M756 1790l-174 -129l-78 43l201 174h102l203 -174l-80 -43zM909 715h445v-715h-121v213q-201 -223 -467 -223q-114 0 -220.5 41t-188.5 113t-144 165t-94.5 201.5t-32.5 218.5q0 144 51 278.5t139 235t214 161t268 60.5q206 0 344 -84.5t211 -232.5l-111 -74 q-137 262 -446 262q-117 0 -217.5 -51.5t-167.5 -136.5t-104.5 -194.5t-37.5 -225.5q0 -121 42.5 -233t115 -194.5t174.5 -131.5t215 -49q254 0 457 243v242h-324v111z" />
<glyph unicode="&#x11d;" horiz-adv-x="1265" d="M365 1321l200 174h103l202 -174l-79 -43l-175 129l-174 -129zM82 530q0 148 62 274.5t176.5 203.5t257.5 77q244 0 409 -241v223h125v-1071q0 -144 -72 -248.5t-188.5 -154.5t-261.5 -50q-176 0 -290 62t-189 180l86 68q61 -98 165 -148.5t228 -50.5q79 0 147.5 21.5 t121.5 63t83.5 108t30.5 149.5v211q-61 -101 -168 -161t-223 -60q-142 0 -258 77.5t-179 201.5t-63 265zM973 367v329q-44 116 -149 191.5t-220 75.5q-114 0 -203 -65.5t-133.5 -163.5t-44.5 -206q0 -113 53 -211t145 -156.5t200 -58.5q122 0 227.5 82t124.5 183z" />
<glyph unicode="&#x11e;" horiz-adv-x="1466" d="M756 1671q-85 0 -143 59.5t-58 147.5h86q0 -52 35.5 -93.5t79.5 -41.5q43 0 76.5 39t39.5 96h84q0 -87 -58 -147t-142 -60zM909 715h445v-715h-121v213q-201 -223 -467 -223q-114 0 -220.5 41t-188.5 113t-144 165t-94.5 201.5t-32.5 218.5q0 144 51 278.5t139 235 t214 161t268 60.5q206 0 344 -84.5t211 -232.5l-111 -74q-137 262 -446 262q-117 0 -217.5 -51.5t-167.5 -136.5t-104.5 -194.5t-37.5 -225.5q0 -121 42.5 -233t115 -194.5t174.5 -131.5t215 -49q254 0 457 243v242h-324v111z" />
<glyph unicode="&#x11f;" horiz-adv-x="1265" d="M733 1495h84q0 -87 -58.5 -147t-142.5 -60q-85 0 -142.5 59.5t-57.5 147.5h86q0 -52 35 -93.5t79 -41.5q43 0 77 39t40 96zM82 530q0 148 62 274.5t176.5 203.5t257.5 77q244 0 409 -241v223h125v-1071q0 -144 -72 -248.5t-188.5 -154.5t-261.5 -50q-176 0 -290 62 t-189 180l86 68q61 -98 165 -148.5t228 -50.5q79 0 147.5 21.5t121.5 63t83.5 108t30.5 149.5v211q-61 -101 -168 -161t-223 -60q-142 0 -258 77.5t-179 201.5t-63 265zM973 367v329q-44 116 -149 191.5t-220 75.5q-114 0 -203 -65.5t-133.5 -163.5t-44.5 -206 q0 -113 53 -211t145 -156.5t200 -58.5q122 0 227.5 82t124.5 183z" />
<glyph unicode="&#x120;" horiz-adv-x="1466" d="M819 1878v-199h-127v199h127zM909 715h445v-715h-121v213q-201 -223 -467 -223q-114 0 -220.5 41t-188.5 113t-144 165t-94.5 201.5t-32.5 218.5q0 144 51 278.5t139 235t214 161t268 60.5q206 0 344 -84.5t211 -232.5l-111 -74q-137 262 -446 262q-117 0 -217.5 -51.5 t-167.5 -136.5t-104.5 -194.5t-37.5 -225.5q0 -121 42.5 -233t115 -194.5t174.5 -131.5t215 -49q254 0 457 243v242h-324v111z" />
<glyph unicode="&#x121;" horiz-adv-x="1265" d="M553 1296v199h127v-199h-127zM82 530q0 148 62 274.5t176.5 203.5t257.5 77q244 0 409 -241v223h125v-1071q0 -144 -72 -248.5t-188.5 -154.5t-261.5 -50q-176 0 -290 62t-189 180l86 68q61 -98 165 -148.5t228 -50.5q79 0 147.5 21.5t121.5 63t83.5 108t30.5 149.5v211 q-61 -101 -168 -161t-223 -60q-142 0 -258 77.5t-179 201.5t-63 265zM973 367v329q-44 116 -149 191.5t-220 75.5q-114 0 -203 -65.5t-133.5 -163.5t-44.5 -206q0 -113 53 -211t145 -156.5t200 -58.5q122 0 227.5 82t124.5 183z" />
<glyph unicode="&#x122;" horiz-adv-x="1466" d="M909 715h445v-715h-121v213q-201 -223 -467 -223q-114 0 -220.5 41t-188.5 113t-144 165t-94.5 201.5t-32.5 218.5q0 144 51 278.5t139 235t214 161t268 60.5q206 0 344 -84.5t211 -232.5l-111 -74q-137 262 -446 262q-117 0 -217.5 -51.5t-167.5 -136.5t-104.5 -194.5 t-37.5 -225.5q0 -121 42.5 -233t115 -194.5t174.5 -131.5t215 -49q254 0 457 243v242h-324v111zM702 -256v156h129v-156l-51 -152h-71l34 152h-41z" />
<glyph unicode="&#x123;" horiz-adv-x="1265" d="M674 1495l-35 -131h41v-143h-129v143l51 131h72zM82 530q0 148 62 274.5t176.5 203.5t257.5 77q244 0 409 -241v223h125v-1071q0 -144 -72 -248.5t-188.5 -154.5t-261.5 -50q-176 0 -290 62t-189 180l86 68q61 -98 165 -148.5t228 -50.5q79 0 147.5 21.5t121.5 63 t83.5 108t30.5 149.5v211q-61 -101 -168 -161t-223 -60q-142 0 -258 77.5t-179 201.5t-63 265zM973 367v329q-44 116 -149 191.5t-220 75.5q-114 0 -203 -65.5t-133.5 -163.5t-44.5 -206q0 -113 53 -211t145 -156.5t200 -58.5q122 0 227.5 82t124.5 183z" />
<glyph unicode="&#x124;" horiz-adv-x="1511" d="M508 1704l201 174h102l203 -174l-80 -43l-174 129l-174 -129zM1329 1454v-1454h-141v680h-862v-680h-144v1454h144v-647h862v647h141z" />
<glyph unicode="&#x125;" horiz-adv-x="1193" d="M389 1708l201 174h102l203 -174l-80 -43l-174 129l-174 -129zM1051 0h-140v596q0 362 -245 362q-120 0 -228.5 -88t-144.5 -217v-653h-139v1495h139v-670q63 120 176 190t244 70q175 0 256.5 -121.5t81.5 -338.5v-625z" />
<glyph unicode="&#x126;" horiz-adv-x="1531" d="M1442 1206v-108h-103v-1098h-141v680h-862v-680h-143v1098h-103v108h103v248h143v-248h862v248h141v-248h103zM1198 807v291h-862v-291h862z" />
<glyph unicode="&#x127;" horiz-adv-x="1193" d="M713 1085q175 0 256.5 -121.5t81.5 -338.5v-625h-140v596q0 362 -245 362q-120 0 -228.5 -88t-144.5 -217v-653h-139v1264h-125v94h125v137h139v-137h252v-94h-252v-439q63 120 176 190t244 70z" />
<glyph unicode="&#x128;" horiz-adv-x="507" d="M117 1772q-31 0 -53.5 -13.5t-32 -32.5t-13.5 -32.5t-4 -20.5h-86q0 11 4.5 31t17.5 48.5t32.5 52.5t54.5 41.5t78 17.5q48 0 92.5 -21.5t86 -43t83.5 -21.5q30 0 53 10t34.5 23t18.5 28.5t9 24.5t2 14h86q0 -11 -4.5 -30t-18.5 -47.5t-35 -52.5t-58.5 -41t-84.5 -17 q-52 0 -99.5 20.5t-87.5 41t-75 20.5zM182 0v1454h144v-1454h-144z" />
<glyph unicode="&#x129;" horiz-adv-x="446" d="M86 1389q-31 0 -53.5 -13.5t-32 -33t-13 -32.5t-3.5 -20h-86q0 16 8 43t26.5 62.5t58.5 60.5t93 25q48 0 92.5 -21.5t86 -43t83.5 -21.5q30 0 53 10t34.5 23t18.5 28.5t9 24.5t2 14h86q0 -11 -4.5 -30t-18.5 -47.5t-35 -52.5t-58.5 -41t-84.5 -17q-52 0 -99.5 20.5 t-87.5 41t-75 20.5zM154 0v1067h139v-1067h-139z" />
<glyph unicode="&#x12a;" horiz-adv-x="507" d="M-41 1741v96h592v-96h-592zM182 0v1454h144v-1454h-144z" />
<glyph unicode="&#x12b;" horiz-adv-x="446" d="M-72 1358v96h592v-96h-592zM154 0v1067h139v-1067h-139z" />
<glyph unicode="&#x12c;" horiz-adv-x="507" d="M371 1878h84q0 -87 -58.5 -147t-142.5 -60q-85 0 -143 59.5t-58 147.5h86q0 -52 35.5 -93.5t79.5 -41.5q43 0 77 39t40 96zM182 0v1454h144v-1454h-144z" />
<glyph unicode="&#x12d;" horiz-adv-x="446" d="M340 1495h84q0 -87 -58.5 -147t-142.5 -60q-85 0 -142.5 59.5t-57.5 147.5h86q0 -52 35 -93.5t79 -41.5q43 0 77 39t40 96zM154 0v1067h139v-1067h-139z" />
<glyph unicode="&#x12e;" horiz-adv-x="507" d="M326 0q-85 -64 -122.5 -110.5t-37.5 -86.5q0 -38 37.5 -56t118.5 -28l-35 -92q-219 22 -219 158q0 109 139 215h-25v1454h144v-1454z" />
<glyph unicode="&#x12f;" horiz-adv-x="446" d="M154 1495h139v-205h-139v205zM154 0v1067h139v-1067q-85 -64 -122.5 -110.5t-37.5 -86.5q0 -38 37.5 -56t118.5 -28l-35 -92q-219 22 -219 158q0 109 139 215h-20z" />
<glyph unicode="&#x130;" horiz-adv-x="507" d="M190 1679v199h127v-199h-127zM182 0v1454h144v-1454h-144z" />
<glyph unicode="&#x131;" horiz-adv-x="446" d="M154 0v1067h139v-1067h-139z" />
<glyph unicode="&#x134;" horiz-adv-x="985" d="M500 1704l200 174h103l203 -174l-80 -43l-174 129l-174 -129zM70 182q111 -76 276 -76q71 0 123.5 15.5t89 49.5t60 79t36.5 114.5t18 143.5t5 178v768h143v-739q0 -102 -4 -179t-16.5 -157.5t-33.5 -138t-56.5 -110t-84.5 -84.5t-118.5 -50.5t-157.5 -18.5 q-188 0 -321 91z" />
<glyph unicode="&#x135;" horiz-adv-x="446" d="M-29 1321l201 174h102l203 -174l-80 -43l-174 129l-174 -129zM-256 -291l70 94q52 -49 149 -49q74 0 132.5 55.5t58.5 135.5v1122h139v-1114q0 -137 -95.5 -230.5t-220.5 -93.5q-147 0 -233 80z" />
<glyph unicode="&#x136;" horiz-adv-x="1316" d="M182 0v1452h144v-844l800 846h158l-594 -639l625 -815h-162l-555 729l-272 -283v-446h-144zM614 -408l35 152h-41v156h129v-156l-51 -152h-72z" />
<glyph unicode="&#x137;" horiz-adv-x="1085" d="M915 0l-395 547l-227 -213v-334h-139v1495h139v-1012l604 582h154l-437 -436l453 -629h-152zM502 -408l35 152h-41v156h129v-156l-52 -152h-71z" />
<glyph unicode="&#x138;" horiz-adv-x="1085" d="M915 0l-393 547l-229 -213v-334h-139v1067h139v-588l600 586h158l-437 -436l453 -629h-152z" />
<glyph unicode="&#x139;" horiz-adv-x="1193" d="M297 1655l-92 35l121 190h147zM182 0v1454h144v-1327h839v-127h-983z" />
<glyph unicode="&#x13a;" horiz-adv-x="557" d="M276 1657l-92 35l121 190h148zM160 1495h139v-1253q0 -74 25 -101.5t73 -27.5q68 0 138 24l24 -112q-39 -15 -95 -26t-97 -11q-96 0 -151.5 55.5t-55.5 151.5v1300z" />
<glyph unicode="&#x13b;" horiz-adv-x="1193" d="M182 0v1454h144v-1327h839v-127h-983zM621 -408l34 152h-41v156h129v-156l-51 -152h-71z" />
<glyph unicode="&#x13c;" horiz-adv-x="557" d="M160 1495h139v-1253q0 -74 25 -101.5t73 -27.5q68 0 138 24l24 -112q-39 -15 -95 -26t-97 -11q-96 0 -151.5 55.5t-55.5 151.5v1300zM293 -408l35 152h-41v156h129v-156l-51 -152h-72z" />
<glyph unicode="&#x13d;" horiz-adv-x="1193" d="M864 1280l-92 35l121 190h147zM182 0v1454h144v-1327h839v-127h-983z" />
<glyph unicode="&#x13e;" horiz-adv-x="557" d="M160 1495h139v-1253q0 -74 25 -101.5t73 -27.5q68 0 138 24l24 -112q-39 -15 -95 -26t-97 -11q-96 0 -151.5 55.5t-55.5 151.5v1300zM485 1270l-92 35l121 190h148z" />
<glyph unicode="&#x13f;" horiz-adv-x="1193" d="M182 0v1454h144v-1327h839v-127h-983zM750 713v229h120v-229h-120z" />
<glyph unicode="&#x140;" horiz-adv-x="643" d="M160 1495h139v-1253q0 -74 25 -101.5t73 -27.5q68 0 138 24l24 -112q-39 -15 -95 -26t-97 -11q-96 0 -151.5 55.5t-55.5 151.5v1300zM489 504v229h121v-229h-121z" />
<glyph unicode="&#x141;" horiz-adv-x="1208" d="M340 127h840v-127h-983v567l-119 -98l-45 82l164 135v768h143v-649l317 264l45 -80l-362 -301v-561z" />
<glyph unicode="&#x142;" horiz-adv-x="598" d="M573 137l25 -112q-39 -15 -95 -26t-97 -11q-96 0 -151.5 55.5t-55.5 151.5v499l-131 -102l-48 80l179 141v682h139v-571l182 143l49 -80l-231 -182v-563q0 -74 25 -101.5t73 -27.5q67 0 137 24z" />
<glyph unicode="&#x143;" horiz-adv-x="1581" d="M844 1653l-92 35l120 190h148zM326 1190v-1190h-144v1454h119l954 -1212v1210h144v-1452h-133z" />
<glyph unicode="&#x144;" horiz-adv-x="1193" d="M653 1270l-92 35l121 190h147zM1051 0h-140v596q0 188 -55.5 275t-173.5 87q-125 0 -238 -87.5t-151 -217.5v-653h-139v1067h127v-242q65 118 187.5 189t264.5 71q87 0 149.5 -31.5t99 -93.5t53 -144t16.5 -191v-625z" />
<glyph unicode="&#x145;" horiz-adv-x="1581" d="M326 1190v-1190h-144v1454h119l954 -1212v1210h144v-1452h-133zM733 -408l35 152h-41v156h129v-156l-51 -152h-72z" />
<glyph unicode="&#x146;" horiz-adv-x="1193" d="M1051 0h-140v596q0 188 -55.5 275t-173.5 87q-125 0 -238 -87.5t-151 -217.5v-653h-139v1067h127v-242q65 118 187.5 189t264.5 71q87 0 149.5 -31.5t99 -93.5t53 -144t16.5 -191v-625zM530 -408l35 152h-41v156h129v-156l-51 -152h-72z" />
<glyph unicode="&#x147;" horiz-adv-x="1581" d="M623 1878l174 -129l174 129l80 -41l-203 -176h-103l-200 176zM326 1190v-1190h-144v1454h119l954 -1212v1210h144v-1452h-133z" />
<glyph unicode="&#x148;" horiz-adv-x="1193" d="M432 1495l174 -129l174 129l80 -41l-203 -176h-102l-201 176zM1051 0h-140v596q0 188 -55.5 275t-173.5 87q-125 0 -238 -87.5t-151 -217.5v-653h-139v1067h127v-242q65 118 187.5 189t264.5 71q87 0 149.5 -31.5t99 -93.5t53 -144t16.5 -191v-625z" />
<glyph unicode="&#x14a;" horiz-adv-x="1568" d="M326 1186v-1186h-144v1454h109l954 -1204v1202h141v-1503q0 -136 -96 -228t-219 -92q-145 0 -233 80l69 94q52 -49 148 -49q74 0 133 56t59 135v73z" />
<glyph unicode="&#x14b;" horiz-adv-x="1193" d="M504 -291l67 94q54 -49 150 -49q74 0 132 55.5t58 135.5v651q0 188 -55.5 275t-173.5 87q-125 0 -238 -87.5t-151 -217.5v-653h-139v1067h127v-242q65 118 187.5 189t264.5 71q87 0 149.5 -31.5t99 -93.5t53 -144t16.5 -191v-672q0 -137 -95 -230.5t-219 -93.5 q-147 0 -233 80z" />
<glyph unicode="&#x14c;" horiz-adv-x="1538" d="M475 1741v96h592v-96h-592zM86 727q0 144 53 278.5t142.5 235.5t218 162t270.5 61q118 0 226 -41.5t189.5 -113.5t142 -166t91.5 -201.5t31 -216.5q0 -144 -52.5 -278t-142 -235t-217.5 -161.5t-270 -60.5q-148 0 -277.5 63t-217 166t-137.5 235.5t-50 272.5zM768 119 q120 0 223 53t171 139t106.5 194.5t38.5 221.5q0 158 -68 296t-193 224t-278 86q-120 0 -223 -52.5t-171 -138t-106.5 -194t-38.5 -221.5q0 -118 40 -228t109.5 -194t171.5 -135t218 -51z" />
<glyph unicode="&#x14d;" d="M313 1358v96h592v-96h-592zM80 530q0 111 40 212.5t109 177t168 120.5t211 45q150 0 272.5 -76t190.5 -203t68 -276q0 -148 -67.5 -273.5t-190 -201t-273.5 -75.5t-273 75.5t-188.5 201t-66.5 273.5zM608 102q160 0 274.5 126t114.5 304t-114.5 304.5t-274.5 126.5 q-104 0 -193 -58t-141.5 -158.5t-52.5 -218.5q0 -178 113.5 -302t273.5 -124z" />
<glyph unicode="&#x14e;" horiz-adv-x="1538" d="M887 1878h84q0 -87 -58.5 -147t-142.5 -60q-85 0 -143 59.5t-58 147.5h86q0 -52 35.5 -93.5t79.5 -41.5q43 0 77 39t40 96zM86 727q0 144 53 278.5t142.5 235.5t218 162t270.5 61q118 0 226 -41.5t189.5 -113.5t142 -166t91.5 -201.5t31 -216.5q0 -144 -52.5 -278 t-142 -235t-217.5 -161.5t-270 -60.5q-148 0 -277.5 63t-217 166t-137.5 235.5t-50 272.5zM768 119q120 0 223 53t171 139t106.5 194.5t38.5 221.5q0 158 -68 296t-193 224t-278 86q-120 0 -223 -52.5t-171 -138t-106.5 -194t-38.5 -221.5q0 -118 40 -228t109.5 -194 t171.5 -135t218 -51z" />
<glyph unicode="&#x14f;" d="M725 1495h84q0 -87 -58.5 -147t-142.5 -60q-85 0 -142.5 59.5t-57.5 147.5h86q0 -52 35 -93.5t79 -41.5q43 0 77 39t40 96zM80 530q0 111 40 212.5t109 177t168 120.5t211 45q150 0 272.5 -76t190.5 -203t68 -276q0 -148 -67.5 -273.5t-190 -201t-273.5 -75.5t-273 75.5 t-188.5 201t-66.5 273.5zM608 102q160 0 274.5 126t114.5 304t-114.5 304.5t-274.5 126.5q-104 0 -193 -58t-141.5 -158.5t-52.5 -218.5q0 -178 113.5 -302t273.5 -124z" />
<glyph unicode="&#x150;" horiz-adv-x="1538" d="M641 1655l-76 35l117 190h131zM899 1655l-78 35l117 190h131zM86 727q0 144 53 278.5t142.5 235.5t218 162t270.5 61q118 0 226 -41.5t189.5 -113.5t142 -166t91.5 -201.5t31 -216.5q0 -144 -52.5 -278t-142 -235t-217.5 -161.5t-270 -60.5q-148 0 -277.5 63t-217 166 t-137.5 235.5t-50 272.5zM768 119q120 0 223 53t171 139t106.5 194.5t38.5 221.5q0 158 -68 296t-193 224t-278 86q-120 0 -223 -52.5t-171 -138t-106.5 -194t-38.5 -221.5q0 -118 40 -228t109.5 -194t171.5 -135t218 -51z" />
<glyph unicode="&#x151;" d="M479 1272l-76 35l117 190h131zM737 1272l-78 35l117 190h131zM80 530q0 111 40 212.5t109 177t168 120.5t211 45q150 0 272.5 -76t190.5 -203t68 -276q0 -148 -67.5 -273.5t-190 -201t-273.5 -75.5t-273 75.5t-188.5 201t-66.5 273.5zM608 102q160 0 274.5 126t114.5 304 t-114.5 304.5t-274.5 126.5q-104 0 -193 -58t-141.5 -158.5t-52.5 -218.5q0 -178 113.5 -302t273.5 -124z" />
<glyph unicode="&#x152;" horiz-adv-x="2361" d="M2277 127v-127h-966v369q-71 -167 -217 -273t-324 -106q-148 0 -277.5 63t-217.5 166t-138.5 235.5t-50.5 272.5q0 144 53 278.5t142.5 235.5t218 162t270.5 61q183 0 326.5 -107t214.5 -272v369h948v-127h-805v-522h694v-127h-694v-551h823zM1307 729q0 157 -68 295 t-193 224.5t-278 86.5q-96 0 -182.5 -34t-150.5 -93.5t-111 -136.5t-71 -165.5t-24 -178.5q0 -118 40 -228t109.5 -194t171.5 -135t218 -51q120 0 223 52.5t171 139t106.5 195.5t38.5 223z" />
<glyph unicode="&#x153;" horiz-adv-x="2117" d="M80 528q0 154 69.5 282t191.5 201.5t269 73.5q155 0 277 -90.5t178 -246.5q57 160 178.5 248.5t284.5 88.5q224 0 367.5 -151t160.5 -402v-49h-913q14 -167 131.5 -282t277.5 -115q111 0 203.5 53.5t126.5 139.5l119 -33q-52 -118 -179 -192t-276 -74q-152 0 -280.5 90.5 t-196.5 242.5q-68 -156 -190 -244.5t-273 -88.5q-146 0 -267 72.5t-190 198.5t-69 277zM1921 578q-10 173 -123.5 286t-271.5 113t-267 -113t-118 -286h780zM997 530q0 181 -113 307t-274 126t-275 -128t-114 -309q0 -179 112.5 -301.5t274.5 -122.5q163 0 276 124t113 304z " />
<glyph unicode="&#x154;" horiz-adv-x="1337" d="M670 1657l-92 35l120 190h148zM182 0v1454h615q120 0 220.5 -67.5t155 -172t54.5 -217.5q0 -160 -90 -283.5t-234 -152.5l357 -561h-162l-342 537h-430v-537h-144zM326 664h475q83 0 148.5 47.5t99.5 123t34 162.5q0 133 -87.5 231.5t-207.5 98.5h-462v-663z" />
<glyph unicode="&#x155;" horiz-adv-x="718" d="M459 1270l-92 35l120 190h148zM686 944q-141 -5 -246 -78.5t-147 -201.5v-664h-139v1067h131v-256q55 112 146 181.5t194 78.5q40 3 61 0v-127z" />
<glyph unicode="&#x156;" horiz-adv-x="1337" d="M182 0v1454h615q120 0 220.5 -67.5t155 -172t54.5 -217.5q0 -160 -90 -283.5t-234 -152.5l357 -561h-162l-342 537h-430v-537h-144zM326 664h475q83 0 148.5 47.5t99.5 123t34 162.5q0 133 -87.5 231.5t-207.5 98.5h-462v-663zM606 -408l35 152h-41v156h129v-156 l-51 -152h-72z" />
<glyph unicode="&#x157;" horiz-adv-x="718" d="M686 944q-141 -5 -246 -78.5t-147 -201.5v-664h-139v1067h131v-256q55 112 146 181.5t194 78.5q40 3 61 0v-127zM156 -408l34 152h-40v156h129v-156l-52 -152h-71z" />
<glyph unicode="&#x158;" horiz-adv-x="1337" d="M449 1882l174 -129l174 129l80 -41l-203 -176h-103l-200 176zM182 0v1454h615q120 0 220.5 -67.5t155 -172t54.5 -217.5q0 -160 -90 -283.5t-234 -152.5l357 -561h-162l-342 537h-430v-537h-144zM326 664h475q83 0 148.5 47.5t99.5 123t34 162.5q0 133 -87.5 231.5 t-207.5 98.5h-462v-663z" />
<glyph unicode="&#x159;" horiz-adv-x="718" d="M238 1495l174 -129l174 129l80 -41l-203 -176h-103l-200 176zM686 944q-141 -5 -246 -78.5t-147 -201.5v-664h-139v1067h131v-256q55 112 146 181.5t194 78.5q40 3 61 0v-127z" />
<glyph unicode="&#x15a;" horiz-adv-x="1243" d="M690 1683l-92 35l121 191h147zM1032 1182q-64 71 -167 113t-230 42q-187 0 -278 -70.5t-91 -199.5q0 -51 16.5 -89.5t44.5 -65.5t81.5 -49.5t111 -38.5t150.5 -36q84 -18 145.5 -35.5t122 -41.5t101 -54t73 -69.5t47.5 -91t15 -115.5q0 -130 -68.5 -220t-184.5 -131.5 t-272 -41.5q-337 0 -583 211l71 116q82 -88 219.5 -144t296.5 -56q176 0 272.5 64t96.5 188q0 53 -19 93.5t-51 70t-90 54.5t-120.5 43t-157.5 40q-99 23 -166 44t-128 51.5t-96 68.5t-55 91.5t-20 123.5q0 198 142.5 307.5t375.5 109.5q273 0 465 -168z" />
<glyph unicode="&#x15b;" horiz-adv-x="989" d="M555 1270l-92 35l121 190h147zM504 -20q-273 0 -438 174l57 98q168 -160 375 -160q127 0 203.5 51.5t76.5 143.5q0 56 -38 92.5t-82 51.5t-153 43q-28 7 -42 11q-90 25 -147 47.5t-103 55.5t-66 77.5t-20 106.5q0 149 111 231t288 82q120 0 216 -38.5t155 -108.5l-68 -94 q-111 129 -311 129q-110 0 -185 -45t-75 -140q0 -28 6 -49.5t23.5 -39t33.5 -29t52 -25t62 -22t79 -23.5q51 -14 78.5 -21.5t69.5 -21t64.5 -23t53.5 -24.5t47.5 -29t35.5 -34t28 -41.5t15.5 -49t6.5 -59.5q0 -148 -111.5 -232.5t-297.5 -84.5z" />
<glyph unicode="&#x15c;" horiz-adv-x="1243" d="M391 1735l201 174h102l203 -174l-80 -43l-174 129l-174 -129zM1032 1182q-64 71 -167 113t-230 42q-187 0 -278 -70.5t-91 -199.5q0 -51 16.5 -89.5t44.5 -65.5t81.5 -49.5t111 -38.5t150.5 -36q84 -18 145.5 -35.5t122 -41.5t101 -54t73 -69.5t47.5 -91t15 -115.5 q0 -130 -68.5 -220t-184.5 -131.5t-272 -41.5q-337 0 -583 211l71 116q82 -88 219.5 -144t296.5 -56q176 0 272.5 64t96.5 188q0 53 -19 93.5t-51 70t-90 54.5t-120.5 43t-157.5 40q-99 23 -166 44t-128 51.5t-96 68.5t-55 91.5t-20 123.5q0 198 142.5 307.5t375.5 109.5 q273 0 465 -168z" />
<glyph unicode="&#x15d;" horiz-adv-x="989" d="M256 1321l201 174h102l203 -174l-80 -43l-174 129l-174 -129zM504 -20q-273 0 -438 174l57 98q168 -160 375 -160q127 0 203.5 51.5t76.5 143.5q0 56 -38 92.5t-82 51.5t-153 43q-28 7 -42 11q-90 25 -147 47.5t-103 55.5t-66 77.5t-20 106.5q0 149 111 231t288 82 q120 0 216 -38.5t155 -108.5l-68 -94q-111 129 -311 129q-110 0 -185 -45t-75 -140q0 -28 6 -49.5t23.5 -39t33.5 -29t52 -25t62 -22t79 -23.5q51 -14 78.5 -21.5t69.5 -21t64.5 -23t53.5 -24.5t47.5 -29t35.5 -34t28 -41.5t15.5 -49t6.5 -59.5q0 -148 -111.5 -232.5 t-297.5 -84.5z" />
<glyph unicode="&#x15e;" horiz-adv-x="1243" d="M1174 381q0 -178 -120.5 -276.5t-326.5 -114.5q107 -79 107 -185q0 -83 -57 -128.5t-156 -45.5q-121 0 -234 58l41 80q95 -45 170 -45q141 0 141 104q0 85 -123 160q-320 12 -550 211l71 116q82 -88 219.5 -144t296.5 -56q176 0 272.5 64t96.5 188q0 53 -19 93.5t-51 70 t-90 54.5t-120.5 43t-157.5 40q-99 23 -166 44t-128 51.5t-96 68.5t-55 91.5t-20 123.5q0 198 142.5 307.5t375.5 109.5q273 0 465 -168l-70 -114q-64 71 -167 113t-230 42q-187 0 -278 -70.5t-91 -199.5q0 -51 16.5 -89.5t44.5 -65.5t81.5 -49.5t111 -38.5t150.5 -36 q84 -18 145.5 -35.5t122 -41.5t101 -54t73 -69.5t47.5 -91t15 -115.5z" />
<glyph unicode="&#x15f;" horiz-adv-x="989" d="M913 297q0 -129 -86.5 -210.5t-236.5 -100.5q100 -80 100 -181q0 -83 -57 -128.5t-156 -45.5q-120 0 -233 58l41 80q95 -45 170 -45q141 0 141 104q0 83 -111 152q-262 6 -419 174l57 98q168 -160 375 -160q127 0 203.5 51.5t76.5 143.5q0 56 -38 92.5t-82 51.5t-153 43 q-28 7 -42 11q-90 25 -147 47.5t-103 55.5t-66 77.5t-20 106.5q0 149 111 231t288 82q120 0 216 -38.5t155 -108.5l-68 -94q-111 129 -311 129q-110 0 -185 -45t-75 -140q0 -28 6 -49.5t23.5 -39t33.5 -29t52 -25t62 -22t79 -23.5q51 -14 78.5 -21.5t69.5 -21t64.5 -23 t53.5 -24.5t47.5 -29t35.5 -34t28 -41.5t15.5 -49t6.5 -59.5z" />
<glyph unicode="&#x160;" horiz-adv-x="1243" d="M469 1909l174 -129l174 129l80 -41l-203 -176h-102l-201 176zM1032 1182q-64 71 -167 113t-230 42q-187 0 -278 -70.5t-91 -199.5q0 -51 16.5 -89.5t44.5 -65.5t81.5 -49.5t111 -38.5t150.5 -36q84 -18 145.5 -35.5t122 -41.5t101 -54t73 -69.5t47.5 -91t15 -115.5 q0 -130 -68.5 -220t-184.5 -131.5t-272 -41.5q-337 0 -583 211l71 116q82 -88 219.5 -144t296.5 -56q176 0 272.5 64t96.5 188q0 53 -19 93.5t-51 70t-90 54.5t-120.5 43t-157.5 40q-99 23 -166 44t-128 51.5t-96 68.5t-55 91.5t-20 123.5q0 198 142.5 307.5t375.5 109.5 q273 0 465 -168z" />
<glyph unicode="&#x161;" horiz-adv-x="989" d="M334 1495l174 -129l174 129l80 -41l-203 -176h-102l-201 176zM504 -20q-273 0 -438 174l57 98q168 -160 375 -160q127 0 203.5 51.5t76.5 143.5q0 56 -38 92.5t-82 51.5t-153 43q-28 7 -42 11q-90 25 -147 47.5t-103 55.5t-66 77.5t-20 106.5q0 149 111 231t288 82 q120 0 216 -38.5t155 -108.5l-68 -94q-111 129 -311 129q-110 0 -185 -45t-75 -140q0 -28 6 -49.5t23.5 -39t33.5 -29t52 -25t62 -22t79 -23.5q51 -14 78.5 -21.5t69.5 -21t64.5 -23t53.5 -24.5t47.5 -29t35.5 -34t28 -41.5t15.5 -49t6.5 -59.5q0 -148 -111.5 -232.5 t-297.5 -84.5z" />
<glyph unicode="&#x162;" horiz-adv-x="1249" d="M1214 1327h-518v-1327q60 -43 90.5 -89t30.5 -106q0 -83 -57 -128.5t-156 -45.5q-120 0 -233 58l41 80q95 -45 170 -45q141 0 141 104q0 50 -35 90t-108 82h-27v1327h-518v127h1179v-127z" />
<glyph unicode="&#x163;" horiz-adv-x="686" d="M500 -6q56 -41 84 -85.5t28 -103.5q0 -83 -57 -128.5t-156 -45.5q-120 0 -233 58l41 80q95 -45 170 -45q141 0 141 104q0 47 -31 85t-94 77q-84 8 -139 60.5t-55 142.5v763h-148v111h148v360h139v-360h246v-111h-246v-725q4 -56 40 -85t89 -29q87 0 162 47l37 -113 q-4 -2 -24.5 -11t-38 -16t-46.5 -16t-57 -14z" />
<glyph unicode="&#x164;" horiz-adv-x="1249" d="M455 1878l174 -129l174 129l80 -41l-203 -176h-102l-201 176zM1214 1327h-518v-1327h-143v1327h-518v127h1179v-127z" />
<glyph unicode="&#x165;" horiz-adv-x="686" d="M569 1270l-92 35l121 190h147zM666 51q-1 -1 -20.5 -9.5t-32 -13.5t-37.5 -13.5t-46 -13.5t-50 -9t-56 -4q-96 0 -160.5 53.5t-64.5 151.5v763h-148v111h148v360h139v-360h246v-111h-246v-725q4 -56 40 -85t89 -29q87 0 162 47z" />
<glyph unicode="&#x166;" horiz-adv-x="1312" d="M1247 1327h-518v-588h430v-108h-430v-631h-143v631h-430v108h430v588h-518v127h1179v-127z" />
<glyph unicode="&#x167;" horiz-adv-x="690" d="M631 164l37 -113q-1 -1 -20.5 -9.5t-32 -13.5t-37.5 -13.5t-46 -13.5t-50 -9t-56 -4q-96 0 -160.5 53.5t-64.5 151.5v380h-133v93h133v290h-148v111h148v360h139v-360h246v-111h-246v-290h221v-93h-221v-342q4 -56 40 -85t89 -29q87 0 162 47z" />
<glyph unicode="&#x168;" horiz-adv-x="1546" d="M637 1772q-31 0 -53.5 -13.5t-32 -33t-13 -32.5t-3.5 -20h-86q0 16 8 43t26.5 62.5t58.5 60.5t93 25q48 0 92.5 -21.5t86 -43t83.5 -21.5q30 0 53 10t34.5 23t18.5 28.5t9 24.5t2 14h86q0 -11 -4.5 -30t-18.5 -47.5t-35 -52.5t-58.5 -41t-84.5 -17q-52 0 -99.5 20.5 t-87.5 41t-75 20.5zM774 -10q-134 0 -240 41t-175 109t-114 163.5t-64 198.5t-19 219v733h141v-733q0 -96 14 -180t48 -163t86 -135.5t134 -90t187 -33.5q107 0 190.5 34.5t135.5 91.5t85.5 136.5t46.5 162.5t13 177v733h143v-733q0 -121 -20.5 -226.5t-67 -199.5 t-116 -160.5t-174 -105.5t-234.5 -39z" />
<glyph unicode="&#x169;" horiz-adv-x="1216" d="M457 1389q-31 0 -53.5 -13.5t-32 -32.5t-13.5 -32.5t-4 -20.5h-86q0 11 4.5 31t17.5 48.5t32.5 52.5t54.5 41.5t78 17.5q48 0 92.5 -21.5t86 -43t83.5 -21.5q30 0 53 10t34.5 23t18.5 28.5t9 24.5t2 14h86q0 -11 -4.5 -30t-18.5 -47.5t-35 -52.5t-58.5 -41t-84.5 -17 q-52 0 -99.5 20.5t-87.5 41t-75 20.5zM143 440v627h140v-602q0 -363 247 -363q124 0 231 80.5t154 212.5v672h140v-899q0 -29 11.5 -42t37.5 -15v-111q-33 -4 -66 -4q-43 3 -71.5 32t-30.5 70l-4 144q-68 -123 -188 -192.5t-261 -69.5q-167 0 -253.5 116.5t-86.5 343.5z" />
<glyph unicode="&#x16a;" horiz-adv-x="1546" d="M479 1741v96h592v-96h-592zM774 -10q-134 0 -240 41t-175 109t-114 163.5t-64 198.5t-19 219v733h141v-733q0 -96 14 -180t48 -163t86 -135.5t134 -90t187 -33.5q107 0 190.5 34.5t135.5 91.5t85.5 136.5t46.5 162.5t13 177v733h143v-733q0 -121 -20.5 -226.5t-67 -199.5 t-116 -160.5t-174 -105.5t-234.5 -39z" />
<glyph unicode="&#x16b;" horiz-adv-x="1216" d="M299 1358v96h592v-96h-592zM143 440v627h140v-602q0 -363 247 -363q124 0 231 80.5t154 212.5v672h140v-899q0 -29 11.5 -42t37.5 -15v-111q-33 -4 -66 -4q-43 3 -71.5 32t-30.5 70l-4 144q-68 -123 -188 -192.5t-261 -69.5q-167 0 -253.5 116.5t-86.5 343.5z" />
<glyph unicode="&#x16c;" horiz-adv-x="1546" d="M891 1878h84q0 -87 -58.5 -147t-142.5 -60q-85 0 -143 59.5t-58 147.5h86q0 -52 35.5 -93.5t79.5 -41.5q43 0 77 39t40 96zM774 -10q-134 0 -240 41t-175 109t-114 163.5t-64 198.5t-19 219v733h141v-733q0 -96 14 -180t48 -163t86 -135.5t134 -90t187 -33.5 q107 0 190.5 34.5t135.5 91.5t85.5 136.5t46.5 162.5t13 177v733h143v-733q0 -121 -20.5 -226.5t-67 -199.5t-116 -160.5t-174 -105.5t-234.5 -39z" />
<glyph unicode="&#x16d;" horiz-adv-x="1216" d="M711 1495h84q0 -87 -58.5 -147t-142.5 -60q-85 0 -143 59.5t-58 147.5h86q0 -52 35.5 -93.5t79.5 -41.5q43 0 77 39t40 96zM143 440v627h140v-602q0 -363 247 -363q124 0 231 80.5t154 212.5v672h140v-899q0 -29 11.5 -42t37.5 -15v-111q-33 -4 -66 -4q-43 3 -71.5 32 t-30.5 70l-4 144q-68 -123 -188 -192.5t-261 -69.5q-167 0 -253.5 116.5t-86.5 343.5z" />
<glyph unicode="&#x16e;" horiz-adv-x="1546" d="M774 1927q79 0 130.5 -48.5t51.5 -123.5t-51 -122.5t-131 -47.5q-79 0 -130.5 47.5t-51.5 122.5t52 123.5t130 48.5zM674 1755q0 -43 28.5 -71.5t71.5 -28.5q40 0 71.5 28.5t31.5 71.5q0 46 -29.5 73t-73.5 27q-43 0 -71.5 -27t-28.5 -73zM774 -10q-134 0 -240 41 t-175 109t-114 163.5t-64 198.5t-19 219v733h141v-733q0 -96 14 -180t48 -163t86 -135.5t134 -90t187 -33.5q107 0 190.5 34.5t135.5 91.5t85.5 136.5t46.5 162.5t13 177v733h143v-733q0 -121 -20.5 -226.5t-67 -199.5t-116 -160.5t-174 -105.5t-234.5 -39z" />
<glyph unicode="&#x16f;" horiz-adv-x="1216" d="M594 1544q79 0 130.5 -48.5t51.5 -123.5t-51 -122.5t-131 -47.5q-79 0 -130.5 48t-51.5 122q0 75 52 123.5t130 48.5zM494 1372q0 -43 28.5 -71.5t71.5 -28.5q40 0 71 28.5t31 71.5q0 46 -29 73.5t-73 27.5q-43 0 -71.5 -27.5t-28.5 -73.5zM143 440v627h140v-602 q0 -363 247 -363q124 0 231 80.5t154 212.5v672h140v-899q0 -29 11.5 -42t37.5 -15v-111q-33 -4 -66 -4q-43 3 -71.5 32t-30.5 70l-4 144q-68 -123 -188 -192.5t-261 -69.5q-167 0 -253.5 116.5t-86.5 343.5z" />
<glyph unicode="&#x170;" horiz-adv-x="1546" d="M645 1655l-76 35l117 190h131zM903 1655l-78 35l117 190h131zM774 -10q-134 0 -240 41t-175 109t-114 163.5t-64 198.5t-19 219v733h141v-733q0 -96 14 -180t48 -163t86 -135.5t134 -90t187 -33.5q107 0 190.5 34.5t135.5 91.5t85.5 136.5t46.5 162.5t13 177v733h143 v-733q0 -121 -20.5 -226.5t-67 -199.5t-116 -160.5t-174 -105.5t-234.5 -39z" />
<glyph unicode="&#x171;" horiz-adv-x="1216" d="M465 1272l-76 35l117 190h131zM723 1272l-78 35l117 190h131zM143 440v627h140v-602q0 -363 247 -363q124 0 231 80.5t154 212.5v672h140v-899q0 -29 11.5 -42t37.5 -15v-111q-33 -4 -66 -4q-43 3 -71.5 32t-30.5 70l-4 144q-68 -123 -188 -192.5t-261 -69.5 q-167 0 -253.5 116.5t-86.5 343.5z" />
<glyph unicode="&#x172;" horiz-adv-x="1546" d="M1243 1454h143v-733q0 -137 -27.5 -254t-84 -216t-152.5 -164.5t-225 -86.5q-83 -65 -119.5 -110.5t-36.5 -84.5q0 -38 37.5 -56t118.5 -28l-35 -92q-219 22 -219 158q0 103 123 203q-132 1 -237 42.5t-172.5 110t-112.5 163.5t-63.5 197.5t-18.5 217.5v733h141v-733 q0 -96 14 -180t48 -163t86 -135.5t134 -90t187 -33.5q107 0 190.5 34.5t135.5 91.5t85.5 136.5t46.5 162.5t13 177v733z" />
<glyph unicode="&#x173;" horiz-adv-x="1216" d="M1104 0q-85 -64 -122.5 -110.5t-37.5 -86.5q0 -38 37.5 -56t118.5 -28l-35 -92q-219 22 -219 158q0 112 149 223q-56 26 -59 90l-4 144q-68 -123 -188 -192.5t-261 -69.5q-167 0 -253.5 116.5t-86.5 343.5v627h140v-602q0 -363 247 -363q124 0 231 80.5t154 212.5v672 h140v-899q0 -29 11.5 -42t37.5 -15v-111z" />
<glyph unicode="&#x174;" horiz-adv-x="2142" d="M817 1704l201 174h102l203 -174l-80 -43l-174 129l-174 -129zM729 1444h135l205 -516l207 516h137l-254 -621l279 -657l526 1288h156l-617 -1454h-127l-305 719l-307 -719h-125l-614 1454h153l529 -1288l276 657z" />
<glyph unicode="&#x175;" horiz-adv-x="1665" d="M580 1321l200 174h103l202 -174l-79 -43l-175 129l-174 -129zM1497 1067h137l-458 -1067h-121l-224 530l-221 -530h-121l-458 1067h135l389 -924l197 482l-181 440h125l135 -346l138 346h123l-179 -440l197 -482z" />
<glyph unicode="&#x176;" horiz-adv-x="1333" d="M414 1704l200 174h103l203 -174l-80 -43l-174 129l-174 -129zM190 1454l476 -782l479 782h155l-563 -913v-541h-143v545l-561 909h157z" />
<glyph unicode="&#x177;" horiz-adv-x="1110" d="M317 1321l201 174h103l202 -174l-80 -43l-174 129l-174 -129zM215 -328q77 -4 94 0q37 4 69.5 61.5t117.5 266.5l-465 1067h147l391 -924l361 924h139l-553 -1376q-56 -145 -217 -148q-41 -3 -84 4v125z" />
<glyph unicode="&#x178;" horiz-adv-x="1333" d="M453 1681v193h118v-193h-118zM758 1681v193h119v-193h-119zM190 1454l476 -782l479 782h155l-563 -913v-541h-143v545l-561 909h157z" />
<glyph unicode="&#x179;" horiz-adv-x="1288" d="M725 1653l-92 35l121 190h147zM63 113l990 1214h-973v127h1139v-113l-977 -1214h975v-127h-1154v113z" />
<glyph unicode="&#x17a;" horiz-adv-x="1007" d="M569 1270l-92 35l121 190h147zM63 94l715 869h-698v104h856v-94l-711 -869h709v-104h-871v94z" />
<glyph unicode="&#x17b;" horiz-adv-x="1288" d="M614 1679v199h127v-199h-127zM63 113l990 1214h-973v127h1139v-113l-977 -1214h975v-127h-1154v113z" />
<glyph unicode="&#x17c;" horiz-adv-x="1007" d="M459 1296v199h127v-199h-127zM63 94l715 869h-698v104h856v-94l-711 -869h709v-104h-871v94z" />
<glyph unicode="&#x17d;" horiz-adv-x="1288" d="M504 1878l174 -129l174 129l80 -41l-203 -176h-102l-201 176zM63 113l990 1214h-973v127h1139v-113l-977 -1214h975v-127h-1154v113z" />
<glyph unicode="&#x17e;" horiz-adv-x="1007" d="M348 1495l174 -129l174 129l80 -41l-203 -176h-102l-201 176zM63 94l715 869h-698v104h856v-94l-711 -869h709v-104h-871v94z" />
<glyph unicode="&#x18f;" horiz-adv-x="1509" d="M59 717q0 55 4 67h1203q-22 235 -174 391t-359 156q-149 0 -272.5 -79.5t-167.5 -204.5l-135 61q72 157 237 256.5t353 99.5q138 0 262.5 -58.5t215 -158t144 -238t53.5 -290.5q0 -151 -53 -286.5t-143 -233t-215 -154.5t-264 -57q-141 0 -269 57.5t-220 155.5 t-146 232.5t-54 283.5zM1270 659h-1057q9 -152 82 -276.5t192.5 -195t260.5 -70.5q139 0 255 70t187 194.5t80 277.5z" />
<glyph unicode="&#x192;" horiz-adv-x="1077" d="M61 -291l70 94q52 -49 150 -49q73 0 131.5 56t58.5 135v886h-149v111h149v154q0 195 83.5 307.5t229.5 112.5q60 0 120.5 -18.5t103.5 -49.5l-41 -100q-60 47 -158 47q-97 0 -148 -76t-51 -219v-158h293v-111h-293v-882q0 -137 -95.5 -228.5t-219.5 -91.5q-148 0 -234 80 z" />
<glyph unicode="&#x1a0;" horiz-adv-x="1538" d="M1073 1386q172 -95 274.5 -277.5t102.5 -383.5q0 -144 -52.5 -278t-142 -235t-217.5 -161.5t-270 -60.5q-148 0 -277.5 63t-217 166t-137.5 235.5t-50 272.5q0 144 53 278.5t142.5 235.5t218 162t270.5 61q55 0 117 -10q125 0 166 47q29 38 32 125h119q-5 -65 -18 -109 t-45 -83q-28 -31 -68 -48zM768 119q120 0 223 53t171 139t106.5 194.5t38.5 221.5q0 158 -68 296t-193 224t-278 86q-120 0 -223 -52.5t-171 -138t-106.5 -194t-38.5 -221.5q0 -118 40 -228t109.5 -194t171.5 -135t218 -51z" />
<glyph unicode="&#x1a1;" d="M905 993q108 -77 171 -200t63 -263q0 -148 -67.5 -273.5t-190 -201t-273.5 -75.5t-273 75.5t-188.5 201t-66.5 273.5q0 111 40 212.5t109 177t168 120.5t211 45q65 0 131 -16q125 0 166 47q30 39 33 125h119q-5 -65 -18 -108.5t-46 -83.5q-30 -37 -88 -56zM608 102 q160 0 274.5 126t114.5 304t-114.5 304.5t-274.5 126.5q-104 0 -193 -58t-141.5 -158.5t-52.5 -218.5q0 -178 113.5 -302t273.5 -124z" />
<glyph unicode="&#x1af;" horiz-adv-x="1546" d="M1501 1628h119q-5 -65 -18 -108.5t-46 -83.5q-49 -58 -170 -78v-637q0 -121 -20.5 -226.5t-67 -199.5t-116 -160.5t-174 -105.5t-234.5 -39q-134 0 -240 41t-175 109t-114 163.5t-64 198.5t-19 219v733h141v-733q0 -96 14 -180t48 -163t86 -135.5t134 -90t187 -33.5 q107 0 190.5 34.5t135.5 91.5t85.5 136.5t46.5 162.5t13 177v733h60v2q124 0 165 47q30 39 33 125z" />
<glyph unicode="&#x1b0;" horiz-adv-x="1216" d="M1161 1239h119q-5 -65 -18 -109t-45 -83q-51 -57 -162 -76v-803q0 -29 11.5 -42t37.5 -15v-111q-33 -4 -66 -4q-43 3 -71.5 32t-30.5 70l-4 144q-68 -123 -188 -192.5t-261 -69.5q-167 0 -253.5 116.5t-86.5 343.5v627h140v-602q0 -363 247 -363q124 0 231 80.5 t154 212.5v672h48q124 0 165 47q30 39 33 125z" />
<glyph unicode="&#x1e6;" horiz-adv-x="1466" d="M807 1661h-102l-201 176l78 41l174 -129l174 129l80 -41zM909 715h445v-715h-121v213q-201 -223 -467 -223q-114 0 -220.5 41t-188.5 113t-144 165t-94.5 201.5t-32.5 218.5q0 144 51 278.5t139 235t214 161t268 60.5q206 0 344 -84.5t211 -232.5l-111 -74 q-137 262 -446 262q-117 0 -217.5 -51.5t-167.5 -136.5t-104.5 -194.5t-37.5 -225.5q0 -121 42.5 -233t115 -194.5t174.5 -131.5t215 -49q254 0 457 243v242h-324v111z" />
<glyph unicode="&#x1e7;" horiz-adv-x="1265" d="M442 1495l174 -129l175 129l79 -41l-202 -176h-103l-200 176zM82 530q0 148 62 274.5t176.5 203.5t257.5 77q244 0 409 -241v223h125v-1071q0 -144 -72 -248.5t-188.5 -154.5t-261.5 -50q-176 0 -290 62t-189 180l86 68q61 -98 165 -148.5t228 -50.5q79 0 147.5 21.5 t121.5 63t83.5 108t30.5 149.5v211q-61 -101 -168 -161t-223 -60q-142 0 -258 77.5t-179 201.5t-63 265zM973 367v329q-44 116 -149 191.5t-220 75.5q-114 0 -203 -65.5t-133.5 -163.5t-44.5 -206q0 -113 53 -211t145 -156.5t200 -58.5q122 0 227.5 82t124.5 183z" />
<glyph unicode="&#x1ea;" horiz-adv-x="1538" d="M903 4q-79 -61 -115 -106.5t-36 -83.5t37.5 -56t117.5 -28l-35 -92q-219 22 -219 157q0 101 113 195q-147 0 -275.5 63t-216 166t-138 236t-50.5 272q0 144 53 278.5t142.5 235.5t218 162t270.5 61q118 0 226 -41.5t189.5 -113.5t142 -166t91.5 -201.5t31 -216.5 q0 -168 -69.5 -320.5t-195 -259.5t-282.5 -141zM229 727q0 -118 40 -228t109.5 -194t171.5 -135t218 -51q120 0 223 53t171 139t106.5 194.5t38.5 221.5q0 158 -68 296t-193 224t-278 86q-120 0 -223 -52.5t-171 -138t-106.5 -194t-38.5 -221.5z" />
<glyph unicode="&#x1eb;" d="M743 -4q-83 -63 -119 -108t-36 -85q0 -38 37.5 -56t117.5 -28l-34 -92q-220 22 -220 158q0 101 113 195q-112 1 -210 46t-166 119.5t-107 174.5t-39 210q0 111 40 212.5t109 177t168 120.5t211 45q150 0 272.5 -76t190.5 -203t68 -276q0 -190 -110 -339t-286 -195z M221 528q0 -178 113.5 -302t273.5 -124t274.5 126t114.5 304t-114.5 304.5t-274.5 126.5q-104 0 -193 -58t-141.5 -158.5t-52.5 -218.5z" />
<glyph unicode="&#x1fa;" horiz-adv-x="1384" d="M764 1427l594 -1427h-152l-188 455h-653l-187 -455h-153l596 1427q-50 18 -80.5 60t-30.5 98q0 70 45.5 117t116.5 53l100 156h148l-140 -172q44 -22 69 -62.5t25 -91.5q0 -56 -29 -97.5t-81 -60.5zM592 1585q0 -43 28.5 -71.5t71.5 -28.5q40 0 71.5 28.5t31.5 71.5 q0 46 -29.5 73.5t-73.5 27.5q-43 0 -71.5 -27.5t-28.5 -73.5zM395 567h590l-293 719z" />
<glyph unicode="&#x1fb;" horiz-adv-x="1116" d="M598 1653l-92 35l121 190h147zM539 1544q79 0 130.5 -48.5t51.5 -123.5t-51 -122.5t-131 -47.5q-79 0 -131 48t-52 122q0 75 52.5 123.5t130.5 48.5zM438 1372q0 -43 29 -71.5t72 -28.5q40 0 71 28.5t31 71.5q0 46 -29 73.5t-73 27.5q-43 0 -72 -27.5t-29 -73.5zM68 307 q0 147 124.5 236.5t325.5 89.5q172 0 311 -49v90q0 136 -80.5 215.5t-220.5 79.5q-161 0 -342 -125l-53 98q208 143 410 143q197 0 311.5 -113t114.5 -310v-494q0 -29 12 -42t39 -15v-111q-50 -6 -64 -4q-49 1 -76.5 30.5t-29.5 67.5l-2 78q-71 -90 -185 -141t-235 -51 q-155 0 -257.5 94.5t-102.5 232.5zM782 225q47 53 47 103v155q-139 56 -294 56q-151 0 -242.5 -60.5t-91.5 -161.5q0 -94 71 -162.5t189 -68.5q99 0 186 38.5t135 100.5z" />
<glyph unicode="&#x1fc;" horiz-adv-x="1968" d="M1245 1653l-92 35l121 190h147zM883 1454h985v-127h-807v-522h696v-127h-696v-551h825v-127h-964v455h-531l-289 -455h-155zM911 582v700l-454 -700h454z" />
<glyph unicode="&#x1fd;" horiz-adv-x="1908" d="M981 1270l-92 35l121 190h147zM68 311q0 141 124 231.5t320 90.5q143 0 274 -41q7 90 35 156q-20 110 -97 171.5t-198 61.5q-158 0 -342 -127l-49 92q210 139 404 139q131 0 225.5 -55.5t142.5 -157.5q68 98 175 155.5t233 57.5q152 0 274.5 -75t189.5 -201t68 -277 l-2 -49h-927q13 -171 130.5 -284t278.5 -113q105 0 197.5 54t128.5 139l123 -33q-52 -118 -176.5 -192t-278.5 -74q-137 0 -252.5 63.5t-187.5 171.5q-63 -116 -193.5 -175.5t-267.5 -59.5q-149 0 -250.5 95.5t-101.5 235.5zM1714 578q-14 175 -126 287t-275 112 t-274.5 -113t-120.5 -286h796zM793 236q33 38 36 71q-39 77 -43 197q-121 41 -256 41q-148 0 -239.5 -61.5t-91.5 -161.5q0 -99 74 -167.5t180 -68.5q108 0 200 41t140 109z" />
<glyph unicode="&#x1fe;" horiz-adv-x="1538" d="M993 1878l-176 -225l-92 35l121 190h147zM1217 1280q110 -107 171.5 -254t61.5 -301q0 -144 -52.5 -278t-142 -235t-217.5 -161.5t-270 -60.5q-188 0 -344 100l-59 -90h-158l112 170q-110 106 -171.5 253t-61.5 304q0 144 53 278.5t142.5 235.5t218 162t270.5 61 q187 0 342 -102l62 92h157zM229 727q0 -125 43.5 -240t122.5 -202l643 966q-125 82 -270 82q-120 0 -223 -52.5t-171 -138t-106.5 -194t-38.5 -221.5zM768 119q120 0 223 53t171 139t106.5 194.5t38.5 221.5q0 124 -43.5 238.5t-122.5 199.5l-643 -966q127 -80 270 -80z" />
<glyph unicode="&#x1ff;" d="M727 1495l-176 -225l-92 35l121 190h147zM958 950q86 -77 133.5 -187t47.5 -233q0 -148 -67.5 -273.5t-190 -201t-273.5 -75.5q-148 0 -272 75l-45 -57h-123l90 117q-84 76 -131 184.5t-47 230.5q0 111 40 212.5t109 177t168 120.5t211 45q147 0 271 -75l45 61h127z M221 528q0 -185 123 -311l455 690q-88 56 -191 56q-104 0 -193 -58t-141.5 -158.5t-52.5 -218.5zM608 102q160 0 274.5 126t114.5 304q0 91 -32.5 171.5t-90.5 140.5l-456 -686q88 -56 190 -56z" />
<glyph unicode="&#x200;" horiz-adv-x="1384" d="M377 1880h131l117 -190l-76 -35zM635 1880h129l117 -190l-76 -35zM633 1454h121l604 -1454h-152l-188 455h-653l-187 -455h-153zM985 567l-293 719l-297 -719h590z" />
<glyph unicode="&#x201;" horiz-adv-x="1116" d="M223 1497h131l117 -190l-76 -35zM481 1497h129l117 -190l-76 -35zM68 307q0 147 124.5 236.5t325.5 89.5q172 0 311 -49v90q0 136 -80.5 215.5t-220.5 79.5q-161 0 -342 -125l-53 98q208 143 410 143q197 0 311.5 -113t114.5 -310v-494q0 -29 12 -42t39 -15v-111 q-50 -6 -64 -4q-49 1 -76.5 30.5t-29.5 67.5l-2 78q-71 -90 -185 -141t-235 -51q-155 0 -257.5 94.5t-102.5 232.5zM782 225q47 53 47 103v155q-139 56 -294 56q-151 0 -242.5 -60.5t-91.5 -161.5q0 -94 71 -162.5t189 -68.5q99 0 186 38.5t135 100.5z" />
<glyph unicode="&#x202;" horiz-adv-x="1384" d="M578 1671h-86q0 88 57.5 147.5t142.5 59.5q84 0 142.5 -60t58.5 -147h-84q-6 57 -40 96t-77 39q-44 0 -79 -41.5t-35 -93.5zM633 1454h121l604 -1454h-152l-188 455h-653l-187 -455h-153zM985 567l-293 719l-297 -719h590z" />
<glyph unicode="&#x203;" horiz-adv-x="1116" d="M424 1288h-86q0 88 58 147.5t143 59.5q84 0 142 -60t58 -147h-84q-6 57 -39.5 96t-76.5 39q-44 0 -79.5 -41.5t-35.5 -93.5zM68 307q0 147 124.5 236.5t325.5 89.5q172 0 311 -49v90q0 136 -80.5 215.5t-220.5 79.5q-161 0 -342 -125l-53 98q208 143 410 143 q197 0 311.5 -113t114.5 -310v-494q0 -29 12 -42t39 -15v-111q-50 -6 -64 -4q-49 1 -76.5 30.5t-29.5 67.5l-2 78q-71 -90 -185 -141t-235 -51q-155 0 -257.5 94.5t-102.5 232.5zM782 225q47 53 47 103v155q-139 56 -294 56q-151 0 -242.5 -60.5t-91.5 -161.5 q0 -94 71 -162.5t189 -68.5q99 0 186 38.5t135 100.5z" />
<glyph unicode="&#x204;" horiz-adv-x="1247" d="M375 1880h131l117 -190l-76 -35zM633 1880h129l117 -190l-76 -35zM1159 127v-127h-977v1454h959v-127h-815v-524h710v-121h-710v-555h833z" />
<glyph unicode="&#x205;" horiz-adv-x="1202" d="M293 1497h131l117 -190l-76 -35zM551 1497h129l117 -190l-76 -35zM614 -20q-151 0 -274.5 76t-191.5 203.5t-68 277.5q0 148 68 273.5t191 200t273 74.5q152 0 274.5 -75.5t188.5 -200t66 -270.5q0 -46 -2 -56h-914q13 -171 127 -284t269 -113q105 0 197 53.5t130 139.5 l121 -33q-50 -118 -175.5 -192t-279.5 -74zM221 584h789q-13 172 -125.5 282.5t-270.5 110.5t-270.5 -111t-122.5 -282z" />
<glyph unicode="&#x206;" horiz-adv-x="1247" d="M575 1671h-86q0 88 58 147.5t143 59.5q84 0 142.5 -60t58.5 -147h-84q-6 57 -40 96t-77 39q-44 0 -79.5 -41.5t-35.5 -93.5zM1159 127v-127h-977v1454h959v-127h-815v-524h710v-121h-710v-555h833z" />
<glyph unicode="&#x207;" horiz-adv-x="1202" d="M494 1288h-86q0 88 57.5 147.5t142.5 59.5q84 0 142.5 -60t58.5 -147h-84q-6 57 -40 96t-77 39q-44 0 -79 -41.5t-35 -93.5zM614 -20q-151 0 -274.5 76t-191.5 203.5t-68 277.5q0 148 68 273.5t191 200t273 74.5q152 0 274.5 -75.5t188.5 -200t66 -270.5q0 -46 -2 -56 h-914q13 -171 127 -284t269 -113q105 0 197 53.5t130 139.5l121 -33q-50 -118 -175.5 -192t-279.5 -74zM221 584h789q-13 172 -125.5 282.5t-270.5 110.5t-270.5 -111t-122.5 -282z" />
<glyph unicode="&#x208;" horiz-adv-x="507" d="M-61 1880h131l116 -190l-75 -35zM197 1880h129l116 -190l-75 -35zM182 0v1454h144v-1454h-144z" />
<glyph unicode="&#x209;" horiz-adv-x="446" d="M-92 1497h131l117 -190l-76 -35zM166 1497h129l117 -190l-76 -35zM154 0v1067h139v-1067h-139z" />
<glyph unicode="&#x20a;" horiz-adv-x="507" d="M139 1671h-86q0 88 58 147.5t143 59.5q84 0 142.5 -60t58.5 -147h-84q-6 57 -40 96t-77 39q-44 0 -79.5 -41.5t-35.5 -93.5zM182 0v1454h144v-1454h-144z" />
<glyph unicode="&#x20b;" horiz-adv-x="446" d="M109 1288h-86q0 88 57.5 147.5t142.5 59.5q84 0 142.5 -60t58.5 -147h-84q-6 57 -40 96t-77 39q-44 0 -79 -41.5t-35 -93.5zM154 0v1067h139v-1067h-139z" />
<glyph unicode="&#x20c;" horiz-adv-x="1538" d="M455 1880h131l116 -190l-75 -35zM713 1880h129l116 -190l-75 -35zM86 727q0 144 53 278.5t142.5 235.5t218 162t270.5 61q118 0 226 -41.5t189.5 -113.5t142 -166t91.5 -201.5t31 -216.5q0 -144 -52.5 -278t-142 -235t-217.5 -161.5t-270 -60.5q-148 0 -277.5 63 t-217 166t-137.5 235.5t-50 272.5zM768 119q120 0 223 53t171 139t106.5 194.5t38.5 221.5q0 158 -68 296t-193 224t-278 86q-120 0 -223 -52.5t-171 -138t-106.5 -194t-38.5 -221.5q0 -118 40 -228t109.5 -194t171.5 -135t218 -51z" />
<glyph unicode="&#x20d;" d="M293 1497h131l117 -190l-76 -35zM551 1497h129l117 -190l-76 -35zM80 530q0 111 40 212.5t109 177t168 120.5t211 45q150 0 272.5 -76t190.5 -203t68 -276q0 -148 -67.5 -273.5t-190 -201t-273.5 -75.5t-273 75.5t-188.5 201t-66.5 273.5zM608 102q160 0 274.5 126 t114.5 304t-114.5 304.5t-274.5 126.5q-104 0 -193 -58t-141.5 -158.5t-52.5 -218.5q0 -178 113.5 -302t273.5 -124z" />
<glyph unicode="&#x20e;" horiz-adv-x="1538" d="M655 1671h-86q0 88 58 147.5t143 59.5q84 0 142.5 -60t58.5 -147h-84q-6 57 -40 96t-77 39q-44 0 -79.5 -41.5t-35.5 -93.5zM86 727q0 144 53 278.5t142.5 235.5t218 162t270.5 61q118 0 226 -41.5t189.5 -113.5t142 -166t91.5 -201.5t31 -216.5q0 -144 -52.5 -278 t-142 -235t-217.5 -161.5t-270 -60.5q-148 0 -277.5 63t-217 166t-137.5 235.5t-50 272.5zM768 119q120 0 223 53t171 139t106.5 194.5t38.5 221.5q0 158 -68 296t-193 224t-278 86q-120 0 -223 -52.5t-171 -138t-106.5 -194t-38.5 -221.5q0 -118 40 -228t109.5 -194 t171.5 -135t218 -51z" />
<glyph unicode="&#x20f;" d="M494 1288h-86q0 88 57.5 147.5t142.5 59.5q84 0 142.5 -60t58.5 -147h-84q-6 57 -40 96t-77 39q-44 0 -79 -41.5t-35 -93.5zM80 530q0 111 40 212.5t109 177t168 120.5t211 45q150 0 272.5 -76t190.5 -203t68 -276q0 -148 -67.5 -273.5t-190 -201t-273.5 -75.5t-273 75.5 t-188.5 201t-66.5 273.5zM608 102q160 0 274.5 126t114.5 304t-114.5 304.5t-274.5 126.5q-104 0 -193 -58t-141.5 -158.5t-52.5 -218.5q0 -178 113.5 -302t273.5 -124z" />
<glyph unicode="&#x210;" horiz-adv-x="1337" d="M307 1884h131l117 -190l-76 -35zM565 1884h129l117 -190l-76 -35zM182 0v1454h615q120 0 220.5 -67.5t155 -172t54.5 -217.5q0 -160 -90 -283.5t-234 -152.5l357 -561h-162l-342 537h-430v-537h-144zM326 664h475q83 0 148.5 47.5t99.5 123t34 162.5q0 133 -87.5 231.5 t-207.5 98.5h-462v-663z" />
<glyph unicode="&#x211;" horiz-adv-x="718" d="M96 1497h131l117 -190l-76 -35zM354 1497h129l117 -190l-76 -35zM686 944q-141 -5 -246 -78.5t-147 -201.5v-664h-139v1067h131v-256q55 112 146 181.5t194 78.5q40 3 61 0v-127z" />
<glyph unicode="&#x212;" horiz-adv-x="1337" d="M508 1675h-86q0 88 58 147.5t143 59.5q84 0 142 -60t58 -147h-84q-6 57 -39.5 96t-76.5 39q-44 0 -79.5 -41.5t-35.5 -93.5zM182 0v1454h615q120 0 220.5 -67.5t155 -172t54.5 -217.5q0 -160 -90 -283.5t-234 -152.5l357 -561h-162l-342 537h-430v-537h-144zM326 664h475 q83 0 148.5 47.5t99.5 123t34 162.5q0 133 -87.5 231.5t-207.5 98.5h-462v-663z" />
<glyph unicode="&#x213;" horiz-adv-x="718" d="M297 1288h-86q0 88 58 147.5t143 59.5q84 0 142 -60t58 -147h-84q-6 57 -39.5 96t-76.5 39q-44 0 -79.5 -41.5t-35.5 -93.5zM686 944q-141 -5 -246 -78.5t-147 -201.5v-664h-139v1067h131v-256q55 112 146 181.5t194 78.5q40 3 61 0v-127z" />
<glyph unicode="&#x214;" horiz-adv-x="1546" d="M459 1880h131l117 -190l-76 -35zM717 1880h129l117 -190l-76 -35zM774 -10q-134 0 -240 41t-175 109t-114 163.5t-64 198.5t-19 219v733h141v-733q0 -96 14 -180t48 -163t86 -135.5t134 -90t187 -33.5q107 0 190.5 34.5t135.5 91.5t85.5 136.5t46.5 162.5t13 177v733h143 v-733q0 -121 -20.5 -226.5t-67 -199.5t-116 -160.5t-174 -105.5t-234.5 -39z" />
<glyph unicode="&#x215;" horiz-adv-x="1216" d="M279 1497h131l116 -190l-75 -35zM537 1497h129l116 -190l-75 -35zM143 440v627h140v-602q0 -363 247 -363q124 0 231 80.5t154 212.5v672h140v-899q0 -29 11.5 -42t37.5 -15v-111q-33 -4 -66 -4q-43 3 -71.5 32t-30.5 70l-4 144q-68 -123 -188 -192.5t-261 -69.5 q-167 0 -253.5 116.5t-86.5 343.5z" />
<glyph unicode="&#x216;" horiz-adv-x="1546" d="M659 1671h-86q0 88 58 147.5t143 59.5q84 0 142.5 -60t58.5 -147h-84q-6 57 -40 96t-77 39q-44 0 -79.5 -41.5t-35.5 -93.5zM774 -10q-134 0 -240 41t-175 109t-114 163.5t-64 198.5t-19 219v733h141v-733q0 -96 14 -180t48 -163t86 -135.5t134 -90t187 -33.5 q107 0 190.5 34.5t135.5 91.5t85.5 136.5t46.5 162.5t13 177v733h143v-733q0 -121 -20.5 -226.5t-67 -199.5t-116 -160.5t-174 -105.5t-234.5 -39z" />
<glyph unicode="&#x217;" horiz-adv-x="1216" d="M479 1288h-86q0 88 58 147.5t143 59.5q84 0 142.5 -60t58.5 -147h-84q-6 57 -40 96t-77 39q-44 0 -79.5 -41.5t-35.5 -93.5zM143 440v627h140v-602q0 -363 247 -363q124 0 231 80.5t154 212.5v672h140v-899q0 -29 11.5 -42t37.5 -15v-111q-33 -4 -66 -4q-43 3 -71.5 32 t-30.5 70l-4 144q-68 -123 -188 -192.5t-261 -69.5q-167 0 -253.5 116.5t-86.5 343.5z" />
<glyph unicode="&#x218;" horiz-adv-x="1243" d="M1032 1182q-64 71 -167 113t-230 42q-187 0 -278 -70.5t-91 -199.5q0 -51 16.5 -89.5t44.5 -65.5t81.5 -49.5t111 -38.5t150.5 -36q84 -18 145.5 -35.5t122 -41.5t101 -54t73 -69.5t47.5 -91t15 -115.5q0 -130 -68.5 -220t-184.5 -131.5t-272 -41.5q-337 0 -583 211 l71 116q82 -88 219.5 -144t296.5 -56q176 0 272.5 64t96.5 188q0 53 -19 93.5t-51 70t-90 54.5t-120.5 43t-157.5 40q-99 23 -166 44t-128 51.5t-96 68.5t-55 91.5t-20 123.5q0 198 142.5 307.5t375.5 109.5q273 0 465 -168zM582 -408l34 152h-41v156h130v-156l-52 -152h-71 z" />
<glyph unicode="&#x219;" horiz-adv-x="989" d="M504 -20q-273 0 -438 174l57 98q168 -160 375 -160q127 0 203.5 51.5t76.5 143.5q0 56 -38 92.5t-82 51.5t-153 43q-28 7 -42 11q-90 25 -147 47.5t-103 55.5t-66 77.5t-20 106.5q0 149 111 231t288 82q120 0 216 -38.5t155 -108.5l-68 -94q-111 129 -311 129 q-110 0 -185 -45t-75 -140q0 -28 6 -49.5t23.5 -39t33.5 -29t52 -25t62 -22t79 -23.5q51 -14 78.5 -21.5t69.5 -21t64.5 -23t53.5 -24.5t47.5 -29t35.5 -34t28 -41.5t15.5 -49t6.5 -59.5q0 -148 -111.5 -232.5t-297.5 -84.5zM438 -408l35 152h-41v156h129v-156l-51 -152h-72 z" />
<glyph unicode="&#x21a;" horiz-adv-x="1249" d="M1214 1327h-518v-1327h-143v1327h-518v127h1179v-127zM565 -408l35 152h-41v156h129v-156l-51 -152h-72z" />
<glyph unicode="&#x21b;" horiz-adv-x="686" d="M666 51q-1 -1 -20.5 -9.5t-32 -13.5t-37.5 -13.5t-46 -13.5t-50 -9t-56 -4q-96 0 -160.5 53.5t-64.5 151.5v763h-148v111h148v360h139v-360h246v-111h-246v-725q4 -56 40 -85t89 -29q87 0 162 47zM360 -408l35 152h-41v156h129v-156l-51 -152h-72z" />
<glyph unicode="&#x22a;" horiz-adv-x="1538" d="M475 2150v97h592v-97h-592zM557 1681v193h119v-193h-119zM862 1681v193h119v-193h-119zM86 727q0 144 53 278.5t142.5 235.5t218 162t270.5 61q118 0 226 -41.5t189.5 -113.5t142 -166t91.5 -201.5t31 -216.5q0 -144 -52.5 -278t-142 -235t-217.5 -161.5t-270 -60.5 q-148 0 -277.5 63t-217 166t-137.5 235.5t-50 272.5zM768 119q120 0 223 53t171 139t106.5 194.5t38.5 221.5q0 158 -68 296t-193 224t-278 86q-120 0 -223 -52.5t-171 -138t-106.5 -194t-38.5 -221.5q0 -118 40 -228t109.5 -194t171.5 -135t218 -51z" />
<glyph unicode="&#x22b;" d="M313 1767v97h592v-97h-592zM395 1298v193h119v-193h-119zM700 1298v193h119v-193h-119zM80 530q0 111 40 212.5t109 177t168 120.5t211 45q150 0 272.5 -76t190.5 -203t68 -276q0 -148 -67.5 -273.5t-190 -201t-273.5 -75.5t-273 75.5t-188.5 201t-66.5 273.5zM608 102 q160 0 274.5 126t114.5 304t-114.5 304.5t-274.5 126.5q-104 0 -193 -58t-141.5 -158.5t-52.5 -218.5q0 -178 113.5 -302t273.5 -124z" />
<glyph unicode="&#x22c;" horiz-adv-x="1538" d="M475 2169v96h592v-96h-592zM633 1772q-31 0 -53.5 -13.5t-32 -32.5t-13.5 -32.5t-4 -20.5h-86q0 11 4.5 31t17.5 48.5t32.5 52.5t54.5 41.5t78 17.5q48 0 92.5 -21.5t86 -43t83.5 -21.5q30 0 53 10t34.5 23t18.5 28.5t9 24.5t2 14h86q0 -11 -4.5 -30t-18.5 -47.5 t-35 -52.5t-58.5 -41t-84.5 -17q-52 0 -99.5 20.5t-87.5 41t-75 20.5zM86 727q0 144 53 278.5t142.5 235.5t218 162t270.5 61q118 0 226 -41.5t189.5 -113.5t142 -166t91.5 -201.5t31 -216.5q0 -144 -52.5 -278t-142 -235t-217.5 -161.5t-270 -60.5q-148 0 -277.5 63 t-217 166t-137.5 235.5t-50 272.5zM768 119q120 0 223 53t171 139t106.5 194.5t38.5 221.5q0 158 -68 296t-193 224t-278 86q-120 0 -223 -52.5t-171 -138t-106.5 -194t-38.5 -221.5q0 -118 40 -228t109.5 -194t171.5 -135t218 -51z" />
<glyph unicode="&#x22d;" d="M313 1786v96h592v-96h-592zM471 1389q-31 0 -53.5 -13.5t-32 -33t-13 -32.5t-3.5 -20h-86q0 16 8 43t26.5 62.5t58.5 60.5t93 25q48 0 92.5 -21.5t86 -43t83.5 -21.5q30 0 53 10t34.5 23t18.5 28.5t9 24.5t2 14h86q0 -11 -4.5 -30t-18.5 -47.5t-35 -52.5t-58.5 -41 t-84.5 -17q-52 0 -99.5 20.5t-87.5 41t-75 20.5zM80 530q0 111 40 212.5t109 177t168 120.5t211 45q150 0 272.5 -76t190.5 -203t68 -276q0 -148 -67.5 -273.5t-190 -201t-273.5 -75.5t-273 75.5t-188.5 201t-66.5 273.5zM608 102q160 0 274.5 126t114.5 304t-114.5 304.5 t-274.5 126.5q-104 0 -193 -58t-141.5 -158.5t-52.5 -218.5q0 -178 113.5 -302t273.5 -124z" />
<glyph unicode="&#x230;" horiz-adv-x="1538" d="M475 2169v96h592v-96h-592zM707 1679v199h127v-199h-127zM86 727q0 144 53 278.5t142.5 235.5t218 162t270.5 61q118 0 226 -41.5t189.5 -113.5t142 -166t91.5 -201.5t31 -216.5q0 -144 -52.5 -278t-142 -235t-217.5 -161.5t-270 -60.5q-148 0 -277.5 63t-217 166 t-137.5 235.5t-50 272.5zM768 119q120 0 223 53t171 139t106.5 194.5t38.5 221.5q0 158 -68 296t-193 224t-278 86q-120 0 -223 -52.5t-171 -138t-106.5 -194t-38.5 -221.5q0 -118 40 -228t109.5 -194t171.5 -135t218 -51z" />
<glyph unicode="&#x231;" d="M313 1786v96h592v-96h-592zM545 1296v199h127v-199h-127zM80 530q0 111 40 212.5t109 177t168 120.5t211 45q150 0 272.5 -76t190.5 -203t68 -276q0 -148 -67.5 -273.5t-190 -201t-273.5 -75.5t-273 75.5t-188.5 201t-66.5 273.5zM608 102q160 0 274.5 126t114.5 304 t-114.5 304.5t-274.5 126.5q-104 0 -193 -58t-141.5 -158.5t-52.5 -218.5q0 -178 113.5 -302t273.5 -124z" />
<glyph unicode="&#x232;" horiz-adv-x="1333" d="M371 1741v96h592v-96h-592zM190 1454l476 -782l479 782h155l-563 -913v-541h-143v545l-561 909h157z" />
<glyph unicode="&#x233;" horiz-adv-x="1110" d="M274 1358v96h592v-96h-592zM215 -328q77 -4 94 0q37 4 69.5 61.5t117.5 266.5l-465 1067h147l391 -924l361 924h139l-553 -1376q-56 -145 -217 -148q-41 -3 -84 4v125z" />
<glyph unicode="&#x237;" horiz-adv-x="446" d="M-256 -291l70 94q52 -49 149 -49q74 0 132.5 55.5t58.5 135.5v1122h139v-1114q0 -137 -95.5 -230.5t-220.5 -93.5q-147 0 -233 80z" />
<glyph unicode="&#x259;" horiz-adv-x="1202" d="M594 -20q-151 0 -274 74.5t-191.5 200t-69.5 275.5q0 28 4 52h912q-12 170 -125 282.5t-268 112.5q-106 0 -198.5 -53.5t-129.5 -137.5l-121 33q50 117 175.5 191.5t279.5 74.5q150 0 273.5 -76t192 -204t68.5 -279q0 -111 -39.5 -211t-108 -174t-168 -117.5 t-212.5 -43.5zM594 86q156 0 265 113.5t120 285.5h-782q10 -173 125 -286t272 -113z" />
<glyph unicode="&#x2b9;" horiz-adv-x="403" d="M141 1067v399h121l-49 -399h-72z" />
<glyph unicode="&#x2ba;" horiz-adv-x="806" d="M141 1067v399h121l-49 -399h-72zM545 1067v399h121l-50 -399h-71z" />
<glyph unicode="&#x2bb;" horiz-adv-x="315" d="M193 1495l-35 -131h41v-143h-129v143l51 131h72z" />
<glyph unicode="&#x2bc;" horiz-adv-x="454" d="M193 1270l-93 35l121 190h148z" />
<glyph unicode="&#x2be;" horiz-adv-x="325" d="M72 1202v70q40 0 71 28.5t31 71.5q0 46 -29.5 73.5t-72.5 27.5v71q79 0 130.5 -48.5t51.5 -123.5t-51 -122.5t-131 -47.5z" />
<glyph unicode="&#x2bf;" horiz-adv-x="325" d="M254 1202q-79 0 -130.5 48t-51.5 122q0 75 52 123.5t130 48.5v-71q-43 0 -71.5 -27.5t-28.5 -73.5q0 -43 28.5 -71.5t71.5 -28.5v-70z" />
<glyph unicode="&#x2c6;" horiz-adv-x="675" d="M86 1321l201 174h102l203 -174l-80 -43l-174 129l-174 -129z" />
<glyph unicode="&#x2c7;" horiz-adv-x="675" d="M164 1495l174 -129l174 129l80 -41l-203 -176h-102l-201 176z" />
<glyph unicode="&#x2c8;" horiz-adv-x="479" d="M301 1587v-833h-123v833h123z" />
<glyph unicode="&#x2c9;" horiz-adv-x="811" d="M111 1358v96h591v-96h-591z" />
<glyph unicode="&#x2ca;" horiz-adv-x="403" d="M141 1067v399h121l-49 -399h-72z" />
<glyph unicode="&#x2cb;" horiz-adv-x="403" d="M190 1067l-49 399h121v-399h-72z" />
<glyph unicode="&#x2cc;" horiz-adv-x="479" d="M301 567v-833h-123v833h123z" />
<glyph unicode="&#x2d8;" horiz-adv-x="577" d="M406 1495h83q0 -87 -58 -147t-142 -60q-85 0 -143 59.5t-58 147.5h86q0 -52 35.5 -93.5t79.5 -41.5q43 0 77 39t40 96z" />
<glyph unicode="&#x2d9;" horiz-adv-x="331" d="M102 1296v199h127v-199h-127z" />
<glyph unicode="&#x2da;" horiz-adv-x="507" d="M254 1544q79 0 130.5 -48.5t51.5 -123.5t-51 -122.5t-131 -47.5q-79 0 -130.5 48t-51.5 122q0 75 52 123.5t130 48.5zM154 1372q0 -43 28.5 -71.5t71.5 -28.5q40 0 71 28.5t31 71.5q0 46 -29 73.5t-73 27.5q-43 0 -71.5 -27.5t-28.5 -73.5z" />
<glyph unicode="&#x2db;" horiz-adv-x="491" d="M109 -215q0 124 184 248h39l35 -33q-85 -64 -122.5 -110.5t-37.5 -86.5q0 -38 37.5 -56t117.5 -28l-34 -92q-219 22 -219 158z" />
<glyph unicode="&#x2dc;" horiz-adv-x="831" d="M279 1389q-31 0 -53.5 -13.5t-32 -32.5t-13.5 -32.5t-4 -20.5h-86q0 16 8 43t26.5 62.5t58.5 60.5t93 25q48 0 92.5 -21.5t86.5 -43t84 -21.5q30 0 52.5 10t34 23t19 28.5t9 24.5t1.5 14h86q0 -15 -8.5 -41.5t-28.5 -61.5t-62.5 -60t-100.5 -25q-52 0 -99.5 20.5 t-87.5 41t-75 20.5z" />
<glyph unicode="&#x2dd;" horiz-adv-x="667" d="M164 1270l-76 35l117 190h131zM422 1270l-78 35l117 190h131z" />
<glyph unicode="&#x300;" horiz-adv-x="0" d="M-354 1495h145l123 -190l-90 -35z" />
<glyph unicode="&#x301;" horiz-adv-x="0" d="M-262 1270l-92 35l121 190h147z" />
<glyph unicode="&#x302;" horiz-adv-x="0" d="M-590 1321l201 174h102l203 -174l-80 -43l-174 129l-174 -129z" />
<glyph unicode="&#x303;" horiz-adv-x="0" d="M-580 1389q-31 0 -53.5 -13.5t-32 -33t-13 -32.5t-3.5 -20h-86q0 16 8 43t26.5 62.5t58.5 60.5t93 25q48 0 92.5 -21.5t86.5 -43t84 -21.5q30 0 52.5 10t34 23t19 28.5t9 24.5t1.5 14h86q0 -15 -8.5 -41.5t-28.5 -61.5t-62.5 -60t-100.5 -25q-52 0 -99.5 20.5t-88 41 t-75.5 20.5z" />
<glyph unicode="&#x304;" horiz-adv-x="0" d="M-700 1358v96h591v-96h-591z" />
<glyph unicode="&#x306;" horiz-adv-x="0" d="M-172 1495h84q0 -87 -58.5 -147t-142.5 -60q-85 0 -142.5 59.5t-57.5 147.5h86q0 -52 35 -93.5t79 -41.5q43 0 77 39t40 96z" />
<glyph unicode="&#x307;" horiz-adv-x="0" d="M-229 1296v199h127v-199h-127z" />
<glyph unicode="&#x308;" horiz-adv-x="0" d="M-549 1296v193h119v-193h-119zM-244 1296v193h119v-193h-119z" />
<glyph unicode="&#x309;" horiz-adv-x="0" d="M-705 1417l-55 56q79 69 162 69q65 0 101 -37t36 -92q0 -77 -104 -168l-43 49q61 61 61 107q0 27 -16.5 45t-46.5 18q-26 0 -45.5 -10t-49.5 -37z" />
<glyph unicode="&#x30a;" horiz-adv-x="0" d="M-254 1544q79 0 130.5 -48.5t51.5 -123.5t-51 -122.5t-131 -47.5q-79 0 -130.5 48t-51.5 122q0 75 52 123.5t130 48.5zM-354 1372q0 -43 28.5 -71.5t71.5 -28.5q40 0 71 28.5t31 71.5q0 46 -29 73.5t-73 27.5q-43 0 -71.5 -27.5t-28.5 -73.5z" />
<glyph unicode="&#x30b;" horiz-adv-x="0" d="M-504 1270l-76 35l117 190h131zM-246 1270l-78 35l117 190h131z" />
<glyph unicode="&#x30c;" horiz-adv-x="0" d="M-512 1495l174 -129l174 129l80 -41l-203 -176h-102l-201 176z" />
<glyph unicode="&#x30f;" horiz-adv-x="0" d="M-592 1495h131l117 -190l-76 -35zM-334 1495h129l117 -190l-76 -35z" />
<glyph unicode="&#x311;" horiz-adv-x="0" d="M-403 1288h-86q0 88 57.5 147.5t142.5 59.5q84 0 142.5 -60t58.5 -147h-84q-6 57 -40 96t-77 39q-44 0 -79 -41.5t-35 -93.5z" />
<glyph unicode="&#x312;" horiz-adv-x="0" d="M-123 1495l-35 -131h41v-143h-129v143l51 131h72z" />
<glyph unicode="&#x31b;" horiz-adv-x="0" d="M-422 1036l2 105q125 0 166 47q30 39 33 125h119q-5 -65 -18 -109t-46 -84q-36 -40 -104 -62t-152 -22z" />
<glyph unicode="&#x323;" horiz-adv-x="0" d="M-229 -346v199h127v-199h-127z" />
<glyph unicode="&#x324;" horiz-adv-x="0" d="M-549 -346v192h119v-192h-119zM-244 -346v192h119v-192h-119z" />
<glyph unicode="&#x326;" horiz-adv-x="0" d="M-193 -408l35 152h-41v156h129v-156l-51 -152h-72z" />
<glyph unicode="&#x327;" horiz-adv-x="0" d="M-303 -369q-121 0 -234 58l41 80q95 -45 170 -45q142 0 142 104q0 50 -35.5 90t-108.5 82l60 39q89 -55 133.5 -108t44.5 -126q0 -83 -57 -128.5t-156 -45.5z" />
<glyph unicode="&#x328;" horiz-adv-x="0" d="M-383 -215q0 124 184 248h39l35 -33q-85 -64 -122.5 -110.5t-37.5 -86.5q0 -38 37.5 -56t118.5 -28l-35 -92q-219 22 -219 158z" />
<glyph unicode="&#x32e;" horiz-adv-x="0" d="M-172 -104h84q0 -87 -58.5 -147t-142.5 -60q-85 0 -142.5 59.5t-57.5 147.5h86q0 -53 35 -94.5t79 -41.5q43 0 77 39.5t40 96.5z" />
<glyph unicode="&#x331;" horiz-adv-x="0" d="M-700 -264v96h591v-96h-591z" />
<glyph unicode="&#x335;" horiz-adv-x="0" d="M-594 573v93h492v-93h-492z" />
<glyph unicode="&#x3c0;" horiz-adv-x="1206" d="M350 940v-940h-135v940h-164v127h1069v-127h-225v-698q0 -60 33 -93.5t92 -33.5q55 0 110 22l25 -112q-98 -37 -192 -37q-93 0 -148 55.5t-55 151.5v745h-410z" />
<glyph unicode="&#x400;" horiz-adv-x="1247" d="M500 1880h145l123 -190l-90 -35zM1159 127v-127h-977v1454h959v-127h-815v-524h710v-121h-710v-555h833z" />
<glyph unicode="&#x401;" horiz-adv-x="1247" d="M477 1681v193h119v-193h-119zM782 1681v193h119v-193h-119zM1159 127v-127h-977v1454h959v-127h-815v-524h710v-121h-710v-555h833z" />
<glyph unicode="&#x402;" horiz-adv-x="1497" d="M952 -14q-95 0 -176 22l31 117q82 -19 133 -19q151 0 233 83t82 247q0 166 -97 257t-249 91q-191 0 -383 -127v-657h-139v1329h-352v125h1057v-125h-566v-543q195 121 400 121q208 0 338.5 -126t130.5 -345q0 -223 -117.5 -336.5t-325.5 -113.5z" />
<glyph unicode="&#x403;" horiz-adv-x="1056" d="M696 1657l-92 35l121 190h147zM182 0v1454h826v-127h-682v-1327h-144z" />
<glyph unicode="&#x404;" horiz-adv-x="1456" d="M774 -12q-144 0 -273.5 62.5t-219.5 166t-142.5 239.5t-52.5 281q0 107 29 211t88 197t141 163.5t196.5 112t245.5 41.5q192 0 334.5 -86t214.5 -231l-112 -70q-69 135 -187.5 196.5t-257.5 61.5q-119 0 -220 -46t-167.5 -122.5t-106 -169.5t-46.5 -192h682v-119h-687 q6 -151 79.5 -281t198.5 -208t271 -78q138 0 267 69t196 201l119 -61q-46 -105 -143.5 -183t-213 -116.5t-233.5 -38.5z" />
<glyph unicode="&#x405;" horiz-adv-x="1243" d="M1032 1182q-64 71 -167 113t-230 42q-187 0 -278 -70.5t-91 -199.5q0 -51 16.5 -89.5t44.5 -65.5t81.5 -49.5t111 -38.5t150.5 -36q84 -18 145.5 -35.5t122 -41.5t101 -54t73 -69.5t47.5 -91t15 -115.5q0 -130 -68.5 -220t-184.5 -131.5t-272 -41.5q-337 0 -583 211 l71 116q82 -88 219.5 -144t296.5 -56q176 0 272.5 64t96.5 188q0 53 -19 93.5t-51 70t-90 54.5t-120.5 43t-157.5 40q-99 23 -166 44t-128 51.5t-96 68.5t-55 91.5t-20 123.5q0 198 142.5 307.5t375.5 109.5q273 0 465 -168z" />
<glyph unicode="&#x406;" horiz-adv-x="507" d="M182 0v1454h144v-1454h-144z" />
<glyph unicode="&#x407;" horiz-adv-x="507" d="M41 1681v193h119v-193h-119zM346 1681v193h119v-193h-119zM182 0v1454h144v-1454h-144z" />
<glyph unicode="&#x408;" horiz-adv-x="985" d="M70 182q111 -76 276 -76q71 0 123.5 15.5t89 49.5t60 79t36.5 114.5t18 143.5t5 178v768h143v-739q0 -102 -4 -179t-16.5 -157.5t-33.5 -138t-56.5 -110t-84.5 -84.5t-118.5 -50.5t-157.5 -18.5q-188 0 -321 91z" />
<glyph unicode="&#x409;" horiz-adv-x="2066" d="M78 -4v127q110 3 176.5 89.5t103.5 301t41 584.5l4 356h820v-575h293q227 0 346.5 -119.5t119.5 -319.5q0 -192 -119.5 -316t-336.5 -124h-445v1327h-549v-332q-1 -178 -13.5 -321t-33 -246t-52.5 -179.5t-68 -124.5t-84 -76.5t-95.5 -40t-107.5 -11.5zM1223 121h286 q164 0 246 91.5t82 227.5q0 65 -16.5 119.5t-53 100.5t-103.5 72t-159 26h-282v-637z" />
<glyph unicode="&#x40a;" horiz-adv-x="2064" d="M182 0v1454h144v-625h751v625h144v-618h292q227 0 347 -111.5t120 -300.5q0 -183 -119.5 -303.5t-336.5 -120.5h-447v702h-751v-702h-144zM1221 121h286q84 0 149 25t103 68t57 96t19 114q0 47 -10 88t-34 78.5t-61 64t-95 42.5t-132 16h-282v-592z" />
<glyph unicode="&#x40b;" horiz-adv-x="1472" d="M387 0v1329h-352v125h1046v-125h-555v-512q183 78 383 78q233 0 346 -109.5t113 -343.5v-442h-139v426q0 174 -80.5 255t-259.5 81q-98 0 -199.5 -24.5t-163.5 -61.5v-676h-139z" />
<glyph unicode="&#x40c;" horiz-adv-x="1298" d="M694 1657l-92 35l121 190h147zM182 0v1454h144v-647h219l499 647h166l-546 -704l581 -750h-176l-520 676h-223v-676h-144z" />
<glyph unicode="&#x40d;" horiz-adv-x="1556" d="M588 1884h145l123 -190l-90 -35zM190 0v1454h142v-1257l901 1257h133v-1454h-141v1235l-891 -1235h-144z" />
<glyph unicode="&#x40e;" horiz-adv-x="1261" d="M651 1628q-126 0 -194 51.5t-68 130.5h82q0 -47 44 -78.5t136 -31.5q90 0 129 28.5t51 81.5h80q0 -79 -67.5 -130.5t-192.5 -51.5zM342 -4v121h92q43 0 66.5 23t56.5 83l64 133l-621 1098h158l528 -952l440 952h150l-608 -1300q-43 -87 -87 -122.5t-118 -35.5h-121z" />
<glyph unicode="&#x40f;" horiz-adv-x="1429" d="M653 -279v279h-471v1454h144v-1327h780v1327h141v-1454h-469v-279h-125z" />
<glyph unicode="&#x410;" horiz-adv-x="1384" d="M633 1454h121l604 -1454h-152l-188 455h-653l-187 -455h-153zM985 567l-293 719l-297 -719h590z" />
<glyph unicode="&#x411;" horiz-adv-x="1335" d="M182 0v1454h975v-127h-831v-506h479q231 0 350 -108t119 -293q0 -88 -29 -164t-84.5 -133.5t-144 -90t-199.5 -32.5h-635zM326 127h475q85 0 150 25t102.5 67.5t56 94t18.5 110.5q0 58 -16 106t-52 89.5t-103.5 64.5t-161.5 23h-469v-580z" />
<glyph unicode="&#x412;" horiz-adv-x="1363" d="M868 0h-686v1454h701q98 0 175.5 -55.5t116.5 -139t39 -176.5q0 -110 -55.5 -202t-152.5 -136q124 -37 197 -137.5t73 -232.5q0 -106 -55.5 -192.5t-148.5 -134.5t-204 -48zM326 1329v-536h499q105 0 176.5 80t71.5 188q0 112 -67 190t-168 78h-512zM883 676h-557v-551 h542q109 0 187 82.5t78 191.5q0 110 -72.5 193.5t-177.5 83.5z" />
<glyph unicode="&#x413;" horiz-adv-x="1056" d="M182 0v1454h826v-127h-682v-1327h-144z" />
<glyph unicode="&#x414;" horiz-adv-x="1533" d="M78 -279v406h61q80 1 130.5 84.5t82.5 288t43 553.5l11 401h870v-1327h174v-406h-127v279h-1118v-279h-127zM344 127h789v1200h-596l-9 -291q-11 -416 -53.5 -628t-130.5 -281z" />
<glyph unicode="&#x415;" horiz-adv-x="1247" d="M1159 127v-127h-977v1454h959v-127h-815v-524h710v-121h-710v-555h833z" />
<glyph unicode="&#x416;" horiz-adv-x="2017" d="M53 0l565 750l-530 704h168l483 -647h199v647h141v-647h197l485 647h168l-532 -704l565 -750h-166l-516 676h-201v-676h-141v676h-203l-516 -676h-166z" />
<glyph unicode="&#x417;" horiz-adv-x="1116" d="M547 -18q-149 0 -269 64t-186 179l111 68q51 -90 140 -139.5t202 -49.5q156 0 247 80.5t91 216.5q0 130 -84.5 211.5t-229.5 81.5h-139v115h141q112 0 184 75.5t72 188.5q0 118 -78.5 193t-207.5 75q-104 0 -185 -47t-127 -131l-104 70q65 114 172 177t250 63 q186 0 303 -105.5t117 -275.5q0 -110 -56.5 -201t-154.5 -133q126 -35 198 -134.5t72 -234.5q0 -187 -132.5 -297t-346.5 -110z" />
<glyph unicode="&#x418;" horiz-adv-x="1556" d="M190 0v1454h142v-1257l901 1257h133v-1454h-141v1235l-891 -1235h-144z" />
<glyph unicode="&#x419;" horiz-adv-x="1556" d="M778 1628q-126 0 -194 51.5t-68 130.5h82q0 -47 44 -78.5t136 -31.5q90 0 129 28.5t51 81.5h80q0 -79 -67.5 -130.5t-192.5 -51.5zM190 0v1454h142v-1257l901 1257h133v-1454h-141v1235l-891 -1235h-144z" />
<glyph unicode="&#x41a;" horiz-adv-x="1298" d="M182 0v1454h144v-647h219l499 647h166l-546 -704l581 -750h-176l-520 676h-223v-676h-144z" />
<glyph unicode="&#x41b;" horiz-adv-x="1488" d="M1165 0v1327h-594l-8 -307q-10 -300 -42.5 -498t-93.5 -314t-144 -163t-205 -47v127q67 0 116.5 25t91.5 87.5t69.5 168t45.5 266t25 381.5l12 401h869v-1454h-142z" />
<glyph unicode="&#x41c;" horiz-adv-x="1796" d="M1470 0v1184l-526 -920h-90l-528 920v-1184h-144v1454h148l567 -995l571 995h146v-1454h-144z" />
<glyph unicode="&#x41d;" horiz-adv-x="1511" d="M1329 1454v-1454h-141v680h-862v-680h-144v1454h144v-647h862v647h141z" />
<glyph unicode="&#x41e;" horiz-adv-x="1538" d="M86 727q0 144 53 278.5t142.5 235.5t218 162t270.5 61q118 0 226 -41.5t189.5 -113.5t142 -166t91.5 -201.5t31 -216.5q0 -144 -52.5 -278t-142 -235t-217.5 -161.5t-270 -60.5q-148 0 -277.5 63t-217 166t-137.5 235.5t-50 272.5zM768 119q120 0 223 53t171 139 t106.5 194.5t38.5 221.5q0 158 -68 296t-193 224t-278 86q-120 0 -223 -52.5t-171 -138t-106.5 -194t-38.5 -221.5q0 -118 40 -228t109.5 -194t171.5 -135t218 -51z" />
<glyph unicode="&#x41f;" horiz-adv-x="1462" d="M182 0v1454h1098v-1454h-143v1327h-811v-1327h-144z" />
<glyph unicode="&#x420;" horiz-adv-x="1273" d="M182 0v1454h602q120 0 221.5 -67.5t156.5 -172t55 -217.5q0 -120 -52 -224.5t-149.5 -170t-218.5 -65.5h-471v-537h-144zM326 664h465q125 0 203.5 98t78.5 235q0 136 -87.5 233t-207.5 97h-452v-663z" />
<glyph unicode="&#x421;" horiz-adv-x="1404" d="M776 1462q188 0 328.5 -86.5t208.5 -230.5l-113 -70q-45 92 -119 152t-151 83t-162 23q-101 0 -189 -34.5t-151.5 -93.5t-109 -136.5t-67.5 -164t-22 -175.5q0 -160 71 -300.5t197.5 -226t276.5 -85.5q86 0 169 27.5t159.5 90t120.5 152.5l118 -61 q-45 -104 -140.5 -182.5t-208 -117t-226.5 -38.5q-116 0 -223 42t-189 115.5t-143 168t-93 204t-32 219.5q0 133 47 261t132.5 232t219 168t291.5 64z" />
<glyph unicode="&#x422;" horiz-adv-x="1249" d="M1214 1327h-518v-1327h-143v1327h-518v127h1179v-127z" />
<glyph unicode="&#x423;" horiz-adv-x="1261" d="M342 -4v121h92q43 0 66.5 23t56.5 83l64 133l-621 1098h158l528 -952l440 952h150l-608 -1300q-43 -87 -87 -122.5t-118 -35.5h-121z" />
<glyph unicode="&#x424;" horiz-adv-x="1660" d="M762 0v135q-187 6 -340.5 86t-245 224.5t-90.5 326.5q1 142 56 262t148.5 200t215 126t256.5 51v109h135v-109q137 -4 259.5 -52t215 -129.5t147 -200t54.5 -257.5q0 -113 -36 -212.5t-100 -175t-149 -131t-185 -85t-206 -33.5v-135h-135zM764 254v1038q-149 -5 -270 -68 t-194 -181t-73 -271q0 -116 44 -213.5t119 -162t171.5 -101.5t202.5 -41zM895 254q147 5 268.5 68.5t195 181.5t73.5 268q0 93 -28.5 174.5t-78.5 143t-117.5 106.5t-147 69t-165.5 27v-1038z" />
<glyph unicode="&#x425;" horiz-adv-x="1294" d="M174 1454l475 -633l473 633h162l-557 -737l541 -717h-162l-457 612l-459 -612h-163l540 717l-557 737h164z" />
<glyph unicode="&#x426;" horiz-adv-x="1501" d="M1290 -276v276h-1108v1454h144v-1327h774v1327h141v-1327h176v-403h-127z" />
<glyph unicode="&#x427;" horiz-adv-x="1318" d="M995 0v627q-180 -80 -383 -80q-243 0 -357 106t-114 334v467h140v-450q0 -171 82.5 -248.5t269.5 -77.5q102 0 200.5 21.5t161.5 56.5v698h140v-1454h-140z" />
<glyph unicode="&#x428;" horiz-adv-x="1945" d="M182 0v1454h144v-1327h575v1327h143v-1327h578v1327h141v-1454h-1581z" />
<glyph unicode="&#x429;" horiz-adv-x="2023" d="M1810 -276v276h-1628v1454h144v-1327h575v1327h143v-1327h578v1327h141v-1327h176v-403h-129z" />
<glyph unicode="&#x42a;" horiz-adv-x="1478" d="M428 0v1331h-389v123h530v-565h355q230 0 351.5 -120.5t121.5 -324.5q0 -193 -121.5 -318.5t-341.5 -125.5h-506zM569 121h349q86 0 152 26.5t104.5 72.5t57.5 102.5t19 121.5q0 67 -17 122t-54 102t-105 73.5t-162 26.5h-344v-647z" />
<glyph unicode="&#x42b;" horiz-adv-x="1742" d="M182 0v1454h144v-565h368q230 0 350.5 -120.5t120.5 -324.5q0 -125 -50.5 -224t-156.5 -159.5t-253 -60.5h-523zM1419 0v1452h142v-1452h-142zM326 121h360q87 0 153.5 26.5t105 72.5t58 102.5t19.5 121.5q0 67 -17 122t-54 102t-105 73.5t-162 26.5h-358v-647z" />
<glyph unicode="&#x42c;" horiz-adv-x="1249" d="M182 0v1454h144v-565h368q230 0 350.5 -120.5t120.5 -324.5q0 -125 -50.5 -224t-156.5 -159.5t-253 -60.5h-523zM326 121h360q87 0 153.5 26.5t105 72.5t58 102.5t19.5 121.5q0 67 -17 122t-54 102t-105 73.5t-162 26.5h-358v-647z" />
<glyph unicode="&#x42d;" horiz-adv-x="1464" d="M684 -12q-124 0 -238 39.5t-205 116.5t-143 182l121 61q69 -131 194 -200.5t267 -69.5q148 0 273 78t197.5 208t78.5 281h-686v119h682q-9 103 -49 197t-107 169t-167 119.5t-218 44.5q-139 0 -255.5 -64.5t-184.5 -195.5l-119 72q81 147 220.5 232t334.5 85 q129 0 242 -41t195 -112t142 -164t89.5 -198t29.5 -214q0 -142 -51.5 -276.5t-140.5 -238.5t-220.5 -167t-281.5 -63z" />
<glyph unicode="&#x42e;" horiz-adv-x="2007" d="M1255 -10q-275 0 -452.5 185.5t-194.5 490.5h-282v-666h-144v1454h144v-659h282q9 152 62.5 278t139.5 211.5t200.5 132.5t244.5 47q196 0 348 -94.5t235 -262.5t83 -382q0 -169 -51 -308.5t-140 -232.5t-211 -143.5t-264 -50.5zM1255 119q235 0 378 170t143 438 q0 276 -145.5 441t-375.5 165q-231 0 -369 -168t-138 -438q0 -278 139.5 -443t367.5 -165z" />
<glyph unicode="&#x42f;" horiz-adv-x="1304" d="M133 0l389 616q-155 35 -241 147.5t-86 270.5q0 179 131 299.5t346 120.5h450v-1454h-141v598h-260h-51l-373 -598h-164zM678 723h303v606h-295q-154 0 -250 -81t-96 -214q0 -138 88.5 -224.5t249.5 -86.5z" />
<glyph unicode="&#x430;" horiz-adv-x="1116" d="M68 307q0 147 124.5 236.5t325.5 89.5q172 0 311 -49v90q0 136 -80.5 215.5t-220.5 79.5q-161 0 -342 -125l-53 98q208 143 410 143q197 0 311.5 -113t114.5 -310v-494q0 -29 12 -42t39 -15v-111q-50 -6 -64 -4q-49 1 -76.5 30.5t-29.5 67.5l-2 78q-71 -90 -185 -141 t-235 -51q-155 0 -257.5 94.5t-102.5 232.5zM782 225q47 53 47 103v155q-139 56 -294 56q-151 0 -242.5 -60.5t-91.5 -161.5q0 -94 71 -162.5t189 -68.5q99 0 186 38.5t135 100.5z" />
<glyph unicode="&#x431;" horiz-adv-x="1245" d="M643 -20q-255 0 -388.5 156.5t-133.5 441.5q0 158 21.5 278t60.5 204.5t103 146.5t138 101.5t177 71.5l448 148l12 -121l-432 -141q-128 -45 -206.5 -105t-126 -160.5t-60.5 -252.5q52 118 162.5 182.5t257.5 64.5q228 0 358.5 -137t130.5 -362q0 -238 -136.5 -377 t-385.5 -139zM643 102q180 0 280.5 105t100.5 282q0 176 -99.5 283t-281.5 107q-167 0 -273 -103t-106 -287q0 -172 99.5 -279.5t279.5 -107.5z" />
<glyph unicode="&#x432;" horiz-adv-x="1095" d="M152 0v1067h532q129 0 203 -78t74 -184q0 -85 -42.5 -154t-117.5 -104q94 -27 150.5 -98t56.5 -166q0 -128 -90.5 -205.5t-233.5 -77.5h-532zM285 586h362q77 0 128.5 59t51.5 137q0 75 -49.5 130t-122.5 55h-370v-381zM285 100h395q80 0 136 59t56 136q0 79 -53.5 136.5 t-130.5 57.5h-403v-389z" />
<glyph unicode="&#x433;" horiz-adv-x="829" d="M152 0v1067h636v-125h-497v-942h-139z" />
<glyph unicode="&#x434;" horiz-adv-x="1187" d="M35 -248v373h18q49 0 86.5 29t69 99t50.5 199.5t24 317.5l10 297h694v-942h143v-373h-124v248h-848v-248h-123zM264 125h584v817h-430l-6 -184q-9 -280 -45.5 -429.5t-102.5 -203.5z" />
<glyph unicode="&#x435;" horiz-adv-x="1202" d="M614 -20q-151 0 -274.5 76t-191.5 203.5t-68 277.5q0 148 68 273.5t191 200t273 74.5q152 0 274.5 -75.5t188.5 -200t66 -270.5q0 -46 -2 -56h-914q13 -171 127 -284t269 -113q105 0 197 53.5t130 139.5l121 -33q-50 -118 -175.5 -192t-279.5 -74zM221 584h789 q-13 172 -125.5 282.5t-270.5 110.5t-270.5 -111t-122.5 -282z" />
<glyph unicode="&#x436;" horiz-adv-x="1615" d="M78 0l399 549l-360 518h157l322 -461h139v461h144v-461h143l315 461h160l-362 -518l403 -549h-162l-354 483h-143v-483h-144v483h-139l-356 -483h-162z" />
<glyph unicode="&#x437;" horiz-adv-x="942" d="M463 -12q-146 0 -251.5 56t-160.5 159l115 51q39 -73 113.5 -112.5t177.5 -39.5q126 0 200 57t74 154q0 87 -60 141.5t-163 55.5h-109v96h117q67 0 113.5 52.5t46.5 129.5q0 83 -57 131t-164 48q-175 0 -248 -142l-107 58q47 96 140.5 148t218.5 52q155 0 249.5 -75 t94.5 -205q0 -78 -37 -142t-102 -96q95 -29 146.5 -100t51.5 -168q0 -144 -110.5 -226.5t-288.5 -82.5z" />
<glyph unicode="&#x438;" horiz-adv-x="1216" d="M152 0v1065h139v-877l649 879h125v-1067h-139v862l-639 -862h-135z" />
<glyph unicode="&#x439;" horiz-adv-x="1216" d="M610 1241q-126 0 -194 51.5t-68 130.5h82q0 -47 44 -78.5t136 -31.5q90 0 129.5 28.5t51.5 81.5h79q0 -79 -67.5 -130.5t-192.5 -51.5zM152 0v1065h139v-877l649 879h125v-1067h-139v862l-639 -862h-135z" />
<glyph unicode="&#x43a;" horiz-adv-x="1034" d="M152 0v1067h139v-457h131l356 457h160l-408 -518l459 -549h-164l-403 481h-131v-481h-139z" />
<glyph unicode="&#x43b;" horiz-adv-x="1165" d="M51 -6v127q57 1 98.5 30t76.5 99.5t55 200t26 319.5l12 297h693v-1067h-140v942h-430l-4 -184q-7 -221 -33.5 -369.5t-76.5 -235t-116.5 -122.5t-160.5 -37z" />
<glyph unicode="&#x43c;" horiz-adv-x="1435" d="M152 0v1067h143l424 -735l426 735h137v-1067h-133v858l-385 -668h-90l-389 668v-858h-133z" />
<glyph unicode="&#x43d;" horiz-adv-x="1193" d="M152 0v1067h139v-459h610v459h139v-1067h-139v483h-610v-483h-139z" />
<glyph unicode="&#x43e;" d="M80 530q0 111 40 212.5t109 177t168 120.5t211 45q150 0 272.5 -76t190.5 -203t68 -276q0 -148 -67.5 -273.5t-190 -201t-273.5 -75.5t-273 75.5t-188.5 201t-66.5 273.5zM608 102q160 0 274.5 126t114.5 304t-114.5 304.5t-274.5 126.5q-104 0 -193 -58t-141.5 -158.5 t-52.5 -218.5q0 -178 113.5 -302t273.5 -124z" />
<glyph unicode="&#x43f;" horiz-adv-x="1163" d="M152 0v1067h858v-1067h-140v942h-579v-942h-139z" />
<glyph unicode="&#x440;" horiz-adv-x="1263" d="M293 221v-657h-139v1503h125v-207q66 102 172 163.5t225 61.5q142 0 259.5 -79t182 -205.5t64.5 -268.5q0 -150 -60.5 -276t-172 -201t-251.5 -75q-128 0 -233.5 66.5t-171.5 174.5zM1040 532q0 174 -116 302.5t-281 128.5q-70 0 -147 -35.5t-135 -98.5t-68 -131v-327 q48 -117 149 -193t217 -76q111 0 200 62.5t135 160t46 207.5z" />
<glyph unicode="&#x441;" horiz-adv-x="1124" d="M616 -20q-152 0 -275.5 76t-192 203t-68.5 278t67 276t190 198.5t277 73.5q149 0 263 -68t172 -186l-136 -43q-44 82 -125.5 128.5t-179.5 46.5q-164 0 -275.5 -122t-111.5 -304q0 -180 115 -307.5t274 -127.5q102 0 194.5 54.5t117.5 128.5l137 -41 q-45 -116 -167.5 -190t-275.5 -74z" />
<glyph unicode="&#x442;" horiz-adv-x="976" d="M420 0v942h-381v125h901v-125h-381v-942h-139z" />
<glyph unicode="&#x443;" horiz-adv-x="1110" d="M215 -328q77 -4 94 0q37 4 69.5 61.5t117.5 266.5l-465 1067h147l391 -924l361 924h139l-553 -1376q-56 -145 -217 -148q-41 -3 -84 4v125z" />
<glyph unicode="&#x444;" horiz-adv-x="1429" d="M645 -436v436h-47q-153 0 -272.5 73t-182.5 193t-63 264q0 108 37.5 205.5t104 170.5t164.5 116t212 43h47v430h139v-430h47q151 0 271 -73.5t184 -195t64 -266.5q0 -144 -63 -264t-183 -193t-273 -73h-47v-436h-139zM598 117h51v831h-51q-165 0 -273 -122t-108 -298 t106.5 -293.5t274.5 -117.5zM778 117h53q167 0 274 118t107 293q0 176 -108 298t-273 122h-53v-831z" />
<glyph unicode="&#x445;" horiz-adv-x="1032" d="M186 1067l314 -418l16 -31l16 31l312 418h157l-405 -537l405 -530h-157l-312 416l-16 28l-16 -28l-312 -416h-157l403 530l-403 537h155z" />
<glyph unicode="&#x446;" horiz-adv-x="1185" d="M1004 -248v248h-852v1067h139v-944h553v944h139v-944h145v-371h-124z" />
<glyph unicode="&#x447;" horiz-adv-x="1056" d="M764 0v446q-125 -61 -291 -61q-179 0 -266.5 90.5t-87.5 276.5v315h139v-297q0 -144 58.5 -209t187.5 -65q73 0 144 16.5t116 42.5v512h139v-1067h-139z" />
<glyph unicode="&#x448;" horiz-adv-x="1634" d="M152 0v1067h139v-944h457v944h141v-944h454v944h140v-1067h-1331z" />
<glyph unicode="&#x449;" horiz-adv-x="1685" d="M1503 -248v248h-1351v1067h139v-942h457v942h141v-942h454v942h140v-942h145v-373h-125z" />
<glyph unicode="&#x44a;" horiz-adv-x="1206" d="M358 0v950h-323v117h463v-377h278q177 0 272 -91.5t95 -246.5q0 -154 -94 -253t-265 -99h-426zM498 111h268q118 0 176.5 68t58.5 171q0 102 -56 166t-183 64h-264v-469z" />
<glyph unicode="&#x44b;" horiz-adv-x="1388" d="M152 0v1067h139v-377h241q179 0 274 -91.5t95 -246.5q0 -154 -93.5 -253t-264.5 -99h-391zM1096 0v1065h139v-1065h-139zM291 111h233q117 0 176.5 68.5t59.5 170.5t-56.5 166t-183.5 64h-229v-469z" />
<glyph unicode="&#x44c;" horiz-adv-x="999" d="M152 0v1067h139v-377h276q179 0 274 -91.5t95 -246.5q0 -154 -93.5 -253t-264.5 -99h-426zM291 111h268q117 0 176.5 68.5t59.5 170.5t-56.5 166t-183.5 64h-264v-469z" />
<glyph unicode="&#x44d;" horiz-adv-x="1140" d="M532 -18q-145 0 -270.5 68t-183.5 188l112 51q52 -96 141 -144.5t191 -48.5q157 0 272 118t126 280h-498v98h496q-10 98 -58 182t-136 139.5t-200 55.5q-218 0 -317 -183l-109 56q59 113 169 178t259 65q124 0 227.5 -47t169.5 -125t102 -174.5t36 -199.5 q0 -106 -38 -206t-105 -178t-168 -125.5t-218 -47.5z" />
<glyph unicode="&#x44e;" horiz-adv-x="1593" d="M999 -20q-208 0 -343 136.5t-150 354.5h-213v-471h-139v1067h139v-473h213q17 221 153.5 356t339.5 135q154 0 272 -73.5t180 -199t62 -282.5q0 -243 -143 -396.5t-371 -153.5zM999 102q165 0 268 120t103 308q0 195 -105 314t-266 119q-160 0 -259 -120.5t-99 -312.5 q0 -194 100.5 -311t257.5 -117z" />
<glyph unicode="&#x44f;" horiz-adv-x="1060" d="M74 0l317 436q-111 15 -176 96.5t-65 215.5q0 139 96.5 230t253.5 91h407v-1069h-139v414h-238l-301 -414h-155zM498 520h270v438h-246q-105 0 -169 -60t-64 -153q0 -98 54.5 -161.5t154.5 -63.5z" />
<glyph unicode="&#x450;" horiz-adv-x="1202" d="M418 1497h145l123 -190l-90 -35zM614 -20q-151 0 -274.5 76t-191.5 203.5t-68 277.5q0 148 68 273.5t191 200t273 74.5q152 0 274.5 -75.5t188.5 -200t66 -270.5q0 -46 -2 -56h-914q13 -171 127 -284t269 -113q105 0 197 53.5t130 139.5l121 -33q-50 -118 -175.5 -192 t-279.5 -74zM221 584h789q-13 172 -125.5 282.5t-270.5 110.5t-270.5 -111t-122.5 -282z" />
<glyph unicode="&#x451;" horiz-adv-x="1202" d="M395 1298v193h119v-193h-119zM700 1298v193h119v-193h-119zM614 -20q-151 0 -274.5 76t-191.5 203.5t-68 277.5q0 148 68 273.5t191 200t273 74.5q152 0 274.5 -75.5t188.5 -200t66 -270.5q0 -46 -2 -56h-914q13 -171 127 -284t269 -113q105 0 197 53.5t130 139.5 l121 -33q-50 -118 -175.5 -192t-279.5 -74zM221 584h789q-13 172 -125.5 282.5t-270.5 110.5t-270.5 -111t-122.5 -282z" />
<glyph unicode="&#x452;" horiz-adv-x="1165" d="M659 -379q-153 0 -251 98l98 72q26 -23 67.5 -37t77.5 -14q146 0 211 135t70 422q4 281 -64.5 402.5t-230.5 121.5q-123 0 -209.5 -65.5t-130.5 -182.5v-573h-139v1151h-154v92h154v252h139v-252h479v-92h-479v-416q137 213 383 213q209 0 300 -143t91 -465 q0 -139 -13 -248t-42.5 -199t-77 -149t-117.5 -91t-162 -32z" />
<glyph unicode="&#x453;" horiz-adv-x="829" d="M563 1270l-92 35l121 190h147zM152 0v1067h636v-125h-497v-942h-139z" />
<glyph unicode="&#x454;" horiz-adv-x="1142" d="M612 -18q-95 0 -179.5 31t-148 84.5t-110 124t-70.5 152t-24 165.5q0 82 22.5 160.5t67.5 148.5t108 122.5t150.5 83.5t187.5 31q148 0 257.5 -65t168.5 -178l-106 -56q-103 183 -318 183q-84 0 -156.5 -32t-121.5 -85.5t-79 -120.5t-38 -139h498v-98h-498 q11 -164 125 -281t273 -117q100 0 189 48.5t142 144.5l113 -51q-60 -120 -184 -188t-269 -68z" />
<glyph unicode="&#x455;" horiz-adv-x="989" d="M504 -20q-273 0 -438 174l57 98q168 -160 375 -160q127 0 203.5 51.5t76.5 143.5q0 56 -38 92.5t-82 51.5t-153 43q-28 7 -42 11q-90 25 -147 47.5t-103 55.5t-66 77.5t-20 106.5q0 149 111 231t288 82q120 0 216 -38.5t155 -108.5l-68 -94q-111 129 -311 129 q-110 0 -185 -45t-75 -140q0 -28 6 -49.5t23.5 -39t33.5 -29t52 -25t62 -22t79 -23.5q51 -14 78.5 -21.5t69.5 -21t64.5 -23t53.5 -24.5t47.5 -29t35.5 -34t28 -41.5t15.5 -49t6.5 -59.5q0 -148 -111.5 -232.5t-297.5 -84.5z" />
<glyph unicode="&#x456;" horiz-adv-x="446" d="M154 1290v205h139v-205h-139zM154 0v1067h139v-1067h-139z" />
<glyph unicode="&#x457;" horiz-adv-x="446" d="M10 1298v193h119v-193h-119zM315 1298v193h119v-193h-119zM154 0v1067h139v-1067h-139z" />
<glyph unicode="&#x458;" horiz-adv-x="460" d="M168 1290v205h139v-205h-139zM-240 -291l68 94q54 -49 149 -49q74 0 132.5 55.5t58.5 135.5v1122h139v-1114q0 -137 -94.5 -230.5t-218.5 -93.5q-148 0 -234 80z" />
<glyph unicode="&#x459;" horiz-adv-x="1642" d="M51 -6v127q57 1 98.5 30t76.5 99.5t55 200t26 319.5l12 297h662v-424h229q177 0 273 -85t96 -228q0 -145 -94.5 -237.5t-263.5 -92.5h-379v942h-400l-4 -184q-7 -221 -33.5 -369.5t-76.5 -235t-116.5 -122.5t-160.5 -37zM981 111h219q119 0 177.5 61.5t58.5 155.5 q0 91 -56 149t-182 58h-217v-424z" />
<glyph unicode="&#x45a;" horiz-adv-x="1660" d="M152 0v1067h139v-438h547v438h139v-424h252q178 0 273 -84.5t95 -228.5q0 -145 -93.5 -237.5t-264.5 -92.5h-401v506h-547v-506h-139zM977 111h244q119 0 177 61.5t58 155.5q0 91 -55.5 149t-181.5 58h-242v-424z" />
<glyph unicode="&#x45b;" horiz-adv-x="1198" d="M158 0v1151h-154v92h154v252h139v-252h479v-92h-479v-416q136 213 395 213q192 0 278.5 -104.5t86.5 -311.5v-532h-139v502q0 162 -62.5 240.5t-204.5 78.5q-130 0 -220.5 -64t-133.5 -184v-573h-139z" />
<glyph unicode="&#x45c;" horiz-adv-x="1034" d="M553 1270l-92 35l121 190h147zM152 0v1067h139v-457h131l356 457h160l-408 -518l459 -549h-164l-403 481h-131v-481h-139z" />
<glyph unicode="&#x45d;" horiz-adv-x="1216" d="M420 1497h145l123 -190l-90 -35zM152 0v1065h139v-877l649 879h125v-1067h-139v862l-639 -862h-135z" />
<glyph unicode="&#x45e;" horiz-adv-x="1110" d="M555 1241q-126 0 -194 51.5t-68 130.5h82q0 -47 44 -78.5t136 -31.5q90 0 129 28.5t51 81.5h80q0 -79 -67.5 -130.5t-192.5 -51.5zM215 -328q77 -4 94 0q37 4 69.5 61.5t117.5 266.5l-465 1067h147l391 -924l361 924h139l-553 -1376q-56 -145 -217 -148q-41 -3 -84 4v125 z" />
<glyph unicode="&#x45f;" horiz-adv-x="1157" d="M516 -248v248h-364v1067h139v-944h573v944h140v-1067h-365v-248h-123z" />
<glyph unicode="&#x462;" horiz-adv-x="1273" d="M717 889q230 0 351.5 -120.5t121.5 -324.5q0 -193 -121.5 -318.5t-341.5 -125.5h-522v1135h-234v112h234v207h143v-207h402v-112h-402v-246h369zM711 121q86 0 152 26.5t104.5 72.5t57.5 102.5t19 121.5q0 67 -16.5 122t-53.5 102t-105 73.5t-162 26.5h-359v-647h363z " />
<glyph unicode="&#x463;" horiz-adv-x="1054" d="M209 0v1061h-252v94h252v340h139v-340h395v-94h-395v-371h275q180 0 274 -91.5t94 -246.5t-93 -253.5t-265 -98.5h-424zM348 111h268q117 0 176.5 68.5t59.5 170.5t-56.5 166t-183.5 64h-264v-469z" />
<glyph unicode="&#x46a;" horiz-adv-x="2009" d="M53 0l565 745l-530 709h1833l-532 -709l567 -745h-162l-516 672h-203v-672h-141v672h-203l-514 -672h-164zM735 801h539l418 559h-1375z" />
<glyph unicode="&#x46b;" horiz-adv-x="1611" d="M78 0l418 549l-373 518h1368l-375 -518l418 -549h-168l-365 483h-122v-483h-144v483h-121l-366 -483h-170zM623 596h370l273 389h-922z" />
<glyph unicode="&#x472;" horiz-adv-x="1554" d="M770 1464q118 0 226 -41.5t189.5 -113.5t142 -166t91.5 -201.5t31 -216.5q0 -144 -52.5 -278t-142 -235t-217.5 -161.5t-270 -60.5q-148 0 -277.5 63t-217 166t-137.5 235.5t-50 272.5q0 144 53 278.5t142.5 235.5t218 162t270.5 61zM768 1333q-112 0 -210 -46 t-165.5 -123t-110 -175.5t-51.5 -204.5h1074q-13 147 -83 271.5t-190 201t-264 76.5zM768 119q117 0 218 50t168.5 132.5t107.5 186.5t45 214h-1078q4 -114 46 -219.5t111 -186.5t169 -129t213 -48z" />
<glyph unicode="&#x473;" horiz-adv-x="1216" d="M608 1085q150 0 272.5 -76t190.5 -203t68 -276q0 -148 -67.5 -273.5t-190 -201t-273.5 -75.5t-273 75.5t-188.5 201t-66.5 273.5q0 111 40 212.5t109 177t168 120.5t211 45zM608 963q-147 0 -256.5 -110.5t-128.5 -272.5h772q-17 162 -128 272.5t-259 110.5zM608 102 q154 0 267 118.5t122 287.5h-776q8 -170 120 -288t267 -118z" />
<glyph unicode="&#x474;" horiz-adv-x="1492" d="M633 0l-606 1454h149l520 -1270l437 1053q46 118 103.5 167.5t164.5 49.5h84v-123h-66q-65 0 -100.5 -32t-69.5 -111l-497 -1188h-119z" />
<glyph unicode="&#x475;" horiz-adv-x="1132" d="M461 0l-422 1067h141l355 -932l282 727q36 110 93 157.5t159 47.5h76v-111h-53q-65 0 -99 -31t-61 -110l-326 -815h-145z" />
<glyph unicode="&#x490;" horiz-adv-x="1056" d="M182 0v1454h699v293h127v-420h-682v-1327h-144z" />
<glyph unicode="&#x491;" horiz-adv-x="829" d="M152 0v1067h510v248h126v-373h-497v-942h-139z" />
<glyph unicode="&#x492;" horiz-adv-x="1095" d="M1047 1327h-682v-579h403v-101h-403v-647h-144v647h-219v101h219v706h826v-127z" />
<glyph unicode="&#x493;" horiz-adv-x="860" d="M817 942h-498v-414h318v-94h-318v-434h-139v434h-198v94h198v539h637v-125z" />
<glyph unicode="&#x494;" horiz-adv-x="1298" d="M717 801q230 0 353.5 -139t123.5 -392q0 -254 -117.5 -384t-326.5 -130q-75 0 -175 23l31 119q86 -19 133 -19q150 0 233 98t83 293q0 201 -90.5 305.5t-268.5 104.5q-176 0 -370 -107v-573h-144v1454h826v-127h-682v-627q186 101 391 101z" />
<glyph unicode="&#x495;" horiz-adv-x="1056" d="M604 700q189 0 288 -115t99 -329v-39q-2 -284 -105.5 -439t-303.5 -155q-137 0 -217 66l67 94q51 -37 133 -37q148 0 216 113t71 321v41q0 189 -72.5 278t-224.5 89q-82 0 -144 -25t-120 -76v-487h-139v1067h636v-125h-497v-338q128 96 313 96z" />
<glyph unicode="&#x496;" horiz-adv-x="2007" d="M1866 127h127v-403h-129v276h-97v37l-487 639h-201v-676h-141v676h-203l-516 -676h-166l565 750l-530 704h168l483 -647h199v647h141v-647h197l485 647h168l-532 -704z" />
<glyph unicode="&#x497;" horiz-adv-x="1607" d="M1448 123h149v-371h-124v248h-97l-354 483h-143v-483h-144v483h-139l-356 -483h-162l399 549l-360 518h157l322 -461h139v461h144v-461h143l315 461h160l-362 -518z" />
<glyph unicode="&#x498;" horiz-adv-x="1116" d="M1026 389q0 -160 -100 -265.5t-267 -133.5q107 -79 107 -185q0 -83 -57 -128.5t-156 -45.5q-121 0 -234 58l41 80q95 -45 170 -45q142 0 142 104q0 44 -28 80.5t-85 73.5h-12q-149 0 -269 64t-186 179l111 68q51 -90 140 -139.5t202 -49.5q156 0 247 80.5t91 216.5 q0 130 -84.5 211.5t-229.5 81.5h-139v115h141q112 0 184 75.5t72 188.5q0 118 -78.5 193t-207.5 75q-104 0 -185 -47t-127 -131l-104 70q65 114 172 177t250 63q186 0 303 -105.5t117 -275.5q0 -110 -56.5 -201t-154.5 -133q126 -35 198 -134.5t72 -234.5z" />
<glyph unicode="&#x499;" horiz-adv-x="942" d="M862 297q0 -125 -85.5 -204.5t-229.5 -98.5q110 -82 110 -189q0 -83 -57 -128.5t-156 -45.5q-120 0 -233 58l41 80q95 -45 170 -45q141 0 141 104q0 85 -123 160q-136 4 -236 60.5t-153 154.5l115 51q39 -73 113.5 -112.5t177.5 -39.5q126 0 200 57t74 154 q0 87 -60 141.5t-163 55.5h-109v96h117q67 0 113.5 52.5t46.5 129.5q0 83 -57 131t-164 48q-175 0 -248 -142l-107 58q47 96 140.5 148t218.5 52q155 0 249.5 -75t94.5 -205q0 -78 -37 -142t-102 -96q95 -29 146.5 -100t51.5 -168z" />
<glyph unicode="&#x49a;" horiz-adv-x="1314" d="M1147 127h153v-403h-126v276h-105l-520 676h-223v-676h-144v1454h144v-647h219l499 647h166l-546 -704z" />
<glyph unicode="&#x49b;" horiz-adv-x="1050" d="M887 123h153v-371h-125v248h-90l-403 481h-131v-481h-139v1067h139v-457h131l356 457h160l-408 -518z" />
<glyph unicode="&#x49c;" horiz-adv-x="1267" d="M764 750l502 -750h-160l-459 682h-61v-276h-74v276h-188v-682h-142v1454h142v-653h188v256h74v-256h57l438 653h152z" />
<glyph unicode="&#x49d;" horiz-adv-x="1118" d="M668 549l407 -549h-157l-365 485h-47v-215h-76v215h-139v-485h-137v1067h137v-463h139v209h76v-209h47l315 463h154z" />
<glyph unicode="&#x4a0;" horiz-adv-x="1458" d="M877 750l581 -750h-176l-520 676h-223v-676h-144v1331h-389v123h533v-647h219l499 647h166z" />
<glyph unicode="&#x4a1;" horiz-adv-x="1185" d="M709 549l458 -549h-163l-404 481h-131v-481h-139v950h-324v117h463v-457h131l356 457h160z" />
<glyph unicode="&#x4a2;" horiz-adv-x="1589" d="M1329 127h176v-403h-127v276h-190v680h-862v-680h-144v1454h144v-647h862v647h141v-1327z" />
<glyph unicode="&#x4a3;" horiz-adv-x="1249" d="M1040 123h152v-371h-125v248h-166v483h-610v-483h-139v1067h139v-459h610v459h139v-944z" />
<glyph unicode="&#x4a4;" horiz-adv-x="2058" d="M2009 1454v-127h-680v-1327h-141v680h-862v-680h-144v1454h144v-647h862v645l-2 2h823z" />
<glyph unicode="&#x4a5;" horiz-adv-x="1579" d="M1538 1067v-125h-498v-942h-139v483h-610v-483h-139v1067h139v-459h610v459h637z" />
<glyph unicode="&#x4aa;" horiz-adv-x="1404" d="M1341 326q-60 -140 -202.5 -229t-304.5 -105v-277h-121v275q-108 10 -207 56.5t-174.5 119.5t-131.5 165t-85 196.5t-29 209.5q0 133 47 261t132.5 232t219 168t291.5 64q188 0 328.5 -86.5t208.5 -230.5l-113 -70q-45 92 -119 152t-151 83t-162 23q-101 0 -189 -34.5 t-151.5 -93.5t-109 -136.5t-67.5 -164t-22 -175.5q0 -160 71 -300.5t197.5 -226t276.5 -85.5q86 0 169 27.5t159.5 90t120.5 152.5z" />
<glyph unicode="&#x4ab;" horiz-adv-x="1124" d="M1059 244q-40 -104 -146 -176.5t-241 -85.5v-230h-121v232q-205 25 -338 182.5t-133 370.5q0 151 67 276t190 198.5t277 73.5q149 0 263 -68t172 -186l-136 -43q-44 82 -125.5 128.5t-179.5 46.5q-164 0 -275.5 -122t-111.5 -304q0 -180 115 -307.5t274 -127.5 q102 0 194.5 54.5t117.5 128.5z" />
<glyph unicode="&#x4ae;" horiz-adv-x="1333" d="M190 1454l476 -782l479 782h155l-563 -913v-541h-143v545l-561 909h157z" />
<glyph unicode="&#x4af;" horiz-adv-x="1093" d="M477 -436v438l-438 1065h145l367 -938l369 938h135l-439 -1065v-438h-139z" />
<glyph unicode="&#x4b0;" horiz-adv-x="1308" d="M582 0v401h-297v101h297v43l-562 909h156l475 -782l479 782h158l-565 -913v-39h299v-101h-299v-401h-141z" />
<glyph unicode="&#x4b1;" horiz-adv-x="1136" d="M506 -436v360h-244v76h244v2l-440 1065h143l366 -948l371 948h135l-436 -1065v-2h240v-76h-240v-360h-139z" />
<glyph unicode="&#x4b6;" horiz-adv-x="1415" d="M1135 127h194v-403h-127v276h-207v627q-180 -80 -383 -80q-243 0 -357 106t-114 334v467h140v-450q0 -171 82.5 -248.5t269.5 -77.5q102 0 200.5 21.5t161.5 56.5v698h140v-1327z" />
<glyph unicode="&#x4b7;" horiz-adv-x="1089" d="M903 123h129v-371h-125v248h-166v123h23v323q-125 -61 -291 -61q-179 0 -266.5 90.5t-87.5 276.5v315h139v-297q0 -144 58.5 -209t187.5 -65q73 0 144 16.5t116 42.5v512h139v-944z" />
<glyph unicode="&#x4b8;" horiz-adv-x="1318" d="M995 1454h140v-1454h-140v627q-164 -72 -346 -80v-242h-74v242q-223 8 -328.5 114.5t-105.5 325.5v467h140v-450q0 -158 69.5 -236t224.5 -88v276h74v-278q98 1 192 23t154 55v698z" />
<glyph unicode="&#x4b9;" horiz-adv-x="1056" d="M762 1067h141v-1067h-141v446q-96 -47 -217 -59v-192h-76v190q-177 2 -263.5 92.5t-86.5 274.5v315h139v-297q0 -134 50.5 -199.5t160.5 -72.5v239h76v-239q137 7 217 57v512z" />
<glyph unicode="&#x4ba;" horiz-adv-x="1318" d="M324 1454v-627q180 80 383 80q243 0 357 -106t114 -334v-467h-140v451q0 171 -82.5 248t-269.5 77q-102 0 -200.5 -21.5t-161.5 -56.5v-698h-140v1454h140z" />
<glyph unicode="&#x4bb;" horiz-adv-x="1193" d="M1051 0h-140v596q0 362 -245 362q-120 0 -228.5 -88t-144.5 -217v-653h-139v1495h139v-670q63 120 176 190t244 70q175 0 256.5 -121.5t81.5 -338.5v-625z" />
<glyph unicode="&#x4c0;" horiz-adv-x="507" d="M182 0v1454h144v-1454h-144z" />
<glyph unicode="&#x4c1;" horiz-adv-x="2017" d="M1008 1628q-127 0 -195 51.5t-68 130.5h82q0 -47 44.5 -78.5t136.5 -31.5q90 0 129 28.5t51 81.5h80q0 -79 -67.5 -130.5t-192.5 -51.5zM53 0l565 750l-530 704h168l483 -647h199v647h141v-647h197l485 647h168l-532 -704l565 -750h-166l-516 676h-201v-676h-141v676 h-203l-516 -676h-166z" />
<glyph unicode="&#x4c2;" horiz-adv-x="1615" d="M807 1241q-126 0 -194 51.5t-68 130.5h82q0 -47 44 -78.5t136 -31.5q90 0 129 28.5t51 81.5h80q0 -79 -67.5 -130.5t-192.5 -51.5zM78 0l399 549l-360 518h157l322 -461h139v461h144v-461h143l315 461h160l-362 -518l403 -549h-162l-354 483h-143v-483h-144v483h-139 l-356 -483h-162z" />
<glyph unicode="&#x4cb;" horiz-adv-x="1318" d="M995 1454h140v-1454h-213v-276h-129v403h202v500q-180 -80 -383 -80q-243 0 -357 106t-114 334v467h140v-450q0 -171 82.5 -248.5t269.5 -77.5q102 0 200.5 21.5t161.5 56.5v698z" />
<glyph unicode="&#x4cc;" horiz-adv-x="1046" d="M608 -248v324h148v387q-130 -62 -277 -62q-179 0 -269.5 94.5t-90.5 278.5v293h133v-274q0 -147 59 -214t191 -67q70 0 140.5 17t113.5 44v494h137v-1067h-162v-248h-123z" />
<glyph unicode="&#x4cf;" horiz-adv-x="446" d="M154 0v1067h139v-1067h-139z" />
<glyph unicode="&#x4d0;" horiz-adv-x="1384" d="M692 1628q-126 0 -194 51.5t-68 130.5h82q0 -47 44 -78.5t136 -31.5q90 0 129 28.5t51 81.5h80q0 -79 -67.5 -130.5t-192.5 -51.5zM633 1454h121l604 -1454h-152l-188 455h-653l-187 -455h-153zM985 567l-293 719l-297 -719h590z" />
<glyph unicode="&#x4d1;" horiz-adv-x="1116" d="M559 1241q-126 0 -194 51.5t-68 130.5h82q0 -47 44 -78.5t136 -31.5q90 0 129 28.5t51 81.5h80q0 -79 -67.5 -130.5t-192.5 -51.5zM68 307q0 147 124.5 236.5t325.5 89.5q172 0 311 -49v90q0 136 -80.5 215.5t-220.5 79.5q-161 0 -342 -125l-53 98q208 143 410 143 q197 0 311.5 -113t114.5 -310v-494q0 -29 12 -42t39 -15v-111q-50 -6 -64 -4q-49 1 -76.5 30.5t-29.5 67.5l-2 78q-71 -90 -185 -141t-235 -51q-155 0 -257.5 94.5t-102.5 232.5zM782 225q47 53 47 103v155q-139 56 -294 56q-151 0 -242.5 -60.5t-91.5 -161.5 q0 -94 71 -162.5t189 -68.5q99 0 186 38.5t135 100.5z" />
<glyph unicode="&#x4d2;" horiz-adv-x="1384" d="M479 1686v192h119v-192h-119zM784 1686v192h119v-192h-119zM633 1454h121l604 -1454h-152l-188 455h-653l-187 -455h-153zM985 567l-293 719l-297 -719h590z" />
<glyph unicode="&#x4d3;" horiz-adv-x="1116" d="M346 1298v193h119v-193h-119zM651 1298v193h119v-193h-119zM68 307q0 147 124.5 236.5t325.5 89.5q172 0 311 -49v90q0 136 -80.5 215.5t-220.5 79.5q-161 0 -342 -125l-53 98q208 143 410 143q197 0 311.5 -113t114.5 -310v-494q0 -29 12 -42t39 -15v-111q-50 -6 -64 -4 q-49 1 -76.5 30.5t-29.5 67.5l-2 78q-71 -90 -185 -141t-235 -51q-155 0 -257.5 94.5t-102.5 232.5zM782 225q47 53 47 103v155q-139 56 -294 56q-151 0 -242.5 -60.5t-91.5 -161.5q0 -94 71 -162.5t189 -68.5q99 0 186 38.5t135 100.5z" />
<glyph unicode="&#x4d4;" horiz-adv-x="1968" d="M883 1454h985v-127h-807v-522h696v-127h-696v-551h825v-127h-964v455h-531l-289 -455h-155zM911 582v700l-454 -700h454z" />
<glyph unicode="&#x4d5;" horiz-adv-x="1908" d="M68 311q0 141 124 231.5t320 90.5q143 0 274 -41q7 90 35 156q-20 110 -97 171.5t-198 61.5q-158 0 -342 -127l-49 92q210 139 404 139q131 0 225.5 -55.5t142.5 -157.5q68 98 175 155.5t233 57.5q152 0 274.5 -75t189.5 -201t68 -277l-2 -49h-927q13 -171 130.5 -284 t278.5 -113q105 0 197.5 54t128.5 139l123 -33q-52 -118 -176.5 -192t-278.5 -74q-137 0 -252.5 63.5t-187.5 171.5q-63 -116 -193.5 -175.5t-267.5 -59.5q-149 0 -250.5 95.5t-101.5 235.5zM1714 578q-14 175 -126 287t-275 112t-274.5 -113t-120.5 -286h796zM793 236 q33 38 36 71q-39 77 -43 197q-121 41 -256 41q-148 0 -239.5 -61.5t-91.5 -161.5q0 -99 74 -167.5t180 -68.5q108 0 200 41t140 109z" />
<glyph unicode="&#x4d6;" horiz-adv-x="1247" d="M690 1624q-126 0 -194 51.5t-68 130.5h82q0 -47 44 -78.5t136 -31.5q90 0 129 28.5t51 81.5h80q0 -79 -67.5 -130.5t-192.5 -51.5zM1159 127v-127h-977v1454h959v-127h-815v-524h710v-121h-710v-555h833z" />
<glyph unicode="&#x4d7;" horiz-adv-x="1202" d="M608 1241q-126 0 -194 51.5t-68 130.5h82q0 -47 44 -78.5t136 -31.5q90 0 129 28.5t51 81.5h80q0 -79 -67.5 -130.5t-192.5 -51.5zM614 -20q-151 0 -274.5 76t-191.5 203.5t-68 277.5q0 148 68 273.5t191 200t273 74.5q152 0 274.5 -75.5t188.5 -200t66 -270.5 q0 -46 -2 -56h-914q13 -171 127 -284t269 -113q105 0 197 53.5t130 139.5l121 -33q-50 -118 -175.5 -192t-279.5 -74zM221 584h789q-13 172 -125.5 282.5t-270.5 110.5t-270.5 -111t-122.5 -282z" />
<glyph unicode="&#x4d8;" horiz-adv-x="1509" d="M59 717q0 55 4 67h1203q-22 235 -174 391t-359 156q-149 0 -272.5 -79.5t-167.5 -204.5l-135 61q72 157 237 256.5t353 99.5q138 0 262.5 -58.5t215 -158t144 -238t53.5 -290.5q0 -151 -53 -286.5t-143 -233t-215 -154.5t-264 -57q-141 0 -269 57.5t-220 155.5 t-146 232.5t-54 283.5zM1270 659h-1057q9 -152 82 -276.5t192.5 -195t260.5 -70.5q139 0 255 70t187 194.5t80 277.5z" />
<glyph unicode="&#x4d9;" horiz-adv-x="1202" d="M594 -20q-151 0 -274 74.5t-191.5 200t-69.5 275.5q0 28 4 52h912q-12 170 -125 282.5t-268 112.5q-106 0 -198.5 -53.5t-129.5 -137.5l-121 33q50 117 175.5 191.5t279.5 74.5q150 0 273.5 -76t192 -204t68.5 -279q0 -111 -39.5 -211t-108 -174t-168 -117.5 t-212.5 -43.5zM594 86q156 0 265 113.5t120 285.5h-782q10 -173 125 -286t272 -113z" />
<glyph unicode="&#x4dc;" horiz-adv-x="2017" d="M795 1686v192h118v-192h-118zM1100 1686v192h119v-192h-119zM53 0l565 750l-530 704h168l483 -647h199v647h141v-647h197l485 647h168l-532 -704l565 -750h-166l-516 676h-201v-676h-141v676h-203l-516 -676h-166z" />
<glyph unicode="&#x4dd;" horiz-adv-x="1615" d="M594 1298v193h119v-193h-119zM899 1298v193h119v-193h-119zM78 0l399 549l-360 518h157l322 -461h139v461h144v-461h143l315 461h160l-362 -518l403 -549h-162l-354 483h-143v-483h-144v483h-139l-356 -483h-162z" />
<glyph unicode="&#x4de;" horiz-adv-x="1116" d="M362 1686v192h119v-192h-119zM668 1686v192h118v-192h-118zM547 -18q-149 0 -269 64t-186 179l111 68q51 -90 140 -139.5t202 -49.5q156 0 247 80.5t91 216.5q0 130 -84.5 211.5t-229.5 81.5h-139v115h141q112 0 184 75.5t72 188.5q0 118 -78.5 193t-207.5 75 q-104 0 -185 -47t-127 -131l-104 70q65 114 172 177t250 63q186 0 303 -105.5t117 -275.5q0 -110 -56.5 -201t-154.5 -133q126 -35 198 -134.5t72 -234.5q0 -187 -132.5 -297t-346.5 -110z" />
<glyph unicode="&#x4df;" horiz-adv-x="942" d="M242 1298v193h118v-193h-118zM547 1298v193h119v-193h-119zM463 -12q-146 0 -251.5 56t-160.5 159l115 51q39 -73 113.5 -112.5t177.5 -39.5q126 0 200 57t74 154q0 87 -60 141.5t-163 55.5h-109v96h117q67 0 113.5 52.5t46.5 129.5q0 83 -57 131t-164 48 q-175 0 -248 -142l-107 58q47 96 140.5 148t218.5 52q155 0 249.5 -75t94.5 -205q0 -78 -37 -142t-102 -96q95 -29 146.5 -100t51.5 -168q0 -144 -110.5 -226.5t-288.5 -82.5z" />
<glyph unicode="&#x4e2;" horiz-adv-x="1556" d="M483 1745v96h592v-96h-592zM190 0v1454h142v-1257l901 1257h133v-1454h-141v1235l-891 -1235h-144z" />
<glyph unicode="&#x4e3;" horiz-adv-x="1216" d="M315 1358v96h592v-96h-592zM152 0v1065h139v-877l649 879h125v-1067h-139v862l-639 -862h-135z" />
<glyph unicode="&#x4e4;" horiz-adv-x="1556" d="M565 1686v192h119v-192h-119zM870 1686v192h119v-192h-119zM190 0v1454h142v-1257l901 1257h133v-1454h-141v1235l-891 -1235h-144z" />
<glyph unicode="&#x4e5;" horiz-adv-x="1216" d="M397 1298v193h119v-193h-119zM702 1298v193h119v-193h-119zM152 0v1065h139v-877l649 879h125v-1067h-139v862l-639 -862h-135z" />
<glyph unicode="&#x4e6;" horiz-adv-x="1538" d="M557 1681v193h119v-193h-119zM862 1681v193h119v-193h-119zM86 727q0 144 53 278.5t142.5 235.5t218 162t270.5 61q118 0 226 -41.5t189.5 -113.5t142 -166t91.5 -201.5t31 -216.5q0 -144 -52.5 -278t-142 -235t-217.5 -161.5t-270 -60.5q-148 0 -277.5 63t-217 166 t-137.5 235.5t-50 272.5zM768 119q120 0 223 53t171 139t106.5 194.5t38.5 221.5q0 158 -68 296t-193 224t-278 86q-120 0 -223 -52.5t-171 -138t-106.5 -194t-38.5 -221.5q0 -118 40 -228t109.5 -194t171.5 -135t218 -51z" />
<glyph unicode="&#x4e7;" d="M395 1298v193h119v-193h-119zM700 1298v193h119v-193h-119zM80 530q0 111 40 212.5t109 177t168 120.5t211 45q150 0 272.5 -76t190.5 -203t68 -276q0 -148 -67.5 -273.5t-190 -201t-273.5 -75.5t-273 75.5t-188.5 201t-66.5 273.5zM608 102q160 0 274.5 126t114.5 304 t-114.5 304.5t-274.5 126.5q-104 0 -193 -58t-141.5 -158.5t-52.5 -218.5q0 -178 113.5 -302t273.5 -124z" />
<glyph unicode="&#x4e8;" horiz-adv-x="1554" d="M770 1464q118 0 226 -41.5t189.5 -113.5t142 -166t91.5 -201.5t31 -216.5q0 -144 -52.5 -278t-142 -235t-217.5 -161.5t-270 -60.5q-148 0 -277.5 63t-217 166t-137.5 235.5t-50 272.5q0 144 53 278.5t142.5 235.5t218 162t270.5 61zM768 1333q-112 0 -210 -46 t-165.5 -123t-110 -175.5t-51.5 -204.5h1074q-13 147 -83 271.5t-190 201t-264 76.5zM768 119q117 0 218 50t168.5 132.5t107.5 186.5t45 214h-1078q4 -114 46 -219.5t111 -186.5t169 -129t213 -48z" />
<glyph unicode="&#x4e9;" horiz-adv-x="1216" d="M608 1085q150 0 272.5 -76t190.5 -203t68 -276q0 -148 -67.5 -273.5t-190 -201t-273.5 -75.5t-273 75.5t-188.5 201t-66.5 273.5q0 111 40 212.5t109 177t168 120.5t211 45zM608 963q-147 0 -256.5 -110.5t-128.5 -272.5h772q-17 162 -128 272.5t-259 110.5zM608 102 q154 0 267 118.5t122 287.5h-776q8 -170 120 -288t267 -118z" />
<glyph unicode="&#x4ee;" horiz-adv-x="1261" d="M356 1745v96h592v-96h-592zM342 -4v121h92q43 0 66.5 23t56.5 83l64 133l-621 1098h158l528 -952l440 952h150l-608 -1300q-43 -87 -87 -122.5t-118 -35.5h-121z" />
<glyph unicode="&#x4ef;" horiz-adv-x="1110" d="M260 1358v96h592v-96h-592zM215 -328q77 -4 94 0q37 4 69.5 61.5t117.5 266.5l-465 1067h147l391 -924l361 924h139l-553 -1376q-56 -145 -217 -148q-41 -3 -84 4v125z" />
<glyph unicode="&#x4f0;" horiz-adv-x="1261" d="M438 1686v192h119v-192h-119zM743 1686v192h119v-192h-119zM342 -4v121h92q43 0 66.5 23t56.5 83l64 133l-621 1098h158l528 -952l440 952h150l-608 -1300q-43 -87 -87 -122.5t-118 -35.5h-121z" />
<glyph unicode="&#x4f1;" horiz-adv-x="1110" d="M342 1298v193h119v-193h-119zM647 1298v193h119v-193h-119zM215 -328q77 -4 94 0q37 4 69.5 61.5t117.5 266.5l-465 1067h147l391 -924l361 924h139l-553 -1376q-56 -145 -217 -148q-41 -3 -84 4v125z" />
<glyph unicode="&#x4f2;" horiz-adv-x="1261" d="M522 1659l-76 35l117 190h131zM780 1659l-78 35l117 190h131zM342 -4v121h92q43 0 66.5 23t56.5 83l64 133l-621 1098h158l528 -952l440 952h150l-608 -1300q-43 -87 -87 -122.5t-118 -35.5h-121z" />
<glyph unicode="&#x4f3;" horiz-adv-x="1110" d="M426 1272l-76 35l117 190h131zM684 1272l-78 35l117 190h131zM215 -328q77 -4 94 0q37 4 69.5 61.5t117.5 266.5l-465 1067h147l391 -924l361 924h139l-553 -1376q-56 -145 -217 -148q-41 -3 -84 4v125z" />
<glyph unicode="&#x4f4;" horiz-adv-x="1318" d="M449 1686v192h118v-192h-118zM754 1686v192h118v-192h-118zM995 0v627q-180 -80 -383 -80q-243 0 -357 106t-114 334v467h140v-450q0 -171 82.5 -248.5t269.5 -77.5q102 0 200.5 21.5t161.5 56.5v698h140v-1454h-140z" />
<glyph unicode="&#x4f5;" horiz-adv-x="1056" d="M317 1298v193h119v-193h-119zM623 1298v193h118v-193h-118zM764 0v446q-125 -61 -291 -61q-179 0 -266.5 90.5t-87.5 276.5v315h139v-297q0 -144 58.5 -209t187.5 -65q73 0 144 16.5t116 42.5v512h139v-1067h-139z" />
<glyph unicode="&#x4f6;" horiz-adv-x="1056" d="M1008 1327h-682v-1200h198v-403h-127v276h-215v1454h826v-127z" />
<glyph unicode="&#x4f7;" horiz-adv-x="829" d="M788 942h-497v-819h180v-371h-125v248h-194v1067h636v-125z" />
<glyph unicode="&#x4f8;" horiz-adv-x="1742" d="M659 1686v192h119v-192h-119zM965 1686v192h118v-192h-118zM182 0v1454h144v-565h368q230 0 350.5 -120.5t120.5 -324.5q0 -125 -50.5 -224t-156.5 -159.5t-253 -60.5h-523zM1419 0v1452h142v-1452h-142zM326 121h360q87 0 153.5 26.5t105 72.5t58 102.5t19.5 121.5 q0 67 -17 122t-54 102t-105 73.5t-162 26.5h-358v-647z" />
<glyph unicode="&#x4f9;" horiz-adv-x="1388" d="M473 1298v193h119v-193h-119zM778 1298v193h119v-193h-119zM152 0v1067h139v-377h241q179 0 274 -91.5t95 -246.5q0 -154 -93.5 -253t-264.5 -99h-391zM1096 0v1065h139v-1065h-139zM291 111h233q117 0 176.5 68.5t59.5 170.5t-56.5 166t-183.5 64h-229v-469z" />
<glyph unicode="&#x51a;" horiz-adv-x="1533" d="M1450 725q0 -148 -54 -284t-151 -238l172 -203h-141l-109 129q-179 -139 -399 -139q-119 1 -226.5 41.5t-189.5 111.5t-142.5 163.5t-92 201t-31.5 219.5q0 144 53 278.5t142.5 235.5t218 162t270.5 61q118 0 226 -41.5t189.5 -113.5t142 -166t91.5 -201.5t31 -216.5z M768 119q179 0 313 112l-182 215h141l117 -139q72 86 111 196t39 224q0 158 -68 296.5t-193 225t-278 86.5q-96 0 -182.5 -34t-150.5 -93.5t-111 -136.5t-71 -165.5t-24 -178.5q0 -118 40 -228t109.5 -194t171.5 -135t218 -51z" />
<glyph unicode="&#x51b;" horiz-adv-x="1263" d="M82 532q0 147 67 274t184.5 203t256.5 76q121 0 227 -63t168 -164v209h125v-1503h-139v657q-76 -118 -180 -179.5t-226 -61.5q-140 0 -252 78t-171.5 203.5t-59.5 270.5zM971 354v330q-17 109 -127.5 194t-227.5 85q-111 0 -202.5 -63t-141 -162t-49.5 -208 q0 -115 48.5 -212.5t137.5 -156.5t199 -59q118 0 211 70.5t152 181.5z" />
<glyph unicode="&#x51c;" horiz-adv-x="2142" d="M729 1444h135l205 -516l207 516h137l-254 -621l279 -657l526 1288h156l-617 -1454h-127l-305 719l-307 -719h-125l-614 1454h153l529 -1288l276 657z" />
<glyph unicode="&#x51d;" horiz-adv-x="1665" d="M1497 1067h137l-458 -1067h-121l-224 530l-221 -530h-121l-458 1067h135l389 -924l197 482l-181 440h125l135 -346l138 346h123l-179 -440l197 -482z" />
<glyph unicode="&#x524;" horiz-adv-x="1536" d="M1280 127h170v-403h-127v276h-186v1327h-811v-1327h-144v1454h1098v-1327z" />
<glyph unicode="&#x525;" d="M1010 123h151v-371h-125v248h-166v942h-579v-942h-139v1067h858v-944z" />
<glyph unicode="&#x1e08;" horiz-adv-x="1404" d="M995 1878l-176 -225l-92 35l121 190h147zM1341 326q-41 -92 -120.5 -164.5t-175 -114t-199.5 -55.5q110 -82 110 -187q0 -83 -57 -128.5t-156 -45.5q-120 0 -233 58l41 80q95 -45 170 -45q141 0 141 104q0 47 -30 84t-93 76q-140 7 -264 74.5t-208 172t-132.5 236 t-48.5 266.5q0 133 47 261t132.5 232t219 168t291.5 64q188 0 328.5 -86.5t208.5 -230.5l-113 -70q-45 92 -119 152t-151 83t-162 23q-101 0 -189 -34.5t-151.5 -93.5t-109 -136.5t-67.5 -164t-22 -175.5q0 -160 71 -300.5t197.5 -226t276.5 -85.5q86 0 169 27.5t159.5 90 t120.5 152.5z" />
<glyph unicode="&#x1e09;" horiz-adv-x="1124" d="M834 1495l-177 -225l-92 35l121 190h148zM1059 244q-38 -98 -134 -168t-220 -90q100 -80 100 -181q0 -83 -57 -128.5t-156 -45.5q-121 0 -234 58l41 80q95 -45 170 -45q142 0 142 104q0 83 -111 152q-148 4 -268 81t-186 202.5t-66 273.5q0 151 67 276t190 198.5 t277 73.5q149 0 263 -68t172 -186l-136 -43q-44 82 -125.5 128.5t-179.5 46.5q-164 0 -275.5 -122t-111.5 -304q0 -180 115 -307.5t274 -127.5q102 0 194.5 54.5t117.5 128.5z" />
<glyph unicode="&#x1e0c;" horiz-adv-x="1464" d="M182 0v1454h494q136 0 250 -37t195.5 -103t138.5 -156.5t84.5 -199t27.5 -229.5q0 -331 -189.5 -530t-506.5 -199h-494zM676 1327h-350v-1200h350q175 0 302 80t189 214.5t62 307.5q0 267 -146.5 432.5t-406.5 165.5zM670 -346v199h127v-199h-127z" />
<glyph unicode="&#x1e0d;" horiz-adv-x="1273" d="M82 530q0 150 62 276.5t174.5 202.5t250.5 76q127 0 233.5 -67.5t170.5 -173.5v651h139v-1327q0 -29 11.5 -42t37.5 -15v-111q-44 -6 -63 -4q-44 3 -76.5 34.5t-32.5 71.5v105q-63 -104 -171 -165.5t-226 -61.5q-108 0 -204.5 45.5t-162.5 121.5t-104.5 176t-38.5 207z M973 367v329q-40 110 -149 188.5t-220 78.5q-110 0 -198.5 -63t-134.5 -161t-46 -209q0 -114 52.5 -212.5t144.5 -157t201 -58.5t221 80t129 185zM573 -346v199h127v-199h-127z" />
<glyph unicode="&#x1e0e;" horiz-adv-x="1464" d="M182 0v1454h494q136 0 250 -37t195.5 -103t138.5 -156.5t84.5 -199t27.5 -229.5q0 -331 -189.5 -530t-506.5 -199h-494zM676 1327h-350v-1200h350q175 0 302 80t189 214.5t62 307.5q0 267 -146.5 432.5t-406.5 165.5zM438 -264v96h592v-96h-592z" />
<glyph unicode="&#x1e0f;" horiz-adv-x="1273" d="M82 530q0 150 62 276.5t174.5 202.5t250.5 76q127 0 233.5 -67.5t170.5 -173.5v651h139v-1327q0 -29 11.5 -42t37.5 -15v-111q-44 -6 -63 -4q-44 3 -76.5 34.5t-32.5 71.5v105q-63 -104 -171 -165.5t-226 -61.5q-108 0 -204.5 45.5t-162.5 121.5t-104.5 176t-38.5 207z M973 367v329q-40 110 -149 188.5t-220 78.5q-110 0 -198.5 -63t-134.5 -161t-46 -209q0 -114 52.5 -212.5t144.5 -157t201 -58.5t221 80t129 185zM342 -264v96h592v-96h-592z" />
<glyph unicode="&#x1e14;" horiz-adv-x="1247" d="M500 2267h145l123 -190l-90 -35zM395 1741v96h592v-96h-592zM1159 127v-127h-977v1454h959v-127h-815v-524h710v-121h-710v-555h833z" />
<glyph unicode="&#x1e15;" horiz-adv-x="1202" d="M418 1884h145l123 -190l-90 -35zM313 1358v96h592v-96h-592zM614 -20q-151 0 -274.5 76t-191.5 203.5t-68 277.5q0 148 68 273.5t191 200t273 74.5q152 0 274.5 -75.5t188.5 -200t66 -270.5q0 -46 -2 -56h-914q13 -171 127 -284t269 -113q105 0 197 53.5t130 139.5 l121 -33q-50 -118 -175.5 -192t-279.5 -74zM221 584h789q-13 172 -125.5 282.5t-270.5 110.5t-270.5 -111t-122.5 -282z" />
<glyph unicode="&#x1e16;" horiz-adv-x="1247" d="M737 2040l-92 35l121 190h147zM395 1741v96h592v-96h-592zM1159 127v-127h-977v1454h959v-127h-815v-524h710v-121h-710v-555h833z" />
<glyph unicode="&#x1e17;" horiz-adv-x="1202" d="M655 1657l-92 35l121 190h147zM313 1358v96h592v-96h-592zM614 -20q-151 0 -274.5 76t-191.5 203.5t-68 277.5q0 148 68 273.5t191 200t273 74.5q152 0 274.5 -75.5t188.5 -200t66 -270.5q0 -46 -2 -56h-914q13 -171 127 -284t269 -113q105 0 197 53.5t130 139.5l121 -33 q-50 -118 -175.5 -192t-279.5 -74zM221 584h789q-13 172 -125.5 282.5t-270.5 110.5t-270.5 -111t-122.5 -282z" />
<glyph unicode="&#x1e1c;" horiz-adv-x="1247" d="M690 1671q-85 0 -143 59.5t-58 147.5h86q0 -52 35.5 -93.5t79.5 -41.5q43 0 77 39t40 96h84q0 -87 -58.5 -147t-142.5 -60zM1159 127v-127h-399q58 -43 88.5 -89t30.5 -106q0 -83 -57 -128.5t-156 -45.5q-121 0 -234 58l41 80q95 -45 170 -45q141 0 141 104q0 50 -35 90 t-108 82h-459v1454h959v-127h-815v-524h710v-121h-710v-555h833z" />
<glyph unicode="&#x1e1d;" horiz-adv-x="1202" d="M608 1288q-85 0 -142.5 59.5t-57.5 147.5h86q0 -52 35 -93.5t79 -41.5q43 0 77 39t40 96h84q0 -87 -58.5 -147t-142.5 -60zM1141 539q0 -46 -2 -56h-914q13 -171 127 -284t269 -113q105 0 197 53.5t130 139.5l121 -33q-41 -99 -140.5 -169.5t-226.5 -90.5 q101 -81 101 -181q0 -83 -57 -128.5t-156 -45.5q-121 0 -234 58l41 80q95 -45 170 -45q142 0 142 104q0 83 -111 152q-147 4 -266.5 81t-185.5 202.5t-66 273.5t68 273.5t191 200t273 74.5q152 0 274.5 -75.5t188.5 -200t66 -270.5zM221 584h789q-13 172 -125.5 282.5 t-270.5 110.5t-270.5 -111t-122.5 -282z" />
<glyph unicode="&#x1e20;" horiz-adv-x="1466" d="M1053 1837v-96h-592v96h592zM909 715h445v-715h-121v213q-201 -223 -467 -223q-114 0 -220.5 41t-188.5 113t-144 165t-94.5 201.5t-32.5 218.5q0 144 51 278.5t139 235t214 161t268 60.5q206 0 344 -84.5t211 -232.5l-111 -74q-137 262 -446 262q-117 0 -217.5 -51.5 t-167.5 -136.5t-104.5 -194.5t-37.5 -225.5q0 -121 42.5 -233t115 -194.5t174.5 -131.5t215 -49q254 0 457 243v242h-324v111z" />
<glyph unicode="&#x1e21;" horiz-adv-x="1265" d="M322 1358v96h591v-96h-591zM82 530q0 148 62 274.5t176.5 203.5t257.5 77q244 0 409 -241v223h125v-1071q0 -144 -72 -248.5t-188.5 -154.5t-261.5 -50q-176 0 -290 62t-189 180l86 68q61 -98 165 -148.5t228 -50.5q79 0 147.5 21.5t121.5 63t83.5 108t30.5 149.5v211 q-61 -101 -168 -161t-223 -60q-142 0 -258 77.5t-179 201.5t-63 265zM973 367v329q-44 116 -149 191.5t-220 75.5q-114 0 -203 -65.5t-133.5 -163.5t-44.5 -206q0 -113 53 -211t145 -156.5t200 -58.5q122 0 227.5 82t124.5 183z" />
<glyph unicode="&#x1e24;" horiz-adv-x="1511" d="M1329 1454v-1454h-141v680h-862v-680h-144v1454h144v-647h862v647h141zM694 -346v199h127v-199h-127z" />
<glyph unicode="&#x1e25;" horiz-adv-x="1193" d="M1051 0h-140v596q0 362 -245 362q-120 0 -228.5 -88t-144.5 -217v-653h-139v1495h139v-670q63 120 176 190t244 70q175 0 256.5 -121.5t81.5 -338.5v-625zM532 -346v199h127v-199h-127z" />
<glyph unicode="&#x1e2a;" horiz-adv-x="1511" d="M1329 1454v-1454h-141v680h-862v-680h-144v1454h144v-647h862v647h141zM874 -104h84q0 -87 -58 -147t-142 -60q-85 0 -143 59.5t-58 147.5h86q0 -52 35.5 -94t79.5 -42q43 0 76.5 39.5t39.5 96.5z" />
<glyph unicode="&#x1e2b;" horiz-adv-x="1193" d="M1051 0h-140v596q0 362 -245 362q-120 0 -228.5 -88t-144.5 -217v-653h-139v1495h139v-670q63 120 176 190t244 70q175 0 256.5 -121.5t81.5 -338.5v-625zM713 -104h84q0 -87 -58.5 -147t-142.5 -60q-85 0 -143 59.5t-58 147.5h86q0 -52 35.5 -94t79.5 -42q43 0 77 39.5 t40 96.5z" />
<glyph unicode="&#x1e2e;" horiz-adv-x="507" d="M301 2062l-92 35l121 191h147zM41 1681v193h119v-193h-119zM346 1681v193h119v-193h-119zM182 0v1454h144v-1454h-144z" />
<glyph unicode="&#x1e2f;" horiz-adv-x="446" d="M270 1679l-92 35l121 191h147zM10 1298v193h119v-193h-119zM315 1298v193h119v-193h-119zM154 0v1067h139v-1067h-139z" />
<glyph unicode="&#x1e36;" horiz-adv-x="1193" d="M182 0v1454h144v-1327h839v-127h-983zM621 -346v199h127v-199h-127z" />
<glyph unicode="&#x1e37;" horiz-adv-x="557" d="M160 1495h139v-1253q0 -74 25 -101.5t73 -27.5q68 0 138 24l24 -112q-39 -15 -95 -26t-97 -11q-96 0 -151.5 55.5t-55.5 151.5v1300zM293 -346v199h127v-199h-127z" />
<glyph unicode="&#x1e3a;" horiz-adv-x="1193" d="M182 0v1454h144v-1327h839v-127h-983zM389 -264v96h592v-96h-592z" />
<glyph unicode="&#x1e3b;" horiz-adv-x="557" d="M160 1495h139v-1253q0 -74 25 -101.5t73 -27.5q68 0 138 24l24 -112q-39 -15 -95 -26t-97 -11q-96 0 -151.5 55.5t-55.5 151.5v1300zM61 -264v96h592v-96h-592z" />
<glyph unicode="&#x1e42;" horiz-adv-x="1796" d="M1470 0v1184l-526 -920h-90l-528 920v-1184h-144v1454h148l567 -995l571 995h146v-1454h-144zM834 -346v199h127v-199h-127z" />
<glyph unicode="&#x1e43;" horiz-adv-x="1882" d="M1741 0h-139v596q0 362 -236 362q-120 0 -215.5 -85t-134.5 -222v-651h-139v596q0 188 -57.5 275t-176.5 87t-214.5 -84t-135.5 -221v-653h-139v1067h127v-242q66 124 172.5 192t234.5 68q131 0 214 -75t102 -199q149 274 411 274q172 0 249 -119.5t77 -340.5v-625z M879 -346v199h127v-199h-127z" />
<glyph unicode="&#x1e44;" horiz-adv-x="1581" d="M733 1679v199h127v-199h-127zM326 1190v-1190h-144v1454h119l954 -1212v1210h144v-1452h-133z" />
<glyph unicode="&#x1e45;" horiz-adv-x="1193" d="M543 1296v199h127v-199h-127zM1051 0h-140v596q0 188 -55.5 275t-173.5 87q-125 0 -238 -87.5t-151 -217.5v-653h-139v1067h127v-242q65 118 187.5 189t264.5 71q87 0 149.5 -31.5t99 -93.5t53 -144t16.5 -191v-625z" />
<glyph unicode="&#x1e46;" horiz-adv-x="1581" d="M326 1190v-1190h-144v1454h119l954 -1212v1210h144v-1452h-133zM733 -346v199h127v-199h-127z" />
<glyph unicode="&#x1e47;" horiz-adv-x="1193" d="M1051 0h-140v596q0 188 -55.5 275t-173.5 87q-125 0 -238 -87.5t-151 -217.5v-653h-139v1067h127v-242q65 118 187.5 189t264.5 71q87 0 149.5 -31.5t99 -93.5t53 -144t16.5 -191v-625zM530 -346v199h127v-199h-127z" />
<glyph unicode="&#x1e48;" horiz-adv-x="1581" d="M326 1190v-1190h-144v1454h119l954 -1212v1210h144v-1452h-133zM502 -264v96h592v-96h-592z" />
<glyph unicode="&#x1e49;" horiz-adv-x="1193" d="M1051 0h-140v596q0 188 -55.5 275t-173.5 87q-125 0 -238 -87.5t-151 -217.5v-653h-139v1067h127v-242q65 118 187.5 189t264.5 71q87 0 149.5 -31.5t99 -93.5t53 -144t16.5 -191v-625zM299 -264v96h592v-96h-592z" />
<glyph unicode="&#x1e4c;" horiz-adv-x="1538" d="M817 2081l-92 35l121 190h147zM633 1772q-31 0 -53.5 -13.5t-32 -32.5t-13.5 -32.5t-4 -20.5h-86q0 11 4.5 31t17.5 48.5t32.5 52.5t54.5 41.5t78 17.5q48 0 92.5 -21.5t86 -43t83.5 -21.5q30 0 53 10t34.5 23t18.5 28.5t9 24.5t2 14h86q0 -11 -4.5 -30t-18.5 -47.5 t-35 -52.5t-58.5 -41t-84.5 -17q-52 0 -99.5 20.5t-87.5 41t-75 20.5zM86 727q0 144 53 278.5t142.5 235.5t218 162t270.5 61q118 0 226 -41.5t189.5 -113.5t142 -166t91.5 -201.5t31 -216.5q0 -144 -52.5 -278t-142 -235t-217.5 -161.5t-270 -60.5q-148 0 -277.5 63 t-217 166t-137.5 235.5t-50 272.5zM768 119q120 0 223 53t171 139t106.5 194.5t38.5 221.5q0 158 -68 296t-193 224t-278 86q-120 0 -223 -52.5t-171 -138t-106.5 -194t-38.5 -221.5q0 -118 40 -228t109.5 -194t171.5 -135t218 -51z" />
<glyph unicode="&#x1e4d;" d="M655 1698l-92 35l121 190h147zM471 1389q-31 0 -53.5 -13.5t-32 -33t-13 -32.5t-3.5 -20h-86q0 16 8 43t26.5 62.5t58.5 60.5t93 25q48 0 92.5 -21.5t86 -43t83.5 -21.5q30 0 53 10t34.5 23t18.5 28.5t9 24.5t2 14h86q0 -11 -4.5 -30t-18.5 -47.5t-35 -52.5t-58.5 -41 t-84.5 -17q-52 0 -99.5 20.5t-87.5 41t-75 20.5zM80 530q0 111 40 212.5t109 177t168 120.5t211 45q150 0 272.5 -76t190.5 -203t68 -276q0 -148 -67.5 -273.5t-190 -201t-273.5 -75.5t-273 75.5t-188.5 201t-66.5 273.5zM608 102q160 0 274.5 126t114.5 304t-114.5 304.5 t-274.5 126.5q-104 0 -193 -58t-141.5 -158.5t-52.5 -218.5q0 -178 113.5 -302t273.5 -124z" />
<glyph unicode="&#x1e4e;" horiz-adv-x="1538" d="M557 2109v193h119v-193h-119zM862 2109v193h119v-193h-119zM633 1772q-31 0 -53.5 -13.5t-32 -32.5t-13.5 -32.5t-4 -20.5h-86q0 11 4.5 31t17.5 48.5t32.5 52.5t54.5 41.5t78 17.5q48 0 92.5 -21.5t86 -43t83.5 -21.5q30 0 53 10t34.5 23t18.5 28.5t9 24.5t2 14h86 q0 -11 -4.5 -30t-18.5 -47.5t-35 -52.5t-58.5 -41t-84.5 -17q-52 0 -99.5 20.5t-87.5 41t-75 20.5zM86 727q0 144 53 278.5t142.5 235.5t218 162t270.5 61q118 0 226 -41.5t189.5 -113.5t142 -166t91.5 -201.5t31 -216.5q0 -144 -52.5 -278t-142 -235t-217.5 -161.5 t-270 -60.5q-148 0 -277.5 63t-217 166t-137.5 235.5t-50 272.5zM768 119q120 0 223 53t171 139t106.5 194.5t38.5 221.5q0 158 -68 296t-193 224t-278 86q-120 0 -223 -52.5t-171 -138t-106.5 -194t-38.5 -221.5q0 -118 40 -228t109.5 -194t171.5 -135t218 -51z" />
<glyph unicode="&#x1e4f;" d="M395 1726v193h119v-193h-119zM700 1726v193h119v-193h-119zM471 1389q-31 0 -53.5 -13.5t-32 -33t-13 -32.5t-3.5 -20h-86q0 16 8 43t26.5 62.5t58.5 60.5t93 25q48 0 92.5 -21.5t86 -43t83.5 -21.5q30 0 53 10t34.5 23t18.5 28.5t9 24.5t2 14h86q0 -11 -4.5 -30 t-18.5 -47.5t-35 -52.5t-58.5 -41t-84.5 -17q-52 0 -99.5 20.5t-87.5 41t-75 20.5zM80 530q0 111 40 212.5t109 177t168 120.5t211 45q150 0 272.5 -76t190.5 -203t68 -276q0 -148 -67.5 -273.5t-190 -201t-273.5 -75.5t-273 75.5t-188.5 201t-66.5 273.5zM608 102 q160 0 274.5 126t114.5 304t-114.5 304.5t-274.5 126.5q-104 0 -193 -58t-141.5 -158.5t-52.5 -218.5q0 -178 113.5 -302t273.5 -124z" />
<glyph unicode="&#x1e50;" horiz-adv-x="1538" d="M580 2267h145l123 -190l-90 -35zM475 1741v96h592v-96h-592zM86 727q0 144 53 278.5t142.5 235.5t218 162t270.5 61q118 0 226 -41.5t189.5 -113.5t142 -166t91.5 -201.5t31 -216.5q0 -144 -52.5 -278t-142 -235t-217.5 -161.5t-270 -60.5q-148 0 -277.5 63t-217 166 t-137.5 235.5t-50 272.5zM768 119q120 0 223 53t171 139t106.5 194.5t38.5 221.5q0 158 -68 296t-193 224t-278 86q-120 0 -223 -52.5t-171 -138t-106.5 -194t-38.5 -221.5q0 -118 40 -228t109.5 -194t171.5 -135t218 -51z" />
<glyph unicode="&#x1e51;" d="M418 1884h145l123 -190l-90 -35zM313 1358v96h592v-96h-592zM80 530q0 111 40 212.5t109 177t168 120.5t211 45q150 0 272.5 -76t190.5 -203t68 -276q0 -148 -67.5 -273.5t-190 -201t-273.5 -75.5t-273 75.5t-188.5 201t-66.5 273.5zM608 102q160 0 274.5 126t114.5 304 t-114.5 304.5t-274.5 126.5q-104 0 -193 -58t-141.5 -158.5t-52.5 -218.5q0 -178 113.5 -302t273.5 -124z" />
<glyph unicode="&#x1e52;" horiz-adv-x="1538" d="M817 2040l-92 35l121 190h147zM475 1741v96h592v-96h-592zM86 727q0 144 53 278.5t142.5 235.5t218 162t270.5 61q118 0 226 -41.5t189.5 -113.5t142 -166t91.5 -201.5t31 -216.5q0 -144 -52.5 -278t-142 -235t-217.5 -161.5t-270 -60.5q-148 0 -277.5 63t-217 166 t-137.5 235.5t-50 272.5zM768 119q120 0 223 53t171 139t106.5 194.5t38.5 221.5q0 158 -68 296t-193 224t-278 86q-120 0 -223 -52.5t-171 -138t-106.5 -194t-38.5 -221.5q0 -118 40 -228t109.5 -194t171.5 -135t218 -51z" />
<glyph unicode="&#x1e53;" d="M655 1657l-92 35l121 190h147zM313 1358v96h592v-96h-592zM80 530q0 111 40 212.5t109 177t168 120.5t211 45q150 0 272.5 -76t190.5 -203t68 -276q0 -148 -67.5 -273.5t-190 -201t-273.5 -75.5t-273 75.5t-188.5 201t-66.5 273.5zM608 102q160 0 274.5 126t114.5 304 t-114.5 304.5t-274.5 126.5q-104 0 -193 -58t-141.5 -158.5t-52.5 -218.5q0 -178 113.5 -302t273.5 -124z" />
<glyph unicode="&#x1e5a;" horiz-adv-x="1337" d="M182 0v1454h615q120 0 220.5 -67.5t155 -172t54.5 -217.5q0 -160 -90 -283.5t-234 -152.5l357 -561h-162l-342 537h-430v-537h-144zM326 664h475q83 0 148.5 47.5t99.5 123t34 162.5q0 133 -87.5 231.5t-207.5 98.5h-462v-663zM606 -346v199h127v-199h-127z" />
<glyph unicode="&#x1e5b;" horiz-adv-x="718" d="M686 944q-141 -5 -246 -78.5t-147 -201.5v-664h-139v1067h131v-256q55 112 146 181.5t194 78.5q40 3 61 0v-127zM156 -346v199h127v-199h-127z" />
<glyph unicode="&#x1e5e;" horiz-adv-x="1337" d="M182 0v1454h615q120 0 220.5 -67.5t155 -172t54.5 -217.5q0 -160 -90 -283.5t-234 -152.5l357 -561h-162l-342 537h-430v-537h-144zM326 664h475q83 0 148.5 47.5t99.5 123t34 162.5q0 133 -87.5 231.5t-207.5 98.5h-462v-663zM375 -264v96h592v-96h-592z" />
<glyph unicode="&#x1e5f;" horiz-adv-x="718" d="M686 944q-141 -5 -246 -78.5t-147 -201.5v-664h-139v1067h131v-256q55 112 146 181.5t194 78.5q40 3 61 0v-127zM-76 -264v96h592v-96h-592z" />
<glyph unicode="&#x1e60;" horiz-adv-x="1243" d="M580 1710v199h127v-199h-127zM1032 1182q-64 71 -167 113t-230 42q-187 0 -278 -70.5t-91 -199.5q0 -51 16.5 -89.5t44.5 -65.5t81.5 -49.5t111 -38.5t150.5 -36q84 -18 145.5 -35.5t122 -41.5t101 -54t73 -69.5t47.5 -91t15 -115.5q0 -130 -68.5 -220t-184.5 -131.5 t-272 -41.5q-337 0 -583 211l71 116q82 -88 219.5 -144t296.5 -56q176 0 272.5 64t96.5 188q0 53 -19 93.5t-51 70t-90 54.5t-120.5 43t-157.5 40q-99 23 -166 44t-128 51.5t-96 68.5t-55 91.5t-20 123.5q0 198 142.5 307.5t375.5 109.5q273 0 465 -168z" />
<glyph unicode="&#x1e61;" horiz-adv-x="989" d="M444 1296v199h127v-199h-127zM504 -20q-273 0 -438 174l57 98q168 -160 375 -160q127 0 203.5 51.5t76.5 143.5q0 56 -38 92.5t-82 51.5t-153 43q-28 7 -42 11q-90 25 -147 47.5t-103 55.5t-66 77.5t-20 106.5q0 149 111 231t288 82q120 0 216 -38.5t155 -108.5l-68 -94 q-111 129 -311 129q-110 0 -185 -45t-75 -140q0 -28 6 -49.5t23.5 -39t33.5 -29t52 -25t62 -22t79 -23.5q51 -14 78.5 -21.5t69.5 -21t64.5 -23t53.5 -24.5t47.5 -29t35.5 -34t28 -41.5t15.5 -49t6.5 -59.5q0 -148 -111.5 -232.5t-297.5 -84.5z" />
<glyph unicode="&#x1e62;" horiz-adv-x="1243" d="M1032 1182q-64 71 -167 113t-230 42q-187 0 -278 -70.5t-91 -199.5q0 -51 16.5 -89.5t44.5 -65.5t81.5 -49.5t111 -38.5t150.5 -36q84 -18 145.5 -35.5t122 -41.5t101 -54t73 -69.5t47.5 -91t15 -115.5q0 -130 -68.5 -220t-184.5 -131.5t-272 -41.5q-337 0 -583 211 l71 116q82 -88 219.5 -144t296.5 -56q176 0 272.5 64t96.5 188q0 53 -19 93.5t-51 70t-90 54.5t-120.5 43t-157.5 40q-99 23 -166 44t-128 51.5t-96 68.5t-55 91.5t-20 123.5q0 198 142.5 307.5t375.5 109.5q273 0 465 -168zM582 -346v199h127v-199h-127z" />
<glyph unicode="&#x1e63;" horiz-adv-x="989" d="M504 -20q-273 0 -438 174l57 98q168 -160 375 -160q127 0 203.5 51.5t76.5 143.5q0 56 -38 92.5t-82 51.5t-153 43q-28 7 -42 11q-90 25 -147 47.5t-103 55.5t-66 77.5t-20 106.5q0 149 111 231t288 82q120 0 216 -38.5t155 -108.5l-68 -94q-111 129 -311 129 q-110 0 -185 -45t-75 -140q0 -28 6 -49.5t23.5 -39t33.5 -29t52 -25t62 -22t79 -23.5q51 -14 78.5 -21.5t69.5 -21t64.5 -23t53.5 -24.5t47.5 -29t35.5 -34t28 -41.5t15.5 -49t6.5 -59.5q0 -148 -111.5 -232.5t-297.5 -84.5zM438 -346v199h127v-199h-127z" />
<glyph unicode="&#x1e64;" horiz-adv-x="1243" d="M670 2138v199h127v-199h-127zM690 1683l-92 35l121 191h147zM1032 1182q-64 71 -167 113t-230 42q-187 0 -278 -70.5t-91 -199.5q0 -51 16.5 -89.5t44.5 -65.5t81.5 -49.5t111 -38.5t150.5 -36q84 -18 145.5 -35.5t122 -41.5t101 -54t73 -69.5t47.5 -91t15 -115.5 q0 -130 -68.5 -220t-184.5 -131.5t-272 -41.5q-337 0 -583 211l71 116q82 -88 219.5 -144t296.5 -56q176 0 272.5 64t96.5 188q0 53 -19 93.5t-51 70t-90 54.5t-120.5 43t-157.5 40q-99 23 -166 44t-128 51.5t-96 68.5t-55 91.5t-20 123.5q0 198 142.5 307.5t375.5 109.5 q273 0 465 -168z" />
<glyph unicode="&#x1e65;" horiz-adv-x="989" d="M535 1724v199h127v-199h-127zM555 1270l-92 35l121 190h147zM504 -20q-273 0 -438 174l57 98q168 -160 375 -160q127 0 203.5 51.5t76.5 143.5q0 56 -38 92.5t-82 51.5t-153 43q-28 7 -42 11q-90 25 -147 47.5t-103 55.5t-66 77.5t-20 106.5q0 149 111 231t288 82 q120 0 216 -38.5t155 -108.5l-68 -94q-111 129 -311 129q-110 0 -185 -45t-75 -140q0 -28 6 -49.5t23.5 -39t33.5 -29t52 -25t62 -22t79 -23.5q51 -14 78.5 -21.5t69.5 -21t64.5 -23t53.5 -24.5t47.5 -29t35.5 -34t28 -41.5t15.5 -49t6.5 -59.5q0 -148 -111.5 -232.5 t-297.5 -84.5z" />
<glyph unicode="&#x1e66;" horiz-adv-x="1243" d="M580 2138v199h127v-199h-127zM469 1909l174 -129l174 129l80 -41l-203 -176h-102l-201 176zM1032 1182q-64 71 -167 113t-230 42q-187 0 -278 -70.5t-91 -199.5q0 -51 16.5 -89.5t44.5 -65.5t81.5 -49.5t111 -38.5t150.5 -36q84 -18 145.5 -35.5t122 -41.5t101 -54 t73 -69.5t47.5 -91t15 -115.5q0 -130 -68.5 -220t-184.5 -131.5t-272 -41.5q-337 0 -583 211l71 116q82 -88 219.5 -144t296.5 -56q176 0 272.5 64t96.5 188q0 53 -19 93.5t-51 70t-90 54.5t-120.5 43t-157.5 40q-99 23 -166 44t-128 51.5t-96 68.5t-55 91.5t-20 123.5 q0 198 142.5 307.5t375.5 109.5q273 0 465 -168z" />
<glyph unicode="&#x1e67;" horiz-adv-x="989" d="M444 1724v199h127v-199h-127zM334 1495l174 -129l174 129l80 -41l-203 -176h-102l-201 176zM504 -20q-273 0 -438 174l57 98q168 -160 375 -160q127 0 203.5 51.5t76.5 143.5q0 56 -38 92.5t-82 51.5t-153 43q-28 7 -42 11q-90 25 -147 47.5t-103 55.5t-66 77.5 t-20 106.5q0 149 111 231t288 82q120 0 216 -38.5t155 -108.5l-68 -94q-111 129 -311 129q-110 0 -185 -45t-75 -140q0 -28 6 -49.5t23.5 -39t33.5 -29t52 -25t62 -22t79 -23.5q51 -14 78.5 -21.5t69.5 -21t64.5 -23t53.5 -24.5t47.5 -29t35.5 -34t28 -41.5t15.5 -49 t6.5 -59.5q0 -148 -111.5 -232.5t-297.5 -84.5z" />
<glyph unicode="&#x1e68;" horiz-adv-x="1243" d="M580 1710v199h127v-199h-127zM1032 1182q-64 71 -167 113t-230 42q-187 0 -278 -70.5t-91 -199.5q0 -51 16.5 -89.5t44.5 -65.5t81.5 -49.5t111 -38.5t150.5 -36q84 -18 145.5 -35.5t122 -41.5t101 -54t73 -69.5t47.5 -91t15 -115.5q0 -130 -68.5 -220t-184.5 -131.5 t-272 -41.5q-337 0 -583 211l71 116q82 -88 219.5 -144t296.5 -56q176 0 272.5 64t96.5 188q0 53 -19 93.5t-51 70t-90 54.5t-120.5 43t-157.5 40q-99 23 -166 44t-128 51.5t-96 68.5t-55 91.5t-20 123.5q0 198 142.5 307.5t375.5 109.5q273 0 465 -168zM582 -346v199h127 v-199h-127z" />
<glyph unicode="&#x1e69;" horiz-adv-x="989" d="M444 1296v199h127v-199h-127zM504 -20q-273 0 -438 174l57 98q168 -160 375 -160q127 0 203.5 51.5t76.5 143.5q0 56 -38 92.5t-82 51.5t-153 43q-28 7 -42 11q-90 25 -147 47.5t-103 55.5t-66 77.5t-20 106.5q0 149 111 231t288 82q120 0 216 -38.5t155 -108.5l-68 -94 q-111 129 -311 129q-110 0 -185 -45t-75 -140q0 -28 6 -49.5t23.5 -39t33.5 -29t52 -25t62 -22t79 -23.5q51 -14 78.5 -21.5t69.5 -21t64.5 -23t53.5 -24.5t47.5 -29t35.5 -34t28 -41.5t15.5 -49t6.5 -59.5q0 -148 -111.5 -232.5t-297.5 -84.5zM438 -346v199h127v-199h-127z " />
<glyph unicode="&#x1e6c;" horiz-adv-x="1249" d="M1214 1327h-518v-1327h-143v1327h-518v127h1179v-127zM565 -346v199h127v-199h-127z" />
<glyph unicode="&#x1e6d;" horiz-adv-x="686" d="M666 51q-1 -1 -20.5 -9.5t-32 -13.5t-37.5 -13.5t-46 -13.5t-50 -9t-56 -4q-96 0 -160.5 53.5t-64.5 151.5v763h-148v111h148v360h139v-360h246v-111h-246v-725q4 -56 40 -85t89 -29q87 0 162 47zM360 -346v199h127v-199h-127z" />
<glyph unicode="&#x1e6e;" horiz-adv-x="1249" d="M1214 1327h-518v-1327h-143v1327h-518v127h1179v-127zM334 -264v96h592v-96h-592z" />
<glyph unicode="&#x1e6f;" horiz-adv-x="686" d="M666 51q-1 -1 -20.5 -9.5t-32 -13.5t-37.5 -13.5t-46 -13.5t-50 -9t-56 -4q-96 0 -160.5 53.5t-64.5 151.5v763h-148v111h148v360h139v-360h246v-111h-246v-725q4 -56 40 -85t89 -29q87 0 162 47zM129 -264v96h592v-96h-592z" />
<glyph unicode="&#x1e78;" horiz-adv-x="1546" d="M821 2081l-92 35l121 190h147zM637 1772q-31 0 -53.5 -13.5t-32 -33t-13 -32.5t-3.5 -20h-86q0 16 8 43t26.5 62.5t58.5 60.5t93 25q48 0 92.5 -21.5t86 -43t83.5 -21.5q30 0 53 10t34.5 23t18.5 28.5t9 24.5t2 14h86q0 -11 -4.5 -30t-18.5 -47.5t-35 -52.5t-58.5 -41 t-84.5 -17q-52 0 -99.5 20.5t-87.5 41t-75 20.5zM774 -10q-134 0 -240 41t-175 109t-114 163.5t-64 198.5t-19 219v733h141v-733q0 -96 14 -180t48 -163t86 -135.5t134 -90t187 -33.5q107 0 190.5 34.5t135.5 91.5t85.5 136.5t46.5 162.5t13 177v733h143v-733 q0 -121 -20.5 -226.5t-67 -199.5t-116 -160.5t-174 -105.5t-234.5 -39z" />
<glyph unicode="&#x1e79;" horiz-adv-x="1216" d="M641 1698l-92 35l121 190h147zM457 1389q-31 0 -53.5 -13.5t-32 -32.5t-13.5 -32.5t-4 -20.5h-86q0 11 4.5 31t17.5 48.5t32.5 52.5t54.5 41.5t78 17.5q48 0 92.5 -21.5t86 -43t83.5 -21.5q30 0 53 10t34.5 23t18.5 28.5t9 24.5t2 14h86q0 -11 -4.5 -30t-18.5 -47.5 t-35 -52.5t-58.5 -41t-84.5 -17q-52 0 -99.5 20.5t-87.5 41t-75 20.5zM143 440v627h140v-602q0 -363 247 -363q124 0 231 80.5t154 212.5v672h140v-899q0 -29 11.5 -42t37.5 -15v-111q-33 -4 -66 -4q-43 3 -71.5 32t-30.5 70l-4 144q-68 -123 -188 -192.5t-261 -69.5 q-167 0 -253.5 116.5t-86.5 343.5z" />
<glyph unicode="&#x1e7a;" horiz-adv-x="1546" d="M561 2068v193h119v-193h-119zM866 2068v193h119v-193h-119zM479 1741v96h592v-96h-592zM774 -10q-134 0 -240 41t-175 109t-114 163.5t-64 198.5t-19 219v733h141v-733q0 -96 14 -180t48 -163t86 -135.5t134 -90t187 -33.5q107 0 190.5 34.5t135.5 91.5t85.5 136.5 t46.5 162.5t13 177v733h143v-733q0 -121 -20.5 -226.5t-67 -199.5t-116 -160.5t-174 -105.5t-234.5 -39z" />
<glyph unicode="&#x1e7b;" horiz-adv-x="1216" d="M381 1686v192h119v-192h-119zM686 1686v192h119v-192h-119zM299 1358v96h592v-96h-592zM143 440v627h140v-602q0 -363 247 -363q124 0 231 80.5t154 212.5v672h140v-899q0 -29 11.5 -42t37.5 -15v-111q-33 -4 -66 -4q-43 3 -71.5 32t-30.5 70l-4 144 q-68 -123 -188 -192.5t-261 -69.5q-167 0 -253.5 116.5t-86.5 343.5z" />
<glyph unicode="&#x1e80;" horiz-adv-x="2142" d="M879 1880h145l123 -190l-90 -35zM729 1444h135l205 -516l207 516h137l-254 -621l279 -657l526 1288h156l-617 -1454h-127l-305 719l-307 -719h-125l-614 1454h153l529 -1288l276 657z" />
<glyph unicode="&#x1e81;" horiz-adv-x="1665" d="M641 1497h145l123 -190l-90 -35zM1497 1067h137l-458 -1067h-121l-224 530l-221 -530h-121l-458 1067h135l389 -924l197 482l-181 440h125l135 -346l138 346h123l-179 -440l197 -482z" />
<glyph unicode="&#x1e82;" horiz-adv-x="2142" d="M1116 1653l-92 35l121 190h147zM729 1444h135l205 -516l207 516h137l-254 -621l279 -657l526 1288h156l-617 -1454h-127l-305 719l-307 -719h-125l-614 1454h153l529 -1288l276 657z" />
<glyph unicode="&#x1e83;" horiz-adv-x="1665" d="M879 1270l-93 35l121 190h148zM1497 1067h137l-458 -1067h-121l-224 530l-221 -530h-121l-458 1067h135l389 -924l197 482l-181 440h125l135 -346l138 346h123l-179 -440l197 -482z" />
<glyph unicode="&#x1e84;" horiz-adv-x="2142" d="M856 1681v193h119v-193h-119zM1161 1681v193h119v-193h-119zM729 1444h135l205 -516l207 516h137l-254 -621l279 -657l526 1288h156l-617 -1454h-127l-305 719l-307 -719h-125l-614 1454h153l529 -1288l276 657z" />
<glyph unicode="&#x1e85;" horiz-adv-x="1665" d="M618 1298v193h119v-193h-119zM924 1298v193h118v-193h-118zM1497 1067h137l-458 -1067h-121l-224 530l-221 -530h-121l-458 1067h135l389 -924l197 482l-181 440h125l135 -346l138 346h123l-179 -440l197 -482z" />
<glyph unicode="&#x1e8e;" horiz-adv-x="1333" d="M602 1679v199h127v-199h-127zM190 1454l476 -782l479 782h155l-563 -913v-541h-143v545l-561 909h157z" />
<glyph unicode="&#x1e8f;" horiz-adv-x="1110" d="M506 1296v199h127v-199h-127zM215 -328q77 -4 94 0q37 4 69.5 61.5t117.5 266.5l-465 1067h147l391 -924l361 924h139l-553 -1376q-56 -145 -217 -148q-41 -3 -84 4v125z" />
<glyph unicode="&#x1e92;" horiz-adv-x="1288" d="M63 113l990 1214h-973v127h1139v-113l-977 -1214h975v-127h-1154v113zM582 -346v199h127v-199h-127z" />
<glyph unicode="&#x1e93;" horiz-adv-x="1007" d="M63 94l715 869h-698v104h856v-94l-711 -869h709v-104h-871v94zM440 -346v199h127v-199h-127z" />
<glyph unicode="&#x1e97;" horiz-adv-x="686" d="M70 1686v192h118v-192h-118zM375 1686v192h119v-192h-119zM666 51q-1 -1 -20.5 -9.5t-32 -13.5t-37.5 -13.5t-46 -13.5t-50 -9t-56 -4q-96 0 -160.5 53.5t-64.5 151.5v763h-148v111h148v360h139v-360h246v-111h-246v-725q4 -56 40 -85t89 -29q87 0 162 47z" />
<glyph unicode="&#x1e9e;" horiz-adv-x="1292" d="M817 600q58 -16 89 -24.5t77 -23.5t70 -26.5t56 -29t48.5 -36.5t32.5 -43.5t22.5 -54t6.5 -65.5q0 -148 -112.5 -232.5t-299.5 -84.5q-273 0 -438 174l59 98q168 -160 373 -160q127 0 203.5 51.5t76.5 143.5q0 34 -12.5 59.5t-31 42.5t-57 32.5t-71 25t-93.5 25.5 q-33 8 -50 13q-182 49 -259 109.5t-77 181.5q0 65 20.5 116.5t61.5 87.5t89 61.5t116.5 43.5t129.5 28.5t142 19.5q-26 98 -115.5 152t-211.5 54q-176 0 -275.5 -109t-99.5 -276v-954h-133v975q0 215 145 351t367 136q189 0 312 -101t148 -269l7 -50q-26 -4 -77 -11 q-92 -13 -137 -20.5t-115 -22t-103.5 -30t-71.5 -40t-53 -57t-15 -75.5q0 -33 11.5 -58.5t29 -42.5t54 -33t69 -26t92.5 -26z" />
<glyph unicode="&#x1ea0;" horiz-adv-x="1384" d="M633 1454h121l604 -1454h-152l-188 455h-653l-187 -455h-153zM985 567l-293 719l-297 -719h590zM649 -346v199h127v-199h-127z" />
<glyph unicode="&#x1ea1;" horiz-adv-x="1116" d="M68 307q0 147 124.5 236.5t325.5 89.5q172 0 311 -49v90q0 136 -80.5 215.5t-220.5 79.5q-161 0 -342 -125l-53 98q208 143 410 143q197 0 311.5 -113t114.5 -310v-494q0 -29 12 -42t39 -15v-111q-50 -6 -64 -4q-49 1 -76.5 30.5t-29.5 67.5l-2 78q-71 -90 -185 -141 t-235 -51q-155 0 -257.5 94.5t-102.5 232.5zM782 225q47 53 47 103v155q-139 56 -294 56q-151 0 -242.5 -60.5t-91.5 -161.5q0 -94 71 -162.5t189 -68.5q99 0 186 38.5t135 100.5zM530 -346v199h127v-199h-127z" />
<glyph unicode="&#x1ea2;" horiz-adv-x="1384" d="M598 1800l-55 55q80 70 162 70q65 0 101 -37t36 -92q0 -76 -105 -168l-43 49q62 62 62 107q0 27 -17 45t-47 18q-25 0 -44.5 -10t-49.5 -37zM633 1454h121l604 -1454h-152l-188 455h-653l-187 -455h-153zM985 567l-293 719l-297 -719h590z" />
<glyph unicode="&#x1ea3;" horiz-adv-x="1116" d="M444 1417l-55 56q79 69 162 69q65 0 101 -37t36 -92q0 -77 -104 -168l-43 49q61 61 61 107q0 27 -16.5 45t-46.5 18q-26 0 -45.5 -10t-49.5 -37zM68 307q0 147 124.5 236.5t325.5 89.5q172 0 311 -49v90q0 136 -80.5 215.5t-220.5 79.5q-161 0 -342 -125l-53 98 q208 143 410 143q197 0 311.5 -113t114.5 -310v-494q0 -29 12 -42t39 -15v-111q-50 -6 -64 -4q-49 1 -76.5 30.5t-29.5 67.5l-2 78q-71 -90 -185 -141t-235 -51q-155 0 -257.5 94.5t-102.5 232.5zM782 225q47 53 47 103v155q-139 56 -294 56q-151 0 -242.5 -60.5 t-91.5 -161.5q0 -94 71 -162.5t189 -68.5q99 0 186 38.5t135 100.5z" />
<glyph unicode="&#x1ea4;" horiz-adv-x="1384" d="M954 1757l-92 35l121 190h147zM420 1640l201 175h102l203 -175l-80 -43l-174 129l-174 -129zM633 1454h121l604 -1454h-152l-188 455h-653l-187 -455h-153zM985 567l-293 719l-297 -719h590z" />
<glyph unicode="&#x1ea5;" horiz-adv-x="1116" d="M801 1374l-92 35l120 190h148zM266 1257l201 175h102l203 -175l-80 -43l-174 129l-174 -129zM68 307q0 147 124.5 236.5t325.5 89.5q172 0 311 -49v90q0 136 -80.5 215.5t-220.5 79.5q-161 0 -342 -125l-53 98q208 143 410 143q197 0 311.5 -113t114.5 -310v-494 q0 -29 12 -42t39 -15v-111q-50 -6 -64 -4q-49 1 -76.5 30.5t-29.5 67.5l-2 78q-71 -90 -185 -141t-235 -51q-155 0 -257.5 94.5t-102.5 232.5zM782 225q47 53 47 103v155q-139 56 -294 56q-151 0 -242.5 -60.5t-91.5 -161.5q0 -94 71 -162.5t189 -68.5q99 0 186 38.5 t135 100.5z" />
<glyph unicode="&#x1ea6;" horiz-adv-x="1384" d="M246 1970h145l123 -190l-90 -35zM451 1642l200 175h103l202 -175l-79 -43l-175 130l-174 -130zM633 1454h121l604 -1454h-152l-188 455h-653l-187 -455h-153zM985 567l-293 719l-297 -719h590z" />
<glyph unicode="&#x1ea7;" horiz-adv-x="1116" d="M92 1587h146l122 -190l-90 -35zM297 1260l201 174h102l203 -174l-80 -43l-174 129l-174 -129zM68 307q0 147 124.5 236.5t325.5 89.5q172 0 311 -49v90q0 136 -80.5 215.5t-220.5 79.5q-161 0 -342 -125l-53 98q208 143 410 143q197 0 311.5 -113t114.5 -310v-494 q0 -29 12 -42t39 -15v-111q-50 -6 -64 -4q-49 1 -76.5 30.5t-29.5 67.5l-2 78q-71 -90 -185 -141t-235 -51q-155 0 -257.5 94.5t-102.5 232.5zM782 225q47 53 47 103v155q-139 56 -294 56q-151 0 -242.5 -60.5t-91.5 -161.5q0 -94 71 -162.5t189 -68.5q99 0 186 38.5 t135 100.5z" />
<glyph unicode="&#x1ea8;" horiz-adv-x="1384" d="M805 1896l-55 56q79 69 161 69q65 0 101.5 -37t36.5 -92q0 -76 -105 -168l-43 50q62 62 62 106q0 27 -17 45.5t-47 18.5q-25 0 -44 -10t-50 -38zM420 1642l201 175h102l203 -175l-80 -43l-174 130l-174 -130zM633 1454h121l604 -1454h-152l-188 455h-653l-187 -455h-153z M985 567l-293 719l-297 -719h590z" />
<glyph unicode="&#x1ea9;" horiz-adv-x="1116" d="M651 1513l-55 56q79 69 162 69q65 0 101 -37t36 -92q0 -77 -104 -168l-43 50q61 61 61 106q0 27 -17 45.5t-47 18.5q-25 0 -44 -10t-50 -38zM266 1260l201 174h102l203 -174l-80 -43l-174 129l-174 -129zM68 307q0 147 124.5 236.5t325.5 89.5q172 0 311 -49v90 q0 136 -80.5 215.5t-220.5 79.5q-161 0 -342 -125l-53 98q208 143 410 143q197 0 311.5 -113t114.5 -310v-494q0 -29 12 -42t39 -15v-111q-50 -6 -64 -4q-49 1 -76.5 30.5t-29.5 67.5l-2 78q-71 -90 -185 -141t-235 -51q-155 0 -257.5 94.5t-102.5 232.5zM782 225 q47 53 47 103v155q-139 56 -294 56q-151 0 -242.5 -60.5t-91.5 -161.5q0 -94 71 -162.5t189 -68.5q99 0 186 38.5t135 100.5z" />
<glyph unicode="&#x1eaa;" horiz-adv-x="1384" d="M551 1937q-31 0 -53.5 -13.5t-32 -32.5t-13 -32t-3.5 -20h-87q0 11 4.5 31t17.5 48.5t32.5 52.5t54.5 41.5t78 17.5q48 0 92.5 -21.5t86 -43t83.5 -21.5q30 0 53 10t34.5 23t18.5 28.5t9 24.5t2 14h86q0 -11 -4.5 -30.5t-18.5 -47.5t-35 -52.5t-58.5 -41.5t-84.5 -17 q-52 0 -99.5 20.5t-87.5 41t-75 20.5zM420 1638l201 174h102l203 -174l-80 -43l-174 129l-174 -129zM633 1454h121l604 -1454h-152l-188 455h-653l-187 -455h-153zM985 567l-293 719l-297 -719h590z" />
<glyph unicode="&#x1eab;" horiz-adv-x="1116" d="M397 1554q-31 0 -53.5 -13.5t-32 -32.5t-13 -32t-3.5 -20h-86q0 16 8 43t26.5 62.5t58.5 60.5t93 25q48 0 92.5 -21.5t86 -43t83.5 -21.5q30 0 53 10t34.5 23t18.5 28.5t9 24.5t2 14h86q0 -11 -4.5 -30t-18.5 -47.5t-35 -52.5t-58.5 -41t-84.5 -17q-52 0 -99.5 20.5 t-87.5 40.5t-75 20zM266 1255l201 175h102l203 -175l-80 -43l-174 129l-174 -129zM68 307q0 147 124.5 236.5t325.5 89.5q172 0 311 -49v90q0 136 -80.5 215.5t-220.5 79.5q-161 0 -342 -125l-53 98q208 143 410 143q197 0 311.5 -113t114.5 -310v-494q0 -29 12 -42t39 -15 v-111q-50 -6 -64 -4q-49 1 -76.5 30.5t-29.5 67.5l-2 78q-71 -90 -185 -141t-235 -51q-155 0 -257.5 94.5t-102.5 232.5zM782 225q47 53 47 103v155q-139 56 -294 56q-151 0 -242.5 -60.5t-91.5 -161.5q0 -94 71 -162.5t189 -68.5q99 0 186 38.5t135 100.5z" />
<glyph unicode="&#x1eac;" horiz-adv-x="1384" d="M440 1704l201 174h102l203 -174l-80 -43l-174 129l-174 -129zM633 1454h121l604 -1454h-152l-188 455h-653l-187 -455h-153zM985 567l-293 719l-297 -719h590zM649 -346v199h127v-199h-127z" />
<glyph unicode="&#x1ead;" horiz-adv-x="1116" d="M287 1321l200 174h103l203 -174l-80 -43l-174 129l-174 -129zM68 307q0 147 124.5 236.5t325.5 89.5q172 0 311 -49v90q0 136 -80.5 215.5t-220.5 79.5q-161 0 -342 -125l-53 98q208 143 410 143q197 0 311.5 -113t114.5 -310v-494q0 -29 12 -42t39 -15v-111 q-50 -6 -64 -4q-49 1 -76.5 30.5t-29.5 67.5l-2 78q-71 -90 -185 -141t-235 -51q-155 0 -257.5 94.5t-102.5 232.5zM782 225q47 53 47 103v155q-139 56 -294 56q-151 0 -242.5 -60.5t-91.5 -161.5q0 -94 71 -162.5t189 -68.5q99 0 186 38.5t135 100.5zM530 -346v199h127 v-199h-127z" />
<glyph unicode="&#x1eae;" horiz-adv-x="1384" d="M733 1821l-92 34l121 191h147zM803 1802h84q0 -87 -58.5 -147t-142.5 -60q-85 0 -143 59.5t-58 147.5h86q0 -52 35.5 -93.5t79.5 -41.5q43 0 77 39t40 96zM633 1454h121l604 -1454h-152l-188 455h-653l-187 -455h-153zM985 567l-293 719l-297 -719h590z" />
<glyph unicode="&#x1eaf;" horiz-adv-x="1116" d="M580 1438l-93 35l121 190h148zM649 1419h84q0 -87 -58.5 -147t-142.5 -60q-85 0 -142.5 59.5t-57.5 147.5h86q0 -52 35 -93.5t79 -41.5q43 0 77 39t40 96zM68 307q0 147 124.5 236.5t325.5 89.5q172 0 311 -49v90q0 136 -80.5 215.5t-220.5 79.5q-161 0 -342 -125l-53 98 q208 143 410 143q197 0 311.5 -113t114.5 -310v-494q0 -29 12 -42t39 -15v-111q-50 -6 -64 -4q-49 1 -76.5 30.5t-29.5 67.5l-2 78q-71 -90 -185 -141t-235 -51q-155 0 -257.5 94.5t-102.5 232.5zM782 225q47 53 47 103v155q-139 56 -294 56q-151 0 -242.5 -60.5 t-91.5 -161.5q0 -94 71 -162.5t189 -68.5q99 0 186 38.5t135 100.5z" />
<glyph unicode="&#x1eb0;" horiz-adv-x="1384" d="M475 2042h146l122 -191l-90 -34zM797 1800h84q0 -87 -58.5 -147t-142.5 -60q-85 0 -143 59.5t-58 147.5h86q0 -52 35.5 -93.5t79.5 -41.5q43 0 77 39t40 96zM633 1454h121l604 -1454h-152l-188 455h-653l-187 -455h-153zM985 567l-293 719l-297 -719h590z" />
<glyph unicode="&#x1eb1;" horiz-adv-x="1116" d="M322 1659h145l123 -191l-90 -34zM643 1417h84q0 -87 -58.5 -147t-142.5 -60q-85 0 -142.5 59.5t-57.5 147.5h86q0 -52 35 -93.5t79 -41.5q43 0 77 39t40 96zM68 307q0 147 124.5 236.5t325.5 89.5q172 0 311 -49v90q0 136 -80.5 215.5t-220.5 79.5q-161 0 -342 -125 l-53 98q208 143 410 143q197 0 311.5 -113t114.5 -310v-494q0 -29 12 -42t39 -15v-111q-50 -6 -64 -4q-49 1 -76.5 30.5t-29.5 67.5l-2 78q-71 -90 -185 -141t-235 -51q-155 0 -257.5 94.5t-102.5 232.5zM782 225q47 53 47 103v155q-139 56 -294 56q-151 0 -242.5 -60.5 t-91.5 -161.5q0 -94 71 -162.5t189 -68.5q99 0 186 38.5t135 100.5z" />
<glyph unicode="&#x1eb2;" horiz-adv-x="1384" d="M559 1962l-55 55q80 70 162 70q65 0 101 -37t36 -92q0 -77 -105 -168l-43 49q62 62 62 107q0 27 -17 45t-47 18q-25 0 -44.5 -10t-49.5 -37zM803 1806h84q0 -87 -58.5 -147t-142.5 -60q-85 0 -143 59.5t-58 147.5h86q0 -52 35.5 -93.5t79.5 -41.5q43 0 77 39t40 96z M633 1454h121l604 -1454h-152l-188 455h-653l-187 -455h-153zM985 567l-293 719l-297 -719h590z" />
</font>
</defs>
</svg>
