<?xml version="1.0" standalone="no"?>
<!DOCTYPE svg PUBLIC "-//W3C//DTD SVG 1.1//EN" "http://www.w3.org/Graphics/SVG/1.1/DTD/svg11.dtd" >
<svg xmlns="http://www.w3.org/2000/svg" xmlns:xlink="http://www.w3.org/1999/xlink" version="1.1">
<metadata></metadata>
<defs>
<font id="rawlineextrabold_italic" horiz-adv-x="1210" >
<font-face units-per-em="2048" ascent="1638" descent="-410" />
<missing-glyph horiz-adv-x="471" />
<glyph unicode="fi" horiz-adv-x="1181" d="M201 739h-129l53 248h129l18 88q40 192 191 316.5t350 124.5q105 0 198 -37.5t189 -110.5l-178 -248q-51 55 -115.5 87t-130.5 32q-67 0 -113.5 -42.5t-60.5 -109.5l-22 -100h571l-211 -987h-328l156 739h-240l-155 -739h-328z" />
<glyph unicode="fl" horiz-adv-x="1353" d="M700 178q0 8 9 60l168 780q14 75 14 112q0 109 -105 109q-152 0 -194 -205l-10 -47h147l-51 -248h-150l-155 -739h-328l156 739h-129l53 248h129l27 119q43 201 189 305.5t361 104.5q202 0 301 -82.5t99 -231.5q0 -61 -14 -121l-146 -688q-4 -24 -4 -39q0 -34 16 -57 t50 -23q20 0 49 8t49.5 15.5t21.5 7.5l-16 -264q-9 -5 -48 -17t-111.5 -26t-131.5 -14q-117 0 -181.5 54t-64.5 140z" />
<glyph unicode="&#xd;" horiz-adv-x="0" />
<glyph unicode=" "  horiz-adv-x="471" />
<glyph unicode="&#x09;" horiz-adv-x="471" />
<glyph unicode="&#xa0;" horiz-adv-x="471" />
<glyph unicode="!" horiz-adv-x="632" d="M145 578l187 890h327l-186 -890h-328zM20 0l74 340h328l-74 -340h-328z" />
<glyph unicode="&#x22;" horiz-adv-x="874" d="M197 1020l100 467h276l-100 -467h-276zM565 1020l101 467h276l-100 -467h-277z" />
<glyph unicode="#" horiz-adv-x="1449" d="M1425 844h-299l-96 -234h250l-51 -243h-309l-162 -367h-262l163 367h-161l-160 -367h-262l162 367h-218l52 243h276l98 234h-229l49 225h285l170 385h262l-172 -385h162l168 385h262l-172 -385h244zM770 610l96 234h-159l-99 -234h162z" />
<glyph unicode="$" horiz-adv-x="1269" d="M807 868q86 -29 143.5 -57t106.5 -68.5t72.5 -96.5t23.5 -130q0 -106 -32.5 -193.5t-87 -147t-129.5 -101.5t-156 -63t-170 -25l-50 -238h-143l51 240q-131 12 -253.5 58t-211.5 118l209 293q6 -15 51 -47.5t128 -69.5t167 -49l56 268q-82 28 -95 33q-151 54 -221.5 127 t-70.5 190q0 119 45.5 220t123.5 170t177.5 111t210.5 52l43 207h139l-43 -207q204 -20 397 -155l-205 -279q-5 12 -42 38.5t-104.5 56.5t-133.5 40l-58 -274q1 0 24.5 -8.5t37.5 -12.5zM563 1024q0 -35 23.5 -58.5t72.5 -45.5l52 245q-70 -8 -109 -44.5t-39 -96.5zM618 287 q158 8 158 129q0 37 -26.5 62.5t-79.5 49.5z" />
<glyph unicode="%" horiz-adv-x="1617" d="M180 1106q0 97 58 183t153 136t199 50q122 0 199 -76.5t77 -188.5q0 -97 -58 -182.5t-152.5 -135.5t-198.5 -50q-122 0 -199.5 76t-77.5 188zM106 115l693 663l641 695l119 -132l-668 -647l-666 -712zM639 1196q0 52 -23 85.5t-59 33.5q-55 0 -102 -60t-47 -135 q0 -51 22.5 -85t58.5 -34q55 0 102.5 60t47.5 135zM799 244q0 97 58 182.5t153 135.5t200 50q121 0 198 -76t77 -188q0 -97 -58 -182.5t-152.5 -135.5t-199.5 -50q-122 0 -199 76t-77 188zM1257 334q0 51 -22.5 85t-58.5 34q-55 0 -102.5 -60t-47.5 -135q0 -52 23 -85.5 t61 -33.5q54 0 100.5 60t46.5 135z" />
<glyph unicode="&#x26;" horiz-adv-x="1458" d="M1366 625h-145q-65 -158 -156 -277l242 -348h-424l-72 106q-197 -126 -397 -126q-184 0 -285.5 106t-101.5 262q0 76 24.5 141t73.5 118.5t101.5 94t127.5 86.5q-49 81 -71.5 143t-22.5 124q0 118 66.5 215t173.5 150t229 53q87 0 160.5 -30t129 -96t77.5 -161l-230 -105 q-20 74 -64 114t-97 40t-95.5 -36t-42.5 -89q0 -16 3.5 -30.5t17 -37t23.5 -37.5t38.5 -55t46.5 -67l230 -330q72 141 94 299h377zM504 229q90 0 186 58l-198 295q-77 -46 -111.5 -93.5t-34.5 -107.5q0 -72 44.5 -112t113.5 -40z" />
<glyph unicode="'" horiz-adv-x="505" d="M197 1018l100 469h276l-100 -469h-276z" />
<glyph unicode="(" horiz-adv-x="653" d="M563 1565l228 -103q-420 -546 -420 -903q0 -249 102 -563l-266 -117q-64 151 -104 328.5t-40 335.5q0 87 16.5 172.5t52.5 172.5t75 163t103.5 170t117.5 166t135 178z" />
<glyph unicode=")" horiz-adv-x="651" d="M131 -121l-213 117q82 112 130.5 181.5t108 167.5t90.5 174t53 168t22 183q0 155 -34 327t-67 265l273 103q137 -402 137 -682q0 -107 -28.5 -218t-72.5 -206.5t-113.5 -202.5t-134 -190.5t-151.5 -186.5z" />
<glyph unicode="*" horiz-adv-x="708" d="M233 1044l125 154l-129 43l72 137l129 -69l23 164h168l-46 -164l158 69l12 -137l-149 -43l63 -154l-139 -79l-57 161l-125 -161z" />
<glyph unicode="+" horiz-adv-x="886" d="M805 858v-262h-195v-213h-295v213h-192v262h192v213h295v-213h195z" />
<glyph unicode="," horiz-adv-x="495" d="M-41 -276l123 280h-100l69 330h277l-72 -330l-154 -280h-143z" />
<glyph unicode="-" horiz-adv-x="819" d="M66 416l63 295h602l-63 -295h-602z" />
<glyph unicode="." horiz-adv-x="487" d="M-18 0l69 334h268l-71 -334h-266z" />
<glyph unicode="/" horiz-adv-x="1492" d="M1602 1454l-1297 -1454h-360l1296 1454h361z" />
<glyph unicode="0" horiz-adv-x="1396" d="M84 573q0 149 63.5 306.5t168 284.5t253 208.5t305.5 81.5q98 0 179.5 -35.5t136 -94.5t92.5 -137t55 -161.5t17 -169.5q0 -119 -40 -244.5t-113.5 -237.5t-170 -201t-218.5 -141t-249 -52q-97 0 -178 34.5t-136 92.5t-93 135t-55 160.5t-17 170.5zM1012 840 q0 83 -19.5 152t-66 116t-113.5 47q-88 0 -164 -61.5t-123 -154.5t-73.5 -193t-26.5 -185q0 -123 49.5 -202.5t151.5 -79.5q86 0 161.5 57t122.5 143.5t74 182t27 178.5z" />
<glyph unicode="1" horiz-adv-x="1028" d="M61 295h275l180 850q-45 -52 -164 -114t-192 -62l65 301q39 0 90 19.5t96 47t84.5 56.5t63 49.5t25.5 23.5h336l-250 -1171h248l-64 -295h-854z" />
<glyph unicode="2" horiz-adv-x="1228" d="M444 688q15 7 46 21q53 24 79.5 36.5t70.5 36t67 40.5t53 44t44.5 53t25 60.5t10.5 73.5q0 60 -34.5 93.5t-92.5 33.5q-82 0 -172 -47.5t-166 -114.5l-158 217q102 92 264 163.5t340 71.5q193 0 296.5 -94t103.5 -260q0 -106 -25.5 -186t-82.5 -144t-123.5 -110.5 t-174.5 -104.5q-72 -37 -117.5 -63.5t-92.5 -61t-73.5 -72t-35.5 -79.5h561l-64 -295h-1040q25 119 52 204t64.5 160t89 130.5t121 103t164.5 90.5z" />
<glyph unicode="3" horiz-adv-x="1153" d="M-4 244l217 223q3 -19 9.5 -39t23 -47.5t40 -48t63.5 -35t91 -14.5q100 0 172 49t72 129q0 83 -83 119t-255 36h-63l57 273h63q106 0 188.5 19t135.5 62.5t53 106.5q0 57 -37 83t-86 26q-96 0 -177 -48.5t-120 -103.5l-157 242q89 92 234.5 144.5t285.5 52.5 q187 0 301.5 -96t114.5 -247q0 -133 -90.5 -231t-235.5 -129q99 -18 155 -100.5t56 -200.5q0 -97 -38.5 -178.5t-102 -137.5t-147 -95.5t-171.5 -57.5t-176 -18q-163 0 -262.5 66.5t-130.5 195.5z" />
<glyph unicode="4" horiz-adv-x="1165" d="M457 2l65 305h-532l61 293l817 856h226l-183 -856h172l-61 -293h-172l-66 -305h-327zM621 600l77 365l-321 -365h244z" />
<glyph unicode="5" horiz-adv-x="1130" d="M-16 223l225 203q40 -73 105.5 -115.5t138.5 -42.5q100 0 167.5 70.5t67.5 175.5q0 69 -35.5 110.5t-97.5 41.5q-50 0 -98 -25.5t-80 -69.5h-281q44 109 173 441.5t175 443.5h689l-64 -299h-451l-88 -248q33 37 134 37q167 0 267.5 -104t100.5 -271q0 -166 -86.5 -302 t-233.5 -211.5t-323 -75.5q-151 0 -258 63.5t-147 177.5z" />
<glyph unicode="6" horiz-adv-x="1212" d="M1114 575q0 171 -108.5 282.5t-284.5 111.5q-158 0 -266 -117q37 156 119.5 243t191.5 87q72 0 131 -37t94 -103l230 209q-133 215 -390 215q-162 0 -302.5 -78.5t-237.5 -212.5t-152 -317t-55 -389q0 -231 103.5 -360t293.5 -129q164 0 310 81t234.5 219t88.5 295z M385 444q0 106 77.5 186.5t174.5 80.5q70 0 114 -51.5t44 -129.5q0 -106 -80 -190t-174 -84q-68 0 -112 54.5t-44 133.5z" />
<glyph unicode="7" horiz-adv-x="1155" d="M752 1157h-566l64 299h1083l-991 -1454h-369z" />
<glyph unicode="8" horiz-adv-x="1202" d="M463 -18q-184 0 -304 108t-120 281q0 74 24.5 141t66.5 116.5t84 84.5t91 63q-44 29 -70 87.5t-26 123.5q0 85 36 161.5t95.5 131t134 94.5t152 60t149.5 20q73 0 143 -23t127.5 -65.5t92.5 -110t35 -149.5q0 -102 -63.5 -194t-149.5 -136q52 -40 87 -110.5t35 -157.5 q0 -148 -88.5 -270t-230.5 -189t-301 -67zM655 887q66 0 122.5 46t56.5 122q0 50 -32.5 80t-86.5 30q-69 0 -121.5 -48.5t-52.5 -117.5q0 -52 34 -82t80 -30zM604 641q-90 0 -156.5 -61.5t-66.5 -153.5q0 -64 41.5 -105.5t103.5 -41.5q88 0 157 64.5t69 154.5 q0 67 -41.5 105t-106.5 38z" />
<glyph unicode="9" horiz-adv-x="1214" d="M539 475q160 0 266 119q-38 -156 -120 -243t-191 -87q-74 0 -133 36.5t-93 102.5l-229 -208q65 -105 164 -160t225 -55q162 0 302.5 78.5t237 212.5t151.5 317t55 389q0 231 -103 360t-293 129q-164 0 -311 -81t-235.5 -219.5t-88.5 -295.5q0 -171 109.5 -283t286.5 -112 zM874 1001q0 -107 -77.5 -186.5t-173.5 -79.5q-70 0 -114 51.5t-44 128.5q0 106 80 190.5t174 84.5q68 0 111.5 -55t43.5 -134z" />
<glyph unicode=":" horiz-adv-x="550" d="M166 729l72 334h266l-72 -334h-266zM12 0l70 334h268l-71 -334h-267z" />
<glyph unicode=";" horiz-adv-x="557" d="M168 729l70 334h268l-72 -334h-266zM-12 -276l123 280h-101l72 330h274l-71 -330l-154 -280h-143z" />
<glyph unicode="&#x3c;" horiz-adv-x="1130" d="M59 600l865 524v-348l-389 -246l389 -231v-367l-865 512v156z" />
<glyph unicode="=" horiz-adv-x="999" d="M162 668v209h651v-209h-651zM162 254v209h651v-209h-651z" />
<glyph unicode="&#x3e;" horiz-adv-x="1130" d="M1032 444l-864 -512v367l389 231l-389 246v348l864 -524v-156z" />
<glyph unicode="?" horiz-adv-x="974" d="M188 502q22 108 69 182t153 129q65 32 103.5 53t81 49.5t64.5 53.5t37 57t15 68q0 53 -33 83.5t-84 30.5q-35 0 -67.5 -13.5t-61.5 -40t-45.5 -45t-40.5 -48.5l-180 147q76 124 201 194.5t264 70.5q67 0 126.5 -18.5t108.5 -56t78 -102t29 -147.5q0 -84 -19.5 -150 t-58 -115.5t-80.5 -84t-103 -70.5q-29 -17 -74 -40t-75 -39t-62 -38t-51 -49.5t-26 -60.5h-269zM86 0l66 307h268l-66 -307h-268z" />
<glyph unicode="@" horiz-adv-x="1671" d="M1432 602q0 225 -137.5 366.5t-372.5 141.5q-200 0 -372.5 -102.5t-275 -281t-102.5 -390.5q0 -233 125 -371.5t342 -138.5q138 0 313 78l15 -121q-181 -82 -355 -82q-261 0 -418 168.5t-157 449.5q0 190 75.5 361.5t201.5 292t293.5 191.5t346.5 71q279 0 445 -163.5 t166 -432.5q0 -112 -30.5 -229.5t-85 -217t-138.5 -162.5t-181 -63q-73 0 -116 34.5t-43 98.5q0 23 4 31q-159 -141 -320 -141q-150 0 -239.5 105t-89.5 272q0 113 43.5 221t114 187.5t165 128t193.5 48.5q95 0 160.5 -45t84.5 -119l25 134h154l-131 -668q-9 -45 -9 -68 q0 -37 17.5 -57t48.5 -20q63 0 119.5 77.5t88.5 191.5t32 224zM971 342l39 250q-14 80 -63 129t-120 49q-55 0 -110.5 -30t-99.5 -80t-71.5 -122t-27.5 -149q0 -106 53 -174t150 -68q84 0 148 52t102 143z" />
<glyph unicode="A" horiz-adv-x="1312" d="M690 1454h305l189 -1454h-344l-31 326h-414l-166 -326h-346zM803 557l-41 514l-266 -514h307z" />
<glyph unicode="B" horiz-adv-x="1353" d="M317 1454h777q115 0 180 -87.5t65 -211.5q0 -127 -75.5 -241.5t-204.5 -168.5q91 -29 140.5 -103.5t49.5 -182.5q0 -112 -46.5 -201.5t-126 -144.5t-180 -84t-214.5 -29h-674zM825 866q64 0 114 51t50 140q0 51 -24.5 80.5t-63.5 29.5h-309l-64 -301h297zM743 285 q68 0 121.5 56t53.5 138q0 53 -26.5 88t-68.5 35h-352l-65 -317h337z" />
<glyph unicode="C" horiz-adv-x="1353" d="M68 604q0 121 40.5 244.5t118 233t181 195t239 135.5t281.5 50q196 0 324 -86t169 -231l-293 -178q-39 196 -266 196q-86 0 -161 -33t-127.5 -87t-90 -124t-55.5 -143.5t-18 -144.5q0 -147 71.5 -245.5t202.5 -98.5q94 0 187.5 50t150.5 150l242 -161 q-64 -105 -176 -183.5t-234.5 -116.5t-239.5 -38q-103 0 -191.5 34t-153 93t-110.5 137t-68.5 167.5t-22.5 184.5z" />
<glyph unicode="D" horiz-adv-x="1419" d="M317 1454h521q138 0 246 -43.5t175 -120.5t101.5 -178.5t34.5 -222.5q0 -189 -66.5 -354.5t-181.5 -282.5t-275.5 -184.5t-343.5 -67.5h-520zM590 295q100 0 186.5 44.5t145 119.5t92 174t33.5 207q0 146 -71 232.5t-202 86.5h-184l-184 -864h184z" />
<glyph unicode="E" horiz-adv-x="1179" d="M317 1454h957l-64 -295h-620l-60 -282h533l-57 -273h-533l-67 -309h638l-61 -295h-975z" />
<glyph unicode="F" horiz-adv-x="1130" d="M317 1454h938l-61 -295h-604l-66 -313h496l-57 -273h-498l-121 -573h-336z" />
<glyph unicode="G" horiz-adv-x="1441" d="M801 516l51 244h543l-162 -760h-279l31 143q-190 -153 -389 -153q-233 0 -380.5 165t-147.5 429q0 176 73 339.5t193 281.5t279 188.5t325 70.5q188 0 316.5 -85t170.5 -232l-288 -189q-26 96 -101 151.5t-174 55.5q-118 0 -221.5 -74.5t-165 -200t-61.5 -267.5 q0 -148 73.5 -241t200.5 -93q188 0 367 182l10 45h-264z" />
<glyph unicode="H" horiz-adv-x="1476" d="M317 1454h336l-121 -563h527l121 563h336l-310 -1454h-336l127 596h-526l-127 -596h-336z" />
<glyph unicode="I" horiz-adv-x="614" d="M317 1454h336l-309 -1454h-336z" />
<glyph unicode="J" horiz-adv-x="989" d="M-92 68l129 274q18 -20 79.5 -43t135.5 -23q54 0 94.5 17.5t70 48t53.5 88.5t41.5 121t39.5 164l158 739h338l-158 -739q-22 -103 -43 -180.5t-52.5 -158.5t-68 -138t-88.5 -109t-115.5 -83.5t-147.5 -50t-186 -18.5q-172 0 -280 91z" />
<glyph unicode="K" horiz-adv-x="1337" d="M317 1454h336l-133 -627l615 627h378l-653 -649l377 -805h-385l-252 586l-166 -158l-90 -428h-336z" />
<glyph unicode="L" horiz-adv-x="1153" d="M317 1454h336l-247 -1159h657l-62 -295h-993z" />
<glyph unicode="M" horiz-adv-x="1689" d="M317 1454h365l180 -760l504 760h365l-310 -1454h-338l187 870l-416 -632h-180l-144 632l-186 -870h-336z" />
<glyph unicode="N" horiz-adv-x="1492" d="M317 1454h263l436 -854l180 854h336l-309 -1454h-267l-436 831l-176 -831h-336z" />
<glyph unicode="O" horiz-adv-x="1501" d="M68 596q0 162 72 320.5t189.5 278t278 193.5t328.5 74q128 0 233 -51t172 -136t103.5 -193.5t36.5 -227.5q0 -161 -71.5 -319t-189 -278t-277.5 -194.5t-327 -74.5q-103 0 -192.5 32.5t-154 90t-110.5 134.5t-68.5 166t-22.5 185zM1137 831q0 92 -28 165.5t-91 120 t-152 46.5q-101 0 -188.5 -49.5t-144.5 -128.5t-89 -174t-32 -188q0 -144 69 -240t201 -96q82 0 155.5 33t127 88.5t93 125.5t59.5 146.5t20 150.5z" />
<glyph unicode="P" horiz-adv-x="1232" d="M317 1454h592q108 0 192 -59.5t126.5 -152t42.5 -198.5q0 -103 -45.5 -207t-120 -185t-179.5 -132t-216 -51h-267l-98 -469h-336zM750 762q67 0 121.5 71.5t54.5 182.5q0 69 -30 106t-73 37h-233l-84 -397h244z" />
<glyph unicode="Q" horiz-adv-x="1499" d="M1479 854q0 -172 -79.5 -338t-215.5 -291l151 -225h-317l-49 76q-174 -86 -355 -86q-128 0 -233.5 50t-173 134.5t-104.5 193t-37 228.5q0 162 72 321t190 278.5t278.5 194t327.5 74.5q128 0 233.5 -51t172.5 -137t103 -194.5t36 -227.5zM682 289q68 0 129 22l-174 262 h313l68 -100q57 77 88 172t31 186q0 143 -70 238.5t-201 95.5q-101 0 -189 -50t-145 -129t-89.5 -174.5t-32.5 -188.5q0 -142 70 -238t202 -96z" />
<glyph unicode="R" horiz-adv-x="1325" d="M8 0l309 1454h625q109 0 193 -59.5t126 -152t42 -198.5q0 -150 -89 -289.5t-229 -213.5l186 -541h-378l-160 469h-191l-98 -469h-336zM784 762q62 0 117 75t55 173q0 66 -28.5 107.5t-69.5 41.5h-268l-84 -397h278z" />
<glyph unicode="S" horiz-adv-x="1216" d="M-55 164l209 293q8 -18 63 -56.5t155 -76t197 -37.5q93 0 137 34.5t44 94.5q0 19 -6.5 35.5t-24 30.5t-32.5 24t-47 23t-51.5 20t-62.5 21t-65 22q-152 54 -222.5 127.5t-70.5 189.5q0 128 53 235t141 176.5t199.5 107.5t231.5 38q247 0 469 -159l-205 -279q-5 14 -52 46 t-129 62.5t-157 30.5q-86 0 -134 -37.5t-48 -105.5q0 -28 14 -49t48.5 -39t69 -30.5t98.5 -33.5q9 -3 13 -4q86 -29 143.5 -57t107.5 -68.5t73.5 -96.5t23.5 -130q0 -112 -36.5 -203.5t-97 -151.5t-142.5 -101t-170 -58.5t-182 -17.5q-153 0 -301.5 48t-253.5 132z" />
<glyph unicode="T" horiz-adv-x="1220" d="M559 1159h-416l62 295h1165l-61 -295h-414l-248 -1159h-336z" />
<glyph unicode="U" horiz-adv-x="1468" d="M113 483q0 111 24 228l160 743h336l-160 -743q-18 -103 -18 -166q0 -118 50.5 -188t158.5 -70q75 0 138.5 35.5t108 97t74.5 134t49 157.5l158 743h336l-158 -743q-33 -154 -97.5 -283t-159 -228.5t-226.5 -155.5t-287 -56q-128 0 -224 37.5t-152.5 105.5t-83.5 155.5 t-27 196.5z" />
<glyph unicode="V" horiz-adv-x="1318" d="M168 1454h354l90 -1032l527 1032h352l-827 -1454h-281z" />
<glyph unicode="W" horiz-adv-x="2052" d="M156 1454h364l107 -1069l209 391l-82 676h307l37 -465l233 465h309l-374 -676l47 -391l559 1069h369l-861 -1454h-278l-94 569l-332 -569h-281z" />
<glyph unicode="X" horiz-adv-x="1280" d="M483 717l-317 737h364l183 -502l393 502h362l-630 -737l305 -717h-363l-170 481l-372 -481h-365z" />
<glyph unicode="Y" horiz-adv-x="1275" d="M436 500l-278 954h364l142 -668l432 668h364l-692 -958l-104 -496h-336z" />
<glyph unicode="Z" horiz-adv-x="1218" d="M-20 252l890 907h-669l61 295h1061l-55 -252l-858 -907h673l-61 -295h-1096z" />
<glyph unicode="[" horiz-adv-x="659" d="M-8 -82l340 1598h432l-55 -261h-131l-228 -1077h129l-53 -260h-434z" />
<glyph unicode="\" horiz-adv-x="1294" d="M582 1454l536 -1454h-360l-539 1454h363z" />
<glyph unicode="]" horiz-adv-x="661" d="M-61 -82l55 260h133l227 1077h-131l56 261h432l-338 -1598h-434z" />
<glyph unicode="^" horiz-adv-x="1245" d="M94 621l406 833h272l404 -833h-267l-272 563l-281 -563h-262z" />
<glyph unicode="_" horiz-adv-x="903" d="M-90 -295l61 295h697l-62 -295h-696z" />
<glyph unicode="`" horiz-adv-x="602" d="M305 1495h295l45 -266l-227 -33z" />
<glyph unicode="a" horiz-adv-x="1298" d="M23 416q0 133 48 258.5t127.5 217.5t187.5 148t222 56q103 0 178 -53.5t103 -143.5l37 170h329l-151 -700q-4 -36 -4 -43q0 -25 12 -37t39 -13l-57 -276q-81 -16 -140 -16q-174 0 -174 137q0 19 6 57q-73 -97 -174.5 -147.5t-208.5 -50.5q-175 0 -277.5 122t-102.5 314z M786 406l48 225q-10 81 -61 133.5t-118 52.5q-112 0 -199 -107t-87 -241q0 -94 48.5 -153.5t133.5 -59.5q61 0 124.5 40.5t110.5 109.5z" />
<glyph unicode="b" horiz-adv-x="1267" d="M303 178l-37 -178h-286l317 1495h328l-127 -596q67 91 163.5 144t200.5 53q164 0 256 -121.5t92 -312.5q0 -138 -51 -265t-135 -218t-195.5 -145t-228.5 -54q-116 0 -191.5 51.5t-105.5 146.5zM866 596q0 95 -45 158t-121 63q-68 0 -139 -52.5t-119 -133.5l-49 -225 q44 -150 178 -150q116 0 205.5 101.5t89.5 238.5z" />
<glyph unicode="c" horiz-adv-x="1122" d="M23 432q0 126 50 245.5t137.5 212.5t217.5 149.5t279 56.5q174 0 281 -76.5t142 -208.5l-337 -96q-39 102 -146 102q-112 0 -198.5 -100.5t-86.5 -247.5q0 -95 45.5 -154t118.5 -59q54 0 106.5 29.5t84.5 76.5l299 -98q-90 -129 -232 -206.5t-311 -77.5q-145 0 -249 62.5 t-152.5 163t-48.5 226.5z" />
<glyph unicode="d" horiz-adv-x="1298" d="M23 416q0 133 48 258.5t127.5 217.5t187.5 148t222 56q103 0 178 -53.5t103 -143.5l127 596h330l-242 -1126q-4 -36 -4 -43q0 -25 12 -37t39 -13l-57 -276q-81 -16 -140 -16q-82 0 -129 32.5t-47 98.5q0 24 8 63q-73 -97 -174.5 -147.5t-208.5 -50.5q-175 0 -277.5 122 t-102.5 314zM786 406l48 225q-10 81 -61 133.5t-118 52.5q-112 0 -199 -107t-87 -241q0 -94 48.5 -153.5t133.5 -59.5q61 0 124.5 40.5t110.5 109.5z" />
<glyph unicode="e" horiz-adv-x="1142" d="M475 432q-71 0 -110 2v-14q0 -205 170 -205q73 0 136 34.5t101 96.5l258 -82q-86 -127 -239 -205.5t-316 -78.5q-207 0 -328.5 125.5t-121.5 328.5q0 134 54 256t145.5 211t220.5 142t272 53q184 0 290.5 -81.5t106.5 -226.5q0 -175 -161 -265.5t-478 -90.5zM664 860 q-87 0 -155.5 -61.5t-105.5 -161.5q23 -2 72 -2q176 0 250 30t74 95q0 47 -37 73.5t-98 26.5z" />
<glyph unicode="f" horiz-adv-x="770" d="M201 739h-129l53 248h129l18 88q41 200 166.5 320.5t290.5 120.5q124 0 258 -64l-113 -246q-64 33 -131 33q-54 0 -90 -39t-51 -113l-22 -100h235l-53 -248h-234l-249 -1175h-328z" />
<glyph unicode="g" horiz-adv-x="1265" d="M-117 -242l213 179q42 -68 117 -108t166 -40q120 0 212.5 71t121.5 214l20 104q-61 -87 -158 -134.5t-200 -47.5q-161 0 -255.5 120t-94.5 304q0 134 49.5 259t132 216.5t195 146t233.5 54.5q111 0 186.5 -51.5t108.5 -145.5l39 176h284l-213 -1001 q-52 -244 -247.5 -387.5t-464.5 -143.5q-307 0 -445 215zM782 406l49 225q-12 84 -62.5 135t-117.5 51q-73 0 -139.5 -51t-105.5 -131.5t-39 -165.5q0 -93 49 -153t131 -60q64 0 126 41t109 109z" />
<glyph unicode="h" d="M297 1495h328l-127 -600q75 96 178 148.5t215 52.5q252 0 252 -248q0 -59 -19 -160l-145 -688h-328l129 604q8 62 8 80q0 123 -106 123q-53 0 -127 -54.5t-117 -136.5l-131 -616h-327z" />
<glyph unicode="i" horiz-adv-x="548" d="M297 1495h328l-64 -297h-328zM209 1075h328l-230 -1075h-327z" />
<glyph unicode="j" horiz-adv-x="559" d="M307 1495h328l-64 -297h-327zM-410 -311l185 223q27 -43 90 -43q42 0 75.5 31t45.5 82l231 1093h328l-226 -1069q-40 -185 -173 -302.5t-300 -117.5q-164 0 -256 103z" />
<glyph unicode="k" horiz-adv-x="1167" d="M1122 846q0 -135 -76 -250t-215 -190l183 -406h-348l-181 465q159 30 250.5 99t91.5 153q0 43 -24.5 67.5t-65.5 24.5q-87 0 -181.5 -93.5t-145.5 -228.5l-105 -487h-325l317 1495h326l-146 -688q84 134 190 207t226 73q111 0 170 -63t59 -178z" />
<glyph unicode="l" horiz-adv-x="667" d="M23 182q0 47 10 86l260 1227h328l-238 -1112q-4 -28 -4 -43q0 -80 78 -80q52 0 108 29l-10 -246q-66 -28 -147.5 -44.5t-149.5 -16.5q-115 0 -175 51.5t-60 148.5z" />
<glyph unicode="m" horiz-adv-x="1837" d="M209 1075h295l-39 -180q73 94 183.5 147.5t228.5 53.5q229 0 243 -209q79 100 186.5 154.5t223.5 54.5q242 0 242 -246q0 -62 -21 -162l-147 -688h-328l129 604q10 55 10 86q0 58 -24.5 87.5t-65.5 29.5q-60 0 -128.5 -54.5t-111.5 -136.5l-129 -616h-327l129 604 q10 55 10 86q0 58 -24.5 87.5t-67.5 29.5q-59 0 -127 -54.5t-111 -136.5l-131 -616h-327z" />
<glyph unicode="n" d="M209 1075h295l-39 -180q75 96 189 148.5t247 52.5q242 0 242 -248q0 -63 -19 -160l-145 -688h-328l129 604q8 41 8 82q0 61 -26 91t-72 30q-60 0 -134.5 -55t-117.5 -136l-131 -616h-327z" />
<glyph unicode="o" d="M23 436q0 131 48.5 251t134 210.5t212 144.5t272.5 54q119 0 209.5 -35.5t145 -99t81.5 -144.5t27 -178q0 -130 -48.5 -249.5t-134.5 -210.5t-212.5 -145t-272.5 -54q-119 0 -209.5 35.5t-144.5 98.5t-81 144t-27 178zM811 600q0 101 -43.5 159t-124.5 58 q-111 0 -194.5 -100t-83.5 -246q0 -100 43.5 -157.5t123.5 -57.5q111 0 195 99.5t84 244.5z" />
<glyph unicode="p" horiz-adv-x="1265" d="M207 1075h287l-39 -174q161 195 381 195q170 0 271 -124.5t101 -314.5q0 -176 -80 -333t-213 -250.5t-282 -93.5q-113 0 -187.5 51t-101.5 143l-131 -610h-328zM866 604q0 94 -49.5 153.5t-134.5 59.5q-60 0 -123 -39.5t-110 -107.5l-48 -221q14 -83 63.5 -138t115.5 -55 q110 0 198 108t88 240z" />
<glyph unicode="q" horiz-adv-x="1265" d="M733 174q-141 -194 -373 -194q-155 0 -246 121.5t-91 310.5q0 138 51 265.5t135 218.5t195.5 145.5t228.5 54.5q219 0 297 -197l37 176h286l-321 -1513h-328zM782 401l49 228q-9 80 -60 134t-118 54q-110 0 -199 -107.5t-89 -240.5q0 -94 48.5 -153.5t133.5 -59.5 q116 0 235 145z" />
<glyph unicode="r" horiz-adv-x="802" d="M209 1075h301l-47 -217q77 108 172.5 170t187.5 62q35 0 47 -3l-61 -292q-114 -2 -211 -40t-154 -110l-137 -645h-327z" />
<glyph unicode="s" horiz-adv-x="987" d="M-53 152l157 200q161 -139 320 -139q65 0 99 26.5t34 73.5q0 36 -33 59t-118 50q-178 57 -249 111.5t-71 148.5q0 174 145 294t351 120q121 0 213.5 -35t167.5 -117l-168 -196q-75 63 -134 90.5t-120 27.5t-98 -26.5t-37 -75.5q0 -37 30 -56.5t119 -45.5 q179 -54 255.5 -116t76.5 -165q0 -176 -139 -288.5t-363 -112.5q-134 0 -251.5 45t-186.5 127z" />
<glyph unicode="t" horiz-adv-x="802" d="M94 182q0 43 8 84l119 561h-129l55 248h127l74 342h328l-74 -342h207l-53 -248h-207l-94 -448q-4 -24 -4 -35q0 -65 69 -65q51 0 146 38l4 -260q-175 -77 -336 -77q-110 0 -175 48.5t-65 153.5z" />
<glyph unicode="u" horiz-adv-x="1241" d="M33 238q0 66 18 149l148 688h325l-131 -616q-10 -52 -10 -80q0 -123 102 -123q128 0 244 156l141 663h328l-149 -706q-7 -31 -7 -43q0 -47 54 -50l-60 -276q-79 -16 -139 -16q-82 0 -129 32.5t-47 98.5q0 9 10 71q-180 -206 -446 -206q-124 0 -188 66t-64 192z" />
<glyph unicode="v" horiz-adv-x="1097" d="M96 1075h340l35 -813q138 229 221 408.5t154 404.5h297q-140 -507 -580 -1075h-340z" />
<glyph unicode="w" horiz-adv-x="1642" d="M78 1075h315l105 -778q94 162 145 262l-98 516h272l37 -325q85 175 147 325h252q-111 -292 -262 -514l35 -190q163 217 239.5 350t164.5 354h296q-194 -520 -682 -1075h-215l-51 377q-66 -118 -217 -377h-282z" />
<glyph unicode="x" horiz-adv-x="1069" d="M340 537l-234 538h332l111 -303l10 -39l25 39l245 303h330l-465 -538l244 -537h-334l-119 301l-10 39l-24 -39l-246 -301h-336z" />
<glyph unicode="y" horiz-adv-x="1087" d="M-102 -227q123 6 180.5 31t114.5 98l59 75l-160 1098h334l59 -794l70 114q194 316 272 680h316q-56 -200 -139 -370t-283 -494l-164 -264q-143 -231 -283 -324.5t-337 -95.5z" />
<glyph unicode="z" horiz-adv-x="964" d="M-39 197l639 651h-475l49 227h821l-43 -196l-639 -652h516l-49 -227h-862z" />
<glyph unicode="{" horiz-adv-x="679" d="M616 1255l-77 -370q-17 -76 -107 -148q47 -55 47 -112q0 -15 -4 -35l-82 -393h107l-56 -260h-356q-35 0 -35 40q0 13 2 21l103 481q4 24 4 33q0 44 -24 75.5t-58 39.5l47 225q41 0 85.5 46.5t55.5 96.5l97 459q7 32 25.5 47t33.5 15h356l-57 -261h-107z" />
<glyph unicode="|" horiz-adv-x="700" d="M221 -266v1853h277v-1853h-277z" />
<glyph unicode="}" horiz-adv-x="686" d="M236 1255l55 261h354q13 0 24 -10t11 -31q0 -13 -2 -21l-98 -459q-5 -25 -5 -28q0 -45 24.5 -80t59.5 -35l-49 -225q-44 -10 -86 -51.5t-53 -96.5l-102 -481q-7 -32 -25 -46.5t-35 -14.5h-354l55 260h107l84 393q17 76 104 147q-45 61 -45 111q0 25 4 37l80 370h-108z " />
<glyph unicode="~" horiz-adv-x="1157" d="M397 752q52 0 104.5 -17t88.5 -37.5t82.5 -37.5t87.5 -17q33 0 60 10t42 24.5t25.5 30.5t14 26t3.5 14h176q-1 -14 -11.5 -44t-36 -74t-61.5 -82t-94.5 -65.5t-127.5 -27.5q-63 0 -127.5 26t-123.5 52t-110 26q-33 0 -59.5 -10.5t-40 -24.5t-22 -30.5t-11 -26t-2.5 -12.5 h-178q1 20 11.5 53t35.5 76t60 80t91.5 62.5t122.5 25.5z" />
<glyph unicode="&#xa1;" horiz-adv-x="632" d="M657 1456l-71 -340h-328l72 340h327zM537 879l-191 -891h-328l191 891h328z" />
<glyph unicode="&#xa2;" horiz-adv-x="1196" d="M365 -246l49 228q-109 9 -193 75.5t-126 165.5t-42 211t41 219.5t115 197.5t188.5 154.5t251.5 86.5l49 229h142l-49 -229q135 -5 234.5 -76.5t139.5 -204.5l-340 -96q-10 37 -37 62t-57 30l-117 -543q94 27 138 98l299 -98q-59 -89 -155 -156.5t-184.5 -97.5t-156.5 -30 l-49 -226h-141zM477 281l109 512q-80 -29 -136.5 -128.5t-56.5 -203.5q0 -61 22 -110t62 -70z" />
<glyph unicode="&#xa3;" horiz-adv-x="1114" d="M559 543q-39 -134 -213 -291q96 29 158 29q43 0 125 -16.5t125 -16.5q51 0 137 28l29 -241q-51 -29 -118 -47.5t-124 -18.5q-60 0 -181 32t-186 32q-117 0 -278 -51l-19 233q97 67 166 152t96 176h-172l50 243h122q-3 18 -11 58.5t-12 63.5t-7.5 56t-3.5 60q0 120 73 222 t190.5 160t248.5 58q124 0 226 -57t159 -158l-209 -200q-35 65 -101.5 108t-132.5 43q-71 0 -119.5 -51.5t-48.5 -128.5q0 -30 6.5 -67t17 -86t15.5 -81h367l-53 -243h-322z" />
<glyph unicode="&#xa4;" horiz-adv-x="1187" d="M397 1026q95 53 215 53q114 0 211 -51l142 143l127 -127l-136 -135q64 -95 64 -217q0 -124 -66 -221l138 -135l-117 -117l-148 137q-88 -51 -215 -51q-124 0 -219 53l-147 -139l-117 117l137 139q-61 99 -61 217q0 121 59 213l-135 139l127 127zM612 504q74 0 123 52 t49 136t-48.5 135.5t-123.5 51.5t-123.5 -52t-48.5 -137q0 -82 49 -134t123 -52z" />
<glyph unicode="&#xa5;" horiz-adv-x="1433" d="M1106 852h131l-45 -211h-240l-104 -145l-14 -64h315l-43 -211h-318l-47 -221h-333l45 221h-312l45 211h314l14 68l-41 141h-242l45 211h136l-176 602h364l141 -668l430 668h367z" />
<glyph unicode="&#xa6;" horiz-adv-x="684" d="M492 1587v-799h-279v799h279zM492 532v-798h-279v798h279z" />
<glyph unicode="&#xa7;" horiz-adv-x="1073" d="M922 334q0 -108 -38 -197.5t-97.5 -147t-135.5 -97t-148 -56t-138 -16.5q-76 0 -145 23.5t-116.5 60t-79 71.5t-49.5 68l252 201q73 -113 189 -113q62 0 106.5 34t44.5 91q0 26 -15 40.5t-31 18.5t-44 7q-170 13 -257 94.5t-87 210.5q0 43 9 83t18 59t24.5 45.5 t16.5 27.5q-31 55 -31 153q0 118 72 226.5t193 175.5t255 67q69 0 128.5 -19.5t98 -47t72 -68.5t50.5 -71.5t34 -67.5l-276 -119q-35 103 -146 103q-63 0 -104 -35.5t-41 -94.5q0 -41 26 -56t72 -17q70 -2 132 -18.5t117 -49t87.5 -90t32.5 -133.5q0 -113 -76 -223 q25 -45 25 -123zM610 537q19 13 31 39t12 51q0 42 -28 62t-64 20q-24 0 -46.5 4.5t-27.5 9.5q-41 -37 -41 -92q0 -33 20 -51.5t43.5 -23t55.5 -9.5t45 -10z" />
<glyph unicode="&#xa8;" horiz-adv-x="894" d="M246 1214l57 265h268l-55 -265h-270zM666 1214l57 265h266l-53 -265h-270z" />
<glyph unicode="&#xa9;" horiz-adv-x="1757" d="M121 727q0 156 59 293t161 234.5t246 153.5t308 56q168 0 315 -56t251.5 -153.5t164.5 -234.5t60 -293q0 -157 -60 -294.5t-164.5 -235.5t-251.5 -154.5t-315 -56.5q-164 0 -308 56.5t-246 154.5t-161 235.5t-59 294.5zM1559 725q0 173 -86 316t-238.5 226t-339.5 83 q-136 0 -256.5 -48.5t-206 -132t-135 -198.5t-49.5 -244q0 -173 83.5 -316.5t232.5 -227t331 -83.5q185 0 336.5 78.5t239.5 222t88 324.5zM381 725q0 97 34.5 185t99 157.5t167.5 110.5t229 41q169 0 293.5 -74.5t184.5 -202.5l-318 -98q-52 98 -162 98q-85 0 -138.5 -61 t-53.5 -156q0 -98 58 -156.5t136 -58.5q50 0 93.5 26.5t68.5 71.5l320 -96q-57 -123 -182.5 -201t-297.5 -78q-121 0 -222 39t-168.5 106t-104.5 156.5t-37 190.5z" />
<glyph unicode="&#xaa;" horiz-adv-x="878" d="M133 881q0 126 101 210.5t247 84.5q89 0 140 -31l6 31q4 32 4 41q0 86 -103 86q-96 0 -229 -82l-37 145q151 96 322 96q134 0 204 -57.5t70 -167.5q0 -36 -10 -88l-37 -182q-4 -20 -4 -27q0 -20 10.5 -28.5t34.5 -10.5l-43 -199q-58 -12 -104 -12q-119 0 -119 94 q0 19 2 37q-124 -133 -264 -133q-85 0 -138 54.5t-53 138.5zM580 954l14 68q-42 25 -98 25q-58 0 -100 -34t-42 -83q0 -31 21 -51.5t53 -20.5q43 0 93 30.5t59 65.5z" />
<glyph unicode="&#xab;" horiz-adv-x="1349" d="M66 600l612 395l-55 -264l-316 -201l232 -186l-56 -264l-452 364zM702 600l613 395l-55 -264l-314 -201l232 -186l-56 -264l-452 364z" />
<glyph unicode="&#xac;" horiz-adv-x="1232" d="M1155 850l-137 -649h-277l76 354h-723l62 295h999z" />
<glyph unicode="&#xad;" horiz-adv-x="1218" d="M66 416l63 295h999l-63 -295h-999z" />
<glyph unicode="&#xae;" horiz-adv-x="1757" d="M121 727q0 156 58.5 293t161 234.5t247.5 153.5t311 56q221 0 401.5 -95.5t283 -264.5t102.5 -377q0 -157 -60 -294.5t-164.5 -235.5t-250.5 -154.5t-312 -56.5t-311 56.5t-247.5 154.5t-161 235.5t-58.5 294.5zM1552 723q0 173 -84 316.5t-234 227t-335 83.5t-333 -83.5 t-230 -226t-82 -315.5q0 -129 48 -244.5t132.5 -199.5t205 -133.5t259.5 -49.5q183 0 332 80t235 223.5t86 321.5zM559 1176h404q121 0 205.5 -94.5t84.5 -209.5q0 -80 -40.5 -150.5t-106.5 -105.5l205 -329h-256l-178 286h-89v-286h-229v889zM940 770q40 0 64 25t24 77 q0 53 -26.5 78t-65.5 25h-148v-205h152z" />
<glyph unicode="&#xaf;" horiz-adv-x="800" d="M258 1270l41 198h596l-41 -198h-596z" />
<glyph unicode="&#xb0;" horiz-adv-x="583" d="M199 1204q0 109 80 194t194 85q80 0 128 -50t48 -128q0 -115 -80 -194t-194 -79q-81 0 -128.5 47.5t-47.5 124.5zM492 1272q0 28 -15 41.5t-39 13.5q-31 0 -57.5 -25t-26.5 -57q0 -25 15 -42t41 -17q30 0 56 26.5t26 59.5z" />
<glyph unicode="&#xb1;" horiz-adv-x="1075" d="M891 911v-260h-227v-248h-295v248h-228v260h228v248h295v-248h227zM139 33v260h750v-260h-750z" />
<glyph unicode="&#xb2;" horiz-adv-x="847" d="M90 784q37 164 107.5 250t230.5 156q20 9 66.5 27.5t70.5 28.5t59 29.5t53 36.5t32 42t14 53q0 45 -31.5 70.5t-87.5 25.5q-129 0 -256 -110l-86 141q54 56 165 98.5t232 42.5q134 0 206.5 -59t72.5 -162q0 -247 -309 -346q-86 -31 -131.5 -62t-53.5 -75h394l-43 -187 h-705z" />
<glyph unicode="&#xb3;" horiz-adv-x="817" d="M119 926l125 125q65 -99 198 -99q76 0 127.5 30.5t51.5 88.5q0 44 -45.5 65t-147.5 21h-47l37 168h45q115 0 163 25.5t48 79.5q0 39 -32.5 57t-74.5 18q-129 0 -229 -92l-80 143q57 56 161 87.5t204 31.5q127 0 200.5 -57.5t73.5 -151.5q0 -82 -54 -139t-143 -76 q60 -10 92.5 -61t32.5 -123q0 -75 -35 -133.5t-94.5 -93t-131.5 -51.5t-152 -17q-116 0 -196 40t-97 114z" />
<glyph unicode="&#xb4;" horiz-adv-x="600" d="M467 1200l-217 29l156 266h296z" />
<glyph unicode="&#xb5;" horiz-adv-x="1331" d="M231 1075h328l-131 -616q-10 -52 -10 -82q0 -121 108 -121q54 0 116.5 38t121.5 118l139 663h328l-150 -706q-4 -28 -4 -39q0 -28 15.5 -40t52.5 -14l-60 -276q-91 -16 -153 -16q-172 0 -172 131q0 34 6 71q-40 -68 -138 -137t-182 -69q-56 0 -86.5 26t-33.5 72l-88 -514 h-328z" />
<glyph unicode="&#xb6;" horiz-adv-x="1345" d="M805 1454h629l-52 -244h-137l-293 -1374h-276l121 572h-74l-121 -572h-278l122 572q-150 0 -235.5 105.5t-85.5 279.5q0 302 183.5 481.5t496.5 179.5zM498 649l120 561q-86 -8 -152.5 -126.5t-66.5 -266.5q0 -71 27.5 -116.5t71.5 -51.5zM971 1210h-78l-119 -561h76z " />
<glyph unicode="&#xb7;" horiz-adv-x="487" d="M82 492l72 339h268l-72 -339h-268z" />
<glyph unicode="&#xb8;" horiz-adv-x="645" d="M117 -430q-110 0 -205 65l115 170q35 -41 82 -41q42 0 71 29t29 78q0 63 -47 129l117 66q108 -116 108 -234q0 -107 -72.5 -184.5t-197.5 -77.5z" />
<glyph unicode="&#xb9;" horiz-adv-x="612" d="M645 975l-41 -189h-473l41 189h150l104 498q-30 -33 -96.5 -70t-108.5 -37l41 190q36 0 87.5 29.5t84.5 57t35 32.5h193l-150 -700h133z" />
<glyph unicode="&#xba;" horiz-adv-x="872" d="M154 995q0 89 33 173t91.5 149.5t146.5 105t189 39.5q143 0 219 -87t76 -220q0 -88 -33 -171.5t-91 -149.5t-146 -106t-190 -40q-142 0 -218.5 87.5t-76.5 219.5zM672 1124q0 64 -27 102t-74 38q-71 0 -125.5 -71t-54.5 -169q0 -62 27.5 -99.5t73.5 -37.5q71 0 125.5 70 t54.5 167z" />
<glyph unicode="&#xbb;" horiz-adv-x="1349" d="M606 444l-606 -364l55 264l312 186l-230 201l56 264l446 -395zM1243 444l-606 -364l55 264l312 186l-230 201l57 264l445 -395z" />
<glyph unicode="&#xbc;" horiz-adv-x="1837" d="M608 797l-39 -189h-475l41 189h150l106 497q-31 -33 -98 -69.5t-109 -36.5l41 190q36 0 87.5 29.5t84.5 57t35 32.5h195l-152 -700h133zM137 115l690 663l643 695l119 -132l-669 -647l-666 -712zM1331 61l-96 136l-248 30l205 293l422 363l88 -152l-53 -379l59 -33 l-61 -122l-80 -62l-66 -133zM1288 352l139 109l-81 53z" />
<glyph unicode="&#xbd;" horiz-adv-x="1890" d="M608 797l-39 -189h-475l41 189h150l106 497q-31 -33 -98 -69.5t-109 -36.5l41 190q36 0 87.5 29.5t84.5 57t35 32.5h195l-152 -700h133zM137 115l690 663l643 695l119 -132l-669 -647l-666 -712zM1004 -2q36 165 103 250t220 155q18 8 64.5 27.5t68.5 29t56.5 29.5 t51.5 37t30.5 42.5t13.5 54.5q0 43 -30 68.5t-83 25.5q-124 0 -248 -111l-82 142q50 56 157 98.5t226 42.5q130 0 199.5 -58.5t69.5 -162.5q0 -246 -297 -346q-163 -56 -181 -136h381l-43 -188h-677z" />
<glyph unicode="&#xbe;" horiz-adv-x="2039" d="M86 748l125 124q68 -98 199 -98q76 0 128 30.5t52 88.5q0 44 -45.5 65t-149.5 21h-45l35 168h45q117 0 165 25t48 79q0 39 -32.5 57.5t-73.5 18.5q-134 0 -232 -94l-80 145q58 56 162 87.5t203 31.5q128 0 201 -58t73 -151q0 -82 -53 -139t-143 -76q60 -12 93.5 -62.5 t33.5 -121.5q0 -75 -35.5 -134t-95 -93.5t-131.5 -52t-152 -17.5q-117 0 -197.5 40t-97.5 116zM340 115l690 663l643 695l119 -132l-670 -647l-665 -712zM1534 61l-96 136l-248 30l205 293l422 363l88 -152l-54 -379l60 -33l-62 -122l-80 -62l-65 -133zM1491 352l139 109 l-82 53z" />
<glyph unicode="&#xbf;" horiz-adv-x="962" d="M842 1036l-66 -307h-268l65 307h269zM739 535q-10 -52 -23.5 -91t-38 -80.5t-64 -76.5t-95.5 -64q-65 -33 -103 -53.5t-81 -49t-65 -53t-37 -56.5t-15 -68q0 -53 33 -84t84 -31q35 0 67.5 13.5t61.5 40t45.5 45t40.5 48.5l180 -147q-76 -124 -201 -194t-264 -70 q-67 0 -126.5 18.5t-108.5 56t-78 101.5t-29 147q0 84 19 150t57.5 115.5t80.5 84t103 70.5q29 17 74 40t75.5 39.5t62.5 38.5t51 49.5t26 60.5h268z" />
<glyph unicode="&#xc0;" horiz-adv-x="1312" d="M616 1874h295l45 -266l-227 -33zM690 1454h305l189 -1454h-344l-31 326h-414l-166 -326h-346zM803 557l-41 514l-266 -514h307z" />
<glyph unicode="&#xc1;" horiz-adv-x="1312" d="M979 1585l-217 29l156 266h296zM690 1454h305l189 -1454h-344l-31 326h-414l-166 -326h-346zM803 557l-41 514l-266 -514h307z" />
<glyph unicode="&#xc2;" horiz-adv-x="1312" d="M557 1653l262 221h236l168 -221l-185 -74l-137 129l-192 -129zM690 1454h305l189 -1454h-344l-31 326h-414l-166 -326h-346zM803 557l-41 514l-266 -514h307z" />
<glyph unicode="&#xc3;" horiz-adv-x="1312" d="M766 1677q-25 0 -45.5 -9.5t-32 -23t-19.5 -28.5t-11 -24.5t-3 -12.5h-178q4 20 19 53.5t44 75t64.5 77.5t85.5 60.5t103 24.5q42 0 77.5 -15.5t55.5 -33.5t48 -33.5t58 -15.5q25 0 46.5 10.5t34.5 23.5t23.5 30t13.5 24.5t5 13.5h174q-3 -15 -18 -46.5t-44 -74 t-65.5 -80.5t-89 -64t-106.5 -26q-40 0 -75.5 14.5t-57 32.5t-50.5 32.5t-57 14.5zM690 1454h305l189 -1454h-344l-31 326h-414l-166 -326h-346zM803 557l-41 514l-266 -514h307z" />
<glyph unicode="&#xc4;" horiz-adv-x="1312" d="M530 1593l58 265h268l-55 -265h-271zM950 1593l58 265h266l-53 -265h-271zM690 1454h305l189 -1454h-344l-31 326h-414l-166 -326h-346zM803 557l-41 514l-266 -514h307z" />
<glyph unicode="&#xc5;" horiz-adv-x="1312" d="M936 1874q86 0 133 -35t47 -100q0 -94 -69 -146.5t-183 -52.5q-86 0 -134 34.5t-48 98.5q0 95 70.5 148t183.5 53zM821 1696q0 -27 17.5 -43.5t46.5 -16.5q37 0 66.5 24.5t29.5 59.5q0 25 -18.5 41.5t-47.5 16.5q-39 0 -66.5 -23.5t-27.5 -58.5zM690 1454h305l189 -1454 h-344l-31 326h-414l-166 -326h-346zM803 557l-41 514l-266 -514h307z" />
<glyph unicode="&#xc6;" horiz-adv-x="1908" d="M991 1454h1012l-64 -295h-587l-58 -272h482l-62 -293h-481l-64 -299h603l-62 -295h-938l70 326h-412l-237 -326h-357zM879 621l96 458l-340 -458h244z" />
<glyph unicode="&#xc7;" horiz-adv-x="1353" d="M684 287q94 0 187.5 50t150.5 150l242 -161q-90 -147 -259.5 -236t-345.5 -100q50 -78 50 -158q0 -107 -73 -184.5t-198 -77.5q-110 0 -205 65l115 170q35 -41 82 -41q42 0 71 29t29 78q0 63 -47 129l4 2q-131 30 -228 123t-144 216.5t-47 262.5q0 121 40.5 244.5 t118 233t181 195t239 135.5t281.5 50q196 0 324 -86t169 -231l-293 -178q-39 196 -266 196q-86 0 -161 -33t-127.5 -87t-90 -124t-55.5 -143.5t-18 -144.5q0 -147 71.5 -245.5t202.5 -98.5z" />
<glyph unicode="&#xc8;" horiz-adv-x="1179" d="M557 1874h295l45 -266l-227 -33zM317 1454h957l-64 -295h-620l-60 -282h533l-57 -273h-533l-67 -309h638l-61 -295h-975z" />
<glyph unicode="&#xc9;" horiz-adv-x="1179" d="M920 1585l-218 29l156 266h297zM317 1454h957l-64 -295h-620l-60 -282h533l-57 -273h-533l-67 -309h638l-61 -295h-975z" />
<glyph unicode="&#xca;" horiz-adv-x="1179" d="M498 1653l262 221h235l168 -221l-184 -74l-137 129l-193 -129zM317 1454h957l-64 -295h-620l-60 -282h533l-57 -273h-533l-67 -309h638l-61 -295h-975z" />
<glyph unicode="&#xcb;" horiz-adv-x="1179" d="M471 1593l57 265h269l-56 -265h-270zM891 1593l57 265h266l-53 -265h-270zM317 1454h957l-64 -295h-620l-60 -282h533l-57 -273h-533l-67 -309h638l-61 -295h-975z" />
<glyph unicode="&#xcc;" horiz-adv-x="614" d="M268 1874h295l45 -266l-227 -33zM317 1454h336l-309 -1454h-336z" />
<glyph unicode="&#xcd;" horiz-adv-x="614" d="M631 1585l-217 29l155 266h297zM317 1454h336l-309 -1454h-336z" />
<glyph unicode="&#xce;" horiz-adv-x="614" d="M209 1653l262 221h236l167 -221l-184 -74l-137 129l-193 -129zM317 1454h336l-309 -1454h-336z" />
<glyph unicode="&#xcf;" horiz-adv-x="614" d="M182 1593l58 265h268l-55 -265h-271zM602 1593l57 265h267l-54 -265h-270zM317 1454h336l-309 -1454h-336z" />
<glyph unicode="&#xd0;" horiz-adv-x="1427" d="M846 1454q138 0 246 -43.5t175 -120.5t101.5 -178.5t34.5 -222.5q0 -189 -66.5 -354.5t-181 -282.5t-275 -184.5t-343.5 -67.5h-521l129 610h-79l51 242h80l129 602h520zM598 295q100 0 187 44.5t146 119.5t92.5 174t33.5 207q0 146 -71 232.5t-202 86.5h-184l-65 -307 h241l-53 -242h-242l-67 -315h184z" />
<glyph unicode="&#xd1;" horiz-adv-x="1492" d="M840 1673q-25 0 -45.5 -9.5t-32 -23t-19.5 -28.5t-11 -24.5t-3 -12.5h-178q4 21 19 54t43.5 74.5t64 77.5t85.5 60.5t103 24.5q42 0 77.5 -15.5t56 -34t48.5 -34t58 -15.5q25 0 46.5 10.5t34.5 23.5t23.5 30.5t13.5 25t5 13.5h174q-3 -15 -18 -46.5t-44.5 -74t-66 -80.5 t-89 -64t-106.5 -26q-40 0 -75.5 14.5t-56.5 32.5t-50 32.5t-57 14.5zM317 1454h263l436 -854l180 854h336l-309 -1454h-267l-436 831l-176 -831h-336z" />
<glyph unicode="&#xd2;" horiz-adv-x="1501" d="M705 1870h294l45 -266l-227 -33zM68 596q0 162 72 320.5t189.5 278t278 193.5t328.5 74q128 0 233 -51t172 -136t103.5 -193.5t36.5 -227.5q0 -161 -71.5 -319t-189 -278t-277.5 -194.5t-327 -74.5q-103 0 -192.5 32.5t-154 90t-110.5 134.5t-68.5 166t-22.5 185z M1137 831q0 92 -28 165.5t-91 120t-152 46.5q-101 0 -188.5 -49.5t-144.5 -128.5t-89 -174t-32 -188q0 -144 69 -240t201 -96q82 0 155.5 33t127 88.5t93 125.5t59.5 146.5t20 150.5z" />
<glyph unicode="&#xd3;" horiz-adv-x="1501" d="M1067 1581l-217 29l156 266h297zM68 596q0 162 72 320.5t189.5 278t278 193.5t328.5 74q128 0 233 -51t172 -136t103.5 -193.5t36.5 -227.5q0 -161 -71.5 -319t-189 -278t-277.5 -194.5t-327 -74.5q-103 0 -192.5 32.5t-154 90t-110.5 134.5t-68.5 166t-22.5 185z M1137 831q0 92 -28 165.5t-91 120t-152 46.5q-101 0 -188.5 -49.5t-144.5 -128.5t-89 -174t-32 -188q0 -144 69 -240t201 -96q82 0 155.5 33t127 88.5t93 125.5t59.5 146.5t20 150.5z" />
<glyph unicode="&#xd4;" horiz-adv-x="1501" d="M645 1649l262 221h236l168 -221l-185 -74l-137 129l-192 -129zM68 596q0 162 72 320.5t189.5 278t278 193.5t328.5 74q128 0 233 -51t172 -136t103.5 -193.5t36.5 -227.5q0 -161 -71.5 -319t-189 -278t-277.5 -194.5t-327 -74.5q-103 0 -192.5 32.5t-154 90t-110.5 134.5 t-68.5 166t-22.5 185zM1137 831q0 92 -28 165.5t-91 120t-152 46.5q-101 0 -188.5 -49.5t-144.5 -128.5t-89 -174t-32 -188q0 -144 69 -240t201 -96q82 0 155.5 33t127 88.5t93 125.5t59.5 146.5t20 150.5z" />
<glyph unicode="&#xd5;" horiz-adv-x="1501" d="M854 1673q-25 0 -45.5 -9.5t-32 -23t-19.5 -28.5t-11 -24.5t-3 -12.5h-178q4 20 19 53.5t44 75t64.5 77.5t85.5 60.5t103 24.5q42 0 77.5 -15.5t55.5 -34t48 -34t58 -15.5q25 0 46.5 10.5t34.5 23.5t23.5 30.5t13.5 25t5 13.5h174q-3 -15 -18 -46.5t-44 -74t-65.5 -80.5 t-89 -64t-106.5 -26q-40 0 -75.5 14.5t-57 32.5t-50.5 32.5t-57 14.5zM68 596q0 162 72 320.5t189.5 278t278 193.5t328.5 74q128 0 233 -51t172 -136t103.5 -193.5t36.5 -227.5q0 -161 -71.5 -319t-189 -278t-277.5 -194.5t-327 -74.5q-103 0 -192.5 32.5t-154 90 t-110.5 134.5t-68.5 166t-22.5 185zM1137 831q0 92 -28 165.5t-91 120t-152 46.5q-101 0 -188.5 -49.5t-144.5 -128.5t-89 -174t-32 -188q0 -144 69 -240t201 -96q82 0 155.5 33t127 88.5t93 125.5t59.5 146.5t20 150.5z" />
<glyph unicode="&#xd6;" horiz-adv-x="1501" d="M618 1589l58 264h268l-55 -264h-271zM1038 1589l58 264h266l-53 -264h-271zM68 596q0 162 72 320.5t189.5 278t278 193.5t328.5 74q128 0 233 -51t172 -136t103.5 -193.5t36.5 -227.5q0 -161 -71.5 -319t-189 -278t-277.5 -194.5t-327 -74.5q-103 0 -192.5 32.5t-154 90 t-110.5 134.5t-68.5 166t-22.5 185zM1137 831q0 92 -28 165.5t-91 120t-152 46.5q-101 0 -188.5 -49.5t-144.5 -128.5t-89 -174t-32 -188q0 -144 69 -240t201 -96q82 0 155.5 33t127 88.5t93 125.5t59.5 146.5t20 150.5z" />
<glyph unicode="&#xd7;" horiz-adv-x="1015" d="M891 371l-205 -203l-197 194l-194 -194l-203 203l195 194l-185 187l205 202l185 -184l184 184l203 -202l-185 -185z" />
<glyph unicode="&#xd8;" horiz-adv-x="1501" d="M1604 1454l-218 -244q95 -159 95 -356q0 -161 -71.5 -319t-189 -278t-277.5 -194.5t-327 -74.5q-148 0 -262 63l-47 -51h-360l215 240q-94 157 -94 356q0 162 72 320.5t189.5 278t278 193.5t328.5 74q144 0 258 -63l49 55h361zM412 623q0 -54 8 -93l549 615 q-47 18 -103 18q-101 0 -188.5 -49.5t-144.5 -128.5t-89 -174t-32 -188zM1137 831q0 47 -9 91l-548 -617q46 -18 102 -18q82 0 155.5 33t127 88.5t93 125.5t59.5 146.5t20 150.5z" />
<glyph unicode="&#xd9;" horiz-adv-x="1468" d="M678 1870h295l45 -266l-227 -33zM113 483q0 111 24 228l160 743h336l-160 -743q-18 -103 -18 -166q0 -118 50.5 -188t158.5 -70q75 0 138.5 35.5t108 97t74.5 134t49 157.5l158 743h336l-158 -743q-33 -154 -97.5 -283t-159 -228.5t-226.5 -155.5t-287 -56 q-128 0 -224 37.5t-152.5 105.5t-83.5 155.5t-27 196.5z" />
<glyph unicode="&#xda;" horiz-adv-x="1468" d="M1040 1581l-217 29l156 266h297zM113 483q0 111 24 228l160 743h336l-160 -743q-18 -103 -18 -166q0 -118 50.5 -188t158.5 -70q75 0 138.5 35.5t108 97t74.5 134t49 157.5l158 743h336l-158 -743q-33 -154 -97.5 -283t-159 -228.5t-226.5 -155.5t-287 -56 q-128 0 -224 37.5t-152.5 105.5t-83.5 155.5t-27 196.5z" />
<glyph unicode="&#xdb;" horiz-adv-x="1468" d="M618 1649l263 221h235l168 -221l-184 -74l-137 129l-193 -129zM113 483q0 111 24 228l160 743h336l-160 -743q-18 -103 -18 -166q0 -118 50.5 -188t158.5 -70q75 0 138.5 35.5t108 97t74.5 134t49 157.5l158 743h336l-158 -743q-33 -154 -97.5 -283t-159 -228.5 t-226.5 -155.5t-287 -56q-128 0 -224 37.5t-152.5 105.5t-83.5 155.5t-27 196.5z" />
<glyph unicode="&#xdc;" horiz-adv-x="1468" d="M592 1589l57 264h269l-56 -264h-270zM1012 1589l57 264h266l-53 -264h-270zM113 483q0 111 24 228l160 743h336l-160 -743q-18 -103 -18 -166q0 -118 50.5 -188t158.5 -70q75 0 138.5 35.5t108 97t74.5 134t49 157.5l158 743h336l-158 -743q-33 -154 -97.5 -283 t-159 -228.5t-226.5 -155.5t-287 -56q-128 0 -224 37.5t-152.5 105.5t-83.5 155.5t-27 196.5z" />
<glyph unicode="&#xdd;" horiz-adv-x="1275" d="M918 1581l-218 29l156 266h297zM436 500l-278 954h364l142 -668l432 668h364l-692 -958l-104 -496h-336z" />
<glyph unicode="&#xde;" horiz-adv-x="1196" d="M317 1454h336l-53 -254h223q109 0 193.5 -58.5t127 -150.5t42.5 -198q0 -83 -28.5 -167.5t-81.5 -157t-121.5 -129.5t-154.5 -89.5t-175 -32.5h-236l-45 -217h-336zM670 512q65 0 120.5 75t55.5 171q0 66 -29.5 107.5t-73.5 41.5h-206l-84 -395h217z" />
<glyph unicode="&#xdf;" horiz-adv-x="1110" d="M428 289q110 0 184 58.5t74 162.5q0 66 -41.5 104.5t-93.5 38.5h-43l63 293h39q64 0 98.5 45t34.5 101q0 44 -25 69t-65 25q-111 0 -145 -168l-217 -1018h-311l229 1075q23 110 101 198.5t192 138.5t241 50q149 0 238.5 -74t89.5 -202q0 -117 -69 -221.5t-152 -139.5 q84 -32 131 -112t47 -191q0 -115 -39.5 -207t-104 -151.5t-152 -99.5t-178.5 -57.5t-189 -18.5z" />
<glyph unicode="&#xe0;" horiz-adv-x="1298" d="M535 1495h294l45 -266l-227 -33zM23 416q0 133 48 258.5t127.5 217.5t187.5 148t222 56q103 0 178 -53.5t103 -143.5l37 170h329l-151 -700q-4 -36 -4 -43q0 -25 12 -37t39 -13l-57 -276q-81 -16 -140 -16q-174 0 -174 137q0 19 6 57q-73 -97 -174.5 -147.5t-208.5 -50.5 q-175 0 -277.5 122t-102.5 314zM786 406l48 225q-10 81 -61 133.5t-118 52.5q-112 0 -199 -107t-87 -241q0 -94 48.5 -153.5t133.5 -59.5q61 0 124.5 40.5t110.5 109.5z" />
<glyph unicode="&#xe1;" horiz-adv-x="1298" d="M897 1206l-217 29l156 266h297zM23 416q0 133 48 258.5t127.5 217.5t187.5 148t222 56q103 0 178 -53.5t103 -143.5l37 170h329l-151 -700q-4 -36 -4 -43q0 -25 12 -37t39 -13l-57 -276q-81 -16 -140 -16q-174 0 -174 137q0 19 6 57q-73 -97 -174.5 -147.5t-208.5 -50.5 q-175 0 -277.5 122t-102.5 314zM786 406l48 225q-10 81 -61 133.5t-118 52.5q-112 0 -199 -107t-87 -241q0 -94 48.5 -153.5t133.5 -59.5q61 0 124.5 40.5t110.5 109.5z" />
<glyph unicode="&#xe2;" horiz-adv-x="1298" d="M475 1274l262 221h236l168 -221l-185 -74l-137 129l-192 -129zM23 416q0 133 48 258.5t127.5 217.5t187.5 148t222 56q103 0 178 -53.5t103 -143.5l37 170h329l-151 -700q-4 -36 -4 -43q0 -25 12 -37t39 -13l-57 -276q-81 -16 -140 -16q-174 0 -174 137q0 19 6 57 q-73 -97 -174.5 -147.5t-208.5 -50.5q-175 0 -277.5 122t-102.5 314zM786 406l48 225q-10 81 -61 133.5t-118 52.5q-112 0 -199 -107t-87 -241q0 -94 48.5 -153.5t133.5 -59.5q61 0 124.5 40.5t110.5 109.5z" />
<glyph unicode="&#xe3;" horiz-adv-x="1298" d="M684 1298q-25 0 -45.5 -9.5t-32 -23t-19.5 -28.5t-11 -24.5t-3 -12.5h-178q4 20 19 53.5t44 75t64.5 77.5t85.5 60.5t103 24.5q42 0 77.5 -15.5t55.5 -33.5t48 -33.5t58 -15.5q25 0 46.5 10.5t34.5 23.5t23.5 30t13.5 24.5t5 13.5h174q-3 -15 -18 -46.5t-44 -74 t-65.5 -80.5t-89 -64t-106.5 -26q-40 0 -75.5 14.5t-57 32.5t-50.5 32.5t-57 14.5zM23 416q0 133 48 258.5t127.5 217.5t187.5 148t222 56q103 0 178 -53.5t103 -143.5l37 170h329l-151 -700q-4 -36 -4 -43q0 -25 12 -37t39 -13l-57 -276q-81 -16 -140 -16q-174 0 -174 137 q0 19 6 57q-73 -97 -174.5 -147.5t-208.5 -50.5q-175 0 -277.5 122t-102.5 314zM786 406l48 225q-10 81 -61 133.5t-118 52.5q-112 0 -199 -107t-87 -241q0 -94 48.5 -153.5t133.5 -59.5q61 0 124.5 40.5t110.5 109.5z" />
<glyph unicode="&#xe4;" horiz-adv-x="1298" d="M449 1214l57 265h268l-55 -265h-270zM868 1214l58 265h266l-53 -265h-271zM23 416q0 133 48 258.5t127.5 217.5t187.5 148t222 56q103 0 178 -53.5t103 -143.5l37 170h329l-151 -700q-4 -36 -4 -43q0 -25 12 -37t39 -13l-57 -276q-81 -16 -140 -16q-174 0 -174 137 q0 19 6 57q-73 -97 -174.5 -147.5t-208.5 -50.5q-175 0 -277.5 122t-102.5 314zM786 406l48 225q-10 81 -61 133.5t-118 52.5q-112 0 -199 -107t-87 -241q0 -94 48.5 -153.5t133.5 -59.5q61 0 124.5 40.5t110.5 109.5z" />
<glyph unicode="&#xe5;" horiz-adv-x="1298" d="M854 1495q86 0 133 -35t47 -100q0 -94 -69 -146.5t-183 -52.5q-86 0 -134 34.5t-48 98.5q0 95 70.5 148t183.5 53zM739 1317q0 -27 17.5 -43.5t46.5 -16.5q37 0 66.5 24.5t29.5 59.5q0 25 -18 41.5t-47 16.5q-39 0 -67 -23.5t-28 -58.5zM23 416q0 133 48 258.5 t127.5 217.5t187.5 148t222 56q103 0 178 -53.5t103 -143.5l37 170h329l-151 -700q-4 -36 -4 -43q0 -25 12 -37t39 -13l-57 -276q-81 -16 -140 -16q-174 0 -174 137q0 19 6 57q-73 -97 -174.5 -147.5t-208.5 -50.5q-175 0 -277.5 122t-102.5 314zM786 406l48 225 q-10 81 -61 133.5t-118 52.5q-112 0 -199 -107t-87 -241q0 -94 48.5 -153.5t133.5 -59.5q61 0 124.5 40.5t110.5 109.5z" />
<glyph unicode="&#xe6;" horiz-adv-x="1839" d="M-25 262q0 117 70 213t190.5 150.5t264.5 54.5q123 0 207 -41q3 13 9 35.5t9.5 40t3.5 33.5q0 122 -164 122q-153 0 -342 -118l-53 204q234 140 475 140q229 0 332 -131q167 131 377 131q143 0 246 -62t151.5 -162t48.5 -225q0 -48 -9.5 -95t-15.5 -63t-20 -53h-747 q-4 -32 -4 -47q0 -82 49.5 -128t126.5 -46q66 0 133 36t98 93l262 -78q-89 -130 -235 -208t-320 -78q-148 0 -250 57.5t-151 157.5q-91 -107 -216 -161t-233 -54q-132 0 -212.5 79t-80.5 203zM1458 635q2 14 2 43q0 83 -43.5 132.5t-120.5 49.5q-86 0 -155.5 -61.5 t-98.5 -163.5h416zM664 324q-5 30 -5 43q0 32 11 100q-78 31 -156 31q-89 0 -154 -50t-65 -122q0 -48 32.5 -79.5t90.5 -31.5q62 0 135.5 33t110.5 76z" />
<glyph unicode="&#xe7;" horiz-adv-x="1122" d="M526 256q54 0 106.5 29.5t84.5 76.5l299 -98q-74 -107 -185 -179t-245 -95q47 -78 47 -158q0 -107 -73 -184.5t-198 -77.5q-109 0 -204 65l114 170q35 -41 82 -41q42 0 71.5 29t29.5 78q0 50 -35 111q-192 17 -294.5 142.5t-102.5 307.5q0 126 50 245.5t137.5 212.5 t217.5 149.5t279 56.5q174 0 281 -76.5t142 -208.5l-337 -96q-39 102 -146 102q-112 0 -198.5 -100.5t-86.5 -247.5q0 -95 45.5 -154t118.5 -59z" />
<glyph unicode="&#xe8;" horiz-adv-x="1142" d="M815 1223l-227 -33l-113 299h295zM475 432q-71 0 -110 2v-14q0 -205 170 -205q73 0 136 34.5t101 96.5l258 -82q-86 -127 -239 -205.5t-316 -78.5q-207 0 -328.5 125.5t-121.5 328.5q0 134 54 256t145.5 211t220.5 142t272 53q184 0 290.5 -81.5t106.5 -226.5 q0 -175 -161 -265.5t-478 -90.5zM664 860q-87 0 -155.5 -61.5t-105.5 -161.5q23 -2 72 -2q176 0 250 30t74 95q0 47 -37 73.5t-98 26.5z" />
<glyph unicode="&#xe9;" horiz-adv-x="1142" d="M1073 1495l-235 -295l-217 29l155 266h297zM475 432q-71 0 -110 2v-14q0 -205 170 -205q73 0 136 34.5t101 96.5l258 -82q-86 -127 -239 -205.5t-316 -78.5q-207 0 -328.5 125.5t-121.5 328.5q0 134 54 256t145.5 211t220.5 142t272 53q184 0 290.5 -81.5t106.5 -226.5 q0 -175 -161 -265.5t-478 -90.5zM664 860q-87 0 -155.5 -61.5t-105.5 -161.5q23 -2 72 -2q176 0 250 30t74 95q0 47 -37 73.5t-98 26.5z" />
<glyph unicode="&#xea;" horiz-adv-x="1142" d="M760 1323l-193 -129l-151 74l262 221h235l168 -221l-184 -74zM475 432q-71 0 -110 2v-14q0 -205 170 -205q73 0 136 34.5t101 96.5l258 -82q-86 -127 -239 -205.5t-316 -78.5q-207 0 -328.5 125.5t-121.5 328.5q0 134 54 256t145.5 211t220.5 142t272 53 q184 0 290.5 -81.5t106.5 -226.5q0 -175 -161 -265.5t-478 -90.5zM664 860q-87 0 -155.5 -61.5t-105.5 -161.5q23 -2 72 -2q176 0 250 30t74 95q0 47 -37 73.5t-98 26.5z" />
<glyph unicode="&#xeb;" horiz-adv-x="1142" d="M715 1473l-56 -265h-270l57 265h269zM1133 1473l-54 -265h-270l57 265h267zM717 1096q184 0 290.5 -81.5t106.5 -226.5q0 -175 -161 -265.5t-478 -90.5q-71 0 -110 2v-14q0 -205 170 -205q73 0 136 34.5t101 96.5l258 -82q-86 -127 -239 -205.5t-316 -78.5 q-207 0 -328.5 125.5t-121.5 328.5q0 134 54 256t145.5 211t220.5 142t272 53zM475 635q176 0 250 30t74 95q0 47 -37 73.5t-98 26.5q-87 0 -155.5 -61.5t-105.5 -161.5q23 -2 72 -2z" />
<glyph unicode="&#xec;" horiz-adv-x="548" d="M203 1487h295l45 -266l-228 -33zM209 1075h328l-230 -1075h-327z" />
<glyph unicode="&#xed;" horiz-adv-x="548" d="M504 1206l-217 29l155 266h297zM209 1075h328l-230 -1075h-327z" />
<glyph unicode="&#xee;" horiz-adv-x="548" d="M82 1274l262 221h236l168 -221l-185 -74l-137 129l-193 -129zM209 1075h328l-230 -1075h-327z" />
<glyph unicode="&#xef;" horiz-adv-x="548" d="M55 1214l58 265h268l-55 -265h-271zM475 1214l57 265h267l-54 -265h-270zM209 1075h328l-230 -1075h-327z" />
<glyph unicode="&#xf0;" horiz-adv-x="1222" d="M1214 1333l-157 -78q119 -215 119 -483q0 -176 -53.5 -325t-147.5 -251t-224.5 -159t-281.5 -57q-205 0 -329 114.5t-124 296.5q0 113 49 220t129.5 184.5t187 124.5t216.5 47q85 0 156.5 -35t113.5 -96q-3 77 -14 131q-17 88 -63 178l-175 -88l-65 125l160 80 q-105 127 -279 233h404q72 -42 143 -123l170 86zM530 256q110 0 189.5 80t79.5 192q0 79 -46 128t-126 49q-111 0 -190 -79t-79 -192q0 -79 46.5 -128.5t125.5 -49.5z" />
<glyph unicode="&#xf1;" d="M674 1292q-25 0 -45.5 -9.5t-32 -23t-19.5 -28.5t-11 -24.5t-3 -12.5h-178q4 21 19 54t43.5 74.5t64 77.5t85.5 60.5t103 24.5q42 0 77.5 -15.5t56 -34t48.5 -34t58 -15.5q25 0 46.5 10.5t34.5 23.5t23.5 30.5t13.5 25t5 13.5h174q-3 -15 -18 -46.5t-44.5 -74t-66 -80.5 t-89 -64t-106.5 -26q-40 0 -75.5 14.5t-56.5 32.5t-50 32.5t-57 14.5zM209 1075h295l-39 -180q75 96 189 148.5t247 52.5q242 0 242 -248q0 -63 -19 -160l-145 -688h-328l129 604q8 41 8 82q0 61 -26 91t-72 30q-60 0 -134.5 -55t-117.5 -136l-131 -616h-327z" />
<glyph unicode="&#xf2;" d="M473 1489h295l45 -266l-227 -33zM23 436q0 131 48.5 251t134 210.5t212 144.5t272.5 54q119 0 209.5 -35.5t145 -99t81.5 -144.5t27 -178q0 -130 -48.5 -249.5t-134.5 -210.5t-212.5 -145t-272.5 -54q-119 0 -209.5 35.5t-144.5 98.5t-81 144t-27 178zM811 600 q0 101 -43.5 159t-124.5 58q-111 0 -194.5 -100t-83.5 -246q0 -100 43.5 -157.5t123.5 -57.5q111 0 195 99.5t84 244.5z" />
<glyph unicode="&#xf3;" d="M836 1200l-218 29l156 266h297zM23 436q0 131 48.5 251t134 210.5t212 144.5t272.5 54q119 0 209.5 -35.5t145 -99t81.5 -144.5t27 -178q0 -130 -48.5 -249.5t-134.5 -210.5t-212.5 -145t-272.5 -54q-119 0 -209.5 35.5t-144.5 98.5t-81 144t-27 178zM811 600 q0 101 -43.5 159t-124.5 58q-111 0 -194.5 -100t-83.5 -246q0 -100 43.5 -157.5t123.5 -57.5q111 0 195 99.5t84 244.5z" />
<glyph unicode="&#xf4;" d="M414 1268l262 221h235l168 -221l-184 -74l-137 129l-193 -129zM23 436q0 131 48.5 251t134 210.5t212 144.5t272.5 54q119 0 209.5 -35.5t145 -99t81.5 -144.5t27 -178q0 -130 -48.5 -249.5t-134.5 -210.5t-212.5 -145t-272.5 -54q-119 0 -209.5 35.5t-144.5 98.5 t-81 144t-27 178zM811 600q0 101 -43.5 159t-124.5 58q-111 0 -194.5 -100t-83.5 -246q0 -100 43.5 -157.5t123.5 -57.5q111 0 195 99.5t84 244.5z" />
<glyph unicode="&#xf5;" d="M623 1292q-25 0 -45.5 -9.5t-32 -23t-19.5 -28.5t-11 -24.5t-3 -12.5h-178q4 21 19 54t43.5 74.5t64 77.5t85.5 60.5t103 24.5q42 0 77.5 -15.5t56 -34t48.5 -34t58 -15.5q25 0 46.5 10.5t34.5 23.5t23.5 30.5t13.5 25t5 13.5h174q-3 -15 -18 -46.5t-44.5 -74t-66 -80.5 t-89 -64t-106.5 -26q-40 0 -75.5 14.5t-56.5 32.5t-50 32.5t-57 14.5zM23 436q0 131 48.5 251t134 210.5t212 144.5t272.5 54q119 0 209.5 -35.5t145 -99t81.5 -144.5t27 -178q0 -130 -48.5 -249.5t-134.5 -210.5t-212.5 -145t-272.5 -54q-119 0 -209.5 35.5t-144.5 98.5 t-81 144t-27 178zM811 600q0 101 -43.5 159t-124.5 58q-111 0 -194.5 -100t-83.5 -246q0 -100 43.5 -157.5t123.5 -57.5q111 0 195 99.5t84 244.5z" />
<glyph unicode="&#xf6;" d="M387 1208l57 265h269l-56 -265h-270zM807 1208l57 265h266l-53 -265h-270zM23 436q0 131 48.5 251t134 210.5t212 144.5t272.5 54q119 0 209.5 -35.5t145 -99t81.5 -144.5t27 -178q0 -130 -48.5 -249.5t-134.5 -210.5t-212.5 -145t-272.5 -54q-119 0 -209.5 35.5 t-144.5 98.5t-81 144t-27 178zM811 600q0 101 -43.5 159t-124.5 58q-111 0 -194.5 -100t-83.5 -246q0 -100 43.5 -157.5t123.5 -57.5q111 0 195 99.5t84 244.5z" />
<glyph unicode="&#xf7;" horiz-adv-x="1050" d="M389 872v293h277v-293h-277zM113 492v260h827v-260h-827zM389 78v293h277v-293h-277z" />
<glyph unicode="&#xf8;" d="M1231 1085l-164 -153q86 -118 86 -285q0 -126 -50 -246t-137.5 -213.5t-217.5 -150.5t-279 -57q-171 0 -281 83l-79 -73h-177l172 160q-81 115 -81 278q0 127 50.5 247t138 213.5t217.5 150.5t278 57q159 0 274 -78l72 67h178zM647 817q-112 0 -197 -102.5t-85 -247.5 q0 -35 6 -70l377 385q-41 35 -101 35zM528 256q113 0 199 102.5t86 247.5q0 40 -10 78l-379 -387q41 -41 104 -41z" />
<glyph unicode="&#xf9;" horiz-adv-x="1241" d="M506 1495h295l45 -266l-228 -33zM33 238q0 66 18 149l148 688h325l-131 -616q-10 -52 -10 -80q0 -123 102 -123q128 0 244 156l141 663h328l-149 -706q-7 -31 -7 -43q0 -47 54 -50l-60 -276q-79 -16 -139 -16q-82 0 -129 32.5t-47 98.5q0 9 10 71q-180 -206 -446 -206 q-124 0 -188 66t-64 192z" />
<glyph unicode="&#xfa;" horiz-adv-x="1241" d="M868 1206l-217 29l156 266h297zM33 238q0 66 18 149l148 688h325l-131 -616q-10 -52 -10 -80q0 -123 102 -123q128 0 244 156l141 663h328l-149 -706q-7 -31 -7 -43q0 -47 54 -50l-60 -276q-79 -16 -139 -16q-82 0 -129 32.5t-47 98.5q0 9 10 71q-180 -206 -446 -206 q-124 0 -188 66t-64 192z" />
<glyph unicode="&#xfb;" horiz-adv-x="1241" d="M446 1274l263 221h235l168 -221l-184 -74l-137 129l-193 -129zM33 238q0 66 18 149l148 688h325l-131 -616q-10 -52 -10 -80q0 -123 102 -123q128 0 244 156l141 663h328l-149 -706q-7 -31 -7 -43q0 -47 54 -50l-60 -276q-79 -16 -139 -16q-82 0 -129 32.5t-47 98.5 q0 9 10 71q-180 -206 -446 -206q-124 0 -188 66t-64 192z" />
<glyph unicode="&#xfc;" horiz-adv-x="1241" d="M420 1214l57 265h268l-55 -265h-270zM840 1214l57 265h266l-53 -265h-270zM33 238q0 66 18 149l148 688h325l-131 -616q-10 -52 -10 -80q0 -123 102 -123q128 0 244 156l141 663h328l-149 -706q-7 -31 -7 -43q0 -47 54 -50l-60 -276q-79 -16 -139 -16q-82 0 -129 32.5 t-47 98.5q0 9 10 71q-180 -206 -446 -206q-124 0 -188 66t-64 192z" />
<glyph unicode="&#xfd;" horiz-adv-x="1087" d="M745 1200l-217 29l156 266h297zM-102 -227q123 6 180.5 31t114.5 98l59 75l-160 1098h334l59 -794l70 114q194 316 272 680h316q-56 -200 -139 -370t-283 -494l-164 -264q-143 -231 -283 -324.5t-337 -95.5z" />
<glyph unicode="&#xfe;" horiz-adv-x="1253" d="M-115 -436l402 1890h338l-107 -489q134 131 318 131q170 0 271 -124.5t101 -314.5q0 -176 -80 -333t-213 -250.5t-282 -93.5q-113 0 -187.5 51t-101.5 143l-131 -610h-328zM580 256q110 0 198 108t88 240q0 94 -49.5 153.5t-134.5 59.5q-60 0 -123 -39.5t-110 -107.5 l-48 -221q14 -83 63.5 -138t115.5 -55z" />
<glyph unicode="&#xff;" horiz-adv-x="1087" d="M297 1208l57 265h269l-56 -265h-270zM717 1208l57 265h266l-53 -265h-270zM-102 -227q123 6 180.5 31t114.5 98l59 75l-160 1098h334l59 -794l70 114q194 316 272 680h316q-56 -200 -139 -370t-283 -494l-164 -264q-143 -231 -283 -324.5t-337 -95.5z" />
<glyph unicode="&#x100;" horiz-adv-x="1312" d="M590 1649l41 198h596l-41 -198h-596zM690 1454h305l189 -1454h-344l-31 326h-414l-166 -326h-346zM803 557l-41 514l-266 -514h307z" />
<glyph unicode="&#x101;" horiz-adv-x="1298" d="M508 1270l41 198h596l-41 -198h-596zM23 416q0 133 48 258.5t127.5 217.5t187.5 148t222 56q103 0 178 -53.5t103 -143.5l37 170h329l-151 -700q-4 -36 -4 -43q0 -25 12 -37t39 -13l-57 -276q-81 -16 -140 -16q-174 0 -174 137q0 19 6 57q-73 -97 -174.5 -147.5 t-208.5 -50.5q-175 0 -277.5 122t-102.5 314zM786 406l48 225q-10 81 -61 133.5t-118 52.5q-112 0 -199 -107t-87 -241q0 -94 48.5 -153.5t133.5 -59.5q61 0 124.5 40.5t110.5 109.5z" />
<glyph unicode="&#x102;" horiz-adv-x="1312" d="M1049 1874h172q-28 -132 -126.5 -216.5t-224.5 -84.5q-109 0 -172 61.5t-63 163.5q0 22 8 76h172q-4 -28 -4 -43q0 -50 24.5 -82.5t63.5 -32.5q44 0 87 44.5t63 113.5zM690 1454h305l189 -1454h-344l-31 326h-414l-166 -326h-346zM803 557l-41 514l-266 -514h307z" />
<glyph unicode="&#x103;" horiz-adv-x="1298" d="M967 1495h172q-28 -132 -126.5 -216.5t-224.5 -84.5q-109 0 -172 61.5t-63 163.5q0 22 8 76h172q-4 -28 -4 -43q0 -50 24.5 -82.5t63.5 -32.5q44 0 87 44.5t63 113.5zM23 416q0 133 48 258.5t127.5 217.5t187.5 148t222 56q103 0 178 -53.5t103 -143.5l37 170h329 l-151 -700q-4 -36 -4 -43q0 -25 12 -37t39 -13l-57 -276q-81 -16 -140 -16q-174 0 -174 137q0 19 6 57q-73 -97 -174.5 -147.5t-208.5 -50.5q-175 0 -277.5 122t-102.5 314zM786 406l48 225q-10 81 -61 133.5t-118 52.5q-112 0 -199 -107t-87 -241q0 -94 48.5 -153.5 t133.5 -59.5q61 0 124.5 40.5t110.5 109.5z" />
<glyph unicode="&#x104;" horiz-adv-x="1312" d="M1026 -182q0 -63 92 -66l-100 -178q-97 15 -150 61.5t-53 108.5t45.5 128.5t132.5 127.5h-153l-31 326h-414l-166 -326h-346l807 1454h305l189 -1454q-158 -116 -158 -182zM496 557h307l-41 514z" />
<glyph unicode="&#x105;" horiz-adv-x="1298" d="M1100 326q0 -25 12 -37t39 -13l-57 -276q-158 -116 -158 -182q0 -63 92 -66l-100 -178q-97 15 -150 61.5t-53 108.5q0 126 164 246q-109 22 -109 131q0 19 6 57q-73 -97 -174.5 -147.5t-208.5 -50.5q-175 0 -277.5 122t-102.5 314q0 133 48 258.5t127.5 217.5t187.5 148 t222 56q103 0 178 -53.5t103 -143.5l37 170h329l-151 -700q-4 -36 -4 -43zM786 406l48 225q-10 81 -61 133.5t-118 52.5q-112 0 -199 -107t-87 -241q0 -94 48.5 -153.5t133.5 -59.5q61 0 124.5 40.5t110.5 109.5z" />
<glyph unicode="&#x106;" horiz-adv-x="1353" d="M1006 1585l-218 29l156 266h297zM68 604q0 121 40.5 244.5t118 233t181 195t239 135.5t281.5 50q196 0 324 -86t169 -231l-293 -178q-39 196 -266 196q-86 0 -161 -33t-127.5 -87t-90 -124t-55.5 -143.5t-18 -144.5q0 -147 71.5 -245.5t202.5 -98.5q94 0 187.5 50 t150.5 150l242 -161q-64 -105 -176 -183.5t-234.5 -116.5t-239.5 -38q-103 0 -191.5 34t-153 93t-110.5 137t-68.5 167.5t-22.5 184.5z" />
<glyph unicode="&#x107;" horiz-adv-x="1122" d="M840 1200l-217 29l155 266h297zM23 432q0 126 50 245.5t137.5 212.5t217.5 149.5t279 56.5q174 0 281 -76.5t142 -208.5l-337 -96q-39 102 -146 102q-112 0 -198.5 -100.5t-86.5 -247.5q0 -95 45.5 -154t118.5 -59q54 0 106.5 29.5t84.5 76.5l299 -98 q-90 -129 -232 -206.5t-311 -77.5q-145 0 -249 62.5t-152.5 163t-48.5 226.5z" />
<glyph unicode="&#x108;" horiz-adv-x="1353" d="M584 1653l262 221h235l168 -221l-184 -74l-137 129l-193 -129zM68 604q0 121 40.5 244.5t118 233t181 195t239 135.5t281.5 50q196 0 324 -86t169 -231l-293 -178q-39 196 -266 196q-86 0 -161 -33t-127.5 -87t-90 -124t-55.5 -143.5t-18 -144.5q0 -147 71.5 -245.5 t202.5 -98.5q94 0 187.5 50t150.5 150l242 -161q-64 -105 -176 -183.5t-234.5 -116.5t-239.5 -38q-103 0 -191.5 34t-153 93t-110.5 137t-68.5 167.5t-22.5 184.5z" />
<glyph unicode="&#x109;" horiz-adv-x="1122" d="M418 1268l262 221h235l168 -221l-184 -74l-137 129l-193 -129zM23 432q0 126 50 245.5t137.5 212.5t217.5 149.5t279 56.5q174 0 281 -76.5t142 -208.5l-337 -96q-39 102 -146 102q-112 0 -198.5 -100.5t-86.5 -247.5q0 -95 45.5 -154t118.5 -59q54 0 106.5 29.5 t84.5 76.5l299 -98q-90 -129 -232 -206.5t-311 -77.5q-145 0 -249 62.5t-152.5 163t-48.5 226.5z" />
<glyph unicode="&#x10a;" horiz-adv-x="1353" d="M756 1593l59 281h295l-61 -281h-293zM68 604q0 121 40.5 244.5t118 233t181 195t239 135.5t281.5 50q196 0 324 -86t169 -231l-293 -178q-39 196 -266 196q-86 0 -161 -33t-127.5 -87t-90 -124t-55.5 -143.5t-18 -144.5q0 -147 71.5 -245.5t202.5 -98.5q94 0 187.5 50 t150.5 150l242 -161q-64 -105 -176 -183.5t-234.5 -116.5t-239.5 -38q-103 0 -191.5 34t-153 93t-110.5 137t-68.5 167.5t-22.5 184.5z" />
<glyph unicode="&#x10b;" horiz-adv-x="1122" d="M590 1208l59 281h295l-61 -281h-293zM23 432q0 126 50 245.5t137.5 212.5t217.5 149.5t279 56.5q174 0 281 -76.5t142 -208.5l-337 -96q-39 102 -146 102q-112 0 -198.5 -100.5t-86.5 -247.5q0 -95 45.5 -154t118.5 -59q54 0 106.5 29.5t84.5 76.5l299 -98 q-90 -129 -232 -206.5t-311 -77.5q-145 0 -249 62.5t-152.5 163t-48.5 226.5z" />
<glyph unicode="&#x10c;" horiz-adv-x="1353" d="M604 1798l184 76l138 -129l192 129l152 -76l-262 -219h-236zM68 604q0 121 40.5 244.5t118 233t181 195t239 135.5t281.5 50q196 0 324 -86t169 -231l-293 -178q-39 196 -266 196q-86 0 -161 -33t-127.5 -87t-90 -124t-55.5 -143.5t-18 -144.5q0 -147 71.5 -245.5 t202.5 -98.5q94 0 187.5 50t150.5 150l242 -161q-64 -105 -176 -183.5t-234.5 -116.5t-239.5 -38q-103 0 -191.5 34t-153 93t-110.5 137t-68.5 167.5t-22.5 184.5z" />
<glyph unicode="&#x10d;" horiz-adv-x="1122" d="M438 1413l185 76l137 -129l192 129l152 -76l-262 -219h-236zM23 432q0 126 50 245.5t137.5 212.5t217.5 149.5t279 56.5q174 0 281 -76.5t142 -208.5l-337 -96q-39 102 -146 102q-112 0 -198.5 -100.5t-86.5 -247.5q0 -95 45.5 -154t118.5 -59q54 0 106.5 29.5t84.5 76.5 l299 -98q-90 -129 -232 -206.5t-311 -77.5q-145 0 -249 62.5t-152.5 163t-48.5 226.5z" />
<glyph unicode="&#x10e;" horiz-adv-x="1419" d="M563 1796l185 76l137 -129l192 129l152 -76l-262 -219h-236zM317 1454h521q138 0 246 -43.5t175 -120.5t101.5 -178.5t34.5 -222.5q0 -189 -66.5 -354.5t-181.5 -282.5t-275.5 -184.5t-343.5 -67.5h-520zM590 295q100 0 186.5 44.5t145 119.5t92 174t33.5 207 q0 146 -71 232.5t-202 86.5h-184l-184 -864h184z" />
<glyph unicode="&#x10f;" horiz-adv-x="1298" d="M23 416q0 133 48 258.5t127.5 217.5t187.5 148t222 56q103 0 178 -53.5t103 -143.5l127 596h330l-242 -1126q-4 -36 -4 -43q0 -25 12 -37t39 -13l-57 -276q-81 -16 -140 -16q-82 0 -129 32.5t-47 98.5q0 24 8 63q-73 -97 -174.5 -147.5t-208.5 -50.5q-175 0 -277.5 122 t-102.5 314zM1325 1229l156 266h295l-256 -324zM786 406l48 225q-10 81 -61 133.5t-118 52.5q-112 0 -199 -107t-87 -241q0 -94 48.5 -153.5t133.5 -59.5q61 0 124.5 40.5t110.5 109.5z" />
<glyph unicode="&#x110;" horiz-adv-x="1427" d="M846 1454q138 0 246 -43.5t175 -120.5t101.5 -178.5t34.5 -222.5q0 -189 -66.5 -354.5t-181 -282.5t-275 -184.5t-343.5 -67.5h-521l129 610h-79l51 242h80l129 602h520zM598 295q100 0 187 44.5t146 119.5t92.5 174t33.5 207q0 146 -71 232.5t-202 86.5h-184l-65 -307 h241l-53 -242h-242l-67 -315h184z" />
<glyph unicode="&#x111;" horiz-adv-x="1298" d="M1282 1198l-178 -829q-4 -36 -4 -43q0 -25 12 -37t39 -13l-57 -276q-81 -16 -140 -16q-82 0 -129 32.5t-47 98.5q0 24 8 63q-73 -97 -174.5 -147.5t-208.5 -50.5q-175 0 -277.5 122t-102.5 314q0 133 48 258.5t127.5 217.5t187.5 148t222 56q103 0 178 -53.5t103 -143.5 l63 299h-155l41 193h155l23 104h330l-23 -104h137l-41 -193h-137zM786 406l48 225q-10 81 -61 133.5t-118 52.5q-112 0 -199 -107t-87 -241q0 -94 48.5 -153.5t133.5 -59.5q61 0 124.5 40.5t110.5 109.5z" />
<glyph unicode="&#x112;" horiz-adv-x="1179" d="M530 1649l41 198h596l-41 -198h-596zM317 1454h957l-64 -295h-620l-60 -282h533l-57 -273h-533l-67 -309h638l-61 -295h-975z" />
<glyph unicode="&#x113;" horiz-adv-x="1142" d="M1085 1462l-41 -198h-595l40 198h596zM475 432q-71 0 -110 2v-14q0 -205 170 -205q73 0 136 34.5t101 96.5l258 -82q-86 -127 -239 -205.5t-316 -78.5q-207 0 -328.5 125.5t-121.5 328.5q0 134 54 256t145.5 211t220.5 142t272 53q184 0 290.5 -81.5t106.5 -226.5 q0 -175 -161 -265.5t-478 -90.5zM664 860q-87 0 -155.5 -61.5t-105.5 -161.5q23 -2 72 -2q176 0 250 30t74 95q0 47 -37 73.5t-98 26.5z" />
<glyph unicode="&#x114;" horiz-adv-x="1179" d="M989 1874h172q-28 -132 -126 -216.5t-224 -84.5q-109 0 -172.5 61.5t-63.5 163.5q0 15 9 76h172q-4 -28 -4 -43q0 -50 24.5 -82.5t63.5 -32.5q44 0 86.5 44.5t62.5 113.5zM317 1454h957l-64 -295h-620l-60 -282h533l-57 -273h-533l-67 -309h638l-61 -295h-975z" />
<glyph unicode="&#x115;" horiz-adv-x="1142" d="M729 1188q-109 0 -172 61.5t-63 163.5q0 22 8 76h172q-4 -28 -4 -43q0 -50 24.5 -82.5t63.5 -32.5q44 0 86.5 44.5t62.5 113.5h172q-28 -132 -126 -216.5t-224 -84.5zM475 432q-71 0 -110 2v-14q0 -205 170 -205q73 0 136 34.5t101 96.5l258 -82q-86 -127 -239 -205.5 t-316 -78.5q-207 0 -328.5 125.5t-121.5 328.5q0 134 54 256t145.5 211t220.5 142t272 53q184 0 290.5 -81.5t106.5 -226.5q0 -175 -161 -265.5t-478 -90.5zM664 860q-87 0 -155.5 -61.5t-105.5 -161.5q23 -2 72 -2q176 0 250 30t74 95q0 47 -37 73.5t-98 26.5z" />
<glyph unicode="&#x116;" horiz-adv-x="1179" d="M670 1593l59 281h295l-61 -281h-293zM317 1454h957l-64 -295h-620l-60 -282h533l-57 -273h-533l-67 -309h638l-61 -295h-975z" />
<glyph unicode="&#x117;" horiz-adv-x="1142" d="M942 1489l-61 -281h-293l59 281h295zM475 432q-71 0 -110 2v-14q0 -205 170 -205q73 0 136 34.5t101 96.5l258 -82q-86 -127 -239 -205.5t-316 -78.5q-207 0 -328.5 125.5t-121.5 328.5q0 134 54 256t145.5 211t220.5 142t272 53q184 0 290.5 -81.5t106.5 -226.5 q0 -175 -161 -265.5t-478 -90.5zM664 860q-87 0 -155.5 -61.5t-105.5 -161.5q23 -2 72 -2q176 0 250 30t74 95q0 47 -37 73.5t-98 26.5z" />
<glyph unicode="&#x118;" horiz-adv-x="1179" d="M1210 1159h-620l-60 -282h533l-57 -273h-533l-67 -309h638l-61 -295q-158 -116 -158 -182q0 -63 93 -66l-101 -178q-97 15 -150 61.5t-53 108.5t46 128.5t133 127.5h-785l309 1454h957z" />
<glyph unicode="&#x119;" horiz-adv-x="1142" d="M475 432q-71 0 -110 2v-14q0 -205 170 -205q73 0 136 34.5t101 96.5l258 -82q-64 -94 -168 -163.5t-225 -100.5q-158 -116 -158 -182q0 -63 92 -66l-100 -178q-97 15 -150 61.5t-53 108.5q0 57 40 119t114 119q-185 17 -291 139.5t-106 312.5q0 134 54 256t145.5 211 t220.5 142t272 53q184 0 290.5 -81.5t106.5 -226.5q0 -175 -161 -265.5t-478 -90.5zM664 860q-87 0 -155.5 -61.5t-105.5 -161.5q23 -2 72 -2q176 0 250 30t74 95q0 47 -37 73.5t-98 26.5z" />
<glyph unicode="&#x11a;" horiz-adv-x="1179" d="M518 1798l184 76l138 -129l192 129l152 -76l-262 -219h-236zM317 1454h957l-64 -295h-620l-60 -282h533l-57 -273h-533l-67 -309h638l-61 -295h-975z" />
<glyph unicode="&#x11b;" horiz-adv-x="1142" d="M840 1194h-236l-168 219l185 76l137 -129l192 129l152 -76zM475 432q-71 0 -110 2v-14q0 -205 170 -205q73 0 136 34.5t101 96.5l258 -82q-86 -127 -239 -205.5t-316 -78.5q-207 0 -328.5 125.5t-121.5 328.5q0 134 54 256t145.5 211t220.5 142t272 53q184 0 290.5 -81.5 t106.5 -226.5q0 -175 -161 -265.5t-478 -90.5zM664 860q-87 0 -155.5 -61.5t-105.5 -161.5q23 -2 72 -2q176 0 250 30t74 95q0 47 -37 73.5t-98 26.5z" />
<glyph unicode="&#x11c;" horiz-adv-x="1441" d="M987 1704l-192 -129l-152 74l262 221h236l168 -221l-185 -74zM801 516l51 244h543l-162 -760h-279l31 143q-190 -153 -389 -153q-233 0 -380.5 165t-147.5 429q0 176 73 339.5t193 281.5t279 188.5t325 70.5q188 0 316.5 -85t170.5 -232l-288 -189q-26 96 -101 151.5 t-174 55.5q-118 0 -221.5 -74.5t-165 -200t-61.5 -267.5q0 -148 73.5 -241t200.5 -93q188 0 367 182l10 45h-264z" />
<glyph unicode="&#x11d;" horiz-adv-x="1265" d="M434 1268l262 221h236l168 -221l-185 -74l-137 129l-192 -129zM-117 -242l213 179q42 -68 117 -108t166 -40q120 0 212.5 71t121.5 214l20 104q-61 -87 -158 -134.5t-200 -47.5q-161 0 -255.5 120t-94.5 304q0 134 49.5 259t132 216.5t195 146t233.5 54.5 q111 0 186.5 -51.5t108.5 -145.5l39 176h284l-213 -1001q-52 -244 -247.5 -387.5t-464.5 -143.5q-307 0 -445 215zM782 406l49 225q-12 84 -62.5 135t-117.5 51q-73 0 -139.5 -51t-105.5 -131.5t-39 -165.5q0 -93 49 -153t131 -60q64 0 126 41t109 109z" />
<glyph unicode="&#x11e;" horiz-adv-x="1441" d="M956 1569q-109 0 -172 61.5t-63 163.5q0 22 8 76h172q-4 -28 -4 -43q0 -50 24.5 -82.5t63.5 -32.5q44 0 87 44.5t63 113.5h172q-28 -132 -126.5 -216.5t-224.5 -84.5zM801 516l51 244h543l-162 -760h-279l31 143q-190 -153 -389 -153q-233 0 -380.5 165t-147.5 429 q0 176 73 339.5t193 281.5t279 188.5t325 70.5q188 0 316.5 -85t170.5 -232l-288 -189q-26 96 -101 151.5t-174 55.5q-118 0 -221.5 -74.5t-165 -200t-61.5 -267.5q0 -148 73.5 -241t200.5 -93q188 0 367 182l10 45h-264z" />
<glyph unicode="&#x11f;" horiz-adv-x="1265" d="M926 1489h172q-28 -132 -126 -216.5t-224 -84.5q-109 0 -172.5 61.5t-63.5 163.5q0 22 8 76h172q-4 -28 -4 -43q0 -50 24.5 -82.5t63.5 -32.5q44 0 87 44.5t63 113.5zM-117 -242l213 179q42 -68 117 -108t166 -40q120 0 212.5 71t121.5 214l20 104q-61 -87 -158 -134.5 t-200 -47.5q-161 0 -255.5 120t-94.5 304q0 134 49.5 259t132 216.5t195 146t233.5 54.5q111 0 186.5 -51.5t108.5 -145.5l39 176h284l-213 -1001q-52 -244 -247.5 -387.5t-464.5 -143.5q-307 0 -445 215zM782 406l49 225q-12 84 -62.5 135t-117.5 51q-73 0 -139.5 -51 t-105.5 -131.5t-39 -165.5q0 -93 49 -153t131 -60q64 0 126 41t109 109z" />
<glyph unicode="&#x120;" horiz-adv-x="1441" d="M1169 1870l-61 -281h-293l59 281h295zM801 516l51 244h543l-162 -760h-279l31 143q-190 -153 -389 -153q-233 0 -380.5 165t-147.5 429q0 176 73 339.5t193 281.5t279 188.5t325 70.5q188 0 316.5 -85t170.5 -232l-288 -189q-26 96 -101 151.5t-174 55.5 q-118 0 -221.5 -74.5t-165 -200t-61.5 -267.5q0 -148 73.5 -241t200.5 -93q188 0 367 182l10 45h-264z" />
<glyph unicode="&#x121;" horiz-adv-x="1265" d="M606 1208l60 281h295l-62 -281h-293zM-117 -242l213 179q42 -68 117 -108t166 -40q120 0 212.5 71t121.5 214l20 104q-61 -87 -158 -134.5t-200 -47.5q-161 0 -255.5 120t-94.5 304q0 134 49.5 259t132 216.5t195 146t233.5 54.5q111 0 186.5 -51.5t108.5 -145.5l39 176 h284l-213 -1001q-52 -244 -247.5 -387.5t-464.5 -143.5q-307 0 -445 215zM782 406l49 225q-12 84 -62.5 135t-117.5 51q-73 0 -139.5 -51t-105.5 -131.5t-39 -165.5q0 -93 49 -153t131 -60q64 0 126 41t109 109z" />
<glyph unicode="&#x122;" horiz-adv-x="1441" d="M801 516l51 244h543l-162 -760h-279l31 143q-190 -153 -389 -153q-233 0 -380.5 165t-147.5 429q0 176 73 339.5t193 281.5t279 188.5t325 70.5q188 0 316.5 -85t170.5 -232l-288 -189q-26 96 -101 151.5t-174 55.5q-118 0 -221.5 -74.5t-165 -200t-61.5 -267.5 q0 -148 73.5 -241t200.5 -93q188 0 367 182l10 45h-264zM414 -299l45 203h270l-41 -203l-125 -137h-145l94 137h-98z" />
<glyph unicode="&#x123;" horiz-adv-x="1265" d="M922 1489l-91 -125h95l-47 -184h-258l47 184l120 125h134zM-117 -242l213 179q42 -68 117 -108t166 -40q120 0 212.5 71t121.5 214l20 104q-61 -87 -158 -134.5t-200 -47.5q-161 0 -255.5 120t-94.5 304q0 134 49.5 259t132 216.5t195 146t233.5 54.5q111 0 186.5 -51.5 t108.5 -145.5l39 176h284l-213 -1001q-52 -244 -247.5 -387.5t-464.5 -143.5q-307 0 -445 215zM782 406l49 225q-12 84 -62.5 135t-117.5 51q-73 0 -139.5 -51t-105.5 -131.5t-39 -165.5q0 -93 49 -153t131 -60q64 0 126 41t109 109z" />
<glyph unicode="&#x124;" horiz-adv-x="1476" d="M645 1653l262 221h236l168 -221l-185 -74l-137 129l-192 -129zM317 1454h336l-121 -563h527l121 563h336l-310 -1454h-336l127 596h-526l-127 -596h-336z" />
<glyph unicode="&#x125;" d="M535 1651l241 219h219l156 -219l-170 -72l-129 127l-178 -127zM297 1495h328l-127 -600q75 96 178 148.5t215 52.5q252 0 252 -248q0 -59 -19 -160l-145 -688h-328l129 604q8 62 8 80q0 123 -106 123q-53 0 -127 -54.5t-117 -136.5l-131 -616h-327z" />
<glyph unicode="&#x126;" horiz-adv-x="1488" d="M1579 1264l-33 -156h-96l-236 -1108h-335l127 596h-527l-127 -596h-336l236 1108h-98l34 156h97l41 190h336l-41 -190h526l41 190h336l-41 -190h96zM1067 891l47 217h-526l-47 -217h526z" />
<glyph unicode="&#x127;" d="M891 1096q252 0 252 -248q0 -59 -19 -160l-145 -688h-328l129 604q8 62 8 80q0 123 -106 123q-53 0 -127 -54.5t-117 -136.5l-131 -616h-327l253 1198h-106l39 193h108l23 104h328l-23 -104h189l-41 -193h-189l-63 -303q75 96 178 148.5t215 52.5z" />
<glyph unicode="&#x128;" horiz-adv-x="614" d="M418 1677q-25 0 -45.5 -9.5t-32 -23t-19.5 -28.5t-11 -24.5t-3 -12.5h-178q4 21 19 54t43.5 74.5t64 77.5t85.5 60.5t103 24.5q42 0 77.5 -15.5t56 -33.5t48.5 -33.5t58 -15.5q25 0 46.5 10.5t34.5 23.5t23.5 30t13.5 24.5t5 13.5h174q-3 -15 -18 -46.5t-44.5 -74 t-66 -80.5t-89 -64t-106.5 -26q-40 0 -75.5 14.5t-56.5 32.5t-50 32.5t-57 14.5zM317 1454h336l-309 -1454h-336z" />
<glyph unicode="&#x129;" horiz-adv-x="548" d="M344 1290q-25 0 -45.5 -9.5t-32 -23t-19.5 -28.5t-11 -24.5t-3 -12.5h-178q4 20 19 53.5t44 75t64.5 77.5t85.5 60.5t103 24.5q42 0 77.5 -15.5t55.5 -34t48 -34t58 -15.5q25 0 46.5 10.5t34.5 23.5t23.5 30.5t13.5 25t5 13.5h174q-3 -15 -18 -46.5t-44 -74t-65.5 -80.5 t-89 -64t-106.5 -26q-40 0 -75.5 14.5t-57 32.5t-50.5 32.5t-57 14.5zM209 1075h328l-230 -1075h-327z" />
<glyph unicode="&#x12a;" horiz-adv-x="614" d="M242 1649l41 198h596l-41 -198h-596zM317 1454h336l-309 -1454h-336z" />
<glyph unicode="&#x12b;" horiz-adv-x="548" d="M115 1270l41 198h596l-41 -198h-596zM209 1075h328l-230 -1075h-327z" />
<glyph unicode="&#x12c;" horiz-adv-x="614" d="M700 1874h172q-28 -132 -126 -216.5t-224 -84.5q-109 0 -172 61.5t-63 163.5q0 22 8 76h172q-4 -28 -4 -43q0 -50 24.5 -82.5t63.5 -32.5q44 0 86.5 44.5t62.5 113.5zM317 1454h336l-309 -1454h-336z" />
<glyph unicode="&#x12d;" horiz-adv-x="548" d="M573 1495h172q-28 -132 -126 -216.5t-224 -84.5q-109 0 -172 61.5t-63 163.5q0 22 8 76h172q-4 -28 -4 -43q0 -50 24.5 -82.5t63.5 -32.5q44 0 86.5 44.5t62.5 113.5zM209 1075h328l-230 -1075h-327z" />
<glyph unicode="&#x12e;" horiz-adv-x="614" d="M344 0q-158 -116 -158 -182q0 -63 93 -66l-101 -178q-97 15 -150 61.5t-53 108.5t46 128.5t133 127.5h-146l309 1454h336z" />
<glyph unicode="&#x12f;" horiz-adv-x="548" d="M297 1495h328l-64 -297h-328zM-20 0l229 1075h328l-230 -1075q-157 -115 -157 -182q0 -63 92 -66l-101 -178q-97 15 -149.5 61.5t-52.5 108.5t45.5 128.5t132.5 127.5h-137z" />
<glyph unicode="&#x130;" horiz-adv-x="614" d="M381 1593l59 281h295l-61 -281h-293zM317 1454h336l-309 -1454h-336z" />
<glyph unicode="&#x131;" horiz-adv-x="548" d="M209 1075h328l-230 -1075h-327z" />
<glyph unicode="&#x134;" horiz-adv-x="989" d="M588 1649l262 221h235l168 -221l-184 -74l-137 129l-193 -129zM-92 68l129 274q18 -20 79.5 -43t135.5 -23q54 0 94.5 17.5t70 48t53.5 88.5t41.5 121t39.5 164l158 739h338l-158 -739q-22 -103 -43 -180.5t-52.5 -158.5t-68 -138t-88.5 -109t-115.5 -83.5t-147.5 -50 t-186 -18.5q-172 0 -280 91z" />
<glyph unicode="&#x135;" horiz-adv-x="548" d="M100 1274l262 221h236l168 -221l-184 -74l-138 129l-192 -129zM-420 -311l184 223q27 -43 91 -43q43 0 76.5 31t43.5 82l232 1093h330l-228 -1069q-40 -185 -173 -302.5t-300 -117.5q-164 0 -256 103z" />
<glyph unicode="&#x136;" horiz-adv-x="1337" d="M317 1454h336l-133 -627l615 627h378l-653 -649l377 -805h-385l-252 586l-166 -158l-90 -428h-336zM373 -436l94 137h-98l45 203h270l-41 -203l-125 -137h-145z" />
<glyph unicode="&#x137;" horiz-adv-x="1167" d="M1122 846q0 -135 -76 -250t-215 -190l183 -406h-348l-181 465q159 30 250.5 99t91.5 153q0 43 -24.5 67.5t-65.5 24.5q-87 0 -181.5 -93.5t-145.5 -228.5l-105 -487h-325l317 1495h326l-146 -688q84 134 190 207t226 73q111 0 170 -63t59 -178zM270 -299l45 203h271 l-41 -203l-125 -137h-146l95 137h-99z" />
<glyph unicode="&#x138;" horiz-adv-x="1126" d="M209 1075h328l-97 -446l422 446h344l-461 -463l267 -612h-348l-164 432l-125 -119l-68 -313h-327z" />
<glyph unicode="&#x139;" horiz-adv-x="1153" d="M600 1585l-217 29l156 266h297zM317 1454h336l-247 -1159h657l-62 -295h-993z" />
<glyph unicode="&#x13a;" horiz-adv-x="667" d="M578 1626l-218 29l156 266h297zM23 182q0 47 10 86l260 1227h328l-238 -1112q-4 -28 -4 -43q0 -80 78 -80q52 0 108 29l-10 -246q-66 -28 -147.5 -44.5t-149.5 -16.5q-115 0 -175 51.5t-60 148.5z" />
<glyph unicode="&#x13b;" horiz-adv-x="1153" d="M317 1454h336l-247 -1159h657l-62 -295h-993zM305 -436l94 137h-98l45 203h270l-41 -203l-124 -137h-146z" />
<glyph unicode="&#x13c;" horiz-adv-x="667" d="M23 182q0 47 10 86l260 1227h328l-238 -1112q-4 -28 -4 -43q0 -80 78 -80q52 0 108 29l-10 -246q-66 -28 -147.5 -44.5t-149.5 -16.5q-115 0 -175 51.5t-60 148.5zM70 -436l94 137h-98l45 203h270l-41 -203l-125 -137h-145z" />
<glyph unicode="&#x13d;" horiz-adv-x="1153" d="M834 1229l155 266h295l-256 -324zM317 1454h336l-247 -1159h657l-62 -295h-993z" />
<glyph unicode="&#x13e;" horiz-adv-x="667" d="M23 182q0 47 10 86l260 1227h328l-238 -1112q-4 -28 -4 -43q0 -80 78 -80q52 0 108 29l-10 -246q-66 -28 -147.5 -44.5t-149.5 -16.5q-115 0 -175 51.5t-60 148.5zM608 1229l156 266h295l-256 -324z" />
<glyph unicode="&#x13f;" horiz-adv-x="1153" d="M317 1454h336l-247 -1159h657l-62 -295h-993zM698 692l72 340h268l-71 -340h-269z" />
<glyph unicode="&#x140;" horiz-adv-x="882" d="M23 182q0 47 10 86l260 1227h328l-238 -1112q-4 -28 -4 -43q0 -80 78 -80q52 0 108 29l-10 -246q-66 -28 -147.5 -44.5t-149.5 -16.5q-115 0 -175 51.5t-60 148.5zM569 541l72 340h268l-71 -340h-269z" />
<glyph unicode="&#x141;" horiz-adv-x="1169" d="M406 295h657l-62 -295h-993l117 549l-86 -45l-39 176l172 90l145 684h336l-104 -487l211 110l39 -176l-297 -156z" />
<glyph unicode="&#x142;" horiz-adv-x="751" d="M459 340q0 -80 80 -80q52 0 108 29l-10 -246q-67 -28 -149 -44.5t-148 -16.5q-115 0 -176.5 51.5t-61.5 148.5q0 29 11 86l69 332l-129 -65l-39 176l215 108l144 676h327l-104 -494l149 76l41 -176l-237 -119l-82 -387q-8 -46 -8 -55z" />
<glyph unicode="&#x143;" horiz-adv-x="1492" d="M1053 1581l-217 29l155 266h297zM317 1454h263l436 -854l180 854h336l-309 -1454h-267l-436 831l-176 -831h-336z" />
<glyph unicode="&#x144;" d="M887 1200l-217 29l155 266h297zM209 1075h295l-39 -180q75 96 189 148.5t247 52.5q242 0 242 -248q0 -63 -19 -160l-145 -688h-328l129 604q8 41 8 82q0 61 -26 91t-72 30q-60 0 -134.5 -55t-117.5 -136l-131 -616h-327z" />
<glyph unicode="&#x145;" horiz-adv-x="1492" d="M317 1454h263l436 -854l180 854h336l-309 -1454h-267l-436 831l-176 -831h-336zM430 -436l94 137h-98l45 203h270l-41 -203l-125 -137h-145z" />
<glyph unicode="&#x146;" d="M209 1075h295l-39 -180q75 96 189 148.5t247 52.5q242 0 242 -248q0 -63 -19 -160l-145 -688h-328l129 604q8 41 8 82q0 61 -26 91t-72 30q-60 0 -134.5 -55t-117.5 -136l-131 -616h-327zM289 -436l94 137h-98l45 203h270l-41 -203l-125 -137h-145z" />
<glyph unicode="&#x147;" horiz-adv-x="1492" d="M651 1794l185 76l137 -129l192 129l152 -76l-262 -219h-236zM317 1454h263l436 -854l180 854h336l-309 -1454h-267l-436 831l-176 -831h-336z" />
<glyph unicode="&#x148;" d="M485 1413l185 76l137 -129l192 129l152 -76l-262 -219h-236zM209 1075h295l-39 -180q75 96 189 148.5t247 52.5q242 0 242 -248q0 -63 -19 -160l-145 -688h-328l129 604q8 41 8 82q0 61 -26 91t-72 30q-60 0 -134.5 -55t-117.5 -136l-131 -616h-327z" />
<glyph unicode="&#x14a;" horiz-adv-x="1460" d="M463 -311l184 223q27 -43 92 -43q42 0 75.5 31.5t43.5 81.5l21 90l-361 749l-174 -821h-336l309 1454h258l410 -838l178 836h336l-311 -1456q-39 -183 -172.5 -296.5t-296.5 -113.5q-161 0 -256 103z" />
<glyph unicode="&#x14b;" horiz-adv-x="1208" d="M250 -311l184 223q27 -43 90 -43q42 0 76.5 31.5t46.5 81.5l133 622q8 41 8 82q0 61 -26 91t-72 30q-60 0 -134.5 -55t-117.5 -136l-131 -616h-327l229 1075h295l-39 -180q75 96 189 148.5t247 52.5q242 0 242 -244q0 -71 -21 -164l-145 -682q-39 -184 -173 -302 t-298 -118t-256 103z" />
<glyph unicode="&#x14c;" horiz-adv-x="1501" d="M678 1645l41 198h596l-41 -198h-596zM68 596q0 162 72 320.5t189.5 278t278 193.5t328.5 74q128 0 233 -51t172 -136t103.5 -193.5t36.5 -227.5q0 -161 -71.5 -319t-189 -278t-277.5 -194.5t-327 -74.5q-103 0 -192.5 32.5t-154 90t-110.5 134.5t-68.5 166t-22.5 185z M1137 831q0 92 -28 165.5t-91 120t-152 46.5q-101 0 -188.5 -49.5t-144.5 -128.5t-89 -174t-32 -188q0 -144 69 -240t201 -96q82 0 155.5 33t127 88.5t93 125.5t59.5 146.5t20 150.5z" />
<glyph unicode="&#x14d;" d="M446 1264l41 198h596l-41 -198h-596zM23 436q0 131 48.5 251t134 210.5t212 144.5t272.5 54q119 0 209.5 -35.5t145 -99t81.5 -144.5t27 -178q0 -130 -48.5 -249.5t-134.5 -210.5t-212.5 -145t-272.5 -54q-119 0 -209.5 35.5t-144.5 98.5t-81 144t-27 178zM811 600 q0 101 -43.5 159t-124.5 58q-111 0 -194.5 -100t-83.5 -246q0 -100 43.5 -157.5t123.5 -57.5q111 0 195 99.5t84 244.5z" />
<glyph unicode="&#x14e;" horiz-adv-x="1501" d="M1137 1870h172q-28 -132 -126.5 -216.5t-224.5 -84.5q-109 0 -172 61.5t-63 163.5q0 22 8 76h172q-4 -28 -4 -43q0 -50 24.5 -82.5t63.5 -32.5q44 0 87 44.5t63 113.5zM68 596q0 162 72 320.5t189.5 278t278 193.5t328.5 74q128 0 233 -51t172 -136t103.5 -193.5 t36.5 -227.5q0 -161 -71.5 -319t-189 -278t-277.5 -194.5t-327 -74.5q-103 0 -192.5 32.5t-154 90t-110.5 134.5t-68.5 166t-22.5 185zM1137 831q0 92 -28 165.5t-91 120t-152 46.5q-101 0 -188.5 -49.5t-144.5 -128.5t-89 -174t-32 -188q0 -144 69 -240t201 -96 q82 0 155.5 33t127 88.5t93 125.5t59.5 146.5t20 150.5z" />
<glyph unicode="&#x14f;" d="M905 1489h172q-28 -132 -126 -216.5t-224 -84.5q-109 0 -172 61.5t-63 163.5q0 22 8 76h172q-4 -28 -4 -43q0 -50 24.5 -82.5t63.5 -32.5q44 0 86.5 44.5t62.5 113.5zM23 436q0 131 48.5 251t134 210.5t212 144.5t272.5 54q119 0 209.5 -35.5t145 -99t81.5 -144.5 t27 -178q0 -130 -48.5 -249.5t-134.5 -210.5t-212.5 -145t-272.5 -54q-119 0 -209.5 35.5t-144.5 98.5t-81 144t-27 178zM811 600q0 101 -43.5 159t-124.5 58q-111 0 -194.5 -100t-83.5 -246q0 -100 43.5 -157.5t123.5 -57.5q111 0 195 99.5t84 244.5z" />
<glyph unicode="&#x150;" horiz-adv-x="1501" d="M831 1579l-167 25l139 266h246zM1178 1579l-166 25l139 266h244zM68 596q0 162 72 320.5t189.5 278t278 193.5t328.5 74q128 0 233 -51t172 -136t103.5 -193.5t36.5 -227.5q0 -161 -71.5 -319t-189 -278t-277.5 -194.5t-327 -74.5q-103 0 -192.5 32.5t-154 90 t-110.5 134.5t-68.5 166t-22.5 185zM1137 831q0 92 -28 165.5t-91 120t-152 46.5q-101 0 -188.5 -49.5t-144.5 -128.5t-89 -174t-32 -188q0 -144 69 -240t201 -96q82 0 155.5 33t127 88.5t93 125.5t59.5 146.5t20 150.5z" />
<glyph unicode="&#x151;" d="M600 1198l-168 25l139 266h246zM946 1198l-166 25l140 266h243zM23 436q0 131 48.5 251t134 210.5t212 144.5t272.5 54q119 0 209.5 -35.5t145 -99t81.5 -144.5t27 -178q0 -130 -48.5 -249.5t-134.5 -210.5t-212.5 -145t-272.5 -54q-119 0 -209.5 35.5t-144.5 98.5 t-81 144t-27 178zM811 600q0 101 -43.5 159t-124.5 58q-111 0 -194.5 -100t-83.5 -246q0 -100 43.5 -157.5t123.5 -57.5q111 0 195 99.5t84 244.5z" />
<glyph unicode="&#x152;" horiz-adv-x="2060" d="M68 590q0 163 70 323t184 281t269 195.5t316 74.5q179 0 295 -161l31 151h924l-64 -295h-586l-59 -272h483l-63 -293h-482l-65 -299h606l-63 -295h-940l32 154q-186 -164 -370 -164q-121 0 -221 49.5t-164 133.5t-98.5 191t-34.5 226zM1079 840q0 139 -62 232t-179 93 q-93 0 -175 -51.5t-136.5 -132t-85.5 -177.5t-31 -190q0 -139 62 -232t179 -93q76 0 145 33.5t119.5 90t88 128t56.5 148.5t19 151z" />
<glyph unicode="&#x153;" horiz-adv-x="1957" d="M23 426q0 138 55 262.5t146.5 213.5t216 141.5t259.5 52.5q237 0 342 -217q109 112 213.5 164.5t223.5 52.5q201 0 320.5 -125t119.5 -326q0 -107 -45 -209h-744q-4 -32 -4 -41q0 -82 49.5 -134t127.5 -52q71 0 139 38.5t100 96.5l254 -78q-92 -132 -240.5 -209 t-312.5 -77q-108 0 -188 48.5t-160 155.5q-125 -109 -223 -156.5t-205 -47.5q-203 0 -323.5 124t-120.5 322zM1583 635q4 28 4 37q0 86 -45.5 137t-122.5 51q-86 0 -157 -62.5t-99 -162.5h420zM811 608q0 94 -44 151.5t-120 57.5q-115 0 -198.5 -103.5t-83.5 -248.5 q0 -94 44 -151.5t119 -57.5q116 0 199.5 103t83.5 249z" />
<glyph unicode="&#x154;" horiz-adv-x="1325" d="M954 1585l-217 29l156 266h297zM8 0l309 1454h625q109 0 193 -59.5t126 -152t42 -198.5q0 -150 -89 -289.5t-229 -213.5l186 -541h-378l-160 469h-191l-98 -469h-336zM784 762q62 0 117 75t55 173q0 66 -28.5 107.5t-69.5 41.5h-268l-84 -397h278z" />
<glyph unicode="&#x155;" horiz-adv-x="802" d="M627 1200l-217 29l155 266h297zM209 1075h301l-47 -217q77 108 172.5 170t187.5 62q35 0 47 -3l-61 -292q-114 -2 -211 -40t-154 -110l-137 -645h-327z" />
<glyph unicode="&#x156;" horiz-adv-x="1325" d="M8 0l309 1454h625q109 0 193 -59.5t126 -152t42 -198.5q0 -150 -89 -289.5t-229 -213.5l186 -541h-378l-160 469h-191l-98 -469h-336zM784 762q62 0 117 75t55 173q0 66 -28.5 107.5t-69.5 41.5h-268l-84 -397h278zM334 -436l94 137h-98l45 203h270l-41 -203l-125 -137 h-145z" />
<glyph unicode="&#x157;" horiz-adv-x="802" d="M209 1075h301l-47 -217q77 108 172.5 170t187.5 62q35 0 47 -3l-61 -292q-114 -2 -211 -40t-154 -110l-137 -645h-327zM-51 -436l94 137h-98l45 203h270l-41 -203l-125 -137h-145z" />
<glyph unicode="&#x158;" horiz-adv-x="1325" d="M553 1798l184 76l137 -129l193 129l152 -76l-263 -219h-235zM8 0l309 1454h625q109 0 193 -59.5t126 -152t42 -198.5q0 -150 -89 -289.5t-229 -213.5l186 -541h-378l-160 469h-191l-98 -469h-336zM784 762q62 0 117 75t55 173q0 66 -28.5 107.5t-69.5 41.5h-268l-84 -397 h278z" />
<glyph unicode="&#x159;" horiz-adv-x="802" d="M225 1413l185 76l137 -129l192 129l152 -76l-262 -219h-236zM209 1075h301l-47 -217q77 108 172.5 170t187.5 62q35 0 47 -3l-61 -292q-114 -2 -211 -40t-154 -110l-137 -645h-327z" />
<glyph unicode="&#x15a;" horiz-adv-x="1216" d="M946 1608l-217 28l156 267h297zM-55 164l209 293q8 -18 63 -56.5t155 -76t197 -37.5q93 0 137 34.5t44 94.5q0 19 -6.5 35.5t-24 30.5t-32.5 24t-47 23t-51.5 20t-62.5 21t-65 22q-152 54 -222.5 127.5t-70.5 189.5q0 128 53 235t141 176.5t199.5 107.5t231.5 38 q247 0 469 -159l-205 -279q-5 14 -52 46t-129 62.5t-157 30.5q-86 0 -134 -37.5t-48 -105.5q0 -28 14 -49t48.5 -39t69 -30.5t98.5 -33.5q9 -3 13 -4q86 -29 143.5 -57t107.5 -68.5t73.5 -96.5t23.5 -130q0 -112 -36.5 -203.5t-97 -151.5t-142.5 -101t-170 -58.5t-182 -17.5 q-153 0 -301.5 48t-253.5 132z" />
<glyph unicode="&#x15b;" horiz-adv-x="987" d="M729 1200l-217 29l156 266h297zM-53 152l157 200q161 -139 320 -139q65 0 99 26.5t34 73.5q0 36 -33 59t-118 50q-178 57 -249 111.5t-71 148.5q0 174 145 294t351 120q121 0 213.5 -35t167.5 -117l-168 -196q-75 63 -134 90.5t-120 27.5t-98 -26.5t-37 -75.5 q0 -37 30 -56.5t119 -45.5q179 -54 255.5 -116t76.5 -165q0 -176 -139 -288.5t-363 -112.5q-134 0 -251.5 45t-186.5 127z" />
<glyph unicode="&#x15c;" horiz-adv-x="1216" d="M524 1675l262 221h236l168 -221l-184 -73l-138 129l-192 -129zM-55 164l209 293q8 -18 63 -56.5t155 -76t197 -37.5q93 0 137 34.5t44 94.5q0 19 -6.5 35.5t-24 30.5t-32.5 24t-47 23t-51.5 20t-62.5 21t-65 22q-152 54 -222.5 127.5t-70.5 189.5q0 128 53 235t141 176.5 t199.5 107.5t231.5 38q247 0 469 -159l-205 -279q-5 14 -52 46t-129 62.5t-157 30.5q-86 0 -134 -37.5t-48 -105.5q0 -28 14 -49t48.5 -39t69 -30.5t98.5 -33.5q9 -3 13 -4q86 -29 143.5 -57t107.5 -68.5t73.5 -96.5t23.5 -130q0 -112 -36.5 -203.5t-97 -151.5t-142.5 -101 t-170 -58.5t-182 -17.5q-153 0 -301.5 48t-253.5 132z" />
<glyph unicode="&#x15d;" horiz-adv-x="987" d="M307 1268l262 221h236l168 -221l-185 -74l-137 129l-192 -129zM-53 152l157 200q161 -139 320 -139q65 0 99 26.5t34 73.5q0 36 -33 59t-118 50q-178 57 -249 111.5t-71 148.5q0 174 145 294t351 120q121 0 213.5 -35t167.5 -117l-168 -196q-75 63 -134 90.5t-120 27.5 t-98 -26.5t-37 -75.5q0 -37 30 -56.5t119 -45.5q179 -54 255.5 -116t76.5 -165q0 -176 -139 -288.5t-363 -112.5q-134 0 -251.5 45t-186.5 127z" />
<glyph unicode="&#x15e;" horiz-adv-x="1216" d="M780 868q86 -29 143.5 -57t107.5 -68.5t73.5 -96.5t23.5 -130q0 -101 -29.5 -185t-79.5 -142.5t-118.5 -101.5t-144.5 -66.5t-160 -32.5q47 -70 47 -156q0 -107 -72.5 -184.5t-197.5 -77.5q-110 0 -205 65l115 170q35 -41 82 -41q42 0 71 29t29 78q0 57 -39 115 q-133 10 -260 57t-221 121l209 293q8 -18 63 -56.5t155 -76t197 -37.5q93 0 137 34.5t44 94.5q0 19 -6.5 35.5t-24 30.5t-32.5 24t-47 23t-51.5 20t-62.5 21t-65 22q-152 54 -222.5 127.5t-70.5 189.5q0 128 53 235t141 176.5t199.5 107.5t231.5 38q247 0 469 -159 l-205 -279q-5 14 -52 46t-129 62.5t-157 30.5q-86 0 -134 -37.5t-48 -105.5q0 -28 14 -49t48.5 -39t69 -30.5t98.5 -33.5q9 -3 13 -4z" />
<glyph unicode="&#x15f;" horiz-adv-x="987" d="M555 662q179 -54 255.5 -116t76.5 -165q0 -158 -113.5 -266.5t-302.5 -130.5q45 -72 45 -152q0 -107 -72.5 -184.5t-197.5 -77.5q-110 0 -205 65l115 170q35 -41 82 -41q42 0 71 29t29 78q0 57 -37 113q-108 12 -201.5 56t-152.5 112l157 200q161 -139 320 -139 q65 0 99 26.5t34 73.5q0 36 -33 59t-118 50q-178 57 -249 111.5t-71 148.5q0 174 145 294t351 120q121 0 213.5 -35t167.5 -117l-168 -196q-75 63 -134 90.5t-120 27.5t-98 -26.5t-37 -75.5q0 -37 30 -56.5t119 -45.5z" />
<glyph unicode="&#x160;" horiz-adv-x="1216" d="M545 1821l184 75l137 -129l193 129l151 -75l-262 -219h-235zM-55 164l209 293q8 -18 63 -56.5t155 -76t197 -37.5q93 0 137 34.5t44 94.5q0 19 -6.5 35.5t-24 30.5t-32.5 24t-47 23t-51.5 20t-62.5 21t-65 22q-152 54 -222.5 127.5t-70.5 189.5q0 128 53 235t141 176.5 t199.5 107.5t231.5 38q247 0 469 -159l-205 -279q-5 14 -52 46t-129 62.5t-157 30.5q-86 0 -134 -37.5t-48 -105.5q0 -28 14 -49t48.5 -39t69 -30.5t98.5 -33.5q9 -3 13 -4q86 -29 143.5 -57t107.5 -68.5t73.5 -96.5t23.5 -130q0 -112 -36.5 -203.5t-97 -151.5t-142.5 -101 t-170 -58.5t-182 -17.5q-153 0 -301.5 48t-253.5 132z" />
<glyph unicode="&#x161;" horiz-adv-x="987" d="M328 1413l184 76l137 -129l193 129l151 -76l-262 -219h-235zM-53 152l157 200q161 -139 320 -139q65 0 99 26.5t34 73.5q0 36 -33 59t-118 50q-178 57 -249 111.5t-71 148.5q0 174 145 294t351 120q121 0 213.5 -35t167.5 -117l-168 -196q-75 63 -134 90.5t-120 27.5 t-98 -26.5t-37 -75.5q0 -37 30 -56.5t119 -45.5q179 -54 255.5 -116t76.5 -165q0 -176 -139 -288.5t-363 -112.5q-134 0 -251.5 45t-186.5 127z" />
<glyph unicode="&#x162;" horiz-adv-x="1220" d="M205 1454h1165l-61 -295h-414l-248 -1159h-76q56 -80 56 -168q0 -107 -73 -184.5t-198 -77.5q-109 0 -204 65l114 170q35 -41 82 -41q42 0 71.5 29t29.5 78q0 61 -48 129h-90l248 1159h-416z" />
<glyph unicode="&#x163;" horiz-adv-x="802" d="M549 827l-94 -448q-4 -24 -4 -35q0 -65 69 -65q51 0 146 38l4 -260q-132 -60 -279 -75q43 -74 43 -150q0 -107 -72.5 -184.5t-197.5 -77.5q-110 0 -205 65l115 170q35 -41 82 -41q42 0 71 29t29 78q0 63 -47 129q-115 44 -115 182q0 43 8 84l119 561h-129l55 248h127 l74 342h328l-74 -342h207l-53 -248h-207z" />
<glyph unicode="&#x164;" horiz-adv-x="1220" d="M518 1794l184 76l138 -129l192 129l152 -76l-262 -219h-236zM559 1159h-416l62 295h1165l-61 -295h-414l-248 -1159h-336z" />
<glyph unicode="&#x165;" horiz-adv-x="802" d="M694 1229l156 266h295l-256 -324zM94 182q0 43 8 84l119 561h-129l55 248h127l74 342h328l-74 -342h207l-53 -248h-207l-94 -448q-4 -24 -4 -35q0 -65 69 -65q51 0 146 38l4 -260q-175 -77 -336 -77q-110 0 -175 48.5t-65 153.5z" />
<glyph unicode="&#x166;" horiz-adv-x="1267" d="M1329 1159h-414l-86 -405h340l-32 -156h-340l-125 -598h-338l127 598h-340l35 156h338l86 405h-414l61 295h1166z" />
<glyph unicode="&#x167;" horiz-adv-x="806" d="M756 827h-207l-27 -131h178l-41 -192h-178l-26 -125q-4 -24 -4 -35q0 -65 69 -65q51 0 146 38l4 -260q-175 -77 -336 -77q-110 0 -175 48.5t-65 153.5q0 43 8 84l52 238h-127l41 192h125l28 131h-129l55 248h127l74 342h328l-74 -342h207z" />
<glyph unicode="&#x168;" horiz-adv-x="1468" d="M827 1673q-25 0 -45 -9.5t-31.5 -23t-19.5 -28.5t-11 -24.5t-3 -12.5h-178q4 21 19 54t43.5 74.5t64 77.5t85.5 60.5t103 24.5q42 0 77.5 -15.5t56 -34t48.5 -34t58 -15.5q25 0 46.5 10.5t34.5 23.5t23.5 30.5t13.5 25t5 13.5h174q-3 -15 -18 -46.5t-44.5 -74t-66 -80.5 t-89 -64t-106.5 -26q-40 0 -75.5 14.5t-57 32.5t-50.5 32.5t-57 14.5zM113 483q0 111 24 228l160 743h336l-160 -743q-18 -103 -18 -166q0 -118 50.5 -188t158.5 -70q75 0 138.5 35.5t108 97t74.5 134t49 157.5l158 743h336l-158 -743q-33 -154 -97.5 -283t-159 -228.5 t-226.5 -155.5t-287 -56q-128 0 -224 37.5t-152.5 105.5t-83.5 155.5t-27 196.5z" />
<glyph unicode="&#x169;" horiz-adv-x="1241" d="M655 1298q-25 0 -45 -9.5t-31.5 -23t-19.5 -28.5t-11 -24.5t-3 -12.5h-178q4 21 19 54t43.5 74.5t64 77.5t85.5 60.5t103 24.5q42 0 77.5 -15.5t56 -33.5t48.5 -33.5t58 -15.5q25 0 46.5 10.5t34 23.5t23 30t13.5 24.5t5 13.5h175q-3 -15 -18 -46.5t-44.5 -74t-66 -80.5 t-89 -64t-106.5 -26q-40 0 -75.5 14.5t-57 32.5t-50.5 32.5t-57 14.5zM33 238q0 66 18 149l148 688h325l-131 -616q-10 -52 -10 -80q0 -123 102 -123q128 0 244 156l141 663h328l-149 -706q-7 -31 -7 -43q0 -47 54 -50l-60 -276q-79 -16 -139 -16q-82 0 -129 32.5t-47 98.5 q0 9 10 71q-180 -206 -446 -206q-124 0 -188 66t-64 192z" />
<glyph unicode="&#x16a;" horiz-adv-x="1468" d="M651 1645l41 198h596l-41 -198h-596zM113 483q0 111 24 228l160 743h336l-160 -743q-18 -103 -18 -166q0 -118 50.5 -188t158.5 -70q75 0 138.5 35.5t108 97t74.5 134t49 157.5l158 743h336l-158 -743q-33 -154 -97.5 -283t-159 -228.5t-226.5 -155.5t-287 -56 q-128 0 -224 37.5t-152.5 105.5t-83.5 155.5t-27 196.5z" />
<glyph unicode="&#x16b;" horiz-adv-x="1241" d="M479 1270l41 198h596l-41 -198h-596zM33 238q0 66 18 149l148 688h325l-131 -616q-10 -52 -10 -80q0 -123 102 -123q128 0 244 156l141 663h328l-149 -706q-7 -31 -7 -43q0 -47 54 -50l-60 -276q-79 -16 -139 -16q-82 0 -129 32.5t-47 98.5q0 9 10 71 q-180 -206 -446 -206q-124 0 -188 66t-64 192z" />
<glyph unicode="&#x16c;" horiz-adv-x="1468" d="M1110 1870h172q-28 -132 -126 -216.5t-224 -84.5q-109 0 -172.5 61.5t-63.5 163.5q0 15 9 76h172q-5 -35 -5 -43q0 -50 25 -82.5t64 -32.5q44 0 86.5 44.5t62.5 113.5zM113 483q0 111 24 228l160 743h336l-160 -743q-18 -103 -18 -166q0 -118 50.5 -188t158.5 -70 q75 0 138.5 35.5t108 97t74.5 134t49 157.5l158 743h336l-158 -743q-33 -154 -97.5 -283t-159 -228.5t-226.5 -155.5t-287 -56q-128 0 -224 37.5t-152.5 105.5t-83.5 155.5t-27 196.5z" />
<glyph unicode="&#x16d;" horiz-adv-x="1241" d="M938 1495h172q-28 -132 -126 -216.5t-224 -84.5q-109 0 -172.5 61.5t-63.5 163.5q0 22 8 76h173q-5 -35 -5 -43q0 -50 24.5 -82.5t63.5 -32.5q44 0 87 44.5t63 113.5zM33 238q0 66 18 149l148 688h325l-131 -616q-10 -52 -10 -80q0 -123 102 -123q128 0 244 156l141 663 h328l-149 -706q-7 -31 -7 -43q0 -47 54 -50l-60 -276q-79 -16 -139 -16q-82 0 -129 32.5t-47 98.5q0 9 10 71q-180 -206 -446 -206q-124 0 -188 66t-64 192z" />
<glyph unicode="&#x16e;" horiz-adv-x="1468" d="M997 1870q86 0 133.5 -35t47.5 -100q0 -94 -69 -146.5t-183 -52.5q-86 0 -134.5 34.5t-48.5 98.5q0 95 70.5 148t183.5 53zM883 1692q0 -27 17 -43.5t46 -16.5q37 0 66.5 24.5t29.5 59.5q0 25 -18 41.5t-47 16.5q-39 0 -66.5 -23.5t-27.5 -58.5zM113 483q0 111 24 228 l160 743h336l-160 -743q-18 -103 -18 -166q0 -118 50.5 -188t158.5 -70q75 0 138.5 35.5t108 97t74.5 134t49 157.5l158 743h336l-158 -743q-33 -154 -97.5 -283t-159 -228.5t-226.5 -155.5t-287 -56q-128 0 -224 37.5t-152.5 105.5t-83.5 155.5t-27 196.5z" />
<glyph unicode="&#x16f;" horiz-adv-x="1241" d="M825 1495q86 0 133.5 -35t47.5 -100q0 -94 -69 -146.5t-183 -52.5q-86 0 -134.5 34.5t-48.5 98.5q0 95 70.5 148t183.5 53zM711 1317q0 -27 17 -43.5t46 -16.5q37 0 66.5 24.5t29.5 59.5q0 25 -18 41.5t-47 16.5q-39 0 -66.5 -23.5t-27.5 -58.5zM33 238q0 66 18 149 l148 688h325l-131 -616q-10 -52 -10 -80q0 -123 102 -123q128 0 244 156l141 663h328l-149 -706q-7 -31 -7 -43q0 -47 54 -50l-60 -276q-79 -16 -139 -16q-82 0 -129 32.5t-47 98.5q0 9 10 71q-180 -206 -446 -206q-124 0 -188 66t-64 192z" />
<glyph unicode="&#x170;" horiz-adv-x="1468" d="M805 1579l-168 25l139 266h246zM1151 1579l-166 25l139 266h244zM113 483q0 111 24 228l160 743h336l-160 -743q-18 -103 -18 -166q0 -118 50.5 -188t158.5 -70q75 0 138.5 35.5t108 97t74.5 134t49 157.5l158 743h336l-158 -743q-33 -154 -97.5 -283t-159 -228.5 t-226.5 -155.5t-287 -56q-128 0 -224 37.5t-152.5 105.5t-83.5 155.5t-27 196.5z" />
<glyph unicode="&#x171;" horiz-adv-x="1241" d="M633 1204l-168 25l139 266h246zM979 1204l-166 25l139 266h244zM33 238q0 66 18 149l148 688h325l-131 -616q-10 -52 -10 -80q0 -123 102 -123q128 0 244 156l141 663h328l-149 -706q-7 -31 -7 -43q0 -47 54 -50l-60 -276q-79 -16 -139 -16q-82 0 -129 32.5t-47 98.5 q0 9 10 71q-180 -206 -446 -206q-124 0 -188 66t-64 192z" />
<glyph unicode="&#x172;" horiz-adv-x="1468" d="M1192 1454h336l-158 -743q-62 -285 -228 -479t-419 -234q-77 -58 -115.5 -101t-38.5 -79q0 -63 93 -66l-101 -178q-97 15 -150 61.5t-53 108.5q0 126 166 248q-211 21 -311 152.5t-100 338.5q0 111 24 228l160 743h336l-160 -743q-18 -103 -18 -166q0 -118 50.5 -188 t158.5 -70q75 0 138.5 35.5t108 97t74.5 134t49 157.5z" />
<glyph unicode="&#x173;" horiz-adv-x="1241" d="M1042 326q0 -47 54 -50l-60 -276q-157 -115 -157 -182q0 -63 92 -66l-101 -178q-97 15 -149.5 61.5t-52.5 108.5q0 126 163 246q-110 23 -110 125q0 9 10 71q-180 -206 -446 -206q-124 0 -188 66t-64 192q0 66 18 149l148 688h325l-131 -616q-10 -52 -10 -80 q0 -123 102 -123q128 0 244 156l141 663h328l-149 -706q-7 -31 -7 -43z" />
<glyph unicode="&#x174;" horiz-adv-x="2052" d="M903 1649l262 221h236l168 -221l-185 -74l-137 129l-192 -129zM156 1454h364l107 -1069l209 391l-82 676h307l37 -465l233 465h309l-374 -676l47 -391l559 1069h369l-861 -1454h-278l-94 569l-332 -569h-281z" />
<glyph unicode="&#x175;" horiz-adv-x="1642" d="M625 1268l262 221h235l168 -221l-184 -74l-137 129l-193 -129zM78 1075h315l105 -778q94 162 145 262l-98 516h272l37 -325q85 175 147 325h252q-111 -292 -262 -514l35 -190q163 217 239.5 350t164.5 354h296q-194 -520 -682 -1075h-215l-51 377q-66 -118 -217 -377 h-282z" />
<glyph unicode="&#x176;" horiz-adv-x="1275" d="M496 1649l262 221h235l168 -221l-184 -74l-137 129l-193 -129zM436 500l-278 954h364l142 -668l432 668h364l-692 -958l-104 -496h-336z" />
<glyph unicode="&#x177;" horiz-adv-x="1087" d="M324 1268l262 221h235l168 -221l-184 -74l-137 129l-193 -129zM-102 -227q123 6 180.5 31t114.5 98l59 75l-160 1098h334l59 -794l70 114q194 316 272 680h316q-56 -200 -139 -370t-283 -494l-164 -264q-143 -231 -283 -324.5t-337 -95.5z" />
<glyph unicode="&#x178;" horiz-adv-x="1275" d="M469 1589l57 264h269l-56 -264h-270zM889 1589l57 264h266l-53 -264h-270zM436 500l-278 954h364l142 -668l432 668h364l-692 -958l-104 -496h-336z" />
<glyph unicode="&#x179;" horiz-adv-x="1218" d="M938 1585l-217 29l156 266h297zM-20 252l890 907h-669l61 295h1061l-55 -252l-858 -907h673l-61 -295h-1096z" />
<glyph unicode="&#x17a;" horiz-adv-x="964" d="M729 1206l-217 29l156 266h297zM-39 197l639 651h-475l49 227h821l-43 -196l-639 -652h516l-49 -227h-862z" />
<glyph unicode="&#x17b;" horiz-adv-x="1218" d="M688 1593l60 281h294l-61 -281h-293zM-20 252l890 907h-669l61 295h1061l-55 -252l-858 -907h673l-61 -295h-1096z" />
<glyph unicode="&#x17c;" horiz-adv-x="964" d="M479 1214l60 281h295l-62 -281h-293zM-39 197l639 651h-475l49 227h821l-43 -196l-639 -652h516l-49 -227h-862z" />
<glyph unicode="&#x17d;" horiz-adv-x="1218" d="M537 1798l184 76l137 -129l193 129l151 -76l-262 -219h-235zM-20 252l890 907h-669l61 295h1061l-55 -252l-858 -907h673l-61 -295h-1096z" />
<glyph unicode="&#x17e;" horiz-adv-x="964" d="M328 1419l184 76l137 -129l193 129l151 -76l-262 -219h-235zM-39 197l639 651h-475l49 227h821l-43 -196l-639 -652h516l-49 -227h-862z" />
<glyph unicode="&#x18f;" horiz-adv-x="1482" d="M39 580q0 136 51 249h1010q4 40 4 60q0 131 -72 203.5t-184 72.5q-95 0 -186.5 -53.5t-133.5 -140.5l-325 106q118 178 304.5 281.5t405.5 103.5q133 0 240 -50.5t173.5 -135t102 -189.5t35.5 -219q0 -102 -29.5 -208t-82.5 -203t-131.5 -182.5t-172.5 -148.5 t-210.5 -99.5t-239.5 -36.5q-110 0 -202.5 33.5t-157.5 91t-110.5 133t-67 160t-21.5 172.5zM1040 578h-645q-8 -31 -8 -64q0 -103 77 -166t202 -63q126 0 228 80t146 213z" />
<glyph unicode="&#x192;" horiz-adv-x="1095" d="M-139 -311l184 223q27 -43 92 -43q42 0 75.5 31.5t43.5 81.5l154 720h-129l53 248h129l26 125q43 200 167.5 320.5t287.5 120.5q124 0 258 -64l-110 -246q-68 33 -134 33q-108 0 -139 -152l-31 -137h236l-53 -248h-234l-151 -712q-38 -178 -171 -291t-296 -113 q-166 0 -258 103z" />
<glyph unicode="&#x1a0;" horiz-adv-x="1501" d="M1358 1341q-20 -17 -47 -32q82 -85 126 -204.5t44 -250.5q0 -161 -71.5 -319t-189 -278t-277.5 -194.5t-327 -74.5q-103 0 -192.5 32.5t-154 90t-110.5 134.5t-68.5 166t-22.5 185q0 162 72 320.5t189.5 278t278 193.5t328.5 74q42 0 86 -6q144 0 199 47q12 11 20.5 22.5 t15 28.5t9.5 25.5t8.5 32.5t7.5 30h229q-13 -64 -25 -105t-45.5 -98t-82.5 -98zM682 287q82 0 155.5 33t127 88.5t93 125.5t59.5 146.5t20 150.5q0 92 -28 165.5t-91 120t-152 46.5q-101 0 -188.5 -49.5t-144.5 -128.5t-89 -174t-32 -188q0 -144 69 -240t201 -96z" />
<glyph unicode="&#x1a1;" d="M1081 1257h230q-9 -46 -18 -78t-26 -74.5t-44.5 -80t-65.5 -68.5q-37 -30 -74 -45q70 -113 70 -272q0 -130 -48.5 -249.5t-134.5 -210.5t-212.5 -145t-272.5 -54q-119 0 -209.5 35.5t-144.5 98.5t-81 144t-27 178q0 131 48.5 251t134 210.5t212 144.5t272.5 54 q94 0 174 -25q107 6 156 47q12 11 20.5 22.5t15 28.5t9.5 25.5t8.5 32.5t7.5 30zM532 256q111 0 195 99.5t84 244.5q0 101 -43.5 159t-124.5 58q-111 0 -194.5 -100t-83.5 -246q0 -100 43.5 -157.5t123.5 -57.5z" />
<glyph unicode="&#x1af;" horiz-adv-x="1468" d="M1591 1640h230q-9 -46 -18 -78t-26 -74.5t-44.5 -80t-65.5 -68.5q-63 -53 -180 -82l-117 -546q-33 -154 -97.5 -283t-159 -228.5t-226.5 -155.5t-287 -56q-128 0 -224 37.5t-152.5 105.5t-83.5 155.5t-27 196.5q0 111 24 228l160 743h336l-160 -743q-18 -103 -18 -166 q0 -118 50.5 -188t158.5 -70q75 0 138.5 35.5t108 97t74.5 134t49 157.5l158 743h137q76 0 123 10t78 37q12 11 20.5 22.5t15 28.5t9.5 25.5t8.5 32.5t7.5 30z" />
<glyph unicode="&#x1b0;" horiz-adv-x="1241" d="M1303 1255h229q-9 -46 -18 -78t-26 -74.5t-44.5 -80t-65.5 -68.5q-75 -63 -225 -92l-104 -493q-7 -31 -7 -43q0 -47 54 -50l-60 -276q-79 -16 -139 -16q-82 0 -129 32.5t-47 98.5q0 9 10 71q-180 -206 -446 -206q-124 0 -188 66t-64 192q0 66 18 149l148 688h325 l-131 -616q-10 -52 -10 -80q0 -123 102 -123q128 0 244 156l141 663h271q65 9 100 41q10 9 18 20t13 20t10.5 24t7.5 23t6.5 26.5t6.5 25.5z" />
<glyph unicode="&#x1e6;" horiz-adv-x="1441" d="M1067 1575h-236l-167 219l184 76l137 -129l193 129l151 -76zM801 516l51 244h543l-162 -760h-279l31 143q-190 -153 -389 -153q-233 0 -380.5 165t-147.5 429q0 176 73 339.5t193 281.5t279 188.5t325 70.5q188 0 316.5 -85t170.5 -232l-288 -189q-26 96 -101 151.5 t-174 55.5q-118 0 -221.5 -74.5t-165 -200t-61.5 -267.5q0 -148 73.5 -241t200.5 -93q188 0 367 182l10 45h-264z" />
<glyph unicode="&#x1e7;" horiz-adv-x="1265" d="M455 1413l184 76l137 -129l193 129l151 -76l-262 -219h-235zM-117 -242l213 179q42 -68 117 -108t166 -40q120 0 212.5 71t121.5 214l20 104q-61 -87 -158 -134.5t-200 -47.5q-161 0 -255.5 120t-94.5 304q0 134 49.5 259t132 216.5t195 146t233.5 54.5 q111 0 186.5 -51.5t108.5 -145.5l39 176h284l-213 -1001q-52 -244 -247.5 -387.5t-464.5 -143.5q-307 0 -445 215zM782 406l49 225q-12 84 -62.5 135t-117.5 51q-73 0 -139.5 -51t-105.5 -131.5t-39 -165.5q0 -93 49 -153t131 -60q64 0 126 41t109 109z" />
<glyph unicode="&#x1ea;" horiz-adv-x="1501" d="M735 -2q-77 -58 -115 -101t-38 -79q0 -63 92 -66l-101 -178q-97 15 -149.5 61.5t-52.5 108.5q0 127 168 248q-147 19 -256 108.5t-162 218t-53 277.5q0 162 72 320.5t189.5 278t278 193.5t328.5 74q128 0 233 -51t172 -136t103.5 -193.5t36.5 -227.5q0 -195 -100.5 -381 t-273 -314.5t-372.5 -160.5zM412 623q0 -144 69 -240t201 -96q82 0 155.5 33t127 88.5t93 125.5t59.5 146.5t20 150.5q0 92 -28 165.5t-91 120t-152 46.5q-101 0 -188.5 -49.5t-144.5 -128.5t-89 -174t-32 -188z" />
<glyph unicode="&#x1eb;" d="M604 -10q-143 -108 -143 -172q0 -63 92 -66l-100 -178q-97 15 -150 61.5t-53 108.5q0 121 158 240q-193 22 -289 145t-96 307q0 131 48.5 251t134 210.5t212 144.5t272.5 54q119 0 209.5 -35.5t145 -99t81.5 -144.5t27 -178q0 -157 -66.5 -294.5t-193 -233t-289.5 -121.5 zM643 817q-111 0 -194.5 -100t-83.5 -246q0 -100 43.5 -157.5t123.5 -57.5q111 0 195 99.5t84 244.5q0 101 -43.5 159t-124.5 58z" />
<glyph unicode="&#x1fa;" horiz-adv-x="1312" d="M1079 1583q0 -99 -80 -153l185 -1430h-344l-31 326h-414l-166 -326h-346l795 1432q-33 38 -33 86q0 71 41 119t113 69l129 209h297l-195 -232q49 -34 49 -100zM879 1622q-39 0 -67 -23.5t-28 -58.5q0 -26 17.5 -42.5t46.5 -16.5q37 0 66.5 24.5t29.5 59.5q0 25 -18 41 t-47 16zM496 557h307l-41 514z" />
<glyph unicode="&#x1fb;" horiz-adv-x="1298" d="M985 1626l-217 29l156 266h297zM854 1495q86 0 133 -35t47 -100q0 -94 -69 -146.5t-183 -52.5q-86 0 -134 34.5t-48 98.5q0 95 70.5 148t183.5 53zM739 1317q0 -27 17.5 -43.5t46.5 -16.5q37 0 66.5 24.5t29.5 59.5q0 25 -18 41.5t-47 16.5q-39 0 -67 -23.5t-28 -58.5z M23 416q0 133 48 258.5t127.5 217.5t187.5 148t222 56q103 0 178 -53.5t103 -143.5l37 170h329l-151 -700q-4 -36 -4 -43q0 -25 12 -37t39 -13l-57 -276q-81 -16 -140 -16q-174 0 -174 137q0 19 6 57q-73 -97 -174.5 -147.5t-208.5 -50.5q-175 0 -277.5 122t-102.5 314z M786 406l48 225q-10 81 -61 133.5t-118 52.5q-112 0 -199 -107t-87 -241q0 -94 48.5 -153.5t133.5 -59.5q61 0 124.5 40.5t110.5 109.5z" />
<glyph unicode="&#x1fc;" horiz-adv-x="1908" d="M1389 1581l-218 29l156 266h297zM991 1454h1012l-64 -295h-587l-58 -272h482l-62 -293h-481l-64 -299h603l-62 -295h-938l70 326h-412l-237 -326h-357zM879 621l96 458l-340 -458h244z" />
<glyph unicode="&#x1fd;" horiz-adv-x="1839" d="M1108 1200l-217 29l156 266h296zM-25 262q0 117 70 213t190.5 150.5t264.5 54.5q123 0 207 -41q3 13 9 35.5t9.5 40t3.5 33.5q0 122 -164 122q-153 0 -342 -118l-53 204q234 140 475 140q229 0 332 -131q167 131 377 131q143 0 246 -62t151.5 -162t48.5 -225 q0 -48 -9.5 -95t-15.5 -63t-20 -53h-747q-4 -32 -4 -47q0 -82 49.5 -128t126.5 -46q66 0 133 36t98 93l262 -78q-89 -130 -235 -208t-320 -78q-148 0 -250 57.5t-151 157.5q-91 -107 -216 -161t-233 -54q-132 0 -212.5 79t-80.5 203zM1458 635q2 14 2 43q0 83 -43.5 132.5 t-120.5 49.5q-86 0 -155.5 -61.5t-98.5 -163.5h416zM664 324q-5 30 -5 43q0 32 11 100q-78 31 -156 31q-89 0 -154 -50t-65 -122q0 -48 32.5 -79.5t90.5 -31.5q62 0 135.5 33t110.5 76z" />
<glyph unicode="&#x1fe;" horiz-adv-x="1501" d="M1303 1876l-236 -295l-217 29l156 266h297zM1612 1454l-221 -250q90 -156 90 -350q0 -161 -71.5 -319t-189 -278t-277.5 -194.5t-327 -74.5q-142 0 -258 61l-43 -49h-360l209 236q-96 155 -96 360q0 162 72 320.5t189.5 278t278 193.5t328.5 74q144 0 264 -65l51 57h361z M412 623q0 -46 10 -101l551 621q-52 20 -107 20q-101 0 -188.5 -49.5t-144.5 -128.5t-89 -174t-32 -188zM1137 831q0 35 -7 82l-544 -610q46 -16 96 -16q82 0 155.5 33t127 88.5t93 125.5t59.5 146.5t20 150.5z" />
<glyph unicode="&#x1ff;" d="M1249 1495l-235 -295l-217 29l155 266h297zM1053 1085h178l-164 -153q86 -118 86 -285q0 -126 -50 -246t-137.5 -213.5t-217.5 -150.5t-279 -57q-171 0 -281 83l-79 -73h-177l172 160q-81 115 -81 278q0 127 50.5 247t138 213.5t217.5 150.5t278 57q159 0 274 -78z M647 817q-112 0 -197 -102.5t-85 -247.5q0 -35 6 -70l377 385q-41 35 -101 35zM528 256q113 0 199 102.5t86 247.5q0 40 -10 78l-379 -387q41 -41 104 -41z" />
<glyph unicode="&#x200;" horiz-adv-x="1312" d="M510 1882h246l26 -266l-176 -33zM858 1882h244l28 -266l-176 -33zM690 1454h305l189 -1454h-344l-31 326h-414l-166 -326h-346zM803 557l-41 514l-266 -514h307z" />
<glyph unicode="&#x201;" horiz-adv-x="1298" d="M428 1503h246l26 -266l-176 -33zM776 1503h244l29 -266l-177 -33zM23 416q0 133 48 258.5t127.5 217.5t187.5 148t222 56q103 0 178 -53.5t103 -143.5l37 170h329l-151 -700q-4 -36 -4 -43q0 -25 12 -37t39 -13l-57 -276q-81 -16 -140 -16q-174 0 -174 137q0 19 6 57 q-73 -97 -174.5 -147.5t-208.5 -50.5q-175 0 -277.5 122t-102.5 314zM786 406l48 225q-10 81 -61 133.5t-118 52.5q-112 0 -199 -107t-87 -241q0 -94 48.5 -153.5t133.5 -59.5q61 0 124.5 40.5t110.5 109.5z" />
<glyph unicode="&#x202;" horiz-adv-x="1312" d="M932 1880q109 0 171 -65.5t62 -167.5q0 -18 -8 -68h-172q6 34 6 61q0 97 -90 97q-117 0 -151 -158h-170q28 132 127 216.5t225 84.5zM690 1454h305l189 -1454h-344l-31 326h-414l-166 -326h-346zM803 557l-41 514l-266 -514h307z" />
<glyph unicode="&#x203;" horiz-adv-x="1298" d="M850 1501q109 0 171 -65.5t62 -167.5q0 -18 -8 -68h-172q6 34 6 62q0 96 -90 96q-117 0 -151 -158h-170q28 132 127 216.5t225 84.5zM23 416q0 133 48 258.5t127.5 217.5t187.5 148t222 56q103 0 178 -53.5t103 -143.5l37 170h329l-151 -700q-4 -36 -4 -43q0 -25 12 -37 t39 -13l-57 -276q-81 -16 -140 -16q-174 0 -174 137q0 19 6 57q-73 -97 -174.5 -147.5t-208.5 -50.5q-175 0 -277.5 122t-102.5 314zM786 406l48 225q-10 81 -61 133.5t-118 52.5q-112 0 -199 -107t-87 -241q0 -94 48.5 -153.5t133.5 -59.5q61 0 124.5 40.5t110.5 109.5z " />
<glyph unicode="&#x204;" horiz-adv-x="1179" d="M451 1882h245l27 -266l-176 -33zM799 1882h243l29 -266l-176 -33zM317 1454h957l-64 -295h-620l-60 -282h533l-57 -273h-533l-67 -309h638l-61 -295h-975z" />
<glyph unicode="&#x205;" horiz-adv-x="1142" d="M641 1231l-176 -33l-96 299h245zM989 1231l-176 -33l-96 299h244zM475 432q-71 0 -110 2v-14q0 -205 170 -205q73 0 136 34.5t101 96.5l258 -82q-86 -127 -239 -205.5t-316 -78.5q-207 0 -328.5 125.5t-121.5 328.5q0 134 54 256t145.5 211t220.5 142t272 53 q184 0 290.5 -81.5t106.5 -226.5q0 -175 -161 -265.5t-478 -90.5zM664 860q-87 0 -155.5 -61.5t-105.5 -161.5q23 -2 72 -2q176 0 250 30t74 95q0 47 -37 73.5t-98 26.5z" />
<glyph unicode="&#x206;" horiz-adv-x="1179" d="M872 1880q109 0 171.5 -65.5t62.5 -167.5q0 -18 -8 -68h-172q6 34 6 61q0 97 -90 97q-118 0 -152 -158h-170q28 132 127 216.5t225 84.5zM317 1454h957l-64 -295h-620l-60 -282h533l-57 -273h-533l-67 -309h638l-61 -295h-975z" />
<glyph unicode="&#x207;" horiz-adv-x="1142" d="M760 1352q-118 0 -152 -158h-170q28 132 127.5 216.5t225.5 84.5q109 0 171 -65.5t62 -167.5q0 -18 -8 -68h-172q6 35 6 61q0 97 -90 97zM475 432q-71 0 -110 2v-14q0 -205 170 -205q73 0 136 34.5t101 96.5l258 -82q-86 -127 -239 -205.5t-316 -78.5 q-207 0 -328.5 125.5t-121.5 328.5q0 134 54 256t145.5 211t220.5 142t272 53q184 0 290.5 -81.5t106.5 -226.5q0 -175 -161 -265.5t-478 -90.5zM664 860q-87 0 -155.5 -61.5t-105.5 -161.5q23 -2 72 -2q176 0 250 30t74 95q0 47 -37 73.5t-98 26.5z" />
<glyph unicode="&#x208;" horiz-adv-x="614" d="M162 1882h246l26 -266l-176 -33zM510 1882h244l28 -266l-176 -33zM317 1454h336l-309 -1454h-336z" />
<glyph unicode="&#x209;" horiz-adv-x="548" d="M35 1503h246l26 -266l-176 -33zM383 1503h244l28 -266l-176 -33zM209 1075h328l-230 -1075h-327z" />
<glyph unicode="&#x20a;" horiz-adv-x="614" d="M584 1880q109 0 171 -65.5t62 -167.5q0 -18 -8 -68h-172q6 34 6 61q0 97 -90 97q-118 0 -152 -158h-170q28 132 127.5 216.5t225.5 84.5zM317 1454h336l-309 -1454h-336z" />
<glyph unicode="&#x20b;" horiz-adv-x="548" d="M457 1501q109 0 171 -65.5t62 -167.5q0 -18 -8 -68h-172q6 34 6 62q0 96 -90 96q-118 0 -152 -158h-170q28 132 127.5 216.5t225.5 84.5zM209 1075h328l-230 -1075h-327z" />
<glyph unicode="&#x20c;" horiz-adv-x="1501" d="M598 1878h246l26 -266l-176 -33zM946 1878h244l29 -266l-177 -33zM68 596q0 162 72 320.5t189.5 278t278 193.5t328.5 74q128 0 233 -51t172 -136t103.5 -193.5t36.5 -227.5q0 -161 -71.5 -319t-189 -278t-277.5 -194.5t-327 -74.5q-103 0 -192.5 32.5t-154 90 t-110.5 134.5t-68.5 166t-22.5 185zM1137 831q0 92 -28 165.5t-91 120t-152 46.5q-101 0 -188.5 -49.5t-144.5 -128.5t-89 -174t-32 -188q0 -144 69 -240t201 -96q82 0 155.5 33t127 88.5t93 125.5t59.5 146.5t20 150.5z" />
<glyph unicode="&#x20d;" d="M367 1497h245l27 -266l-176 -33zM715 1497h243l29 -266l-176 -33zM23 436q0 131 48.5 251t134 210.5t212 144.5t272.5 54q119 0 209.5 -35.5t145 -99t81.5 -144.5t27 -178q0 -130 -48.5 -249.5t-134.5 -210.5t-212.5 -145t-272.5 -54q-119 0 -209.5 35.5t-144.5 98.5 t-81 144t-27 178zM811 600q0 101 -43.5 159t-124.5 58q-111 0 -194.5 -100t-83.5 -246q0 -100 43.5 -157.5t123.5 -57.5q111 0 195 99.5t84 244.5z" />
<glyph unicode="&#x20e;" horiz-adv-x="1501" d="M1020 1876q109 0 171 -66t62 -168q0 -17 -8 -67h-172q6 35 6 61q0 97 -90 97q-117 0 -151 -158h-170q28 132 127 216.5t225 84.5zM68 596q0 162 72 320.5t189.5 278t278 193.5t328.5 74q128 0 233 -51t172 -136t103.5 -193.5t36.5 -227.5q0 -161 -71.5 -319t-189 -278 t-277.5 -194.5t-327 -74.5q-103 0 -192.5 32.5t-154 90t-110.5 134.5t-68.5 166t-22.5 185zM1137 831q0 92 -28 165.5t-91 120t-152 46.5q-101 0 -188.5 -49.5t-144.5 -128.5t-89 -174t-32 -188q0 -144 69 -240t201 -96q82 0 155.5 33t127 88.5t93 125.5t59.5 146.5 t20 150.5z" />
<glyph unicode="&#x20f;" d="M788 1495q109 0 171.5 -65.5t62.5 -167.5q0 -18 -8 -68h-172q6 35 6 61q0 97 -90 97q-118 0 -152 -158h-170q28 132 127 216.5t225 84.5zM23 436q0 131 48.5 251t134 210.5t212 144.5t272.5 54q119 0 209.5 -35.5t145 -99t81.5 -144.5t27 -178q0 -130 -48.5 -249.5 t-134.5 -210.5t-212.5 -145t-272.5 -54q-119 0 -209.5 35.5t-144.5 98.5t-81 144t-27 178zM811 600q0 101 -43.5 159t-124.5 58q-111 0 -194.5 -100t-83.5 -246q0 -100 43.5 -157.5t123.5 -57.5q111 0 195 99.5t84 244.5z" />
<glyph unicode="&#x210;" horiz-adv-x="1325" d="M485 1882h246l27 -266l-176 -33zM834 1882h243l29 -266l-176 -33zM8 0l309 1454h625q109 0 193 -59.5t126 -152t42 -198.5q0 -150 -89 -289.5t-229 -213.5l186 -541h-378l-160 469h-191l-98 -469h-336zM784 762q62 0 117 75t55 173q0 66 -28.5 107.5t-69.5 41.5h-268 l-84 -397h278z" />
<glyph unicode="&#x211;" horiz-adv-x="802" d="M158 1497h245l27 -266l-176 -33zM506 1497h244l28 -266l-176 -33zM209 1075h301l-47 -217q77 108 172.5 170t187.5 62q35 0 47 -3l-61 -292q-114 -2 -211 -40t-154 -110l-137 -645h-327z" />
<glyph unicode="&#x212;" horiz-adv-x="1325" d="M907 1880q109 0 171.5 -65.5t62.5 -167.5q0 -18 -8 -68h-172q6 34 6 61q0 97 -90 97q-118 0 -152 -158h-170q28 132 127 216.5t225 84.5zM8 0l309 1454h625q109 0 193 -59.5t126 -152t42 -198.5q0 -150 -89 -289.5t-229 -213.5l186 -541h-378l-160 469h-191l-98 -469 h-336zM784 762q62 0 117 75t55 173q0 66 -28.5 107.5t-69.5 41.5h-268l-84 -397h278z" />
<glyph unicode="&#x213;" horiz-adv-x="802" d="M580 1495q109 0 171 -65.5t62 -167.5q0 -18 -8 -68h-172q6 35 6 61q0 97 -90 97q-118 0 -152 -158h-170q28 132 127.5 216.5t225.5 84.5zM209 1075h301l-47 -217q77 108 172.5 170t187.5 62q35 0 47 -3l-61 -292q-114 -2 -211 -40t-154 -110l-137 -645h-327z" />
<glyph unicode="&#x214;" horiz-adv-x="1468" d="M571 1878h246l27 -266l-176 -33zM920 1878h243l29 -266l-176 -33zM113 483q0 111 24 228l160 743h336l-160 -743q-18 -103 -18 -166q0 -118 50.5 -188t158.5 -70q75 0 138.5 35.5t108 97t74.5 134t49 157.5l158 743h336l-158 -743q-33 -154 -97.5 -283t-159 -228.5 t-226.5 -155.5t-287 -56q-128 0 -224 37.5t-152.5 105.5t-83.5 155.5t-27 196.5z" />
<glyph unicode="&#x215;" horiz-adv-x="1241" d="M399 1503h246l27 -266l-176 -33zM748 1503h243l29 -266l-176 -33zM33 238q0 66 18 149l148 688h325l-131 -616q-10 -52 -10 -80q0 -123 102 -123q128 0 244 156l141 663h328l-149 -706q-7 -31 -7 -43q0 -47 54 -50l-60 -276q-79 -16 -139 -16q-82 0 -129 32.5t-47 98.5 q0 9 10 71q-180 -206 -446 -206q-124 0 -188 66t-64 192z" />
<glyph unicode="&#x216;" horiz-adv-x="1468" d="M993 1876q109 0 171.5 -66t62.5 -168q0 -17 -8 -67h-172q6 35 6 61q0 97 -90 97q-118 0 -152 -158h-170q28 132 127 216.5t225 84.5zM113 483q0 111 24 228l160 743h336l-160 -743q-18 -103 -18 -166q0 -118 50.5 -188t158.5 -70q75 0 138.5 35.5t108 97t74.5 134 t49 157.5l158 743h336l-158 -743q-33 -154 -97.5 -283t-159 -228.5t-226.5 -155.5t-287 -56q-128 0 -224 37.5t-152.5 105.5t-83.5 155.5t-27 196.5z" />
<glyph unicode="&#x217;" horiz-adv-x="1241" d="M821 1501q109 0 171.5 -65.5t62.5 -167.5q0 -18 -8 -68h-173q7 40 7 62q0 96 -90 96q-118 0 -152 -158h-170q28 132 127 216.5t225 84.5zM33 238q0 66 18 149l148 688h325l-131 -616q-10 -52 -10 -80q0 -123 102 -123q128 0 244 156l141 663h328l-149 -706q-7 -31 -7 -43 q0 -47 54 -50l-60 -276q-79 -16 -139 -16q-82 0 -129 32.5t-47 98.5q0 9 10 71q-180 -206 -446 -206q-124 0 -188 66t-64 192z" />
<glyph unicode="&#x218;" horiz-adv-x="1216" d="M-55 164l209 293q8 -18 63 -56.5t155 -76t197 -37.5q93 0 137 34.5t44 94.5q0 19 -6.5 35.5t-24 30.5t-32.5 24t-47 23t-51.5 20t-62.5 21t-65 22q-152 54 -222.5 127.5t-70.5 189.5q0 128 53 235t141 176.5t199.5 107.5t231.5 38q247 0 469 -159l-205 -279q-5 14 -52 46 t-129 62.5t-157 30.5q-86 0 -134 -37.5t-48 -105.5q0 -28 14 -49t48.5 -39t69 -30.5t98.5 -33.5q9 -3 13 -4q86 -29 143.5 -57t107.5 -68.5t73.5 -96.5t23.5 -130q0 -112 -36.5 -203.5t-97 -151.5t-142.5 -101t-170 -58.5t-182 -17.5q-153 0 -301.5 48t-253.5 132zM299 -436 l94 137h-98l45 203h270l-41 -203l-125 -137h-145z" />
<glyph unicode="&#x219;" horiz-adv-x="987" d="M-53 152l157 200q161 -139 320 -139q65 0 99 26.5t34 73.5q0 36 -33 59t-118 50q-178 57 -249 111.5t-71 148.5q0 174 145 294t351 120q121 0 213.5 -35t167.5 -117l-168 -196q-75 63 -134 90.5t-120 27.5t-98 -26.5t-37 -75.5q0 -37 30 -56.5t119 -45.5 q179 -54 255.5 -116t76.5 -165q0 -176 -139 -288.5t-363 -112.5q-134 0 -251.5 45t-186.5 127zM172 -436l94 137h-98l45 203h270l-41 -203l-125 -137h-145z" />
<glyph unicode="&#x21a;" horiz-adv-x="1220" d="M559 1159h-416l62 295h1165l-61 -295h-414l-248 -1159h-336zM283 -436l94 137h-98l45 203h270l-41 -203l-125 -137h-145z" />
<glyph unicode="&#x21b;" horiz-adv-x="802" d="M94 182q0 43 8 84l119 561h-129l55 248h127l74 342h328l-74 -342h207l-53 -248h-207l-94 -448q-4 -24 -4 -35q0 -65 69 -65q51 0 146 38l4 -260q-175 -77 -336 -77q-110 0 -175 48.5t-65 153.5zM90 -436l94 137h-98l45 203h270l-41 -203l-124 -137h-146z" />
<glyph unicode="&#x22a;" horiz-adv-x="1501" d="M764 2048l41 199h596l-41 -199h-596zM618 1589l58 264h268l-55 -264h-271zM1038 1589l58 264h266l-53 -264h-271zM68 596q0 162 72 320.5t189.5 278t278 193.5t328.5 74q128 0 233 -51t172 -136t103.5 -193.5t36.5 -227.5q0 -161 -71.5 -319t-189 -278t-277.5 -194.5 t-327 -74.5q-103 0 -192.5 32.5t-154 90t-110.5 134.5t-68.5 166t-22.5 185zM1137 831q0 92 -28 165.5t-91 120t-152 46.5q-101 0 -188.5 -49.5t-144.5 -128.5t-89 -174t-32 -188q0 -144 69 -240t201 -96q82 0 155.5 33t127 88.5t93 125.5t59.5 146.5t20 150.5z" />
<glyph unicode="&#x22b;" d="M532 1667l41 199h596l-41 -199h-596zM387 1208l57 265h269l-56 -265h-270zM807 1208l57 265h266l-53 -265h-270zM23 436q0 131 48.5 251t134 210.5t212 144.5t272.5 54q119 0 209.5 -35.5t145 -99t81.5 -144.5t27 -178q0 -130 -48.5 -249.5t-134.5 -210.5t-212.5 -145 t-272.5 -54q-119 0 -209.5 35.5t-144.5 98.5t-81 144t-27 178zM811 600q0 101 -43.5 159t-124.5 58q-111 0 -194.5 -100t-83.5 -246q0 -100 43.5 -157.5t123.5 -57.5q111 0 195 99.5t84 244.5z" />
<glyph unicode="&#x22c;" horiz-adv-x="1501" d="M766 2064l41 199h596l-41 -199h-596zM854 1673q-25 0 -45.5 -9.5t-32 -23t-19.5 -28.5t-11 -24.5t-3 -12.5h-178q4 20 19 53.5t44 75t64.5 77.5t85.5 60.5t103 24.5q42 0 77.5 -15.5t55.5 -34t48 -34t58 -15.5q25 0 46.5 10.5t34.5 23.5t23.5 30.5t13.5 25t5 13.5h174 q-3 -15 -18 -46.5t-44 -74t-65.5 -80.5t-89 -64t-106.5 -26q-40 0 -75.5 14.5t-57 32.5t-50.5 32.5t-57 14.5zM68 596q0 162 72 320.5t189.5 278t278 193.5t328.5 74q128 0 233 -51t172 -136t103.5 -193.5t36.5 -227.5q0 -161 -71.5 -319t-189 -278t-277.5 -194.5 t-327 -74.5q-103 0 -192.5 32.5t-154 90t-110.5 134.5t-68.5 166t-22.5 185zM1137 831q0 92 -28 165.5t-91 120t-152 46.5q-101 0 -188.5 -49.5t-144.5 -128.5t-89 -174t-32 -188q0 -144 69 -240t201 -96q82 0 155.5 33t127 88.5t93 125.5t59.5 146.5t20 150.5z" />
<glyph unicode="&#x22d;" d="M535 1683l40 199h596l-41 -199h-595zM623 1292q-25 0 -45.5 -9.5t-32 -23t-19.5 -28.5t-11 -24.5t-3 -12.5h-178q4 21 19 54t43.5 74.5t64 77.5t85.5 60.5t103 24.5q42 0 77.5 -15.5t56 -34t48.5 -34t58 -15.5q25 0 46.5 10.5t34.5 23.5t23.5 30.5t13.5 25t5 13.5h174 q-3 -15 -18 -46.5t-44.5 -74t-66 -80.5t-89 -64t-106.5 -26q-40 0 -75.5 14.5t-56.5 32.5t-50 32.5t-57 14.5zM23 436q0 131 48.5 251t134 210.5t212 144.5t272.5 54q119 0 209.5 -35.5t145 -99t81.5 -144.5t27 -178q0 -130 -48.5 -249.5t-134.5 -210.5t-212.5 -145 t-272.5 -54q-119 0 -209.5 35.5t-144.5 98.5t-81 144t-27 178zM811 600q0 101 -43.5 159t-124.5 58q-111 0 -194.5 -100t-83.5 -246q0 -100 43.5 -157.5t123.5 -57.5q111 0 195 99.5t84 244.5z" />
<glyph unicode="&#x230;" horiz-adv-x="1501" d="M768 2064l41 199h596l-41 -199h-596zM817 1589l60 281h294l-61 -281h-293zM68 596q0 162 72 320.5t189.5 278t278 193.5t328.5 74q128 0 233 -51t172 -136t103.5 -193.5t36.5 -227.5q0 -161 -71.5 -319t-189 -278t-277.5 -194.5t-327 -74.5q-103 0 -192.5 32.5t-154 90 t-110.5 134.5t-68.5 166t-22.5 185zM1137 831q0 92 -28 165.5t-91 120t-152 46.5q-101 0 -188.5 -49.5t-144.5 -128.5t-89 -174t-32 -188q0 -144 69 -240t201 -96q82 0 155.5 33t127 88.5t93 125.5t59.5 146.5t20 150.5z" />
<glyph unicode="&#x231;" d="M537 1683l41 199h596l-41 -199h-596zM586 1208l59 281h295l-61 -281h-293zM23 436q0 131 48.5 251t134 210.5t212 144.5t272.5 54q119 0 209.5 -35.5t145 -99t81.5 -144.5t27 -178q0 -130 -48.5 -249.5t-134.5 -210.5t-212.5 -145t-272.5 -54q-119 0 -209.5 35.5 t-144.5 98.5t-81 144t-27 178zM811 600q0 101 -43.5 159t-124.5 58q-111 0 -194.5 -100t-83.5 -246q0 -100 43.5 -157.5t123.5 -57.5q111 0 195 99.5t84 244.5z" />
<glyph unicode="&#x232;" horiz-adv-x="1275" d="M528 1645l41 198h596l-41 -198h-596zM436 500l-278 954h364l142 -668l432 668h364l-692 -958l-104 -496h-336z" />
<glyph unicode="&#x233;" horiz-adv-x="1087" d="M356 1264l41 198h596l-41 -198h-596zM-102 -227q123 6 180.5 31t114.5 98l59 75l-160 1098h334l59 -794l70 114q194 316 272 680h316q-56 -200 -139 -370t-283 -494l-164 -264q-143 -231 -283 -324.5t-337 -95.5z" />
<glyph unicode="&#x237;" horiz-adv-x="548" d="M-420 -311l184 223q27 -43 91 -43q43 0 76.5 31t43.5 82l232 1093h330l-228 -1069q-40 -185 -173 -302.5t-300 -117.5q-164 0 -256 103z" />
<glyph unicode="&#x259;" horiz-adv-x="1196" d="M457 -20q-217 0 -333 118t-116 305q0 119 45 236h746q2 14 2 43q0 83 -48.5 129.5t-121.5 46.5q-69 0 -135.5 -36t-98.5 -93l-262 80q90 130 236 208.5t321 78.5q108 0 195 -35.5t141.5 -97t83.5 -141.5t29 -173q0 -127 -49.5 -247.5t-137 -214.5t-217.5 -150.5 t-280 -56.5zM510 215q84 0 152.5 60.5t99.5 162.5h-412q-2 -12 -2 -41q0 -85 43.5 -133.5t118.5 -48.5z" />
<glyph unicode="&#x2b9;" horiz-adv-x="520" d="M219 1018l119 469h266l-180 -469h-205z" />
<glyph unicode="&#x2ba;" horiz-adv-x="991" d="M219 1018l119 469h266l-180 -469h-205zM690 1018l119 469h266l-180 -469h-205z" />
<glyph unicode="&#x2bb;" horiz-adv-x="468" d="M541 1495l-90 -125h94l-47 -184h-258l47 184l121 125h133z" />
<glyph unicode="&#x2bc;" horiz-adv-x="509" d="M426 1171l-184 58l139 266h281z" />
<glyph unicode="&#x2be;" horiz-adv-x="276" d="M176 1143l29 104q26 0 48.5 31.5t22.5 71.5q0 63 -26 63l26 107q59 0 91 -40.5t32 -109.5q0 -101 -63 -164t-160 -63z" />
<glyph unicode="&#x2bf;" horiz-adv-x="274" d="M336 1143q-59 0 -91 39t-32 108q0 102 63.5 166t159.5 64l-28 -107q-27 0 -48.5 -29.5t-21.5 -68.5q0 -68 27 -68z" />
<glyph unicode="&#x2c6;" horiz-adv-x="870" d="M260 1274l262 221h236l168 -221l-185 -74l-137 129l-192 -129z" />
<glyph unicode="&#x2c7;" horiz-adv-x="870" d="M289 1419l184 76l137 -129l193 129l151 -76l-262 -219h-235z" />
<glyph unicode="&#x2c8;" horiz-adv-x="458" d="M492 1587v-799h-279v799h279z" />
<glyph unicode="&#x2c9;" horiz-adv-x="825" d="M283 1272l45 198h569l-45 -198h-569z" />
<glyph unicode="&#x2cb;" horiz-adv-x="499" d="M262 1018l57 469h265l-119 -469h-203z" />
<glyph unicode="&#x2cc;" horiz-adv-x="460" d="M266 532v-798h-276v798h276z" />
<glyph unicode="&#x2d8;" horiz-adv-x="782" d="M711 1495h172q-28 -132 -126.5 -216.5t-224.5 -84.5q-109 0 -172 61.5t-63 163.5q0 22 8 76h172q-4 -28 -4 -43q0 -50 24.5 -82.5t63.5 -32.5q44 0 87 44.5t63 113.5z" />
<glyph unicode="&#x2d9;" horiz-adv-x="499" d="M246 1214l59 281h295l-61 -281h-293z" />
<glyph unicode="&#x2da;" horiz-adv-x="634" d="M522 1495q86 0 133 -35t47 -100q0 -94 -68.5 -146.5t-182.5 -52.5q-86 0 -134.5 34.5t-48.5 98.5q0 95 70.5 148t183.5 53zM408 1317q0 -27 17 -43.5t46 -16.5q37 0 66.5 24.5t29.5 59.5q0 25 -18 41.5t-47 16.5q-39 0 -66.5 -23.5t-27.5 -58.5z" />
<glyph unicode="&#x2db;" horiz-adv-x="522" d="M-61 -254q0 75 64.5 154t186.5 147h109l8 -45q-157 -115 -157 -182q0 -63 92 -66l-101 -178q-97 15 -149.5 61.5t-52.5 108.5z" />
<glyph unicode="&#x2dc;" horiz-adv-x="995" d="M532 1298q-25 0 -45 -9.5t-31.5 -23t-19.5 -28.5t-11 -24.5t-3 -12.5h-178q4 21 19 54t43.5 74.5t64 77.5t85.5 60.5t103 24.5q42 0 77.5 -15.5t56 -33.5t48.5 -33.5t58 -15.5q25 0 46.5 10.5t34.5 23.5t23.5 30t13.5 24.5t5 13.5h174q-3 -15 -18 -46.5t-44.5 -74 t-66 -80.5t-89 -64t-106.5 -26q-40 0 -75.5 14.5t-57 32.5t-50.5 32.5t-57 14.5z" />
<glyph unicode="&#x2dd;" horiz-adv-x="880" d="M418 1204l-168 25l139 266h246zM764 1204l-166 25l139 266h244z" />
<glyph unicode="&#x300;" horiz-adv-x="0" d="M-297 1495h295l45 -266l-227 -33z" />
<glyph unicode="&#x301;" horiz-adv-x="0" d="M-133 1200l-217 29l155 266h297z" />
<glyph unicode="&#x302;" horiz-adv-x="0" d="M-610 1274l262 221h235l168 -221l-184 -74l-137 129l-193 -129z" />
<glyph unicode="&#x303;" horiz-adv-x="0" d="M-463 1298q-25 0 -45 -9.5t-31.5 -23t-19.5 -28.5t-11 -24.5t-3 -12.5h-179q4 20 19 53.5t44 75t64.5 77.5t85.5 60.5t103 24.5q42 0 77.5 -15.5t55.5 -33.5t48 -33.5t58 -15.5q25 0 46.5 10.5t34.5 23.5t23.5 30t13.5 24.5t5 13.5h174q-3 -15 -18 -46.5t-44 -74 t-65.5 -80.5t-89 -64t-106.5 -26q-40 0 -75.5 14.5t-57 32.5t-50.5 32.5t-57 14.5z" />
<glyph unicode="&#x304;" horiz-adv-x="0" d="M-543 1270l41 198h596l-41 -198h-596z" />
<glyph unicode="&#x306;" horiz-adv-x="0" d="M-72 1495h172q-28 -132 -126 -216.5t-224 -84.5q-109 0 -172 61.5t-63 163.5q0 22 8 76h172q-4 -28 -4 -43q0 -50 24.5 -82.5t63.5 -32.5q44 0 86.5 44.5t62.5 113.5z" />
<glyph unicode="&#x307;" horiz-adv-x="0" d="M-254 1214l59 281h295l-61 -281h-293z" />
<glyph unicode="&#x308;" horiz-adv-x="0" d="M-649 1214l57 265h268l-55 -265h-270zM-229 1214l57 265h266l-53 -265h-270z" />
<glyph unicode="&#x309;" horiz-adv-x="0" d="M-240 1397l-59 92q145 106 262 106q85 0 117.5 -44.5t5.5 -116.5q-27 -68 -79 -118.5t-152 -111.5l-48 84q93 55 109 101q9 27 -0.5 43t-36.5 16q-26 0 -51 -11t-68 -40z" />
<glyph unicode="&#x30a;" horiz-adv-x="0" d="M-113 1495q86 0 133.5 -35t47.5 -100q0 -94 -69 -146.5t-183 -52.5q-86 0 -134.5 34.5t-48.5 98.5q0 95 70.5 148t183.5 53zM-227 1317q0 -27 17 -43.5t46 -16.5q37 0 66.5 24.5t29.5 59.5q0 25 -18 41.5t-47 16.5q-39 0 -66.5 -23.5t-27.5 -58.5z" />
<glyph unicode="&#x30b;" horiz-adv-x="0" d="M-463 1204l-168 25l139 266h246zM-117 1204l-166 25l140 266h243z" />
<glyph unicode="&#x30c;" horiz-adv-x="0" d="M-582 1419l185 76l137 -129l192 129l152 -76l-262 -219h-236z" />
<glyph unicode="&#x30f;" horiz-adv-x="0" d="M-575 1495h245l27 -266l-176 -33zM-227 1495h243l29 -266l-176 -33z" />
<glyph unicode="&#x311;" horiz-adv-x="0" d="M-188 1495q109 0 171 -65.5t62 -167.5q0 -18 -8 -68h-172q6 35 6 61q0 97 -90 97q-118 0 -152 -158h-170q28 132 127.5 216.5t225.5 84.5z" />
<glyph unicode="&#x312;" horiz-adv-x="0" d="M72 1495l-90 -125h94l-47 -184h-258l47 184l121 125h133z" />
<glyph unicode="&#x31b;" horiz-adv-x="0" d="M-463 977l49 223q76 0 123 10t78 37q12 11 20.5 22.5t15 28.5t9.5 25.5t8.5 32.5t7.5 30h230q-9 -46 -18 -78t-26 -74.5t-44.5 -80t-65.5 -68.5q-58 -49 -166.5 -78.5t-220.5 -29.5z" />
<glyph unicode="&#x323;" horiz-adv-x="0" d="M-600 -418l59 281h295l-59 -281h-295z" />
<glyph unicode="&#x324;" horiz-adv-x="0" d="M-1040 -422l61 264h264l-61 -264h-264zM-645 -422l61 264h265l-62 -264h-264z" />
<glyph unicode="&#x326;" horiz-adv-x="0" d="M-549 -436l94 137h-98l45 203h270l-41 -203l-124 -137h-146z" />
<glyph unicode="&#x327;" horiz-adv-x="0" d="M-528 -430q-110 0 -205 65l115 170q35 -41 81 -41q42 0 71.5 29t29.5 78q0 63 -47 129l116 66q109 -117 109 -234q0 -107 -72.5 -184.5t-197.5 -77.5z" />
<glyph unicode="&#x328;" horiz-adv-x="0" d="M-584 -254q0 75 65 154t187 147h109l8 -45q-158 -116 -158 -182q0 -63 92 -66l-100 -178q-97 15 -150 61.5t-53 108.5z" />
<glyph unicode="&#x32e;" horiz-adv-x="0" d="M-539 -408q-119 0 -174 84.5t-24 217.5h168q-15 -65 4 -111.5t61 -46.5q39 0 80 45t62 113h163q-31 -133 -126 -217.5t-214 -84.5z" />
<glyph unicode="&#x331;" horiz-adv-x="0" d="M-866 -356l45 198h569l-45 -198h-569z" />
<glyph unicode="&#x335;" horiz-adv-x="0" d="M-705 492l46 192h589l-45 -192h-590z" />
<glyph unicode="&#x3c0;" horiz-adv-x="1484" d="M782 268v523h-211v-791h-323v791h-150v278h1192v-278h-182v-408q0 -123 106 -123q54 0 107 29l45 -246q-63 -28 -143 -44.5t-148 -16.5q-140 0 -216.5 74t-76.5 212z" />
<glyph unicode="&#x400;" horiz-adv-x="1179" d="M557 1874h295l45 -266l-227 -33zM317 1454h957l-64 -295h-620l-60 -282h533l-57 -273h-533l-67 -309h638l-61 -295h-975z" />
<glyph unicode="&#x401;" horiz-adv-x="1179" d="M471 1593l57 265h269l-56 -265h-270zM891 1593l57 265h266l-53 -265h-270zM317 1454h957l-64 -295h-620l-60 -282h533l-57 -273h-533l-67 -309h638l-61 -295h-975z" />
<glyph unicode="&#x402;" horiz-adv-x="1677" d="M1124 948q234 0 353.5 -133t87.5 -352q-34 -229 -188.5 -355t-395.5 -126q-133 0 -246 38l119 271q67 -31 135 -31q103 0 175.5 53t90.5 164q13 100 -48 157.5t-167 57.5q-141 0 -286 -80l-129 -612h-336l246 1159h-392l62 295h1149l-64 -295h-420l-59 -278 q146 67 313 67z" />
<glyph unicode="&#x403;" horiz-adv-x="1089" d="M934 1585l-217 29l155 266h297zM-4 0l307 1454h918l-62 -295h-581l-246 -1159h-336z" />
<glyph unicode="&#x404;" horiz-adv-x="1458" d="M750 287q104 0 203.5 49.5t156.5 150.5l252 -161q-87 -155 -278.5 -246.5t-385.5 -91.5q-124 0 -231.5 42t-183.5 115t-127.5 168t-69.5 205t-2 221q19 133 87.5 261.5t174.5 231.5t256.5 166.5t317.5 63.5q201 0 342 -86t196 -231l-282 -180q-20 73 -72 119t-110 62.5 t-126 16.5q-140 0 -243 -79t-158 -205h461l-56 -273h-452q14 -139 102 -229t228 -90z" />
<glyph unicode="&#x405;" horiz-adv-x="1216" d="M-55 164l209 293q8 -18 63 -56.5t155 -76t197 -37.5q93 0 137 34.5t44 94.5q0 19 -6.5 35.5t-24 30.5t-32.5 24t-47 23t-51.5 20t-62.5 21t-65 22q-152 54 -222.5 127.5t-70.5 189.5q0 128 53 235t141 176.5t199.5 107.5t231.5 38q247 0 469 -159l-205 -279q-5 14 -52 46 t-129 62.5t-157 30.5q-86 0 -134 -37.5t-48 -105.5q0 -28 14 -49t48.5 -39t69 -30.5t98.5 -33.5q9 -3 13 -4q86 -29 143.5 -57t107.5 -68.5t73.5 -96.5t23.5 -130q0 -112 -36.5 -203.5t-97 -151.5t-142.5 -101t-170 -58.5t-182 -17.5q-153 0 -301.5 48t-253.5 132z" />
<glyph unicode="&#x406;" horiz-adv-x="614" d="M317 1454h336l-309 -1454h-336z" />
<glyph unicode="&#x407;" horiz-adv-x="614" d="M182 1593l58 265h268l-55 -265h-271zM602 1593l57 265h267l-54 -265h-270zM317 1454h336l-309 -1454h-336z" />
<glyph unicode="&#x408;" horiz-adv-x="989" d="M-92 68l129 274q18 -20 79.5 -43t135.5 -23q54 0 94.5 17.5t70 48t53.5 88.5t41.5 121t39.5 164l158 739h338l-158 -739q-22 -103 -43 -180.5t-52.5 -158.5t-68 -138t-88.5 -109t-115.5 -83.5t-147.5 -50t-186 -18.5q-172 0 -280 91z" />
<glyph unicode="&#x409;" horiz-adv-x="2162" d="M-37 -12l60 291q93 0 156 61.5t122 215t133 452.5l111 446h999l-104 -502h180q242 0 359 -126.5t85 -346.5q-29 -218 -181.5 -348.5t-385.5 -130.5h-596l246 1159h-352l-62 -250q-47 -190 -90 -324t-94.5 -240.5t-106 -171.5t-127.5 -108t-156.5 -59.5t-195.5 -17.5z M1294 276h195q99 0 160 55.5t73 147.5q11 84 -31 140.5t-141 56.5h-170z" />
<glyph unicode="&#x40a;" horiz-adv-x="2117" d="M8 0l309 1454h336l-118 -559h509l119 559h336l-108 -512h182q241 0 359 -125t87 -342t-183.5 -346t-385.5 -129h-596l127 602h-510l-127 -602h-336zM1249 276h193q99 0 160 54.5t73 144.5q11 82 -31 137.5t-141 55.5h-172z" />
<glyph unicode="&#x40b;" horiz-adv-x="1585" d="M1049 940q232 0 342 -130t71 -394l-86 -416h-332l95 442q25 120 -25.5 185t-167.5 65q-138 0 -282 -84l-129 -608h-338l247 1167h-301l62 287h1128l-59 -287h-494l-63 -297q154 70 332 70z" />
<glyph unicode="&#x40c;" horiz-adv-x="1411" d="M1004 1585l-218 29l156 266h297zM8 0l307 1454h336l-119 -563h93l520 563h403l-680 -682l377 -772h-381l-262 588h-135l-123 -588h-336z" />
<glyph unicode="&#x40d;" horiz-adv-x="1505" d="M715 1874h295l45 -266l-228 -33zM8 0l307 1454h338l-209 -985l785 985h315l-307 -1454h-338l203 944l-772 -944h-322z" />
<glyph unicode="&#x40e;" horiz-adv-x="1363" d="M860 1559q-182 0 -279 85.5t-75 231.5h256q-9 -54 26.5 -86.5t98.5 -32.5q65 0 112 32t54 87h254q-20 -146 -141.5 -231.5t-305.5 -85.5zM209 -10l57 276h148q82 0 141 84l12 17l-407 1087h362l223 -764l404 764h342l-700 -1221q-83 -135 -177.5 -189t-244.5 -54h-160z " />
<glyph unicode="&#x40f;" horiz-adv-x="1466" d="M401 -279l60 279h-453l309 1454h336l-245 -1159h514l245 1159h336l-307 -1454h-451l-59 -279h-285z" />
<glyph unicode="&#x410;" horiz-adv-x="1312" d="M690 1454h305l189 -1454h-344l-31 326h-414l-166 -326h-346zM803 557l-41 514l-266 -514h307z" />
<glyph unicode="&#x411;" horiz-adv-x="1394" d="M8 0l309 1454h1078l-60 -289h-743l-62 -291h357q242 0 353 -114t81 -314q-31 -207 -172.5 -326.5t-374.5 -119.5h-766zM406 285h362q93 0 145 50t64 122q12 70 -24 113.5t-138 43.5h-340z" />
<glyph unicode="&#x412;" horiz-adv-x="1353" d="M317 1454h777q115 0 180 -87.5t65 -211.5q0 -127 -75.5 -241.5t-204.5 -168.5q91 -29 140.5 -103.5t49.5 -182.5q0 -112 -46.5 -201.5t-126 -144.5t-180 -84t-214.5 -29h-674zM825 866q64 0 114 51t50 140q0 51 -24.5 80.5t-63.5 29.5h-309l-64 -301h297zM743 285 q68 0 121.5 56t53.5 138q0 53 -26.5 88t-68.5 35h-352l-65 -317h337z" />
<glyph unicode="&#x413;" horiz-adv-x="1089" d="M-4 0l307 1454h918l-62 -295h-581l-246 -1159h-336z" />
<glyph unicode="&#x414;" horiz-adv-x="1681" d="M-80 -279l121 574h96q101 6 179 181t161 568l86 410h1024l-246 -1159h197l-121 -574h-293l58 279h-910l-59 -279h-293zM524 295h482l184 864h-373l-37 -178q-62 -302 -117 -458t-139 -228z" />
<glyph unicode="&#x415;" horiz-adv-x="1179" d="M317 1454h957l-64 -295h-620l-60 -282h533l-57 -273h-533l-67 -309h638l-61 -295h-975z" />
<glyph unicode="&#x416;" horiz-adv-x="2250" d="M-94 0l669 754l-378 700h352l295 -563h131l119 563h336l-119 -563h100l514 563h373l-641 -696l438 -758h-379l-332 588h-139l-123 -588h-336l123 588h-90l-530 -588h-383z" />
<glyph unicode="&#x417;" horiz-adv-x="1318" d="M557 -14q-189 0 -329 75t-208 211l275 156q37 -79 113.5 -121.5t183.5 -42.5q229 0 252 170q13 81 -36.5 128.5t-162.5 47.5h-129l53 252h113q93 0 144.5 40.5t60.5 111.5q11 74 -30 113.5t-146 39.5q-103 0 -184 -39t-128 -108l-217 172q230 272 580 272 q246 0 367 -103.5t94 -297.5q-16 -102 -76.5 -186t-167.5 -129q115 -36 167.5 -128.5t33.5 -218.5q-19 -132 -106 -227t-219.5 -141.5t-297.5 -46.5z" />
<glyph unicode="&#x418;" horiz-adv-x="1505" d="M8 0l307 1454h338l-209 -985l785 985h315l-307 -1454h-338l203 944l-772 -944h-322z" />
<glyph unicode="&#x419;" horiz-adv-x="1505" d="M940 1559q-182 0 -279 85.5t-75 231.5h256q-9 -54 26.5 -86.5t98.5 -32.5q65 0 112 32t54 87h253q-20 -146 -141 -231.5t-305 -85.5zM8 0l307 1454h338l-209 -985l785 985h315l-307 -1454h-338l203 944l-772 -944h-322z" />
<glyph unicode="&#x41a;" horiz-adv-x="1411" d="M8 0l307 1454h336l-119 -563h93l520 563h403l-680 -682l377 -772h-381l-262 588h-135l-123 -588h-336z" />
<glyph unicode="&#x41b;" horiz-adv-x="1517" d="M-37 -12l60 291q93 0 156 61.5t122 215t133 452.5l111 446h1009l-307 -1454h-336l246 1159h-362l-62 -250q-48 -190 -91 -324t-94.5 -240.5t-105.5 -171.5t-127.5 -108t-156.5 -59.5t-195 -17.5z" />
<glyph unicode="&#x41c;" horiz-adv-x="1689" d="M317 1454h365l180 -760l504 760h365l-310 -1454h-338l187 870l-416 -632h-180l-144 632l-186 -870h-336z" />
<glyph unicode="&#x41d;" horiz-adv-x="1476" d="M317 1454h336l-121 -563h527l121 563h336l-310 -1454h-336l127 596h-526l-127 -596h-336z" />
<glyph unicode="&#x41e;" horiz-adv-x="1570" d="M702 -12q-127 0 -235.5 41t-185 112t-127.5 164.5t-69 202.5t-3 221q20 143 94.5 276.5t184.5 234.5t256 161.5t301 60.5q158 0 286.5 -63.5t206 -167t111 -236.5t14.5 -272q-20 -144 -94 -278t-183.5 -235t-255.5 -161.5t-301 -60.5zM750 287q92 0 172.5 38t135.5 101.5 t90.5 141.5t47.5 161q17 117 -13.5 214t-111.5 158.5t-201 61.5q-93 0 -173 -37.5t-135.5 -100t-91.5 -139.5t-48 -161q-12 -85 3 -163t54.5 -139.5t109.5 -98.5t161 -37z" />
<glyph unicode="&#x41f;" horiz-adv-x="1488" d="M8 0l307 1454h1211l-307 -1454h-336l245 1159h-538l-244 -1159h-338z" />
<glyph unicode="&#x420;" horiz-adv-x="1232" d="M317 1454h592q108 0 192 -59.5t126.5 -152t42.5 -198.5q0 -103 -45.5 -207t-120 -185t-179.5 -132t-216 -51h-267l-98 -469h-336zM750 762q67 0 121.5 71.5t54.5 182.5q0 69 -30 106t-73 37h-233l-84 -397h244z" />
<glyph unicode="&#x421;" horiz-adv-x="1452" d="M698 -12q-124 0 -231.5 42t-183.5 115t-127.5 168t-69.5 205t-2 221q19 133 87.5 261.5t174.5 231.5t256.5 166.5t317.5 63.5q201 0 342 -86t196 -231l-282 -180q-20 73 -72 119t-110 62.5t-126 16.5q-94 0 -174.5 -38t-135 -101t-89 -139.5t-45.5 -157.5 q-18 -116 15 -216t115 -162t196 -62q104 0 203.5 49.5t156.5 150.5l252 -161q-87 -155 -278.5 -246.5t-385.5 -91.5z" />
<glyph unicode="&#x422;" horiz-adv-x="1220" d="M559 1159h-416l62 295h1165l-61 -295h-414l-248 -1159h-336z" />
<glyph unicode="&#x423;" horiz-adv-x="1363" d="M209 -10l57 276h148q82 0 141 84l12 17l-407 1087h362l223 -764l404 764h342l-700 -1221q-83 -135 -177.5 -189t-244.5 -54h-160z" />
<glyph unicode="&#x424;" horiz-adv-x="1703" d="M1178 1389q115 -13 213 -60t170 -123t104.5 -189t13.5 -245q-27 -177 -143.5 -318t-279.5 -217t-341 -83l-32 -154h-318l33 158q-119 11 -220 59t-172 125.5t-103 189t-13 240.5q22 143 96 261.5t179.5 195t233 119.5t261.5 45l29 137h317zM397 772q-26 -165 51.5 -263 t210.5 -114l158 756q-161 -6 -277 -105.5t-143 -273.5zM1370 772q24 163 -49.5 262t-204.5 115l-158 -754q151 11 269 110t143 267z" />
<glyph unicode="&#x425;" horiz-adv-x="1280" d="M483 717l-317 737h364l183 -502l393 502h362l-630 -737l305 -717h-363l-170 481l-372 -481h-365z" />
<glyph unicode="&#x426;" horiz-adv-x="1581" d="M1022 -279l59 279h-1073l309 1454h336l-247 -1159h497l248 1159h336l-246 -1159h197l-121 -574h-295z" />
<glyph unicode="&#x427;" horiz-adv-x="1415" d="M1118 1454h336l-309 -1454h-336l115 535q-134 -54 -301 -54q-262 0 -376 126t-54 372l112 475h330l-117 -481q-26 -117 26 -169t193 -52q132 0 244 53z" />
<glyph unicode="&#x428;" horiz-adv-x="2054" d="M8 0l307 1454h338l-245 -1159h385l243 1159h336l-244 -1159h383l246 1159h336l-307 -1454h-1778z" />
<glyph unicode="&#x429;" horiz-adv-x="2185" d="M1628 -279l60 279h-1680l307 1454h338l-247 -1159h385l245 1159h336l-246 -1159h383l248 1159h336l-248 -1159h199l-123 -574h-293z" />
<glyph unicode="&#x42a;" horiz-adv-x="1486" d="M213 0l250 1178h-318l60 276h651l-106 -502h208q241 0 359 -127t86 -346q-33 -219 -184 -349t-383 -130h-623zM608 276h219q100 0 161 55.5t73 147.5q11 84 -31 140.5t-141 56.5h-197z" />
<glyph unicode="&#x42b;" horiz-adv-x="1873" d="M8 0l307 1454h338l-106 -502h186q242 0 359.5 -127t85.5 -346q-31 -219 -183 -349t-385 -130h-602zM1577 1454h336l-309 -1454h-336zM406 276h196q100 0 161 55.5t73 147.5q11 84 -31 140.5t-141 56.5h-177z" />
<glyph unicode="&#x42c;" horiz-adv-x="1337" d="M8 0l307 1454h338l-106 -502h248q241 0 358 -126.5t86 -346.5q-31 -219 -182.5 -349t-384.5 -130h-664zM406 276h258q99 0 159 55t74 148q11 84 -31 140.5t-141 56.5h-238z" />
<glyph unicode="&#x42d;" horiz-adv-x="1443" d="M801 1462q112 0 208.5 -28t166 -78t123 -119t80 -151t37 -174.5t-6.5 -188.5q-21 -148 -91.5 -281.5t-177 -234t-253 -160t-309.5 -59.5q-406 0 -558 336l302 163q33 -94 110.5 -147t190.5 -53q152 0 259.5 88.5t157.5 232.5h-503l55 269h481q-14 135 -95 210.5 t-226 75.5q-113 0 -204 -53t-151 -149l-239 186q121 151 276.5 233t366.5 82z" />
<glyph unicode="&#x42e;" horiz-adv-x="2162" d="M1509 1462q127 0 236 -41t185.5 -112.5t127 -165t68 -201.5t2.5 -219q-20 -144 -94 -278t-183.5 -235t-255.5 -161.5t-301 -60.5q-138 0 -254.5 48.5t-194.5 132t-124 191t-53 228.5h-199l-123 -588h-338l307 1454h338l-123 -573h181q43 120 122 225.5t182 184.5 t231.5 125t262.5 46zM1788 729q17 117 -13.5 214t-111.5 158.5t-201 61.5q-93 0 -173 -37.5t-135.5 -100t-91.5 -139.5t-48 -161q-12 -85 3 -163t54 -139.5t109 -98.5t161 -37q92 0 172.5 38t136 101.5t91 141.5t47.5 161z" />
<glyph unicode="&#x42f;" horiz-adv-x="1386" d="M-51 0l491 639q-133 49 -193 162t-32 260q37 176 180.5 284.5t343.5 108.5h684l-307 -1454h-336l111 530h-125h-41l-395 -530h-381zM707 817h245l74 350h-262q-83 0 -145 -42.5t-76 -131.5q-12 -81 30 -128.5t134 -47.5z" />
<glyph unicode="&#x430;" horiz-adv-x="1298" d="M23 416q0 133 48 258.5t127.5 217.5t187.5 148t222 56q103 0 178 -53.5t103 -143.5l37 170h329l-151 -700q-4 -36 -4 -43q0 -25 12 -37t39 -13l-57 -276q-81 -16 -140 -16q-174 0 -174 137q0 19 6 57q-73 -97 -174.5 -147.5t-208.5 -50.5q-175 0 -277.5 122t-102.5 314z M786 406l48 225q-10 81 -61 133.5t-118 52.5q-112 0 -199 -107t-87 -241q0 -94 48.5 -153.5t133.5 -59.5q61 0 124.5 40.5t110.5 109.5z" />
<glyph unicode="&#x431;" horiz-adv-x="1308" d="M606 -20q-286 0 -413 172t-72 485q35 200 94.5 344.5t148 240.5t198.5 149.5t255 76.5q33 7 93 16.5t92 16t66.5 25t49.5 48.5l215 -88q-14 -61 -37.5 -103t-55.5 -70.5t-88 -48.5t-118 -32.5t-162 -25.5q-131 -18 -213.5 -61.5t-131 -113.5t-89.5 -190q68 80 169.5 125 t226.5 45q206 0 319 -134.5t82 -344.5q-33 -237 -199.5 -384.5t-429.5 -147.5zM631 240q104 0 176.5 67t89.5 180q14 107 -39 175.5t-156 68.5q-99 0 -174 -68.5t-90 -175.5q-17 -109 36 -178t157 -69z" />
<glyph unicode="&#x432;" horiz-adv-x="1202" d="M946 551q160 -74 160 -219q0 -108 -74 -188.5t-199 -122t-282 -41.5q-248 1 -368 121t-111 348q13 313 191.5 480t475.5 167q179 0 276 -73.5t97 -205.5q0 -161 -166 -266zM719 868q-103 0 -184 -69t-119 -193q74 -4 104 -4q168 1 244 51t76 123q0 41 -29 66.5t-92 25.5z M600 203q90 -2 146.5 36.5t56.5 112.5q0 73 -70 117q-109 -25 -225 -25q-20 0 -117 5v-3q-10 -122 36.5 -182.5t172.5 -60.5z" />
<glyph unicode="&#x433;" horiz-adv-x="1136" d="M506 -18q-219 0 -321 82.5t-99 226.5q3 128 108 205.5t347 142.5q96 31 131.5 62.5t38.5 82.5q1 40 -32 62t-89 22q-65 0 -132.5 -32.5t-107.5 -87.5l-223 131q174 219 520 219q192 0 289.5 -80.5t95.5 -216.5q-3 -122 -86.5 -194.5t-273.5 -127.5q-99 -30 -154 -59 t-73 -55t-19 -62q-3 -39 36.5 -60.5t112.5 -21.5q66 0 130.5 31.5t111.5 87.5l199 -164q-90 -93 -212 -143.5t-298 -50.5z" />
<glyph unicode="&#x434;" horiz-adv-x="1286" d="M563 -20q-93 0 -171.5 20.5t-135 58t-99 88.5t-64 112.5t-29.5 130.5t4 142q14 104 60 196.5t118 163t172.5 111.5t216.5 41q124 0 213 -46.5t131 -129.5q9 257 -148 340q-139 71 -438 35v250q376 46 604 -88q248 -148 248 -477q0 -344 -127 -592q-85 -167 -225 -261.5 t-330 -94.5zM588 236q101 0 177 77.5t93 200.5q17 124 -37 201.5t-155 77.5q-102 0 -178 -77t-93 -202q-19 -123 36.5 -200.5t156.5 -77.5z" />
<glyph unicode="&#x435;" horiz-adv-x="1198" d="M596 219q81 0 137.5 37t83.5 84l266 -84q-32 -51 -77.5 -96t-110 -87.5t-154.5 -67.5t-192 -25q-217 0 -347 135t-132 350q-3 173 81 317.5t235 229t335 84.5q183 0 297 -82t121 -226q8 -176 -147.5 -267t-471.5 -91q-73 0 -112 2q3 -213 188 -213zM676 856 q-77 0 -141.5 -60t-98.5 -161h70q173 0 242.5 29t66.5 94q-3 44 -41.5 71t-97.5 27z" />
<glyph unicode="&#x436;" horiz-adv-x="1714" d="M-90 0q90 186 211 330.5t254 228.5l-260 516h325l181 -407h92l88 407h325l-88 -407h88q177 126 308 407h331q-81 -165 -186.5 -298.5t-218.5 -227.5l254 -549h-348l-187 426h-90l-92 -426h-326l91 426h-54q-204 -109 -354 -426h-344z" />
<glyph unicode="&#x437;" horiz-adv-x="1028" d="M426 -18q-350 0 -457 237l279 119q55 -96 196 -96q82 0 130.5 29.5t56.5 78.5q8 45 -26 72.5t-107 28.5h-127l43 198h112q52 0 85.5 24t39.5 64q8 45 -24.5 71t-104.5 26q-118 0 -190 -91l-228 131q78 104 199.5 162t271.5 58q185 0 289.5 -82.5t83.5 -231.5 q-10 -73 -55 -133t-125 -86q95 -29 135.5 -97.5t26.5 -164.5q-23 -151 -162 -234t-342 -83z" />
<glyph unicode="&#x438;" horiz-adv-x="1241" d="M33 238q0 66 18 149l148 688h325l-131 -616q-10 -52 -10 -80q0 -123 102 -123q128 0 244 156l141 663h328l-149 -706q-7 -31 -7 -43q0 -47 54 -50l-60 -276q-79 -16 -139 -16q-82 0 -129 32.5t-47 98.5q0 9 10 71q-180 -206 -446 -206q-124 0 -188 66t-64 192z" />
<glyph unicode="&#x439;" horiz-adv-x="1241" d="M721 1182q-153 0 -245.5 83t-90.5 212h170q0 -66 42.5 -109t125.5 -43q151 0 172 152h172q-2 -129 -97 -212t-249 -83zM33 238q0 66 18 149l148 688h325l-131 -616q-10 -52 -10 -80q0 -123 102 -123q128 0 244 156l141 663h328l-149 -706q-7 -31 -7 -43q0 -47 54 -50 l-60 -276q-79 -16 -139 -16q-82 0 -129 32.5t-47 98.5q0 9 10 71q-180 -206 -446 -206q-124 0 -188 66t-64 192z" />
<glyph unicode="&#x43a;" horiz-adv-x="1140" d="M0 0l227 1075h326l-86 -403h86q183 130 307 403h334q-157 -320 -408 -526l256 -549h-350l-186 424h-90l-90 -424h-326z" />
<glyph unicode="&#x43b;" d="M-41 0q166 531 637 1075h338l135 -1075h-340l-45 797q-143 -213 -230 -387t-175 -410h-320z" />
<glyph unicode="&#x43c;" horiz-adv-x="1509" d="M0 0l227 1075h340l172 -567l416 567h356l-229 -1075h-311l135 633l-322 -445h-204l-136 445l-135 -633h-309z" />
<glyph unicode="&#x43d;" horiz-adv-x="1247" d="M0 0l227 1075h328l-86 -401h367l86 401h327l-229 -1075h-328l90 426h-364l-90 -426h-328z" />
<glyph unicode="&#x43e;" horiz-adv-x="1288" d="M565 -20q-134 0 -237.5 45.5t-163.5 122.5t-84.5 177t-9.5 212t68 212.5t135 178t198.5 123t249.5 45.5q134 0 238 -45.5t164.5 -123t85.5 -178t10 -212.5q-15 -111 -68 -211.5t-135.5 -177.5t-199.5 -122.5t-251 -45.5zM604 240q103 0 185.5 84t99.5 213 q18 130 -42 213.5t-163 83.5t-185.5 -83.5t-99.5 -213.5q-18 -130 42 -213.5t163 -83.5z" />
<glyph unicode="&#x43f;" horiz-adv-x="1216" d="M0 0l227 1075h992l-230 -1075h-327l176 823h-336l-174 -823h-328z" />
<glyph unicode="&#x440;" horiz-adv-x="1265" d="M207 1075h287l-39 -174q161 195 381 195q170 0 271 -124.5t101 -314.5q0 -176 -80 -333t-213 -250.5t-282 -93.5q-113 0 -187.5 51t-101.5 143l-131 -610h-328zM866 604q0 94 -49.5 153.5t-134.5 59.5q-60 0 -123 -39.5t-110 -107.5l-48 -221q14 -83 63.5 -138t115.5 -55 q110 0 198 108t88 240z" />
<glyph unicode="&#x441;" horiz-adv-x="1122" d="M23 432q0 126 50 245.5t137.5 212.5t217.5 149.5t279 56.5q174 0 281 -76.5t142 -208.5l-337 -96q-39 102 -146 102q-112 0 -198.5 -100.5t-86.5 -247.5q0 -95 45.5 -154t118.5 -59q54 0 106.5 29.5t84.5 76.5l299 -98q-90 -129 -232 -206.5t-311 -77.5q-145 0 -249 62.5 t-152.5 163t-48.5 226.5z" />
<glyph unicode="&#x442;" horiz-adv-x="1837" d="M209 1075h295l-39 -180q73 94 183.5 147.5t228.5 53.5q229 0 243 -209q79 100 186.5 154.5t223.5 54.5q242 0 242 -246q0 -62 -21 -162l-147 -688h-328l129 604q10 55 10 86q0 58 -24.5 87.5t-65.5 29.5q-60 0 -128.5 -54.5t-111.5 -136.5l-129 -616h-327l129 604 q10 55 10 86q0 58 -24.5 87.5t-67.5 29.5q-59 0 -127 -54.5t-111 -136.5l-131 -616h-327z" />
<glyph unicode="&#x443;" horiz-adv-x="1087" d="M-102 -227q123 6 180.5 31t114.5 98l59 75l-160 1098h334l59 -794l70 114q194 316 272 680h316q-56 -200 -139 -370t-283 -494l-164 -264q-143 -231 -283 -324.5t-337 -95.5z" />
<glyph unicode="&#x444;" horiz-adv-x="1566" d="M399 -436l93 436l-43 2q-114 6 -202.5 52.5t-139 120t-70 167t-4.5 195.5q16 109 66 205.5t127 171t187.5 118t239.5 43.5h68l88 420h326l-88 -420l30 -2q153 -11 256.5 -87.5t144 -192.5t19.5 -256q-16 -108 -66.5 -204.5t-128.5 -171t-188 -118t-237 -43.5h-60 l-92 -436h-326zM528 248h35l123 581h-65q-98 0 -173 -81.5t-94 -210.5q-19 -128 30.5 -208.5t143.5 -80.5zM852 248h59q97 0 171.5 80.5t93.5 208.5q20 130 -29.5 211t-145.5 81h-26z" />
<glyph unicode="&#x445;" horiz-adv-x="1069" d="M340 537l-234 538h332l111 -303l10 -39l25 39l245 303h330l-465 -538l244 -537h-334l-119 301l-10 39l-24 -39l-246 -301h-336z" />
<glyph unicode="&#x446;" horiz-adv-x="1304" d="M784 -264l58 264q-60 11 -90.5 62t-18.5 124q-176 -206 -440 -206q-128 0 -193 68t-65 196q0 58 16 143l148 688h325l-133 -629q-10 -45 -10 -73q0 -117 104 -117q128 0 244 156l141 663h328l-145 -686q-13 -64 2.5 -87t70.5 -23h68l-117 -543h-293z" />
<glyph unicode="&#x447;" horiz-adv-x="1157" d="M592 0l84 362q-114 -49 -264 -49q-170 0 -254.5 94t-48.5 263l88 405h327l-78 -362q-17 -80 16.5 -118t104.5 -38q78 0 160 35l102 483h328l-227 -1075h-338z" />
<glyph unicode="&#x448;" horiz-adv-x="1837" d="M1628 0h-295l39 180q-73 -94 -183 -147t-228 -53q-230 0 -244 208q-79 -99 -186.5 -153.5t-223.5 -54.5q-241 0 -241 245q0 67 20 162l147 688h328l-129 -604q-10 -55 -10 -86q0 -58 24.5 -87.5t65.5 -29.5q60 0 128.5 54.5t111.5 136.5l129 616h327l-129 -604 q-10 -55 -10 -86q0 -58 24.5 -87.5t67.5 -29.5q59 0 127 54.5t111 136.5l131 616h328z" />
<glyph unicode="&#x449;" horiz-adv-x="1929" d="M1409 -264l55 264q-69 12 -99 60t-19 126q-73 -97 -183.5 -151.5t-228.5 -54.5q-234 0 -252 204q-77 -97 -182.5 -150.5t-220.5 -53.5q-250 0 -246 251q0 61 18 156l148 688h327l-129 -604q-10 -55 -10 -88q0 -56 24 -85.5t66 -29.5q62 0 127 50.5t113 140.5l129 616h328 l-130 -604q-8 -41 -8 -86q0 -117 90 -117q60 0 126.5 52.5t111.5 138.5l131 616h328l-146 -686q-13 -64 2.5 -87t69.5 -23h68l-115 -543h-293z" />
<glyph unicode="&#x44a;" horiz-adv-x="1284" d="M692 -18q-220 0 -340 88t-119 262q0 225 191 495h-322l56 248h637q-13 -33 -53 -134t-62 -159q41 2 115 2q221 0 321 -104.5t72 -298.5q-15 -101 -60.5 -178.5t-113 -125t-149 -71.5t-173.5 -24zM713 248q72 0 120.5 38.5t57.5 106.5q8 77 -32 124.5t-142 47.5 q-55 0 -119 -6q-46 -75 -49 -149q-7 -79 38 -120.5t126 -41.5z" />
<glyph unicode="&#x44b;" horiz-adv-x="1642" d="M610 778q100 0 179.5 -22t138.5 -67.5t84.5 -124t11.5 -183.5q-16 -110 -63.5 -190t-119.5 -124.5t-154.5 -64.5t-180.5 -20q-116 0 -205.5 26t-151 78.5t-85 138.5t-3.5 201q11 61 25 124t33 139.5t31 121.5t37.5 140t33.5 124h328l-80 -297h141zM1315 1075h327 l-229 -1075h-328zM725 393q11 70 -31 111t-133 41h-147q-13 -60 -27 -137q-14 -76 34 -119t130 -43q73 0 120 39t54 108z" />
<glyph unicode="&#x44c;" horiz-adv-x="1153" d="M623 778q83 0 153 -13.5t128 -43.5t95.5 -75t53 -112.5t2.5 -152.5q-16 -110 -65.5 -190t-125 -124.5t-163 -64.5t-191.5 -20q-117 0 -207 26t-152.5 78.5t-86.5 138.5t-3 201q11 61 25 124t33 139.5t31 121.5t37.5 140t33.5 124h328l-80 -297h154zM758 393 q12 70 -36.5 111t-150.5 41h-157q-13 -60 -27 -137q-14 -76 35 -119t133 -43q86 0 140 39t63 108z" />
<glyph unicode="&#x44d;" horiz-adv-x="1214" d="M649 1096q136 0 241 -46t164.5 -123.5t83 -177.5t7.5 -210q-16 -112 -63.5 -210.5t-125 -177.5t-194 -125t-256.5 -46q-181 0 -304.5 71t-176.5 199l278 121q30 -66 84.5 -98.5t144.5 -32.5q92 0 170 58t115 153h-358l37 186h348q-12 92 -75.5 144.5t-162.5 52.5 q-158 0 -252 -123l-227 131q86 119 222 186.5t300 67.5z" />
<glyph unicode="&#x44e;" horiz-adv-x="1810" d="M1245 1096q134 0 238 -45.5t164.5 -123t85.5 -178t10 -212.5t-68 -212t-135 -177t-199 -122.5t-251 -45.5q-235 0 -366 129t-136 327l-80 -176l-113 315l-2 -260l-303 -133l242 760l266 -41l-135 -262l129 -117l2 15q15 112 68 212.5t135 178t198.5 123t249.5 45.5z M1413 537q18 130 -42 213.5t-163 83.5t-185 -83.5t-99 -213.5q-18 -130 41.5 -213.5t162.5 -83.5t185.5 84t99.5 213z" />
<glyph unicode="&#x44f;" horiz-adv-x="1212" d="M-16 0l346 438q-92 46 -134.5 128t-25.5 196q21 156 161.5 242t360.5 86q276 0 477 -93l-211 -997h-315l76 354h-113l-258 -354h-364zM606 586h162l49 235q-65 21 -151 21q-89 0 -142.5 -32t-60.5 -93q-8 -58 29 -94.5t114 -36.5z" />
<glyph unicode="&#x450;" horiz-adv-x="1198" d="M846 1229l-228 -33l-112 299h295zM596 219q81 0 137.5 37t83.5 84l266 -84q-32 -51 -77.5 -96t-110 -87.5t-154.5 -67.5t-192 -25q-217 0 -347 135t-132 350q-3 173 81 317.5t235 229t335 84.5q183 0 297 -82t121 -226q8 -176 -147.5 -267t-471.5 -91q-73 0 -112 2 q3 -213 188 -213zM676 856q-77 0 -141.5 -60t-98.5 -161h70q173 0 242.5 29t66.5 94q-3 44 -41.5 71t-97.5 27z" />
<glyph unicode="&#x451;" horiz-adv-x="1198" d="M745 1479l-55 -265h-270l57 265h268zM1163 1479l-53 -265h-270l57 265h266zM1139 788q8 -176 -147.5 -267t-471.5 -91q-73 0 -112 2q3 -213 188 -213q81 0 137.5 37t83.5 84l266 -84q-32 -51 -77.5 -96t-110 -87.5t-154.5 -67.5t-192 -25q-217 0 -347 135t-132 350 q-3 173 81 317.5t235 229t335 84.5q183 0 297 -82t121 -226zM436 635h70q173 0 242.5 29t66.5 94q-3 44 -41.5 71t-97.5 27q-77 0 -141.5 -60t-98.5 -161z" />
<glyph unicode="&#x452;" horiz-adv-x="1327" d="M866 969q210 0 286 -176.5t13 -505.5q-24 -118 -54.5 -215.5t-79 -189.5t-109 -154.5t-145.5 -100t-187 -37.5q-65 -4 -122 10t-92 37t-60.5 46t-36.5 40l-11 17l246 166q1 -2 3 -5.5t9.5 -12.5t17 -15.5t27 -12t37.5 -5.5q157 0 230 428q28 155 19.5 243t-43.5 121 t-107 33q-71 0 -132 -43.5t-102 -118.5l-113 -518h-327l239 1108h-163l38 190h166l41 197h328l-41 -197h428l-41 -190h-428l-61 -289q65 70 149.5 110t177.5 40z" />
<glyph unicode="&#x453;" horiz-adv-x="1136" d="M805 1206l-217 29l155 266h297zM506 -18q-219 0 -321 82.5t-99 226.5q3 128 108 205.5t347 142.5q96 31 131.5 62.5t38.5 82.5q1 40 -32 62t-89 22q-65 0 -132.5 -32.5t-107.5 -87.5l-223 131q174 219 520 219q192 0 289.5 -80.5t95.5 -216.5q-3 -122 -86.5 -194.5 t-273.5 -127.5q-99 -30 -154 -59t-73 -55t-19 -62q-3 -39 36.5 -60.5t112.5 -21.5q66 0 130.5 31.5t111.5 87.5l199 -164q-90 -93 -212 -143.5t-298 -50.5z" />
<glyph unicode="&#x454;" horiz-adv-x="1224" d="M578 256q124 0 204 106l305 -98q-86 -131 -227.5 -207.5t-318.5 -76.5q-133 0 -236.5 46.5t-163.5 124t-84 178t-8 210.5q16 109 69 209t135.5 178t200 124t251.5 46q177 0 293.5 -77t164.5 -208l-332 -96q-48 102 -167 102q-85 0 -156 -48t-111 -132h340l-43 -186h-327 q9 -89 66 -142t145 -53z" />
<glyph unicode="&#x455;" horiz-adv-x="987" d="M-53 152l157 200q161 -139 320 -139q65 0 99 26.5t34 73.5q0 36 -33 59t-118 50q-178 57 -249 111.5t-71 148.5q0 174 145 294t351 120q121 0 213.5 -35t167.5 -117l-168 -196q-75 63 -134 90.5t-120 27.5t-98 -26.5t-37 -75.5q0 -37 30 -56.5t119 -45.5 q179 -54 255.5 -116t76.5 -165q0 -176 -139 -288.5t-363 -112.5q-134 0 -251.5 45t-186.5 127z" />
<glyph unicode="&#x456;" horiz-adv-x="548" d="M297 1495h328l-64 -297h-328zM209 1075h328l-230 -1075h-327z" />
<glyph unicode="&#x457;" horiz-adv-x="548" d="M55 1214l58 265h268l-55 -265h-271zM475 1214l57 265h267l-54 -265h-270zM209 1075h328l-230 -1075h-327z" />
<glyph unicode="&#x458;" horiz-adv-x="559" d="M307 1495h328l-64 -297h-327zM-410 -311l185 223q27 -43 90 -43q42 0 75.5 31t45.5 82l231 1093h328l-226 -1069q-40 -185 -173 -302.5t-300 -117.5q-164 0 -256 103z" />
<glyph unicode="&#x459;" horiz-adv-x="1708" d="M1151 743q241 0 357 -97t91 -312q-21 -176 -152 -264t-319 -88q-112 0 -191 19.5t-137 65.5t-88 125t-34 195l-16 426q-133 -219 -214 -397t-161 -416h-328q141 503 598 1075h354l33 -340q140 8 207 8zM1307 377q3 57 -35.5 84.5t-124.5 27.5q-89 0 -178 -6l6 -53 q14 -108 54 -145t126 -37q146 0 152 129z" />
<glyph unicode="&#x45a;" horiz-adv-x="1779" d="M1274 719q98 0 174 -18t135 -58.5t84.5 -112.5t11.5 -172q-12 -84 -46.5 -149t-83.5 -107.5t-114 -69.5t-134 -38.5t-148 -11.5q-224 0 -342 100t-90 297l10 51h-313l-90 -430h-328l227 1075h328l-82 -397h309l84 397h314l-76 -356h170zM1380 365q11 67 -29.5 99 t-150.5 32h-143l-23 -107q-17 -75 23.5 -115.5t122.5 -40.5q84 0 137 34t63 98z" />
<glyph unicode="&#x45b;" horiz-adv-x="1314" d="M887 969q195 0 276 -103.5t41 -292.5l-123 -573h-327l104 494q19 90 -15 138t-114 48q-84 0 -146 -46.5t-114 -137.5l-107 -496h-327l235 1108h-161l38 190h162l43 197h328l-43 -197h432l-41 -190h-430l-61 -291q155 152 350 152z" />
<glyph unicode="&#x45c;" horiz-adv-x="1140" d="M825 1206l-217 29l156 266h297zM0 0l227 1075h326l-86 -403h86q183 130 307 403h334q-157 -320 -408 -526l256 -549h-350l-186 424h-90l-90 -424h-326z" />
<glyph unicode="&#x45d;" horiz-adv-x="1241" d="M489 1495h295l45 -266l-227 -33zM33 238q0 66 18 149l148 688h325l-131 -616q-10 -52 -10 -80q0 -123 102 -123q128 0 244 156l141 663h328l-149 -706q-7 -31 -7 -43q0 -47 54 -50l-60 -276q-79 -16 -139 -16q-82 0 -129 32.5t-47 98.5q0 9 10 71q-180 -206 -446 -206 q-124 0 -188 66t-64 192z" />
<glyph unicode="&#x45e;" horiz-adv-x="1087" d="M645 1182q-153 0 -245.5 83t-90.5 212h170q0 -66 42.5 -109t125.5 -43q151 0 172 152h172q-2 -129 -97 -212t-249 -83zM-102 -227q123 6 180.5 31t114.5 98l59 75l-160 1098h334l59 -794l70 114q194 316 272 680h316q-56 -200 -139 -370t-283 -494l-164 -264 q-143 -231 -283 -324.5t-337 -95.5z" />
<glyph unicode="&#x45f;" horiz-adv-x="1241" d="M33 238q0 66 18 149l148 688h325l-131 -616q-10 -52 -10 -80q0 -123 102 -123q128 0 244 156l141 663h328l-149 -706q-7 -31 -7 -43q0 -47 54 -50l-60 -276q-79 -16 -139 -16q-82 0 -129 32.5t-47 98.5q0 9 10 71q-180 -206 -446 -206q-124 0 -188 66t-64 192zM270 -418 l60 281h295l-60 -281h-295z" />
<glyph unicode="&#x462;" horiz-adv-x="1462" d="M920 938q242 0 359.5 -122.5t86.5 -336.5q-33 -219 -184.5 -349t-382.5 -130h-664l234 1108h-244l41 199h244l41 188h335l-41 -188h310l-43 -199h-307l-37 -170h252zM1022 479q11 84 -31 140.5t-141 56.5h-238l-82 -400h258q100 0 160 55t74 148z" />
<glyph unicode="&#x463;" horiz-adv-x="1691" d="M1071 -18q-218 0 -325 110.5t-62 333.5l45 205q23 109 4 149.5t-84 40.5q-55 0 -107 -38t-91 -109l-144 -674h-327l229 1075h303l-29 -131q133 146 318 146q85 0 142.5 -26.5t84 -74.5t32.5 -114t-13 -144q39 4 133 8q76 2 139.5 -7.5t119 -35.5t91.5 -67t53 -105.5 t8 -148.5q-11 -105 -56.5 -182.5t-117 -122.5t-157.5 -66.5t-189 -21.5zM1102 248q86 0 137.5 37t58.5 108q6 57 -33 93.5t-120 35.5q-16 -1 -45 -1.5t-53.5 -1.5t-45.5 -3l-26 -127q-17 -67 18.5 -104t108.5 -37z" />
<glyph unicode="&#x46a;" horiz-adv-x="2267" d="M2279 1454l-618 -717l448 -737h-370l-357 571h-90l-118 -571h-336l118 571h-114l-529 -571h-374l669 737l-411 717h2082zM866 874h549l316 377h-1072z" />
<glyph unicode="&#x46b;" horiz-adv-x="1826" d="M-94 0l538 559l-335 516h1744l-493 -516l366 -559h-385l-223 406h-63l-84 -406h-334l86 406h-64l-360 -406h-393zM678 655h450l226 256h-817z" />
<glyph unicode="&#x472;" horiz-adv-x="1552" d="M918 1462q158 0 286.5 -63.5t206 -167t111 -236.5t14.5 -272q-20 -144 -94 -278t-183.5 -235t-255.5 -161.5t-301 -60.5q-127 0 -235.5 41t-185 112t-127.5 164.5t-69 202.5t-3 221q20 143 94.5 276.5t184.5 234.5t256 161.5t301 60.5zM870 1163q-153 0 -265 -95.5 t-159 -240.5h756q-6 146 -93 241t-239 95zM750 287q110 0 201.5 54t147.5 136t83 182h-764q-2 -102 33 -185t112.5 -135t186.5 -52z" />
<glyph unicode="&#x473;" horiz-adv-x="1253" d="M686 1096q134 0 238 -45.5t164.5 -123t85.5 -178t10 -212.5q-15 -111 -68 -211.5t-135.5 -177.5t-199.5 -122.5t-251 -45.5t-237.5 45.5t-163.5 122.5t-84.5 177t-9.5 212t68 212.5t135 178t198.5 123t249.5 45.5zM649 834q-85 0 -158.5 -60t-107.5 -158h473 q-6 98 -64 158t-143 60zM569 240q88 0 163.5 63.5t107.5 165.5h-480q4 -103 62.5 -166t146.5 -63z" />
<glyph unicode="&#x474;" horiz-adv-x="1353" d="M383 0l-215 1454h354l88 -1024l375 739q78 154 174.5 219.5t255.5 65.5h129l-92 -276h-51q-62 0 -101 -26.5t-75 -94.5l-561 -1057h-281z" />
<glyph unicode="&#x475;" horiz-adv-x="1099" d="M215 0l-119 1075h340l27 -811q151 216 237 449q35 95 68.5 156.5t72.5 104.5t93 65t117.5 31t158.5 9l-53 -252q-64 0 -98.5 -26t-65.5 -94q-186 -406 -444 -707h-334z" />
<glyph unicode="&#x490;" horiz-adv-x="1103" d="M8 0l309 1454h625l70 328h293l-134 -623h-581l-246 -1159h-336z" />
<glyph unicode="&#x491;" horiz-adv-x="962" d="M-53 -412q-125 0 -256 64l110 246q64 -33 131 -33q102 0 129 131l230 1079h440l57 264h291l-108 -512h-406l-176 -827q-42 -188 -160 -300t-282 -112z" />
<glyph unicode="&#x492;" horiz-adv-x="1153" d="M1223 1159h-582l-88 -420h383l-43 -215h-387l-111 -524h-336l111 524h-190l43 215h192l152 715h917z" />
<glyph unicode="&#x493;" horiz-adv-x="989" d="M1001 795h-413l-53 -254h288l-43 -199h-288l-72 -342h-328l72 342h-162l41 199h164l112 534h740z" />
<glyph unicode="&#x494;" horiz-adv-x="1425" d="M842 846q234 0 355 -143t87 -377q-35 -228 -190.5 -354t-395.5 -126q-130 0 -243 39l123 273q68 -33 129 -33q105 0 176.5 53.5t85.5 165.5q15 119 -44 188.5t-167 69.5q-149 0 -303 -92l-109 -510h-336l307 1454h918l-61 -295h-582l-82 -389q152 76 332 76z" />
<glyph unicode="&#x495;" horiz-adv-x="1128" d="M690 627q197 0 276 -130t29 -384q-25 -127 -65.5 -221t-105.5 -166t-163 -109t-229 -37q-204 0 -313 146l246 163q1 0 8 -8.5t15.5 -16t25.5 -14t37 -6.5q90 0 148 63.5t85 201.5q45 253 -156 253q-72 0 -131 -30l-69 -332h-328l227 1075h742l-60 -280h-413l-50 -236 q111 68 244 68z" />
<glyph unicode="&#x496;" horiz-adv-x="2277" d="M1657 758l268 -463h256l-123 -574h-284l59 279h-117l-332 588h-139l-123 -588h-336l123 588h-90l-530 -588h-383l669 754l-378 700h352l295 -563h131l119 563h336l-119 -563h100l514 563h373z" />
<glyph unicode="&#x497;" horiz-adv-x="1787" d="M1360 549l123 -264h237l-116 -549h-295l57 264h-100l-187 426h-90l-92 -426h-326l91 426h-54q-204 -109 -354 -426h-344q90 186 211 330.5t254 228.5l-260 516h325l181 -407h92l88 407h325l-88 -407h88q177 126 308 407h331q-81 -165 -186.5 -298.5t-218.5 -227.5z" />
<glyph unicode="&#x498;" horiz-adv-x="1318" d="M1223 1063q-16 -102 -76.5 -186t-167.5 -129q115 -36 167.5 -128.5t33.5 -218.5q-24 -167 -154 -272.5t-328 -132.5l-55 -272h-295l55 276q-133 26 -231 96t-152 176l275 156q37 -79 113.5 -121.5t183.5 -42.5q229 0 252 170q13 81 -36.5 128.5t-162.5 47.5h-129l53 252 h113q93 0 144.5 40.5t60.5 111.5q11 74 -30 113.5t-146 39.5q-103 0 -184 -39t-128 -108l-217 172q230 272 580 272q246 0 367 -103.5t94 -297.5z" />
<glyph unicode="&#x499;" horiz-adv-x="1019" d="M948 780q-10 -73 -55 -133t-125 -86q95 -29 135.5 -97.5t26.5 -164.5q-20 -127 -123.5 -207t-263.5 -102l-54 -254h-278l55 260q-218 47 -297 223l279 119q55 -96 196 -96q82 0 130.5 29.5t56.5 78.5q8 45 -26 72.5t-107 28.5h-127l43 198h112q52 0 85.5 24t39.5 64 q8 45 -24.5 71t-104.5 26q-118 0 -190 -91l-228 131q78 104 199.5 162t271.5 58q185 0 289.5 -82.5t83.5 -231.5z" />
<glyph unicode="&#x49a;" horiz-adv-x="1480" d="M868 772l234 -477h284l-122 -574h-287l59 279h-172l-262 588h-135l-123 -588h-336l307 1454h336l-119 -563h93l520 563h403z" />
<glyph unicode="&#x49b;" horiz-adv-x="1220" d="M786 549l123 -264h244l-119 -549h-295l58 264h-105l-186 424h-90l-90 -424h-326l227 1075h326l-86 -403h86q183 130 307 403h334q-157 -320 -408 -526z" />
<glyph unicode="&#x49c;" horiz-adv-x="1454" d="M1204 1026l-399 -496l252 -102h-254l-111 164l-45 -201h-131l8 37h-125l17 821l266 -147h125l-14 -62l26 -14l-74 -199l-12 -53l23 53l198 394zM522 651l33 -84l20 84h-53z" />
<glyph unicode="&#x49d;" horiz-adv-x="1263" d="M1317 1075q-157 -320 -408 -526l256 -549h-350l-190 428h-19l-37 -168h-127l37 168h-78l-90 -428h-311l227 1075h312l-86 -407h79l41 186h127l-41 -186h11q182 122 313 407h334z" />
<glyph unicode="&#x4a0;" horiz-adv-x="1615" d="M1753 1454l-680 -682l377 -772h-381l-262 588h-135l-123 -588h-336l248 1176h-316l60 278h651l-119 -563h92l521 563h403z" />
<glyph unicode="&#x4a1;" horiz-adv-x="1316" d="M1370 1075q-81 -165 -187 -298.5t-220 -227.5l256 -549h-351l-186 424h-90l-90 -424h-326l174 827h-248l54 248h573l-86 -403h86q183 130 307 403h334z" />
<glyph unicode="&#x4a2;" horiz-adv-x="1615" d="M1516 1454l-246 -1159h205l-123 -574h-287l59 279h-254l127 596h-526l-127 -596h-336l309 1454h336l-121 -563h527l121 563h336z" />
<glyph unicode="&#x4a3;" horiz-adv-x="1368" d="M1081 285h176l-116 -549h-295l55 264h-209l90 426h-364l-90 -426h-328l227 1075h328l-86 -401h367l86 401h327z" />
<glyph unicode="&#x4a4;" horiz-adv-x="1964" d="M2095 1454l-63 -295h-580l-246 -1159h-336l127 596h-526l-127 -596h-336l309 1454h336l-121 -563h527l121 563h915z" />
<glyph unicode="&#x4a5;" horiz-adv-x="1591" d="M1661 1075l-62 -287h-411l-168 -788h-328l90 426h-364l-90 -426h-328l227 1075h328l-86 -401h367l86 401h739z" />
<glyph unicode="&#x4aa;" horiz-adv-x="1452" d="M750 287q104 0 203.5 49.5t156.5 150.5l252 -161q-75 -135 -233 -223t-334 -109l-56 -273h-278l59 291q-152 43 -260 156t-153 263t-23 308q19 133 87.5 261.5t174.5 231.5t256.5 166.5t317.5 63.5q201 0 342 -86t196 -231l-282 -180q-20 73 -72 119t-110 62.5t-126 16.5 q-94 0 -174.5 -38t-135 -101t-89 -139.5t-45.5 -157.5q-18 -116 15 -216t115 -162t196 -62z" />
<glyph unicode="&#x4ab;" horiz-adv-x="1124" d="M528 256q54 0 106.5 29.5t84.5 76.5l299 -98q-135 -195 -359 -258l-59 -270h-278l53 252q-169 30 -259.5 152t-90.5 292q0 126 50 245.5t137.5 212.5t217.5 149.5t279 56.5q174 0 281.5 -77t142.5 -208l-338 -96q-39 102 -146 102q-112 0 -198 -100.5t-86 -247.5 q0 -95 45 -154t118 -59z" />
<glyph unicode="&#x4ae;" horiz-adv-x="1275" d="M436 500l-278 954h364l142 -668l432 668h364l-692 -958l-104 -496h-336z" />
<glyph unicode="&#x4af;" horiz-adv-x="1089" d="M133 -436l92 436l-129 1075h338l31 -807q132 218 212.5 395t160.5 412h295q-143 -510 -592 -1075l-80 -436h-328z" />
<glyph unicode="&#x4b0;" horiz-adv-x="1275" d="M1460 1454l-690 -956h207l-45 -211h-207l-61 -287h-336l61 287h-182l45 211h184v2l-278 954h364l142 -668l432 668h364z" />
<glyph unicode="&#x4b1;" horiz-adv-x="1089" d="M1133 1075q-143 -510 -592 -1075h202l-32 -150h-197l-53 -286h-328l62 286h-197l31 150h196l-129 1075h338l31 -807q132 218 212.5 395t160.5 412h295z" />
<glyph unicode="&#x4b6;" horiz-adv-x="1497" d="M1454 1454l-246 -1159h148l-123 -574h-287l60 279h-197l115 535q-134 -54 -301 -54q-262 0 -376 126t-54 372l112 475h330l-117 -481q-26 -117 26 -169t193 -52q132 0 244 53l137 649h336z" />
<glyph unicode="&#x4b7;" horiz-adv-x="1280" d="M989 285h182l-116 -549h-295l55 264h-223l84 362q-114 -49 -264 -49q-170 0 -254.5 94t-48.5 263l88 405h327l-78 -362q-17 -80 16.5 -118t104.5 -38q78 0 160 35l102 483h328z" />
<glyph unicode="&#x4b8;" horiz-adv-x="1415" d="M1118 1454h336l-309 -1454h-336l115 535q-92 -37 -193 -48l-47 -206h-131l45 200q-249 6 -356.5 132t-48.5 366l112 475h330l-117 -481q-22 -99 11.5 -151.5t129.5 -65.5l54 235h131l-53 -237q105 9 190 51z" />
<glyph unicode="&#x4b9;" horiz-adv-x="1200" d="M874 1075h328l-229 -1075h-328l76 362q-59 -21 -113 -30l-41 -182h-127l37 165q-25 -2 -80 -2q-164 0 -243.5 93.5t-44.5 263.5l90 405h327l-80 -362q-23 -141 84 -154l41 184h127l-39 -176q51 8 111 25z" />
<glyph unicode="&#x4ba;" horiz-adv-x="1415" d="M377 0h-336l309 1454h336l-115 -534q132 53 301 53q262 0 376.5 -126t54.5 -372l-113 -475h-330l117 481q26 117 -26 169t-193 52q-132 0 -244 -53z" />
<glyph unicode="&#x4bb;" d="M297 1495h328l-127 -600q75 96 178 148.5t215 52.5q252 0 252 -248q0 -59 -19 -160l-145 -688h-328l129 604q8 62 8 80q0 123 -106 123q-53 0 -127 -54.5t-117 -136.5l-131 -616h-327z" />
<glyph unicode="&#x4c0;" horiz-adv-x="614" d="M317 1454h336l-309 -1454h-336z" />
<glyph unicode="&#x4c1;" horiz-adv-x="2250" d="M1264 1559q-182 0 -279.5 86t-75.5 231h256q-9 -54 26.5 -86.5t98.5 -32.5q65 0 112 32t54 87h254q-20 -146 -141 -231.5t-305 -85.5zM-94 0l669 754l-378 700h352l295 -563h131l119 563h336l-119 -563h100l514 563h373l-641 -696l438 -758h-379l-332 588h-139l-123 -588 h-336l123 588h-90l-530 -588h-383z" />
<glyph unicode="&#x4c2;" horiz-adv-x="1714" d="M958 1182q-153 0 -245 83t-90 212h170q0 -66 42.5 -109t125.5 -43q151 0 172 152h172q-2 -129 -97.5 -212t-249.5 -83zM-90 0q90 186 211 330.5t254 228.5l-260 516h325l181 -407h92l88 407h325l-88 -407h88q177 126 308 407h331q-81 -165 -186.5 -298.5t-218.5 -227.5 l254 -549h-348l-187 426h-90l-92 -426h-326l91 426h-54q-204 -109 -354 -426h-344z" />
<glyph unicode="&#x4cb;" horiz-adv-x="1415" d="M1118 1454h336l-309 -1454h-275l-59 -279h-287l111 521h225l64 293q-134 -54 -301 -54q-262 0 -376 126t-54 372l112 475h330l-117 -481q-26 -117 26 -169t193 -52q132 0 244 53z" />
<glyph unicode="&#x4cc;" horiz-adv-x="1216" d="M848 1075h328l-228 -1075h-203l-57 -272h-295l92 448h166l43 186q-114 -49 -264 -49q-170 0 -254.5 94t-48.5 263l88 405h328l-78 -362q-17 -80 16.5 -118t104.5 -38q77 0 159 35z" />
<glyph unicode="&#x4cf;" horiz-adv-x="548" d="M209 1075h328l-230 -1075h-327z" />
<glyph unicode="&#x4d0;" horiz-adv-x="1312" d="M844 1559q-182 0 -279.5 86t-75.5 231h256q-9 -54 26.5 -86.5t98.5 -32.5q65 0 112 32t54 87h254q-20 -146 -141 -231.5t-305 -85.5zM690 1454h305l189 -1454h-344l-31 326h-414l-166 -326h-346zM803 557l-41 514l-266 -514h307z" />
<glyph unicode="&#x4d1;" horiz-adv-x="1298" d="M807 1182q-153 0 -245.5 83t-90.5 212h170q0 -66 42.5 -109t125.5 -43q151 0 172 152h172q-2 -129 -97 -212t-249 -83zM23 416q0 133 48 258.5t127.5 217.5t187.5 148t222 56q103 0 178 -53.5t103 -143.5l37 170h329l-151 -700q-4 -36 -4 -43q0 -25 12 -37t39 -13 l-57 -276q-81 -16 -140 -16q-174 0 -174 137q0 19 6 57q-73 -97 -174.5 -147.5t-208.5 -50.5q-175 0 -277.5 122t-102.5 314zM786 406l48 225q-10 81 -61 133.5t-118 52.5q-112 0 -199 -107t-87 -241q0 -94 48.5 -153.5t133.5 -59.5q61 0 124.5 40.5t110.5 109.5z" />
<glyph unicode="&#x4d2;" horiz-adv-x="1312" d="M532 1593l58 265h268l-55 -265h-271zM952 1593l58 265h266l-53 -265h-271zM690 1454h305l189 -1454h-344l-31 326h-414l-166 -326h-346zM803 557l-41 514l-266 -514h307z" />
<glyph unicode="&#x4d3;" horiz-adv-x="1298" d="M489 1214l58 265h268l-55 -265h-271zM909 1214l58 265h266l-53 -265h-271zM23 416q0 133 48 258.5t127.5 217.5t187.5 148t222 56q103 0 178 -53.5t103 -143.5l37 170h329l-151 -700q-4 -36 -4 -43q0 -25 12 -37t39 -13l-57 -276q-81 -16 -140 -16q-174 0 -174 137 q0 19 6 57q-73 -97 -174.5 -147.5t-208.5 -50.5q-175 0 -277.5 122t-102.5 314zM786 406l48 225q-10 81 -61 133.5t-118 52.5q-112 0 -199 -107t-87 -241q0 -94 48.5 -153.5t133.5 -59.5q61 0 124.5 40.5t110.5 109.5z" />
<glyph unicode="&#x4d4;" horiz-adv-x="1908" d="M991 1454h1012l-64 -295h-587l-58 -272h482l-62 -293h-481l-64 -299h603l-62 -295h-938l70 326h-412l-237 -326h-357zM879 621l96 458l-340 -458h244z" />
<glyph unicode="&#x4d5;" horiz-adv-x="1839" d="M-25 262q0 117 70 213t190.5 150.5t264.5 54.5q123 0 207 -41q3 13 9 35.5t9.5 40t3.5 33.5q0 122 -164 122q-153 0 -342 -118l-53 204q234 140 475 140q229 0 332 -131q167 131 377 131q143 0 246 -62t151.5 -162t48.5 -225q0 -48 -9.5 -95t-15.5 -63t-20 -53h-747 q-4 -32 -4 -47q0 -82 49.5 -128t126.5 -46q66 0 133 36t98 93l262 -78q-89 -130 -235 -208t-320 -78q-148 0 -250 57.5t-151 157.5q-91 -107 -216 -161t-233 -54q-132 0 -212.5 79t-80.5 203zM1458 635q2 14 2 43q0 83 -43.5 132.5t-120.5 49.5q-86 0 -155.5 -61.5 t-98.5 -163.5h416zM664 324q-5 30 -5 43q0 32 11 100q-78 31 -156 31q-89 0 -154 -50t-65 -122q0 -48 32.5 -79.5t90.5 -31.5q62 0 135.5 33t110.5 76z" />
<glyph unicode="&#x4d6;" horiz-adv-x="1179" d="M782 1559q-182 0 -279 85.5t-75 231.5h256q-9 -54 26.5 -86.5t98.5 -32.5q65 0 112 32t54 87h254q-20 -146 -141.5 -231.5t-305.5 -85.5zM317 1454h957l-64 -295h-620l-60 -282h533l-57 -273h-533l-67 -309h638l-61 -295h-975z" />
<glyph unicode="&#x4d7;" horiz-adv-x="1198" d="M737 1182q-153 0 -245.5 83t-90.5 212h170q0 -66 42.5 -109t125.5 -43q151 0 172 152h172q-2 -129 -97 -212t-249 -83zM596 219q81 0 137.5 37t83.5 84l266 -84q-32 -51 -77.5 -96t-110 -87.5t-154.5 -67.5t-192 -25q-217 0 -347 135t-132 350q-3 173 81 317.5t235 229 t335 84.5q183 0 297 -82t121 -226q8 -176 -147.5 -267t-471.5 -91q-73 0 -112 2q3 -213 188 -213zM676 856q-77 0 -141.5 -60t-98.5 -161h70q173 0 242.5 29t66.5 94q-3 44 -41.5 71t-97.5 27z" />
<glyph unicode="&#x4d8;" horiz-adv-x="1482" d="M39 580q0 136 51 249h1010q4 40 4 60q0 131 -72 203.5t-184 72.5q-95 0 -186.5 -53.5t-133.5 -140.5l-325 106q118 178 304.5 281.5t405.5 103.5q133 0 240 -50.5t173.5 -135t102 -189.5t35.5 -219q0 -102 -29.5 -208t-82.5 -203t-131.5 -182.5t-172.5 -148.5 t-210.5 -99.5t-239.5 -36.5q-110 0 -202.5 33.5t-157.5 91t-110.5 133t-67 160t-21.5 172.5zM1040 578h-645q-8 -31 -8 -64q0 -103 77 -166t202 -63q126 0 228 80t146 213z" />
<glyph unicode="&#x4d9;" horiz-adv-x="1204" d="M467 -20q-217 0 -333 118t-116 305q0 119 45 236h746q2 14 2 43q0 83 -48.5 129.5t-121.5 46.5q-69 0 -135 -36t-98 -93l-263 80q90 130 236 208.5t321 78.5q108 0 195 -35.5t141.5 -97t83.5 -141.5t29 -173q0 -127 -49.5 -247.5t-137 -214.5t-217.5 -150.5t-280 -56.5z M520 215q84 0 152.5 60.5t99.5 162.5h-412q-2 -12 -2 -41q0 -85 43.5 -133.5t118.5 -48.5z" />
<glyph unicode="&#x4dc;" horiz-adv-x="2250" d="M952 1593l58 265h268l-55 -265h-271zM1372 1593l58 265h266l-54 -265h-270zM-94 0l669 754l-378 700h352l295 -563h131l119 563h336l-119 -563h100l514 563h373l-641 -696l438 -758h-379l-332 588h-139l-123 -588h-336l123 588h-90l-530 -588h-383z" />
<glyph unicode="&#x4dd;" horiz-adv-x="1714" d="M641 1214l57 265h269l-56 -265h-270zM1061 1214l57 265h266l-53 -265h-270zM-90 0q90 186 211 330.5t254 228.5l-260 516h325l181 -407h92l88 407h325l-88 -407h88q177 126 308 407h331q-81 -165 -186.5 -298.5t-218.5 -227.5l254 -549h-348l-187 426h-90l-92 -426h-326 l91 426h-54q-204 -109 -354 -426h-344z" />
<glyph unicode="&#x4de;" horiz-adv-x="1318" d="M483 1593l58 265h268l-55 -265h-271zM903 1593l58 265h266l-53 -265h-271zM557 -14q-189 0 -329 75t-208 211l275 156q37 -79 113.5 -121.5t183.5 -42.5q229 0 252 170q13 81 -36.5 128.5t-162.5 47.5h-129l53 252h113q93 0 144.5 40.5t60.5 111.5q11 74 -30 113.5 t-146 39.5q-103 0 -184 -39t-128 -108l-217 172q230 272 580 272q246 0 367 -103.5t94 -297.5q-16 -102 -76.5 -186t-167.5 -129q115 -36 167.5 -128.5t33.5 -218.5q-19 -132 -106 -227t-219.5 -141.5t-297.5 -46.5z" />
<glyph unicode="&#x4df;" horiz-adv-x="1028" d="M264 1214l58 265h268l-55 -265h-271zM684 1214l57 265h267l-54 -265h-270zM426 -18q-350 0 -457 237l279 119q55 -96 196 -96q82 0 130.5 29.5t56.5 78.5q8 45 -26 72.5t-107 28.5h-127l43 198h112q52 0 85.5 24t39.5 64q8 45 -24.5 71t-104.5 26q-118 0 -190 -91 l-228 131q78 104 199.5 162t271.5 58q185 0 289.5 -82.5t83.5 -231.5q-10 -73 -55 -133t-125 -86q95 -29 135.5 -97.5t26.5 -164.5q-23 -151 -162 -234t-342 -83z" />
<glyph unicode="&#x4e2;" horiz-adv-x="1505" d="M688 1649l41 198h596l-41 -198h-596zM8 0l307 1454h338l-209 -985l785 985h315l-307 -1454h-338l203 944l-772 -944h-322z" />
<glyph unicode="&#x4e3;" horiz-adv-x="1241" d="M463 1270l41 198h596l-41 -198h-596zM33 238q0 66 18 149l148 688h325l-131 -616q-10 -52 -10 -80q0 -123 102 -123q128 0 244 156l141 663h328l-149 -706q-7 -31 -7 -43q0 -47 54 -50l-60 -276q-79 -16 -139 -16q-82 0 -129 32.5t-47 98.5q0 9 10 71 q-180 -206 -446 -206q-124 0 -188 66t-64 192z" />
<glyph unicode="&#x4e4;" horiz-adv-x="1505" d="M629 1593l57 265h268l-55 -265h-270zM1049 1593l57 265h266l-53 -265h-270zM8 0l307 1454h338l-209 -985l785 985h315l-307 -1454h-338l203 944l-772 -944h-322z" />
<glyph unicode="&#x4e5;" horiz-adv-x="1241" d="M403 1214l58 265h268l-55 -265h-271zM823 1214l58 265h266l-53 -265h-271zM33 238q0 66 18 149l148 688h325l-131 -616q-10 -52 -10 -80q0 -123 102 -123q128 0 244 156l141 663h328l-149 -706q-7 -31 -7 -43q0 -47 54 -50l-60 -276q-79 -16 -139 -16q-82 0 -129 32.5 t-47 98.5q0 9 10 71q-180 -206 -446 -206q-124 0 -188 66t-64 192z" />
<glyph unicode="&#x4e6;" horiz-adv-x="1570" d="M625 1593l57 265h268l-55 -265h-270zM1044 1593l58 265h266l-53 -265h-271zM702 -12q-127 0 -235.5 41t-185 112t-127.5 164.5t-69 202.5t-3 221q20 143 94.5 276.5t184.5 234.5t256 161.5t301 60.5q158 0 286.5 -63.5t206 -167t111 -236.5t14.5 -272q-20 -144 -94 -278 t-183.5 -235t-255.5 -161.5t-301 -60.5zM750 287q92 0 172.5 38t135.5 101.5t90.5 141.5t47.5 161q17 117 -13.5 214t-111.5 158.5t-201 61.5q-93 0 -173 -37.5t-135.5 -100t-91.5 -139.5t-48 -161q-12 -85 3 -163t54.5 -139.5t109.5 -98.5t161 -37z" />
<glyph unicode="&#x4e7;" horiz-adv-x="1288" d="M444 1206l58 264h268l-55 -264h-271zM864 1206l58 264h266l-53 -264h-271zM565 -20q-134 0 -237.5 45.5t-163.5 122.5t-84.5 177t-9.5 212t68 212.5t135 178t198.5 123t249.5 45.5q134 0 238 -45.5t164.5 -123t85.5 -178t10 -212.5q-15 -111 -68 -211.5t-135.5 -177.5 t-199.5 -122.5t-251 -45.5zM604 240q103 0 185.5 84t99.5 213q18 130 -42 213.5t-163 83.5t-185.5 -83.5t-99.5 -213.5q-18 -130 42 -213.5t163 -83.5z" />
<glyph unicode="&#x4e8;" horiz-adv-x="1552" d="M918 1462q158 0 286.5 -63.5t206 -167t111 -236.5t14.5 -272q-20 -144 -94 -278t-183.5 -235t-255.5 -161.5t-301 -60.5q-127 0 -235.5 41t-185 112t-127.5 164.5t-69 202.5t-3 221q20 143 94.5 276.5t184.5 234.5t256 161.5t301 60.5zM870 1163q-153 0 -265 -95.5 t-159 -240.5h756q-6 146 -93 241t-239 95zM750 287q110 0 201.5 54t147.5 136t83 182h-764q-2 -102 33 -185t112.5 -135t186.5 -52z" />
<glyph unicode="&#x4e9;" horiz-adv-x="1253" d="M686 1096q134 0 238 -45.5t164.5 -123t85.5 -178t10 -212.5q-15 -111 -68 -211.5t-135.5 -177.5t-199.5 -122.5t-251 -45.5t-237.5 45.5t-163.5 122.5t-84.5 177t-9.5 212t68 212.5t135 178t198.5 123t249.5 45.5zM649 834q-85 0 -158.5 -60t-107.5 -158h473 q-6 98 -64 158t-143 60zM569 240q88 0 163.5 63.5t107.5 165.5h-480q4 -103 62.5 -166t146.5 -63z" />
<glyph unicode="&#x4ee;" horiz-adv-x="1363" d="M608 1649l41 198h596l-41 -198h-596zM209 -10l57 276h148q82 0 141 84l12 17l-407 1087h362l223 -764l404 764h342l-700 -1221q-83 -135 -177.5 -189t-244.5 -54h-160z" />
<glyph unicode="&#x4ef;" horiz-adv-x="1087" d="M387 1270l41 198h596l-41 -198h-596zM-102 -227q123 6 180.5 31t114.5 98l59 75l-160 1098h334l59 -794l70 114q194 316 272 680h316q-56 -200 -139 -370t-283 -494l-164 -264q-143 -231 -283 -324.5t-337 -95.5z" />
<glyph unicode="&#x4f0;" horiz-adv-x="1363" d="M549 1593l57 265h268l-55 -265h-270zM969 1593l57 265h266l-53 -265h-270zM209 -10l57 276h148q82 0 141 84l12 17l-407 1087h362l223 -764l404 764h342l-700 -1221q-83 -135 -177.5 -189t-244.5 -54h-160z" />
<glyph unicode="&#x4f1;" horiz-adv-x="1087" d="M328 1214l57 265h268l-55 -265h-270zM748 1214l57 265h266l-53 -265h-270zM-102 -227q123 6 180.5 31t114.5 98l59 75l-160 1098h334l59 -794l70 114q194 316 272 680h316q-56 -200 -139 -370t-283 -494l-164 -264q-143 -231 -283 -324.5t-337 -95.5z" />
<glyph unicode="&#x4f2;" horiz-adv-x="1363" d="M762 1583l-168 25l139 266h246zM1108 1583l-166 25l139 266h244zM209 -10l57 276h148q82 0 141 84l12 17l-407 1087h362l223 -764l404 764h342l-700 -1221q-83 -135 -177.5 -189t-244.5 -54h-160z" />
<glyph unicode="&#x4f3;" horiz-adv-x="1087" d="M541 1204l-168 25l139 266h246zM887 1204l-166 25l139 266h244zM-102 -227q123 6 180.5 31t114.5 98l59 75l-160 1098h334l59 -794l70 114q194 316 272 680h316q-56 -200 -139 -370t-283 -494l-164 -264q-143 -231 -283 -324.5t-337 -95.5z" />
<glyph unicode="&#x4f4;" horiz-adv-x="1415" d="M592 1593l57 265h269l-56 -265h-270zM1012 1593l57 265h266l-53 -265h-270zM1118 1454h336l-309 -1454h-336l115 535q-134 -54 -301 -54q-262 0 -376 126t-54 372l112 475h330l-117 -481q-26 -117 26 -169t193 -52q132 0 244 53z" />
<glyph unicode="&#x4f5;" horiz-adv-x="1157" d="M403 1214l58 265h268l-55 -265h-271zM823 1214l58 265h266l-53 -265h-271zM592 0l84 362q-114 -49 -264 -49q-170 0 -254.5 94t-48.5 263l88 405h327l-78 -362q-17 -80 16.5 -118t104.5 -38q78 0 160 35l102 483h328l-227 -1075h-338z" />
<glyph unicode="&#x4f6;" horiz-adv-x="1089" d="M1159 1159h-581l-183 -864h193l-123 -574h-287l60 279h-242l307 1454h918z" />
<glyph unicode="&#x4f7;" horiz-adv-x="1136" d="M672 479q-99 -30 -154 -59t-73 -55t-19 -62q-3 -39 36.5 -60.5t112.5 -21.5q66 0 130.5 31.5t111.5 87.5l199 -164l-90 -424h-295l57 246q-85 -16 -182 -16q-219 0 -321 82.5t-99 226.5q3 128 108 205.5t347 142.5q96 31 131.5 62.5t38.5 82.5q1 40 -32 62t-89 22 q-65 0 -132.5 -32.5t-107.5 -87.5l-223 131q174 219 520 219q192 0 289.5 -80.5t95.5 -216.5q-3 -122 -86.5 -194.5t-273.5 -127.5z" />
<glyph unicode="&#x4f8;" horiz-adv-x="1873" d="M797 1593l57 265h268l-55 -265h-270zM1217 1593l57 265h266l-53 -265h-270zM8 0l307 1454h338l-106 -502h186q242 0 359.5 -127t85.5 -346q-31 -219 -183 -349t-385 -130h-602zM1577 1454h336l-309 -1454h-336zM406 276h196q100 0 161 55.5t73 147.5q11 84 -31 140.5 t-141 56.5h-177z" />
<glyph unicode="&#x4f9;" horiz-adv-x="1642" d="M958 1479l-55 -265h-270l57 265h268zM1376 1479l-53 -265h-270l57 265h266zM610 778q100 0 179.5 -22t138.5 -67.5t84.5 -124t11.5 -183.5q-16 -110 -63.5 -190t-119.5 -124.5t-154.5 -64.5t-180.5 -20q-116 0 -205.5 26t-151 78.5t-85 138.5t-3.5 201q11 61 25 124 t33 139.5t31 121.5t37.5 140t33.5 124h328l-80 -297h141zM1315 1075h327l-229 -1075h-328zM725 393q11 70 -31 111t-133 41h-147q-13 -60 -27 -137q-14 -76 34 -119t130 -43q73 0 120 39t54 108z" />
<glyph unicode="&#x51a;" horiz-adv-x="1499" d="M1479 854q0 -172 -79.5 -338t-215.5 -291l151 -225h-317l-49 76q-174 -86 -355 -86q-128 0 -233.5 50t-173 134.5t-104.5 193t-37 228.5q0 162 72 321t190 278.5t278.5 194t327.5 74.5q128 0 233.5 -51t172.5 -137t103 -194.5t36 -227.5zM682 289q68 0 129 22l-174 262 h313l68 -100q57 77 88 172t31 186q0 143 -70 238.5t-201 95.5q-101 0 -189 -50t-145 -129t-89.5 -174.5t-32.5 -188.5q0 -142 70 -238t202 -96z" />
<glyph unicode="&#x51b;" horiz-adv-x="1265" d="M23 412q0 138 51 265.5t135 218.5t195.5 145.5t228.5 54.5q219 0 297 -197l37 176h286l-239 -1126q-6 -21 -6 -37q0 -27 16 -39t53 -14l-59 -279q-94 -16 -180 -16t-140.5 45.5t-54.5 120.5q0 24 6 45l84 399q-141 -194 -373 -194q-155 0 -246 121.5t-91 310.5zM782 401 l49 228q-9 80 -60 134t-118 54q-110 0 -199 -107.5t-89 -240.5q0 -94 48.5 -153.5t133.5 -59.5q116 0 235 145z" />
<glyph unicode="&#x51c;" horiz-adv-x="2052" d="M156 1454h364l107 -1069l209 391l-82 676h307l37 -465l233 465h309l-374 -676l47 -391l559 1069h369l-861 -1454h-278l-94 569l-332 -569h-281z" />
<glyph unicode="&#x51d;" horiz-adv-x="1642" d="M78 1075h315l105 -778q94 162 145 262l-98 516h272l37 -325q85 175 147 325h252q-111 -292 -262 -514l35 -190q163 217 239.5 350t164.5 354h296q-194 -520 -682 -1075h-215l-51 377q-66 -118 -217 -377h-282z" />
<glyph unicode="&#x524;" horiz-adv-x="1613" d="M1526 1454l-246 -1159h193l-123 -574h-287l59 279h-239l245 1159h-538l-244 -1159h-338l307 1454h1211z" />
<glyph unicode="&#x525;" horiz-adv-x="1341" d="M1051 285h180l-117 -549h-295l55 264h-212l176 823h-336l-174 -823h-328l227 1075h992z" />
<glyph unicode="&#x1e08;" horiz-adv-x="1353" d="M1241 1880l-235 -295l-218 29l156 266h297zM684 287q94 0 187.5 50t150.5 150l242 -161q-90 -147 -259.5 -236t-345.5 -100q50 -78 50 -158q0 -107 -73 -184.5t-198 -77.5q-110 0 -205 65l115 170q35 -41 82 -41q42 0 71 29t29 78q0 63 -47 129l4 2q-131 30 -228 123 t-144 216.5t-47 262.5q0 121 40.5 244.5t118 233t181 195t239 135.5t281.5 50q196 0 324 -86t169 -231l-293 -178q-39 196 -266 196q-86 0 -161 -33t-127.5 -87t-90 -124t-55.5 -143.5t-18 -144.5q0 -147 71.5 -245.5t202.5 -98.5z" />
<glyph unicode="&#x1e09;" horiz-adv-x="1122" d="M1075 1495l-235 -295l-217 29l155 266h297zM526 256q54 0 106.5 29.5t84.5 76.5l299 -98q-74 -107 -185 -179t-245 -95q47 -78 47 -158q0 -107 -73 -184.5t-198 -77.5q-109 0 -204 65l114 170q35 -41 82 -41q42 0 71.5 29t29.5 78q0 50 -35 111q-192 17 -294.5 142.5 t-102.5 307.5q0 126 50 245.5t137.5 212.5t217.5 149.5t279 56.5q174 0 281 -76.5t142 -208.5l-337 -96q-39 102 -146 102q-112 0 -198.5 -100.5t-86.5 -247.5q0 -95 45.5 -154t118.5 -59z" />
<glyph unicode="&#x1e0c;" horiz-adv-x="1419" d="M317 1454h521q138 0 246 -43.5t175 -120.5t101.5 -178.5t34.5 -222.5q0 -189 -66.5 -354.5t-181.5 -282.5t-275.5 -184.5t-343.5 -67.5h-520zM590 295q100 0 186.5 44.5t145 119.5t92 174t33.5 207q0 146 -71 232.5t-202 86.5h-184l-184 -864h184zM287 -418l59 281h295 l-59 -281h-295z" />
<glyph unicode="&#x1e0d;" horiz-adv-x="1298" d="M23 416q0 133 48 258.5t127.5 217.5t187.5 148t222 56q103 0 178 -53.5t103 -143.5l127 596h330l-242 -1126q-4 -36 -4 -43q0 -25 12 -37t39 -13l-57 -276q-81 -16 -140 -16q-82 0 -129 32.5t-47 98.5q0 24 8 63q-73 -97 -174.5 -147.5t-208.5 -50.5q-175 0 -277.5 122 t-102.5 314zM786 406l48 225q-10 81 -61 133.5t-118 52.5q-112 0 -199 -107t-87 -241q0 -94 48.5 -153.5t133.5 -59.5q61 0 124.5 40.5t110.5 109.5zM299 -418l59 281h295l-59 -281h-295z" />
<glyph unicode="&#x1e0e;" horiz-adv-x="1419" d="M317 1454h521q138 0 246 -43.5t175 -120.5t101.5 -178.5t34.5 -222.5q0 -189 -66.5 -354.5t-181.5 -282.5t-275.5 -184.5t-343.5 -67.5h-520zM590 295q100 0 186.5 44.5t145 119.5t92 174t33.5 207q0 146 -71 232.5t-202 86.5h-184l-184 -864h184zM156 -356l45 198h569 l-45 -198h-569z" />
<glyph unicode="&#x1e0f;" horiz-adv-x="1298" d="M23 416q0 133 48 258.5t127.5 217.5t187.5 148t222 56q103 0 178 -53.5t103 -143.5l127 596h330l-242 -1126q-4 -36 -4 -43q0 -25 12 -37t39 -13l-57 -276q-81 -16 -140 -16q-82 0 -129 32.5t-47 98.5q0 24 8 63q-73 -97 -174.5 -147.5t-208.5 -50.5q-175 0 -277.5 122 t-102.5 314zM786 406l48 225q-10 81 -61 133.5t-118 52.5q-112 0 -199 -107t-87 -241q0 -94 48.5 -153.5t133.5 -59.5q61 0 124.5 40.5t110.5 109.5zM168 -356l45 198h569l-45 -198h-569z" />
<glyph unicode="&#x1e14;" horiz-adv-x="1179" d="M641 2267h295l45 -266l-227 -33zM530 1649l41 198h596l-41 -198h-596zM317 1454h957l-64 -295h-620l-60 -282h533l-57 -273h-533l-67 -309h638l-61 -295h-975z" />
<glyph unicode="&#x1e15;" horiz-adv-x="1142" d="M899 1616l-227 -33l-113 299h295zM1085 1462l-41 -198h-595l40 198h596zM475 432q-71 0 -110 2v-14q0 -205 170 -205q73 0 136 34.5t101 96.5l258 -82q-86 -127 -239 -205.5t-316 -78.5q-207 0 -328.5 125.5t-121.5 328.5q0 134 54 256t145.5 211t220.5 142t272 53 q184 0 290.5 -81.5t106.5 -226.5q0 -175 -161 -265.5t-478 -90.5zM664 860q-87 0 -155.5 -61.5t-105.5 -161.5q23 -2 72 -2q176 0 250 30t74 95q0 47 -37 73.5t-98 26.5z" />
<glyph unicode="&#x1e16;" horiz-adv-x="1179" d="M1004 1978l-218 29l156 266h297zM530 1649l41 198h596l-41 -198h-596zM317 1454h957l-64 -295h-620l-60 -282h533l-57 -273h-533l-67 -309h638l-61 -295h-975z" />
<glyph unicode="&#x1e17;" horiz-adv-x="1142" d="M1157 1888l-235 -295l-217 29l155 266h297zM1085 1462l-41 -198h-595l40 198h596zM717 1096q184 0 290.5 -81.5t106.5 -226.5q0 -175 -161 -265.5t-478 -90.5q-71 0 -110 2v-14q0 -205 170 -205q73 0 136 34.5t101 96.5l258 -82q-86 -127 -239 -205.5t-316 -78.5 q-207 0 -328.5 125.5t-121.5 328.5q0 134 54 256t145.5 211t220.5 142t272 53zM475 635q176 0 250 30t74 95q0 47 -37 73.5t-98 26.5q-87 0 -155.5 -61.5t-105.5 -161.5q23 -2 72 -2z" />
<glyph unicode="&#x1e1c;" horiz-adv-x="1179" d="M811 1573q-109 0 -172.5 61.5t-63.5 163.5q0 15 9 76h172q-4 -28 -4 -43q0 -50 24.5 -82.5t63.5 -32.5q44 0 86.5 44.5t62.5 113.5h172q-28 -132 -126 -216.5t-224 -84.5zM1210 1159h-620l-60 -282h533l-57 -273h-533l-67 -309h638l-61 -295h-416q56 -80 56 -168 q0 -107 -73 -184.5t-198 -77.5q-110 0 -205 65l115 170q35 -41 82 -41q42 0 71 29t29 78q0 63 -47 129h-389l309 1454h957z" />
<glyph unicode="&#x1e1d;" horiz-adv-x="1142" d="M729 1188q-109 0 -172 61.5t-63 163.5q0 22 8 76h172q-4 -28 -4 -43q0 -50 24.5 -82.5t63.5 -32.5q44 0 86.5 44.5t62.5 113.5h172q-28 -132 -126 -216.5t-224 -84.5zM475 432q-71 0 -110 2v-14q0 -205 170 -205q73 0 136 34.5t101 96.5l258 -82q-73 -108 -196.5 -182 t-262.5 -94q47 -73 47 -156q0 -107 -72.5 -184.5t-197.5 -77.5q-110 0 -205 65l115 170q35 -41 82 -41q42 0 71 29t29 78q0 53 -37 113q-176 22 -277 144t-101 306q0 134 54 256t145.5 211t220.5 142t272 53q184 0 290.5 -81.5t106.5 -226.5q0 -175 -161 -265.5t-478 -90.5z M664 860q-87 0 -155.5 -61.5t-105.5 -161.5q23 -2 72 -2q176 0 250 30t74 95q0 47 -37 73.5t-98 26.5z" />
<glyph unicode="&#x1e20;" horiz-adv-x="1441" d="M1313 1843l-41 -198h-596l41 198h596zM801 516l51 244h543l-162 -760h-279l31 143q-190 -153 -389 -153q-233 0 -380.5 165t-147.5 429q0 176 73 339.5t193 281.5t279 188.5t325 70.5q188 0 316.5 -85t170.5 -232l-288 -189q-26 96 -101 151.5t-174 55.5 q-118 0 -221.5 -74.5t-165 -200t-61.5 -267.5q0 -148 73.5 -241t200.5 -93q188 0 367 182l10 45h-264z" />
<glyph unicode="&#x1e21;" horiz-adv-x="1265" d="M467 1264l41 198h596l-41 -198h-596zM-117 -242l213 179q42 -68 117 -108t166 -40q120 0 212.5 71t121.5 214l20 104q-61 -87 -158 -134.5t-200 -47.5q-161 0 -255.5 120t-94.5 304q0 134 49.5 259t132 216.5t195 146t233.5 54.5q111 0 186.5 -51.5t108.5 -145.5l39 176 h284l-213 -1001q-52 -244 -247.5 -387.5t-464.5 -143.5q-307 0 -445 215zM782 406l49 225q-12 84 -62.5 135t-117.5 51q-73 0 -139.5 -51t-105.5 -131.5t-39 -165.5q0 -93 49 -153t131 -60q64 0 126 41t109 109z" />
<glyph unicode="&#x1e24;" horiz-adv-x="1476" d="M317 1454h336l-121 -563h527l121 563h336l-310 -1454h-336l127 596h-526l-127 -596h-336zM389 -418l60 281h294l-59 -281h-295z" />
<glyph unicode="&#x1e25;" d="M297 1495h328l-127 -600q75 96 178 148.5t215 52.5q252 0 252 -248q0 -59 -19 -160l-145 -688h-328l129 604q8 62 8 80q0 123 -106 123q-53 0 -127 -54.5t-117 -136.5l-131 -616h-327zM256 -418l59 281h295l-59 -281h-295z" />
<glyph unicode="&#x1e2a;" horiz-adv-x="1476" d="M317 1454h336l-121 -563h527l121 563h336l-310 -1454h-336l127 596h-526l-127 -596h-336zM528 -408q-119 0 -174 84.5t-24 217.5h168q-15 -65 4 -111.5t61 -46.5q39 0 80 45t62 113h163q-31 -133 -126 -217.5t-214 -84.5z" />
<glyph unicode="&#x1e2b;" d="M297 1495h328l-127 -600q75 96 178 148.5t215 52.5q252 0 252 -248q0 -59 -19 -160l-145 -688h-328l129 604q8 62 8 80q0 123 -106 123q-53 0 -127 -54.5t-117 -136.5l-131 -616h-327zM395 -408q-119 0 -174 84.5t-24 217.5h168q-15 -65 4 -111.5t61 -46.5q39 0 79 45 t62 113h164q-31 -133 -126 -217.5t-214 -84.5z" />
<glyph unicode="&#x1e2e;" horiz-adv-x="614" d="M717 1989l-217 28l155 267h297zM182 1593l58 265h268l-55 -265h-271zM602 1593l57 265h267l-54 -265h-270zM317 1454h336l-309 -1454h-336z" />
<glyph unicode="&#x1e2f;" horiz-adv-x="548" d="M590 1610l-217 28l155 267h297zM55 1214l58 265h268l-55 -265h-271zM475 1214l57 265h267l-54 -265h-270zM209 1075h328l-230 -1075h-327z" />
<glyph unicode="&#x1e36;" horiz-adv-x="1153" d="M317 1454h336l-247 -1159h657l-62 -295h-993zM268 -418l60 281h295l-60 -281h-295z" />
<glyph unicode="&#x1e37;" horiz-adv-x="667" d="M23 182q0 47 10 86l260 1227h328l-238 -1112q-4 -28 -4 -43q0 -80 78 -80q52 0 108 29l-10 -246q-66 -28 -147.5 -44.5t-149.5 -16.5q-115 0 -175 51.5t-60 148.5zM33 -418l59 281h295l-59 -281h-295z" />
<glyph unicode="&#x1e3a;" horiz-adv-x="1153" d="M317 1454h336l-247 -1159h657l-62 -295h-993zM137 -356l45 198h570l-45 -198h-570z" />
<glyph unicode="&#x1e3b;" horiz-adv-x="667" d="M23 182q0 47 10 86l260 1227h328l-238 -1112q-4 -28 -4 -43q0 -80 78 -80q52 0 108 29l-10 -246q-66 -28 -147.5 -44.5t-149.5 -16.5q-115 0 -175 51.5t-60 148.5zM-98 -356l45 198h569l-45 -198h-569z" />
<glyph unicode="&#x1e42;" horiz-adv-x="1689" d="M317 1454h365l180 -760l504 760h365l-310 -1454h-338l187 870l-416 -632h-180l-144 632l-186 -870h-336zM496 -418l59 281h295l-59 -281h-295z" />
<glyph unicode="&#x1e43;" horiz-adv-x="1837" d="M209 1075h295l-39 -180q73 94 183.5 147.5t228.5 53.5q229 0 243 -209q79 100 186.5 154.5t223.5 54.5q242 0 242 -246q0 -62 -21 -162l-147 -688h-328l129 604q10 55 10 86q0 58 -24.5 87.5t-65.5 29.5q-60 0 -128.5 -54.5t-111.5 -136.5l-129 -616h-327l129 604 q10 55 10 86q0 58 -24.5 87.5t-67.5 29.5q-59 0 -127 -54.5t-111 -136.5l-131 -616h-327zM569 -418l60 281h295l-60 -281h-295z" />
<glyph unicode="&#x1e44;" horiz-adv-x="1492" d="M803 1589l59 281h295l-61 -281h-293zM317 1454h263l436 -854l180 854h336l-309 -1454h-267l-436 831l-176 -831h-336z" />
<glyph unicode="&#x1e45;" d="M637 1208l59 281h295l-61 -281h-293zM209 1075h295l-39 -180q75 96 189 148.5t247 52.5q242 0 242 -248q0 -63 -19 -160l-145 -688h-328l129 604q8 41 8 82q0 61 -26 91t-72 30q-60 0 -134.5 -55t-117.5 -136l-131 -616h-327z" />
<glyph unicode="&#x1e46;" horiz-adv-x="1492" d="M317 1454h263l436 -854l180 854h336l-309 -1454h-267l-436 831l-176 -831h-336zM393 -418l60 281h295l-60 -281h-295z" />
<glyph unicode="&#x1e47;" d="M209 1075h295l-39 -180q75 96 189 148.5t247 52.5q242 0 242 -248q0 -63 -19 -160l-145 -688h-328l129 604q8 41 8 82q0 61 -26 91t-72 30q-60 0 -134.5 -55t-117.5 -136l-131 -616h-327zM252 -418l59 281h295l-59 -281h-295z" />
<glyph unicode="&#x1e48;" horiz-adv-x="1492" d="M317 1454h263l436 -854l180 854h336l-309 -1454h-267l-436 831l-176 -831h-336zM262 -356l45 198h570l-46 -198h-569z" />
<glyph unicode="&#x1e49;" d="M209 1075h295l-39 -180q75 96 189 148.5t247 52.5q242 0 242 -248q0 -63 -19 -160l-145 -688h-328l129 604q8 41 8 82q0 61 -26 91t-72 30q-60 0 -134.5 -55t-117.5 -136l-131 -616h-327zM121 -356l45 198h569l-45 -198h-569z" />
<glyph unicode="&#x1e4c;" horiz-adv-x="1501" d="M1155 2001l-217 29l156 266h297zM854 1673q-25 0 -45.5 -9.5t-32 -23t-19.5 -28.5t-11 -24.5t-3 -12.5h-178q4 20 19 53.5t44 75t64.5 77.5t85.5 60.5t103 24.5q42 0 77.5 -15.5t55.5 -34t48 -34t58 -15.5q25 0 46.5 10.5t34.5 23.5t23.5 30.5t13.5 25t5 13.5h174 q-3 -15 -18 -46.5t-44 -74t-65.5 -80.5t-89 -64t-106.5 -26q-40 0 -75.5 14.5t-57 32.5t-50.5 32.5t-57 14.5zM68 596q0 162 72 320.5t189.5 278t278 193.5t328.5 74q128 0 233 -51t172 -136t103.5 -193.5t36.5 -227.5q0 -161 -71.5 -319t-189 -278t-277.5 -194.5 t-327 -74.5q-103 0 -192.5 32.5t-154 90t-110.5 134.5t-68.5 166t-22.5 185zM1137 831q0 92 -28 165.5t-91 120t-152 46.5q-101 0 -188.5 -49.5t-144.5 -128.5t-89 -174t-32 -188q0 -144 69 -240t201 -96q82 0 155.5 33t127 88.5t93 125.5t59.5 146.5t20 150.5z" />
<glyph unicode="&#x1e4d;" d="M924 1620l-217 29l155 266h297zM623 1292q-25 0 -45.5 -9.5t-32 -23t-19.5 -28.5t-11 -24.5t-3 -12.5h-178q4 21 19 54t43.5 74.5t64 77.5t85.5 60.5t103 24.5q42 0 77.5 -15.5t56 -34t48.5 -34t58 -15.5q25 0 46.5 10.5t34.5 23.5t23.5 30.5t13.5 25t5 13.5h174 q-3 -15 -18 -46.5t-44.5 -74t-66 -80.5t-89 -64t-106.5 -26q-40 0 -75.5 14.5t-56.5 32.5t-50 32.5t-57 14.5zM23 436q0 131 48.5 251t134 210.5t212 144.5t272.5 54q119 0 209.5 -35.5t145 -99t81.5 -144.5t27 -178q0 -130 -48.5 -249.5t-134.5 -210.5t-212.5 -145 t-272.5 -54q-119 0 -209.5 35.5t-144.5 98.5t-81 144t-27 178zM811 600q0 101 -43.5 159t-124.5 58q-111 0 -194.5 -100t-83.5 -246q0 -100 43.5 -157.5t123.5 -57.5q111 0 195 99.5t84 244.5z" />
<glyph unicode="&#x1e4e;" horiz-adv-x="1501" d="M707 2009l57 264h268l-55 -264h-270zM1126 2009l58 264h266l-53 -264h-271zM854 1673q-25 0 -45.5 -9.5t-32 -23t-19.5 -28.5t-11 -24.5t-3 -12.5h-178q4 20 19 53.5t44 75t64.5 77.5t85.5 60.5t103 24.5q42 0 77.5 -15.5t55.5 -34t48 -34t58 -15.5q25 0 46.5 10.5 t34.5 23.5t23.5 30.5t13.5 25t5 13.5h174q-3 -15 -18 -46.5t-44 -74t-65.5 -80.5t-89 -64t-106.5 -26q-40 0 -75.5 14.5t-57 32.5t-50.5 32.5t-57 14.5zM68 596q0 162 72 320.5t189.5 278t278 193.5t328.5 74q128 0 233 -51t172 -136t103.5 -193.5t36.5 -227.5 q0 -161 -71.5 -319t-189 -278t-277.5 -194.5t-327 -74.5q-103 0 -192.5 32.5t-154 90t-110.5 134.5t-68.5 166t-22.5 185zM1137 831q0 92 -28 165.5t-91 120t-152 46.5q-101 0 -188.5 -49.5t-144.5 -128.5t-89 -174t-32 -188q0 -144 69 -240t201 -96q82 0 155.5 33t127 88.5 t93 125.5t59.5 146.5t20 150.5z" />
<glyph unicode="&#x1e4f;" d="M475 1628l57 264h269l-56 -264h-270zM895 1628l57 264h267l-54 -264h-270zM623 1292q-25 0 -45.5 -9.5t-32 -23t-19.5 -28.5t-11 -24.5t-3 -12.5h-178q4 21 19 54t43.5 74.5t64 77.5t85.5 60.5t103 24.5q42 0 77.5 -15.5t56 -34t48.5 -34t58 -15.5q25 0 46.5 10.5 t34.5 23.5t23.5 30.5t13.5 25t5 13.5h174q-3 -15 -18 -46.5t-44.5 -74t-66 -80.5t-89 -64t-106.5 -26q-40 0 -75.5 14.5t-56.5 32.5t-50 32.5t-57 14.5zM23 436q0 131 48.5 251t134 210.5t212 144.5t272.5 54q119 0 209.5 -35.5t145 -99t81.5 -144.5t27 -178 q0 -130 -48.5 -249.5t-134.5 -210.5t-212.5 -145t-272.5 -54q-119 0 -209.5 35.5t-144.5 98.5t-81 144t-27 178zM811 600q0 101 -43.5 159t-124.5 58q-111 0 -194.5 -100t-83.5 -246q0 -100 43.5 -157.5t123.5 -57.5q111 0 195 99.5t84 244.5z" />
<glyph unicode="&#x1e50;" horiz-adv-x="1501" d="M788 2263h295l45 -266l-227 -33zM678 1645l41 198h596l-41 -198h-596zM68 596q0 162 72 320.5t189.5 278t278 193.5t328.5 74q128 0 233 -51t172 -136t103.5 -193.5t36.5 -227.5q0 -161 -71.5 -319t-189 -278t-277.5 -194.5t-327 -74.5q-103 0 -192.5 32.5t-154 90 t-110.5 134.5t-68.5 166t-22.5 185zM1137 831q0 92 -28 165.5t-91 120t-152 46.5q-101 0 -188.5 -49.5t-144.5 -128.5t-89 -174t-32 -188q0 -144 69 -240t201 -96q82 0 155.5 33t127 88.5t93 125.5t59.5 146.5t20 150.5z" />
<glyph unicode="&#x1e51;" d="M557 1882h295l45 -266l-227 -33zM446 1264l41 198h596l-41 -198h-596zM23 436q0 131 48.5 251t134 210.5t212 144.5t272.5 54q119 0 209.5 -35.5t145 -99t81.5 -144.5t27 -178q0 -130 -48.5 -249.5t-134.5 -210.5t-212.5 -145t-272.5 -54q-119 0 -209.5 35.5t-144.5 98.5 t-81 144t-27 178zM811 600q0 101 -43.5 159t-124.5 58q-111 0 -194.5 -100t-83.5 -246q0 -100 43.5 -157.5t123.5 -57.5q111 0 195 99.5t84 244.5z" />
<glyph unicode="&#x1e52;" horiz-adv-x="1501" d="M1151 1974l-217 29l156 266h296zM678 1645l41 198h596l-41 -198h-596zM68 596q0 162 72 320.5t189.5 278t278 193.5t328.5 74q128 0 233 -51t172 -136t103.5 -193.5t36.5 -227.5q0 -161 -71.5 -319t-189 -278t-277.5 -194.5t-327 -74.5q-103 0 -192.5 32.5t-154 90 t-110.5 134.5t-68.5 166t-22.5 185zM1137 831q0 92 -28 165.5t-91 120t-152 46.5q-101 0 -188.5 -49.5t-144.5 -128.5t-89 -174t-32 -188q0 -144 69 -240t201 -96q82 0 155.5 33t127 88.5t93 125.5t59.5 146.5t20 150.5z" />
<glyph unicode="&#x1e53;" d="M920 1593l-218 29l156 266h297zM446 1264l41 198h596l-41 -198h-596zM23 436q0 131 48.5 251t134 210.5t212 144.5t272.5 54q119 0 209.5 -35.5t145 -99t81.5 -144.5t27 -178q0 -130 -48.5 -249.5t-134.5 -210.5t-212.5 -145t-272.5 -54q-119 0 -209.5 35.5t-144.5 98.5 t-81 144t-27 178zM811 600q0 101 -43.5 159t-124.5 58q-111 0 -194.5 -100t-83.5 -246q0 -100 43.5 -157.5t123.5 -57.5q111 0 195 99.5t84 244.5z" />
<glyph unicode="&#x1e5a;" horiz-adv-x="1325" d="M8 0l309 1454h625q109 0 193 -59.5t126 -152t42 -198.5q0 -150 -89 -289.5t-229 -213.5l186 -541h-378l-160 469h-191l-98 -469h-336zM784 762q62 0 117 75t55 173q0 66 -28.5 107.5t-69.5 41.5h-268l-84 -397h278zM297 -418l59 281h295l-59 -281h-295z" />
<glyph unicode="&#x1e5b;" horiz-adv-x="802" d="M209 1075h301l-47 -217q77 108 172.5 170t187.5 62q35 0 47 -3l-61 -292q-114 -2 -211 -40t-154 -110l-137 -645h-327zM-88 -418l59 281h295l-59 -281h-295z" />
<glyph unicode="&#x1e5e;" horiz-adv-x="1325" d="M8 0l309 1454h625q109 0 193 -59.5t126 -152t42 -198.5q0 -150 -89 -289.5t-229 -213.5l186 -541h-378l-160 469h-191l-98 -469h-336zM784 762q62 0 117 75t55 173q0 66 -28.5 107.5t-69.5 41.5h-268l-84 -397h278zM166 -356l45 198h569l-45 -198h-569z" />
<glyph unicode="&#x1e5f;" horiz-adv-x="802" d="M209 1075h301l-47 -217q77 108 172.5 170t187.5 62q35 0 47 -3l-61 -292q-114 -2 -211 -40t-154 -110l-137 -645h-327zM-219 -356l45 198h569l-45 -198h-569z" />
<glyph unicode="&#x1e60;" horiz-adv-x="1216" d="M696 1616l60 280h295l-62 -280h-293zM-55 164l209 293q8 -18 63 -56.5t155 -76t197 -37.5q93 0 137 34.5t44 94.5q0 19 -6.5 35.5t-24 30.5t-32.5 24t-47 23t-51.5 20t-62.5 21t-65 22q-152 54 -222.5 127.5t-70.5 189.5q0 128 53 235t141 176.5t199.5 107.5t231.5 38 q247 0 469 -159l-205 -279q-5 14 -52 46t-129 62.5t-157 30.5q-86 0 -134 -37.5t-48 -105.5q0 -28 14 -49t48.5 -39t69 -30.5t98.5 -33.5q9 -3 13 -4q86 -29 143.5 -57t107.5 -68.5t73.5 -96.5t23.5 -130q0 -112 -36.5 -203.5t-97 -151.5t-142.5 -101t-170 -58.5t-182 -17.5 q-153 0 -301.5 48t-253.5 132z" />
<glyph unicode="&#x1e61;" horiz-adv-x="987" d="M479 1208l60 281h295l-62 -281h-293zM-53 152l157 200q161 -139 320 -139q65 0 99 26.5t34 73.5q0 36 -33 59t-118 50q-178 57 -249 111.5t-71 148.5q0 174 145 294t351 120q121 0 213.5 -35t167.5 -117l-168 -196q-75 63 -134 90.5t-120 27.5t-98 -26.5t-37 -75.5 q0 -37 30 -56.5t119 -45.5q179 -54 255.5 -116t76.5 -165q0 -176 -139 -288.5t-363 -112.5q-134 0 -251.5 45t-186.5 127z" />
<glyph unicode="&#x1e62;" horiz-adv-x="1216" d="M-55 164l209 293q8 -18 63 -56.5t155 -76t197 -37.5q93 0 137 34.5t44 94.5q0 19 -6.5 35.5t-24 30.5t-32.5 24t-47 23t-51.5 20t-62.5 21t-65 22q-152 54 -222.5 127.5t-70.5 189.5q0 128 53 235t141 176.5t199.5 107.5t231.5 38q247 0 469 -159l-205 -279q-5 14 -52 46 t-129 62.5t-157 30.5q-86 0 -134 -37.5t-48 -105.5q0 -28 14 -49t48.5 -39t69 -30.5t98.5 -33.5q9 -3 13 -4q86 -29 143.5 -57t107.5 -68.5t73.5 -96.5t23.5 -130q0 -112 -36.5 -203.5t-97 -151.5t-142.5 -101t-170 -58.5t-182 -17.5q-153 0 -301.5 48t-253.5 132zM262 -418 l60 281h294l-59 -281h-295z" />
<glyph unicode="&#x1e63;" horiz-adv-x="987" d="M-53 152l157 200q161 -139 320 -139q65 0 99 26.5t34 73.5q0 36 -33 59t-118 50q-178 57 -249 111.5t-71 148.5q0 174 145 294t351 120q121 0 213.5 -35t167.5 -117l-168 -196q-75 63 -134 90.5t-120 27.5t-98 -26.5t-37 -75.5q0 -37 30 -56.5t119 -45.5 q179 -54 255.5 -116t76.5 -165q0 -176 -139 -288.5t-363 -112.5q-134 0 -251.5 45t-186.5 127zM135 -418l60 281h294l-59 -281h-295z" />
<glyph unicode="&#x1e64;" horiz-adv-x="1216" d="M854 2042l59 280h295l-61 -280h-293zM946 1608l-217 28l156 267h297zM-55 164l209 293q8 -18 63 -56.5t155 -76t197 -37.5q93 0 137 34.5t44 94.5q0 19 -6.5 35.5t-24 30.5t-32.5 24t-47 23t-51.5 20t-62.5 21t-65 22q-152 54 -222.5 127.5t-70.5 189.5q0 128 53 235 t141 176.5t199.5 107.5t231.5 38q247 0 469 -159l-205 -279q-5 14 -52 46t-129 62.5t-157 30.5q-86 0 -134 -37.5t-48 -105.5q0 -28 14 -49t48.5 -39t69 -30.5t98.5 -33.5q9 -3 13 -4q86 -29 143.5 -57t107.5 -68.5t73.5 -96.5t23.5 -130q0 -112 -36.5 -203.5t-97 -151.5 t-142.5 -101t-170 -58.5t-182 -17.5q-153 0 -301.5 48t-253.5 132z" />
<glyph unicode="&#x1e65;" horiz-adv-x="987" d="M637 1634l59 281h295l-61 -281h-293zM729 1200l-217 29l156 266h297zM-53 152l157 200q161 -139 320 -139q65 0 99 26.5t34 73.5q0 36 -33 59t-118 50q-178 57 -249 111.5t-71 148.5q0 174 145 294t351 120q121 0 213.5 -35t167.5 -117l-168 -196q-75 63 -134 90.5 t-120 27.5t-98 -26.5t-37 -75.5q0 -37 30 -56.5t119 -45.5q179 -54 255.5 -116t76.5 -165q0 -176 -139 -288.5t-363 -112.5q-134 0 -251.5 45t-186.5 127z" />
<glyph unicode="&#x1e66;" horiz-adv-x="1216" d="M782 2036l60 280h295l-62 -280h-293zM545 1821l184 75l137 -129l193 129l151 -75l-262 -219h-235zM-55 164l209 293q8 -18 63 -56.5t155 -76t197 -37.5q93 0 137 34.5t44 94.5q0 19 -6.5 35.5t-24 30.5t-32.5 24t-47 23t-51.5 20t-62.5 21t-65 22q-152 54 -222.5 127.5 t-70.5 189.5q0 128 53 235t141 176.5t199.5 107.5t231.5 38q247 0 469 -159l-205 -279q-5 14 -52 46t-129 62.5t-157 30.5q-86 0 -134 -37.5t-48 -105.5q0 -28 14 -49t48.5 -39t69 -30.5t98.5 -33.5q9 -3 13 -4q86 -29 143.5 -57t107.5 -68.5t73.5 -96.5t23.5 -130 q0 -112 -36.5 -203.5t-97 -151.5t-142.5 -101t-170 -58.5t-182 -17.5q-153 0 -301.5 48t-253.5 132z" />
<glyph unicode="&#x1e67;" horiz-adv-x="987" d="M565 1628l60 281h295l-62 -281h-293zM328 1413l184 76l137 -129l193 129l151 -76l-262 -219h-235zM-53 152l157 200q161 -139 320 -139q65 0 99 26.5t34 73.5q0 36 -33 59t-118 50q-178 57 -249 111.5t-71 148.5q0 174 145 294t351 120q121 0 213.5 -35t167.5 -117 l-168 -196q-75 63 -134 90.5t-120 27.5t-98 -26.5t-37 -75.5q0 -37 30 -56.5t119 -45.5q179 -54 255.5 -116t76.5 -165q0 -176 -139 -288.5t-363 -112.5q-134 0 -251.5 45t-186.5 127z" />
<glyph unicode="&#x1e68;" horiz-adv-x="1216" d="M696 1616l60 280h295l-62 -280h-293zM-55 164l209 293q8 -18 63 -56.5t155 -76t197 -37.5q93 0 137 34.5t44 94.5q0 19 -6.5 35.5t-24 30.5t-32.5 24t-47 23t-51.5 20t-62.5 21t-65 22q-152 54 -222.5 127.5t-70.5 189.5q0 128 53 235t141 176.5t199.5 107.5t231.5 38 q247 0 469 -159l-205 -279q-5 14 -52 46t-129 62.5t-157 30.5q-86 0 -134 -37.5t-48 -105.5q0 -28 14 -49t48.5 -39t69 -30.5t98.5 -33.5q9 -3 13 -4q86 -29 143.5 -57t107.5 -68.5t73.5 -96.5t23.5 -130q0 -112 -36.5 -203.5t-97 -151.5t-142.5 -101t-170 -58.5t-182 -17.5 q-153 0 -301.5 48t-253.5 132zM262 -418l60 281h294l-59 -281h-295z" />
<glyph unicode="&#x1e69;" horiz-adv-x="987" d="M479 1208l60 281h295l-62 -281h-293zM-53 152l157 200q161 -139 320 -139q65 0 99 26.5t34 73.5q0 36 -33 59t-118 50q-178 57 -249 111.5t-71 148.5q0 174 145 294t351 120q121 0 213.5 -35t167.5 -117l-168 -196q-75 63 -134 90.5t-120 27.5t-98 -26.5t-37 -75.5 q0 -37 30 -56.5t119 -45.5q179 -54 255.5 -116t76.5 -165q0 -176 -139 -288.5t-363 -112.5q-134 0 -251.5 45t-186.5 127zM135 -418l60 281h294l-59 -281h-295z" />
<glyph unicode="&#x1e6c;" horiz-adv-x="1220" d="M559 1159h-416l62 295h1165l-61 -295h-414l-248 -1159h-336zM246 -418l59 281h295l-59 -281h-295z" />
<glyph unicode="&#x1e6d;" horiz-adv-x="802" d="M94 182q0 43 8 84l119 561h-129l55 248h127l74 342h328l-74 -342h207l-53 -248h-207l-94 -448q-4 -24 -4 -35q0 -65 69 -65q51 0 146 38l4 -260q-175 -77 -336 -77q-110 0 -175 48.5t-65 153.5zM53 -418l60 281h295l-60 -281h-295z" />
<glyph unicode="&#x1e6e;" horiz-adv-x="1220" d="M559 1159h-416l62 295h1165l-61 -295h-414l-248 -1159h-336zM115 -356l45 198h569l-45 -198h-569z" />
<glyph unicode="&#x1e6f;" horiz-adv-x="802" d="M94 182q0 43 8 84l119 561h-129l55 248h127l74 342h328l-74 -342h207l-53 -248h-207l-94 -448q-4 -24 -4 -35q0 -65 69 -65q51 0 146 38l4 -260q-175 -77 -336 -77q-110 0 -175 48.5t-65 153.5zM-78 -356l45 198h570l-45 -198h-570z" />
<glyph unicode="&#x1e78;" horiz-adv-x="1468" d="M1128 2001l-217 29l156 266h297zM827 1673q-25 0 -45 -9.5t-31.5 -23t-19.5 -28.5t-11 -24.5t-3 -12.5h-178q4 21 19 54t43.5 74.5t64 77.5t85.5 60.5t103 24.5q42 0 77.5 -15.5t56 -34t48.5 -34t58 -15.5q25 0 46.5 10.5t34.5 23.5t23.5 30.5t13.5 25t5 13.5h174 q-3 -15 -18 -46.5t-44.5 -74t-66 -80.5t-89 -64t-106.5 -26q-40 0 -75.5 14.5t-57 32.5t-50.5 32.5t-57 14.5zM113 483q0 111 24 228l160 743h336l-160 -743q-18 -103 -18 -166q0 -118 50.5 -188t158.5 -70q75 0 138.5 35.5t108 97t74.5 134t49 157.5l158 743h336l-158 -743 q-33 -154 -97.5 -283t-159 -228.5t-226.5 -155.5t-287 -56q-128 0 -224 37.5t-152.5 105.5t-83.5 155.5t-27 196.5z" />
<glyph unicode="&#x1e79;" horiz-adv-x="1241" d="M956 1626l-217 29l156 266h297zM655 1298q-25 0 -45 -9.5t-31.5 -23t-19.5 -28.5t-11 -24.5t-3 -12.5h-178q4 21 19 54t43.5 74.5t64 77.5t85.5 60.5t103 24.5q42 0 77.5 -15.5t56 -33.5t48.5 -33.5t58 -15.5q25 0 46.5 10.5t34 23.5t23 30t13.5 24.5t5 13.5h175 q-3 -15 -18 -46.5t-44.5 -74t-66 -80.5t-89 -64t-106.5 -26q-40 0 -75.5 14.5t-57 32.5t-50.5 32.5t-57 14.5zM33 238q0 66 18 149l148 688h325l-131 -616q-10 -52 -10 -80q0 -123 102 -123q128 0 244 156l141 663h328l-149 -706q-7 -31 -7 -43q0 -47 54 -50l-60 -276 q-79 -16 -139 -16q-82 0 -129 32.5t-47 98.5q0 9 10 71q-180 -206 -446 -206q-124 0 -188 66t-64 192z" />
<glyph unicode="&#x1e7a;" horiz-adv-x="1468" d="M676 1982l57 265h268l-55 -265h-270zM1096 1982l57 265h266l-53 -265h-270zM651 1645l41 198h596l-41 -198h-596zM113 483q0 111 24 228l160 743h336l-160 -743q-18 -103 -18 -166q0 -118 50.5 -188t158.5 -70q75 0 138.5 35.5t108 97t74.5 134t49 157.5l158 743h336 l-158 -743q-33 -154 -97.5 -283t-159 -228.5t-226.5 -155.5t-287 -56q-128 0 -224 37.5t-152.5 105.5t-83.5 155.5t-27 196.5z" />
<glyph unicode="&#x1e7b;" horiz-adv-x="1241" d="M504 1608l57 264h268l-55 -264h-270zM924 1608l57 264h266l-53 -264h-270zM479 1270l41 198h596l-41 -198h-596zM33 238q0 66 18 149l148 688h325l-131 -616q-10 -52 -10 -80q0 -123 102 -123q128 0 244 156l141 663h328l-149 -706q-7 -31 -7 -43q0 -47 54 -50l-60 -276 q-79 -16 -139 -16q-82 0 -129 32.5t-47 98.5q0 9 10 71q-180 -206 -446 -206q-124 0 -188 66t-64 192z" />
<glyph unicode="&#x1e80;" horiz-adv-x="2052" d="M963 1870h294l46 -266l-228 -33zM156 1454h364l107 -1069l209 391l-82 676h307l37 -465l233 465h309l-374 -676l47 -391l559 1069h369l-861 -1454h-278l-94 569l-332 -569h-281z" />
<glyph unicode="&#x1e81;" horiz-adv-x="1642" d="M684 1489h295l45 -266l-227 -33zM78 1075h315l105 -778q94 162 145 262l-98 516h272l37 -325q85 175 147 325h252q-111 -292 -262 -514l35 -190q163 217 239.5 350t164.5 354h296q-194 -520 -682 -1075h-215l-51 377q-66 -118 -217 -377h-282z" />
<glyph unicode="&#x1e82;" horiz-adv-x="2052" d="M1325 1581l-217 29l156 266h297zM156 1454h364l107 -1069l209 391l-82 676h307l37 -465l233 465h309l-374 -676l47 -391l559 1069h369l-861 -1454h-278l-94 569l-332 -569h-281z" />
<glyph unicode="&#x1e83;" horiz-adv-x="1642" d="M1047 1200l-218 29l156 266h297zM78 1075h315l105 -778q94 162 145 262l-98 516h272l37 -325q85 175 147 325h252q-111 -292 -262 -514l35 -190q163 217 239.5 350t164.5 354h296q-194 -520 -682 -1075h-215l-51 377q-66 -118 -217 -377h-282z" />
</font>
</defs>
</svg>
