<?xml version="1.0" standalone="no"?>
<!DOCTYPE svg PUBLIC "-//W3C//DTD SVG 1.1//EN" "http://www.w3.org/Graphics/SVG/1.1/DTD/svg11.dtd" >
<svg xmlns="http://www.w3.org/2000/svg" xmlns:xlink="http://www.w3.org/1999/xlink" version="1.1">
<metadata></metadata>
<defs>
<font id="rawlinethin_italic" horiz-adv-x="0" >
<font-face units-per-em="2048" ascent="1638" descent="-410" />
<missing-glyph horiz-adv-x="522" />
<glyph unicode="fi" horiz-adv-x="882" d="M285 1022h-146l8 41h148l8 43q10 54 31 109t56.5 109.5t80 96.5t106 68.5t130.5 26.5q62 0 116.5 -17t78.5 -32.5t24 -20.5l-37 -25q-15 21 -69 37.5t-124 16.5q-71 0 -133.5 -33.5t-105.5 -88.5t-71.5 -118t-41.5 -129l-8 -43h475l-225 -1063h-41l217 1022h-436 l-217 -1022h-41z" />
<glyph unicode="fl" horiz-adv-x="1019" d="M635 115q0 29 4 43l233 1097q7 28 7 52q0 72 -49.5 120t-151.5 48q-66 0 -124.5 -33t-99.5 -87t-69 -117.5t-41 -131.5l-8 -43h242l-11 -41h-241l-217 -1022h-41l217 1022h-146l8 41h148l8 43q17 86 48.5 158.5t78 129.5t112.5 89.5t144 32.5q112 0 173 -55t61 -144 q0 -25 -7 -60l-233 -1099q-4 -20 -4 -29q0 -42 23.5 -71t68.5 -29q15 0 33 2t33 4.5t28 5t21 4.5l8 2l10 -39q-1 -1 -21.5 -5.5t-55.5 -8.5t-66 -4q-59 0 -91 35t-32 90z" />
<glyph unicode="&#xd;" />
<glyph unicode=" "  horiz-adv-x="522" />
<glyph unicode="&#x09;" horiz-adv-x="522" />
<glyph unicode="&#xa0;" horiz-adv-x="522" />
<glyph unicode="!" horiz-adv-x="458" d="M166 410l223 1058h41l-223 -1058h-41zM78 0l37 172h51l-47 -172h-41z" />
<glyph unicode="&#x22;" horiz-adv-x="434" d="M260 1167l62 287h40l-61 -287h-41zM358 1167l62 287h41l-62 -287h-41z" />
<glyph unicode="#" horiz-adv-x="1275" d="M1276 985h-229l-218 -491h265l-9 -41h-274l-199 -453h-43l201 453h-465l-199 -453h-43l201 453h-219l8 41h232l215 491h-264l10 41h274l189 428h43l-193 -428h465l190 428h43l-192 -428h219zM788 494l218 491h-465l-217 -491h464z" />
<glyph unicode="$" horiz-adv-x="1206" d="M811 1464q132 0 221 -41.5t150 -132.5l-33 -28q-60 92 -139 127.5t-207 35.5l-144 -680q83 -19 140.5 -36.5t113 -43.5t89 -58t53.5 -77.5t20 -103.5q0 -202 -155.5 -319t-417.5 -117h-4l-37 -180h-41l39 180q-149 7 -258 62.5t-189 162.5l35 27q74 -105 176.5 -157 t243.5 -58l145 688q-98 21 -162 42.5t-117 54.5t-77.5 80.5t-24.5 113.5q0 203 149 326t392 132l43 205h41zM274 1014q0 -56 20.5 -96.5t67 -70.5t106 -50.5t153.5 -42.5l143 671q-248 -9 -369 -121.5t-121 -289.5zM1032 416q0 118 -89.5 182t-291.5 109l-145 -682h6 q241 0 380.5 101t139.5 290z" />
<glyph unicode="%" horiz-adv-x="1318" d="M215 1141q0 132 103.5 233t232.5 101q94 0 154.5 -67t60.5 -165q0 -87 -48.5 -164.5t-126.5 -123.5t-161 -46q-95 0 -155 66.5t-60 165.5zM-27 23l1391 1433l27 -24l-1391 -1434zM725 1235q0 85 -53 142t-131 57q-109 0 -197 -88t-88 -197q0 -85 51.5 -142t130.5 -57 q109 0 198 88t89 197zM600 211q0 87 48.5 164.5t126.5 123.5t161 46q94 0 154.5 -67t60.5 -165q0 -133 -103.5 -233t-232.5 -100q-94 0 -154.5 66t-60.5 165zM1110 303q0 85 -52 143t-130 58q-109 0 -198 -88.5t-89 -198.5q0 -84 50.5 -140.5t131.5 -56.5q109 0 198 87.5 t89 195.5z" />
<glyph unicode="&#x26;" horiz-adv-x="1368" d="M1335 811h-200q-64 -304 -236 -526l199 -285h-60l-170 246q-104 -126 -229 -196t-254 -70q-152 0 -248 94t-96 245q0 144 98 269.5t322 251.5q-69 106 -97 172t-28 123q0 133 121.5 235.5t279.5 102.5q109 0 195.5 -57.5t130.5 -158.5l-29 -24q-40 95 -120 149t-183 54 q-138 0 -246 -91t-108 -208q0 -104 127 -287l370 -531q170 234 224 533h245zM391 23q120 0 237.5 68t215.5 190l-324 471q-1 2 -16 23t-21 32q-209 -120 -303 -234.5t-94 -248.5q0 -133 85 -217t220 -84z" />
<glyph unicode="'" horiz-adv-x="333" d="M260 1165l62 289h40l-61 -289h-41z" />
<glyph unicode="(" horiz-adv-x="466" d="M549 1487l26 -25q-79 -92 -150.5 -195.5t-138 -225.5t-106 -253t-39.5 -247q0 -135 30.5 -290.5t86.5 -279.5l-37 -24q-58 132 -89.5 285t-31.5 292q0 89 15.5 175.5t48 170t68.5 155.5t93 157t105 149.5t119 155.5z" />
<glyph unicode=")" horiz-adv-x="466" d="M-39 -53l-27 24q201 229 314.5 458t113.5 439q0 148 -31.5 316.5t-78.5 277.5l37 25q117 -323 117 -600q0 -232 -111 -456.5t-334 -483.5z" />
<glyph unicode="*" horiz-adv-x="600" d="M295 1155l104 117l-120 45l20 39l121 -45l31 143h38l-30 -143l143 45v-39l-139 -45l57 -117l-39 -25l-55 117l-104 -117z" />
<glyph unicode="+" horiz-adv-x="839" d="M748 748v-41h-287v-308h-41v308h-287v41h287v307h41v-307h287z" />
<glyph unicode="," horiz-adv-x="423" d="M66 -166l51 146h-19l33 151h51l-32 -151l-56 -146h-28z" />
<glyph unicode="-" horiz-adv-x="827" d="M121 535l8 40h551l-8 -40h-551z" />
<glyph unicode="." horiz-adv-x="325" d="M16 0l29 131h39l-27 -131h-41z" />
<glyph unicode="/" horiz-adv-x="1087" d="M1194 1454l-1196 -1454h-51l1196 1454h51z" />
<glyph unicode="0" horiz-adv-x="1314" d="M109 557q0 101 27 208t74 206t115.5 187.5t147.5 154t173 103.5t190 38q85 0 155 -34.5t116.5 -91.5t78.5 -133t46.5 -156.5t14.5 -164.5q0 -152 -58.5 -312t-155 -288.5t-232.5 -211t-279 -82.5q-105 0 -186.5 51t-129.5 135.5t-72.5 184t-24.5 206.5zM1206 868 q0 104 -24 199.5t-69 173.5t-119.5 125t-166.5 47q-95 0 -185.5 -40t-163 -107t-134 -155.5t-103 -185.5t-64.5 -197t-23 -189q0 -105 22 -196t66 -164.5t118 -116t170 -42.5q113 0 220 55t187.5 145t142.5 200.5t94 227.5t32 220z" />
<glyph unicode="1" horiz-adv-x="688" d="M2 41h258l289 1366q-47 -54 -156.5 -115t-181.5 -61l8 41q60 0 145.5 50.5t140 97t58.5 55.5h43l-305 -1434h246l-8 -41h-545z" />
<glyph unicode="2" horiz-adv-x="1091" d="M506 653q31 12 89.5 33t95 35t89.5 38t87 46.5t72.5 57.5t60 73t36.5 91t15 114q0 59 -17.5 110t-53 92t-95 65t-137.5 24q-264 0 -467 -238l-29 20q0 3 22.5 29t68.5 65t104 75.5t142 63t171 26.5q84 0 150 -27t105 -73.5t59 -104t20 -123.5q0 -67 -17 -125.5t-42 -101 t-67 -81.5t-80 -63.5t-94 -50.5t-94.5 -40t-97 -35t-86.5 -32q-421 -163 -491 -575h841l-8 -41h-883q19 137 68 246t122.5 185.5t155.5 129t185 92.5z" />
<glyph unicode="3" horiz-adv-x="1136" d="M47 360h41q0 -162 103.5 -249.5t263.5 -87.5q125 0 236.5 52.5t180 144.5t68.5 200q0 136 -109.5 216.5t-300.5 80.5h-67l8 41h70q243 0 376.5 97.5t133.5 266.5q0 141 -91 225.5t-243 84.5q-133 0 -250 -64t-182 -172l-33 16q70 118 200 189.5t275 71.5q165 0 266 -95.5 t101 -249.5q0 -146 -93.5 -247.5t-267.5 -145.5q117 -24 183.5 -107.5t66.5 -197.5q0 -122 -77 -226.5t-201 -163t-261 -58.5q-176 0 -286.5 99t-110.5 279z" />
<glyph unicode="4" horiz-adv-x="1079" d="M670 0l92 432h-748l9 35l968 987h29l-209 -981h172l-8 -41h-172l-92 -432h-41zM770 473l193 905l-883 -905h690z" />
<glyph unicode="5" horiz-adv-x="1091" d="M25 279h43q30 -117 120.5 -188t217.5 -71q98 0 192.5 39.5t166.5 107t116.5 163.5t44.5 202q0 149 -92 243.5t-238 94.5q-110 0 -220 -52.5t-194 -147.5h-49l320 784h655l-8 -41h-623l-266 -665q86 79 188.5 121t206.5 42q159 0 260 -103.5t101 -268.5q0 -118 -50 -224 t-130.5 -178.5t-183 -114.5t-206.5 -42q-144 0 -243 81.5t-129 217.5z" />
<glyph unicode="6" horiz-adv-x="1189" d="M1081 565q0 173 -105 290.5t-271 117.5q-154 0 -300.5 -95t-224.5 -247q81 372 247.5 582t369.5 210q126 0 209 -75.5t94 -198.5l41 14q-12 138 -103.5 219.5t-232.5 81.5q-152 0 -285.5 -89.5t-224.5 -236.5t-143 -336.5t-52 -387.5q0 -199 106 -316.5t279 -117.5 q112 0 221 47.5t191 126.5t133 187.5t51 223.5zM145 397q0 137 79 261.5t205 199t259 74.5q152 0 251 -110t99 -269q0 -139 -78.5 -263t-203.5 -197t-258 -73q-153 0 -253 109t-100 268z" />
<glyph unicode="7" horiz-adv-x="948" d="M1034 1413h-827l8 41h897l-1018 -1454h-47z" />
<glyph unicode="8" horiz-adv-x="1140" d="M430 -14q-176 0 -277.5 98.5t-101.5 241.5q0 85 37 162.5t97.5 134.5t131.5 97t144 60q-91 36 -148 107.5t-57 167.5q0 91 45 168.5t117 126.5t158.5 76.5t173.5 27.5q142 0 243 -78.5t101 -210.5q0 -71 -29 -134t-79 -110t-109.5 -82t-128.5 -59q110 -36 177.5 -124 t67.5 -205q0 -134 -83 -242.5t-211 -165.5t-269 -57zM608 801q72 0 149 24.5t143.5 68.5t109.5 113t43 150q0 117 -92 186.5t-224 69.5q-80 0 -158 -25.5t-141 -70t-102 -112.5t-39 -146q0 -79 46.5 -139.5t116.5 -89.5t148 -29zM598 760q-84 0 -173 -32t-163.5 -86.5 t-122 -137t-47.5 -174.5q0 -94 53 -166.5t132.5 -108t168.5 -35.5q67 0 138 19.5t136.5 57.5t117.5 89t83 119.5t31 143.5q0 94 -53 167t-132.5 108.5t-168.5 35.5z" />
<glyph unicode="9" horiz-adv-x="1187" d="M530 471q154 0 300.5 95t222.5 247q-78 -372 -245.5 -582.5t-371.5 -210.5q-125 0 -209 76t-94 199l-41 -14q13 -138 105 -219.5t233 -81.5q122 0 233 58t195.5 159.5t147 233.5t95 286.5t32.5 312.5q0 199 -105 316.5t-278 117.5q-112 0 -221 -47.5t-191 -126.5 t-133 -187.5t-51 -223.5q0 -173 105 -290.5t271 -117.5zM1087 1047q0 -137 -79 -261.5t-204.5 -199t-258.5 -74.5q-151 0 -249.5 110t-98.5 269q0 138 78.5 262.5t203.5 197t258 72.5q153 0 251.5 -108.5t98.5 -267.5z" />
<glyph unicode=":" horiz-adv-x="317" d="M203 928l28 131h41l-28 -131h-41zM6 0l29 131h39l-27 -131h-41z" />
<glyph unicode=";" horiz-adv-x="329" d="M209 928l29 131h41l-29 -131h-41zM-29 -166l52 146h-19l33 151h51l-33 -151l-55 -146h-29z" />
<glyph unicode="&#x3c;" horiz-adv-x="1107" d="M63 549l855 510v-45l-795 -484l795 -485v-45l-855 512v37z" />
<glyph unicode="=" horiz-adv-x="927" d="M152 616v41h600v-41h-600zM152 473v41h600v-41h-600z" />
<glyph unicode="&#x3e;" horiz-adv-x="1107" d="M1008 512l-854 -512v45l794 485l-794 484v45l854 -510v-37z" />
<glyph unicode="?" horiz-adv-x="919" d="M291 367q20 95 46 162.5t60 109.5t65.5 65.5t76.5 45.5q22 11 61.5 28.5t65 29t60.5 32t58 39.5t48.5 48.5t40.5 63t24.5 79.5t9.5 101q0 127 -74 194t-186 67q-118 0 -233.5 -65t-188.5 -175l-32 16q79 124 206.5 194.5t253.5 70.5q127 0 211 -80t84 -222 q0 -58 -10.5 -107t-25.5 -84.5t-42.5 -68t-51.5 -53t-62.5 -44t-65.5 -36t-71.5 -33.5t-69.5 -34q-41 -20 -67.5 -40.5t-56 -57.5t-52.5 -97.5t-41 -148.5h-41zM213 0l37 172h41l-37 -172h-41z" />
<glyph unicode="@" horiz-adv-x="1619" d="M1448 614q0 128 -40.5 236.5t-111 183.5t-169.5 117.5t-214 42.5q-153 0 -303 -73.5t-263 -192.5t-183 -279.5t-70 -324.5q0 -251 151.5 -416.5t385.5 -165.5q150 0 303 78l12 -37q-175 -82 -338 -82q-157 0 -284.5 82.5t-199 224.5t-71.5 314q0 138 48 275t133 250.5 t193 201.5t236.5 137t256.5 49q246 0 407.5 -170.5t161.5 -443.5q0 -159 -55 -310.5t-149.5 -247.5t-199.5 -96q-55 0 -79.5 29t-24.5 94q0 43 8 82q-69 -67 -159.5 -107t-174.5 -40q-130 0 -210 97.5t-80 254.5q0 142 66.5 267.5t178 200.5t238.5 75q95 0 164.5 -46.5 t103.5 -132.5l37 181h41l-154 -719q-14 -69 -14 -107q0 -88 80 -88q85 0 165 88.5t128.5 229.5t48.5 288zM1018 285l82 399q-26 91 -94.5 142t-163.5 51q-83 0 -163.5 -41t-140 -108.5t-96 -159t-36.5 -187.5q0 -138 71.5 -226.5t188.5 -88.5q104 0 210 64.5t142 154.5z" />
<glyph unicode="A" horiz-adv-x="1325" d="M831 1454h37l291 -1454h-45l-104 520h-719l-326 -520h-45zM1001 561l-163 834l-523 -834h686z" />
<glyph unicode="B" horiz-adv-x="1286" d="M377 1454h612q115 0 180.5 -87.5t65.5 -209.5q0 -131 -79.5 -244.5t-201.5 -167.5q89 -30 139 -112.5t50 -186.5q0 -113 -64 -217.5t-164.5 -166.5t-205.5 -62h-641zM827 754q92 0 178 58.5t137.5 151t51.5 187.5q0 111 -58 186.5t-157 75.5h-569l-142 -659h559zM717 41 q94 0 183.5 58t144.5 151t55 190q0 113 -63 193t-165 80h-612l-143 -672h600z" />
<glyph unicode="C" horiz-adv-x="1357" d="M106 590q0 122 39.5 247t114 236.5t173.5 199t227.5 138.5t265.5 51q182 0 294 -86t146 -231l-41 -12q-43 151 -148.5 219.5t-252.5 68.5q-128 0 -248.5 -49t-214.5 -133t-166 -190.5t-110 -228t-38 -238.5q0 -110 34 -210t95 -176.5t154.5 -121.5t204.5 -45 q93 0 188 30.5t193 101.5t172 175l37 -10q-102 -160 -267 -249t-329 -89q-121 0 -222 51.5t-165.5 137t-100 192.5t-35.5 221z" />
<glyph unicode="D" horiz-adv-x="1400" d="M377 1454h444q129 0 229.5 -42.5t162 -118.5t93 -175t31.5 -217q0 -191 -62.5 -358t-171 -286.5t-262 -188t-329.5 -68.5h-444zM520 41q177 0 325 70t245.5 188t151.5 271t54 321q0 236 -125 379t-358 143h-403l-293 -1372h403z" />
<glyph unicode="E" horiz-adv-x="1204" d="M377 1454h889l-9 -41h-847l-140 -649h744l-8 -41h-744l-145 -682h866l-8 -41h-907z" />
<glyph unicode="F" horiz-adv-x="1204" d="M377 1454h889l-9 -41h-847l-138 -647h723l-8 -41h-725l-153 -725h-41z" />
<glyph unicode="G" horiz-adv-x="1409" d="M924 1423q-164 0 -311 -72.5t-247.5 -188.5t-159.5 -264t-59 -298q0 -114 34.5 -217.5t96 -181.5t154.5 -124t203 -46q262 0 547 278l73 342h-323l8 41h365l-148 -692h-41l53 248q-133 -128 -274.5 -193t-278.5 -65q-122 0 -221 52t-161 138.5t-95 194.5t-33 225 q0 163 63.5 320t171 277t261 193.5t322.5 73.5q187 0 297.5 -85.5t146.5 -231.5l-41 -12q-84 288 -403 288z" />
<glyph unicode="H" horiz-adv-x="1435" d="M377 1454h41l-148 -690h957l147 690h41l-309 -1454h-41l154 723h-957l-153 -723h-41z" />
<glyph unicode="I" horiz-adv-x="438" d="M377 1452h41l-309 -1452h-41z" />
<glyph unicode="J" horiz-adv-x="937" d="M-66 68l29 32q107 -86 270 -86q54 0 100.5 10.5t84.5 28t71.5 48t59 63.5t49.5 82t42 95.5t36 112t32 124t31 137.5l158 737h41l-158 -737q-18 -86 -32.5 -147.5t-34 -131.5t-38.5 -118.5t-44.5 -100t-53.5 -85.5t-64.5 -66t-79 -50t-95 -28.5t-113.5 -10.5 q-94 0 -161.5 23t-129.5 68z" />
<glyph unicode="K" horiz-adv-x="1210" d="M377 1452h41l-201 -942l1077 944h60l-725 -635l442 -819h-49l-426 793l-391 -340l-96 -453h-41z" />
<glyph unicode="L" horiz-adv-x="1130" d="M377 1454h41l-301 -1413h866l-8 -41h-907z" />
<glyph unicode="M" horiz-adv-x="1732" d="M377 1454h33l397 -1118l872 1118h33l-309 -1454h-41l289 1364l-838 -1077h-33l-381 1077l-290 -1364h-41z" />
<glyph unicode="N" horiz-adv-x="1521" d="M377 1454h31l757 -1395l295 1393h41l-309 -1452h-45l-746 1374l-292 -1374h-41z" />
<glyph unicode="O" horiz-adv-x="1486" d="M106 582q0 174 65 337t173 282t256 191t307 72q107 0 194.5 -33t147 -89.5t100.5 -133t59.5 -162t18.5 -178.5q0 -173 -65 -335t-173 -281t-256.5 -190.5t-307.5 -71.5q-132 0 -234 49t-163 133t-91.5 188t-30.5 222zM1386 868q0 89 -17.5 169.5t-55 151.5t-93 122.5 t-137 81.5t-180.5 30q-124 0 -241 -46t-209 -126.5t-161.5 -185.5t-107 -229.5t-37.5 -251.5q0 -112 28.5 -209.5t85.5 -175.5t152 -123t218 -45q156 0 298 71.5t241 188t157.5 268.5t58.5 309z" />
<glyph unicode="P" horiz-adv-x="1218" d="M377 1454h549q98 0 172.5 -52.5t110.5 -133.5t36 -174q0 -126 -65 -247t-177 -198.5t-237 -77.5h-537l-120 -571h-41zM774 612q116 0 217 75t157 187t56 224q0 130 -76.5 222.5t-197.5 92.5h-520l-170 -801h534z" />
<glyph unicode="Q" horiz-adv-x="1484" d="M1427 868q0 -208 -89 -393t-242 -311l90 -164h-51l-76 137q-200 -147 -434 -147q-132 0 -234 49t-163 133t-91.5 188t-30.5 222q0 174 65 337t173 282t256 191t307 72q107 0 194.5 -33t147 -89.5t100.5 -133t59.5 -162t18.5 -178.5zM631 31q220 0 409 139l-114 211h51 l100 -182q142 121 225.5 300t83.5 369q0 89 -17.5 169.5t-55 151.5t-93 122.5t-137 81.5t-180.5 30q-124 0 -241 -46t-209 -126.5t-161.5 -185.5t-107 -229.5t-37.5 -251.5q0 -112 28.5 -209.5t85.5 -175.5t152 -123t218 -45z" />
<glyph unicode="R" horiz-adv-x="1261" d="M68 0l309 1454h563q138 0 221.5 -108t83.5 -254q0 -123 -61.5 -240.5t-167 -194.5t-225.5 -86l227 -571h-49l-228 571h-512l-120 -571h-41zM774 612q115 0 216 72.5t157.5 181t56.5 219.5q0 135 -76.5 231.5t-197.5 96.5h-520l-170 -801h534z" />
<glyph unicode="S" horiz-adv-x="1185" d="M-2 215l33 27q94 -108 204 -161.5t273 -53.5q232 0 371 101.5t139 279.5q0 47 -10 83.5t-34.5 65t-52 48.5t-78 39t-97 32.5t-121.5 32.5q-192 46 -254 73q-106 45 -137 128q-17 44 -17 106q0 200 154 324t403 124q137 0 232 -42t161 -132l-32 -28q-65 89 -149 126 t-208 37q-123 0 -223 -32.5t-163.5 -88t-97.5 -128.5t-34 -156q0 -52 16.5 -90t38 -62t78 -47t100 -35.5t140.5 -37.5q63 -16 102.5 -27t86.5 -26t75 -28.5t58.5 -32.5t47.5 -40t31.5 -48t20.5 -60t6 -74q0 -105 -42 -186.5t-118 -132.5t-177.5 -77t-223.5 -26 q-169 0 -285.5 53t-216.5 172z" />
<glyph unicode="T" horiz-adv-x="1175" d="M729 1413h-528l8 41h1098l-9 -41h-528l-301 -1413h-41z" />
<glyph unicode="U" horiz-adv-x="1480" d="M170 461q0 111 31 266l153 727h41l-153 -727q-31 -152 -31 -260q0 -436 399 -436q120 0 223 41t176 107.5t131 159t93 187.5t57 201l154 727h41l-154 -727q-26 -122 -66 -227.5t-102 -201t-140 -162.5t-183.5 -106.5t-229.5 -39.5q-97 0 -173 24.5t-125.5 66.5t-82 103 t-46 129t-13.5 148z" />
<glyph unicode="V" horiz-adv-x="1318" d="M207 1454h43l282 -1403l875 1403h45l-909 -1454h-45z" />
<glyph unicode="W" horiz-adv-x="2019" d="M207 1454h45l280 -1403l496 797l-121 594h45l107 -545l342 545h45l-375 -594l162 -797l874 1403h45l-909 -1454h-45l-158 797l-497 -797h-45z" />
<glyph unicode="X" horiz-adv-x="1204" d="M598 717l-401 737h53l381 -704l682 704h51l-715 -737l389 -717h-51l-369 684l-661 -684h-53z" />
<glyph unicode="Y" horiz-adv-x="1216" d="M567 567l-368 887h47l352 -844l713 844h47l-750 -891l-121 -563h-41z" />
<glyph unicode="Z" horiz-adv-x="1202" d="M-74 41l1344 1372h-1043l11 41h1093l-10 -41l-1344 -1372h1045l-8 -41h-1096z" />
<glyph unicode="[" horiz-adv-x="442" d="M47 -82l340 1598h137l-8 -41h-98l-322 -1516h99l-9 -41h-139z" />
<glyph unicode="\" horiz-adv-x="983" d="M266 1454l537 -1454h-51l-539 1454h53z" />
<glyph unicode="]" horiz-adv-x="440" d="M-41 -82l8 41h99l321 1516h-96l8 41h137l-338 -1598h-139z" />
<glyph unicode="^" horiz-adv-x="1034" d="M113 621l405 833h37l403 -833h-47l-374 774l-381 -774h-43z" />
<glyph unicode="_" horiz-adv-x="1050" d="M-2 -41l8 41h764l-8 -41h-764z" />
<glyph unicode="`" horiz-adv-x="397" d="M307 1495h66l94 -149l-37 -25z" />
<glyph unicode="a" horiz-adv-x="1187" d="M63 430q0 120 50 239t131.5 209t191 145.5t221.5 55.5q134 0 226.5 -74.5t134.5 -189.5l53 248h43l-209 -973q-4 -12 -4 -24q0 -25 25 -25l-8 -41q-13 0 -19 2q-39 12 -39 57q0 9 31 162q-88 -108 -209.5 -174.5t-239.5 -66.5q-114 0 -202 65t-132.5 166.5t-44.5 218.5z M918 346l81 383q-18 128 -113.5 218.5t-234.5 90.5q-104 0 -205.5 -55t-175.5 -141t-120 -196t-46 -216q0 -166 98.5 -288t243.5 -122q87 0 188 45t181 121.5t103 159.5z" />
<glyph unicode="b" horiz-adv-x="1179" d="M123 221l-47 -221h-41l317 1495h41l-143 -680q231 264 465 264q73 0 134 -25t103.5 -67.5t72.5 -99t44 -119t14 -127.5q0 -125 -53 -247t-138 -212.5t-196.5 -146t-222.5 -55.5q-127 0 -218.5 69t-131.5 172zM1040 639q0 106 -38.5 195.5t-117.5 146.5t-184 57 q-127 0 -238 -76.5t-229 -211.5l-94 -461q21 -123 115.5 -196t222.5 -73q106 0 210 53.5t181 139.5t124.5 199t47.5 227z" />
<glyph unicode="c" horiz-adv-x="1052" d="M63 430q0 129 52 249.5t137 207.5t198 139.5t230 52.5q128 0 215 -62.5t115 -174.5l-45 -15q-26 98 -101 154.5t-178 56.5q-109 0 -215 -48.5t-187 -129.5t-130.5 -192.5t-49.5 -229.5q0 -176 98 -297t249 -121q118 0 240 68t163 156l39 -13q-57 -107 -185 -179t-259 -72 q-169 0 -277.5 129.5t-108.5 320.5z" />
<glyph unicode="d" horiz-adv-x="1185" d="M63 432q0 120 50.5 238.5t132 208t192 145t224.5 55.5q130 0 222.5 -74.5t133.5 -189.5l143 680h43l-301 -1407q-2 -8 -2 -20q0 -27 25 -27l-8 -41q-13 0 -25 4q-33 11 -33 57q0 15 31 160q-87 -107 -209 -174t-236 -67q-88 0 -161.5 38t-121 101t-74 144t-26.5 169z M918 346l81 383q-17 127 -119.5 218t-226.5 91q-109 0 -212 -54.5t-176 -140.5t-117 -194t-44 -213q0 -172 98.5 -294t252.5 -122q79 0 178 44t181 121.5t104 160.5z" />
<glyph unicode="e" horiz-adv-x="1067" d="M459 508q-140 0 -346 12q-7 -51 -7 -88q0 -114 39.5 -206t122.5 -149t197 -57q116 0 232 67t175 175l39 -12q-69 -122 -195 -196t-265 -74q-118 0 -207.5 61.5t-135 163t-45.5 225.5q0 121 48 238t129 208t197.5 147t244.5 56q73 0 143 -30.5t120 -96.5t50 -153 q0 -291 -536 -291zM672 1038q-130 0 -247.5 -66t-196 -174.5t-107.5 -236.5q205 -12 344 -12q487 0 487 252q0 59 -26.5 106.5t-68.5 75t-89.5 41.5t-95.5 14z" />
<glyph unicode="f" horiz-adv-x="598" d="M285 1022h-146l8 41h148l8 43q38 192 132.5 301t221.5 109q55 0 102.5 -19.5t67.5 -50.5l-36 -25q-19 25 -57.5 40.5t-82.5 15.5q-111 0 -191.5 -96t-115.5 -275l-8 -43h299l-8 -41h-301l-310 -1458h-41z" />
<glyph unicode="g" horiz-adv-x="1179" d="M-45 -203l41 13q34 -115 128 -170.5t224 -55.5q113 0 211.5 41t172 126.5t99.5 203.5l58 266q-87 -107 -210 -174t-237 -67q-87 0 -160 38t-121 101t-74 144t-26 169q0 116 49.5 233.5t130 208.5t192 148t226.5 57q233 0 357 -264l53 248h39l-236 -1108 q-21 -102 -75 -182.5t-127.5 -129.5t-157.5 -74.5t-172 -25.5q-171 0 -260.5 65.5t-124.5 188.5zM915 346l82 383q-20 133 -118.5 221t-227.5 88q-112 0 -216 -56.5t-175.5 -144t-114.5 -194.5t-43 -207q0 -112 42.5 -206.5t124 -152t184.5 -57.5q139 0 283 104.5t179 221.5 z" />
<glyph unicode="h" horiz-adv-x="1105" d="M352 1495h41l-149 -707q91 132 223 211.5t262 79.5q242 0 242 -284q0 -84 -25 -203l-125 -592h-41l125 592q25 132 25 194q0 124 -53 188t-156 64q-141 0 -285.5 -105.5t-216.5 -260.5l-143 -672h-41z" />
<glyph unicode="i" horiz-adv-x="372" d="M352 1495h41l-33 -158h-41zM260 1063h41l-225 -1063h-41z" />
<glyph unicode="j" horiz-adv-x="389" d="M369 1495h41l-33 -158h-41zM-422 -279l37 25q46 -53 149 -53q83 0 166.5 69t104.5 164l241 1137h41l-241 -1137q-25 -115 -123.5 -194.5t-194.5 -79.5q-129 0 -180 69z" />
<glyph unicode="k" horiz-adv-x="1067" d="M1047 872q0 -135 -124.5 -236.5t-338.5 -139.5l245 -496h-49l-254 522q230 44 352.5 133t122.5 211q0 86 -58 134.5t-161 48.5q-134 0 -273 -100t-298 -312l-135 -637h-41l317 1495h41l-170 -799q132 193 277 292t288 99q122 0 190.5 -57t68.5 -158z" />
<glyph unicode="l" horiz-adv-x="458" d="M74 115q0 27 4 43l284 1337h41l-284 -1337q-4 -24 -4 -33q0 -46 27.5 -71t78.5 -25q48 0 111 18l6 -33q-74 -24 -141 -24q-57 0 -90 34t-33 91z" />
<glyph unicode="m" horiz-adv-x="1773" d="M260 1063h41l-57 -275q95 138 213.5 214.5t238.5 76.5q125 0 189 -85t51 -236q74 151 205.5 236t267.5 85q231 0 231 -268q0 -98 -26 -219l-125 -592h-41l125 592q24 120 24 207q0 121 -49.5 180t-150.5 59q-138 0 -267 -101t-206 -267l-142 -670h-41l125 592 q27 126 27 213q0 119 -49 176t-150 57q-140 0 -268 -100t-207 -266l-143 -672h-41z" />
<glyph unicode="n" horiz-adv-x="1105" d="M260 1063h41l-57 -275q89 129 230 210t276 81q114 0 169.5 -63t55.5 -195q0 -87 -29 -229l-125 -592h-41l125 592q27 129 27 219q0 116 -47 171.5t-144 55.5q-146 0 -296.5 -105t-225.5 -261l-143 -672h-41z" />
<glyph unicode="o" horiz-adv-x="1148" d="M61 420q0 135 51.5 258.5t135.5 210.5t194 138.5t224 51.5q124 0 212.5 -61t130.5 -159.5t42 -223.5q0 -133 -50.5 -255.5t-133 -209.5t-192.5 -138.5t-226 -51.5q-126 0 -215.5 60.5t-131 158t-41.5 221.5zM1010 627q0 177 -92 294t-261 117q-105 0 -206 -48t-178 -129 t-124 -195.5t-47 -239.5q0 -177 91.5 -291.5t261.5 -114.5q106 0 207 47.5t177.5 128t123.5 194t47 237.5z" />
<glyph unicode="p" horiz-adv-x="1181" d="M262 1063h39l-47 -225q87 107 209.5 174t236.5 67q88 0 161 -38t120.5 -101.5t73.5 -144.5t26 -168q0 -160 -80 -309t-219.5 -243.5t-298.5 -94.5q-126 0 -218 74t-136 190l-145 -680h-41zM1040 623q0 171 -97.5 293t-252.5 122q-78 0 -177 -45t-181.5 -122t-104.5 -158 l-82 -383q29 -134 123 -222t224 -88q145 0 273.5 92t201.5 231t73 280z" />
<glyph unicode="q" horiz-adv-x="1179" d="M893 244q-230 -264 -467 -264q-115 0 -200.5 63t-126 161.5t-40.5 215.5q0 124 53.5 245.5t139.5 212t199 146t227 55.5q115 0 209 -68.5t133 -172.5l47 225h41l-317 -1499h-41zM911 330l93 418q-13 115 -106 202.5t-228 87.5q-109 0 -214.5 -54t-183 -140t-125 -197.5 t-47.5 -220.5q0 -111 39 -202.5t116.5 -147.5t178.5 -56q135 0 260 88t217 222z" />
<glyph unicode="r" horiz-adv-x="649" d="M260 1063h41l-57 -275q81 122 189.5 192t221.5 81q12 2 39 2l-8 -41q-145 -6 -269.5 -99t-197.5 -251l-143 -672h-41z" />
<glyph unicode="s" horiz-adv-x="921" d="M-25 152l35 26q62 -81 140 -119.5t184 -38.5q170 0 282.5 82t112.5 215q0 36 -14.5 64t-36.5 47.5t-64 37.5t-82.5 30.5t-105.5 29.5q-63 16 -98.5 26.5t-75.5 27.5t-59.5 36t-32.5 47.5t-13 65.5q0 86 34.5 154.5t94.5 110.5t136 63.5t163 21.5q119 0 197.5 -42.5 t99.5 -110.5l-38 -17q-23 61 -99 95t-176 34q-67 0 -130 -17.5t-117.5 -51.5t-88 -93t-33.5 -135q0 -31 11 -54.5t27.5 -39t52 -30.5t67 -25t88.5 -25q46 -12 73.5 -19.5t64 -19t58.5 -21.5t47.5 -23.5t40 -28.5t28 -33.5t19 -41t5.5 -48.5q0 -167 -124 -259.5t-322 -92.5 q-239 0 -351 172z" />
<glyph unicode="t" horiz-adv-x="575" d="M98 119q0 11 4 35l185 868h-146l9 41h147l78 371h41l-78 -371h242l-9 -41h-243l-164 -764q-23 -109 -23 -123q0 -49 32.5 -76.5t80.5 -27.5q39 0 82.5 13t63 22.5t28.5 15.5l14 -33q-4 -4 -27.5 -16.5t-73.5 -27.5t-97 -15q-64 0 -105 35.5t-41 93.5z" />
<glyph unicode="u" horiz-adv-x="1128" d="M96 264q0 84 25 203l127 596h41l-127 -596q-25 -119 -25 -199q0 -248 215 -248q146 0 292 103.5t224 263.5l144 676h41l-197 -926q-2 -13 -6 -29.5t-6 -26t-2 -11.5q0 -29 26 -29l-10 -41q-12 0 -24 4q-31 12 -31 55q0 14 41 211q-94 -133 -229.5 -211.5t-272.5 -78.5 q-246 0 -246 284z" />
<glyph unicode="v" horiz-adv-x="923" d="M131 1063h43l160 -1006q187 210 327 479t222 527h41q-193 -618 -586 -1063h-37z" />
<glyph unicode="w" horiz-adv-x="1480" d="M125 1063h43l180 -1006q215 232 387 570l-78 436h43l66 -373q87 180 152 373h40q-77 -237 -180 -442l103 -564q194 210 338.5 478t230.5 528h41q-200 -618 -606 -1063h-37l-100 559q-166 -310 -396 -559h-37z" />
<glyph unicode="x" horiz-adv-x="933" d="M422 528l-291 535h53l260 -479l11 -25l16 16l469 488h53l-518 -535l289 -528h-53l-258 475l-11 25l-20 -21l-459 -479h-53z" />
<glyph unicode="y" horiz-adv-x="913" d="M-76 -424q50 10 88 26t67 35t61.5 57.5t57 74t68.5 102.5l84 129l-244 1063h46l229 -1012l119 189q192 305 274.5 470.5t136.5 352.5h43q-56 -200 -138 -365t-286 -487l-168 -264q-78 -123 -126.5 -190.5t-99.5 -116.5t-96.5 -69t-111.5 -30z" />
<glyph unicode="z" horiz-adv-x="935" d="M-66 41l977 981h-757l8 41h809l-8 -41l-975 -981h760l-11 -41h-811z" />
<glyph unicode="{" horiz-adv-x="444" d="M418 1475l-133 -623q-2 -11 -7 -27.5t-21 -43t-38 -44.5q21 -24 21 -69q0 -12 -2 -28t-2 -17l-138 -646h109l-10 -40h-103q-33 0 -33 38q0 15 2 23l134 625q4 20 4 34q0 57 -43 62l8 41q25 0 43.5 21t24.5 37.5t10 33.5l129 602q7 34 24.5 48t32.5 14h102l-8 -41h-106z " />
<glyph unicode="|" horiz-adv-x="520" d="M250 -266v1853h41v-1853h-41z" />
<glyph unicode="}" horiz-adv-x="446" d="M287 1475l8 41h102q6 0 13 -2.5t14.5 -13t7.5 -27.5q0 -13 -2 -19l-129 -602q-4 -12 -4 -35q0 -57 43 -57l-8 -41q-32 -4 -52.5 -32t-27.5 -64l-131 -625q-7 -31 -24 -46t-36 -15h-102l8 40h107l137 646q2 11 7 27t21 43t37 44q-20 25 -20 70q0 33 4 45l133 623h-106z " />
<glyph unicode="~" horiz-adv-x="905" d="M287 680q37 0 79 -19.5t74 -43t74 -43t78 -19.5q34 0 63.5 15.5t45.5 36.5t25 37.5t9 21.5l41 -2q-2 -6 -6 -16t-19 -36t-34 -46t-52.5 -36t-72.5 -16q-43 0 -89.5 19.5t-79 43t-70.5 43t-66 19.5q-37 0 -70 -31.5t-47 -59.5t-14 -34h-41q0 4 6 20.5t19.5 41.5t32.5 48 t49 39.5t65 16.5z" />
<glyph unicode="&#xa1;" horiz-adv-x="458" d="M430 1468l-35 -172h-51l45 172h41zM344 1059l-225 -1059h-41l225 1059h41z" />
<glyph unicode="&#xa2;" horiz-adv-x="1069" d="M358 -246l50 228q-106 9 -186 75t-119.5 164t-39.5 209q0 153 79 300t214 244t285 105l51 242h39l-51 -242q143 -4 220.5 -66t107.5 -171l-43 -15q-61 201 -293 211l-217 -1018q65 0 144.5 27t152.5 80t102 117l39 -13q-42 -79 -122 -138t-164 -86t-161 -27l-49 -226h-39 zM416 23l215 1015q-109 -6 -209.5 -64.5t-168.5 -145.5t-108.5 -191.5t-40.5 -202.5q0 -161 86.5 -279.5t225.5 -131.5z" />
<glyph unicode="&#xa3;" horiz-adv-x="913" d="M662 1464q96 0 168.5 -58t101.5 -157l-39 -24q-28 92 -93 145t-151 53q-129 0 -234.5 -105t-105.5 -243q0 -49 12 -100t35 -120t33 -105h340l-10 -41h-320q13 -63 13 -123q0 -70 -10.5 -120t-45.5 -114t-102.5 -138t-179.5 -177q75 14 141 14q62 0 146.5 -20.5 t132.5 -20.5q81 0 200 43l4 -39q-113 -45 -215 -45q-57 0 -144 20.5t-146 20.5q-91 0 -189 -24l-12 34q132 119 204.5 193.5t112.5 138.5t50 110t10 118q0 52 -15 129h-231l8 41h213q-8 27 -33 98.5t-36 119.5t-11 97q0 103 58 196.5t150.5 148t189.5 54.5z" />
<glyph unicode="&#xa4;" horiz-adv-x="1128" d="M328 956q102 99 243 99q147 0 250 -103l144 142l30 -29l-145 -143q84 -109 84 -236q0 -131 -88 -237l149 -146l-30 -29l-148 146q-106 -98 -246 -98q-137 0 -239 92l-142 -140l-30 29l143 141q-90 104 -90 242q0 133 86 240l-139 139l30 29zM571 358q130 0 225 98t95 232 q0 136 -94.5 232t-225.5 96q-128 0 -221.5 -97.5t-93.5 -234.5q0 -135 93 -230.5t222 -95.5z" />
<glyph unicode="&#xa5;" horiz-adv-x="1284" d="M754 698h180l-8 -41h-207l-80 -94l-10 -49h266l-8 -41h-266l-103 -473h-41l103 473h-267l9 41h266l10 53l-37 90h-209l10 41h183l-316 756h47l353 -844l712 844h48z" />
<glyph unicode="&#xa6;" horiz-adv-x="507" d="M285 1587v-850h-41v850h41zM285 584v-850h-41v850h41z" />
<glyph unicode="&#xa7;" horiz-adv-x="958" d="M776 217q0 -92 -43 -170t-109.5 -126t-143 -74.5t-148.5 -26.5q-115 0 -192.5 45t-135.5 123l37 26q63 -78 134.5 -115.5t166.5 -37.5q51 0 105.5 15t105 44.5t90.5 70t64 95.5t24 117q0 55 -22.5 93t-63.5 57t-83 26.5t-97 9.5q-135 3 -220 65.5t-85 184.5 q0 70 33 139.5t79 112.5q-33 24 -52 74t-19 110q0 72 28 136t73.5 109.5t102.5 78.5t117 49t115 16q123 0 189 -37.5t102 -115.5l-41 -17q-10 38 -37.5 64.5t-65.5 40t-75.5 19t-79.5 5.5q-87 0 -174 -39.5t-149 -120t-62 -182.5q0 -209 272 -209q85 0 153.5 -23.5t114 -80 t45.5 -139.5q0 -72 -34 -143t-86 -115q67 -46 67 -154zM672 389q50 37 83 102t33 130q0 57 -25 99.5t-67 65.5t-89 34t-99 11q-124 0 -201 39q-45 -37 -75.5 -99.5t-30.5 -131.5q0 -61 25.5 -103.5t65 -62t93 -32.5t103 -17t102 -12.5t82.5 -22.5z" />
<glyph unicode="&#xa8;" horiz-adv-x="473" d="M274 1337l33 158h41l-33 -158h-41zM502 1337l33 158h40l-32 -158h-41z" />
<glyph unicode="&#xa9;" horiz-adv-x="1712" d="M139 727q0 156 56.5 293t154 234.5t235 153.5t294.5 56t294 -56t235 -153.5t154 -234.5t56 -293q0 -157 -56 -294.5t-154 -235.5t-235 -154.5t-294 -56.5t-294.5 56.5t-235 154.5t-154 235.5t-56.5 294.5zM1575 721q0 200 -90 361t-248.5 251t-355.5 90 q-198 0 -358 -90.5t-250.5 -250t-90.5 -357.5q0 -197 90 -356.5t250 -250.5t359 -91q194 0 352 86.5t250 246t92 361.5zM444 727q0 67 16 132.5t50.5 127.5t84 109t122.5 75.5t160 28.5q120 0 215 -52t133 -151l-39 -14q-22 53 -61 90t-84.5 54.5t-84.5 24.5t-79 7 q-97 0 -174.5 -39t-123.5 -103t-70 -138.5t-24 -151.5q0 -97 38 -180.5t97 -135.5t128.5 -81t136.5 -29q95 0 190.5 52t130.5 134l39 -10q-8 -29 -37.5 -65t-74 -70.5t-109 -58t-131.5 -23.5q-79 0 -157.5 32t-144 89.5t-106.5 148t-41 197.5z" />
<glyph unicode="&#xaa;" horiz-adv-x="827" d="M162 901q0 107 98.5 176.5t241.5 69.5q126 0 215 -39l14 72q6 30 6 57q0 76 -46 120t-128 44q-103 0 -244 -84l-16 41q155 94 275 94q106 0 163.5 -53t57.5 -148q0 -41 -8 -77l-74 -351q-2 -4 -2 -12q0 -20 22 -20l-12 -60q-36 0 -53 10.5t-17 36.5q0 9 2 15l11 59 q-61 -63 -145.5 -98t-172.5 -35q-83 0 -135.5 52t-52.5 130zM680 936l27 125q-82 39 -207 39q-121 0 -199 -51.5t-78 -137.5q0 -59 42 -99t108 -40q64 0 131 21.5t116.5 60t59.5 82.5z" />
<glyph unicode="&#xab;" horiz-adv-x="1017" d="M74 549l534 346l-10 -45l-489 -320l354 -321l-10 -45l-387 348zM406 549l536 346l-10 -45l-492 -320l355 -321l-9 -45l-387 348z" />
<glyph unicode="&#xac;" horiz-adv-x="1105" d="M979 692l-86 -405h-41l78 364h-746l9 41h786z" />
<glyph unicode="&#xad;" horiz-adv-x="1062" d="M121 535l8 40h786l-8 -40h-786z" />
<glyph unicode="&#xae;" horiz-adv-x="1712" d="M139 727q0 156 56.5 293t154 234.5t235 153.5t294.5 56t294 -56t235 -153.5t154 -234.5t56 -293q0 -157 -56 -294.5t-154 -235.5t-235 -154.5t-294 -56.5t-294.5 56.5t-235 154.5t-154 235.5t-56.5 294.5zM1575 727q0 147 -53 276t-144.5 221t-221 145.5t-277.5 53.5 q-147 0 -276.5 -53.5t-222 -145.5t-145.5 -221t-53 -276q0 -198 90 -358t249.5 -251t357.5 -91q196 0 354 86t250 246.5t92 367.5zM582 1194h385q113 0 189.5 -88t76.5 -199q0 -112 -68.5 -195.5t-173.5 -90.5l240 -373h-49l-238 373h-319v-373h-43v946zM977 662 q101 0 158 70.5t57 174.5q0 102 -63.5 173t-161.5 71h-342v-489h352z" />
<glyph unicode="&#xaf;" horiz-adv-x="749" d="M289 1405l8 41h545l-8 -41h-545z" />
<glyph unicode="&#xb0;" horiz-adv-x="501" d="M260 1311q0 65 51 118.5t119 53.5q47 0 78 -33.5t31 -83.5q0 -65 -52.5 -115.5t-117.5 -50.5q-47 0 -78 32t-31 79zM498 1360q0 76 -78 76q-45 0 -79 -33t-34 -80q0 -35 19 -58.5t53 -23.5q41 0 80 36t39 83z" />
<glyph unicode="&#xb1;" horiz-adv-x="989" d="M772 748v-41h-287v-308h-41v308h-286v41h286v307h41v-307h287zM158 174v41h614v-41h-614z" />
<glyph unicode="&#xb2;" horiz-adv-x="724" d="M137 866q31 145 109.5 227t206.5 128q17 6 61 20.5t65.5 22.5t58.5 24t57 32t42 38.5t31.5 51.5t9.5 63q0 65 -44.5 107t-135.5 42q-93 0 -165.5 -40t-119.5 -89l-26 31q5 6 17.5 18.5t42.5 34t65 39.5t86 31.5t104 13.5q108 0 161.5 -51.5t53.5 -130.5q0 -36 -10 -67.5 t-24 -54.5t-40.5 -44.5t-46 -34.5t-56 -28t-55 -21.5t-57.5 -18.5t-51 -16q-77 -26 -132.5 -63.5t-84.5 -79.5t-42.5 -75t-20.5 -71h503l-8 -39h-555z" />
<glyph unicode="&#xb3;" horiz-adv-x="743" d="M172 1053l35 14q0 -83 58 -127.5t163 -44.5q117 0 202 57.5t85 141.5q0 71 -68 112t-186 41h-43l8 37h43q143 0 222 47.5t79 136.5q0 69 -56 112.5t-147 43.5q-81 0 -150.5 -34t-105.5 -89l-24 25q41 61 120 98t168 37q106 0 172 -52.5t66 -133.5q0 -79 -54.5 -132.5 t-160.5 -76.5q73 -13 115.5 -59.5t42.5 -108.5q0 -102 -100.5 -172t-235.5 -70q-118 0 -183 54t-65 143z" />
<glyph unicode="&#xb4;" horiz-adv-x="397" d="M293 1321l-27 25l156 149h67z" />
<glyph unicode="&#xb5;" horiz-adv-x="1187" d="M279 1063h43l-127 -596q-25 -119 -25 -199q0 -248 213 -248q146 0 292 103.5t224 263.5l143 676h43l-208 -981q-3 -6 -3 -14q0 -27 25 -27l-10 -41q-55 0 -55 61q0 15 2 21l41 188q-95 -133 -231 -211.5t-271 -78.5q-213 0 -240 213l-133 -627h-41z" />
<glyph unicode="&#xb6;" horiz-adv-x="1107" d="M793 1454h393l-10 -41h-136l-335 -1577h-41l143 672h-176l-144 -672h-41l144 672q-219 4 -339 104t-120 275q0 254 181 410.5t481 156.5zM598 549l184 864q-287 0 -448.5 -141t-161.5 -375q0 -87 33 -153t92 -107t134.5 -62.5t166.5 -25.5zM999 1413h-176l-184 -864h176z " />
<glyph unicode="&#xb7;" horiz-adv-x="317" d="M115 512l37 170h38l-34 -170h-41z" />
<glyph unicode="&#xb8;" horiz-adv-x="579" d="M115 -336q-110 0 -187 51l23 31q46 -24 81.5 -34.5t84.5 -10.5q78 0 126 41.5t48 101.5q0 45 -26.5 82t-80.5 74l41 18q51 -40 77 -79t26 -89q0 -92 -59 -139t-154 -47z" />
<glyph unicode="&#xb9;" horiz-adv-x="491" d="M512 903l-8 -39h-352l8 39h162l149 705q-30 -30 -97.5 -63.5t-111.5 -33.5l8 39q38 0 90 27.5t84.5 52.5t36.5 31h41l-162 -758h152z" />
<glyph unicode="&#xba;" horiz-adv-x="882" d="M186 1018q0 111 61 212t159.5 161.5t205.5 60.5q122 0 199.5 -87t77.5 -214q0 -110 -61.5 -210.5t-162 -161t-208.5 -60.5q-121 0 -196 87t-75 212zM844 1145q0 114 -67.5 190t-172.5 76q-90 0 -177 -53t-142.5 -144t-55.5 -192q0 -112 66.5 -188t169.5 -76 q93 0 180.5 53.5t143 143.5t55.5 190z" />
<glyph unicode="&#xbb;" horiz-adv-x="1017" d="M575 512l-536 -348l10 45l492 321l-357 320l11 45l387 -346zM907 512l-534 -348l8 45l491 321l-354 320l8 45l389 -346z" />
<glyph unicode="&#xbc;" horiz-adv-x="1458" d="M477 739l-8 -39h-352l8 39h162l149 705q-29 -29 -97 -62.5t-112 -33.5l9 38q38 0 90 27.5t84 52.5t36 31h41l-161 -758h151zM-72 23l1391 1433l27 -24l-1391 -1434zM1161 225h-452l8 35l575 524h29l-111 -520h107l-8 -39h-107l-49 -225h-39zM1169 264l97 449l-494 -449 h397z" />
<glyph unicode="&#xbd;" horiz-adv-x="1462" d="M477 739l-8 -39h-352l8 39h162l149 705q-29 -29 -97 -62.5t-112 -33.5l9 38q38 0 90 27.5t84 52.5t36 31h41l-161 -758h151zM-72 23l1391 1433l27 -24l-1391 -1434zM690 0q31 145 109 226.5t207 127.5q17 6 61 20.5t65.5 22.5t58.5 24t57 32t42 38.5t31.5 51.5t9.5 63 q0 65 -44.5 107.5t-135.5 42.5q-93 0 -165.5 -40t-119.5 -89l-26 30q5 6 17.5 18.5t42.5 34.5t65 40t86 31.5t104 13.5q108 0 161.5 -51.5t53.5 -131.5q0 -36 -10 -67.5t-24 -54.5t-40.5 -44t-46.5 -34t-55.5 -28t-55 -21.5t-57.5 -18.5t-51 -16q-77 -26 -132.5 -63.5 t-84.5 -79.5t-42.5 -75t-20.5 -71h503l-8 -39h-555z" />
<glyph unicode="&#xbe;" horiz-adv-x="1710" d="M137 889l35 14q0 -73 60 -122.5t161 -49.5q117 0 202 57.5t85 141.5q0 70 -68.5 111.5t-185.5 41.5h-43l8 37h43q143 0 222 48t79 137q0 69 -56 112t-147 43q-81 0 -150.5 -34t-105.5 -89l-24 25q41 61 120 98t169 37q106 0 171.5 -52.5t65.5 -133.5q0 -79 -54.5 -132.5 t-160.5 -76.5q73 -13 115.5 -59.5t42.5 -108.5q0 -102 -100.5 -172t-235.5 -70q-41 0 -83 11.5t-79.5 34.5t-61.5 62t-24 89zM180 23l1391 1433l26 -24l-1390 -1434zM1413 225h-452l8 35l575 524h29l-111 -520h107l-8 -39h-107l-49 -225h-39zM1421 264l97 449l-494 -449h397 z" />
<glyph unicode="&#xbf;" horiz-adv-x="911" d="M659 1036l-36 -172h-41l36 172h41zM582 670q-20 -95 -46 -162.5t-60 -109.5t-65.5 -65.5t-76.5 -45.5q-22 -11 -61.5 -28.5t-65 -29t-61 -32t-58.5 -39.5t-48.5 -49t-40 -63.5t-24.5 -79.5t-10 -101q0 -127 74 -193.5t186 -66.5q118 0 233.5 65t188.5 174l33 -16 q-79 -123 -207 -193.5t-254 -70.5q-127 0 -211 79.5t-84 221.5q0 58 10.5 107t25.5 84.5t42.5 68t51.5 53.5t63 44t66 36t71.5 34t69.5 34q41 20 67.5 40.5t56 57.5t52.5 97.5t41 148.5h41z" />
<glyph unicode="&#xc0;" horiz-adv-x="1325" d="M723 1886h65l95 -149l-37 -25zM831 1454h37l291 -1454h-45l-104 520h-719l-326 -520h-45zM1001 561l-163 834l-523 -834h686z" />
<glyph unicode="&#xc1;" horiz-adv-x="1325" d="M895 1712l-27 25l156 149h68zM831 1454h37l291 -1454h-45l-104 520h-719l-326 -520h-45zM1001 561l-163 834l-523 -834h686z" />
<glyph unicode="&#xc2;" horiz-adv-x="1325" d="M705 1675l213 152h32l150 -152l-37 -24l-139 129l-193 -129zM831 1454h37l291 -1454h-45l-104 520h-719l-326 -520h-45zM1001 561l-163 834l-523 -834h686z" />
<glyph unicode="&#xc3;" horiz-adv-x="1325" d="M799 1827q-29 0 -53 -13t-38 -32.5t-20.5 -31.5t-9.5 -21h-39q1 6 6 19t18.5 34t31.5 39t49 31.5t67 13.5q50 0 113.5 -39t113.5 -39q30 0 54.5 9.5t38.5 22t24.5 28.5t14 24.5t4.5 13.5h38q-3 -12 -12 -30t-29 -44.5t-58 -44.5t-87 -18q-39 0 -73 12t-54 27t-47 27 t-53 12zM831 1454h37l291 -1454h-45l-104 520h-719l-326 -520h-45zM1001 561l-163 834l-523 -834h686z" />
<glyph unicode="&#xc4;" horiz-adv-x="1325" d="M774 1729l33 157h41l-33 -157h-41zM1001 1729l33 157h41l-33 -157h-41zM831 1454h37l291 -1454h-45l-104 520h-719l-326 -520h-45zM1001 561l-163 834l-523 -834h686z" />
<glyph unicode="&#xc5;" horiz-adv-x="1325" d="M942 1886q39 0 63.5 -27t24.5 -67q0 -56 -42 -97.5t-97 -41.5q-39 0 -63.5 27t-24.5 67q0 56 42 97.5t97 41.5zM836 1753q0 -30 17 -48.5t46 -18.5q35 0 67.5 29.5t32.5 70.5q0 30 -18.5 48.5t-46.5 18.5q-38 0 -68 -28.5t-30 -71.5zM831 1454h37l291 -1454h-45l-104 520 h-719l-326 -520h-45zM1001 561l-163 834l-523 -834h686z" />
<glyph unicode="&#xc6;" horiz-adv-x="1886" d="M1047 1454h901l-11 -41h-847l-138 -649h744l-10 -41h-744l-143 -682h864l-8 -41h-907l110 520h-545l-434 -520h-51zM868 561l174 828l-696 -828h522z" />
<glyph unicode="&#xc7;" horiz-adv-x="1357" d="M924 1421q-128 0 -248.5 -49t-214.5 -133t-166 -190.5t-110 -228t-38 -238.5q0 -110 34 -210t95 -176.5t154.5 -121.5t204.5 -45q93 0 188 30.5t193 101.5t172 175l37 -10q-102 -160 -267 -249t-329 -89h-4q65 -62 65 -138q0 -92 -59 -139t-154 -47q-109 0 -186 51l22 31 q46 -24 81.5 -34.5t84.5 -10.5q78 0 126 41.5t48 101.5q0 80 -96 148q-105 15 -192 71.5t-142.5 138.5t-86 182t-30.5 206q0 122 39.5 247t114 236.5t173.5 199t227.5 138.5t265.5 51q182 0 294 -86t146 -231l-41 -12q-43 151 -148.5 219.5t-252.5 68.5z" />
<glyph unicode="&#xc8;" horiz-adv-x="1204" d="M672 1886h65l94 -149l-36 -25zM377 1454h889l-9 -41h-847l-140 -649h744l-8 -41h-744l-145 -682h866l-8 -41h-907z" />
<glyph unicode="&#xc9;" horiz-adv-x="1204" d="M844 1712l-27 25l156 149h67zM377 1454h889l-9 -41h-847l-140 -649h744l-8 -41h-744l-145 -682h866l-8 -41h-907z" />
<glyph unicode="&#xca;" horiz-adv-x="1204" d="M653 1675l213 152h33l150 -152l-37 -24l-140 129l-192 -129zM377 1454h889l-9 -41h-847l-140 -649h744l-8 -41h-744l-145 -682h866l-8 -41h-907z" />
<glyph unicode="&#xcb;" horiz-adv-x="1204" d="M723 1729l33 157h41l-33 -157h-41zM950 1729l33 157h41l-33 -157h-41zM377 1454h889l-9 -41h-847l-140 -649h744l-8 -41h-744l-145 -682h866l-8 -41h-907z" />
<glyph unicode="&#xcc;" horiz-adv-x="438" d="M268 1880h66l94 -149l-37 -25zM377 1452h41l-309 -1452h-41z" />
<glyph unicode="&#xcd;" horiz-adv-x="438" d="M440 1706l-26 25l155 149h68zM377 1452h41l-309 -1452h-41z" />
<glyph unicode="&#xce;" horiz-adv-x="438" d="M250 1669l213 152h33l149 -152l-37 -24l-139 129l-193 -129zM377 1452h41l-309 -1452h-41z" />
<glyph unicode="&#xcf;" horiz-adv-x="438" d="M319 1722l33 158h41l-33 -158h-41zM547 1722l33 158h41l-33 -158h-41zM377 1452h41l-309 -1452h-41z" />
<glyph unicode="&#xd0;" horiz-adv-x="1415" d="M836 1454q129 0 229.5 -42.5t162 -118.5t93 -175t31.5 -217q0 -255 -106.5 -461t-295.5 -323t-424 -117h-444l151 711h-137l8 41h138l149 702h445zM535 41q177 0 325 70t245.5 188t151.5 271t54 321q0 236 -125.5 379t-358.5 143h-403l-141 -661h372l-8 -41h-373 l-143 -670h404z" />
<glyph unicode="&#xd1;" horiz-adv-x="1521" d="M909 1821q-29 0 -53 -13t-38 -33t-20.5 -32t-9.5 -21h-38q1 6 6 19t18.5 34.5t31.5 39.5t49 31.5t67 13.5q50 0 113.5 -39t113.5 -39q30 0 54.5 9.5t38.5 22t24 28.5t13.5 24.5t4.5 13.5h39q-3 -12 -12 -30t-29 -44.5t-58 -44.5t-87 -18t-89 19.5t-73.5 39t-65.5 19.5z M377 1454h31l757 -1395l295 1393h41l-309 -1452h-45l-746 1374l-292 -1374h-41z" />
<glyph unicode="&#xd2;" horiz-adv-x="1486" d="M815 1880h66l94 -149l-37 -25zM106 582q0 174 65 337t173 282t256 191t307 72q107 0 194.5 -33t147 -89.5t100.5 -133t59.5 -162t18.5 -178.5q0 -173 -65 -335t-173 -281t-256.5 -190.5t-307.5 -71.5q-132 0 -234 49t-163 133t-91.5 188t-30.5 222zM1386 868 q0 89 -17.5 169.5t-55 151.5t-93 122.5t-137 81.5t-180.5 30q-124 0 -241 -46t-209 -126.5t-161.5 -185.5t-107 -229.5t-37.5 -251.5q0 -112 28.5 -209.5t85.5 -175.5t152 -123t218 -45q156 0 298 71.5t241 188t157.5 268.5t58.5 309z" />
<glyph unicode="&#xd3;" horiz-adv-x="1486" d="M987 1706l-26 25l155 149h68zM106 582q0 174 65 337t173 282t256 191t307 72q107 0 194.5 -33t147 -89.5t100.5 -133t59.5 -162t18.5 -178.5q0 -173 -65 -335t-173 -281t-256.5 -190.5t-307.5 -71.5q-132 0 -234 49t-163 133t-91.5 188t-30.5 222zM1386 868 q0 89 -17.5 169.5t-55 151.5t-93 122.5t-137 81.5t-180.5 30q-124 0 -241 -46t-209 -126.5t-161.5 -185.5t-107 -229.5t-37.5 -251.5q0 -112 28.5 -209.5t85.5 -175.5t152 -123t218 -45q156 0 298 71.5t241 188t157.5 268.5t58.5 309z" />
<glyph unicode="&#xd4;" horiz-adv-x="1486" d="M797 1669l213 152h32l150 -152l-37 -24l-139 129l-193 -129zM106 582q0 174 65 337t173 282t256 191t307 72q107 0 194.5 -33t147 -89.5t100.5 -133t59.5 -162t18.5 -178.5q0 -173 -65 -335t-173 -281t-256.5 -190.5t-307.5 -71.5q-132 0 -234 49t-163 133t-91.5 188 t-30.5 222zM1386 868q0 89 -17.5 169.5t-55 151.5t-93 122.5t-137 81.5t-180.5 30q-124 0 -241 -46t-209 -126.5t-161.5 -185.5t-107 -229.5t-37.5 -251.5q0 -112 28.5 -209.5t85.5 -175.5t152 -123t218 -45q156 0 298 71.5t241 188t157.5 268.5t58.5 309z" />
<glyph unicode="&#xd5;" horiz-adv-x="1486" d="M891 1821q-29 0 -53 -13t-38 -33t-20.5 -32t-9.5 -21h-39q1 6 6 19t18.5 34.5t31.5 39.5t49 31.5t67 13.5q50 0 113.5 -39t113.5 -39q30 0 54.5 9.5t38.5 22t24.5 28.5t14 24.5t4.5 13.5h39q-2 -8 -7.5 -21t-20 -34.5t-34 -38.5t-52.5 -30t-73 -13q-39 0 -73 12t-54 27 t-47 27t-53 12zM106 582q0 174 65 337t173 282t256 191t307 72q107 0 194.5 -33t147 -89.5t100.5 -133t59.5 -162t18.5 -178.5q0 -173 -65 -335t-173 -281t-256.5 -190.5t-307.5 -71.5q-132 0 -234 49t-163 133t-91.5 188t-30.5 222zM1386 868q0 89 -17.5 169.5t-55 151.5 t-93 122.5t-137 81.5t-180.5 30q-124 0 -241 -46t-209 -126.5t-161.5 -185.5t-107 -229.5t-37.5 -251.5q0 -112 28.5 -209.5t85.5 -175.5t152 -123t218 -45q156 0 298 71.5t241 188t157.5 268.5t58.5 309z" />
<glyph unicode="&#xd6;" horiz-adv-x="1486" d="M866 1722l33 158h41l-33 -158h-41zM1094 1722l32 158h41l-32 -158h-41zM106 582q0 174 65 337t173 282t256 191t307 72q107 0 194.5 -33t147 -89.5t100.5 -133t59.5 -162t18.5 -178.5q0 -173 -65 -335t-173 -281t-256.5 -190.5t-307.5 -71.5q-132 0 -234 49t-163 133 t-91.5 188t-30.5 222zM1386 868q0 89 -17.5 169.5t-55 151.5t-93 122.5t-137 81.5t-180.5 30q-124 0 -241 -46t-209 -126.5t-161.5 -185.5t-107 -229.5t-37.5 -251.5q0 -112 28.5 -209.5t85.5 -175.5t152 -123t218 -45q156 0 298 71.5t241 188t157.5 268.5t58.5 309z" />
<glyph unicode="&#xd7;" horiz-adv-x="942" d="M762 276l-31 -28l-276 276l-277 -276l-28 31l274 274l-277 278l31 29l277 -276l278 278l29 -31l-279 -278z" />
<glyph unicode="&#xd8;" horiz-adv-x="1486" d="M1278 1313q74 -82 111.5 -198.5t37.5 -246.5q0 -173 -65 -335t-173 -281t-256.5 -190.5t-307.5 -71.5q-206 0 -338 119l-90 -109h-52l113 137q-152 165 -152 445q0 174 65 337t173 282t256 191t307 72q209 0 342 -123l92 113h52zM147 584q0 -261 138 -414l938 1139 q-120 114 -320 114q-124 0 -241 -46t-209 -126.5t-161.5 -185.5t-107 -229.5t-37.5 -251.5zM631 31q156 0 298 71.5t241 188t157.5 268.5t58.5 309q0 261 -135 414l-938 -1141q123 -110 318 -110z" />
<glyph unicode="&#xd9;" horiz-adv-x="1480" d="M784 1880h66l94 -149l-37 -25zM170 461q0 111 31 266l153 727h41l-153 -727q-31 -152 -31 -260q0 -436 399 -436q120 0 223 41t176 107.5t131 159t93 187.5t57 201l154 727h41l-154 -727q-26 -122 -66 -227.5t-102 -201t-140 -162.5t-183.5 -106.5t-229.5 -39.5 q-97 0 -173 24.5t-125.5 66.5t-82 103t-46 129t-13.5 148z" />
<glyph unicode="&#xda;" horiz-adv-x="1480" d="M956 1706l-26 25l155 149h68zM170 461q0 111 31 266l153 727h41l-153 -727q-31 -152 -31 -260q0 -436 399 -436q120 0 223 41t176 107.5t131 159t93 187.5t57 201l154 727h41l-154 -727q-26 -122 -66 -227.5t-102 -201t-140 -162.5t-183.5 -106.5t-229.5 -39.5 q-97 0 -173 24.5t-125.5 66.5t-82 103t-46 129t-13.5 148z" />
<glyph unicode="&#xdb;" horiz-adv-x="1480" d="M766 1669l213 152h33l149 -152l-37 -24l-139 129l-192 -129zM170 461q0 111 31 266l153 727h41l-153 -727q-31 -152 -31 -260q0 -436 399 -436q120 0 223 41t176 107.5t131 159t93 187.5t57 201l154 727h41l-154 -727q-26 -122 -66 -227.5t-102 -201t-140 -162.5 t-183.5 -106.5t-229.5 -39.5q-97 0 -173 24.5t-125.5 66.5t-82 103t-46 129t-13.5 148z" />
<glyph unicode="&#xdc;" horiz-adv-x="1480" d="M836 1722l32 158h41l-32 -158h-41zM1063 1722l33 158h41l-33 -158h-41zM170 461q0 111 31 266l153 727h41l-153 -727q-31 -152 -31 -260q0 -436 399 -436q120 0 223 41t176 107.5t131 159t93 187.5t57 201l154 727h41l-154 -727q-26 -122 -66 -227.5t-102 -201 t-140 -162.5t-183.5 -106.5t-229.5 -39.5q-97 0 -173 24.5t-125.5 66.5t-82 103t-46 129t-13.5 148z" />
<glyph unicode="&#xdd;" horiz-adv-x="1216" d="M821 1706l-26 25l155 149h68zM567 567l-368 887h47l352 -844l713 844h47l-750 -891l-121 -563h-41z" />
<glyph unicode="&#xde;" horiz-adv-x="1175" d="M377 1454h41l-66 -307h484q138 0 221.5 -108.5t83.5 -254.5q0 -125 -65 -245t-177 -197.5t-237 -77.5h-498l-55 -264h-41zM670 305q116 0 217 73t157 182t56 218q0 135 -77 231.5t-198 96.5h-481l-170 -801h496z" />
<glyph unicode="&#xdf;" horiz-adv-x="1071" d="M326 27q271 4 424 128t153 337q0 142 -87 227.5t-238 85.5h-33l8 41h31q147 0 256.5 98.5t109.5 235.5q0 105 -71 173t-185 68q-144 0 -252 -103.5t-145 -275.5l-221 -1042h-41l221 1042q40 188 164.5 304t284.5 116q129 0 208.5 -75.5t79.5 -192.5q0 -125 -93.5 -234 t-213.5 -133q126 -29 193 -114t67 -211q0 -231 -165 -367.5t-464 -146.5z" />
<glyph unicode="&#xe0;" horiz-adv-x="1187" d="M580 1495h65l94 -149l-37 -25zM63 430q0 120 50 239t131.5 209t191 145.5t221.5 55.5q134 0 226.5 -74.5t134.5 -189.5l53 248h43l-209 -973q-4 -12 -4 -24q0 -25 25 -25l-8 -41q-13 0 -19 2q-39 12 -39 57q0 9 31 162q-88 -108 -209.5 -174.5t-239.5 -66.5 q-114 0 -202 65t-132.5 166.5t-44.5 218.5zM918 346l81 383q-18 128 -113.5 218.5t-234.5 90.5q-104 0 -205.5 -55t-175.5 -141t-120 -196t-46 -216q0 -166 98.5 -288t243.5 -122q87 0 188 45t181 121.5t103 159.5z" />
<glyph unicode="&#xe1;" horiz-adv-x="1187" d="M752 1321l-27 25l156 149h67zM63 430q0 120 50 239t131.5 209t191 145.5t221.5 55.5q134 0 226.5 -74.5t134.5 -189.5l53 248h43l-209 -973q-4 -12 -4 -24q0 -25 25 -25l-8 -41q-13 0 -19 2q-39 12 -39 57q0 9 31 162q-88 -108 -209.5 -174.5t-239.5 -66.5 q-114 0 -202 65t-132.5 166.5t-44.5 218.5zM918 346l81 383q-18 128 -113.5 218.5t-234.5 90.5q-104 0 -205.5 -55t-175.5 -141t-120 -196t-46 -216q0 -166 98.5 -288t243.5 -122q87 0 188 45t181 121.5t103 159.5z" />
<glyph unicode="&#xe2;" horiz-adv-x="1187" d="M561 1284l213 152h33l149 -152l-36 -24l-140 129l-192 -129zM63 430q0 120 50 239t131.5 209t191 145.5t221.5 55.5q134 0 226.5 -74.5t134.5 -189.5l53 248h43l-209 -973q-4 -12 -4 -24q0 -25 25 -25l-8 -41q-13 0 -19 2q-39 12 -39 57q0 9 31 162 q-88 -108 -209.5 -174.5t-239.5 -66.5q-114 0 -202 65t-132.5 166.5t-44.5 218.5zM918 346l81 383q-18 128 -113.5 218.5t-234.5 90.5q-104 0 -205.5 -55t-175.5 -141t-120 -196t-46 -216q0 -166 98.5 -288t243.5 -122q87 0 188 45t181 121.5t103 159.5z" />
<glyph unicode="&#xe3;" horiz-adv-x="1187" d="M655 1436q-29 0 -53 -13t-38 -33t-20 -31.5t-9 -21.5h-39q1 6 6 19t18.5 34.5t31.5 39.5t49 31.5t67 13.5q50 0 113.5 -39t113.5 -39q30 0 54.5 9.5t38.5 22t24 28.5t13.5 24.5t4.5 13.5h39q-3 -12 -12 -30t-29 -44.5t-58 -44.5t-87 -18t-89 19.5t-73.5 39t-65.5 19.5z M63 430q0 120 50 239t131.5 209t191 145.5t221.5 55.5q134 0 226.5 -74.5t134.5 -189.5l53 248h43l-209 -973q-4 -12 -4 -24q0 -25 25 -25l-8 -41q-13 0 -19 2q-39 12 -39 57q0 9 31 162q-88 -108 -209.5 -174.5t-239.5 -66.5q-114 0 -202 65t-132.5 166.5t-44.5 218.5z M918 346l81 383q-18 128 -113.5 218.5t-234.5 90.5q-104 0 -205.5 -55t-175.5 -141t-120 -196t-46 -216q0 -166 98.5 -288t243.5 -122q87 0 188 45t181 121.5t103 159.5z" />
<glyph unicode="&#xe4;" horiz-adv-x="1187" d="M631 1337l33 158h41l-33 -158h-41zM858 1337l33 158h41l-33 -158h-41zM63 430q0 120 50 239t131.5 209t191 145.5t221.5 55.5q134 0 226.5 -74.5t134.5 -189.5l53 248h43l-209 -973q-4 -12 -4 -24q0 -25 25 -25l-8 -41q-13 0 -19 2q-39 12 -39 57q0 9 31 162 q-88 -108 -209.5 -174.5t-239.5 -66.5q-114 0 -202 65t-132.5 166.5t-44.5 218.5zM918 346l81 383q-18 128 -113.5 218.5t-234.5 90.5q-104 0 -205.5 -55t-175.5 -141t-120 -196t-46 -216q0 -166 98.5 -288t243.5 -122q87 0 188 45t181 121.5t103 159.5z" />
<glyph unicode="&#xe5;" horiz-adv-x="1187" d="M799 1495q39 0 63.5 -27t24.5 -67q0 -56 -42 -97.5t-97 -41.5q-39 0 -64 27t-25 67q0 56 42.5 97.5t97.5 41.5zM692 1362q0 -30 17.5 -49t46.5 -19q35 0 67.5 30t32.5 71q0 30 -18.5 48.5t-46.5 18.5q-38 0 -68.5 -28.5t-30.5 -71.5zM63 430q0 120 50 239t131.5 209 t191 145.5t221.5 55.5q134 0 226.5 -74.5t134.5 -189.5l53 248h43l-209 -973q-4 -12 -4 -24q0 -25 25 -25l-8 -41q-13 0 -19 2q-39 12 -39 57q0 9 31 162q-88 -108 -209.5 -174.5t-239.5 -66.5q-114 0 -202 65t-132.5 166.5t-44.5 218.5zM918 346l81 383 q-18 128 -113.5 218.5t-234.5 90.5q-104 0 -205.5 -55t-175.5 -141t-120 -196t-46 -216q0 -166 98.5 -288t243.5 -122q87 0 188 45t181 121.5t103 159.5z" />
<glyph unicode="&#xe6;" horiz-adv-x="1808" d="M2 246q0 160 141.5 261t350.5 101q139 0 270 -41q26 102 88 203q0 124 -68.5 196t-187.5 72q-156 0 -360 -131l-17 33q225 139 385 139q121 0 199 -66t88 -188q90 117 211.5 185.5t247.5 68.5q167 0 279 -116t112 -291q0 -106 -27 -164h-921q-7 -54 -7 -86 q0 -175 97 -288.5t254 -113.5q117 0 230.5 62.5t176.5 161.5l37 -11q-64 -109 -194 -181t-261 -72q-124 0 -216 66.5t-136 180.5q-42 -63 -106.5 -113t-133.5 -78t-133.5 -42t-119.5 -14q-133 0 -206 76.5t-73 189.5zM1681 549q15 59 15 117q0 100 -38 182.5t-120 136 t-195 53.5q-180 0 -333 -139t-209 -350h880zM758 281q-17 66 -17 127q0 49 13 116q-122 43 -265 43q-197 0 -321.5 -86t-124.5 -227q0 -98 63 -166t187 -68q87 0 184.5 32.5t177 94t103.5 134.5z" />
<glyph unicode="&#xe7;" horiz-adv-x="1052" d="M686 1038q-109 0 -215 -48.5t-187 -129.5t-130.5 -192.5t-49.5 -229.5q0 -176 98 -297t249 -121q118 0 240 68t163 156l39 -13q-49 -92 -154.5 -160t-224.5 -87q64 -58 64 -134q0 -92 -59 -139t-154 -47q-110 0 -187 51l23 31q46 -24 81.5 -34.5t84.5 -10.5 q78 0 126 41.5t48 101.5q0 72 -80 136h-12q-169 0 -277.5 129.5t-108.5 320.5q0 129 52 249.5t137 207.5t198 139.5t230 52.5q128 0 215 -62.5t115 -174.5l-45 -15q-26 98 -101 154.5t-178 56.5z" />
<glyph unicode="&#xe8;" horiz-adv-x="1067" d="M705 1346l-37 -25l-123 174h65zM459 508q-140 0 -346 12q-7 -51 -7 -88q0 -114 39.5 -206t122.5 -149t197 -57q116 0 232 67t175 175l39 -12q-69 -122 -195 -196t-265 -74q-118 0 -207.5 61.5t-135 163t-45.5 225.5q0 121 48 238t129 208t197.5 147t244.5 56 q73 0 143 -30.5t120 -96.5t50 -153q0 -291 -536 -291zM672 1038q-130 0 -247.5 -66t-196 -174.5t-107.5 -236.5q205 -12 344 -12q487 0 487 252q0 59 -26.5 106.5t-68.5 75t-89.5 41.5t-95.5 14z" />
<glyph unicode="&#xe9;" horiz-adv-x="1067" d="M913 1495l-196 -174l-27 25l156 149h67zM459 508q-140 0 -346 12q-7 -51 -7 -88q0 -114 39.5 -206t122.5 -149t197 -57q116 0 232 67t175 175l39 -12q-69 -122 -195 -196t-265 -74q-118 0 -207.5 61.5t-135 163t-45.5 225.5q0 121 48 238t129 208t197.5 147t244.5 56 q73 0 143 -30.5t120 -96.5t50 -153q0 -291 -536 -291zM672 1038q-130 0 -247.5 -66t-196 -174.5t-107.5 -236.5q205 -12 344 -12q487 0 487 252q0 59 -26.5 106.5t-68.5 75t-89.5 41.5t-95.5 14z" />
<glyph unicode="&#xea;" horiz-adv-x="1067" d="M745 1389l-192 -129l-27 24l213 152h33l150 -152l-37 -24zM459 508q-140 0 -346 12q-7 -51 -7 -88q0 -114 39.5 -206t122.5 -149t197 -57q116 0 232 67t175 175l39 -12q-69 -122 -195 -196t-265 -74q-118 0 -207.5 61.5t-135 163t-45.5 225.5q0 121 48 238t129 208 t197.5 147t244.5 56q73 0 143 -30.5t120 -96.5t50 -153q0 -291 -536 -291zM672 1038q-130 0 -247.5 -66t-196 -174.5t-107.5 -236.5q205 -12 344 -12q487 0 487 252q0 59 -26.5 106.5t-68.5 75t-89.5 41.5t-95.5 14z" />
<glyph unicode="&#xeb;" horiz-adv-x="1067" d="M670 1495l-33 -158h-41l33 158h41zM897 1495l-33 -158h-41l33 158h41zM459 508q-140 0 -346 12q-7 -51 -7 -88q0 -114 39.5 -206t122.5 -149t197 -57q116 0 232 67t175 175l39 -12q-69 -122 -195 -196t-265 -74q-118 0 -207.5 61.5t-135 163t-45.5 225.5q0 121 48 238 t129 208t197.5 147t244.5 56q73 0 143 -30.5t120 -96.5t50 -153q0 -291 -536 -291zM672 1038q-130 0 -247.5 -66t-196 -174.5t-107.5 -236.5q205 -12 344 -12q487 0 487 252q0 59 -26.5 106.5t-68.5 75t-89.5 41.5t-95.5 14z" />
<glyph unicode="&#xec;" horiz-adv-x="372" d="M377 1386h65l95 -149l-37 -25zM260 1063h41l-225 -1063h-41z" />
<glyph unicode="&#xed;" horiz-adv-x="372" d="M328 1321l-27 25l156 149h67zM260 1063h41l-225 -1063h-41z" />
<glyph unicode="&#xee;" horiz-adv-x="372" d="M137 1284l213 152h33l149 -152l-36 -24l-140 129l-192 -129zM260 1063h41l-225 -1063h-41z" />
<glyph unicode="&#xef;" horiz-adv-x="372" d="M207 1337l33 158h41l-33 -158h-41zM434 1337l33 158h41l-33 -158h-41zM260 1063h41l-225 -1063h-41z" />
<glyph unicode="&#xf0;" horiz-adv-x="1163" d="M1094 1432l-211 -129q190 -234 190 -547q0 -174 -56.5 -323t-147 -246.5t-202.5 -152t-225 -54.5q-170 0 -278.5 118.5t-108.5 290.5q0 113 52.5 221t136 187t192 127.5t217.5 48.5q149 0 251 -82.5t126 -214.5q6 62 6 123q0 273 -184 487l-274 -166l-15 29l268 162 q-84 93 -215 184h60q103 -74 184 -168l219 133zM449 20q134 0 263 79t210.5 208t81.5 266q0 151 -102 255t-257 104q-133 0 -260.5 -74.5t-208 -200.5t-80.5 -264q0 -158 99.5 -265.5t253.5 -107.5z" />
<glyph unicode="&#xf1;" horiz-adv-x="1105" d="M621 1436q-29 0 -53 -13t-38 -33t-20.5 -32t-9.5 -21h-39q1 6 6 19t18.5 34.5t31.5 39.5t49 31.5t67 13.5q50 0 113.5 -39t113.5 -39q30 0 54.5 9.5t38.5 22t24 28.5t13.5 24.5t4.5 13.5h39q-3 -12 -12 -30t-29 -44.5t-58 -44.5t-87 -18q-39 0 -73 12t-54 27t-47 27 t-53 12zM260 1063h41l-57 -275q89 129 230 210t276 81q114 0 169.5 -63t55.5 -195q0 -87 -29 -229l-125 -592h-41l125 592q27 129 27 219q0 116 -47 171.5t-144 55.5q-146 0 -296.5 -105t-225.5 -261l-143 -672h-41z" />
<glyph unicode="&#xf2;" horiz-adv-x="1148" d="M541 1495h65l94 -149l-36 -25zM61 420q0 135 51.5 258.5t135.5 210.5t194 138.5t224 51.5q124 0 212.5 -61t130.5 -159.5t42 -223.5q0 -133 -50.5 -255.5t-133 -209.5t-192.5 -138.5t-226 -51.5q-126 0 -215.5 60.5t-131 158t-41.5 221.5zM1010 627q0 177 -92 294 t-261 117q-105 0 -206 -48t-178 -129t-124 -195.5t-47 -239.5q0 -177 91.5 -291.5t261.5 -114.5q106 0 207 47.5t177.5 128t123.5 194t47 237.5z" />
<glyph unicode="&#xf3;" horiz-adv-x="1148" d="M713 1321l-27 25l156 149h67zM61 420q0 135 51.5 258.5t135.5 210.5t194 138.5t224 51.5q124 0 212.5 -61t130.5 -159.5t42 -223.5q0 -133 -50.5 -255.5t-133 -209.5t-192.5 -138.5t-226 -51.5q-126 0 -215.5 60.5t-131 158t-41.5 221.5zM1010 627q0 177 -92 294 t-261 117q-105 0 -206 -48t-178 -129t-124 -195.5t-47 -239.5q0 -177 91.5 -291.5t261.5 -114.5q106 0 207 47.5t177.5 128t123.5 194t47 237.5z" />
<glyph unicode="&#xf4;" horiz-adv-x="1148" d="M522 1284l213 152h33l150 -152l-37 -24l-140 129l-192 -129zM61 420q0 135 51.5 258.5t135.5 210.5t194 138.5t224 51.5q124 0 212.5 -61t130.5 -159.5t42 -223.5q0 -133 -50.5 -255.5t-133 -209.5t-192.5 -138.5t-226 -51.5q-126 0 -215.5 60.5t-131 158t-41.5 221.5z M1010 627q0 177 -92 294t-261 117q-105 0 -206 -48t-178 -129t-124 -195.5t-47 -239.5q0 -177 91.5 -291.5t261.5 -114.5q106 0 207 47.5t177.5 128t123.5 194t47 237.5z" />
<glyph unicode="&#xf5;" horiz-adv-x="1148" d="M616 1436q-29 0 -53 -13t-38 -33t-20 -31.5t-9 -21.5h-39q1 6 6 19t18.5 34.5t31.5 39.5t49 31.5t67 13.5q50 0 113.5 -39t113.5 -39q30 0 54.5 9.5t38.5 22t24 28.5t13.5 24.5t4.5 13.5h39q-3 -12 -12 -30t-29 -44.5t-58 -44.5t-87 -18t-89 19.5t-73.5 39t-65.5 19.5z M61 420q0 135 51.5 258.5t135.5 210.5t194 138.5t224 51.5q124 0 212.5 -61t130.5 -159.5t42 -223.5q0 -133 -50.5 -255.5t-133 -209.5t-192.5 -138.5t-226 -51.5q-126 0 -215.5 60.5t-131 158t-41.5 221.5zM1010 627q0 177 -92 294t-261 117q-105 0 -206 -48t-178 -129 t-124 -195.5t-47 -239.5q0 -177 91.5 -291.5t261.5 -114.5q106 0 207 47.5t177.5 128t123.5 194t47 237.5z" />
<glyph unicode="&#xf6;" horiz-adv-x="1148" d="M592 1337l33 158h41l-33 -158h-41zM819 1337l33 158h41l-33 -158h-41zM61 420q0 135 51.5 258.5t135.5 210.5t194 138.5t224 51.5q124 0 212.5 -61t130.5 -159.5t42 -223.5q0 -133 -50.5 -255.5t-133 -209.5t-192.5 -138.5t-226 -51.5q-126 0 -215.5 60.5t-131 158 t-41.5 221.5zM1010 627q0 177 -92 294t-261 117q-105 0 -206 -48t-178 -129t-124 -195.5t-47 -239.5q0 -177 91.5 -291.5t261.5 -114.5q106 0 207 47.5t177.5 128t123.5 194t47 237.5z" />
<glyph unicode="&#xf7;" horiz-adv-x="1122" d="M526 788v132h41v-132h-41zM135 535v40h826v-40h-826zM526 188v131h41v-131h-41z" />
<glyph unicode="&#xf8;" horiz-adv-x="1148" d="M930 967q121 -134 121 -336q0 -124 -53 -244.5t-138.5 -209t-196.5 -143t-223 -54.5q-133 0 -229 83l-49 -63h-49l69 90q-121 131 -121 334q0 126 54 247.5t140 210t197.5 143t221.5 54.5q132 0 227 -86l55 70h52zM666 1038q-101 0 -203.5 -51t-181.5 -134t-129 -196 t-50 -229q0 -183 109 -305l661 835q-86 80 -206 80zM446 20q101 0 203.5 50.5t181.5 132.5t129 194.5t50 227.5q0 185 -107 305l-663 -832q88 -78 206 -78z" />
<glyph unicode="&#xf9;" horiz-adv-x="1128" d="M551 1495h65l95 -149l-37 -25zM96 264q0 84 25 203l127 596h41l-127 -596q-25 -119 -25 -199q0 -248 215 -248q146 0 292 103.5t224 263.5l144 676h41l-197 -926q-2 -13 -6 -29.5t-6 -26t-2 -11.5q0 -29 26 -29l-10 -41q-12 0 -24 4q-31 12 -31 55q0 14 41 211 q-94 -133 -229.5 -211.5t-272.5 -78.5q-246 0 -246 284z" />
<glyph unicode="&#xfa;" horiz-adv-x="1128" d="M723 1321l-27 25l156 149h68zM96 264q0 84 25 203l127 596h41l-127 -596q-25 -119 -25 -199q0 -248 215 -248q146 0 292 103.5t224 263.5l144 676h41l-197 -926q-2 -13 -6 -29.5t-6 -26t-2 -11.5q0 -29 26 -29l-10 -41q-12 0 -24 4q-31 12 -31 55q0 14 41 211 q-94 -133 -229.5 -211.5t-272.5 -78.5q-246 0 -246 284z" />
<glyph unicode="&#xfb;" horiz-adv-x="1128" d="M532 1284l213 152h33l150 -152l-37 -24l-139 129l-193 -129zM96 264q0 84 25 203l127 596h41l-127 -596q-25 -119 -25 -199q0 -248 215 -248q146 0 292 103.5t224 263.5l144 676h41l-197 -926q-2 -13 -6 -29.5t-6 -26t-2 -11.5q0 -29 26 -29l-10 -41q-12 0 -24 4 q-31 12 -31 55q0 14 41 211q-94 -133 -229.5 -211.5t-272.5 -78.5q-246 0 -246 284z" />
<glyph unicode="&#xfc;" horiz-adv-x="1128" d="M602 1337l33 158h41l-33 -158h-41zM829 1337l33 158h41l-33 -158h-41zM96 264q0 84 25 203l127 596h41l-127 -596q-25 -119 -25 -199q0 -248 215 -248q146 0 292 103.5t224 263.5l144 676h41l-197 -926q-2 -13 -6 -29.5t-6 -26t-2 -11.5q0 -29 26 -29l-10 -41 q-12 0 -24 4q-31 12 -31 55q0 14 41 211q-94 -133 -229.5 -211.5t-272.5 -78.5q-246 0 -246 284z" />
<glyph unicode="&#xfd;" horiz-adv-x="913" d="M643 1321l-27 25l156 149h68zM-76 -424q50 10 88 26t67 35t61.5 57.5t57 74t68.5 102.5l84 129l-244 1063h46l229 -1012l119 189q192 305 274.5 470.5t136.5 352.5h43q-56 -200 -138 -365t-286 -487l-168 -264q-78 -123 -126.5 -190.5t-99.5 -116.5t-96.5 -69t-111.5 -30 z" />
<glyph unicode="&#xfe;" horiz-adv-x="1181" d="M-57 -436l401 1890h41l-131 -616q87 107 209.5 174t236.5 67q88 0 161 -38t120.5 -101.5t73.5 -144.5t26 -168q0 -160 -80 -309t-219.5 -243.5t-298.5 -94.5q-126 0 -218 74t-136 190l-145 -680h-41zM492 20q145 0 273.5 92t201.5 231t73 280q0 171 -97.5 293t-252.5 122 q-78 0 -177 -45t-181.5 -122t-104.5 -158l-82 -383q29 -134 123 -222t224 -88z" />
<glyph unicode="&#xff;" horiz-adv-x="913" d="M522 1337l33 158h41l-33 -158h-41zM750 1337l32 158h41l-32 -158h-41zM-76 -424q50 10 88 26t67 35t61.5 57.5t57 74t68.5 102.5l84 129l-244 1063h46l229 -1012l119 189q192 305 274.5 470.5t136.5 352.5h43q-56 -200 -138 -365t-286 -487l-168 -264 q-78 -123 -126.5 -190.5t-99.5 -116.5t-96.5 -69t-111.5 -30z" />
<glyph unicode="&#x100;" horiz-adv-x="1325" d="M651 1796l8 41h545l-8 -41h-545zM831 1454h37l291 -1454h-45l-104 520h-719l-326 -520h-45zM1001 561l-163 834l-523 -834h686z" />
<glyph unicode="&#x101;" horiz-adv-x="1187" d="M508 1405l8 41h545l-8 -41h-545zM63 430q0 120 50 239t131.5 209t191 145.5t221.5 55.5q134 0 226.5 -74.5t134.5 -189.5l53 248h43l-209 -973q-4 -12 -4 -24q0 -25 25 -25l-8 -41q-13 0 -19 2q-39 12 -39 57q0 9 31 162q-88 -108 -209.5 -174.5t-239.5 -66.5 q-114 0 -202 65t-132.5 166.5t-44.5 218.5zM918 346l81 383q-18 128 -113.5 218.5t-234.5 90.5q-104 0 -205.5 -55t-175.5 -141t-120 -196t-46 -216q0 -166 98.5 -288t243.5 -122q87 0 188 45t181 121.5t103 159.5z" />
<glyph unicode="&#x102;" horiz-adv-x="1325" d="M1053 1886h37q-13 -63 -67.5 -110t-111.5 -47q-51 0 -83.5 36t-32.5 90q0 11 4 31h39q-2 -8 -2 -22q0 -41 23.5 -71t58.5 -30q40 0 80 36t55 87zM831 1454h37l291 -1454h-45l-104 520h-719l-326 -520h-45zM1001 561l-163 834l-523 -834h686z" />
<glyph unicode="&#x103;" horiz-adv-x="1187" d="M909 1495h37q-13 -63 -67 -110.5t-111 -47.5q-51 0 -84 36.5t-33 90.5q0 11 4 31h39q-2 -8 -2 -22q0 -41 23.5 -71t58.5 -30q40 0 80 36t55 87zM63 430q0 120 50 239t131.5 209t191 145.5t221.5 55.5q134 0 226.5 -74.5t134.5 -189.5l53 248h43l-209 -973q-4 -12 -4 -24 q0 -25 25 -25l-8 -41q-13 0 -19 2q-39 12 -39 57q0 9 31 162q-88 -108 -209.5 -174.5t-239.5 -66.5q-114 0 -202 65t-132.5 166.5t-44.5 218.5zM918 346l81 383q-18 128 -113.5 218.5t-234.5 90.5q-104 0 -205.5 -55t-175.5 -141t-120 -196t-46 -216q0 -166 98.5 -288 t243.5 -122q87 0 188 45t181 121.5t103 159.5z" />
<glyph unicode="&#x104;" horiz-adv-x="1325" d="M999 -217q0 -30 21 -49.5t70 -34.5l-27 -35q-98 25 -98 105q0 54 35.5 106.5t113.5 124.5l-104 520h-719l-326 -520h-45l911 1454h37l291 -1454q-90 -76 -125 -124t-35 -93zM315 561h686l-163 834z" />
<glyph unicode="&#x105;" horiz-adv-x="1187" d="M901 66q0 -25 25 -25l-8 -41q-90 -76 -125 -124t-35 -93q0 -30 20.5 -49.5t69.5 -34.5l-27 -35q-98 25 -98 105q0 56 38.5 111t121.5 130q-23 14 -23 49q0 9 31 162q-88 -108 -209.5 -174.5t-239.5 -66.5q-114 0 -202 65t-132.5 166.5t-44.5 218.5q0 120 50 239 t131.5 209t191 145.5t221.5 55.5q134 0 226.5 -74.5t134.5 -189.5l53 248h43l-209 -973q-4 -12 -4 -24zM446 20q87 0 188 45t181 121.5t103 159.5l81 383q-18 128 -113.5 218.5t-234.5 90.5q-104 0 -205.5 -55t-175.5 -141t-120 -196t-46 -216q0 -166 98.5 -288t243.5 -122z " />
<glyph unicode="&#x106;" horiz-adv-x="1357" d="M922 1712l-27 25l156 149h67zM106 590q0 122 39.5 247t114 236.5t173.5 199t227.5 138.5t265.5 51q182 0 294 -86t146 -231l-41 -12q-43 151 -148.5 219.5t-252.5 68.5q-128 0 -248.5 -49t-214.5 -133t-166 -190.5t-110 -228t-38 -238.5q0 -110 34 -210t95 -176.5 t154.5 -121.5t204.5 -45q93 0 188 30.5t193 101.5t172 175l37 -10q-102 -160 -267 -249t-329 -89q-121 0 -222 51.5t-165.5 137t-100 192.5t-35.5 221z" />
<glyph unicode="&#x107;" horiz-adv-x="1052" d="M721 1321l-27 25l156 149h68zM63 430q0 129 52 249.5t137 207.5t198 139.5t230 52.5q128 0 215 -62.5t115 -174.5l-45 -15q-26 98 -101 154.5t-178 56.5q-109 0 -215 -48.5t-187 -129.5t-130.5 -192.5t-49.5 -229.5q0 -176 98 -297t249 -121q118 0 240 68t163 156l39 -13 q-57 -107 -185 -179t-259 -72q-169 0 -277.5 129.5t-108.5 320.5z" />
<glyph unicode="&#x108;" horiz-adv-x="1357" d="M731 1675l213 152h33l149 -152l-36 -24l-140 129l-192 -129zM106 590q0 122 39.5 247t114 236.5t173.5 199t227.5 138.5t265.5 51q182 0 294 -86t146 -231l-41 -12q-43 151 -148.5 219.5t-252.5 68.5q-128 0 -248.5 -49t-214.5 -133t-166 -190.5t-110 -228t-38 -238.5 q0 -110 34 -210t95 -176.5t154.5 -121.5t204.5 -45q93 0 188 30.5t193 101.5t172 175l37 -10q-102 -160 -267 -249t-329 -89q-121 0 -222 51.5t-165.5 137t-100 192.5t-35.5 221z" />
<glyph unicode="&#x109;" horiz-adv-x="1052" d="M530 1284l213 152h33l150 -152l-37 -24l-139 129l-193 -129zM63 430q0 129 52 249.5t137 207.5t198 139.5t230 52.5q128 0 215 -62.5t115 -174.5l-45 -15q-26 98 -101 154.5t-178 56.5q-109 0 -215 -48.5t-187 -129.5t-130.5 -192.5t-49.5 -229.5q0 -176 98 -297 t249 -121q118 0 240 68t163 156l39 -13q-57 -107 -185 -179t-259 -72q-169 0 -277.5 129.5t-108.5 320.5z" />
<glyph unicode="&#x10a;" horiz-adv-x="1357" d="M915 1729l33 157h41l-33 -157h-41zM106 590q0 122 39.5 247t114 236.5t173.5 199t227.5 138.5t265.5 51q182 0 294 -86t146 -231l-41 -12q-43 151 -148.5 219.5t-252.5 68.5q-128 0 -248.5 -49t-214.5 -133t-166 -190.5t-110 -228t-38 -238.5q0 -110 34 -210t95 -176.5 t154.5 -121.5t204.5 -45q93 0 188 30.5t193 101.5t172 175l37 -10q-102 -160 -267 -249t-329 -89q-121 0 -222 51.5t-165.5 137t-100 192.5t-35.5 221z" />
<glyph unicode="&#x10b;" horiz-adv-x="1052" d="M715 1337l33 158h40l-32 -158h-41zM63 430q0 129 52 249.5t137 207.5t198 139.5t230 52.5q128 0 215 -62.5t115 -174.5l-45 -15q-26 98 -101 154.5t-178 56.5q-109 0 -215 -48.5t-187 -129.5t-130.5 -192.5t-49.5 -229.5q0 -176 98 -297t249 -121q118 0 240 68t163 156 l39 -13q-57 -107 -185 -179t-259 -72q-169 0 -277.5 129.5t-108.5 320.5z" />
<glyph unicode="&#x10c;" horiz-adv-x="1357" d="M752 1862l36 24l140 -129l192 129l27 -24l-213 -152h-33zM106 590q0 122 39.5 247t114 236.5t173.5 199t227.5 138.5t265.5 51q182 0 294 -86t146 -231l-41 -12q-43 151 -148.5 219.5t-252.5 68.5q-128 0 -248.5 -49t-214.5 -133t-166 -190.5t-110 -228t-38 -238.5 q0 -110 34 -210t95 -176.5t154.5 -121.5t204.5 -45q93 0 188 30.5t193 101.5t172 175l37 -10q-102 -160 -267 -249t-329 -89q-121 0 -222 51.5t-165.5 137t-100 192.5t-35.5 221z" />
<glyph unicode="&#x10d;" horiz-adv-x="1052" d="M551 1470l37 25l139 -129l193 129l26 -25l-213 -151h-33zM63 430q0 129 52 249.5t137 207.5t198 139.5t230 52.5q128 0 215 -62.5t115 -174.5l-45 -15q-26 98 -101 154.5t-178 56.5q-109 0 -215 -48.5t-187 -129.5t-130.5 -192.5t-49.5 -229.5q0 -176 98 -297t249 -121 q118 0 240 68t163 156l39 -13q-57 -107 -185 -179t-259 -72q-169 0 -277.5 129.5t-108.5 320.5z" />
<glyph unicode="&#x10e;" horiz-adv-x="1400" d="M711 1862l37 24l139 -129l192 129l27 -24l-213 -152h-33zM377 1454h444q129 0 229.5 -42.5t162 -118.5t93 -175t31.5 -217q0 -191 -62.5 -358t-171 -286.5t-262 -188t-329.5 -68.5h-444zM520 41q177 0 325 70t245.5 188t151.5 271t54 321q0 236 -125 379t-358 143h-403 l-293 -1372h403z" />
<glyph unicode="&#x10f;" horiz-adv-x="1185" d="M63 432q0 120 50.5 238.5t132 208t192 145t224.5 55.5q130 0 222.5 -74.5t133.5 -189.5l143 680h43l-301 -1407q-2 -8 -2 -20q0 -27 25 -27l-8 -41q-13 0 -25 4q-33 11 -33 57q0 15 31 160q-87 -107 -209 -174t-236 -67q-88 0 -161.5 38t-121 101t-74 144t-26.5 169z M1247 1346l156 149h67l-196 -174zM918 346l81 383q-17 127 -119.5 218t-226.5 91q-109 0 -212 -54.5t-176 -140.5t-117 -194t-44 -213q0 -172 98.5 -294t252.5 -122q79 0 178 44t181 121.5t104 160.5z" />
<glyph unicode="&#x110;" horiz-adv-x="1415" d="M836 1454q129 0 229.5 -42.5t162 -118.5t93 -175t31.5 -217q0 -255 -106.5 -461t-295.5 -323t-424 -117h-444l151 711h-137l8 41h138l149 702h445zM535 41q177 0 325 70t245.5 188t151.5 271t54 321q0 236 -125.5 379t-358.5 143h-403l-141 -661h372l-8 -41h-373 l-143 -670h404z" />
<glyph unicode="&#x111;" horiz-adv-x="1185" d="M1161 1296l-258 -1208q-2 -8 -2 -20q0 -27 25 -27l-8 -41q-13 0 -25 4q-33 11 -33 57q0 15 31 160q-87 -107 -209 -174t-236 -67q-88 0 -161.5 38t-121 101t-74 144t-26.5 169q0 120 50.5 238.5t132 208t192 145t224.5 55.5q130 0 222.5 -74.5t133.5 -189.5l102 481h-241 l8 41h241l33 158h43l-33 -158h146l-8 -41h-148zM455 20q79 0 178 44t181 121.5t104 160.5l81 383q-17 127 -119.5 218t-226.5 91q-109 0 -212 -54.5t-176 -140.5t-117 -194t-44 -213q0 -172 98.5 -294t252.5 -122z" />
<glyph unicode="&#x112;" horiz-adv-x="1204" d="M600 1796l8 41h545l-8 -41h-545zM377 1454h889l-9 -41h-847l-140 -649h744l-8 -41h-744l-145 -682h866l-8 -41h-907z" />
<glyph unicode="&#x113;" horiz-adv-x="1067" d="M481 1446h545l-8 -41h-545zM682 1079q73 0 143 -30.5t120 -96.5t50 -153q0 -291 -536 -291q-140 0 -346 12q-7 -51 -7 -88q0 -114 39.5 -206t122.5 -149t197 -57q116 0 232 67t175 175l39 -12q-69 -122 -195 -196t-265 -74q-118 0 -207.5 61.5t-135 163t-45.5 225.5 q0 121 48 238t129 208t197.5 147t244.5 56zM465 549q487 0 487 252q0 59 -26.5 106.5t-68.5 75t-89.5 41.5t-95.5 14q-130 0 -247.5 -66t-196 -174.5t-107.5 -236.5q205 -12 344 -12z" />
<glyph unicode="&#x114;" horiz-adv-x="1204" d="M1001 1886h37q-13 -63 -67 -110t-111 -47q-51 0 -84 36t-33 90q0 6 5 31h38q-2 -8 -2 -22q0 -41 23.5 -71t58.5 -30q40 0 80 36t55 87zM377 1454h889l-9 -41h-847l-140 -649h744l-8 -41h-744l-145 -682h866l-8 -41h-907z" />
<glyph unicode="&#x115;" horiz-adv-x="1067" d="M733 1337q-51 0 -84 36.5t-33 90.5q0 6 5 31h38q-2 -8 -2 -22q0 -41 23.5 -71t58.5 -30q40 0 80 36t55 87h37q-13 -63 -67 -110.5t-111 -47.5zM459 508q-140 0 -346 12q-7 -51 -7 -88q0 -114 39.5 -206t122.5 -149t197 -57q116 0 232 67t175 175l39 -12 q-69 -122 -195 -196t-265 -74q-118 0 -207.5 61.5t-135 163t-45.5 225.5q0 121 48 238t129 208t197.5 147t244.5 56q73 0 143 -30.5t120 -96.5t50 -153q0 -291 -536 -291zM672 1038q-130 0 -247.5 -66t-196 -174.5t-107.5 -236.5q205 -12 344 -12q487 0 487 252 q0 59 -26.5 106.5t-68.5 75t-89.5 41.5t-95.5 14z" />
<glyph unicode="&#x116;" horiz-adv-x="1204" d="M838 1729l32 157h41l-32 -157h-41zM377 1454h889l-9 -41h-847l-140 -649h744l-8 -41h-744l-145 -682h866l-8 -41h-907z" />
<glyph unicode="&#x117;" horiz-adv-x="1067" d="M784 1495l-32 -158h-41l32 158h41zM459 508q-140 0 -346 12q-7 -51 -7 -88q0 -114 39.5 -206t122.5 -149t197 -57q116 0 232 67t175 175l39 -12q-69 -122 -195 -196t-265 -74q-118 0 -207.5 61.5t-135 163t-45.5 225.5q0 121 48 238t129 208t197.5 147t244.5 56 q73 0 143 -30.5t120 -96.5t50 -153q0 -291 -536 -291zM672 1038q-130 0 -247.5 -66t-196 -174.5t-107.5 -236.5q205 -12 344 -12q487 0 487 252q0 59 -26.5 106.5t-68.5 75t-89.5 41.5t-95.5 14z" />
<glyph unicode="&#x118;" horiz-adv-x="1204" d="M1257 1413h-847l-140 -649h744l-8 -41h-744l-145 -682h866l-8 -41q-90 -76 -125 -124t-35 -93q0 -30 20.5 -49.5t69.5 -34.5l-26 -35q-99 25 -99 105q0 54 35.5 106.5t114.5 124.5h-862l309 1454h889z" />
<glyph unicode="&#x119;" horiz-adv-x="1067" d="M459 508q-140 0 -346 12q-7 -51 -7 -88q0 -114 39.5 -206t122.5 -149t197 -57h10l4 5h8l2 -5q111 8 219.5 74.5t163.5 167.5l39 -12q-65 -117 -184 -189.5t-252 -80.5q-76 -67 -106.5 -111t-30.5 -86q0 -30 20.5 -49.5t69.5 -34.5l-27 -35q-98 25 -98 105q0 50 30.5 98.5 t96.5 112.5q-168 7 -267.5 135.5t-99.5 314.5q0 121 48 238t129 208t197.5 147t244.5 56q73 0 143 -30.5t120 -96.5t50 -153q0 -291 -536 -291zM672 1038q-130 0 -247.5 -66t-196 -174.5t-107.5 -236.5q205 -12 344 -12q487 0 487 252q0 59 -26.5 106.5t-68.5 75t-89.5 41.5 t-95.5 14z" />
<glyph unicode="&#x11a;" horiz-adv-x="1204" d="M674 1862l37 24l139 -129l192 129l27 -24l-213 -152h-33zM377 1454h889l-9 -41h-847l-140 -649h744l-8 -41h-744l-145 -682h866l-8 -41h-907z" />
<glyph unicode="&#x11b;" horiz-adv-x="1067" d="M729 1319h-33l-149 151l37 25l139 -129l192 129l27 -25zM459 508q-140 0 -346 12q-7 -51 -7 -88q0 -114 39.5 -206t122.5 -149t197 -57q116 0 232 67t175 175l39 -12q-69 -122 -195 -196t-265 -74q-118 0 -207.5 61.5t-135 163t-45.5 225.5q0 121 48 238t129 208 t197.5 147t244.5 56q73 0 143 -30.5t120 -96.5t50 -153q0 -291 -536 -291zM672 1038q-130 0 -247.5 -66t-196 -174.5t-107.5 -236.5q205 -12 344 -12q487 0 487 252q0 59 -26.5 106.5t-68.5 75t-89.5 41.5t-95.5 14z" />
<glyph unicode="&#x11c;" horiz-adv-x="1409" d="M977 1774l-193 -129l-26 24l213 152h33l149 -152l-37 -24zM924 1423q-164 0 -311 -72.5t-247.5 -188.5t-159.5 -264t-59 -298q0 -114 34.5 -217.5t96 -181.5t154.5 -124t203 -46q262 0 547 278l73 342h-323l8 41h365l-148 -692h-41l53 248q-133 -128 -274.5 -193 t-278.5 -65q-122 0 -221 52t-161 138.5t-95 194.5t-33 225q0 163 63.5 320t171 277t261 193.5t322.5 73.5q187 0 297.5 -85.5t146.5 -231.5l-41 -12q-84 288 -403 288z" />
<glyph unicode="&#x11d;" horiz-adv-x="1179" d="M539 1284l213 152h32l150 -152l-37 -24l-139 129l-193 -129zM-45 -203l41 13q34 -115 128 -170.5t224 -55.5q113 0 211.5 41t172 126.5t99.5 203.5l58 266q-87 -107 -210 -174t-237 -67q-87 0 -160 38t-121 101t-74 144t-26 169q0 116 49.5 233.5t130 208.5t192 148 t226.5 57q233 0 357 -264l53 248h39l-236 -1108q-21 -102 -75 -182.5t-127.5 -129.5t-157.5 -74.5t-172 -25.5q-171 0 -260.5 65.5t-124.5 188.5zM915 346l82 383q-20 133 -118.5 221t-227.5 88q-112 0 -216 -56.5t-175.5 -144t-114.5 -194.5t-43 -207q0 -112 42.5 -206.5 t124 -152t184.5 -57.5q139 0 283 104.5t179 221.5z" />
<glyph unicode="&#x11e;" horiz-adv-x="1409" d="M965 1722q-51 0 -84 36.5t-33 90.5q0 11 4 31h39q-2 -8 -2 -22q0 -41 23.5 -71t58.5 -30q40 0 80 36t55 87h37q-13 -63 -67 -110.5t-111 -47.5zM924 1423q-164 0 -311 -72.5t-247.5 -188.5t-159.5 -264t-59 -298q0 -114 34.5 -217.5t96 -181.5t154.5 -124t203 -46 q262 0 547 278l73 342h-323l8 41h365l-148 -692h-41l53 248q-133 -128 -274.5 -193t-278.5 -65q-122 0 -221 52t-161 138.5t-95 194.5t-33 225q0 163 63.5 320t171 277t261 193.5t322.5 73.5q187 0 297.5 -85.5t146.5 -231.5l-41 -12q-84 288 -403 288z" />
<glyph unicode="&#x11f;" horiz-adv-x="1179" d="M887 1495h37q-13 -63 -67.5 -110.5t-111.5 -47.5q-51 0 -83.5 36.5t-32.5 90.5q0 11 4 31h39q-2 -8 -2 -22q0 -41 23.5 -71t58.5 -30q40 0 80 36t55 87zM-45 -203l41 13q34 -115 128 -170.5t224 -55.5q113 0 211.5 41t172 126.5t99.5 203.5l58 266q-87 -107 -210 -174 t-237 -67q-87 0 -160 38t-121 101t-74 144t-26 169q0 116 49.5 233.5t130 208.5t192 148t226.5 57q233 0 357 -264l53 248h39l-236 -1108q-21 -102 -75 -182.5t-127.5 -129.5t-157.5 -74.5t-172 -25.5q-171 0 -260.5 65.5t-124.5 188.5zM915 346l82 383q-20 133 -118.5 221 t-227.5 88q-112 0 -216 -56.5t-175.5 -144t-114.5 -194.5t-43 -207q0 -112 42.5 -206.5t124 -152t184.5 -57.5q139 0 283 104.5t179 221.5z" />
<glyph unicode="&#x120;" horiz-adv-x="1409" d="M1016 1880l-33 -158h-41l33 158h41zM924 1423q-164 0 -311 -72.5t-247.5 -188.5t-159.5 -264t-59 -298q0 -114 34.5 -217.5t96 -181.5t154.5 -124t203 -46q262 0 547 278l73 342h-323l8 41h365l-148 -692h-41l53 248q-133 -128 -274.5 -193t-278.5 -65q-122 0 -221 52 t-161 138.5t-95 194.5t-33 225q0 163 63.5 320t171 277t261 193.5t322.5 73.5q187 0 297.5 -85.5t146.5 -231.5l-41 -12q-84 288 -403 288z" />
<glyph unicode="&#x121;" horiz-adv-x="1179" d="M723 1337l33 158h41l-33 -158h-41zM-45 -203l41 13q34 -115 128 -170.5t224 -55.5q113 0 211.5 41t172 126.5t99.5 203.5l58 266q-87 -107 -210 -174t-237 -67q-87 0 -160 38t-121 101t-74 144t-26 169q0 116 49.5 233.5t130 208.5t192 148t226.5 57q233 0 357 -264 l53 248h39l-236 -1108q-21 -102 -75 -182.5t-127.5 -129.5t-157.5 -74.5t-172 -25.5q-171 0 -260.5 65.5t-124.5 188.5zM915 346l82 383q-20 133 -118.5 221t-227.5 88q-112 0 -216 -56.5t-175.5 -144t-114.5 -194.5t-43 -207q0 -112 42.5 -206.5t124 -152t184.5 -57.5 q139 0 283 104.5t179 221.5z" />
<glyph unicode="&#x122;" horiz-adv-x="1409" d="M924 1423q-164 0 -311 -72.5t-247.5 -188.5t-159.5 -264t-59 -298q0 -114 34.5 -217.5t96 -181.5t154.5 -124t203 -46q262 0 547 278l73 342h-323l8 41h365l-148 -692h-41l53 248q-133 -128 -274.5 -193t-278.5 -65q-122 0 -221 52t-161 138.5t-95 194.5t-33 225 q0 163 63.5 320t171 277t261 193.5t322.5 73.5q187 0 297.5 -85.5t146.5 -231.5l-41 -12q-84 288 -403 288zM543 -223l26 121h52l-25 -121l-51 -119h-29l45 119h-18z" />
<glyph unicode="&#x123;" horiz-adv-x="1179" d="M788 1495l-34 -119h8l-25 -121h-26l26 121l37 119h14zM-45 -203l41 13q34 -115 128 -170.5t224 -55.5q113 0 211.5 41t172 126.5t99.5 203.5l58 266q-87 -107 -210 -174t-237 -67q-87 0 -160 38t-121 101t-74 144t-26 169q0 116 49.5 233.5t130 208.5t192 148t226.5 57 q233 0 357 -264l53 248h39l-236 -1108q-21 -102 -75 -182.5t-127.5 -129.5t-157.5 -74.5t-172 -25.5q-171 0 -260.5 65.5t-124.5 188.5zM915 346l82 383q-20 133 -118.5 221t-227.5 88q-112 0 -216 -56.5t-175.5 -144t-114.5 -194.5t-43 -207q0 -112 42.5 -206.5t124 -152 t184.5 -57.5q139 0 283 104.5t179 221.5z" />
<glyph unicode="&#x124;" horiz-adv-x="1435" d="M770 1675l213 152h33l149 -152l-37 -24l-139 129l-192 -129zM377 1454h41l-148 -690h957l147 690h41l-309 -1454h-41l154 723h-957l-153 -723h-41z" />
<glyph unicode="&#x125;" horiz-adv-x="1105" d="M598 1675l213 152h33l149 -152l-37 -24l-139 129l-192 -129zM352 1495h41l-149 -707q91 132 223 211.5t262 79.5q242 0 242 -284q0 -84 -25 -203l-125 -592h-41l125 592q25 132 25 194q0 124 -53 188t-156 64q-141 0 -285.5 -105.5t-216.5 -260.5l-143 -672h-41z" />
<glyph unicode="&#x126;" horiz-adv-x="1452" d="M1460 1176l-8 -41h-96l-242 -1135h-41l154 723h-957l-153 -723h-41l241 1135h-98l10 41h97l59 278h41l-59 -278h956l59 278h41l-59 -278h96zM1235 764l80 371h-957l-79 -371h956z" />
<glyph unicode="&#x127;" horiz-adv-x="1105" d="M729 1079q242 0 242 -284q0 -84 -25 -203l-125 -592h-41l125 592q25 132 25 194q0 124 -53 188t-156 64q-141 0 -285.5 -105.5t-216.5 -260.5l-143 -672h-41l274 1296h-141l8 41h143l33 158h41l-33 -158h244l-8 -41h-246l-106 -508q91 132 223 211.5t262 79.5z" />
<glyph unicode="&#x128;" horiz-adv-x="438" d="M344 1821q-29 0 -53 -13t-38 -33t-20.5 -32t-9.5 -21h-39q1 6 6 19t18.5 34.5t31.5 39.5t49 31.5t67 13.5q50 0 114 -39t114 -39q30 0 54.5 9.5t38.5 22t24 28.5t13.5 24.5t4.5 13.5h39q-2 -8 -7.5 -21t-20 -34.5t-34 -38.5t-52.5 -30t-73 -13q-39 0 -73 12t-54 27 t-47 27t-53 12zM377 1452h41l-309 -1452h-41z" />
<glyph unicode="&#x129;" horiz-adv-x="372" d="M397 1309q-29 0 -53 -13t-38 -33t-20.5 -32t-9.5 -21h-38q1 6 6 19t18.5 34.5t31.5 39.5t49 31.5t67 13.5q50 0 113.5 -39t113.5 -39q30 0 54.5 9.5t38.5 22t24 28.5t13.5 24.5t4.5 13.5h39q-3 -12 -12 -30t-29 -44.5t-58 -44.5t-87 -18t-89 19.5t-73.5 39t-65.5 19.5z M260 1063h41l-225 -1063h-41z" />
<glyph unicode="&#x12a;" horiz-adv-x="438" d="M197 1790l8 41h545l-9 -41h-544zM377 1452h41l-309 -1452h-41z" />
<glyph unicode="&#x12b;" horiz-adv-x="372" d="M84 1405l8 41h545l-8 -41h-545zM260 1063h41l-225 -1063h-41z" />
<glyph unicode="&#x12c;" horiz-adv-x="438" d="M598 1880h37q-13 -63 -67 -110.5t-111 -47.5q-51 0 -84 36.5t-33 90.5q0 11 4 31h39q-2 -8 -2 -22q0 -41 23.5 -71t58.5 -30q40 0 80 36t55 87zM377 1452h41l-309 -1452h-41z" />
<glyph unicode="&#x12d;" horiz-adv-x="372" d="M485 1495h37q-13 -63 -67 -110.5t-111 -47.5q-51 0 -84 36.5t-33 90.5q0 11 4 31h39q-2 -8 -2 -22q0 -41 23.5 -71t58.5 -30q40 0 80 36t55 87zM260 1063h41l-225 -1063h-41z" />
<glyph unicode="&#x12e;" horiz-adv-x="438" d="M109 0q-90 -76 -125 -124t-35 -93q0 -30 20.5 -49.5t69.5 -34.5l-27 -35q-98 25 -98 105q0 54 37 108t119 129l307 1446h41z" />
<glyph unicode="&#x12f;" horiz-adv-x="372" d="M352 1495h41l-33 -158h-41zM37 6l223 1057h41l-225 -1063q-90 -76 -125 -124t-35 -93q0 -30 20.5 -49.5t69.5 -34.5l-26 -35q-99 25 -99 105q0 54 37 108t119 129z" />
<glyph unicode="&#x130;" horiz-adv-x="438" d="M434 1722l33 158h41l-33 -158h-41zM377 1452h41l-309 -1452h-41z" />
<glyph unicode="&#x131;" horiz-adv-x="372" d="M260 1063h41l-225 -1063h-41z" />
<glyph unicode="&#x134;" horiz-adv-x="937" d="M772 1669l213 152h33l149 -152l-37 -24l-139 129l-192 -129zM-66 68l29 32q107 -86 270 -86q54 0 100.5 10.5t84.5 28t71.5 48t59 63.5t49.5 82t42 95.5t36 112t32 124t31 137.5l158 737h41l-158 -737q-18 -86 -32.5 -147.5t-34 -131.5t-38.5 -118.5t-44.5 -100 t-53.5 -85.5t-64.5 -66t-79 -50t-95 -28.5t-113.5 -10.5q-94 0 -161.5 23t-129.5 68z" />
<glyph unicode="&#x135;" horiz-adv-x="372" d="M154 1284l213 152h32l150 -152l-37 -24l-139 129l-193 -129zM-438 -279l37 25q46 -53 149 -53q82 0 165.5 69t104.5 164l242 1137h41l-242 -1137q-25 -115 -123 -194.5t-194 -79.5q-129 0 -180 69z" />
<glyph unicode="&#x136;" horiz-adv-x="1210" d="M377 1452h41l-201 -942l1077 944h60l-725 -635l442 -819h-49l-426 793l-391 -340l-96 -453h-41zM418 -342l45 119h-19l27 121h51l-24 -121l-52 -119h-28z" />
<glyph unicode="&#x137;" horiz-adv-x="1067" d="M1047 872q0 -135 -124.5 -236.5t-338.5 -139.5l245 -496h-49l-254 522q230 44 352.5 133t122.5 211q0 86 -58 134.5t-161 48.5q-134 0 -273 -100t-298 -312l-135 -637h-41l317 1495h41l-170 -799q132 193 277 292t288 99q122 0 190.5 -57t68.5 -158zM340 -223l27 121h51 l-25 -121l-51 -119h-29l45 119h-18z" />
<glyph unicode="&#x138;" horiz-adv-x="991" d="M260 1063h41l-139 -662l825 658h55l-528 -422l313 -637h-49l-301 608l-327 -262l-74 -346h-41z" />
<glyph unicode="&#x139;" horiz-adv-x="1130" d="M440 1712l-26 25l155 149h68zM377 1454h41l-301 -1413h866l-8 -41h-907z" />
<glyph unicode="&#x13a;" horiz-adv-x="458" d="M428 1753l-27 25l156 149h68zM74 115q0 27 4 43l284 1337h41l-284 -1337q-4 -24 -4 -33q0 -46 27.5 -71t78.5 -25q48 0 111 18l6 -33q-74 -24 -141 -24q-57 0 -90 34t-33 91z" />
<glyph unicode="&#x13b;" horiz-adv-x="1130" d="M377 1454h41l-301 -1413h866l-8 -41h-907zM422 -342l45 119h-18l26 121h51l-24 -121l-51 -119h-29z" />
<glyph unicode="&#x13c;" horiz-adv-x="458" d="M74 115q0 27 4 43l284 1337h41l-284 -1337q-4 -24 -4 -33q0 -46 27.5 -71t78.5 -25q48 0 111 18l6 -33q-74 -24 -141 -24q-57 0 -90 34t-33 91zM78 -342l45 119h-19l27 121h51l-24 -121l-52 -119h-28z" />
<glyph unicode="&#x13d;" horiz-adv-x="1130" d="M940 1346l156 149h67l-196 -174zM377 1454h41l-301 -1413h866l-8 -41h-907z" />
<glyph unicode="&#x13e;" horiz-adv-x="458" d="M74 115q0 27 4 43l284 1337h41l-284 -1337q-4 -24 -4 -33q0 -46 27.5 -71t78.5 -25q48 0 111 18l6 -33q-74 -24 -141 -24q-57 0 -90 34t-33 91zM459 1346l155 149h68l-197 -174z" />
<glyph unicode="&#x13f;" horiz-adv-x="1130" d="M377 1454h41l-301 -1413h866l-8 -41h-907zM684 737l37 170h39l-35 -170h-41z" />
<glyph unicode="&#x140;" horiz-adv-x="489" d="M74 115q0 27 4 43l284 1337h41l-284 -1337q-4 -24 -4 -33q0 -46 27.5 -71t78.5 -25q48 0 111 18l6 -33q-74 -24 -141 -24q-57 0 -90 34t-33 91zM399 512l37 170h39l-35 -170h-41z" />
<glyph unicode="&#x141;" horiz-adv-x="1146" d="M117 41h866l-8 -41h-907l120 565l-131 -112l-20 30l164 140l176 831h41l-168 -788l467 401l20 -31l-499 -430z" />
<glyph unicode="&#x142;" horiz-adv-x="487" d="M252 29q43 0 110 18l7 -33q-74 -24 -142 -24q-58 0 -90.5 33t-32.5 90q0 25 5 45l131 612l-174 -147l-23 28l209 178l141 666h41l-133 -623l219 189l25 -29l-256 -219l-139 -655q-5 -30 -5 -33q0 -46 28 -71t79 -25z" />
<glyph unicode="&#x143;" horiz-adv-x="1521" d="M1006 1706l-27 25l156 149h67zM377 1454h31l757 -1395l295 1393h41l-309 -1452h-45l-746 1374l-292 -1374h-41z" />
<glyph unicode="&#x144;" horiz-adv-x="1105" d="M717 1321l-27 25l156 149h67zM260 1063h41l-57 -275q89 129 230 210t276 81q114 0 169.5 -63t55.5 -195q0 -87 -29 -229l-125 -592h-41l125 592q27 129 27 219q0 116 -47 171.5t-144 55.5q-146 0 -296.5 -105t-225.5 -261l-143 -672h-41z" />
<glyph unicode="&#x145;" horiz-adv-x="1521" d="M377 1454h31l757 -1395l295 1393h41l-309 -1452h-45l-746 1374l-292 -1374h-41zM549 -342l45 119h-19l27 121h51l-24 -121l-51 -119h-29z" />
<glyph unicode="&#x146;" horiz-adv-x="1105" d="M260 1063h41l-57 -275q89 129 230 210t276 81q114 0 169.5 -63t55.5 -195q0 -87 -29 -229l-125 -592h-41l125 592q27 129 27 219q0 116 -47 171.5t-144 55.5q-146 0 -296.5 -105t-225.5 -261l-143 -672h-41zM344 -342l45 119h-18l26 121h52l-25 -121l-51 -119h-29z" />
<glyph unicode="&#x147;" horiz-adv-x="1521" d="M836 1855l36 25l140 -129l192 129l27 -25l-213 -151h-33zM377 1454h31l757 -1395l295 1393h41l-309 -1452h-45l-746 1374l-292 -1374h-41z" />
<glyph unicode="&#x148;" horiz-adv-x="1105" d="M547 1470l37 25l139 -129l192 129l27 -25l-213 -151h-33zM260 1063h41l-57 -275q89 129 230 210t276 81q114 0 169.5 -63t55.5 -195q0 -87 -29 -229l-125 -592h-41l125 592q27 129 27 219q0 116 -47 171.5t-144 55.5q-146 0 -296.5 -105t-225.5 -261l-143 -672h-41z" />
<glyph unicode="&#x14a;" horiz-adv-x="1523" d="M678 -279l37 25q48 -53 151 -53q83 0 166.5 69t104.5 164l14 66l-750 1382l-292 -1374h-41l309 1454h31l755 -1395l297 1393h41l-323 -1526q-25 -115 -124 -194.5t-196 -79.5q-127 0 -180 69z" />
<glyph unicode="&#x14b;" horiz-adv-x="1105" d="M307 -279l37 25q46 -53 150 -53q82 0 165.5 69t104.5 164l141 666q27 129 27 219q0 116 -47 171.5t-144 55.5q-146 0 -296.5 -105t-225.5 -261l-143 -672h-41l225 1063h41l-57 -275q89 129 230 210t276 81q114 0 169.5 -63t55.5 -195q0 -87 -29 -229l-141 -666 q-25 -115 -123.5 -194.5t-194.5 -79.5q-129 0 -180 69z" />
<glyph unicode="&#x14c;" horiz-adv-x="1486" d="M743 1790l9 41h544l-8 -41h-545zM106 582q0 174 65 337t173 282t256 191t307 72q107 0 194.5 -33t147 -89.5t100.5 -133t59.5 -162t18.5 -178.5q0 -173 -65 -335t-173 -281t-256.5 -190.5t-307.5 -71.5q-132 0 -234 49t-163 133t-91.5 188t-30.5 222zM1386 868 q0 89 -17.5 169.5t-55 151.5t-93 122.5t-137 81.5t-180.5 30q-124 0 -241 -46t-209 -126.5t-161.5 -185.5t-107 -229.5t-37.5 -251.5q0 -112 28.5 -209.5t85.5 -175.5t152 -123t218 -45q156 0 298 71.5t241 188t157.5 268.5t58.5 309z" />
<glyph unicode="&#x14d;" horiz-adv-x="1148" d="M469 1405l8 41h545l-8 -41h-545zM61 420q0 135 51.5 258.5t135.5 210.5t194 138.5t224 51.5q124 0 212.5 -61t130.5 -159.5t42 -223.5q0 -133 -50.5 -255.5t-133 -209.5t-192.5 -138.5t-226 -51.5q-126 0 -215.5 60.5t-131 158t-41.5 221.5zM1010 627q0 177 -92 294 t-261 117q-105 0 -206 -48t-178 -129t-124 -195.5t-47 -239.5q0 -177 91.5 -291.5t261.5 -114.5q106 0 207 47.5t177.5 128t123.5 194t47 237.5z" />
<glyph unicode="&#x14e;" horiz-adv-x="1486" d="M1145 1880h37q-13 -63 -67 -110.5t-111 -47.5q-51 0 -84 36.5t-33 90.5q0 11 4 31h39q-2 -8 -2 -22q0 -41 23.5 -71t58.5 -30q40 0 80 36t55 87zM106 582q0 174 65 337t173 282t256 191t307 72q107 0 194.5 -33t147 -89.5t100.5 -133t59.5 -162t18.5 -178.5 q0 -173 -65 -335t-173 -281t-256.5 -190.5t-307.5 -71.5q-132 0 -234 49t-163 133t-91.5 188t-30.5 222zM1386 868q0 89 -17.5 169.5t-55 151.5t-93 122.5t-137 81.5t-180.5 30q-124 0 -241 -46t-209 -126.5t-161.5 -185.5t-107 -229.5t-37.5 -251.5q0 -112 28.5 -209.5 t85.5 -175.5t152 -123t218 -45q156 0 298 71.5t241 188t157.5 268.5t58.5 309z" />
<glyph unicode="&#x14f;" horiz-adv-x="1148" d="M870 1495h37q-13 -63 -67 -110.5t-111 -47.5q-51 0 -84 36.5t-33 90.5q0 11 4 31h39q-2 -8 -2 -22q0 -41 23.5 -71t58.5 -30q40 0 80 36t55 87zM61 420q0 135 51.5 258.5t135.5 210.5t194 138.5t224 51.5q124 0 212.5 -61t130.5 -159.5t42 -223.5q0 -133 -50.5 -255.5 t-133 -209.5t-192.5 -138.5t-226 -51.5q-126 0 -215.5 60.5t-131 158t-41.5 221.5zM1010 627q0 177 -92 294t-261 117q-105 0 -206 -48t-178 -129t-124 -195.5t-47 -239.5q0 -177 91.5 -291.5t261.5 -114.5q106 0 207 47.5t177.5 128t123.5 194t47 237.5z" />
<glyph unicode="&#x150;" horiz-adv-x="1486" d="M866 1706l-26 25l155 149h68zM1063 1706l-27 25l156 149h68zM106 582q0 174 65 337t173 282t256 191t307 72q107 0 194.5 -33t147 -89.5t100.5 -133t59.5 -162t18.5 -178.5q0 -173 -65 -335t-173 -281t-256.5 -190.5t-307.5 -71.5q-132 0 -234 49t-163 133t-91.5 188 t-30.5 222zM1386 868q0 89 -17.5 169.5t-55 151.5t-93 122.5t-137 81.5t-180.5 30q-124 0 -241 -46t-209 -126.5t-161.5 -185.5t-107 -229.5t-37.5 -251.5q0 -112 28.5 -209.5t85.5 -175.5t152 -123t218 -45q156 0 298 71.5t241 188t157.5 268.5t58.5 309z" />
<glyph unicode="&#x151;" horiz-adv-x="1148" d="M592 1321l-27 25l156 149h67zM788 1321l-26 25l156 149h67zM61 420q0 135 51.5 258.5t135.5 210.5t194 138.5t224 51.5q124 0 212.5 -61t130.5 -159.5t42 -223.5q0 -133 -50.5 -255.5t-133 -209.5t-192.5 -138.5t-226 -51.5q-126 0 -215.5 60.5t-131 158t-41.5 221.5z M1010 627q0 177 -92 294t-261 117q-105 0 -206 -48t-178 -129t-124 -195.5t-47 -239.5q0 -177 91.5 -291.5t261.5 -114.5q106 0 207 47.5t177.5 128t123.5 194t47 237.5z" />
<glyph unicode="&#x152;" horiz-adv-x="2353" d="M106 590q0 130 45 260.5t124.5 239.5t181.5 194t224.5 132.5t244.5 47.5q142 0 251 -67.5t169 -177t75 -246.5l103 481h891l-11 -41h-848l-137 -649h744l-11 -41h-743l-143 -682h864l-8 -41h-908l103 479q-114 -212 -306 -350.5t-395 -138.5q-95 0 -177.5 32.5t-143 89 t-103.5 132t-64.5 164t-21.5 182.5zM1386 858q0 152 -55.5 279.5t-164 206.5t-248.5 79q-120 0 -237 -47.5t-212 -130.5t-168 -187.5t-113.5 -225.5t-40.5 -238q0 -152 55.5 -279t165 -205.5t253.5 -78.5q149 0 291.5 74.5t245.5 191.5t165.5 266.5t62.5 294.5z" />
<glyph unicode="&#x153;" horiz-adv-x="2048" d="M61 418q0 129 53.5 252t139 212t198 143t226.5 54q160 0 262.5 -110t106.5 -289q79 184 226.5 291.5t319.5 107.5q177 0 276 -121t99 -333q0 -89 -12 -117h-922q-6 -43 -6 -82q0 -175 103 -290.5t266 -115.5q121 0 235 62.5t174 161.5l37 -11q-67 -110 -197.5 -181.5 t-261.5 -71.5q-163 0 -275.5 113t-123.5 286q-85 -180 -236 -289.5t-313 -109.5q-166 0 -270.5 125t-104.5 313zM1010 629q0 175 -95.5 292t-246.5 117q-103 0 -206 -50.5t-182 -133.5t-128.5 -197t-49.5 -233q0 -173 95.5 -288.5t248.5 -115.5q104 0 206.5 50t181 132 t127.5 195t49 232zM1923 549q8 66 8 98q0 174 -95 282.5t-251 108.5q-180 0 -333.5 -139t-209.5 -350h881z" />
<glyph unicode="&#x154;" horiz-adv-x="1261" d="M860 1712l-26 25l155 149h68zM68 0l309 1454h563q138 0 221.5 -108t83.5 -254q0 -123 -61.5 -240.5t-167 -194.5t-225.5 -86l227 -571h-49l-228 571h-512l-120 -571h-41zM774 612q115 0 216 72.5t157.5 181t56.5 219.5q0 135 -76.5 231.5t-197.5 96.5h-520l-170 -801h534 z" />
<glyph unicode="&#x155;" horiz-adv-x="649" d="M440 1321l-26 25l155 149h68zM260 1063h41l-57 -275q81 122 189.5 192t221.5 81q12 2 39 2l-8 -41q-145 -6 -269.5 -99t-197.5 -251l-143 -672h-41z" />
<glyph unicode="&#x156;" horiz-adv-x="1261" d="M68 0l309 1454h563q138 0 221.5 -108t83.5 -254q0 -123 -61.5 -240.5t-167 -194.5t-225.5 -86l227 -571h-49l-228 571h-512l-120 -571h-41zM774 612q115 0 216 72.5t157.5 181t56.5 219.5q0 135 -76.5 231.5t-197.5 96.5h-520l-170 -801h534zM406 -342l45 119h-19l27 121 h51l-25 -121l-51 -119h-28z" />
<glyph unicode="&#x157;" horiz-adv-x="649" d="M260 1063h41l-57 -275q81 122 189.5 192t221.5 81q12 2 39 2l-8 -41q-145 -6 -269.5 -99t-197.5 -251l-143 -672h-41zM-37 -342l45 119h-18l26 121h52l-25 -121l-51 -119h-29z" />
<glyph unicode="&#x158;" horiz-adv-x="1261" d="M690 1862l37 24l139 -129l193 129l26 -24l-213 -152h-32zM68 0l309 1454h563q138 0 221.5 -108t83.5 -254q0 -123 -61.5 -240.5t-167 -194.5t-225.5 -86l227 -571h-49l-228 571h-512l-120 -571h-41zM774 612q115 0 216 72.5t157.5 181t56.5 219.5q0 135 -76.5 231.5 t-197.5 96.5h-520l-170 -801h534z" />
<glyph unicode="&#x159;" horiz-adv-x="649" d="M270 1470l37 25l139 -129l193 129l27 -25l-213 -151h-33zM260 1063h41l-57 -275q81 122 189.5 192t221.5 81q12 2 39 2l-8 -41q-145 -6 -269.5 -99t-197.5 -251l-143 -672h-41z" />
<glyph unicode="&#x15a;" horiz-adv-x="1185" d="M848 1751l-27 25l156 149h67zM-2 215l33 27q94 -108 204 -161.5t273 -53.5q232 0 371 101.5t139 279.5q0 47 -10 83.5t-34.5 65t-52 48.5t-78 39t-97 32.5t-121.5 32.5q-192 46 -254 73q-106 45 -137 128q-17 44 -17 106q0 200 154 324t403 124q137 0 232 -42t161 -132 l-32 -28q-65 89 -149 126t-208 37q-123 0 -223 -32.5t-163.5 -88t-97.5 -128.5t-34 -156q0 -52 16.5 -90t38 -62t78 -47t100 -35.5t140.5 -37.5q63 -16 102.5 -27t86.5 -26t75 -28.5t58.5 -32.5t47.5 -40t31.5 -48t20.5 -60t6 -74q0 -105 -42 -186.5t-118 -132.5t-177.5 -77 t-223.5 -26q-169 0 -285.5 53t-216.5 172z" />
<glyph unicode="&#x15b;" horiz-adv-x="921" d="M614 1321l-26 25l155 149h68zM-25 152l35 26q62 -81 140 -119.5t184 -38.5q170 0 282.5 82t112.5 215q0 36 -14.5 64t-36.5 47.5t-64 37.5t-82.5 30.5t-105.5 29.5q-63 16 -98.5 26.5t-75.5 27.5t-59.5 36t-32.5 47.5t-13 65.5q0 86 34.5 154.5t94.5 110.5t136 63.5 t163 21.5q119 0 197.5 -42.5t99.5 -110.5l-38 -17q-23 61 -99 95t-176 34q-67 0 -130 -17.5t-117.5 -51.5t-88 -93t-33.5 -135q0 -31 11 -54.5t27.5 -39t52 -30.5t67 -25t88.5 -25q46 -12 73.5 -19.5t64 -19t58.5 -21.5t47.5 -23.5t40 -28.5t28 -33.5t19 -41t5.5 -48.5 q0 -167 -124 -259.5t-322 -92.5q-239 0 -351 172z" />
<glyph unicode="&#x15c;" horiz-adv-x="1185" d="M657 1714l213 152h33l150 -152l-37 -24l-139 129l-193 -129zM-2 215l33 27q94 -108 204 -161.5t273 -53.5q232 0 371 101.5t139 279.5q0 47 -10 83.5t-34.5 65t-52 48.5t-78 39t-97 32.5t-121.5 32.5q-192 46 -254 73q-106 45 -137 128q-17 44 -17 106q0 200 154 324 t403 124q137 0 232 -42t161 -132l-32 -28q-65 89 -149 126t-208 37q-123 0 -223 -32.5t-163.5 -88t-97.5 -128.5t-34 -156q0 -52 16.5 -90t38 -62t78 -47t100 -35.5t140.5 -37.5q63 -16 102.5 -27t86.5 -26t75 -28.5t58.5 -32.5t47.5 -40t31.5 -48t20.5 -60t6 -74 q0 -105 -42 -186.5t-118 -132.5t-177.5 -77t-223.5 -26q-169 0 -285.5 53t-216.5 172z" />
<glyph unicode="&#x15d;" horiz-adv-x="921" d="M424 1284l213 152h33l149 -152l-37 -24l-139 129l-192 -129zM-25 152l35 26q62 -81 140 -119.5t184 -38.5q170 0 282.5 82t112.5 215q0 36 -14.5 64t-36.5 47.5t-64 37.5t-82.5 30.5t-105.5 29.5q-63 16 -98.5 26.5t-75.5 27.5t-59.5 36t-32.5 47.5t-13 65.5 q0 86 34.5 154.5t94.5 110.5t136 63.5t163 21.5q119 0 197.5 -42.5t99.5 -110.5l-38 -17q-23 61 -99 95t-176 34q-67 0 -130 -17.5t-117.5 -51.5t-88 -93t-33.5 -135q0 -31 11 -54.5t27.5 -39t52 -30.5t67 -25t88.5 -25q46 -12 73.5 -19.5t64 -19t58.5 -21.5t47.5 -23.5 t40 -28.5t28 -33.5t19 -41t5.5 -48.5q0 -167 -124 -259.5t-322 -92.5q-239 0 -351 172z" />
<glyph unicode="&#x15e;" horiz-adv-x="1185" d="M774 1464q137 0 232 -42t161 -132l-32 -28q-65 89 -149 126t-208 37q-123 0 -223 -32.5t-163.5 -88t-97.5 -128.5t-34 -156q0 -52 16.5 -90t38 -62t78 -47t100 -35.5t140.5 -37.5q63 -16 102.5 -27t86.5 -26t75 -28.5t58.5 -32.5t47.5 -40t31.5 -48t20.5 -60t6 -74 q0 -133 -68 -227.5t-182.5 -141.5t-267.5 -53q69 -63 69 -140q0 -92 -59 -139t-154 -47q-109 0 -186 51l23 31q47 -24 81.5 -34.5t83.5 -10.5q78 0 126 41.5t48 101.5q0 79 -92 146q-162 3 -275.5 56.5t-209.5 168.5l33 27q94 -108 204 -161.5t273 -53.5q232 0 371 101.5 t139 279.5q0 47 -10 83.5t-34.5 65t-52 48.5t-78 39t-97 32.5t-121.5 32.5q-192 46 -254 73q-106 45 -137 128q-17 44 -17 106q0 200 154 324t403 124z" />
<glyph unicode="&#x15f;" horiz-adv-x="921" d="M575 1079q119 0 197.5 -42.5t99.5 -110.5l-38 -17q-23 61 -99 95t-176 34q-67 0 -130 -17.5t-117.5 -51.5t-88 -93t-33.5 -135q0 -31 11 -54.5t27.5 -39t52 -30.5t67 -25t88.5 -25q46 -12 73.5 -19.5t64 -19t58.5 -21.5t47.5 -23.5t40 -28.5t28 -33.5t19 -41t5.5 -48.5 q0 -148 -98 -237.5t-262 -110.5q63 -57 63 -134q0 -92 -59 -139t-154 -47q-109 0 -186 51l22 31q46 -24 81.5 -34.5t84.5 -10.5q78 0 126 41.5t48 101.5q0 75 -80 136h-32q-239 0 -351 172l35 26q62 -81 140 -119.5t184 -38.5q170 0 282.5 82t112.5 215q0 36 -14.5 64 t-36.5 47.5t-64 37.5t-82.5 30.5t-105.5 29.5q-63 16 -98.5 26.5t-75.5 27.5t-59.5 36t-32.5 47.5t-13 65.5q0 86 34.5 154.5t94.5 110.5t136 63.5t163 21.5z" />
<glyph unicode="&#x160;" horiz-adv-x="1185" d="M678 1901l37 24l139 -129l193 129l26 -24l-213 -152h-33zM-2 215l33 27q94 -108 204 -161.5t273 -53.5q232 0 371 101.5t139 279.5q0 47 -10 83.5t-34.5 65t-52 48.5t-78 39t-97 32.5t-121.5 32.5q-192 46 -254 73q-106 45 -137 128q-17 44 -17 106q0 200 154 324 t403 124q137 0 232 -42t161 -132l-32 -28q-65 89 -149 126t-208 37q-123 0 -223 -32.5t-163.5 -88t-97.5 -128.5t-34 -156q0 -52 16.5 -90t38 -62t78 -47t100 -35.5t140.5 -37.5q63 -16 102.5 -27t86.5 -26t75 -28.5t58.5 -32.5t47.5 -40t31.5 -48t20.5 -60t6 -74 q0 -105 -42 -186.5t-118 -132.5t-177.5 -77t-223.5 -26q-169 0 -285.5 53t-216.5 172z" />
<glyph unicode="&#x161;" horiz-adv-x="921" d="M444 1470l37 25l140 -129l192 129l27 -25l-213 -151h-33zM-25 152l35 26q62 -81 140 -119.5t184 -38.5q170 0 282.5 82t112.5 215q0 36 -14.5 64t-36.5 47.5t-64 37.5t-82.5 30.5t-105.5 29.5q-63 16 -98.5 26.5t-75.5 27.5t-59.5 36t-32.5 47.5t-13 65.5 q0 86 34.5 154.5t94.5 110.5t136 63.5t163 21.5q119 0 197.5 -42.5t99.5 -110.5l-38 -17q-23 61 -99 95t-176 34q-67 0 -130 -17.5t-117.5 -51.5t-88 -93t-33.5 -135q0 -31 11 -54.5t27.5 -39t52 -30.5t67 -25t88.5 -25q46 -12 73.5 -19.5t64 -19t58.5 -21.5t47.5 -23.5 t40 -28.5t28 -33.5t19 -41t5.5 -48.5q0 -167 -124 -259.5t-322 -92.5q-239 0 -351 172z" />
<glyph unicode="&#x162;" horiz-adv-x="1175" d="M209 1454h1098l-9 -41h-528l-297 -1397q98 -79 98 -166q0 -92 -59 -139t-154 -47q-109 0 -186 51l23 31q47 -24 81.5 -34.5t83.5 -10.5q78 0 126.5 41.5t48.5 101.5q0 45 -26.5 82t-80.5 74l301 1413h-528z" />
<glyph unicode="&#x163;" horiz-adv-x="575" d="M328 1022l-164 -764q-23 -109 -23 -123q0 -49 32.5 -76.5t80.5 -27.5q39 0 82.5 13t63 22.5t28.5 15.5l14 -33q-3 -3 -20 -12.5t-54.5 -23.5t-74.5 -19q72 -66 72 -144q0 -92 -59 -139t-154 -47q-110 0 -187 51l23 31q46 -24 81.5 -34.5t84.5 -10.5q78 0 126 41.5 t48 101.5q0 79 -92 146q-61 3 -99.5 38t-38.5 91q0 11 4 35l185 868h-146l9 41h147l78 371h41l-78 -371h242l-9 -41h-243z" />
<glyph unicode="&#x164;" horiz-adv-x="1175" d="M631 1855l37 25l139 -129l192 129l27 -25l-213 -151h-33zM729 1413h-528l8 41h1098l-9 -41h-528l-301 -1413h-41z" />
<glyph unicode="&#x165;" horiz-adv-x="575" d="M532 1346l156 149h68l-197 -174zM98 119q0 11 4 35l185 868h-146l9 41h147l78 371h41l-78 -371h242l-9 -41h-243l-164 -764q-23 -109 -23 -123q0 -49 32.5 -76.5t80.5 -27.5q39 0 82.5 13t63 22.5t28.5 15.5l14 -33q-4 -4 -27.5 -16.5t-73.5 -27.5t-97 -15 q-64 0 -105 35.5t-41 93.5z" />
<glyph unicode="&#x166;" horiz-adv-x="1261" d="M1343 1413h-528l-115 -545h469l-8 -41h-471l-174 -827h-41l174 827h-469l8 41h471l115 545h-528l8 41h1100z" />
<glyph unicode="&#x167;" horiz-adv-x="579" d="M571 1022h-243l-70 -328h234l-9 -41h-235l-84 -395q-23 -109 -23 -123q0 -49 32.5 -76.5t80.5 -27.5q39 0 82.5 13t63 22.5t28.5 15.5l14 -33q-4 -4 -27.5 -16.5t-73.5 -27.5t-97 -15q-64 0 -105 35.5t-41 93.5q0 11 4 35l107 499h-156l8 41h156l70 328h-146l9 41h147 l78 371h41l-78 -371h242z" />
<glyph unicode="&#x168;" horiz-adv-x="1480" d="M860 1821q-29 0 -53 -13t-38 -33t-20.5 -32t-9.5 -21h-39q1 6 6 19t18.5 34.5t31.5 39.5t49 31.5t67 13.5q50 0 114 -39t114 -39q30 0 54.5 9.5t38.5 22t24 28.5t13.5 24.5t4.5 13.5h39q-2 -8 -7.5 -21t-20 -34.5t-34 -38.5t-52.5 -30t-73 -13q-39 0 -73 12t-54 27 t-47 27t-53 12zM170 461q0 111 31 266l153 727h41l-153 -727q-31 -152 -31 -260q0 -436 399 -436q120 0 223 41t176 107.5t131 159t93 187.5t57 201l154 727h41l-154 -727q-26 -122 -66 -227.5t-102 -201t-140 -162.5t-183.5 -106.5t-229.5 -39.5q-97 0 -173 24.5 t-125.5 66.5t-82 103t-46 129t-13.5 148z" />
<glyph unicode="&#x169;" horiz-adv-x="1128" d="M686 1436q-29 0 -53 -13t-38 -33t-20.5 -32t-9.5 -21h-39q1 6 6 19t18.5 34.5t31.5 39.5t49 31.5t67 13.5q50 0 114 -39t114 -39q30 0 54.5 9.5t38.5 22t24 28.5t13.5 24.5t4.5 13.5h39q-2 -8 -7.5 -21t-20 -34.5t-34 -38.5t-52.5 -30t-73 -13q-39 0 -73 12t-54 27 t-47 27t-53 12zM96 264q0 84 25 203l127 596h41l-127 -596q-25 -119 -25 -199q0 -248 215 -248q146 0 292 103.5t224 263.5l144 676h41l-197 -926q-2 -13 -6 -29.5t-6 -26t-2 -11.5q0 -29 26 -29l-10 -41q-12 0 -24 4q-31 12 -31 55q0 14 41 211q-94 -133 -229.5 -211.5 t-272.5 -78.5q-246 0 -246 284z" />
<glyph unicode="&#x16a;" horiz-adv-x="1480" d="M713 1790l8 41h545l-9 -41h-544zM170 461q0 111 31 266l153 727h41l-153 -727q-31 -152 -31 -260q0 -436 399 -436q120 0 223 41t176 107.5t131 159t93 187.5t57 201l154 727h41l-154 -727q-26 -122 -66 -227.5t-102 -201t-140 -162.5t-183.5 -106.5t-229.5 -39.5 q-97 0 -173 24.5t-125.5 66.5t-82 103t-46 129t-13.5 148z" />
<glyph unicode="&#x16b;" horiz-adv-x="1128" d="M479 1405l8 41h545l-8 -41h-545zM96 264q0 84 25 203l127 596h41l-127 -596q-25 -119 -25 -199q0 -248 215 -248q146 0 292 103.5t224 263.5l144 676h41l-197 -926q-2 -13 -6 -29.5t-6 -26t-2 -11.5q0 -29 26 -29l-10 -41q-12 0 -24 4q-31 12 -31 55q0 14 41 211 q-94 -133 -229.5 -211.5t-272.5 -78.5q-246 0 -246 284z" />
<glyph unicode="&#x16c;" horiz-adv-x="1480" d="M1114 1880h37q-13 -63 -67 -110.5t-111 -47.5q-51 0 -84 36.5t-33 90.5q0 11 4 31h39q-2 -8 -2 -22q0 -41 23.5 -71t58.5 -30q40 0 80 36t55 87zM170 461q0 111 31 266l153 727h41l-153 -727q-31 -152 -31 -260q0 -436 399 -436q120 0 223 41t176 107.5t131 159t93 187.5 t57 201l154 727h41l-154 -727q-26 -122 -66 -227.5t-102 -201t-140 -162.5t-183.5 -106.5t-229.5 -39.5q-97 0 -173 24.5t-125.5 66.5t-82 103t-46 129t-13.5 148z" />
<glyph unicode="&#x16d;" horiz-adv-x="1128" d="M881 1495h37q-13 -63 -67.5 -110.5t-111.5 -47.5q-51 0 -83.5 36.5t-32.5 90.5q0 11 4 31h39q-2 -8 -2 -22q0 -41 23.5 -71t57.5 -30q40 0 80.5 36t55.5 87zM96 264q0 84 25 203l127 596h41l-127 -596q-25 -119 -25 -199q0 -248 215 -248q146 0 292 103.5t224 263.5 l144 676h41l-197 -926q-2 -13 -6 -29.5t-6 -26t-2 -11.5q0 -29 26 -29l-10 -41q-12 0 -24 4q-31 12 -31 55q0 14 41 211q-94 -133 -229.5 -211.5t-272.5 -78.5q-246 0 -246 284z" />
<glyph unicode="&#x16e;" horiz-adv-x="1480" d="M1004 1880q39 0 63.5 -27t24.5 -67q0 -56 -42.5 -97.5t-97.5 -41.5q-39 0 -63.5 27t-24.5 67q0 56 42.5 97.5t97.5 41.5zM897 1747q0 -30 17.5 -49t46.5 -19q35 0 67.5 30t32.5 71q0 30 -19 48.5t-47 18.5q-38 0 -68 -28.5t-30 -71.5zM170 461q0 111 31 266l153 727h41 l-153 -727q-31 -152 -31 -260q0 -436 399 -436q120 0 223 41t176 107.5t131 159t93 187.5t57 201l154 727h41l-154 -727q-26 -122 -66 -227.5t-102 -201t-140 -162.5t-183.5 -106.5t-229.5 -39.5q-97 0 -173 24.5t-125.5 66.5t-82 103t-46 129t-13.5 148z" />
<glyph unicode="&#x16f;" horiz-adv-x="1128" d="M770 1495q39 0 63.5 -27t24.5 -67q0 -56 -42 -97.5t-97 -41.5q-39 0 -63.5 27t-24.5 67q0 56 42 97.5t97 41.5zM664 1362q0 -30 17 -49t46 -19q35 0 67.5 30t32.5 71q0 30 -18.5 48.5t-46.5 18.5q-38 0 -68 -28.5t-30 -71.5zM96 264q0 84 25 203l127 596h41l-127 -596 q-25 -119 -25 -199q0 -248 215 -248q146 0 292 103.5t224 263.5l144 676h41l-197 -926q-2 -13 -6 -29.5t-6 -26t-2 -11.5q0 -29 26 -29l-10 -41q-12 0 -24 4q-31 12 -31 55q0 14 41 211q-94 -133 -229.5 -211.5t-272.5 -78.5q-246 0 -246 284z" />
<glyph unicode="&#x170;" horiz-adv-x="1480" d="M836 1706l-27 25l156 149h67zM1032 1706l-26 25l155 149h68zM170 461q0 111 31 266l153 727h41l-153 -727q-31 -152 -31 -260q0 -436 399 -436q120 0 223 41t176 107.5t131 159t93 187.5t57 201l154 727h41l-154 -727q-26 -122 -66 -227.5t-102 -201t-140 -162.5 t-183.5 -106.5t-229.5 -39.5q-97 0 -173 24.5t-125.5 66.5t-82 103t-46 129t-13.5 148z" />
<glyph unicode="&#x171;" horiz-adv-x="1128" d="M602 1321l-27 25l156 149h68zM799 1321l-27 25l156 149h67zM96 264q0 84 25 203l127 596h41l-127 -596q-25 -119 -25 -199q0 -248 215 -248q146 0 292 103.5t224 263.5l144 676h41l-197 -926q-2 -13 -6 -29.5t-6 -26t-2 -11.5q0 -29 26 -29l-10 -41q-12 0 -24 4 q-31 12 -31 55q0 14 41 211q-94 -133 -229.5 -211.5t-272.5 -78.5q-246 0 -246 284z" />
<glyph unicode="&#x172;" horiz-adv-x="1480" d="M1444 1454h41l-154 -727q-25 -117 -62.5 -218t-94.5 -193.5t-128.5 -160t-168 -111t-209.5 -52.5q-83 -71 -116.5 -118t-33.5 -91q0 -30 20.5 -49.5t69.5 -34.5l-26 -35q-99 25 -99 105q0 52 33.5 103.5t104.5 117.5h-11q-97 0 -173 24.5t-125.5 66.5t-82 103t-46 129 t-13.5 148q0 111 31 266l153 727h41l-153 -727q-31 -152 -31 -260q0 -436 399 -436q120 0 223 41t176 107.5t131 159t93 187.5t57 201z" />
<glyph unicode="&#x173;" horiz-adv-x="1128" d="M842 70q0 -29 26 -29l-10 -41q-90 -76 -125 -124t-35 -93q0 -30 20.5 -49.5t69.5 -34.5l-26 -35q-98 25 -98 105q0 56 38 111t121 130q-20 14 -20 49q0 14 41 211q-94 -133 -229.5 -211.5t-272.5 -78.5q-246 0 -246 284q0 84 25 203l127 596h41l-127 -596 q-25 -119 -25 -199q0 -248 215 -248q146 0 292 103.5t224 263.5l144 676h41l-197 -926q-2 -13 -6 -29.5t-6 -26t-2 -11.5z" />
<glyph unicode="&#x174;" horiz-adv-x="2019" d="M1032 1669l213 152h33l149 -152l-36 -24l-140 129l-192 -129zM207 1454h45l280 -1403l496 797l-121 594h45l107 -545l342 545h45l-375 -594l162 -797l874 1403h45l-909 -1454h-45l-158 797l-497 -797h-45z" />
<glyph unicode="&#x175;" horiz-adv-x="1480" d="M696 1284l213 152h33l150 -152l-37 -24l-140 129l-192 -129zM125 1063h43l180 -1006q215 232 387 570l-78 436h43l66 -373q87 180 152 373h40q-77 -237 -180 -442l103 -564q194 210 338.5 478t230.5 528h41q-200 -618 -606 -1063h-37l-100 559q-166 -310 -396 -559h-37z " />
<glyph unicode="&#x176;" horiz-adv-x="1216" d="M631 1669l213 152h33l149 -152l-37 -24l-139 129l-193 -129zM567 567l-368 887h47l352 -844l713 844h47l-750 -891l-121 -563h-41z" />
<glyph unicode="&#x177;" horiz-adv-x="913" d="M453 1284l213 152h32l150 -152l-37 -24l-139 129l-193 -129zM-76 -424q50 10 88 26t67 35t61.5 57.5t57 74t68.5 102.5l84 129l-244 1063h46l229 -1012l119 189q192 305 274.5 470.5t136.5 352.5h43q-56 -200 -138 -365t-286 -487l-168 -264q-78 -123 -126.5 -190.5 t-99.5 -116.5t-96.5 -69t-111.5 -30z" />
<glyph unicode="&#x178;" horiz-adv-x="1216" d="M700 1722l33 158h41l-33 -158h-41zM928 1722l33 158h40l-32 -158h-41zM567 567l-368 887h47l352 -844l713 844h47l-750 -891l-121 -563h-41z" />
<glyph unicode="&#x179;" horiz-adv-x="1202" d="M844 1712l-27 25l156 149h67zM-74 41l1344 1372h-1043l11 41h1093l-10 -41l-1344 -1372h1045l-8 -41h-1096z" />
<glyph unicode="&#x17a;" horiz-adv-x="935" d="M627 1321l-27 25l156 149h67zM-66 41l977 981h-757l8 41h809l-8 -41l-975 -981h760l-11 -41h-811z" />
<glyph unicode="&#x17b;" horiz-adv-x="1202" d="M838 1729l32 157h41l-32 -157h-41zM-74 41l1344 1372h-1043l11 41h1093l-10 -41l-1344 -1372h1045l-8 -41h-1096z" />
<glyph unicode="&#x17c;" horiz-adv-x="935" d="M621 1337l32 158h41l-32 -158h-41zM-66 41l977 981h-757l8 41h809l-8 -41l-975 -981h760l-11 -41h-811z" />
<glyph unicode="&#x17d;" horiz-adv-x="1202" d="M674 1862l37 24l139 -129l192 129l27 -24l-213 -152h-33zM-74 41l1344 1372h-1043l11 41h1093l-10 -41l-1344 -1372h1045l-8 -41h-1096z" />
<glyph unicode="&#x17e;" horiz-adv-x="935" d="M457 1470l37 25l139 -129l192 129l27 -25l-213 -151h-33zM-66 41l977 981h-757l8 41h809l-8 -41l-975 -981h760l-11 -41h-811z" />
<glyph unicode="&#x18f;" horiz-adv-x="1447" d="M66 537q0 100 26 204h1235q10 75 10 133q0 240 -130 393.5t-339 153.5q-158 0 -314 -87.5t-241 -229.5l-37 18q85 146 257.5 244t343.5 98q150 0 266.5 -81.5t178.5 -219t62 -305.5q0 -139 -44.5 -273t-123.5 -242t-180.5 -190.5t-221 -127.5t-239.5 -45 q-229 0 -369 155.5t-140 401.5zM1317 696h-1188q-16 -78 -16 -151q0 -80 17 -154t53.5 -141t89.5 -117t130.5 -79t171.5 -29q126 0 249.5 52t222.5 141t171 213.5t99 264.5z" />
<glyph unicode="&#x192;" horiz-adv-x="997" d="M-127 -279l37 25q46 -53 149 -53q83 0 166.5 69t104.5 164l207 971h-146l8 41h148l35 168q40 193 134 301.5t220 108.5q55 0 102.5 -19.5t67.5 -50.5l-37 -25q-19 25 -57 40.5t-82 15.5q-111 0 -190.5 -96t-116.5 -275l-35 -168h299l-8 -41h-301l-207 -971 q-25 -115 -123.5 -194.5t-194.5 -79.5q-129 0 -180 69z" />
<glyph unicode="&#x1a0;" horiz-adv-x="1486" d="M1118 1425q104 -43 175 -131.5t102.5 -195.5t31.5 -230q0 -173 -65 -335t-173 -281t-256.5 -190.5t-307.5 -71.5q-132 0 -234 49t-163 133t-91.5 188t-30.5 222q0 174 65 337t173 282t256 191t307 72q55 0 117 -10q124 0 174 47q36 33 57 125h45q-12 -46 -18.5 -65.5 t-19.5 -42t-35 -43.5q-45 -36 -109 -50zM631 31q156 0 298 71.5t241 188t157.5 268.5t58.5 309q0 89 -17.5 169.5t-55 151.5t-93 122.5t-137 81.5t-180.5 30q-124 0 -241 -46t-209 -126.5t-161.5 -185.5t-107 -229.5t-37.5 -251.5q0 -112 28.5 -209.5t85.5 -175.5t152 -123 t218 -45z" />
<glyph unicode="&#x1a1;" horiz-adv-x="1148" d="M858 1032q94 -54 143.5 -159t49.5 -238t-50.5 -255.5t-133 -209.5t-192.5 -138.5t-226 -51.5q-126 0 -215.5 60.5t-131 158t-41.5 221.5q0 135 51.5 258.5t135.5 210.5t194 138.5t224 51.5q59 0 118 -16q120 4 166 47q37 34 58 125h45q-17 -65 -30 -93.5t-44 -58.5 q-42 -35 -121 -51zM455 20q106 0 207 47.5t177.5 128t123.5 194t47 237.5q0 143 -62 250.5t-178 144.5h-2q-53 16 -111 16q-105 0 -206 -48t-178 -129t-124 -195.5t-47 -239.5q0 -177 91.5 -291.5t261.5 -114.5z" />
<glyph unicode="&#x1af;" horiz-adv-x="1480" d="M1677 1626h45q-12 -46 -18.5 -65.5t-19.5 -42t-35 -43.5q-57 -50 -172 -60l-146 -688q-26 -122 -66 -227.5t-102 -201t-140 -162.5t-183.5 -106.5t-229.5 -39.5q-97 0 -173 24.5t-125.5 66.5t-82 103t-46 129t-13.5 148q0 111 31 266l153 727h41l-153 -727 q-31 -152 -31 -260q0 -436 399 -436q120 0 223 41t176 107.5t131 159t93 187.5t57 201l154 727h2q124 0 174 47q36 33 57 125z" />
<glyph unicode="&#x1b0;" horiz-adv-x="1128" d="M1257 1235h46q-17 -65 -30 -93.5t-44 -58.5q-57 -51 -185 -61l-188 -885q-2 -13 -6 -29.5t-6 -26t-2 -11.5q0 -29 26 -29l-10 -41q-12 0 -24 4q-31 12 -31 55q0 14 41 211q-94 -133 -229.5 -211.5t-272.5 -78.5q-246 0 -246 284q0 84 25 203l127 596h41l-127 -596 q-25 -119 -25 -199q0 -248 215 -248q146 0 292 103.5t224 263.5l144 676h14q124 0 174 47q36 33 57 125z" />
<glyph unicode="&#x1e6;" horiz-adv-x="1409" d="M961 1704h-33l-150 151l37 25l139 -129l193 129l27 -25zM924 1423q-164 0 -311 -72.5t-247.5 -188.5t-159.5 -264t-59 -298q0 -114 34.5 -217.5t96 -181.5t154.5 -124t203 -46q262 0 547 278l73 342h-323l8 41h365l-148 -692h-41l53 248q-133 -128 -274.5 -193 t-278.5 -65q-122 0 -221 52t-161 138.5t-95 194.5t-33 225q0 163 63.5 320t171 277t261 193.5t322.5 73.5q187 0 297.5 -85.5t146.5 -231.5l-41 -12q-84 288 -403 288z" />
<glyph unicode="&#x1e7;" horiz-adv-x="1179" d="M559 1470l37 25l139 -129l193 129l26 -25l-213 -151h-32zM-45 -203l41 13q34 -115 128 -170.5t224 -55.5q113 0 211.5 41t172 126.5t99.5 203.5l58 266q-87 -107 -210 -174t-237 -67q-87 0 -160 38t-121 101t-74 144t-26 169q0 116 49.5 233.5t130 208.5t192 148 t226.5 57q233 0 357 -264l53 248h39l-236 -1108q-21 -102 -75 -182.5t-127.5 -129.5t-157.5 -74.5t-172 -25.5q-171 0 -260.5 65.5t-124.5 188.5zM915 346l82 383q-20 133 -118.5 221t-227.5 88q-112 0 -216 -56.5t-175.5 -144t-114.5 -194.5t-43 -207q0 -112 42.5 -206.5 t124 -152t184.5 -57.5q139 0 283 104.5t179 221.5z" />
<glyph unicode="&#x1ea;" horiz-adv-x="1486" d="M664 -8q-84 -73 -117 -119.5t-33 -89.5q0 -30 20.5 -49.5t69.5 -34.5l-26 -35q-99 25 -99 105q0 52 33 103.5t104 117.5q-130 1 -230 51t-160 133.5t-90 187t-30 220.5q0 174 65 337t173 282t256 191t307 72q107 0 194.5 -33t147 -89.5t100.5 -133t59.5 -162t18.5 -178.5 q0 -168 -61 -326t-163.5 -275.5t-243.5 -192t-295 -82.5zM147 584q0 -112 28.5 -209.5t85.5 -175.5t152 -123t218 -45q156 0 298 71.5t241 188t157.5 268.5t58.5 309q0 89 -17.5 169.5t-55 151.5t-93 122.5t-137 81.5t-180.5 30q-124 0 -241 -46t-209 -126.5t-161.5 -185.5 t-107 -229.5t-37.5 -251.5z" />
<glyph unicode="&#x1eb;" horiz-adv-x="1148" d="M496 -18q-77 -67 -108.5 -112t-31.5 -87q0 -30 20.5 -49.5t69.5 -34.5l-26 -35q-98 25 -98 105q0 50 30.5 98.5t96.5 112.5q-126 0 -215.5 60.5t-131 158t-41.5 221.5q0 135 51.5 258.5t135.5 210.5t194 138.5t224 51.5q124 0 212.5 -61t130.5 -159.5t42 -223.5 q0 -127 -45.5 -244t-121.5 -202.5t-177.5 -141t-210.5 -65.5zM455 20q20 0 41 3l2 2h8v-2q99 12 191 63.5t161 130t110.5 186t41.5 224.5q0 177 -92 294t-261 117q-105 0 -206 -48t-178 -129t-124 -195.5t-47 -239.5q0 -177 91.5 -291.5t261.5 -114.5z" />
<glyph unicode="&#x1fa;" horiz-adv-x="1325" d="M868 1452l291 -1452h-45l-104 520h-719l-326 -520h-45l909 1452q-31 6 -49 31.5t-18 60.5q0 51 35 90t84 47l155 150h68l-172 -152q57 -23 57 -90q0 -52 -35.5 -90.5t-85.5 -46.5zM795 1550q0 -30 17 -48.5t46 -18.5q35 0 67.5 29.5t32.5 70.5q0 30 -18.5 49t-46.5 19 q-38 0 -68 -29t-30 -72zM315 561h686l-163 834z" />
<glyph unicode="&#x1fb;" horiz-adv-x="1187" d="M844 1753l-27 25l156 149h67zM799 1495q39 0 63.5 -27t24.5 -67q0 -56 -42 -97.5t-97 -41.5q-39 0 -64 27t-25 67q0 56 42.5 97.5t97.5 41.5zM692 1362q0 -30 17.5 -49t46.5 -19q35 0 67.5 30t32.5 71q0 30 -18.5 48.5t-46.5 18.5q-38 0 -68.5 -28.5t-30.5 -71.5zM63 430 q0 120 50 239t131.5 209t191 145.5t221.5 55.5q134 0 226.5 -74.5t134.5 -189.5l53 248h43l-209 -973q-4 -12 -4 -24q0 -25 25 -25l-8 -41q-13 0 -19 2q-39 12 -39 57q0 9 31 162q-88 -108 -209.5 -174.5t-239.5 -66.5q-114 0 -202 65t-132.5 166.5t-44.5 218.5zM918 346 l81 383q-18 128 -113.5 218.5t-234.5 90.5q-104 0 -205.5 -55t-175.5 -141t-120 -196t-46 -216q0 -166 98.5 -288t243.5 -122q87 0 188 45t181 121.5t103 159.5z" />
<glyph unicode="&#x1fc;" horiz-adv-x="1886" d="M1335 1706l-26 25l155 149h68zM1047 1454h901l-11 -41h-847l-138 -649h744l-10 -41h-744l-143 -682h864l-8 -41h-907l110 520h-545l-434 -520h-51zM868 561l174 828l-696 -828h522z" />
<glyph unicode="&#x1fd;" horiz-adv-x="1808" d="M971 1321l-27 25l156 149h67zM2 246q0 160 141.5 261t350.5 101q139 0 270 -41q26 102 88 203q0 124 -68.5 196t-187.5 72q-156 0 -360 -131l-17 33q225 139 385 139q121 0 199 -66t88 -188q90 117 211.5 185.5t247.5 68.5q167 0 279 -116t112 -291q0 -106 -27 -164h-921 q-7 -54 -7 -86q0 -175 97 -288.5t254 -113.5q117 0 230.5 62.5t176.5 161.5l37 -11q-64 -109 -194 -181t-261 -72q-124 0 -216 66.5t-136 180.5q-42 -63 -106.5 -113t-133.5 -78t-133.5 -42t-119.5 -14q-133 0 -206 76.5t-73 189.5zM1681 549q15 59 15 117q0 100 -38 182.5 t-120 136t-195 53.5q-180 0 -333 -139t-209 -350h880zM758 281q-17 66 -17 127q0 49 13 116q-122 43 -265 43q-197 0 -321.5 -86t-124.5 -227q0 -98 63 -166t187 -68q87 0 184.5 32.5t177 94t103.5 134.5z" />
<glyph unicode="&#x1fe;" horiz-adv-x="1486" d="M1184 1880l-197 -174l-26 25l155 149h68zM1282 1307q73 -82 109 -196.5t36 -242.5q0 -173 -65 -335t-173 -281t-256.5 -190.5t-307.5 -71.5q-205 0 -332 114l-86 -104h-51l108 131q-79 82 -118.5 199.5t-39.5 251.5q0 174 65 337t173 282t256 191t307 72q213 0 348 -129 l97 119h51zM147 584q0 -125 36 -234.5t108 -185.5l938 1141q-124 118 -326 118q-124 0 -241 -46t-209 -126.5t-161.5 -185.5t-107 -229.5t-37.5 -251.5zM631 31q156 0 298 71.5t241 188t157.5 268.5t58.5 309q0 257 -131 408l-936 -1139q122 -106 312 -106z" />
<glyph unicode="&#x1ff;" horiz-adv-x="1148" d="M1100 1495l-197 -174l-26 25l155 149h68zM1008 1063l-78 -96q121 -134 121 -336q0 -124 -53 -244.5t-138.5 -209t-196.5 -143t-223 -54.5q-133 0 -229 83l-49 -63h-49l69 90q-121 131 -121 334q0 126 54 247.5t140 210t197.5 143t221.5 54.5q132 0 227 -86l55 70h52z M666 1038q-101 0 -203.5 -51t-181.5 -134t-129 -196t-50 -229q0 -183 109 -305l661 835q-86 80 -206 80zM446 20q101 0 203.5 50.5t181.5 132.5t129 194.5t50 227.5q0 185 -107 305l-663 -832q88 -78 206 -78z" />
<glyph unicode="&#x200;" horiz-adv-x="1325" d="M639 1886h68l92 -149l-37 -25zM836 1886h65l94 -149l-39 -25zM831 1454h37l291 -1454h-45l-104 520h-719l-326 -520h-45zM1001 561l-163 834l-523 -834h686z" />
<glyph unicode="&#x201;" horiz-adv-x="1187" d="M496 1495h67l92 -149l-37 -25zM692 1495h66l94 -149l-39 -25zM63 430q0 120 50 239t131.5 209t191 145.5t221.5 55.5q134 0 226.5 -74.5t134.5 -189.5l53 248h43l-209 -973q-4 -12 -4 -24q0 -25 25 -25l-8 -41q-13 0 -19 2q-39 12 -39 57q0 9 31 162 q-88 -108 -209.5 -174.5t-239.5 -66.5q-114 0 -202 65t-132.5 166.5t-44.5 218.5zM918 346l81 383q-18 128 -113.5 218.5t-234.5 90.5q-104 0 -205.5 -55t-175.5 -141t-120 -196t-46 -216q0 -166 98.5 -288t243.5 -122q87 0 188 45t181 121.5t103 159.5z" />
<glyph unicode="&#x202;" horiz-adv-x="1325" d="M948 1886q57 0 87 -37t30 -90q0 -20 -2 -30h-37q0 4 1 12t1 12q0 47 -21 72.5t-61 25.5q-50 0 -87.5 -36.5t-47.5 -85.5h-39q13 63 62.5 110t113.5 47zM831 1454h37l291 -1454h-45l-104 520h-719l-326 -520h-45zM1001 561l-163 834l-523 -834h686z" />
<glyph unicode="&#x203;" horiz-adv-x="1187" d="M805 1495q57 0 87 -37t30 -90q0 -21 -2 -31h-37q0 4 1 12.5t1 12.5q0 47 -21 72.5t-61 25.5q-50 0 -87.5 -37t-47.5 -86h-39q13 63 62.5 110.5t113.5 47.5zM63 430q0 120 50 239t131.5 209t191 145.5t221.5 55.5q134 0 226.5 -74.5t134.5 -189.5l53 248h43l-209 -973 q-4 -12 -4 -24q0 -25 25 -25l-8 -41q-13 0 -19 2q-39 12 -39 57q0 9 31 162q-88 -108 -209.5 -174.5t-239.5 -66.5q-114 0 -202 65t-132.5 166.5t-44.5 218.5zM918 346l81 383q-18 128 -113.5 218.5t-234.5 90.5q-104 0 -205.5 -55t-175.5 -141t-120 -196t-46 -216 q0 -166 98.5 -288t243.5 -122q87 0 188 45t181 121.5t103 159.5z" />
<glyph unicode="&#x204;" horiz-adv-x="1204" d="M588 1886h67l93 -149l-37 -25zM784 1886h66l94 -149l-39 -25zM377 1454h889l-9 -41h-847l-140 -649h744l-8 -41h-744l-145 -682h866l-8 -41h-907z" />
<glyph unicode="&#x205;" horiz-adv-x="1067" d="M621 1346l-37 -25l-123 174h67zM817 1346l-39 -25l-121 174h66zM459 508q-140 0 -346 12q-7 -51 -7 -88q0 -114 39.5 -206t122.5 -149t197 -57q116 0 232 67t175 175l39 -12q-69 -122 -195 -196t-265 -74q-118 0 -207.5 61.5t-135 163t-45.5 225.5q0 121 48 238t129 208 t197.5 147t244.5 56q73 0 143 -30.5t120 -96.5t50 -153q0 -291 -536 -291zM672 1038q-130 0 -247.5 -66t-196 -174.5t-107.5 -236.5q205 -12 344 -12q487 0 487 252q0 59 -26.5 106.5t-68.5 75t-89.5 41.5t-95.5 14z" />
<glyph unicode="&#x206;" horiz-adv-x="1204" d="M897 1886q57 0 87 -37t30 -90q0 -20 -2 -30h-37q0 4 1 12t1 12q0 47 -21 72.5t-61 25.5q-50 0 -87.5 -36.5t-47.5 -85.5h-39q13 63 62.5 110t113.5 47zM377 1454h889l-9 -41h-847l-140 -649h744l-8 -41h-744l-145 -682h866l-8 -41h-907z" />
<glyph unicode="&#x207;" horiz-adv-x="1067" d="M768 1460q-50 0 -87.5 -37t-47.5 -86h-39q13 63 62.5 110.5t113.5 47.5q57 0 87 -37t30 -90q0 -21 -2 -31h-37q0 4 1 12.5t1 12.5q0 47 -21 72.5t-61 25.5zM459 508q-140 0 -346 12q-7 -51 -7 -88q0 -114 39.5 -206t122.5 -149t197 -57q116 0 232 67t175 175l39 -12 q-69 -122 -195 -196t-265 -74q-118 0 -207.5 61.5t-135 163t-45.5 225.5q0 121 48 238t129 208t197.5 147t244.5 56q73 0 143 -30.5t120 -96.5t50 -153q0 -291 -536 -291zM672 1038q-130 0 -247.5 -66t-196 -174.5t-107.5 -236.5q205 -12 344 -12q487 0 487 252 q0 59 -26.5 106.5t-68.5 75t-89.5 41.5t-95.5 14z" />
<glyph unicode="&#x208;" horiz-adv-x="438" d="M184 1880h68l92 -149l-37 -25zM381 1880h65l95 -149l-39 -25zM377 1452h41l-309 -1452h-41z" />
<glyph unicode="&#x209;" horiz-adv-x="372" d="M72 1495h67l92 -149l-36 -25zM268 1495h66l94 -149l-39 -25zM260 1063h41l-225 -1063h-41z" />
<glyph unicode="&#x20a;" horiz-adv-x="438" d="M494 1880q57 0 86.5 -36.5t29.5 -90.5q0 -21 -2 -31h-37q0 4 1 12.5t1 12.5q0 98 -81 98q-50 0 -88 -37t-48 -86h-39q13 63 63 110.5t114 47.5zM377 1452h41l-309 -1452h-41z" />
<glyph unicode="&#x20b;" horiz-adv-x="372" d="M381 1495q57 0 87 -37t30 -90q0 -21 -2 -31h-37q0 4 1 12.5t1 12.5q0 47 -21 72.5t-61 25.5q-50 0 -87.5 -37t-47.5 -86h-39q13 63 62.5 110.5t113.5 47.5zM260 1063h41l-225 -1063h-41z" />
<glyph unicode="&#x20c;" horiz-adv-x="1486" d="M731 1880h68l92 -149l-37 -25zM928 1880h65l94 -149l-38 -25zM106 582q0 174 65 337t173 282t256 191t307 72q107 0 194.5 -33t147 -89.5t100.5 -133t59.5 -162t18.5 -178.5q0 -173 -65 -335t-173 -281t-256.5 -190.5t-307.5 -71.5q-132 0 -234 49t-163 133t-91.5 188 t-30.5 222zM1386 868q0 89 -17.5 169.5t-55 151.5t-93 122.5t-137 81.5t-180.5 30q-124 0 -241 -46t-209 -126.5t-161.5 -185.5t-107 -229.5t-37.5 -251.5q0 -112 28.5 -209.5t85.5 -175.5t152 -123t218 -45q156 0 298 71.5t241 188t157.5 268.5t58.5 309z" />
<glyph unicode="&#x20d;" horiz-adv-x="1148" d="M457 1495h67l92 -149l-36 -25zM653 1495h66l94 -149l-39 -25zM61 420q0 135 51.5 258.5t135.5 210.5t194 138.5t224 51.5q124 0 212.5 -61t130.5 -159.5t42 -223.5q0 -133 -50.5 -255.5t-133 -209.5t-192.5 -138.5t-226 -51.5q-126 0 -215.5 60.5t-131 158t-41.5 221.5z M1010 627q0 177 -92 294t-261 117q-105 0 -206 -48t-178 -129t-124 -195.5t-47 -239.5q0 -177 91.5 -291.5t261.5 -114.5q106 0 207 47.5t177.5 128t123.5 194t47 237.5z" />
<glyph unicode="&#x20e;" horiz-adv-x="1486" d="M1040 1880q57 0 87 -37t30 -90q0 -21 -2 -31h-37q0 4 1 12.5t1 12.5q0 47 -21 72.5t-61 25.5q-50 0 -87.5 -37t-47.5 -86h-39q13 63 62.5 110.5t113.5 47.5zM106 582q0 174 65 337t173 282t256 191t307 72q107 0 194.5 -33t147 -89.5t100.5 -133t59.5 -162t18.5 -178.5 q0 -173 -65 -335t-173 -281t-256.5 -190.5t-307.5 -71.5q-132 0 -234 49t-163 133t-91.5 188t-30.5 222zM1386 868q0 89 -17.5 169.5t-55 151.5t-93 122.5t-137 81.5t-180.5 30q-124 0 -241 -46t-209 -126.5t-161.5 -185.5t-107 -229.5t-37.5 -251.5q0 -112 28.5 -209.5 t85.5 -175.5t152 -123t218 -45q156 0 298 71.5t241 188t157.5 268.5t58.5 309z" />
<glyph unicode="&#x20f;" horiz-adv-x="1148" d="M766 1495q57 0 87 -37t30 -90q0 -21 -2 -31h-37q0 4 1 12.5t1 12.5q0 47 -21 72.5t-61 25.5q-50 0 -87.5 -37t-47.5 -86h-39q13 63 62.5 110.5t113.5 47.5zM61 420q0 135 51.5 258.5t135.5 210.5t194 138.5t224 51.5q124 0 212.5 -61t130.5 -159.5t42 -223.5 q0 -133 -50.5 -255.5t-133 -209.5t-192.5 -138.5t-226 -51.5q-126 0 -215.5 60.5t-131 158t-41.5 221.5zM1010 627q0 177 -92 294t-261 117q-105 0 -206 -48t-178 -129t-124 -195.5t-47 -239.5q0 -177 91.5 -291.5t261.5 -114.5q106 0 207 47.5t177.5 128t123.5 194 t47 237.5z" />
<glyph unicode="&#x210;" horiz-adv-x="1261" d="M604 1886h68l92 -149l-37 -25zM801 1886h65l95 -149l-39 -25zM68 0l309 1454h563q138 0 221.5 -108t83.5 -254q0 -123 -61.5 -240.5t-167 -194.5t-225.5 -86l227 -571h-49l-228 571h-512l-120 -571h-41zM774 612q115 0 216 72.5t157.5 181t56.5 219.5q0 135 -76.5 231.5 t-197.5 96.5h-520l-170 -801h534z" />
<glyph unicode="&#x211;" horiz-adv-x="649" d="M184 1495h68l92 -149l-37 -25zM381 1495h65l95 -149l-39 -25zM260 1063h41l-57 -275q81 122 189.5 192t221.5 81q12 2 39 2l-8 -41q-145 -6 -269.5 -99t-197.5 -251l-143 -672h-41z" />
<glyph unicode="&#x212;" horiz-adv-x="1261" d="M913 1886q57 0 87 -37t30 -90q0 -20 -2 -30h-37q0 4 1 12t1 12q0 47 -21 72.5t-61 25.5q-50 0 -87.5 -36.5t-47.5 -85.5h-39q13 63 62.5 110t113.5 47zM68 0l309 1454h563q138 0 221.5 -108t83.5 -254q0 -123 -61.5 -240.5t-167 -194.5t-225.5 -86l227 -571h-49l-228 571 h-512l-120 -571h-41zM774 612q115 0 216 72.5t157.5 181t56.5 219.5q0 135 -76.5 231.5t-197.5 96.5h-520l-170 -801h534z" />
<glyph unicode="&#x213;" horiz-adv-x="649" d="M494 1495q57 0 86.5 -36.5t29.5 -90.5q0 -21 -2 -31h-37q0 4 1 12.5t1 12.5q0 98 -81 98q-50 0 -88 -37t-48 -86h-39q13 63 63 110.5t114 47.5zM260 1063h41l-57 -275q81 122 189.5 192t221.5 81q12 2 39 2l-8 -41q-145 -6 -269.5 -99t-197.5 -251l-143 -672h-41z" />
<glyph unicode="&#x214;" horiz-adv-x="1480" d="M700 1880h68l92 -149l-37 -25zM897 1880h66l94 -149l-39 -25zM170 461q0 111 31 266l153 727h41l-153 -727q-31 -152 -31 -260q0 -436 399 -436q120 0 223 41t176 107.5t131 159t93 187.5t57 201l154 727h41l-154 -727q-26 -122 -66 -227.5t-102 -201t-140 -162.5 t-183.5 -106.5t-229.5 -39.5q-97 0 -173 24.5t-125.5 66.5t-82 103t-46 129t-13.5 148z" />
<glyph unicode="&#x215;" horiz-adv-x="1128" d="M467 1495h68l92 -149l-37 -25zM664 1495h65l94 -149l-39 -25zM96 264q0 84 25 203l127 596h41l-127 -596q-25 -119 -25 -199q0 -248 215 -248q146 0 292 103.5t224 263.5l144 676h41l-197 -926q-2 -13 -6 -29.5t-6 -26t-2 -11.5q0 -29 26 -29l-10 -41q-12 0 -24 4 q-31 12 -31 55q0 14 41 211q-94 -133 -229.5 -211.5t-272.5 -78.5q-246 0 -246 284z" />
<glyph unicode="&#x216;" horiz-adv-x="1480" d="M1010 1880q57 0 86.5 -36.5t29.5 -90.5q0 -21 -2 -31h-37q0 4 1.5 12.5t1.5 12.5q0 47 -21 72.5t-61 25.5q-50 0 -88 -37t-48 -86h-38q13 63 62.5 110.5t113.5 47.5zM170 461q0 111 31 266l153 727h41l-153 -727q-31 -152 -31 -260q0 -436 399 -436q120 0 223 41 t176 107.5t131 159t93 187.5t57 201l154 727h41l-154 -727q-26 -122 -66 -227.5t-102 -201t-140 -162.5t-183.5 -106.5t-229.5 -39.5q-97 0 -173 24.5t-125.5 66.5t-82 103t-46 129t-13.5 148z" />
<glyph unicode="&#x217;" horiz-adv-x="1128" d="M776 1495q57 0 87 -37t30 -90q0 -21 -2 -31h-37q0 4 1 12.5t1 12.5q0 47 -21 72.5t-61 25.5q-50 0 -87.5 -37t-47.5 -86h-39q13 63 62.5 110.5t113.5 47.5zM96 264q0 84 25 203l127 596h41l-127 -596q-25 -119 -25 -199q0 -248 215 -248q146 0 292 103.5t224 263.5 l144 676h41l-197 -926q-2 -13 -6 -29.5t-6 -26t-2 -11.5q0 -29 26 -29l-10 -41q-12 0 -24 4q-31 12 -31 55q0 14 41 211q-94 -133 -229.5 -211.5t-272.5 -78.5q-246 0 -246 284z" />
<glyph unicode="&#x218;" horiz-adv-x="1185" d="M-2 215l33 27q94 -108 204 -161.5t273 -53.5q232 0 371 101.5t139 279.5q0 47 -10 83.5t-34.5 65t-52 48.5t-78 39t-97 32.5t-121.5 32.5q-192 46 -254 73q-106 45 -137 128q-17 44 -17 106q0 200 154 324t403 124q137 0 232 -42t161 -132l-32 -28q-65 89 -149 126 t-208 37q-123 0 -223 -32.5t-163.5 -88t-97.5 -128.5t-34 -156q0 -52 16.5 -90t38 -62t78 -47t100 -35.5t140.5 -37.5q63 -16 102.5 -27t86.5 -26t75 -28.5t58.5 -32.5t47.5 -40t31.5 -48t20.5 -60t6 -74q0 -105 -42 -186.5t-118 -132.5t-177.5 -77t-223.5 -26 q-169 0 -285.5 53t-216.5 172zM389 -342l45 119h-18l26 121h52l-25 -121l-51 -119h-29z" />
<glyph unicode="&#x219;" horiz-adv-x="921" d="M-25 152l35 26q62 -81 140 -119.5t184 -38.5q170 0 282.5 82t112.5 215q0 36 -14.5 64t-36.5 47.5t-64 37.5t-82.5 30.5t-105.5 29.5q-63 16 -98.5 26.5t-75.5 27.5t-59.5 36t-32.5 47.5t-13 65.5q0 86 34.5 154.5t94.5 110.5t136 63.5t163 21.5q119 0 197.5 -42.5 t99.5 -110.5l-38 -17q-23 61 -99 95t-176 34q-67 0 -130 -17.5t-117.5 -51.5t-88 -93t-33.5 -135q0 -31 11 -54.5t27.5 -39t52 -30.5t67 -25t88.5 -25q46 -12 73.5 -19.5t64 -19t58.5 -21.5t47.5 -23.5t40 -28.5t28 -33.5t19 -41t5.5 -48.5q0 -167 -124 -259.5t-322 -92.5 q-239 0 -351 172zM252 -342l45 119h-18l26 121h51l-24 -121l-51 -119h-29z" />
<glyph unicode="&#x21a;" horiz-adv-x="1175" d="M729 1413h-528l8 41h1098l-9 -41h-528l-301 -1413h-41zM348 -342l45 119h-18l26 121h52l-25 -121l-51 -119h-29z" />
<glyph unicode="&#x21b;" horiz-adv-x="575" d="M98 119q0 11 4 35l185 868h-146l9 41h147l78 371h41l-78 -371h242l-9 -41h-243l-164 -764q-23 -109 -23 -123q0 -49 32.5 -76.5t80.5 -27.5q39 0 82.5 13t63 22.5t28.5 15.5l14 -33q-4 -4 -27.5 -16.5t-73.5 -27.5t-97 -15q-64 0 -105 35.5t-41 93.5zM141 -342l45 119 h-18l27 121h51l-25 -121l-51 -119h-29z" />
<glyph unicode="&#x22a;" horiz-adv-x="1486" d="M836 2222l8 41h545l-9 -41h-544zM866 1722l33 158h41l-33 -158h-41zM1094 1722l32 158h41l-32 -158h-41zM106 582q0 174 65 337t173 282t256 191t307 72q107 0 194.5 -33t147 -89.5t100.5 -133t59.5 -162t18.5 -178.5q0 -173 -65 -335t-173 -281t-256.5 -190.5 t-307.5 -71.5q-132 0 -234 49t-163 133t-91.5 188t-30.5 222zM1386 868q0 89 -17.5 169.5t-55 151.5t-93 122.5t-137 81.5t-180.5 30q-124 0 -241 -46t-209 -126.5t-161.5 -185.5t-107 -229.5t-37.5 -251.5q0 -112 28.5 -209.5t85.5 -175.5t152 -123t218 -45q156 0 298 71.5 t241 188t157.5 268.5t58.5 309z" />
<glyph unicode="&#x22b;" horiz-adv-x="1148" d="M561 1837l8 41h545l-8 -41h-545zM592 1337l33 158h41l-33 -158h-41zM819 1337l33 158h41l-33 -158h-41zM61 420q0 135 51.5 258.5t135.5 210.5t194 138.5t224 51.5q124 0 212.5 -61t130.5 -159.5t42 -223.5q0 -133 -50.5 -255.5t-133 -209.5t-192.5 -138.5t-226 -51.5 q-126 0 -215.5 60.5t-131 158t-41.5 221.5zM1010 627q0 177 -92 294t-261 117q-105 0 -206 -48t-178 -129t-124 -195.5t-47 -239.5q0 -177 91.5 -291.5t261.5 -114.5q106 0 207 47.5t177.5 128t123.5 194t47 237.5z" />
<glyph unicode="&#x22c;" horiz-adv-x="1486" d="M836 2222l8 41h545l-9 -41h-544zM891 1821q-29 0 -53 -13t-38 -33t-20.5 -32t-9.5 -21h-39q1 6 6 19t18.5 34.5t31.5 39.5t49 31.5t67 13.5q50 0 113.5 -39t113.5 -39q30 0 54.5 9.5t38.5 22t24.5 28.5t14 24.5t4.5 13.5h39q-2 -8 -7.5 -21t-20 -34.5t-34 -38.5 t-52.5 -30t-73 -13q-39 0 -73 12t-54 27t-47 27t-53 12zM106 582q0 174 65 337t173 282t256 191t307 72q107 0 194.5 -33t147 -89.5t100.5 -133t59.5 -162t18.5 -178.5q0 -173 -65 -335t-173 -281t-256.5 -190.5t-307.5 -71.5q-132 0 -234 49t-163 133t-91.5 188t-30.5 222z M1386 868q0 89 -17.5 169.5t-55 151.5t-93 122.5t-137 81.5t-180.5 30q-124 0 -241 -46t-209 -126.5t-161.5 -185.5t-107 -229.5t-37.5 -251.5q0 -112 28.5 -209.5t85.5 -175.5t152 -123t218 -45q156 0 298 71.5t241 188t157.5 268.5t58.5 309z" />
<glyph unicode="&#x22d;" horiz-adv-x="1148" d="M561 1837l8 41h545l-8 -41h-545zM616 1436q-29 0 -53 -13t-38 -33t-20 -31.5t-9 -21.5h-39q1 6 6 19t18.5 34.5t31.5 39.5t49 31.5t67 13.5q50 0 113.5 -39t113.5 -39q30 0 54.5 9.5t38.5 22t24 28.5t13.5 24.5t4.5 13.5h39q-3 -12 -12 -30t-29 -44.5t-58 -44.5t-87 -18 t-89 19.5t-73.5 39t-65.5 19.5zM61 420q0 135 51.5 258.5t135.5 210.5t194 138.5t224 51.5q124 0 212.5 -61t130.5 -159.5t42 -223.5q0 -133 -50.5 -255.5t-133 -209.5t-192.5 -138.5t-226 -51.5q-126 0 -215.5 60.5t-131 158t-41.5 221.5zM1010 627q0 177 -92 294t-261 117 q-105 0 -206 -48t-178 -129t-124 -195.5t-47 -239.5q0 -177 91.5 -291.5t261.5 -114.5q106 0 207 47.5t177.5 128t123.5 194t47 237.5z" />
<glyph unicode="&#x230;" horiz-adv-x="1486" d="M836 2222l8 41h545l-9 -41h-544zM981 1722l33 158h41l-33 -158h-41zM106 582q0 174 65 337t173 282t256 191t307 72q107 0 194.5 -33t147 -89.5t100.5 -133t59.5 -162t18.5 -178.5q0 -173 -65 -335t-173 -281t-256.5 -190.5t-307.5 -71.5q-132 0 -234 49t-163 133 t-91.5 188t-30.5 222zM1386 868q0 89 -17.5 169.5t-55 151.5t-93 122.5t-137 81.5t-180.5 30q-124 0 -241 -46t-209 -126.5t-161.5 -185.5t-107 -229.5t-37.5 -251.5q0 -112 28.5 -209.5t85.5 -175.5t152 -123t218 -45q156 0 298 71.5t241 188t157.5 268.5t58.5 309z" />
<glyph unicode="&#x231;" horiz-adv-x="1148" d="M561 1837l8 41h545l-8 -41h-545zM707 1337l32 158h41l-32 -158h-41zM61 420q0 135 51.5 258.5t135.5 210.5t194 138.5t224 51.5q124 0 212.5 -61t130.5 -159.5t42 -223.5q0 -133 -50.5 -255.5t-133 -209.5t-192.5 -138.5t-226 -51.5q-126 0 -215.5 60.5t-131 158 t-41.5 221.5zM1010 627q0 177 -92 294t-261 117q-105 0 -206 -48t-178 -129t-124 -195.5t-47 -239.5q0 -177 91.5 -291.5t261.5 -114.5q106 0 207 47.5t177.5 128t123.5 194t47 237.5z" />
<glyph unicode="&#x232;" horiz-adv-x="1216" d="M578 1790l8 41h544l-8 -41h-544zM567 567l-368 887h47l352 -844l713 844h47l-750 -891l-121 -563h-41z" />
<glyph unicode="&#x233;" horiz-adv-x="913" d="M399 1405l9 41h544l-8 -41h-545zM-76 -424q50 10 88 26t67 35t61.5 57.5t57 74t68.5 102.5l84 129l-244 1063h46l229 -1012l119 189q192 305 274.5 470.5t136.5 352.5h43q-56 -200 -138 -365t-286 -487l-168 -264q-78 -123 -126.5 -190.5t-99.5 -116.5t-96.5 -69 t-111.5 -30z" />
<glyph unicode="&#x237;" horiz-adv-x="372" d="M-438 -279l37 25q46 -53 149 -53q82 0 165.5 69t104.5 164l242 1137h41l-242 -1137q-25 -115 -123 -194.5t-194 -79.5q-129 0 -180 69z" />
<glyph unicode="&#x259;" horiz-adv-x="1122" d="M416 -20q-170 0 -276.5 118t-106.5 301q0 101 18 152h924q6 43 6 86q0 175 -97.5 288t-252.5 113q-117 0 -232 -62.5t-178 -160.5l-35 10q63 109 193 181.5t262 72.5q168 0 274.5 -130t106.5 -322q0 -126 -52 -246.5t-136 -207.5t-195 -140t-223 -53zM424 20 q179 0 333 139.5t208 350.5h-879q-8 -47 -8 -98q0 -176 94.5 -284t251.5 -108z" />
<glyph unicode="&#x2b9;" horiz-adv-x="323" d="M285 1165l61 289h25l-72 -289h-14z" />
<glyph unicode="&#x2ba;" horiz-adv-x="753" d="M285 1165l61 289h25l-72 -289h-14zM715 1165l61 289h25l-72 -289h-14z" />
<glyph unicode="&#x2bb;" horiz-adv-x="231" d="M334 1495l-35 -119h8l-24 -121h-27l27 121l36 119h15z" />
<glyph unicode="&#x2bc;" horiz-adv-x="354" d="M293 1321l-19 25l129 149h54z" />
<glyph unicode="&#x2be;" horiz-adv-x="286" d="M242 1241l8 43q35 0 68.5 41.5t33.5 99.5q0 37 -15 58.5t-40 21.5l10 43q34 0 55 -32t21 -82q0 -75 -44 -134t-97 -59z" />
<glyph unicode="&#x2bf;" horiz-adv-x="284" d="M346 1241q-35 0 -55.5 32.5t-20.5 82.5q0 75 44.5 133.5t97.5 58.5l-11 -43q-38 0 -69 -40.5t-31 -98.5q0 -35 14.5 -58.5t38.5 -23.5z" />
<glyph unicode="&#x2c6;" horiz-adv-x="600" d="M262 1284l213 152h33l149 -152l-36 -24l-140 129l-192 -129z" />
<glyph unicode="&#x2c7;" horiz-adv-x="600" d="M301 1470l37 25l139 -129l193 129l26 -25l-213 -151h-32z" />
<glyph unicode="&#x2c8;" horiz-adv-x="294" d="M285 1587v-850h-41v850h41z" />
<glyph unicode="&#x2c9;" horiz-adv-x="727" d="M289 1405l8 41h522l-8 -41h-522z" />
<glyph unicode="&#x2cb;" horiz-adv-x="325" d="M297 1165l49 289h27l-62 -289h-14z" />
<glyph unicode="&#x2cc;" horiz-adv-x="292" d="M70 584v-850h-41v850h41z" />
<glyph unicode="&#x2d8;" horiz-adv-x="495" d="M561 1495h37q-13 -63 -67 -110.5t-111 -47.5q-51 0 -84 36.5t-33 90.5q0 11 4 31h39q-2 -8 -2 -22q0 -41 23.5 -71t58.5 -30q40 0 80 36t55 87z" />
<glyph unicode="&#x2d9;" horiz-adv-x="245" d="M274 1337l33 158h41l-33 -158h-41z" />
<glyph unicode="&#x2da;" horiz-adv-x="428" d="M420 1495q39 0 63.5 -27t24.5 -67q0 -56 -42 -97.5t-97 -41.5q-39 0 -63.5 27t-24.5 67q0 56 42 97.5t97 41.5zM313 1362q0 -30 17.5 -49t46.5 -19q35 0 67.5 30t32.5 71q0 30 -18.5 48.5t-46.5 18.5q-38 0 -68.5 -28.5t-30.5 -71.5z" />
<glyph unicode="&#x2db;" horiz-adv-x="354" d="M-55 -231q0 58 42 116t134 140h8l10 -25q-89 -75 -124 -123.5t-35 -93.5q0 -30 20.5 -49.5t69.5 -34.5l-27 -35q-98 25 -98 105z" />
<glyph unicode="&#x2dc;" horiz-adv-x="745" d="M434 1436q-29 0 -53 -13t-38 -33t-20.5 -32t-9.5 -21h-39q1 6 6 19t18.5 34.5t31.5 39.5t49 31.5t67 13.5q50 0 114 -39t114 -39q30 0 54.5 9.5t38.5 22t24 28.5t13.5 24.5t4.5 13.5h39q-3 -12 -12 -30t-29 -44.5t-58 -44.5t-87 -18t-89 19.5t-73.5 39t-65.5 19.5z" />
<glyph unicode="&#x2dd;" horiz-adv-x="591" d="M301 1321l-27 25l156 149h68zM498 1321l-27 25l156 149h67z" />
<glyph unicode="&#x300;" d="M-90 1495h65l95 -149l-37 -25z" />
<glyph unicode="&#x301;" d="M-104 1321l-27 25l156 149h67z" />
<glyph unicode="&#x302;" d="M-338 1284l213 152h33l149 -152l-37 -24l-139 129l-192 -129z" />
<glyph unicode="&#x303;" d="M-311 1436q-29 0 -53 -13t-38 -33t-20.5 -32t-9.5 -21h-39q1 6 6 19t18.5 34.5t31.5 39.5t49 31.5t67 13.5q50 0 113.5 -39t113.5 -39q30 0 54.5 9.5t38.5 22t24 28.5t13.5 24.5t4.5 13.5h39q-3 -12 -12 -30t-29 -44.5t-58 -44.5t-87 -18q-39 0 -73 12t-54 27t-47 27 t-53 12z" />
<glyph unicode="&#x304;" d="M-461 1405l8 41h545l-8 -41h-545z" />
<glyph unicode="&#x306;" d="M66 1495h36q-13 -63 -67 -110.5t-111 -47.5q-51 0 -84 36.5t-33 90.5q0 6 5 31h38q-2 -8 -2 -22q0 -41 23.5 -71t58.5 -30q40 0 80.5 36t55.5 87z" />
<glyph unicode="&#x307;" d="M29 1337l32 158h41l-32 -158h-41z" />
<glyph unicode="&#x308;" d="M-199 1337l33 158h41l-33 -158h-41zM29 1337l32 158h41l-32 -158h-41z" />
<glyph unicode="&#x309;" d="M-135 1397l-15 26q50 33 82.5 47.5t69.5 14.5q51 0 72 -31.5t0 -85.5q-4 -11 -9.5 -21t-14.5 -20.5t-15.5 -17.5t-21 -19t-21 -17.5t-26.5 -20.5t-27 -21l-17 22q55 42 81 67t34 48q14 32 1.5 56t-54.5 24q-26 0 -49.5 -11t-69.5 -40z" />
<glyph unicode="&#x30a;" d="M-8 1495q39 0 63.5 -27t24.5 -67q0 -56 -42 -97.5t-97 -41.5q-39 0 -63.5 27t-24.5 67q0 56 42 97.5t97 41.5zM-115 1362q0 -30 17.5 -49t46.5 -19q35 0 67.5 30t32.5 71q0 30 -18.5 48.5t-46.5 18.5q-38 0 -68.5 -28.5t-30.5 -71.5z" />
<glyph unicode="&#x30b;" d="M-291 1321l-26 25l155 149h68zM-94 1321l-27 25l156 149h67z" />
<glyph unicode="&#x30c;" d="M-299 1470l37 25l139 -129l193 129l26 -25l-213 -151h-33z" />
<glyph unicode="&#x30f;" d="M-287 1495h68l92 -149l-37 -25zM-90 1495h65l95 -149l-39 -25z" />
<glyph unicode="&#x311;" d="M-45 1495q57 0 87 -37t30 -90q0 -21 -2 -31h-37q0 4 1 12.5t1 12.5q0 47 -21 72.5t-61 25.5q-50 0 -87.5 -37t-47.5 -86h-39q13 63 62.5 110.5t113.5 47.5z" />
<glyph unicode="&#x312;" d="M102 1495l-34 -119h8l-25 -121h-26l26 121l37 119h14z" />
<glyph unicode="&#x31b;" d="M-221 1100l8 41q124 0 174 47q36 33 57 125h45q-12 -47 -18.5 -66t-19.5 -42t-35 -44q-30 -27 -89.5 -44t-121.5 -17z" />
<glyph unicode="&#x323;" d="M-311 -260l32 158h41l-32 -158h-41z" />
<glyph unicode="&#x324;" d="M-498 -260l33 158h35l-35 -158h-33zM-303 -260l33 158h32l-32 -158h-33z" />
<glyph unicode="&#x326;" d="M-342 -342l45 119h-18l26 121h51l-24 -121l-51 -119h-29z" />
<glyph unicode="&#x327;" d="M-465 -336q-109 0 -186 51l22 31q46 -24 81.5 -34.5t84.5 -10.5q78 0 126 41.5t48 101.5q0 83 -106 156l41 18q51 -40 76.5 -79t25.5 -89q0 -92 -59 -139t-154 -47z" />
<glyph unicode="&#x328;" d="M-410 -231q0 58 42 116t135 140h8l10 -25q-90 -76 -125 -124t-35 -93q0 -30 20.5 -49.5t69.5 -34.5l-26 -35q-99 25 -99 105z" />
<glyph unicode="&#x32e;" d="M-393 -244q-50 0 -77.5 47.5t-14.5 110.5h32q-11 -46 10 -84.5t58 -38.5q34 0 70 36t51 87h31q-14 -63 -61.5 -110.5t-98.5 -47.5z" />
<glyph unicode="&#x331;" d="M-778 -195l8 41h522l-8 -41h-522z" />
<glyph unicode="&#x335;" d="M-465 612l8 41h379l-8 -41h-379z" />
<glyph unicode="&#x3c0;" horiz-adv-x="1273" d="M819 158v864h-504v-1022h-41v1022h-163v41h974v-41h-225v-864q0 -60 36.5 -94.5t98.5 -34.5q50 0 113 18l14 -33q-74 -24 -141 -24q-72 0 -117 46.5t-45 121.5z" />
<glyph unicode="&#x400;" horiz-adv-x="1204" d="M672 1886h65l94 -149l-36 -25zM377 1454h889l-9 -41h-847l-140 -649h744l-8 -41h-744l-145 -682h866l-8 -41h-907z" />
<glyph unicode="&#x401;" horiz-adv-x="1204" d="M723 1729l33 157h41l-33 -157h-41zM950 1729l33 157h41l-33 -157h-41zM377 1454h889l-9 -41h-847l-140 -649h744l-8 -41h-744l-145 -682h866l-8 -41h-907z" />
<glyph unicode="&#x402;" horiz-adv-x="1460" d="M926 885q96 0 172 -30.5t126 -89t68.5 -145t-0.5 -198.5q-38 -220 -164.5 -327t-318.5 -107q-65 0 -133 12l6 39q70 -12 131 -12q180 0 292.5 99.5t145.5 295.5q35 203 -59 312.5t-274 109.5q-201 0 -431 -127l-149 -717h-41l297 1413h-393l10 41h1003l-10 -41h-569 l-137 -653q232 125 428 125z" />
<glyph unicode="&#x403;" horiz-adv-x="1007" d="M829 1712l-26 25l155 149h68zM70 0l307 1454h776l-8 -41h-735l-299 -1413h-41z" />
<glyph unicode="&#x404;" horiz-adv-x="1472" d="M897 1421q-114 0 -220.5 -37t-189.5 -100.5t-149.5 -147.5t-109 -178.5t-60.5 -193.5h766l-6 -41h-768q-17 -136 17 -263t106 -222t183 -152t241 -57q157 0 314 78t257 229l39 -10q-97 -160 -273 -249t-352 -89q-115 0 -215 42t-171 115.5t-118 168t-63.5 204t-1.5 219.5 q15 105 58.5 209t115 197t162 164t208 113t244.5 42q187 0 312 -86.5t174 -230.5l-41 -12q-39 102 -114.5 168.5t-160.5 93t-184 26.5z" />
<glyph unicode="&#x405;" horiz-adv-x="1185" d="M-2 215l33 27q94 -108 204 -161.5t273 -53.5q232 0 371 101.5t139 279.5q0 47 -10 83.5t-34.5 65t-52 48.5t-78 39t-97 32.5t-121.5 32.5q-192 46 -254 73q-106 45 -137 128q-17 44 -17 106q0 200 154 324t403 124q137 0 232 -42t161 -132l-32 -28q-65 89 -149 126 t-208 37q-123 0 -223 -32.5t-163.5 -88t-97.5 -128.5t-34 -156q0 -52 16.5 -90t38 -62t78 -47t100 -35.5t140.5 -37.5q63 -16 102.5 -27t86.5 -26t75 -28.5t58.5 -32.5t47.5 -40t31.5 -48t20.5 -60t6 -74q0 -105 -42 -186.5t-118 -132.5t-177.5 -77t-223.5 -26 q-169 0 -285.5 53t-216.5 172z" />
<glyph unicode="&#x406;" horiz-adv-x="438" d="M377 1452h41l-309 -1452h-41z" />
<glyph unicode="&#x407;" horiz-adv-x="438" d="M319 1722l33 158h41l-33 -158h-41zM547 1722l33 158h41l-33 -158h-41zM377 1452h41l-309 -1452h-41z" />
<glyph unicode="&#x408;" horiz-adv-x="937" d="M-66 68l29 32q107 -86 270 -86q54 0 100.5 10.5t84.5 28t71.5 48t59 63.5t49.5 82t42 95.5t36 112t32 124t31 137.5l158 737h41l-158 -737q-18 -86 -32.5 -147.5t-34 -131.5t-38.5 -118.5t-44.5 -100t-53.5 -85.5t-64.5 -66t-79 -50t-95 -28.5t-113.5 -10.5 q-94 0 -161.5 23t-129.5 68z" />
<glyph unicode="&#x409;" horiz-adv-x="2101" d="M-31 2l8 41q88 0 161 47.5t146.5 161t143.5 315t139 496.5l92 391h756l-127 -598h273q224 0 316 -116.5t58 -311.5q-15 -86 -56 -162t-105 -136t-157 -95t-202 -35h-348l299 1413h-676l-82 -350q-57 -245 -116.5 -427t-118.5 -303t-125 -195t-133 -105t-146 -31zM1116 41 h307q100 0 184.5 32.5t142 88t94.5 123.5t50 143q10 53 10 99t-10 90.5t-35.5 79.5t-65 62t-100.5 41.5t-139 14.5h-274z" />
<glyph unicode="&#x40a;" horiz-adv-x="2052" d="M70 0l307 1454h41l-139 -659h866l139 659h41l-139 -659h315q224 0 318.5 -106t62.5 -281q-14 -82 -54.5 -154.5t-104 -129.5t-156 -90.5t-201.5 -33.5h-389l160 754h-867l-159 -754h-41zM1026 41h348q105 0 190.5 31t141 84t89.5 116.5t46 135.5q8 54 7.5 104.5t-23 94.5 t-61.5 76.5t-108 51.5t-163 19h-315z" />
<glyph unicode="&#x40b;" horiz-adv-x="1472" d="M915 872q236 0 327.5 -100.5t47.5 -316.5l-94 -455h-41l94 451q41 198 -38 289t-287 91q-114 0 -235.5 -27t-196.5 -67l-156 -737h-41l299 1413h-393l8 41h1003l-8 -41h-569l-133 -627q208 86 413 86z" />
<glyph unicode="&#x40c;" horiz-adv-x="1230" d="M788 1712l-26 25l156 149h67zM70 0l307 1454h41l-146 -690h277l670 690h57l-686 -706l457 -748h-52l-442 723h-289l-153 -723h-41z" />
<glyph unicode="&#x40d;" horiz-adv-x="1472" d="M786 1886h66l94 -149l-37 -25zM70 0l307 1454h41l-295 -1393l1290 1393h39l-309 -1454h-41l293 1372l-1274 -1372h-51z" />
<glyph unicode="&#x40e;" horiz-adv-x="1146" d="M877 1718q-134 0 -195.5 45t-50.5 113h39q-10 -49 41.5 -86t150.5 -37q129 0 199.5 32.5t81.5 90.5h37q-11 -67 -90 -112.5t-213 -45.5zM188 0l9 41h112q51 0 94.5 16.5t77 48.5t57.5 66t50 82l35 65l-426 1135h45l407 -1085l594 1085h49l-665 -1218 q-64 -115 -137.5 -175.5t-186.5 -60.5h-115z" />
<glyph unicode="&#x40f;" horiz-adv-x="1400" d="M492 -279l57 279h-479l307 1454h41l-297 -1413h919l297 1413h41l-307 -1454h-481l-58 -279h-40z" />
<glyph unicode="&#x410;" horiz-adv-x="1325" d="M831 1454h37l291 -1454h-45l-104 520h-719l-326 -520h-45zM1001 561l-163 834l-523 -834h686z" />
<glyph unicode="&#x411;" horiz-adv-x="1331" d="M70 0l307 1454h919l-8 -41h-878l-131 -618h542q224 0 318.5 -106t62.5 -281q-14 -82 -54.5 -154.5t-104 -129.5t-156 -90.5t-201.5 -33.5h-616zM119 41h575q105 0 190.5 31t141 84t89.5 116.5t46 135.5q8 54 7.5 104.5t-23 94.5t-61.5 76.5t-108 51.5t-163 19h-543z" />
<glyph unicode="&#x412;" horiz-adv-x="1286" d="M377 1454h612q115 0 180.5 -87.5t65.5 -209.5q0 -131 -79.5 -244.5t-201.5 -167.5q89 -30 139 -112.5t50 -186.5q0 -113 -64 -217.5t-164.5 -166.5t-205.5 -62h-641zM827 754q92 0 178 58.5t137.5 151t51.5 187.5q0 111 -58 186.5t-157 75.5h-569l-142 -659h559zM717 41 q94 0 183.5 58t144.5 151t55 190q0 113 -63 193t-165 80h-612l-143 -672h600z" />
<glyph unicode="&#x413;" horiz-adv-x="1007" d="M70 0l307 1454h776l-8 -41h-735l-299 -1413h-41z" />
<glyph unicode="&#x414;" horiz-adv-x="1550" d="M-59 -279l67 320h49q93 0 173 102t162 343.5t165 637.5l70 330h819l-299 -1413h166l-68 -320h-41l58 279h-1223l-57 -279h-41zM176 41h930l291 1372h-738l-79 -383q-178 -833 -404 -989z" />
<glyph unicode="&#x415;" horiz-adv-x="1204" d="M377 1454h889l-9 -41h-847l-140 -649h744l-8 -41h-744l-145 -682h866l-8 -41h-907z" />
<glyph unicode="&#x416;" horiz-adv-x="1896" d="M-49 0l702 748l-415 706h51l405 -690h254l146 690h41l-146 -690h250l651 690h52l-666 -706l436 -748h-53l-422 723h-256l-154 -723h-41l154 723h-258l-678 -723h-53z" />
<glyph unicode="&#x417;" horiz-adv-x="1046" d="M397 -20q-128 0 -222 58.5t-134 162.5l41 20q37 -96 120.5 -148.5t200.5 -52.5q178 0 302.5 98.5t150.5 262.5q25 157 -58 257.5t-245 100.5h-115l6 41h117q123 0 223.5 95.5t122.5 230.5q23 141 -56 234.5t-220 93.5q-101 0 -189.5 -50t-148.5 -141l-35 17 q68 102 167.5 158.5t211.5 56.5q159 0 248 -105.5t63 -263.5q-19 -116 -92.5 -209t-175.5 -133q124 -35 182 -139t35 -244q-30 -184 -162 -292.5t-338 -108.5z" />
<glyph unicode="&#x418;" horiz-adv-x="1472" d="M70 0l307 1454h41l-295 -1393l1290 1393h39l-309 -1454h-41l293 1372l-1274 -1372h-51z" />
<glyph unicode="&#x419;" horiz-adv-x="1472" d="M958 1718q-134 0 -195 45t-50 113h39q-10 -49 41.5 -86t150.5 -37q129 0 199.5 32.5t81.5 90.5h37q-11 -67 -90.5 -112.5t-213.5 -45.5zM70 0l307 1454h41l-295 -1393l1290 1393h39l-309 -1454h-41l293 1372l-1274 -1372h-51z" />
<glyph unicode="&#x41a;" horiz-adv-x="1230" d="M70 0l307 1454h41l-146 -690h277l670 690h57l-686 -706l457 -748h-52l-442 723h-289l-153 -723h-41z" />
<glyph unicode="&#x41b;" horiz-adv-x="1499" d="M-31 2l8 41q70 0 129 29t119 99.5t115.5 186.5t112.5 291.5t114 413.5l92 391h818l-308 -1454h-41l299 1413h-737l-82 -350q-73 -306 -146.5 -513.5t-152.5 -327t-160 -170t-180 -50.5z" />
<glyph unicode="&#x41c;" horiz-adv-x="1732" d="M377 1454h33l397 -1118l872 1118h33l-309 -1454h-41l289 1364l-838 -1077h-33l-381 1077l-290 -1364h-41z" />
<glyph unicode="&#x41d;" horiz-adv-x="1435" d="M377 1454h41l-148 -690h957l147 690h41l-309 -1454h-41l154 723h-957l-153 -723h-41z" />
<glyph unicode="&#x41e;" horiz-adv-x="1548" d="M694 -10q-145 1 -264.5 64t-192.5 165.5t-104.5 235.5t-11.5 272q20 143 92 278t175.5 236t239 162t275.5 61q146 0 265 -61.5t191.5 -163.5t103.5 -235.5t12 -276.5q-20 -152 -92 -288.5t-176 -235t-238.5 -156t-274.5 -57.5zM700 31q111 0 217 39.5t192 107.5t155 156 t112.5 189.5t57.5 203.5q26 189 -34.5 349t-193.5 253.5t-309 93.5q-138 0 -267.5 -60.5t-224.5 -158.5t-160 -223t-83 -254q-19 -135 11.5 -261.5t99.5 -222.5t180.5 -154t246.5 -58z" />
<glyph unicode="&#x41f;" horiz-adv-x="1435" d="M70 0l307 1454h1036l-307 -1454h-41l299 1413h-954l-299 -1413h-41z" />
<glyph unicode="&#x420;" horiz-adv-x="1218" d="M377 1454h549q98 0 172.5 -52.5t110.5 -133.5t36 -174q0 -126 -65 -247t-177 -198.5t-237 -77.5h-537l-120 -571h-41zM774 612q116 0 217 75t157 187t56 224q0 130 -76.5 222.5t-197.5 92.5h-520l-170 -801h534z" />
<glyph unicode="&#x421;" horiz-adv-x="1449" d="M692 -12q-115 0 -215 42t-171 115.5t-118 168t-63.5 204t-1.5 219.5q15 105 58.5 209t115 197t162 164t208 113t244.5 42q187 0 312 -86.5t174 -230.5l-41 -12q-39 102 -114.5 168.5t-160.5 93t-184 26.5q-147 0 -278.5 -60.5t-224.5 -159t-153.5 -220.5t-78.5 -250 q-19 -137 14 -266t105 -224.5t183.5 -153.5t242.5 -58q157 0 314 78t257 229l39 -10q-97 -160 -273 -249t-352 -89z" />
<glyph unicode="&#x422;" horiz-adv-x="1175" d="M729 1413h-528l8 41h1098l-9 -41h-528l-301 -1413h-41z" />
<glyph unicode="&#x423;" horiz-adv-x="1146" d="M188 0l9 41h112q51 0 94.5 16.5t77 48.5t57.5 66t50 82l35 65l-426 1135h45l407 -1085l594 1085h49l-665 -1218q-64 -115 -137.5 -175.5t-186.5 -60.5h-115z" />
<glyph unicode="&#x424;" horiz-adv-x="1624" d="M999 1401q140 -5 254.5 -50t192 -124t109.5 -196.5t8 -258.5q-32 -190 -151 -334t-295 -219t-382 -74l-30 -145h-41l30 145q-142 5 -257 50t-192 124t-108.5 196t-7.5 257q36 195 155.5 338t292.5 216t381 75l25 115h41zM170 772q-23 -138 9.5 -249t108.5 -182 t182.5 -110.5t234.5 -44.5l245 1174q-202 -3 -367 -72.5t-274 -202.5t-139 -313zM1522 772q22 139 -10 250.5t-107 183t-180.5 111t-233.5 43.5l-248 -1174q198 0 364 70t276 204t139 312z" />
<glyph unicode="&#x425;" horiz-adv-x="1204" d="M598 717l-401 737h53l381 -704l682 704h51l-715 -737l389 -717h-51l-369 684l-661 -684h-53z" />
<glyph unicode="&#x426;" horiz-adv-x="1482" d="M1137 -276l57 276h-1124l307 1454h41l-299 -1413h919l299 1413h41l-299 -1413h164l-65 -317h-41z" />
<glyph unicode="&#x427;" horiz-adv-x="1325" d="M1262 1454h41l-308 -1454h-41l142 668q-217 -86 -434 -86q-248 0 -345.5 100t-52.5 317l96 455h41l-94 -450q-41 -200 42.5 -290.5t303.5 -90.5q120 0 247.5 27t205.5 67z" />
<glyph unicode="&#x428;" horiz-adv-x="1832" d="M70 0l307 1454h41l-299 -1413h655l299 1413h41l-299 -1413h655l299 1413h41l-307 -1454h-1433z" />
<glyph unicode="&#x429;" horiz-adv-x="1914" d="M1569 -279l57 279h-1556l307 1454h41l-297 -1413h655l297 1413h41l-297 -1413h656l296 1413h41l-299 -1413h166l-67 -320h-41z" />
<glyph unicode="&#x42a;" horiz-adv-x="1460" d="M334 0l299 1413h-432l8 41h473l-127 -598h416q151 0 244.5 -56t123.5 -150.5t7 -221.5q-15 -86 -56 -162t-105.5 -136t-157.5 -95t-202 -35h-491zM383 41h451q105 0 191 32.5t142 88.5t90.5 123t47.5 143q10 53 10 99t-10 90.5t-35.5 79.5t-65 62t-100.5 41.5t-139 14.5 h-418z" />
<glyph unicode="&#x42b;" horiz-adv-x="1521" d="M70 0l307 1454h41l-127 -598h313q224 0 316.5 -116.5t58.5 -311.5q-15 -86 -56 -162t-105 -136t-157 -95t-202 -35h-389zM1460 1452h41l-309 -1452h-41zM119 41h348q105 0 190.5 32.5t141.5 88.5t90.5 123t48.5 143q10 53 10 99t-10 90.5t-35.5 79.5t-65 62t-100.5 41.5 t-139 14.5h-315z" />
<glyph unicode="&#x42c;" horiz-adv-x="1206" d="M70 0l307 1454h41l-127 -598h375q224 0 316 -116.5t58 -311.5q-15 -86 -56 -162t-105 -136t-157 -95t-202 -35h-450zM119 41h409q105 0 190.5 32.5t141.5 88.5t90.5 123t48.5 143q10 53 10 99t-10 90.5t-35.5 79.5t-65 62t-100.5 41.5t-139 14.5h-376z" />
<glyph unicode="&#x42d;" horiz-adv-x="1452" d="M860 1462q93 0 172 -22t137 -61t102 -93t71 -117.5t40.5 -135.5t13 -146t-13.5 -150q-19 -111 -64.5 -219.5t-116.5 -204t-158.5 -168t-199.5 -115t-231 -42.5q-180 0 -324.5 90t-187.5 248l39 10q53 -152 181.5 -229.5t287.5 -77.5q135 0 260.5 56.5t219.5 152 t159.5 221.5t91.5 264h-788l6 41h789q34 301 -96.5 479t-391.5 178q-157 0 -298.5 -68.5t-244.5 -219.5l-36 12q92 145 241.5 231t339.5 86z" />
<glyph unicode="&#x42e;" horiz-adv-x="2017" d="M1372 1464q146 0 265 -61.5t191.5 -163.5t103.5 -235.5t12 -276.5q-20 -152 -92 -288.5t-176 -235t-238.5 -156t-274.5 -57.5q-142 1 -260 62t-191 160.5t-106.5 229t-17.5 265.5h-328l-149 -707h-41l307 1454h41l-150 -706h326q31 188 143.5 352t281.5 264t353 100z M1903 727q26 189 -34.5 349t-193.5 253.5t-309 93.5q-138 0 -267.5 -60.5t-224.5 -158.5t-160 -223t-83 -254q-19 -135 11.5 -261.5t99.5 -222.5t180.5 -154t246.5 -58q111 0 217 39.5t192 107.5t155 156t112.5 189.5t57.5 203.5z" />
<glyph unicode="&#x42f;" horiz-adv-x="1249" d="M51 0l527 641q-164 27 -238.5 140.5t-46.5 273.5q32 183 177.5 291t365.5 108h391l-307 -1454h-41l133 633h-336q-37 0 -53 2l-519 -635h-53zM682 674h340l156 739h-351q-198 0 -330.5 -94.5t-162.5 -263.5q-29 -164 59.5 -272.5t288.5 -108.5z" />
<glyph unicode="&#x430;" horiz-adv-x="1187" d="M63 430q0 120 50 239t131.5 209t191 145.5t221.5 55.5q134 0 226.5 -74.5t134.5 -189.5l53 248h43l-209 -973q-4 -12 -4 -24q0 -25 25 -25l-8 -41q-13 0 -19 2q-39 12 -39 57q0 9 31 162q-88 -108 -209.5 -174.5t-239.5 -66.5q-114 0 -202 65t-132.5 166.5t-44.5 218.5z M918 346l81 383q-18 128 -113.5 218.5t-234.5 90.5q-104 0 -205.5 -55t-175.5 -141t-120 -196t-46 -216q0 -166 98.5 -288t243.5 -122q87 0 188 45t181 121.5t103 159.5z" />
<glyph unicode="&#x431;" horiz-adv-x="1175" d="M514 -20q-218 0 -309.5 153t-44.5 414q72 429 210 628t386 252q40 8 102 17.5t101 17t82.5 20t72.5 34t45 53.5l35 -15q-10 -30 -35 -53t-54.5 -36.5t-75 -25.5t-84 -18t-95 -16t-94.5 -19q-213 -49 -331.5 -205.5t-188.5 -469.5q73 137 193 211.5t265 74.5 q215 0 308 -138.5t57 -371.5q-39 -238 -181.5 -372.5t-363.5 -134.5zM522 20q201 0 330.5 125.5t165.5 341.5q33 213 -51.5 341t-280.5 128q-179 0 -316.5 -128t-176.5 -341q-24 -124 4 -229t112.5 -171.5t212.5 -66.5z" />
<glyph unicode="&#x432;" horiz-adv-x="1091" d="M698 561q128 -21 187 -88.5t59 -165.5q0 -152 -123 -239.5t-311 -85.5q-233 2 -319.5 157t-22.5 463q47 230 186 355.5t346 125.5q137 0 215 -62.5t78 -172.5q0 -109 -77 -182.5t-218 -104.5zM700 1042q-192 0 -319.5 -116t-171.5 -332v-4q152 -19 266 -19 q224 5 350.5 77.5t126.5 199.5q0 93 -65.5 143.5t-186.5 50.5zM514 23q168 -2 278.5 73.5t110.5 210.5q0 110 -83.5 172t-254.5 62q-70 -4 -106 -4q-140 0 -258 18q-49 -269 28.5 -399t284.5 -133z" />
<glyph unicode="&#x433;" horiz-adv-x="964" d="M444 -20q-172 0 -259 73t-70 203q13 105 92 169.5t262 123.5q179 64 248.5 120t79.5 150q11 107 -49 165t-183 58q-103 0 -184 -35.5t-131 -101.5l-33 25q54 73 144.5 113t203.5 40q141 0 213 -70.5t60 -197.5q-7 -59 -32.5 -104.5t-75.5 -81.5t-107 -62.5t-148 -58.5 q-170 -54 -238.5 -109t-80.5 -147q-14 -113 59.5 -172.5t228.5 -59.5q223 0 357 146l28 -29q-69 -76 -168.5 -116.5t-216.5 -40.5z" />
<glyph unicode="&#x434;" horiz-adv-x="1183" d="M487 -20q-126 0 -224.5 72.5t-144 195.5t-26.5 264q19 132 103 246.5t207.5 182t254.5 67.5q149 0 258 -92.5t136 -233.5q43 287 6.5 448t-154.5 238q-79 57 -197.5 77t-289.5 15v41q350 13 506 -94q196 -123 196 -446q0 -195 -78 -515q-50 -197 -206.5 -331.5 t-346.5 -134.5zM492 20q120 0 235 70t192 184t95 240q17 121 -26 225.5t-133 166t-204 61.5q-120 0 -233 -62t-190.5 -167.5t-96.5 -227.5q-17 -132 25.5 -245t131.5 -179t204 -66z" />
<glyph unicode="&#x435;" horiz-adv-x="1101" d="M483 508q-139 0 -344 12q-7 -51 -4 -88q5 -176 104 -294t269 -118q115 0 229 67t170 175l39 -12q-64 -122 -188.5 -196t-263.5 -74q-177 0 -286.5 129.5t-115.5 320.5q-4 120 39.5 237.5t121.5 208.5t192.5 147t242.5 56q73 0 144 -30.5t123 -96.5t55 -153 q6 -143 -126 -217t-401 -74zM680 1038q-97 0 -188 -40t-159.5 -106.5t-117.5 -152.5t-68 -178q205 -12 342 -12q258 0 370.5 67t107.5 185q-1 59 -29 106.5t-71 75t-91 41.5t-96 14z" />
<glyph unicode="&#x436;" horiz-adv-x="1527" d="M-20 0q79 111 127.5 175t118 144t136.5 134.5t140 91.5l-273 518h45l265 -498l182 -2l106 500h41l-106 -500h199q86 47 166 122.5t144 156t163 221.5h51q-145 -203 -251.5 -324.5t-221.5 -193.5l311 -545h-51l-299 524h-219l-111 -524h-41l111 524h-158 q-64 -29 -123.5 -71t-104 -83t-101 -109.5t-93.5 -119t-102 -141.5h-51z" />
<glyph unicode="&#x437;" horiz-adv-x="921" d="M354 -10q-129 0 -217 54t-117 151l39 16q26 -86 105 -133t198 -47q149 0 252 71.5t123 192.5q20 108 -39 177.5t-178 70.5h-147l6 41h160q74 0 142 67t85 160q19 104 -40.5 164.5t-186.5 60.5q-205 0 -310 -168l-34 17q122 192 352 192q139 0 210.5 -72.5t49.5 -193.5 q-15 -80 -63.5 -145.5t-114.5 -98.5q88 -29 128 -101.5t21 -170.5q-25 -139 -142 -222t-282 -83z" />
<glyph unicode="&#x438;" horiz-adv-x="1128" d="M96 264q0 84 25 203l127 596h41l-127 -596q-25 -119 -25 -199q0 -248 215 -248q146 0 292 103.5t224 263.5l144 676h41l-197 -926q-2 -13 -6 -29.5t-6 -26t-2 -11.5q0 -29 26 -29l-10 -41q-12 0 -24 4q-31 12 -31 55q0 14 41 211q-94 -133 -229.5 -211.5t-272.5 -78.5 q-246 0 -246 284z" />
<glyph unicode="&#x439;" horiz-adv-x="1128" d="M657 1272q-112 0 -160 35.5t-40 89.5h35q-7 -38 33.5 -65t136.5 -27q94 0 137 23.5t65 68.5h33q-8 -54 -68.5 -89.5t-171.5 -35.5zM96 264q0 84 25 203l127 596h41l-127 -596q-25 -119 -25 -199q0 -248 215 -248q146 0 292 103.5t224 263.5l144 676h41l-197 -926 q-2 -13 -6 -29.5t-6 -26t-2 -11.5q0 -29 26 -29l-10 -41q-12 0 -24 4q-31 12 -31 55q0 14 41 211q-94 -133 -229.5 -211.5t-272.5 -78.5q-246 0 -246 284z" />
<glyph unicode="&#x43a;" horiz-adv-x="946" d="M51 0l225 1063h41l-106 -500h199q121 67 226.5 184.5t246.5 315.5h51q-140 -200 -248.5 -322.5t-224.5 -195.5l311 -545h-51l-299 524h-219l-111 -524h-41z" />
<glyph unicode="&#x43b;" horiz-adv-x="1048" d="M0 0q221 618 668 1063h37l169 -1063h-43l-159 1006q-215 -210 -375.5 -478t-255.5 -528h-41z" />
<glyph unicode="&#x43c;" horiz-adv-x="1349" d="M51 0l225 1063h41l299 -819l635 819h47l-225 -1063h-41l209 993l-616 -803h-31l-291 807l-211 -997h-41z" />
<glyph unicode="&#x43d;" horiz-adv-x="1146" d="M51 0l225 1063h41l-106 -500h737l107 500h41l-226 -1063h-41l111 524h-737l-111 -524h-41z" />
<glyph unicode="&#x43e;" horiz-adv-x="1214" d="M522 -20q-103 0 -190.5 44t-144.5 118t-82.5 175t-10.5 211q20 147 107 274t214.5 202t262.5 75t241 -75t156.5 -202t30.5 -274t-103 -272.5t-211 -200.5t-270 -75zM526 20q124 0 242.5 72t198.5 190t98 248q19 135 -27.5 252t-144 186.5t-221.5 69.5t-241 -70 t-197 -188.5t-99 -255.5q-19 -135 26.5 -251t142.5 -184.5t222 -68.5z" />
<glyph unicode="&#x43f;" horiz-adv-x="1114" d="M51 0l225 1063h787l-225 -1063h-41l217 1024h-705l-217 -1024h-41z" />
<glyph unicode="&#x440;" horiz-adv-x="1181" d="M262 1063h39l-47 -225q87 107 209.5 174t236.5 67q88 0 161 -38t120.5 -101.5t73.5 -144.5t26 -168q0 -160 -80 -309t-219.5 -243.5t-298.5 -94.5q-126 0 -218 74t-136 190l-145 -680h-41zM1040 623q0 171 -97.5 293t-252.5 122q-78 0 -177 -45t-181.5 -122t-104.5 -158 l-82 -383q29 -134 123 -222t224 -88q145 0 273.5 92t201.5 231t73 280z" />
<glyph unicode="&#x441;" horiz-adv-x="1052" d="M63 430q0 129 52 249.5t137 207.5t198 139.5t230 52.5q128 0 215 -62.5t115 -174.5l-45 -15q-26 98 -101 154.5t-178 56.5q-109 0 -215 -48.5t-187 -129.5t-130.5 -192.5t-49.5 -229.5q0 -176 98 -297t249 -121q118 0 240 68t163 156l39 -13q-57 -107 -185 -179t-259 -72 q-169 0 -277.5 129.5t-108.5 320.5z" />
<glyph unicode="&#x442;" horiz-adv-x="1773" d="M260 1063h41l-57 -275q95 138 213.5 214.5t238.5 76.5q125 0 189 -85t51 -236q74 151 205.5 236t267.5 85q231 0 231 -268q0 -98 -26 -219l-125 -592h-41l125 592q24 120 24 207q0 121 -49.5 180t-150.5 59q-138 0 -267 -101t-206 -267l-142 -670h-41l125 592 q27 126 27 213q0 119 -49 176t-150 57q-140 0 -268 -100t-207 -266l-143 -672h-41z" />
<glyph unicode="&#x443;" horiz-adv-x="913" d="M-76 -424q50 10 88 26t67 35t61.5 57.5t57 74t68.5 102.5l84 129l-244 1063h46l229 -1012l119 189q192 305 274.5 470.5t136.5 352.5h43q-56 -200 -138 -365t-286 -487l-168 -264q-78 -123 -126.5 -190.5t-99.5 -116.5t-96.5 -69t-111.5 -30z" />
<glyph unicode="&#x444;" horiz-adv-x="1345" d="M430 -436l92 436h-39q-147 0 -250.5 72t-144.5 192.5t-16 263.5q25 144 111 265t215.5 193.5t273.5 72.5h76l92 436h41l-93 -436h39q144 0 248 -72.5t146.5 -193.5t17.5 -265q-19 -107 -73.5 -203.5t-132.5 -168t-181 -114t-213 -42.5h-76l-92 -436h-41zM492 41h38 l209 977h-75q-133 0 -252 -67.5t-197.5 -180.5t-101.5 -246q-23 -132 15 -242t133.5 -175.5t230.5 -65.5zM571 41h76q203 0 359 140.5t192 342.5q23 133 -16 246t-134.5 180.5t-228.5 67.5h-39z" />
<glyph unicode="&#x445;" horiz-adv-x="933" d="M422 528l-291 535h53l260 -479l11 -25l16 16l469 488h53l-518 -535l289 -528h-53l-258 475l-11 25l-20 -21l-459 -479h-53z" />
<glyph unicode="&#x446;" horiz-adv-x="1189" d="M883 -240l51 240q-28 0 -48 3.5t-33.5 13t-22.5 19t-11.5 30t-3 36.5t4.5 48t10 54.5t14 65.5q-94 -133 -229.5 -211.5t-272.5 -78.5q-246 0 -246 284q0 84 25 203l127 596h41l-127 -596q-25 -119 -25 -199q0 -248 215 -248q146 0 292 103.5t224 263.5l144 676h41 l-179 -838q-10 -44 -14.5 -69.5t-5.5 -49.5t3.5 -34.5t16 -19.5t28.5 -11t44 -2h35l-57 -279h-41z" />
<glyph unicode="&#x447;" horiz-adv-x="980" d="M662 0l104 489q-149 -67 -317 -67q-185 0 -257.5 91.5t-33.5 281.5l63 268h45l-63 -264q-36 -176 24 -257t219 -81q89 0 181.5 21.5t146.5 52.5l113 528h43l-225 -1063h-43z" />
<glyph unicode="&#x448;" horiz-adv-x="1773" d="M1513 0h-40l57 274q-95 -138 -214 -214t-239 -76q-125 0 -188.5 84.5t-50.5 236.5q-74 -151 -205.5 -236t-267.5 -85q-232 0 -232 268q0 93 27 219l125 592h41l-125 -592q-25 -125 -25 -207q0 -239 201 -239q138 0 267 101t206 267l141 670h41l-125 -592 q-26 -121 -26 -213q0 -119 48.5 -176t149.5 -57q140 0 268 100t207 266l144 672h41z" />
<glyph unicode="&#x449;" horiz-adv-x="1839" d="M1532 -240l51 240q-41 0 -65.5 8.5t-38 24.5t-14 51.5t6 77t21.5 112.5q-105 -153 -211.5 -221.5t-241.5 -68.5q-257 0 -239 321q-74 -151 -205.5 -236t-267.5 -85q-232 0 -232 268q0 93 27 219l125 592h41l-125 -592q-25 -125 -25 -207q0 -239 201 -239q138 0 267 101 t206 267l141 670h41l-125 -592q-26 -121 -26 -213q0 -119 48.5 -176t149.5 -57q140 0 268.5 100t207.5 266l143 672h41l-176 -836q-10 -46 -14 -70t-5.5 -49.5t2 -35.5t14 -19.5t26.5 -11.5t42 -2h39l-57 -279h-41z" />
<glyph unicode="&#x44a;" horiz-adv-x="1105" d="M567 -12q-171 0 -251 74.5t-80 205.5q0 153 98.5 357t257.5 399h-467l8 39h539q-161 -187 -264 -383h217q195 0 286.5 -92t69.5 -254t-129.5 -254t-284.5 -92zM573 29q158 0 254 80t115 225q19 148 -61 226.5t-267 78.5h-229q-102 -212 -102 -358q0 -129 68.5 -190.5 t221.5 -61.5z" />
<glyph unicode="&#x44b;" horiz-adv-x="1232" d="M432 680q185 0 271.5 -92t64.5 -254q-21 -162 -117.5 -254t-255.5 -92q-175 0 -250.5 108t-33.5 318l141 649h41q-13 -59 -41 -187t-43 -196h223zM1141 1063h41l-226 -1063h-41zM729 334q36 305 -303 305h-225l-49 -225q-39 -196 27 -290.5t222 -94.5q139 0 224 80 t104 225z" />
<glyph unicode="&#x44c;" horiz-adv-x="954" d="M473 680q195 0 287.5 -92t68.5 -254q-22 -162 -129 -254t-284 -92q-174 0 -261.5 110t-43.5 316l141 649h41q-13 -59 -41 -187t-43 -196h264zM791 334q19 149 -59.5 227t-264.5 78h-266l-49 -225q-20 -100 -9 -173t50.5 -120t97 -69.5t131.5 -22.5q157 0 253 79.5 t116 225.5z" />
<glyph unicode="&#x44d;" horiz-adv-x="1165" d="M641 1079q80 0 148 -22t116.5 -60.5t85.5 -90t54 -111.5t23 -125.5t-7 -130.5q-18 -103 -73.5 -203t-134.5 -178.5t-183.5 -127t-212.5 -48.5q-133 0 -244 66.5t-143 182.5l39 15q39 -111 136.5 -168.5t211.5 -57.5q127 0 247.5 70.5t203.5 186t108 247.5h-584l8 39h582 q22 213 -85 344t-296 131q-112 0 -218.5 -50.5t-184.5 -160.5l-35 15q72 109 184.5 173t253.5 64z" />
<glyph unicode="&#x44e;" horiz-adv-x="1583" d="M1047 1079q135 0 241 -75t156.5 -202t30.5 -274t-103 -272.5t-211 -200.5t-270 -75q-134 0 -239 72.5t-156 194.5t-35 265h-260l-109 -512h-41l225 1063h41l-108 -512h258q25 142 112 264t211.5 193t256.5 71zM1434 530q19 135 -27.5 252t-144.5 186.5t-222 69.5 t-241 -70t-196.5 -188.5t-98.5 -255.5q-19 -135 26.5 -251t142.5 -184.5t222 -68.5q124 0 242.5 72t198.5 190t98 248z" />
<glyph unicode="&#x44f;" horiz-adv-x="1058" d="M31 0l434 451q-131 12 -197 94t-39 217q25 136 132.5 218.5t291.5 82.5q86 0 165.5 -20t115.5 -40l37 -20l-211 -983h-41l94 446h-297l-430 -446h-55zM516 485h305l103 476q-12 7 -35.5 17.5t-96 28t-147.5 17.5q-156 0 -254 -72.5t-119 -189.5q-26 -120 35 -198.5 t209 -78.5z" />
<glyph unicode="&#x450;" horiz-adv-x="1101" d="M705 1346l-37 -25l-123 174h65zM483 508q-139 0 -344 12q-7 -51 -4 -88q5 -176 104 -294t269 -118q115 0 229 67t170 175l39 -12q-64 -122 -188.5 -196t-263.5 -74q-177 0 -286.5 129.5t-115.5 320.5q-4 120 39.5 237.5t121.5 208.5t192.5 147t242.5 56q73 0 144 -30.5 t123 -96.5t55 -153q6 -143 -126 -217t-401 -74zM680 1038q-97 0 -188 -40t-159.5 -106.5t-117.5 -152.5t-68 -178q205 -12 342 -12q258 0 370.5 67t107.5 185q-1 59 -29 106.5t-71 75t-91 41.5t-96 14z" />
<glyph unicode="&#x451;" horiz-adv-x="1101" d="M670 1495l-33 -158h-41l33 158h41zM897 1495l-33 -158h-41l33 158h41zM483 508q-139 0 -344 12q-7 -51 -4 -88q5 -176 104 -294t269 -118q115 0 229 67t170 175l39 -12q-64 -122 -188.5 -196t-263.5 -74q-177 0 -286.5 129.5t-115.5 320.5q-4 120 39.5 237.5t121.5 208.5 t192.5 147t242.5 56q73 0 144 -30.5t123 -96.5t55 -153q6 -143 -126 -217t-401 -74zM680 1038q-97 0 -188 -40t-159.5 -106.5t-117.5 -152.5t-68 -178q205 -12 342 -12q258 0 370.5 67t107.5 185q-1 59 -29 106.5t-71 75t-91 41.5t-96 14z" />
<glyph unicode="&#x452;" horiz-adv-x="1175" d="M711 936q147 0 222 -68.5t83 -199.5t-33 -322q-39 -175 -114.5 -318.5t-185 -233t-230.5 -89.5q-112 0 -220 78l37 24q91 -65 185 -65q109 0 209 85t168.5 214.5t105.5 282.5q72 286 16 428.5t-252 142.5q-300 0 -483 -311l-143 -584h-41l289 1174h-166l8 40h168l69 281 h41l-69 -281h487l-8 -40h-489l-119 -486q189 248 465 248z" />
<glyph unicode="&#x453;" horiz-adv-x="964" d="M594 1321l-27 25l156 149h68zM444 -20q-172 0 -259 73t-70 203q13 105 92 169.5t262 123.5q179 64 248.5 120t79.5 150q11 107 -49 165t-183 58q-103 0 -184 -35.5t-131 -101.5l-33 25q54 73 144.5 113t203.5 40q141 0 213 -70.5t60 -197.5q-7 -59 -32.5 -104.5 t-75.5 -81.5t-107 -62.5t-148 -58.5q-170 -54 -238.5 -109t-80.5 -147q-14 -113 59.5 -172.5t228.5 -59.5q223 0 357 146l28 -29q-69 -76 -168.5 -116.5t-216.5 -40.5z" />
<glyph unicode="&#x454;" horiz-adv-x="1112" d="M672 1038q-185 0 -332.5 -132.5t-198.5 -342.5h584l-8 -39h-584q-19 -134 20.5 -249.5t130.5 -185t212 -69.5q109 0 221 57.5t184 168.5l35 -15q-70 -116 -198 -182.5t-255 -66.5q-69 0 -130 22t-106.5 61.5t-81 92.5t-53 115t-23.5 130t7 136q16 99 66.5 194.5t125 173 t178.5 125t218 47.5q132 0 215.5 -63.5t120.5 -173.5l-39 -15q-83 211 -309 211z" />
<glyph unicode="&#x455;" horiz-adv-x="921" d="M-25 152l35 26q62 -81 140 -119.5t184 -38.5q170 0 282.5 82t112.5 215q0 36 -14.5 64t-36.5 47.5t-64 37.5t-82.5 30.5t-105.5 29.5q-63 16 -98.5 26.5t-75.5 27.5t-59.5 36t-32.5 47.5t-13 65.5q0 86 34.5 154.5t94.5 110.5t136 63.5t163 21.5q119 0 197.5 -42.5 t99.5 -110.5l-38 -17q-23 61 -99 95t-176 34q-67 0 -130 -17.5t-117.5 -51.5t-88 -93t-33.5 -135q0 -31 11 -54.5t27.5 -39t52 -30.5t67 -25t88.5 -25q46 -12 73.5 -19.5t64 -19t58.5 -21.5t47.5 -23.5t40 -28.5t28 -33.5t19 -41t5.5 -48.5q0 -167 -124 -259.5t-322 -92.5 q-239 0 -351 172z" />
<glyph unicode="&#x456;" horiz-adv-x="372" d="M352 1495h41l-33 -158h-41zM260 1063h41l-225 -1063h-41z" />
<glyph unicode="&#x457;" horiz-adv-x="372" d="M207 1337l33 158h41l-33 -158h-41zM434 1337l33 158h41l-33 -158h-41zM260 1063h41l-225 -1063h-41z" />
<glyph unicode="&#x458;" horiz-adv-x="389" d="M369 1495h41l-33 -158h-41zM-422 -279l37 25q46 -53 149 -53q83 0 166.5 69t104.5 164l241 1137h41l-241 -1137q-25 -115 -123.5 -194.5t-194.5 -79.5q-129 0 -180 69z" />
<glyph unicode="&#x459;" horiz-adv-x="1435" d="M975 596q185 0 266.5 -92t48.5 -273q-20 -106 -101 -174.5t-204 -68.5q-50 0 -88 8.5t-66 24.5t-48 41.5t-34 57.5t-24.5 74.5t-19.5 90.5t-18 108q0 4 -0.5 7t-1 7t-1.5 7l-94 592q-186 -210 -325.5 -479t-221.5 -527h-43q193 618 586 1063h37l77 -479q184 12 275 12z M1251 252q24 154 -44.5 228.5t-239.5 74.5q-117 0 -260 -10l20 -131q30 -188 48 -243q32 -93 100 -123q45 -19 118 -19q97 0 170 63t88 160z" />
<glyph unicode="&#x45a;" horiz-adv-x="1605" d="M1137 596q183 0 268.5 -85.5t62.5 -238.5q-21 -134 -117 -209t-255 -75q-173 0 -259.5 110t-43.5 316l30 143h-612l-119 -557h-41l225 1063h41l-98 -467h612l99 467h41l-99 -467h265zM1427 272q18 139 -55 211t-242 72h-266l-30 -141q-41 -191 36.5 -288t231.5 -97 q141 0 226 63.5t99 179.5z" />
<glyph unicode="&#x45b;" horiz-adv-x="1183" d="M719 936q373 0 285 -426l-105 -510h-41l105 510q39 194 -19 289.5t-229 95.5q-160 0 -285 -78t-203 -225l-125 -592h-41l248 1174h-151l8 40h151l60 281h41l-60 -281h504l-8 -40h-504l-102 -482q181 244 471 244z" />
<glyph unicode="&#x45c;" horiz-adv-x="946" d="M590 1321l-27 25l156 149h67zM51 0l225 1063h41l-106 -500h199q121 67 226.5 184.5t246.5 315.5h51q-140 -200 -248.5 -322.5t-224.5 -195.5l311 -545h-51l-299 524h-219l-111 -524h-41z" />
<glyph unicode="&#x45d;" horiz-adv-x="1128" d="M516 1495h66l94 -149l-37 -25zM96 264q0 84 25 203l127 596h41l-127 -596q-25 -119 -25 -199q0 -248 215 -248q146 0 292 103.5t224 263.5l144 676h41l-197 -926q-2 -13 -6 -29.5t-6 -26t-2 -11.5q0 -29 26 -29l-10 -41q-12 0 -24 4q-31 12 -31 55q0 14 41 211 q-94 -133 -229.5 -211.5t-272.5 -78.5q-246 0 -246 284z" />
<glyph unicode="&#x45e;" horiz-adv-x="913" d="M618 1272q-112 0 -160 35.5t-40 89.5h35q-7 -38 33.5 -65t136.5 -27q94 0 137 23.5t65 68.5h33q-8 -54 -68.5 -89.5t-171.5 -35.5zM-76 -424q50 10 88 26t67 35t61.5 57.5t57 74t68.5 102.5l84 129l-244 1063h46l229 -1012l119 189q192 305 274.5 470.5t136.5 352.5h43 q-56 -200 -138 -365t-286 -487l-168 -264q-78 -123 -126.5 -190.5t-99.5 -116.5t-96.5 -69t-111.5 -30z" />
<glyph unicode="&#x45f;" horiz-adv-x="1128" d="M96 264q0 84 25 203l127 596h41l-127 -596q-25 -119 -25 -199q0 -248 215 -248q146 0 292 103.5t224 263.5l144 676h41l-197 -926q-2 -13 -6 -29.5t-6 -26t-2 -11.5q0 -29 26 -29l-10 -41q-12 0 -24 4q-31 12 -31 55q0 14 41 211q-94 -133 -229.5 -211.5t-272.5 -78.5 q-246 0 -246 284zM377 -260l33 158h41l-33 -158h-41z" />
<glyph unicode="&#x462;" horiz-adv-x="1361" d="M821 856q224 0 316.5 -116.5t58.5 -311.5q-15 -86 -56 -162t-105 -136t-157 -95t-202 -35h-451l242 1141h-297l8 41h297l57 272h41l-57 -272h440l-8 -41h-440l-62 -285h375zM1155 428q10 53 10 99t-10 90.5t-35.5 79.5t-65 62t-100.5 41.5t-139 14.5h-377l-164 -774h410 q105 0 190.5 32.5t141.5 88.5t90.5 123t48.5 143z" />
<glyph unicode="&#x463;" horiz-adv-x="1441" d="M950 -12q-157 0 -233.5 112t-24.5 314l45 178q63 235 33.5 340.5t-149.5 105.5q-215 0 -375 -239l-170 -799h-41l225 1063h41l-39 -180q137 196 356 196q154 0 192 -122.5t-34 -372.5q136 12 205 12q182 0 267 -85.5t57 -238.5q-53 -284 -355 -284zM958 29 q128 0 207 68.5t99 195.5q19 125 -51.5 193.5t-239.5 68.5q-102 0 -207 -12l-33 -129q-48 -187 20 -286t205 -99z" />
<glyph unicode="&#x46a;" horiz-adv-x="1896" d="M1942 1454l-666 -706l436 -748h-53l-422 723h-256l-154 -723h-41l154 723h-258l-678 -723h-53l702 748l-415 706h1704zM694 764h545l612 649h-1538z" />
<glyph unicode="&#x46b;" horiz-adv-x="1390" d="M-51 0l532 545l-258 518h1170l-480 -518l304 -545h-48l-292 524h-162l-111 -524h-41l111 524h-156l-516 -524h-53zM516 563h365l419 459h-1013z" />
<glyph unicode="&#x472;" horiz-adv-x="1486" d="M903 1464q146 0 265 -61.5t191.5 -163.5t103.5 -235.5t12 -276.5q-20 -152 -92 -288.5t-176 -235t-238.5 -156t-274.5 -57.5q-145 1 -264.5 64t-192.5 165.5t-104.5 235.5t-11.5 272q20 143 92 278t175.5 236t239 162t275.5 61zM897 1423q-133 0 -258 -56t-219 -149 t-160.5 -211t-91.5 -243h1270q17 182 -46 332.5t-193.5 238.5t-301.5 88zM700 31q137 0 266 60.5t224.5 158t160.5 222t83 251.5h-1272q-18 -134 12.5 -260t100 -221.5t180.5 -153t245 -57.5z" />
<glyph unicode="&#x473;" horiz-adv-x="1191" d="M655 1079q135 0 241 -75t156.5 -202t30.5 -274t-103 -272.5t-210.5 -200.5t-269.5 -75q-103 0 -190.5 44t-144.5 118t-82.5 175t-10.5 211q20 147 106.5 274t214 202t262.5 75zM649 1038q-118 0 -230.5 -63.5t-192.5 -173t-107 -238.5h928q10 128 -39.5 237.5 t-144.5 173.5t-214 64zM504 20q123 0 240.5 71t197.5 187t100 246h-929q-19 -135 26.5 -251t142.5 -184.5t222 -68.5z" />
<glyph unicode="&#x474;" horiz-adv-x="1357" d="M498 0l-291 1454h43l280 -1403l689 1172q79 136 137.5 183.5t144.5 47.5h53l-8 -41h-53q-71 0 -122 -45.5t-128 -177.5l-700 -1190h-45z" />
<glyph unicode="&#x475;" horiz-adv-x="921" d="M301 0l-170 1063h43l158 -993q137 152 256.5 353t187.5 372q62 156 125 222t150 66v-41q-73 0 -127.5 -59.5t-110.5 -204.5q-72 -180 -208 -401t-288 -377h-16z" />
<glyph unicode="&#x490;" horiz-adv-x="1007" d="M70 0l307 1454h735l57 277h41l-67 -318h-735l-297 -1413h-41z" />
<glyph unicode="&#x491;" horiz-adv-x="866" d="M-74 -299q-55 0 -102.5 19.5t-67.5 50.5l37 24q19 -25 57 -40t82 -15q105 0 156.5 62.5t81.5 197.5l227 1063h500l51 240h41l-59 -279h-500l-219 -1024q-13 -57 -25 -96.5t-34.5 -80.5t-51 -66t-73 -40.5t-101.5 -15.5z" />
<glyph unicode="&#x492;" horiz-adv-x="1056" d="M1194 1413h-735l-140 -661h486v-41h-496l-149 -711h-41l149 711h-241v41h252l147 702h776z" />
<glyph unicode="&#x493;" horiz-adv-x="837" d="M891 1024h-541l-108 -514h389l-8 -41h-390l-100 -469h-41l101 469h-164l8 41h164l116 553h582z" />
<glyph unicode="&#x494;" horiz-adv-x="1241" d="M1145 1413h-735l-138 -645q225 117 414 117q96 0 172 -30.5t126.5 -90t69 -146.5t-0.5 -200q-38 -218 -165 -324t-319 -106q-65 0 -133 12l6 39q70 -12 131 -12q180 0 292 101t147 300q35 200 -59.5 308t-274.5 108q-193 0 -414 -119l-153 -725h-41l307 1454h776z" />
<glyph unicode="&#x495;" horiz-adv-x="989" d="M522 731q132 0 215.5 -57t112 -151.5t8.5 -217.5q-46 -292 -201.5 -472.5t-365.5 -180.5q-122 0 -176 49l35 25q48 -33 143 -33q180 0 329 171.5t189 420.5q16 87 5 161t-43.5 128t-98 85t-158.5 31q-87 0 -155.5 -24t-143.5 -74l-125 -592h-41l225 1063h582l-8 -39h-541 l-80 -381q69 45 137.5 66.5t155.5 21.5z" />
<glyph unicode="&#x496;" horiz-adv-x="1984" d="M1276 748l412 -707h149l-65 -317h-41l57 276h-129l-422 723h-256l-154 -723h-41l154 723h-258l-678 -723h-53l702 748l-415 706h51l405 -690h254l146 690h41l-146 -690h250l651 690h52z" />
<glyph unicode="&#x497;" horiz-adv-x="1607" d="M1012 545l288 -506h99l-58 -279h-41l52 240h-80l-299 524h-219l-111 -524h-41l111 524h-158q-64 -29 -123.5 -71t-104 -83t-101 -109.5t-93.5 -119t-102 -141.5h-51q79 111 127.5 175t118 144t136.5 134.5t140 91.5l-273 518h45l265 -498l182 -2l106 500h41l-106 -500 h199q86 47 166 122.5t144 156t163 221.5h51q-145 -203 -251.5 -324.5t-221.5 -193.5z" />
<glyph unicode="&#x498;" horiz-adv-x="1046" d="M948 1106q-19 -116 -92.5 -209t-175.5 -133q124 -35 182 -139t35 -244q-27 -160 -131 -264.5t-268 -128.5l-54 -264h-41l54 258q-20 -2 -60 -2q-128 0 -222 58.5t-134 162.5l41 20q37 -96 120.5 -148.5t200.5 -52.5q178 0 302.5 98.5t150.5 262.5q25 157 -58 257.5 t-245 100.5h-115l6 41h117q123 0 223.5 95.5t122.5 230.5q23 141 -56 234.5t-220 93.5q-101 0 -189.5 -50t-148.5 -141l-35 17q68 102 167.5 158.5t211.5 56.5q159 0 248 -105.5t63 -263.5z" />
<glyph unicode="&#x499;" horiz-adv-x="860" d="M807 811q-15 -80 -63.5 -145.5t-114.5 -98.5q88 -29 128 -101.5t21 -170.5q-25 -139 -142 -222t-282 -83h-30l-48 -230h-40l49 234q-102 14 -171 66t-94 135l39 16q26 -86 105 -133t198 -47q149 0 252 71.5t123 192.5q20 108 -39 177.5t-178 70.5h-147l6 41h160 q74 0 142 67t85 160q19 104 -40.5 164.5t-186.5 60.5q-205 0 -310 -168l-34 17q122 192 352 192q139 0 210.5 -72.5t49.5 -193.5z" />
<glyph unicode="&#x49a;" horiz-adv-x="1318" d="M590 748l432 -707h149l-65 -317h-41l57 276h-127l-442 723h-289l-153 -723h-41l307 1454h41l-146 -690h277l670 690h57z" />
<glyph unicode="&#x49b;" horiz-adv-x="1062" d="M461 545l289 -506h104l-57 -279h-41l51 240h-86l-299 524h-219l-111 -524h-41l225 1063h41l-106 -500h199q121 67 226.5 184.5t246.5 315.5h51q-140 -200 -248.5 -322.5t-224.5 -195.5z" />
<glyph unicode="&#x49c;" horiz-adv-x="1230" d="M1276 1454l-686 -706l457 -748h-52l-442 723h-37l-63 -272h-41l63 272h-211l-153 -723h-41l307 1454h41l-146 -690h211l62 264h41l-62 -264h25l670 690h57z" />
<glyph unicode="&#x49d;" horiz-adv-x="946" d="M934 1063q-140 -200 -248.5 -322.5t-224.5 -195.5l311 -545h-51l-299 524h-16l-52 -245h-41l52 245h-162l-111 -524h-41l225 1063h41l-106 -500h162l47 223h41l-47 -221q120 68 225.5 186t243.5 312h51z" />
<glyph unicode="&#x4a0;" horiz-adv-x="1392" d="M1438 1454l-686 -706l456 -748h-51l-442 723h-289l-154 -723h-41l299 1413h-329l8 41h371l-146 -690h277l669 690h58z" />
<glyph unicode="&#x4a1;" horiz-adv-x="1101" d="M1090 1063q-139 -199 -248.5 -322t-225.5 -196l312 -545h-51l-299 524h-220l-110 -524h-41l217 1022h-299l8 41h340l-106 -500h198q121 67 226.5 184.5t246.5 315.5h52z" />
<glyph unicode="&#x4a2;" horiz-adv-x="1562" d="M1415 1454l-301 -1413h209l-66 -317h-40l57 276h-209l154 723h-957l-153 -723h-41l309 1454h41l-148 -690h957l147 690h41z" />
<glyph unicode="&#x4a3;" horiz-adv-x="1226" d="M1096 1063l-217 -1024h139l-57 -279h-41l51 240h-142l9 39l102 485h-737l-111 -524h-41l225 1063h41l-106 -500h737l107 500h41z" />
<glyph unicode="&#x4a4;" horiz-adv-x="2004" d="M2150 1454l-8 -41h-735l-301 -1413h-41l154 723h-957l-153 -723h-41l309 1454h41l-148 -690h957l147 690h776z" />
<glyph unicode="&#x4a5;" horiz-adv-x="1574" d="M1636 1063l-8 -39h-541l-217 -1024h-41l111 524h-737l-111 -524h-41l225 1063h41l-106 -500h737l107 500h581z" />
<glyph unicode="&#x4aa;" horiz-adv-x="1449" d="M897 1421q-147 0 -278.5 -60.5t-224.5 -159t-153.5 -220.5t-78.5 -250q-19 -137 14 -266t105 -224.5t183.5 -153.5t242.5 -58q157 0 314 78t257 229l39 -10q-97 -160 -273 -249t-352 -89h-24l-54 -264h-41l56 268q-130 14 -235.5 84t-170 173t-91.5 230.5t-9 257.5 q15 105 58.5 209t115 197t162 164t208 113t244.5 42q187 0 312 -86.5t174 -230.5l-41 -12q-39 102 -114.5 168.5t-160.5 93t-184 26.5z" />
<glyph unicode="&#x4ab;" horiz-adv-x="1052" d="M686 1038q-109 0 -215 -48.5t-187 -129.5t-130.5 -192.5t-49.5 -229.5q0 -176 98 -297t249 -121q118 0 240 68t163 156l39 -13q-57 -107 -185 -179t-259 -72h-9l-45 -220h-41l47 222q-151 20 -244.5 146.5t-93.5 301.5q0 129 52 249.5t137 207.5t198 139.5t230 52.5 q128 0 215 -62.5t115 -174.5l-45 -15q-26 98 -101 154.5t-178 56.5z" />
<glyph unicode="&#x4ae;" horiz-adv-x="1216" d="M567 567l-368 887h47l352 -844l713 844h47l-750 -891l-121 -563h-41z" />
<glyph unicode="&#x4af;" horiz-adv-x="923" d="M207 -436l94 436l-170 1063h43l160 -1006q187 210 327 479t222 527h41q-195 -621 -584 -1059l-92 -440h-41z" />
<glyph unicode="&#x4b0;" horiz-adv-x="1216" d="M608 563l-6 -28h242l-8 -41h-242l-107 -494h-41l105 494h-260l8 41h262l6 32l-368 887h47l352 -844l713 844h47z" />
<glyph unicode="&#x4b1;" horiz-adv-x="923" d="M924 1063q-183 -590 -551 -1022h194l-8 -41h-219l-92 -436h-41l94 436h-219l8 41h205l-164 1022h43l160 -1006q187 210 327 479t222 527h41z" />
<glyph unicode="&#x4b6;" horiz-adv-x="1411" d="M1303 1454l-299 -1413h167l-65 -317h-41l57 276h-168l9 41l133 627q-217 -86 -434 -86q-248 0 -345.5 100t-52.5 317l96 455h41l-94 -450q-41 -200 42.5 -290.5t303.5 -90.5q120 0 247.5 27t205.5 67l156 737h41z" />
<glyph unicode="&#x4b7;" horiz-adv-x="1079" d="M930 1063l-217 -1024h157l-57 -279h-41l51 240h-161l104 489q-149 -67 -317 -67q-185 0 -257.5 91.5t-33.5 281.5l63 268h45l-63 -264q-36 -176 24 -257t219 -81q89 0 181.5 21.5t146.5 52.5l113 528h43z" />
<glyph unicode="&#x4b8;" horiz-adv-x="1325" d="M1262 1454h41l-308 -1454h-41l142 668q-212 -83 -420 -86l-62 -269h-41l62 269q-232 5 -323.5 105.5t-47.5 311.5l96 455h41l-94 -450q-41 -198 41 -288.5t297 -92.5l62 268h41l-62 -268q115 4 231 30.5t189 63.5z" />
<glyph unicode="&#x4b9;" horiz-adv-x="980" d="M887 1063h43l-225 -1063h-43l104 489q-130 -58 -279 -67l-43 -205h-41l43 205q-183 0 -255 91.5t-33 281.5l63 268h45l-63 -264q-36 -176 24 -257t219 -81h9l55 264h41l-55 -262q78 4 155.5 24.5t122.5 47.5z" />
<glyph unicode="&#x4ba;" horiz-adv-x="1325" d="M147 0h-41l308 1454h41l-142 -668q217 86 435 86q248 0 345 -100t52 -317l-96 -455h-41l94 451q41 200 -42.5 290t-303.5 90q-120 0 -247.5 -27t-205.5 -67z" />
<glyph unicode="&#x4bb;" horiz-adv-x="1105" d="M352 1495h41l-149 -707q91 132 223 211.5t262 79.5q242 0 242 -284q0 -84 -25 -203l-125 -592h-41l125 592q25 132 25 194q0 124 -53 188t-156 64q-141 0 -285.5 -105.5t-216.5 -260.5l-143 -672h-41z" />
<glyph unicode="&#x4c0;" horiz-adv-x="438" d="M377 1452h41l-309 -1452h-41z" />
<glyph unicode="&#x4c1;" horiz-adv-x="1896" d="M1151 1718q-134 0 -195.5 45t-50.5 113h39q-10 -49 42 -86t151 -37q129 0 199 32.5t81 90.5h37q-11 -67 -90 -112.5t-213 -45.5zM-49 0l702 748l-415 706h51l405 -690h254l146 690h41l-146 -690h250l651 690h52l-666 -706l436 -748h-53l-422 723h-256l-154 -723h-41 l154 723h-258l-678 -723h-53z" />
<glyph unicode="&#x4c2;" horiz-adv-x="1527" d="M860 1272q-113 0 -161 35.5t-40 89.5h35q-7 -38 33.5 -65t136.5 -27q94 0 137.5 23.5t65.5 68.5h33q-8 -54 -68.5 -89.5t-171.5 -35.5zM-20 0q79 111 127.5 175t118 144t136.5 134.5t140 91.5l-273 518h45l265 -498l182 -2l106 500h41l-106 -500h199q86 47 166 122.5 t144 156t163 221.5h51q-145 -203 -251.5 -324.5t-221.5 -193.5l311 -545h-51l-299 524h-219l-111 -524h-41l111 524h-158q-64 -29 -123.5 -71t-104 -83t-101 -109.5t-93.5 -119t-102 -141.5h-51z" />
<glyph unicode="&#x4cb;" horiz-adv-x="1325" d="M1262 1454h41l-308 -1454h-168l-57 -276h-41l66 317h168l133 627q-217 -86 -434 -86q-248 0 -345.5 100t-52.5 317l96 455h41l-94 -450q-41 -200 42.5 -290.5t303.5 -90.5q120 0 247.5 27t205.5 67z" />
<glyph unicode="&#x4cc;" horiz-adv-x="1116" d="M991 1063l-217 -1022h21l-9 -41h-127l-57 -276h-41l66 317h104l96 448q-149 -67 -317 -67q-185 0 -257.5 91.5t-33.5 281.5l64 268h45l-64 -264q-36 -176 24.5 -257t219.5 -81q89 0 181.5 21.5t146.5 52.5l112 528h43z" />
<glyph unicode="&#x4cf;" horiz-adv-x="372" d="M260 1063h41l-225 -1063h-41z" />
<glyph unicode="&#x4d0;" horiz-adv-x="1325" d="M893 1718q-134 0 -195.5 45t-50.5 113h39q-10 -49 42 -86t151 -37q129 0 199 32.5t81 90.5h37q-11 -67 -90 -112.5t-213 -45.5zM831 1454h37l291 -1454h-45l-104 520h-719l-326 -520h-45zM1001 561l-163 834l-523 -834h686z" />
<glyph unicode="&#x4d1;" horiz-adv-x="1187" d="M721 1272q-113 0 -161 35.5t-40 89.5h35q-7 -38 33.5 -65t136.5 -27q94 0 137.5 23.5t65.5 68.5h33q-8 -54 -68.5 -89.5t-171.5 -35.5zM63 430q0 120 50 239t131.5 209t191 145.5t221.5 55.5q134 0 226.5 -74.5t134.5 -189.5l53 248h43l-209 -973q-4 -12 -4 -24 q0 -25 25 -25l-8 -41q-13 0 -19 2q-39 12 -39 57q0 9 31 162q-88 -108 -209.5 -174.5t-239.5 -66.5q-114 0 -202 65t-132.5 166.5t-44.5 218.5zM918 346l81 383q-18 128 -113.5 218.5t-234.5 90.5q-104 0 -205.5 -55t-175.5 -141t-120 -196t-46 -216q0 -166 98.5 -288 t243.5 -122q87 0 188 45t181 121.5t103 159.5z" />
<glyph unicode="&#x4d2;" horiz-adv-x="1325" d="M772 1729l33 157h41l-33 -157h-41zM999 1729l33 157h41l-33 -157h-41zM831 1454h37l291 -1454h-45l-104 520h-719l-326 -520h-45zM1001 561l-163 834l-523 -834h686z" />
<glyph unicode="&#x4d3;" horiz-adv-x="1187" d="M631 1337l33 158h41l-33 -158h-41zM858 1337l33 158h41l-33 -158h-41zM63 430q0 120 50 239t131.5 209t191 145.5t221.5 55.5q134 0 226.5 -74.5t134.5 -189.5l53 248h43l-209 -973q-4 -12 -4 -24q0 -25 25 -25l-8 -41q-13 0 -19 2q-39 12 -39 57q0 9 31 162 q-88 -108 -209.5 -174.5t-239.5 -66.5q-114 0 -202 65t-132.5 166.5t-44.5 218.5zM918 346l81 383q-18 128 -113.5 218.5t-234.5 90.5q-104 0 -205.5 -55t-175.5 -141t-120 -196t-46 -216q0 -166 98.5 -288t243.5 -122q87 0 188 45t181 121.5t103 159.5z" />
<glyph unicode="&#x4d4;" horiz-adv-x="1886" d="M1047 1454h901l-11 -41h-847l-138 -649h744l-10 -41h-744l-143 -682h864l-8 -41h-907l110 520h-545l-434 -520h-51zM868 561l174 828l-696 -828h522z" />
<glyph unicode="&#x4d5;" horiz-adv-x="1808" d="M2 246q0 160 141.5 261t350.5 101q139 0 270 -41q26 102 88 203q0 124 -68.5 196t-187.5 72q-156 0 -360 -131l-17 33q225 139 385 139q121 0 199 -66t88 -188q90 117 211.5 185.5t247.5 68.5q167 0 279 -116t112 -291q0 -106 -27 -164h-921q-7 -54 -7 -86 q0 -175 97 -288.5t254 -113.5q117 0 230.5 62.5t176.5 161.5l37 -11q-64 -109 -194 -181t-261 -72q-124 0 -216 66.5t-136 180.5q-42 -63 -106.5 -113t-133.5 -78t-133.5 -42t-119.5 -14q-133 0 -206 76.5t-73 189.5zM1681 549q15 59 15 117q0 100 -38 182.5t-120 136 t-195 53.5q-180 0 -333 -139t-209 -350h880zM758 281q-17 66 -17 127q0 49 13 116q-122 43 -265 43q-197 0 -321.5 -86t-124.5 -227q0 -98 63 -166t187 -68q87 0 184.5 32.5t177 94t103.5 134.5z" />
<glyph unicode="&#x4d6;" horiz-adv-x="1204" d="M844 1718q-134 0 -195.5 45t-50.5 113h39q-10 -49 41.5 -86t150.5 -37q129 0 199.5 32.5t81.5 90.5h37q-11 -67 -90 -112.5t-213 -45.5zM377 1454h889l-9 -41h-847l-140 -649h744l-8 -41h-744l-145 -682h866l-8 -41h-907z" />
<glyph unicode="&#x4d7;" horiz-adv-x="1101" d="M686 1272q-113 0 -161 35.5t-40 89.5h35q-7 -38 33.5 -65t136.5 -27q94 0 137.5 23.5t65.5 68.5h33q-8 -54 -68.5 -89.5t-171.5 -35.5zM483 508q-139 0 -344 12q-7 -51 -4 -88q5 -176 104 -294t269 -118q115 0 229 67t170 175l39 -12q-64 -122 -188.5 -196t-263.5 -74 q-177 0 -286.5 129.5t-115.5 320.5q-4 120 39.5 237.5t121.5 208.5t192.5 147t242.5 56q73 0 144 -30.5t123 -96.5t55 -153q6 -143 -126 -217t-401 -74zM680 1038q-97 0 -188 -40t-159.5 -106.5t-117.5 -152.5t-68 -178q205 -12 342 -12q258 0 370.5 67t107.5 185 q-1 59 -29 106.5t-71 75t-91 41.5t-96 14z" />
<glyph unicode="&#x4d8;" horiz-adv-x="1447" d="M66 537q0 100 26 204h1235q10 75 10 133q0 240 -130 393.5t-339 153.5q-158 0 -314 -87.5t-241 -229.5l-37 18q85 146 257.5 244t343.5 98q150 0 266.5 -81.5t178.5 -219t62 -305.5q0 -139 -44.5 -273t-123.5 -242t-180.5 -190.5t-221 -127.5t-239.5 -45 q-229 0 -369 155.5t-140 401.5zM1317 696h-1188q-16 -78 -16 -151q0 -80 17 -154t53.5 -141t89.5 -117t130.5 -79t171.5 -29q126 0 249.5 52t222.5 141t171 213.5t99 264.5z" />
<glyph unicode="&#x4d9;" horiz-adv-x="1179" d="M473 -20q-170 0 -276.5 118t-106.5 301q0 99 19 152h923q6 43 6 86q0 175 -97.5 288t-252.5 113q-117 0 -231.5 -62.5t-177.5 -160.5l-35 10q63 109 192.5 181.5t261.5 72.5q168 0 274.5 -130t106.5 -322q0 -126 -52 -246.5t-136 -207.5t-195 -140t-223 -53zM481 20 q179 0 333 139.5t208 350.5h-879q-8 -47 -8 -98q0 -176 94.5 -284t251.5 -108z" />
<glyph unicode="&#x4dc;" horiz-adv-x="1896" d="M1030 1729l33 157h41l-33 -157h-41zM1257 1729l33 157h41l-33 -157h-41zM-49 0l702 748l-415 706h51l405 -690h254l146 690h41l-146 -690h250l651 690h52l-666 -706l436 -748h-53l-422 723h-256l-154 -723h-41l154 723h-258l-678 -723h-53z" />
<glyph unicode="&#x4dd;" horiz-adv-x="1527" d="M770 1337l33 158h41l-33 -158h-41zM997 1337l33 158h41l-33 -158h-41zM-20 0q79 111 127.5 175t118 144t136.5 134.5t140 91.5l-273 518h45l265 -498l182 -2l106 500h41l-106 -500h199q86 47 166 122.5t144 156t163 221.5h51q-145 -203 -251.5 -324.5t-221.5 -193.5 l311 -545h-51l-299 524h-219l-111 -524h-41l111 524h-158q-64 -29 -123.5 -71t-104 -83t-101 -109.5t-93.5 -119t-102 -141.5h-51z" />
<glyph unicode="&#x4de;" horiz-adv-x="1046" d="M594 1729l33 157h41l-33 -157h-41zM821 1729l33 157h41l-33 -157h-41zM397 -20q-128 0 -222 58.5t-134 162.5l41 20q37 -96 120.5 -148.5t200.5 -52.5q178 0 302.5 98.5t150.5 262.5q25 157 -58 257.5t-245 100.5h-115l6 41h117q123 0 223.5 95.5t122.5 230.5 q23 141 -56 234.5t-220 93.5q-101 0 -189.5 -50t-148.5 -141l-35 17q68 102 167.5 158.5t211.5 56.5q159 0 248 -105.5t63 -263.5q-19 -116 -92.5 -209t-175.5 -133q124 -35 182 -139t35 -244q-30 -184 -162 -292.5t-338 -108.5z" />
<glyph unicode="&#x4df;" horiz-adv-x="921" d="M477 1337l33 158h41l-33 -158h-41zM705 1337l32 158h41l-33 -158h-40zM354 -10q-129 0 -217 54t-117 151l39 16q26 -86 105 -133t198 -47q149 0 252 71.5t123 192.5q20 108 -39 177.5t-178 70.5h-147l6 41h160q74 0 142 67t85 160q19 104 -40.5 164.5t-186.5 60.5 q-205 0 -310 -168l-34 17q122 192 352 192q139 0 210.5 -72.5t49.5 -193.5q-15 -80 -63.5 -145.5t-114.5 -98.5q88 -29 128 -101.5t21 -170.5q-25 -139 -142 -222t-282 -83z" />
<glyph unicode="&#x4e2;" horiz-adv-x="1472" d="M715 1796l8 41h545l-8 -41h-545zM70 0l307 1454h41l-295 -1393l1290 1393h39l-309 -1454h-41l293 1372l-1274 -1372h-51z" />
<glyph unicode="&#x4e3;" horiz-adv-x="1128" d="M444 1405l9 41h544l-8 -41h-545zM96 264q0 84 25 203l127 596h41l-127 -596q-25 -119 -25 -199q0 -248 215 -248q146 0 292 103.5t224 263.5l144 676h41l-197 -926q-2 -13 -6 -29.5t-6 -26t-2 -11.5q0 -29 26 -29l-10 -41q-12 0 -24 4q-31 12 -31 55q0 14 41 211 q-94 -133 -229.5 -211.5t-272.5 -78.5q-246 0 -246 284z" />
<glyph unicode="&#x4e4;" horiz-adv-x="1472" d="M838 1729l32 157h41l-32 -157h-41zM1065 1729l33 157h41l-33 -157h-41zM70 0l307 1454h41l-295 -1393l1290 1393h39l-309 -1454h-41l293 1372l-1274 -1372h-51z" />
<glyph unicode="&#x4e5;" horiz-adv-x="1128" d="M567 1337l33 158h41l-33 -158h-41zM795 1337l32 158h41l-32 -158h-41zM96 264q0 84 25 203l127 596h41l-127 -596q-25 -119 -25 -199q0 -248 215 -248q146 0 292 103.5t224 263.5l144 676h41l-197 -926q-2 -13 -6 -29.5t-6 -26t-2 -11.5q0 -29 26 -29l-10 -41 q-12 0 -24 4q-31 12 -31 55q0 14 41 211q-94 -133 -229.5 -211.5t-272.5 -78.5q-246 0 -246 284z" />
<glyph unicode="&#x4e6;" horiz-adv-x="1548" d="M874 1729l33 157h41l-33 -157h-41zM1102 1729l33 157h41l-33 -157h-41zM694 -10q-145 1 -264.5 64t-192.5 165.5t-104.5 235.5t-11.5 272q20 143 92 278t175.5 236t239 162t275.5 61q146 0 265 -61.5t191.5 -163.5t103.5 -235.5t12 -276.5q-20 -152 -92 -288.5t-176 -235 t-238.5 -156t-274.5 -57.5zM700 31q111 0 217 39.5t192 107.5t155 156t112.5 189.5t57.5 203.5q26 189 -34.5 349t-193.5 253.5t-309 93.5q-138 0 -267.5 -60.5t-224.5 -158.5t-160 -223t-83 -254q-19 -135 11.5 -261.5t99.5 -222.5t180.5 -154t246.5 -58z" />
<glyph unicode="&#x4e7;" horiz-adv-x="1214" d="M633 1337l33 158h41l-33 -158h-41zM860 1337l33 158h41l-33 -158h-41zM522 -20q-103 0 -190.5 44t-144.5 118t-82.5 175t-10.5 211q20 147 107 274t214.5 202t262.5 75t241 -75t156.5 -202t30.5 -274t-103 -272.5t-211 -200.5t-270 -75zM526 20q124 0 242.5 72t198.5 190 t98 248q19 135 -27.5 252t-144 186.5t-221.5 69.5t-241 -70t-197 -188.5t-99 -255.5q-19 -135 26.5 -251t142.5 -184.5t222 -68.5z" />
<glyph unicode="&#x4e8;" horiz-adv-x="1486" d="M903 1464q146 0 265 -61.5t191.5 -163.5t103.5 -235.5t12 -276.5q-20 -152 -92 -288.5t-176 -235t-238.5 -156t-274.5 -57.5q-145 1 -264.5 64t-192.5 165.5t-104.5 235.5t-11.5 272q20 143 92 278t175.5 236t239 162t275.5 61zM897 1423q-133 0 -258 -56t-219 -149 t-160.5 -211t-91.5 -243h1270q17 182 -46 332.5t-193.5 238.5t-301.5 88zM700 31q137 0 266 60.5t224.5 158t160.5 222t83 251.5h-1272q-18 -134 12.5 -260t100 -221.5t180.5 -153t245 -57.5z" />
<glyph unicode="&#x4e9;" horiz-adv-x="1191" d="M655 1079q135 0 241 -75t156.5 -202t30.5 -274t-103 -272.5t-210.5 -200.5t-269.5 -75q-103 0 -190.5 44t-144.5 118t-82.5 175t-10.5 211q20 147 106.5 274t214 202t262.5 75zM649 1038q-118 0 -230.5 -63.5t-192.5 -173t-107 -238.5h928q10 128 -39.5 237.5 t-144.5 173.5t-214 64zM504 20q123 0 240.5 71t197.5 187t100 246h-929q-19 -135 26.5 -251t142.5 -184.5t222 -68.5z" />
<glyph unicode="&#x4ee;" horiz-adv-x="1146" d="M633 1796l8 41h545l-8 -41h-545zM188 0l9 41h112q51 0 94.5 16.5t77 48.5t57.5 66t50 82l35 65l-426 1135h45l407 -1085l594 1085h49l-665 -1218q-64 -115 -137.5 -175.5t-186.5 -60.5h-115z" />
<glyph unicode="&#x4ef;" horiz-adv-x="913" d="M406 1405l8 41h544l-8 -41h-544zM-76 -424q50 10 88 26t67 35t61.5 57.5t57 74t68.5 102.5l84 129l-244 1063h46l229 -1012l119 189q192 305 274.5 470.5t136.5 352.5h43q-56 -200 -138 -365t-286 -487l-168 -264q-78 -123 -126.5 -190.5t-99.5 -116.5t-96.5 -69 t-111.5 -30z" />
<glyph unicode="&#x4f0;" horiz-adv-x="1146" d="M756 1729l32 157h41l-32 -157h-41zM983 1729l33 157h41l-33 -157h-41zM188 0l9 41h112q51 0 94.5 16.5t77 48.5t57.5 66t50 82l35 65l-426 1135h45l407 -1085l594 1085h49l-665 -1218q-64 -115 -137.5 -175.5t-186.5 -60.5h-115z" />
<glyph unicode="&#x4f1;" horiz-adv-x="913" d="M528 1337l33 158h41l-33 -158h-41zM756 1337l32 158h41l-32 -158h-41zM-76 -424q50 10 88 26t67 35t61.5 57.5t57 74t68.5 102.5l84 129l-244 1063h46l229 -1012l119 189q192 305 274.5 470.5t136.5 352.5h43q-56 -200 -138 -365t-286 -487l-168 -264 q-78 -123 -126.5 -190.5t-99.5 -116.5t-96.5 -69t-111.5 -30z" />
<glyph unicode="&#x4f2;" horiz-adv-x="1146" d="M756 1712l-27 25l156 149h67zM952 1712l-26 25l155 149h68zM188 0l9 41h112q51 0 94.5 16.5t77 48.5t57.5 66t50 82l35 65l-426 1135h45l407 -1085l594 1085h49l-665 -1218q-64 -115 -137.5 -175.5t-186.5 -60.5h-115z" />
<glyph unicode="&#x4f3;" horiz-adv-x="913" d="M528 1321l-26 25l155 149h68zM725 1321l-27 25l156 149h68zM-76 -424q50 10 88 26t67 35t61.5 57.5t57 74t68.5 102.5l84 129l-244 1063h46l229 -1012l119 189q192 305 274.5 470.5t136.5 352.5h43q-56 -200 -138 -365t-286 -487l-168 -264q-78 -123 -126.5 -190.5 t-99.5 -116.5t-96.5 -69t-111.5 -30z" />
<glyph unicode="&#x4f4;" horiz-adv-x="1325" d="M764 1729l33 157h41l-33 -157h-41zM991 1729l33 157h41l-33 -157h-41zM1262 1454h41l-308 -1454h-41l142 668q-217 -86 -434 -86q-248 0 -345.5 100t-52.5 317l96 455h41l-94 -450q-41 -200 42.5 -290.5t303.5 -90.5q120 0 247.5 27t205.5 67z" />
<glyph unicode="&#x4f5;" horiz-adv-x="980" d="M539 1337l32 158h41l-32 -158h-41zM766 1337l33 158h41l-33 -158h-41zM662 0l104 489q-149 -67 -317 -67q-185 0 -257.5 91.5t-33.5 281.5l63 268h45l-63 -264q-36 -176 24 -257t219 -81q89 0 181.5 21.5t146.5 52.5l113 528h43l-225 -1063h-43z" />
<glyph unicode="&#x4f6;" horiz-adv-x="1007" d="M377 1454h776l-8 -41h-735l-291 -1372h168l-66 -317h-41l58 276h-168l8 41z" />
<glyph unicode="&#x4f7;" horiz-adv-x="964" d="M475 508q-170 -54 -238.5 -109t-80.5 -147q-14 -113 59.5 -172.5t228.5 -59.5q223 0 357 146l28 -29l-6 -6t-6.5 -7t-6.5 -6.5t-7 -6.5l-51 -252h-41l45 213q-131 -92 -312 -92q-172 0 -259 73t-70 203q13 105 92 169.5t262 123.5q179 64 248.5 120t79.5 150 q11 107 -49 165t-183 58q-103 0 -184 -35.5t-131 -101.5l-33 25q54 73 144.5 113t203.5 40q141 0 213 -70.5t60 -197.5q-7 -59 -32.5 -104.5t-75.5 -81.5t-107 -62.5t-148 -58.5z" />
<glyph unicode="&#x4f8;" horiz-adv-x="1521" d="M844 1729l33 157h41l-33 -157h-41zM1071 1729l33 157h41l-33 -157h-41zM70 0l307 1454h41l-127 -598h313q224 0 316.5 -116.5t58.5 -311.5q-15 -86 -56 -162t-105 -136t-157 -95t-202 -35h-389zM1460 1452h41l-309 -1452h-41zM119 41h348q105 0 190.5 32.5t141.5 88.5 t90.5 123t48.5 143q10 53 10 99t-10 90.5t-35.5 79.5t-65 62t-100.5 41.5t-139 14.5h-315z" />
<glyph unicode="&#x4f9;" horiz-adv-x="1232" d="M727 1495l-33 -158h-41l33 158h41zM954 1495l-32 -158h-41l32 158h41zM432 680q185 0 271.5 -92t64.5 -254q-21 -162 -117.5 -254t-255.5 -92q-175 0 -250.5 108t-33.5 318l141 649h41q-13 -59 -41 -187t-43 -196h223zM1141 1063h41l-226 -1063h-41zM729 334 q36 305 -303 305h-225l-49 -225q-39 -196 27 -290.5t222 -94.5q139 0 224 80t104 225z" />
<glyph unicode="&#x51a;" horiz-adv-x="1484" d="M1427 868q0 -208 -89 -393t-242 -311l90 -164h-51l-76 137q-200 -147 -434 -147q-132 0 -234 49t-163 133t-91.5 188t-30.5 222q0 174 65 337t173 282t256 191t307 72q107 0 194.5 -33t147 -89.5t100.5 -133t59.5 -162t18.5 -178.5zM631 31q220 0 409 139l-114 211h51 l100 -182q142 121 225.5 300t83.5 369q0 89 -17.5 169.5t-55 151.5t-93 122.5t-137 81.5t-180.5 30q-124 0 -241 -46t-209 -126.5t-161.5 -185.5t-107 -229.5t-37.5 -251.5q0 -112 28.5 -209.5t85.5 -175.5t152 -123t218 -45z" />
<glyph unicode="&#x51b;" horiz-adv-x="1179" d="M59 420q0 124 53.5 245.5t139.5 212t199 146t227 55.5q115 0 209 -68.5t133 -172.5l47 225h41l-301 -1417q-2 -6 -2 -15q0 -26 24 -26l-8 -41q-24 0 -39 12q-18 18 -18 51q0 13 2 19l127 598q-230 -264 -467 -264q-115 0 -200.5 63t-126 161.5t-40.5 215.5zM911 330 l88 403q-21 132 -107.5 218.5t-221.5 86.5q-109 0 -214.5 -54t-183 -140t-125 -197.5t-47.5 -220.5q0 -111 39 -202.5t116.5 -147.5t178.5 -56q135 0 260 88t217 222z" />
<glyph unicode="&#x51c;" horiz-adv-x="2019" d="M207 1454h45l280 -1403l496 797l-121 594h45l107 -545l342 545h45l-375 -594l162 -797l874 1403h45l-909 -1454h-45l-158 797l-497 -797h-45z" />
<glyph unicode="&#x51d;" horiz-adv-x="1480" d="M125 1063h43l180 -1006q215 232 387 570l-78 436h43l66 -373q87 180 152 373h40q-77 -237 -180 -442l103 -564q194 210 338.5 478t230.5 528h41q-200 -618 -606 -1063h-37l-100 559q-166 -310 -396 -559h-37z" />
<glyph unicode="&#x524;" horiz-adv-x="1562" d="M1413 1454l-299 -1413h209l-66 -317h-40l57 276h-209l299 1413h-954l-299 -1413h-41l307 1454h1036z" />
<glyph unicode="&#x525;" horiz-adv-x="1218" d="M1063 1063l-217 -1024h164l-58 -279h-41l52 240h-166l217 1024h-705l-217 -1024h-41l225 1063h787z" />
<glyph unicode="&#x1e08;" horiz-adv-x="1357" d="M1118 1886l-196 -174l-27 25l156 149h67zM924 1421q-128 0 -248.5 -49t-214.5 -133t-166 -190.5t-110 -228t-38 -238.5q0 -110 34 -210t95 -176.5t154.5 -121.5t204.5 -45q93 0 188 30.5t193 101.5t172 175l37 -10q-102 -160 -267 -249t-329 -89h-4q65 -62 65 -138 q0 -92 -59 -139t-154 -47q-109 0 -186 51l22 31q46 -24 81.5 -34.5t84.5 -10.5q78 0 126 41.5t48 101.5q0 80 -96 148q-105 15 -192 71.5t-142.5 138.5t-86 182t-30.5 206q0 122 39.5 247t114 236.5t173.5 199t227.5 138.5t265.5 51q182 0 294 -86t146 -231l-41 -12 q-43 151 -148.5 219.5t-252.5 68.5z" />
<glyph unicode="&#x1e09;" horiz-adv-x="1052" d="M918 1495l-197 -174l-27 25l156 149h68zM686 1038q-109 0 -215 -48.5t-187 -129.5t-130.5 -192.5t-49.5 -229.5q0 -176 98 -297t249 -121q118 0 240 68t163 156l39 -13q-49 -92 -154.5 -160t-224.5 -87q64 -58 64 -134q0 -92 -59 -139t-154 -47q-110 0 -187 51l23 31 q46 -24 81.5 -34.5t84.5 -10.5q78 0 126 41.5t48 101.5q0 72 -80 136h-12q-169 0 -277.5 129.5t-108.5 320.5q0 129 52 249.5t137 207.5t198 139.5t230 52.5q128 0 215 -62.5t115 -174.5l-45 -15q-26 98 -101 154.5t-178 56.5z" />
<glyph unicode="&#x1e0c;" horiz-adv-x="1400" d="M377 1454h444q129 0 229.5 -42.5t162 -118.5t93 -175t31.5 -217q0 -191 -62.5 -358t-171 -286.5t-262 -188t-329.5 -68.5h-444zM520 41q177 0 325 70t245.5 188t151.5 271t54 321q0 236 -125 379t-358 143h-403l-293 -1372h403zM430 -260l33 158h41l-33 -158h-41z" />
<glyph unicode="&#x1e0d;" horiz-adv-x="1185" d="M63 432q0 120 50.5 238.5t132 208t192 145t224.5 55.5q130 0 222.5 -74.5t133.5 -189.5l143 680h43l-301 -1407q-2 -8 -2 -20q0 -27 25 -27l-8 -41q-13 0 -25 4q-33 11 -33 57q0 15 31 160q-87 -107 -209 -174t-236 -67q-88 0 -161.5 38t-121 101t-74 144t-26.5 169z M918 346l81 383q-17 127 -119.5 218t-226.5 91q-109 0 -212 -54.5t-176 -140.5t-117 -194t-44 -213q0 -172 98.5 -294t252.5 -122q79 0 178 44t181 121.5t104 160.5zM406 -260l32 158h41l-33 -158h-40z" />
<glyph unicode="&#x1e0e;" horiz-adv-x="1400" d="M377 1454h444q129 0 229.5 -42.5t162 -118.5t93 -175t31.5 -217q0 -191 -62.5 -358t-171 -286.5t-262 -188t-329.5 -68.5h-444zM520 41q177 0 325 70t245.5 188t151.5 271t54 321q0 236 -125 379t-358 143h-403l-293 -1372h403zM203 -195l8 41h522l-8 -41h-522z" />
<glyph unicode="&#x1e0f;" horiz-adv-x="1185" d="M63 432q0 120 50.5 238.5t132 208t192 145t224.5 55.5q130 0 222.5 -74.5t133.5 -189.5l143 680h43l-301 -1407q-2 -8 -2 -20q0 -27 25 -27l-8 -41q-13 0 -25 4q-33 11 -33 57q0 15 31 160q-87 -107 -209 -174t-236 -67q-88 0 -161.5 38t-121 101t-74 144t-26.5 169z M918 346l81 383q-17 127 -119.5 218t-226.5 91q-109 0 -212 -54.5t-176 -140.5t-117 -194t-44 -213q0 -172 98.5 -294t252.5 -122q79 0 178 44t181 121.5t104 160.5zM178 -195l8 41h523l-9 -41h-522z" />
<glyph unicode="&#x1e14;" horiz-adv-x="1204" d="M754 2269h65l94 -149l-36 -25zM600 1796l8 41h545l-8 -41h-545zM377 1454h889l-9 -41h-847l-140 -649h744l-8 -41h-744l-145 -682h866l-8 -41h-907z" />
<glyph unicode="&#x1e15;" horiz-adv-x="1067" d="M786 1729l-36 -25l-123 174h65zM481 1446h545l-8 -41h-545zM682 1079q73 0 143 -30.5t120 -96.5t50 -153q0 -291 -536 -291q-140 0 -346 12q-7 -51 -7 -88q0 -114 39.5 -206t122.5 -149t197 -57q116 0 232 67t175 175l39 -12q-69 -122 -195 -196t-265 -74 q-118 0 -207.5 61.5t-135 163t-45.5 225.5q0 121 48 238t129 208t197.5 147t244.5 56zM465 549q487 0 487 252q0 59 -26.5 106.5t-68.5 75t-89.5 41.5t-95.5 14q-130 0 -247.5 -66t-196 -174.5t-107.5 -236.5q205 -12 344 -12z" />
<glyph unicode="&#x1e16;" horiz-adv-x="1204" d="M926 2095l-27 25l156 149h67zM600 1796l8 41h545l-8 -41h-545zM377 1454h889l-9 -41h-847l-140 -649h744l-8 -41h-744l-145 -682h866l-8 -41h-907z" />
<glyph unicode="&#x1e17;" horiz-adv-x="1067" d="M995 1878l-196 -174l-27 25l156 149h67zM481 1446h545l-8 -41h-545zM682 1079q73 0 143 -30.5t120 -96.5t50 -153q0 -291 -536 -291q-140 0 -346 12q-7 -51 -7 -88q0 -114 39.5 -206t122.5 -149t197 -57q116 0 232 67t175 175l39 -12q-69 -122 -195 -196t-265 -74 q-118 0 -207.5 61.5t-135 163t-45.5 225.5q0 121 48 238t129 208t197.5 147t244.5 56zM465 549q487 0 487 252q0 59 -26.5 106.5t-68.5 75t-89.5 41.5t-95.5 14q-130 0 -247.5 -66t-196 -174.5t-107.5 -236.5q205 -12 344 -12z" />
<glyph unicode="&#x1e1c;" horiz-adv-x="1204" d="M860 1729q-51 0 -84 36t-33 90q0 6 5 31h38q-2 -8 -2 -22q0 -41 23.5 -71t58.5 -30q40 0 80 36t55 87h37q-13 -63 -67 -110t-111 -47zM1257 1413h-847l-140 -649h744l-8 -41h-744l-145 -682h866l-8 -41h-443q80 -70 80 -150q0 -92 -59 -139t-154 -47q-109 0 -186 51 l23 31q47 -24 81.5 -34.5t83.5 -10.5q78 0 126 41.5t48 101.5q0 83 -106 156h-401l309 1454h889z" />
<glyph unicode="&#x1e1d;" horiz-adv-x="1067" d="M733 1337q-51 0 -84 36.5t-33 90.5q0 6 5 31h38q-2 -8 -2 -22q0 -41 23.5 -71t58.5 -30q40 0 80 36t55 87h37q-13 -63 -67 -110.5t-111 -47.5zM459 508q-140 0 -346 12q-7 -51 -7 -88q0 -114 39.5 -206t122.5 -149t197 -57q116 0 232 67t175 175l39 -12 q-61 -108 -169 -179.5t-230 -86.5q61 -61 61 -134q0 -92 -59 -139t-154 -47q-109 0 -186 51l23 31q47 -24 81.5 -34.5t83.5 -10.5q78 0 126.5 41.5t48.5 101.5q0 72 -80 136h-6q-118 0 -207.5 61.5t-135 163t-45.5 225.5q0 121 48 238t129 208t197.5 147t244.5 56 q73 0 143 -30.5t120 -96.5t50 -153q0 -291 -536 -291zM672 1038q-130 0 -247.5 -66t-196 -174.5t-107.5 -236.5q205 -12 344 -12q487 0 487 252q0 59 -26.5 106.5t-68.5 75t-89.5 41.5t-95.5 14z" />
<glyph unicode="&#x1e20;" horiz-adv-x="1409" d="M1257 1831l-8 -41h-544l8 41h544zM924 1423q-164 0 -311 -72.5t-247.5 -188.5t-159.5 -264t-59 -298q0 -114 34.5 -217.5t96 -181.5t154.5 -124t203 -46q262 0 547 278l73 342h-323l8 41h365l-148 -692h-41l53 248q-133 -128 -274.5 -193t-278.5 -65q-122 0 -221 52 t-161 138.5t-95 194.5t-33 225q0 163 63.5 320t171 277t261 193.5t322.5 73.5q187 0 297.5 -85.5t146.5 -231.5l-41 -12q-84 288 -403 288z" />
<glyph unicode="&#x1e21;" horiz-adv-x="1179" d="M485 1405l9 41h544l-8 -41h-545zM-45 -203l41 13q34 -115 128 -170.5t224 -55.5q113 0 211.5 41t172 126.5t99.5 203.5l58 266q-87 -107 -210 -174t-237 -67q-87 0 -160 38t-121 101t-74 144t-26 169q0 116 49.5 233.5t130 208.5t192 148t226.5 57q233 0 357 -264l53 248 h39l-236 -1108q-21 -102 -75 -182.5t-127.5 -129.5t-157.5 -74.5t-172 -25.5q-171 0 -260.5 65.5t-124.5 188.5zM915 346l82 383q-20 133 -118.5 221t-227.5 88q-112 0 -216 -56.5t-175.5 -144t-114.5 -194.5t-43 -207q0 -112 42.5 -206.5t124 -152t184.5 -57.5 q139 0 283 104.5t179 221.5z" />
<glyph unicode="&#x1e24;" horiz-adv-x="1435" d="M377 1454h41l-148 -690h957l147 690h41l-309 -1454h-41l154 723h-957l-153 -723h-41zM530 -260l33 158h41l-33 -158h-41z" />
<glyph unicode="&#x1e25;" horiz-adv-x="1105" d="M352 1495h41l-149 -707q91 132 223 211.5t262 79.5q242 0 242 -284q0 -84 -25 -203l-125 -592h-41l125 592q25 132 25 194q0 124 -53 188t-156 64q-141 0 -285.5 -105.5t-216.5 -260.5l-143 -672h-41zM365 -260l32 158h41l-32 -158h-41z" />
<glyph unicode="&#x1e2a;" horiz-adv-x="1435" d="M377 1454h41l-148 -690h957l147 690h41l-309 -1454h-41l154 723h-957l-153 -723h-41zM555 -244q-50 0 -77.5 47.5t-14.5 110.5h33q-11 -46 10 -84.5t57 -38.5q34 0 70 36t51 87h31q-14 -63 -61.5 -110.5t-98.5 -47.5z" />
<glyph unicode="&#x1e2b;" horiz-adv-x="1105" d="M352 1495h41l-149 -707q91 132 223 211.5t262 79.5q242 0 242 -284q0 -84 -25 -203l-125 -592h-41l125 592q25 132 25 194q0 124 -53 188t-156 64q-141 0 -285.5 -105.5t-216.5 -260.5l-143 -672h-41zM389 -244q-50 0 -77.5 47.5t-14.5 110.5h33q-11 -46 10 -84.5 t57 -38.5q34 0 70 36t51 87h31q-14 -63 -61.5 -110.5t-98.5 -47.5z" />
<glyph unicode="&#x1e2e;" horiz-adv-x="438" d="M532 2138l-26 25l156 149h67zM319 1722l33 158h41l-33 -158h-41zM547 1722l33 158h41l-33 -158h-41zM377 1452h41l-309 -1452h-41z" />
<glyph unicode="&#x1e2f;" horiz-adv-x="372" d="M420 1753l-27 25l156 149h67zM207 1337l33 158h41l-33 -158h-41zM434 1337l33 158h41l-33 -158h-41zM260 1063h41l-225 -1063h-41z" />
<glyph unicode="&#x1e36;" horiz-adv-x="1130" d="M377 1454h41l-301 -1413h866l-8 -41h-907zM446 -260l33 158h41l-33 -158h-41z" />
<glyph unicode="&#x1e37;" horiz-adv-x="458" d="M74 115q0 27 4 43l284 1337h41l-284 -1337q-4 -24 -4 -33q0 -46 27.5 -71t78.5 -25q48 0 111 18l6 -33q-74 -24 -141 -24q-57 0 -90 34t-33 91zM102 -260l33 158h41l-33 -158h-41z" />
<glyph unicode="&#x1e3a;" horiz-adv-x="1130" d="M377 1454h41l-301 -1413h866l-8 -41h-907zM219 -195l8 41h523l-9 -41h-522z" />
<glyph unicode="&#x1e3b;" horiz-adv-x="458" d="M74 115q0 27 4 43l284 1337h41l-284 -1337q-4 -24 -4 -33q0 -46 27.5 -71t78.5 -25q48 0 111 18l6 -33q-74 -24 -141 -24q-57 0 -90 34t-33 91zM-125 -195l8 41h523l-9 -41h-522z" />
<glyph unicode="&#x1e42;" horiz-adv-x="1732" d="M377 1454h33l397 -1118l872 1118h33l-309 -1454h-41l289 1364l-838 -1077h-33l-381 1077l-290 -1364h-41zM678 -260l33 158h41l-33 -158h-41z" />
<glyph unicode="&#x1e43;" horiz-adv-x="1773" d="M260 1063h41l-57 -275q95 138 213.5 214.5t238.5 76.5q125 0 189 -85t51 -236q74 151 205.5 236t267.5 85q231 0 231 -268q0 -98 -26 -219l-125 -592h-41l125 592q24 120 24 207q0 121 -49.5 180t-150.5 59q-138 0 -267 -101t-206 -267l-142 -670h-41l125 592 q27 126 27 213q0 119 -49 176t-150 57q-140 0 -268 -100t-207 -266l-143 -672h-41zM698 -260l33 158h41l-33 -158h-41z" />
<glyph unicode="&#x1e44;" horiz-adv-x="1521" d="M999 1722l33 158h41l-33 -158h-41zM377 1454h31l757 -1395l295 1393h41l-309 -1452h-45l-746 1374l-292 -1374h-41z" />
<glyph unicode="&#x1e45;" horiz-adv-x="1105" d="M711 1337l32 158h41l-32 -158h-41zM260 1063h41l-57 -275q89 129 230 210t276 81q114 0 169.5 -63t55.5 -195q0 -87 -29 -229l-125 -592h-41l125 592q27 129 27 219q0 116 -47 171.5t-144 55.5q-146 0 -296.5 -105t-225.5 -261l-143 -672h-41z" />
<glyph unicode="&#x1e46;" horiz-adv-x="1521" d="M377 1454h31l757 -1395l295 1393h41l-309 -1452h-45l-746 1374l-292 -1374h-41zM573 -260l33 158h41l-33 -158h-41z" />
<glyph unicode="&#x1e47;" horiz-adv-x="1105" d="M260 1063h41l-57 -275q89 129 230 210t276 81q114 0 169.5 -63t55.5 -195q0 -87 -29 -229l-125 -592h-41l125 592q27 129 27 219q0 116 -47 171.5t-144 55.5q-146 0 -296.5 -105t-225.5 -261l-143 -672h-41zM369 -260l32 158h41l-32 -158h-41z" />
<glyph unicode="&#x1e48;" horiz-adv-x="1521" d="M377 1454h31l757 -1395l295 1393h41l-309 -1452h-45l-746 1374l-292 -1374h-41zM346 -195l8 41h523l-9 -41h-522z" />
<glyph unicode="&#x1e49;" horiz-adv-x="1105" d="M260 1063h41l-57 -275q89 129 230 210t276 81q114 0 169.5 -63t55.5 -195q0 -87 -29 -229l-125 -592h-41l125 592q27 129 27 219q0 116 -47 171.5t-144 55.5q-146 0 -296.5 -105t-225.5 -261l-143 -672h-41zM141 -195l9 41h522l-8 -41h-523z" />
<glyph unicode="&#x1e4c;" horiz-adv-x="1486" d="M1079 2138l-26 25l155 149h68zM891 1821q-29 0 -53 -13t-38 -33t-20.5 -32t-9.5 -21h-39q1 6 6 19t18.5 34.5t31.5 39.5t49 31.5t67 13.5q50 0 113.5 -39t113.5 -39q30 0 54.5 9.5t38.5 22t24.5 28.5t14 24.5t4.5 13.5h39q-2 -8 -7.5 -21t-20 -34.5t-34 -38.5t-52.5 -30 t-73 -13q-39 0 -73 12t-54 27t-47 27t-53 12zM106 582q0 174 65 337t173 282t256 191t307 72q107 0 194.5 -33t147 -89.5t100.5 -133t59.5 -162t18.5 -178.5q0 -173 -65 -335t-173 -281t-256.5 -190.5t-307.5 -71.5q-132 0 -234 49t-163 133t-91.5 188t-30.5 222zM1386 868 q0 89 -17.5 169.5t-55 151.5t-93 122.5t-137 81.5t-180.5 30q-124 0 -241 -46t-209 -126.5t-161.5 -185.5t-107 -229.5t-37.5 -251.5q0 -112 28.5 -209.5t85.5 -175.5t152 -123t218 -45q156 0 298 71.5t241 188t157.5 268.5t58.5 309z" />
<glyph unicode="&#x1e4d;" horiz-adv-x="1148" d="M805 1753l-27 25l156 149h67zM616 1436q-29 0 -53 -13t-38 -33t-20 -31.5t-9 -21.5h-39q1 6 6 19t18.5 34.5t31.5 39.5t49 31.5t67 13.5q50 0 113.5 -39t113.5 -39q30 0 54.5 9.5t38.5 22t24 28.5t13.5 24.5t4.5 13.5h39q-3 -12 -12 -30t-29 -44.5t-58 -44.5t-87 -18 t-89 19.5t-73.5 39t-65.5 19.5zM61 420q0 135 51.5 258.5t135.5 210.5t194 138.5t224 51.5q124 0 212.5 -61t130.5 -159.5t42 -223.5q0 -133 -50.5 -255.5t-133 -209.5t-192.5 -138.5t-226 -51.5q-126 0 -215.5 60.5t-131 158t-41.5 221.5zM1010 627q0 177 -92 294t-261 117 q-105 0 -206 -48t-178 -129t-124 -195.5t-47 -239.5q0 -177 91.5 -291.5t261.5 -114.5q106 0 207 47.5t177.5 128t123.5 194t47 237.5z" />
<glyph unicode="&#x1e4e;" horiz-adv-x="1486" d="M958 2154l33 158h41l-33 -158h-41zM1186 2154l33 158h41l-33 -158h-41zM891 1821q-29 0 -53 -13t-38 -33t-20.5 -32t-9.5 -21h-39q1 6 6 19t18.5 34.5t31.5 39.5t49 31.5t67 13.5q50 0 113.5 -39t113.5 -39q30 0 54.5 9.5t38.5 22t24.5 28.5t14 24.5t4.5 13.5h39 q-2 -8 -7.5 -21t-20 -34.5t-34 -38.5t-52.5 -30t-73 -13q-39 0 -73 12t-54 27t-47 27t-53 12zM106 582q0 174 65 337t173 282t256 191t307 72q107 0 194.5 -33t147 -89.5t100.5 -133t59.5 -162t18.5 -178.5q0 -173 -65 -335t-173 -281t-256.5 -190.5t-307.5 -71.5 q-132 0 -234 49t-163 133t-91.5 188t-30.5 222zM1386 868q0 89 -17.5 169.5t-55 151.5t-93 122.5t-137 81.5t-180.5 30q-124 0 -241 -46t-209 -126.5t-161.5 -185.5t-107 -229.5t-37.5 -251.5q0 -112 28.5 -209.5t85.5 -175.5t152 -123t218 -45q156 0 298 71.5t241 188 t157.5 268.5t58.5 309z" />
<glyph unicode="&#x1e4f;" horiz-adv-x="1148" d="M684 1769l33 158h41l-33 -158h-41zM911 1769l33 158h41l-33 -158h-41zM616 1436q-29 0 -53 -13t-38 -33t-20 -31.5t-9 -21.5h-39q1 6 6 19t18.5 34.5t31.5 39.5t49 31.5t67 13.5q50 0 113.5 -39t113.5 -39q30 0 54.5 9.5t38.5 22t24 28.5t13.5 24.5t4.5 13.5h39 q-3 -12 -12 -30t-29 -44.5t-58 -44.5t-87 -18t-89 19.5t-73.5 39t-65.5 19.5zM61 420q0 135 51.5 258.5t135.5 210.5t194 138.5t224 51.5q124 0 212.5 -61t130.5 -159.5t42 -223.5q0 -133 -50.5 -255.5t-133 -209.5t-192.5 -138.5t-226 -51.5q-126 0 -215.5 60.5t-131 158 t-41.5 221.5zM1010 627q0 177 -92 294t-261 117q-105 0 -206 -48t-178 -129t-124 -195.5t-47 -239.5q0 -177 91.5 -291.5t261.5 -114.5q106 0 207 47.5t177.5 128t123.5 194t47 237.5z" />
<glyph unicode="&#x1e50;" horiz-adv-x="1486" d="M897 2263h66l94 -149l-37 -25zM743 1790l9 41h544l-8 -41h-545zM106 582q0 174 65 337t173 282t256 191t307 72q107 0 194.5 -33t147 -89.5t100.5 -133t59.5 -162t18.5 -178.5q0 -173 -65 -335t-173 -281t-256.5 -190.5t-307.5 -71.5q-132 0 -234 49t-163 133t-91.5 188 t-30.5 222zM1386 868q0 89 -17.5 169.5t-55 151.5t-93 122.5t-137 81.5t-180.5 30q-124 0 -241 -46t-209 -126.5t-161.5 -185.5t-107 -229.5t-37.5 -251.5q0 -112 28.5 -209.5t85.5 -175.5t152 -123t218 -45q156 0 298 71.5t241 188t157.5 268.5t58.5 309z" />
<glyph unicode="&#x1e51;" horiz-adv-x="1148" d="M623 1878h65l94 -149l-37 -25zM469 1405l8 41h545l-8 -41h-545zM61 420q0 135 51.5 258.5t135.5 210.5t194 138.5t224 51.5q124 0 212.5 -61t130.5 -159.5t42 -223.5q0 -133 -50.5 -255.5t-133 -209.5t-192.5 -138.5t-226 -51.5q-126 0 -215.5 60.5t-131 158t-41.5 221.5 zM1010 627q0 177 -92 294t-261 117q-105 0 -206 -48t-178 -129t-124 -195.5t-47 -239.5q0 -177 91.5 -291.5t261.5 -114.5q106 0 207 47.5t177.5 128t123.5 194t47 237.5z" />
<glyph unicode="&#x1e52;" horiz-adv-x="1486" d="M1069 2089l-27 25l156 149h68zM743 1790l9 41h544l-8 -41h-545zM106 582q0 174 65 337t173 282t256 191t307 72q107 0 194.5 -33t147 -89.5t100.5 -133t59.5 -162t18.5 -178.5q0 -173 -65 -335t-173 -281t-256.5 -190.5t-307.5 -71.5q-132 0 -234 49t-163 133t-91.5 188 t-30.5 222zM1386 868q0 89 -17.5 169.5t-55 151.5t-93 122.5t-137 81.5t-180.5 30q-124 0 -241 -46t-209 -126.5t-161.5 -185.5t-107 -229.5t-37.5 -251.5q0 -112 28.5 -209.5t85.5 -175.5t152 -123t218 -45q156 0 298 71.5t241 188t157.5 268.5t58.5 309z" />
<glyph unicode="&#x1e53;" horiz-adv-x="1148" d="M795 1704l-27 25l156 149h67zM469 1405l8 41h545l-8 -41h-545zM61 420q0 135 51.5 258.5t135.5 210.5t194 138.5t224 51.5q124 0 212.5 -61t130.5 -159.5t42 -223.5q0 -133 -50.5 -255.5t-133 -209.5t-192.5 -138.5t-226 -51.5q-126 0 -215.5 60.5t-131 158t-41.5 221.5z M1010 627q0 177 -92 294t-261 117q-105 0 -206 -48t-178 -129t-124 -195.5t-47 -239.5q0 -177 91.5 -291.5t261.5 -114.5q106 0 207 47.5t177.5 128t123.5 194t47 237.5z" />
<glyph unicode="&#x1e5a;" horiz-adv-x="1261" d="M68 0l309 1454h563q138 0 221.5 -108t83.5 -254q0 -123 -61.5 -240.5t-167 -194.5t-225.5 -86l227 -571h-49l-228 571h-512l-120 -571h-41zM774 612q115 0 216 72.5t157.5 181t56.5 219.5q0 135 -76.5 231.5t-197.5 96.5h-520l-170 -801h534zM430 -260l33 158h41 l-33 -158h-41z" />
<glyph unicode="&#x1e5b;" horiz-adv-x="649" d="M260 1063h41l-57 -275q81 122 189.5 192t221.5 81q12 2 39 2l-8 -41q-145 -6 -269.5 -99t-197.5 -251l-143 -672h-41zM-12 -260l32 158h41l-32 -158h-41z" />
<glyph unicode="&#x1e5e;" horiz-adv-x="1261" d="M68 0l309 1454h563q138 0 221.5 -108t83.5 -254q0 -123 -61.5 -240.5t-167 -194.5t-225.5 -86l227 -571h-49l-228 571h-512l-120 -571h-41zM774 612q115 0 216 72.5t157.5 181t56.5 219.5q0 135 -76.5 231.5t-197.5 96.5h-520l-170 -801h534zM203 -195l8 41h522l-8 -41 h-522z" />
</font>
</defs>
</svg>
