<?xml version="1.0" standalone="no"?>
<!DOCTYPE svg PUBLIC "-//W3C//DTD SVG 1.1//EN" "http://www.w3.org/Graphics/SVG/1.1/DTD/svg11.dtd" >
<svg xmlns="http://www.w3.org/2000/svg" xmlns:xlink="http://www.w3.org/1999/xlink" version="1.1">
<metadata></metadata>
<defs>
<font id="rawlinebold" horiz-adv-x="0" >
<font-face units-per-em="2048" ascent="1638" descent="-410" />
<missing-glyph horiz-adv-x="491" />
<glyph unicode="fi" horiz-adv-x="1163" d="M190 807h-141v209h141v65q0 185 119 310t318 125q194 0 397 -134l-109 -204q-56 47 -127.5 75.5t-142.5 28.5q-87 0 -133.5 -54.5t-46.5 -135.5v-76h575v-1016h-274v807h-301v-807h-275v807z" />
<glyph unicode="fl" horiz-adv-x="1345" d="M1090 -16q-124 0 -197.5 66.5t-73.5 172.5v836q0 50 -7.5 87.5t-26 69.5t-53.5 49t-85 17q-179 0 -182 -229v-37h178v-209h-178v-807h-275v807h-141v209h141v90q0 197 118.5 303.5t330.5 106.5q226 0 340.5 -107.5t114.5 -294.5v-762q0 -123 86 -123q56 0 133 31l37 -221 q-37 -17 -114.5 -36t-145.5 -19z" />
<glyph unicode="&#xd;" />
<glyph unicode=" "  horiz-adv-x="491" />
<glyph unicode="&#x09;" horiz-adv-x="491" />
<glyph unicode="&#xa0;" horiz-adv-x="491" />
<glyph unicode="!" horiz-adv-x="628" d="M178 547v921h275v-921h-275zM178 0v309h275v-309h-275z" />
<glyph unicode="&#x22;" horiz-adv-x="804" d="M125 1022v459h233v-459h-233zM446 1022v459h234v-459h-234z" />
<glyph unicode="#" horiz-adv-x="1476" d="M1403 868h-299l-66 -280h269v-205h-318l-94 -383h-221l96 383h-246l-92 -383h-221l94 383h-229v205h278l68 280h-250v193h297l96 393h221l-98 -393h246l94 393h221l-96 -393h250v-193zM819 588l66 280h-244l-68 -280h246z" />
<glyph unicode="$" horiz-adv-x="1298" d="M1219 416q0 -87 -26 -157.5t-71 -119t-108 -82.5t-134 -50.5t-153 -20.5v-226h-137v228q-141 12 -276 60t-244 124l125 244q43 -43 163.5 -100t249.5 -74v354l-67 18q-109 31 -182 63.5t-127 78.5t-78.5 107.5t-24.5 144.5q0 197 128 315.5t333 138.5v207h137v-207 q231 -19 440 -159l-125 -230q-32 35 -131 81.5t-204 57.5v-354l45 -12q93 -24 159.5 -47.5t128 -59t98.5 -79t59 -105t22 -139.5zM420 1053q0 -64 44 -100.5t144 -67.5v329q-93 -7 -140.5 -48.5t-47.5 -112.5zM707 238q211 9 211 149q0 66 -51 105t-160 75v-329z" />
<glyph unicode="%" horiz-adv-x="1609" d="M72 1165q0 129 98.5 219.5t239.5 90.5t239.5 -90.5t98.5 -219.5q0 -130 -98.5 -220.5t-239.5 -90.5t-239.5 90.5t-98.5 220.5zM186 96l578 674l532 700l125 -110l-561 -664l-549 -710zM555 1165q0 70 -43 121t-102 51q-60 0 -103 -51.5t-43 -120.5q0 -72 43 -123t103 -51 t102.5 51.5t42.5 122.5zM862 289q0 130 98.5 220.5t239.5 90.5q142 0 240 -90t98 -221q0 -129 -98 -219t-240 -90q-141 0 -239.5 90t-98.5 219zM1346 289q0 71 -43.5 122.5t-102.5 51.5q-60 0 -102.5 -51.5t-42.5 -122.5q0 -70 43 -121t102 -51q60 0 103 51.5t43 120.5z" />
<glyph unicode="&#x26;" horiz-adv-x="1458" d="M1458 0h-360l-115 121q-182 -141 -410 -141q-219 0 -355 126.5t-136 305.5q0 220 250 403q-85 96 -119.5 164.5t-34.5 144.5q0 155 114 252t286 97q103 0 189.5 -35t142 -110t55.5 -177q0 -111 -65 -200.5t-183 -172.5l278 -293q66 142 66 312h223q0 -272 -127 -482z M578 1270q-65 0 -107.5 -39.5t-42.5 -97.5q0 -33 23.5 -66.5t97.5 -112.5q86 56 125 98.5t39 94.5q0 55 -38 89t-97 34zM600 195q126 0 236 84l-336 356q-76 -58 -115 -110.5t-39 -114.5q0 -89 72.5 -152t181.5 -63z" />
<glyph unicode="'" horiz-adv-x="481" d="M125 1022v459h233v-459h-233z" />
<glyph unicode="(" horiz-adv-x="634" d="M375 1550l209 -88q-36 -55 -77 -136t-83.5 -184t-70 -220.5t-27.5 -216.5q0 -281 252 -713l-201 -101q-307 459 -307 820q0 190 78.5 389t226.5 450z" />
<glyph unicode=")" horiz-adv-x="632" d="M256 -109l-201 101q252 423 252 713q0 99 -27.5 216.5t-70 220.5t-83.5 184t-77 136l211 88q147 -249 225 -448.5t78 -390.5q0 -361 -307 -820z" />
<glyph unicode="*" horiz-adv-x="706" d="M154 1065l96 145l-146 45l37 119l150 -63l-10 157h145l-10 -157l147 63l37 -119l-143 -45l96 -145l-107 -70l-92 154l-94 -154z" />
<glyph unicode="+" horiz-adv-x="862" d="M766 838v-222h-211v-231h-248v231h-211v222h211v231h248v-231h211z" />
<glyph unicode="," horiz-adv-x="475" d="M150 -236l55 244h-86v287h237v-287l-84 -244h-122z" />
<glyph unicode="-" horiz-adv-x="856" d="M119 438v248h620v-248h-620z" />
<glyph unicode="." horiz-adv-x="460" d="M119 0v295h225v-295h-225z" />
<glyph unicode="/" horiz-adv-x="1429" d="M1374 1454l-1016 -1454h-303l1014 1454h305z" />
<glyph unicode="0" horiz-adv-x="1435" d="M86 717q0 132 45 263t124 236.5t200.5 171.5t261.5 66q121 0 226 -46t178 -122t126 -172.5t78 -198t25 -198.5q0 -106 -28 -212t-83 -200t-130 -166.5t-176.5 -115t-215.5 -43.5q-120 1 -224.5 46.5t-178 120t-126 170.5t-77.5 198t-25 202zM717 229q87 0 156.5 47 t109.5 121t61 156.5t21 163.5q0 87 -23 172t-65 156t-110 115t-150 44q-70 0 -128.5 -31t-98 -81t-67 -115t-40 -130.5t-12.5 -129.5q2 -88 24 -172.5t62.5 -156t108 -115.5t151.5 -44z" />
<glyph unicode="1" horiz-adv-x="1003" d="M958 248v-248h-823v248h283v946q-38 -53 -145.5 -114.5t-184.5 -61.5v254q41 0 89.5 19.5t88.5 47t75.5 57t55 49t21.5 23.5h280v-1220h260z" />
<glyph unicode="2" horiz-adv-x="1245" d="M84 0q0 249 68 389t235 242q38 23 97.5 54t102 53t91.5 54.5t79.5 63.5t51 75t20.5 95q0 90 -57.5 144.5t-157.5 54.5q-105 0 -195.5 -51.5t-156.5 -122.5l-172 180q32 37 80 75t118 77.5t165 64.5t196 25q232 0 361 -120.5t129 -314.5q0 -72 -21.5 -134.5t-52 -106.5 t-82.5 -88t-94.5 -71t-106.5 -63q-137 -73 -213.5 -129.5t-104.5 -97t-48 -100.5h725v-248h-1057z" />
<glyph unicode="3" horiz-adv-x="1198" d="M557 -14q-173 0 -300 66t-189 184l147 186q34 -77 121.5 -130.5t210.5 -53.5q126 0 200 53t74 147q0 103 -94.5 157t-271.5 54h-68v205h72q150 0 237.5 51.5t87.5 145.5q0 84 -65 134t-160 50q-101 0 -179.5 -47t-121.5 -125l-178 199q65 96 204 153.5t296 57.5 q218 0 357.5 -108.5t139.5 -274.5q0 -124 -74.5 -212t-199.5 -116q134 -23 218.5 -126.5t84.5 -242.5q0 -125 -72.5 -218.5t-196.5 -141t-280 -47.5z" />
<glyph unicode="4" horiz-adv-x="1200" d="M666 0v330h-613v245l699 879h188v-876h180v-248h-180v-330h-274zM330 578h366v462z" />
<glyph unicode="5" horiz-adv-x="1165" d="M551 -20q-158 0 -283.5 67t-193.5 186l157 164q59 -80 145 -127t177 -47q111 0 181.5 68t70.5 176q0 104 -67 171t-169 67q-66 0 -125 -30.5t-94 -84.5h-239l168 864h716v-250h-518l-57 -325q54 61 188 61q207 0 343 -131.5t136 -335.5q0 -218 -151.5 -355.5 t-384.5 -137.5z" />
<glyph unicode="6" horiz-adv-x="1243" d="M653 971q-101 0 -181.5 -42.5t-123.5 -117.5q4 195 86 305.5t219 110.5q89 0 167 -43.5t128 -120.5l158 172q-79 110 -195.5 169.5t-253.5 59.5q-263 0 -413 -212.5t-150 -604.5q0 -313 143 -490t392 -177q148 0 270.5 67t192 182.5t69.5 255.5q0 135 -66.5 246.5 t-183.5 175.5t-258 64zM362 485q0 111 78.5 189t190.5 78q109 0 188.5 -78.5t79.5 -188.5q0 -112 -80 -193t-188 -81q-109 0 -189 82t-80 192z" />
<glyph unicode="7" horiz-adv-x="1153" d="M729 1204h-659v250h1093l-723 -1454h-311z" />
<glyph unicode="8" horiz-adv-x="1236" d="M616 -18q-221 0 -373.5 130t-152.5 328q0 113 67.5 201.5t159.5 136.5q-78 38 -130 113t-52 160q0 93 44 171.5t115 128t155 76.5t169 27q67 0 135 -16t131.5 -50t112 -80.5t78 -112.5t29.5 -142q0 -86 -54.5 -162.5t-134.5 -112.5q99 -49 165.5 -139.5t66.5 -208.5 q0 -131 -72.5 -234.5t-193 -158.5t-265.5 -55zM618 870q78 0 141.5 47.5t63.5 126.5q0 73 -60 119.5t-147 46.5q-85 0 -143.5 -47t-58.5 -121q0 -80 62.5 -126t141.5 -46zM616 664q-101 0 -174 -61t-73 -157q0 -95 75.5 -156t173.5 -61q99 0 174.5 62.5t75.5 154.5 q0 98 -75.5 158t-176.5 60z" />
<glyph unicode="9" horiz-adv-x="1243" d="M590 475q100 0 181 43t124 117q-3 -196 -85 -306t-220 -110q-90 0 -167.5 43.5t-127.5 120.5l-158 -172q80 -111 196.5 -171t252.5 -60q262 0 412.5 213.5t150.5 605.5q0 313 -143.5 489t-391.5 176q-111 0 -210 -39.5t-169.5 -106.5t-111.5 -161t-41 -199 q0 -204 146.5 -343.5t361.5 -139.5zM883 958q0 -109 -79.5 -186.5t-189.5 -77.5t-189 78.5t-79 188.5q0 111 79 192.5t187 81.5q109 0 190 -82.5t81 -194.5z" />
<glyph unicode=":" horiz-adv-x="505" d="M141 766v295h224v-295h-224zM141 0v295h224v-295h-224z" />
<glyph unicode=";" horiz-adv-x="530" d="M147 766v295h226v-295h-226zM176 -236l55 244h-86v287h240v-287l-84 -244h-125z" />
<glyph unicode="&#x3c;" horiz-adv-x="1054" d="M66 590l864 522v-291l-465 -291l465 -278v-307l-864 512v133z" />
<glyph unicode="=" horiz-adv-x="892" d="M127 657v179h641v-179h-641zM127 295v178h641v-178h-641z" />
<glyph unicode="&#x3e;" horiz-adv-x="1054" d="M989 457l-864 -512v307l465 278l-465 291v291l864 -522v-133z" />
<glyph unicode="?" horiz-adv-x="995" d="M250 477q0 110 36 187t132 133q12 7 47.5 26.5t59 33t56.5 38.5t53 49t35 58t15 71q0 81 -57.5 128.5t-137.5 47.5q-141 0 -241 -164l-178 123q53 124 169.5 194.5t258.5 70.5q81 0 154.5 -24t135.5 -70.5t99 -126.5t37 -183q0 -122 -54 -200t-161 -144 q-19 -12 -54.5 -32t-55.5 -32t-47 -33t-41.5 -40.5t-25 -48t-10.5 -62.5h-225zM254 0v283h227v-283h-227z" />
<glyph unicode="@" horiz-adv-x="1730" d="M1628 455q0 -32 -1.5 -64t-9 -83t-20 -94.5t-36 -90.5t-56 -80t-82 -54.5t-110.5 -21.5q-173 0 -195 168q-64 -64 -155.5 -101.5t-192.5 -37.5q-149 0 -231 79t-82 208q0 81 33 141t89.5 93.5t121.5 49t139 15.5q128 0 231 -45q0 122 -51.5 186.5t-181.5 64.5 q-165 0 -273 -90l-53 146q153 102 352 102q74 0 132 -14.5t96.5 -37t66 -59t42 -70.5t22.5 -81.5t10 -82.5t2 -83v-196q0 -54 3 -89t12.5 -71t32 -54t56.5 -18q42 0 74.5 28t50.5 68.5t30 93.5t15.5 96t3.5 83q0 189 -82 340.5t-232.5 238t-342.5 86.5q-190 0 -339.5 -84 t-232.5 -232.5t-83 -336.5q0 -182 77.5 -332t223 -238.5t332.5 -88.5q89 0 159.5 19t159.5 58l33 -106q-168 -82 -357 -82q-153 0 -289 56.5t-236.5 156t-159 244.5t-58.5 313q0 142 41.5 265.5t114.5 213.5t171 155t213 97.5t238 32.5q121 0 233.5 -32t209 -97.5t168 -157 t112.5 -218.5t41 -275zM1069 330v78q-133 43 -229 43q-101 0 -160 -39t-59 -123q0 -70 44 -111t121 -41q102 0 179 41q104 49 104 152z" />
<glyph unicode="A" horiz-adv-x="1376" d="M547 1454h287l534 -1454h-291l-135 362h-508l-133 -362h-291zM891 561l-201 600l-209 -600h410z" />
<glyph unicode="B" horiz-adv-x="1392" d="M854 0h-702v1454h778q98 0 176 -55.5t117 -139t39 -176.5q0 -109 -55 -202t-154 -136q126 -37 198 -133.5t72 -236.5q0 -118 -64.5 -204.5t-169.5 -128.5t-235 -42zM434 1212v-366h377q73 0 122.5 50t49.5 134q0 82 -45.5 132t-114.5 50h-389zM868 623h-434v-383h420 q76 0 130 55t54 133q0 80 -49.5 137.5t-120.5 57.5z" />
<glyph unicode="C" horiz-adv-x="1404" d="M780 1462q195 0 344.5 -86t221.5 -231l-218 -150q-35 78 -97 128.5t-125.5 69.5t-133.5 19q-102 0 -184.5 -42.5t-133 -112.5t-77.5 -154.5t-27 -173.5q0 -129 53 -241t152 -181t221 -69q70 0 137 21.5t128.5 73t93.5 126.5l231 -133q-43 -104 -141.5 -182.5t-217 -117 t-239.5 -38.5t-232 42t-195.5 115.5t-148 168t-96.5 204t-33 219.5q0 134 49.5 263t138.5 232t227 166.5t302 63.5z" />
<glyph unicode="D" horiz-adv-x="1466" d="M152 0v1454h528q173 0 311.5 -56.5t226 -156t133.5 -230t46 -282.5q0 -331 -195.5 -530t-521.5 -199h-528zM680 1206h-246v-958h246q203 0 317.5 134.5t114.5 346.5q0 215 -115 346t-317 131z" />
<glyph unicode="E" horiz-adv-x="1230" d="M1161 248v-248h-1009v1454h991v-248h-709v-350h613v-229h-613v-379h727z" />
<glyph unicode="F" horiz-adv-x="1175" d="M152 0v1454h976v-248h-694v-375h578v-229h-578v-602h-282z" />
<glyph unicode="G" horiz-adv-x="1484" d="M868 748h527v-748h-234v166q-176 -176 -405 -176q-189 0 -347.5 98t-250.5 269.5t-92 377.5q0 147 54.5 281t148 232.5t225.5 157t280 58.5q200 0 348.5 -84.5t223.5 -232.5l-211 -156q-55 106 -154 164.5t-217 58.5q-121 0 -216.5 -67t-146.5 -178t-51 -242 q0 -207 122.5 -347t307.5 -140q211 0 381 200v101h-293v207z" />
<glyph unicode="H" horiz-adv-x="1525" d="M1374 1454v-1454h-280v621h-660v-621h-282v1454h282v-588h660v588h280z" />
<glyph unicode="I" horiz-adv-x="585" d="M152 0v1454h282v-1454h-282z" />
<glyph unicode="J" horiz-adv-x="1005" d="M78 297q35 -25 103.5 -47.5t150.5 -22.5q65 0 110 18t74 51t44.5 92.5t21.5 129.5t6 174v762h282v-739q0 -102 -4.5 -179.5t-18.5 -158t-38 -137.5t-64.5 -109.5t-96.5 -84.5t-135 -50.5t-179 -18.5q-187 0 -320 91z" />
<glyph unicode="K" horiz-adv-x="1370" d="M152 0v1452h282v-690l610 692h312l-557 -645l592 -809h-320l-453 627l-184 -193v-434h-282z" />
<glyph unicode="L" horiz-adv-x="1196" d="M152 0v1454h282v-1206h742v-248h-1024z" />
<glyph unicode="M" horiz-adv-x="1771" d="M1337 0v954l-372 -710h-158l-373 710v-954h-282v1454h303l430 -827l434 827h301v-1454h-283z" />
<glyph unicode="N" horiz-adv-x="1562" d="M434 934v-934h-282v1454h225l751 -958v956h283v-1452h-235z" />
<glyph unicode="O" horiz-adv-x="1548" d="M63 727q0 144 54.5 278.5t148 235.5t227.5 162t285 61q123 0 235 -41.5t196 -114t146.5 -166t95 -201.5t32.5 -218q0 -143 -54 -276.5t-146.5 -234.5t-226 -161.5t-284.5 -60.5q-124 0 -236 40.5t-197 111.5t-148 164t-95.5 201.5t-32.5 219.5zM774 240q99 0 181 42 t134 111.5t80.5 156t28.5 177.5q0 128 -50.5 237.5t-149 178.5t-224.5 69q-99 0 -181 -42t-134 -111t-80.5 -155t-28.5 -177q0 -128 49 -237.5t147.5 -179.5t227.5 -70z" />
<glyph unicode="P" horiz-adv-x="1275" d="M152 0v1454h616q97 0 184.5 -42t148 -110t95.5 -155t35 -176q0 -125 -56 -235t-161.5 -179.5t-235.5 -69.5h-344v-487h-282zM434 735h328q79 0 130.5 65t51.5 171q0 108 -57.5 171.5t-136.5 63.5h-316v-471z" />
<glyph unicode="Q" horiz-adv-x="1546" d="M1491 0h-266l-84 94q-167 -104 -369 -104q-124 1 -236 41.5t-197 111.5t-148 163.5t-95.5 201t-32.5 219.5q0 144 54.5 278.5t148 235.5t227.5 162t285 61q123 0 235 -41.5t196 -114t146.5 -166t95 -201.5t32.5 -218q0 -139 -50 -269.5t-141 -230.5zM774 240 q108 0 195 49l-224 250h267l100 -113q86 130 86 301q0 128 -50.5 238t-149 179.5t-224.5 69.5q-99 0 -181 -42t-134 -111.5t-80.5 -156t-28.5 -177.5q0 -128 49 -237.5t147.5 -179.5t227.5 -70z" />
<glyph unicode="R" horiz-adv-x="1361" d="M152 0v1454h643q129 0 237 -71.5t166.5 -181.5t58.5 -230q0 -140 -71.5 -256.5t-190.5 -167.5l332 -547h-311l-299 487h-283v-487h-282zM434 735h354q78 0 131.5 68.5t53.5 167.5t-60 167t-137 68h-342v-471z" />
<glyph unicode="S" horiz-adv-x="1255" d="M1018 1073q-37 41 -156 92.5t-235 51.5q-114 0 -173 -42.5t-59 -121.5q0 -22 4.5 -40.5t17 -34.5t25 -28t38 -24t45.5 -20.5t58.5 -20t65.5 -19t78 -20.5q93 -24 159.5 -47.5t128 -59t98.5 -79t59 -105t22 -139.5q0 -113 -43.5 -198.5t-120 -135.5t-170.5 -74t-205 -24 q-163 0 -323.5 49.5t-286.5 138.5l125 244q52 -52 197.5 -115t291.5 -63q115 0 174.5 38.5t59.5 110.5q0 45 -20.5 76.5t-78 58.5t-100.5 41t-146 42q-7 2 -11 3t-10 3t-11 3q-109 31 -182 63.5t-127 78.5t-78.5 107.5t-24.5 144.5q0 144 72 249t190.5 156t268.5 51 q270 0 508 -161z" />
<glyph unicode="T" horiz-adv-x="1267" d="M1239 1206h-465v-1206h-280v1206h-465v248h1210v-248z" />
<glyph unicode="U" horiz-adv-x="1536" d="M768 -10q-135 0 -244 39.5t-181.5 106.5t-121 160t-69.5 196.5t-21 220.5v741h283v-741q0 -96 18.5 -177.5t58 -149.5t110 -107t165.5 -39q97 0 168.5 39.5t111 108.5t58 149.5t18.5 175.5v741h281v-741q0 -153 -37 -281t-111.5 -228.5t-199 -157t-287.5 -56.5z" />
<glyph unicode="V" horiz-adv-x="1384" d="M301 1454l393 -1118l389 1118h297l-551 -1454h-272l-553 1454h297z" />
<glyph unicode="W" horiz-adv-x="2156" d="M649 1450h262l166 -481l168 481h260l-250 -662l185 -462l411 1128h308l-582 -1454h-244l-256 610l-254 -610h-243l-580 1454h303l414 -1128l180 462z" />
<glyph unicode="X" horiz-adv-x="1323" d="M303 1454l361 -536l358 536h307l-504 -737l488 -717h-307l-342 516l-345 -516h-309l488 717l-504 737h309z" />
<glyph unicode="Y" horiz-adv-x="1351" d="M315 1454l359 -684l364 684h305l-528 -946v-508h-280v512l-527 942h307z" />
<glyph unicode="Z" horiz-adv-x="1284" d="M61 213l811 993h-788v248h1124v-213l-784 -993h790v-248h-1153v213z" />
<glyph unicode="[" horiz-adv-x="647" d="M168 -82v1598h383v-220h-129v-1159h129v-219h-383z" />
<glyph unicode="\" horiz-adv-x="1304" d="M360 1454l891 -1454h-303l-893 1454h305z" />
<glyph unicode="]" horiz-adv-x="647" d="M94 -82v219h131v1159h-131v220h385v-1598h-385z" />
<glyph unicode="^" horiz-adv-x="1198" d="M80 621l405 833h230l403 -833h-225l-293 602l-299 -602h-221z" />
<glyph unicode="_" horiz-adv-x="972" d="M111 -248v248h751v-248h-751z" />
<glyph unicode="`" horiz-adv-x="522" d="M96 1495h254l113 -244l-176 -53z" />
<glyph unicode="a" horiz-adv-x="1175" d="M51 317q0 156 128 252.5t333 96.5q154 0 258 -43v57q0 103 -60.5 158t-179.5 55q-86 0 -164 -29.5t-171 -91.5l-89 180q215 140 453 140q230 0 357.5 -115t127.5 -328v-342q0 -44 15 -62.5t51 -21.5v-223q-69 -14 -117 -14q-79 0 -122.5 34.5t-53.5 92.5l-6 55 q-69 -89 -173.5 -138.5t-213.5 -49.5q-161 0 -267 96t-106 241zM719 262q51 51 51 94v109q-105 43 -215 43q-108 0 -176 -46.5t-68 -121.5q0 -65 52 -112.5t139 -47.5q61 0 119.5 22.5t97.5 59.5z" />
<glyph unicode="b" horiz-adv-x="1298" d="M365 186v-186h-240v1495h274v-610q58 99 152.5 153t216.5 54q136 0 244.5 -77t166.5 -204.5t58 -278.5q0 -153 -65 -279.5t-180.5 -199.5t-256.5 -73q-121 0 -217.5 54.5t-152.5 151.5zM956 530q0 134 -80 231t-200 97q-88 0 -162.5 -59t-114.5 -150v-256 q27 -79 103 -129.5t157 -50.5q129 0 213 92.5t84 224.5z" />
<glyph unicode="c" horiz-adv-x="1155" d="M625 -20q-127 0 -235 45.5t-180 122t-112.5 177.5t-40.5 212q0 151 67.5 276t198 202t300.5 77t296 -74t189 -201l-268 -82q-34 58 -92 90.5t-127 32.5q-120 0 -200.5 -90t-80.5 -231q0 -139 82 -231.5t199 -92.5q73 0 135.5 36t87.5 91l268 -82q-57 -125 -186 -201.5 t-301 -76.5z" />
<glyph unicode="d" horiz-adv-x="1320" d="M59 537q0 153 61 280t171.5 201t247.5 74q115 0 210.5 -56.5t151.5 -150.5v610h275v-1188q0 -44 14 -62.5t49 -21.5v-223q-71 -14 -117 -14q-73 0 -121.5 36.5t-54.5 96.5l-4 67q-58 -99 -159 -152.5t-214 -53.5q-146 0 -263 74t-182 201.5t-65 281.5zM901 393v256 q-34 89 -113.5 149t-162.5 60q-121 0 -201 -97.5t-80 -230.5q0 -134 84.5 -225.5t212.5 -91.5q80 0 156.5 51.5t103.5 128.5z" />
<glyph unicode="e" horiz-adv-x="1226" d="M623 -20q-168 0 -299 76t-199 200.5t-68 273.5q0 153 68 280.5t199 204.5t301 77q128 0 234.5 -45t177 -121.5t109 -175.5t38.5 -209q0 -57 -6 -92h-830q10 -122 92 -195.5t193 -73.5q83 0 155.5 40.5t98.5 105.5l235 -66q-60 -126 -192.5 -203t-306.5 -77zM342 623h561 q-12 121 -90.5 195.5t-191.5 74.5q-111 0 -190 -75t-89 -195z" />
<glyph unicode="f" horiz-adv-x="757" d="M190 0v807h-141v209h141v65q0 199 97.5 317t261.5 118q130 0 264 -64l-55 -207q-70 39 -150 39q-70 0 -106.5 -49t-36.5 -143v-76h262v-209h-262v-807h-275z" />
<glyph unicode="g" horiz-adv-x="1298" d="M61 537q0 154 63 280.5t178 200.5t259 74q121 0 216 -55t159 -152v188h240v-1022q0 -155 -77.5 -271.5t-212 -176.5t-306.5 -60q-169 0 -290.5 57t-211.5 167l149 145q62 -75 155.5 -118.5t197.5 -43.5q66 0 123 18t102 53.5t70.5 94.5t25.5 135v135q-53 -91 -149 -141.5 t-207 -50.5q-140 0 -251.5 74t-172 198t-60.5 271zM901 393v256q-36 93 -114.5 151t-165.5 58q-122 0 -200.5 -98.5t-78.5 -231.5t85 -224t210 -91q87 0 160.5 52t103.5 128z" />
<glyph unicode="h" horiz-adv-x="1236" d="M1122 0h-274v602q0 124 -47 186t-133 62q-78 0 -158.5 -64t-110.5 -159v-627h-274v1495h274v-621q60 103 162 160.5t223 57.5q338 0 338 -422v-670z" />
<glyph unicode="i" horiz-adv-x="522" d="M125 1223v272h274v-272h-274zM125 0v1073h274v-1073h-274z" />
<glyph unicode="j" horiz-adv-x="534" d="M135 1223v272h275v-272h-275zM-236 -305l119 186q45 -45 121 -45q55 0 93 38t38 97v1102h275v-1081q0 -171 -107 -282t-266 -111q-165 0 -273 96z" />
<glyph unicode="k" horiz-adv-x="1142" d="M858 0l-313 463l-146 -144v-319h-274v1495h274v-905l432 481h291l-399 -455l428 -616h-293z" />
<glyph unicode="l" horiz-adv-x="649" d="M123 1495h274v-1151q0 -71 23 -98t69 -27q66 0 129 29l37 -209q-54 -25 -127 -40t-135 -15q-128 0 -199 69t-71 195v1247z" />
<glyph unicode="m" horiz-adv-x="1906" d="M1792 0h-274v602q0 125 -43 186.5t-123 61.5q-82 0 -153.5 -63t-102.5 -162v-625h-275v602q0 248 -166 248q-81 0 -153.5 -62t-102.5 -161v-627h-274v1073h248v-199q60 104 163.5 161t235.5 57q127 0 204 -63.5t99 -164.5q65 110 166.5 169t228.5 59q322 0 322 -422v-670 z" />
<glyph unicode="n" horiz-adv-x="1236" d="M1122 0h-274v602q0 248 -170 248q-85 0 -167 -64t-112 -159v-627h-274v1073h248v-199q60 102 173.5 160t252.5 58q78 0 136.5 -24.5t93.5 -63.5t56.5 -96t29 -113.5t7.5 -124.5v-670z" />
<glyph unicode="o" horiz-adv-x="1241" d="M57 535q0 112 40 213t111 177.5t178.5 121.5t234.5 45q169 0 298.5 -77.5t196 -203t66.5 -276.5q0 -111 -39 -211.5t-109.5 -177t-177.5 -121.5t-235 -45q-103 0 -193 29.5t-157 81.5t-116 121.5t-73.5 152t-24.5 170.5zM621 213q119 0 199.5 92t80.5 232 q0 139 -80.5 230t-199.5 91t-200 -92t-81 -231q0 -140 80.5 -231t200.5 -91z" />
<glyph unicode="p" horiz-adv-x="1298" d="M399 188v-624h-274v1509h240v-184q61 96 156 149.5t214 53.5q141 0 257 -75t180.5 -201.5t64.5 -276.5q0 -155 -60 -283t-168 -202t-241 -74q-123 0 -218.5 55t-150.5 153zM956 539q0 135 -85 227t-212 92q-80 0 -156.5 -51.5t-103.5 -128.5v-252q37 -92 114 -152.5 t163 -60.5q121 0 200.5 97t79.5 229z" />
<glyph unicode="q" horiz-adv-x="1298" d="M61 539q0 153 65.5 279.5t181 200t255.5 73.5q120 0 215.5 -55t155.5 -150v186h240v-1509h-275v624q-60 -102 -154 -155t-215 -53q-134 0 -242 75t-167.5 203t-59.5 281zM899 389v254q-23 90 -103 152.5t-167 62.5q-123 0 -205 -97.5t-82 -230.5q0 -135 81.5 -226 t209.5 -91q163 0 266 176z" />
<glyph unicode="r" horiz-adv-x="792" d="M764 836q-128 -2 -225.5 -50t-139.5 -137v-649h-274v1073h252v-229q57 109 145.5 174t186.5 69q43 0 55 -2v-249z" />
<glyph unicode="s" horiz-adv-x="1011" d="M520 -20q-139 0 -264 46t-213 132l98 178q192 -152 369 -152q81 0 128.5 29.5t47.5 85.5q0 13 -2.5 23.5t-10 20t-13.5 16.5t-21 14.5t-25 12t-32 12t-34.5 11t-41.5 12t-45 13.5q-79 25 -129.5 45t-98.5 47t-74 57t-41.5 71t-15.5 94q0 158 119 252t316 94 q241 0 403 -152l-111 -174q-160 123 -305 123q-72 0 -119 -26t-47 -85q0 -53 42 -78.5t153 -56.5q89 -26 141 -44.5t107.5 -46.5t84 -58.5t46.5 -74.5t18 -102q0 -158 -116.5 -248.5t-313.5 -90.5z" />
<glyph unicode="t" horiz-adv-x="786" d="M768 55q-164 -73 -303 -73q-59 0 -108 15t-88 45.5t-61 82.5t-22 121v616h-141v211h141v348h275v-348h225v-211h-225v-524q3 -105 102 -105q58 0 150 39z" />
<glyph unicode="u" horiz-adv-x="1265" d="M115 401v672h274v-612q0 -248 178 -248q83 0 157 50t120 145v665h274v-766q0 -44 15 -62.5t51 -21.5v-223q-66 -12 -119 -12q-74 0 -120.5 33.5t-53.5 93.5l-6 86q-71 -109 -183 -165t-249 -56q-166 0 -252 107t-86 314z" />
<glyph unicode="v" horiz-adv-x="1126" d="M414 0l-396 1073h285l270 -823l273 823h260l-393 -1073h-299z" />
<glyph unicode="w" horiz-adv-x="1718" d="M1456 1073h260l-448 -1073h-230l-180 461l-176 -461h-231l-447 1073h258l320 -811l125 350l-187 459h228l110 -328l113 328h227l-186 -459l127 -350z" />
<glyph unicode="x" horiz-adv-x="1087" d="M301 1073l225 -336l17 -37l20 37l223 336h289l-373 -534l379 -539h-288l-232 334l-18 35l-17 -35l-229 -334h-289l379 532l-373 541h287z" />
<glyph unicode="y" horiz-adv-x="1126" d="M147 -209q78 -20 123 -20q56 0 90.5 47t75.5 182l-424 1073h285l289 -792l254 792h262l-451 -1286q-38 -114 -135 -185t-231 -71q-68 0 -138 23v237z" />
<glyph unicode="z" horiz-adv-x="1009" d="M53 168l592 713h-567v192h862v-168l-588 -712h598v-193h-897v168z" />
<glyph unicode="{" horiz-adv-x="649" d="M434 1296v-417q0 -79 -69 -142q69 -62 69 -141v-440h113v-219h-311q-18 0 -33 14t-15 47v508q0 52 -30.5 90.5t-71.5 46.5v193q41 0 71.5 43.5t30.5 89.5v485q0 34 15.5 48t32.5 14h311v-220h-113z" />
<glyph unicode="|" horiz-adv-x="557" d="M162 -266v1853h233v-1853h-233z" />
<glyph unicode="}" horiz-adv-x="649" d="M102 1296v220h314q16 0 31.5 -14.5t15.5 -47.5v-485q0 -46 30.5 -89.5t71.5 -43.5v-193q-43 -8 -72.5 -46t-29.5 -91v-508q0 -32 -15 -46.5t-32 -14.5h-314v219h113v440q0 79 72 141q-72 65 -72 142v417h-113z" />
<glyph unicode="~" horiz-adv-x="1161" d="M399 737q62 0 126.5 -27.5t124 -55t110.5 -27.5q32 0 58.5 10t41 24t24.5 30.5t13.5 27t3.5 14.5h152q0 -12 -8.5 -39t-31 -67t-54 -75t-85 -60t-116.5 -25q-62 0 -127.5 26.5t-125.5 53t-108 26.5q-32 0 -57 -11t-38 -25.5t-22 -31t-11.5 -26t-2.5 -12.5h-151 q0 13 6.5 36.5t19 54.5t36 62t53 57.5t74 43t95.5 16.5z" />
<glyph unicode="&#xa1;" horiz-adv-x="624" d="M451 1458v-309h-275v309h275zM451 911v-921h-275v921h275z" />
<glyph unicode="&#xa2;" horiz-adv-x="1212" d="M565 -246v228q-137 11 -250 93t-174 202.5t-61 250.5q0 140 55.5 258t167 200t262.5 104v231h123v-231q144 -5 260.5 -75.5t181.5 -197.5l-266 -82q-29 51 -75.5 80.5t-100.5 34.5v-631q59 10 111.5 43t68.5 78l269 -82q-38 -88 -120 -153.5t-168 -95t-161 -29.5v-226 h-123zM565 231v607q-92 -18 -147.5 -107.5t-55.5 -202.5q0 -102 56 -185t147 -112z" />
<glyph unicode="&#xa3;" horiz-adv-x="1116" d="M973 236l67 -205q-114 -62 -235 -62q-62 0 -187.5 30t-191.5 30q-115 0 -262 -45l-60 194q220 184 220 381v14h-207v207h147q-6 12 -35 73.5t-38.5 86.5t-22 72t-12.5 88q0 152 122.5 258t299.5 106q124 0 236 -57.5t187 -157.5l-143 -168q-51 71 -130.5 115.5 t-154.5 44.5t-123.5 -48t-48.5 -120q0 -42 16.5 -87t48.5 -108t46 -98h377v-207h-330v-2q0 -95 -40 -178t-134 -180q82 25 156 25q51 0 142 -17.5t136 -17.5q66 0 154 33z" />
<glyph unicode="&#xa4;" horiz-adv-x="1130" d="M348 1014q92 61 219 61q121 0 215 -59l142 145l112 -112l-139 -138q64 -98 64 -221q0 -122 -66 -219l141 -139l-102 -103l-148 140q-96 -60 -219 -60q-129 0 -223 62l-149 -142l-101 103l142 141q-64 98 -64 217q0 126 61 217l-139 142l111 112zM567 481q82 0 136.5 59.5 t54.5 151.5t-54.5 150.5t-136.5 58.5t-137 -59.5t-55 -151.5q0 -91 55 -150t137 -59z" />
<glyph unicode="&#xa5;" horiz-adv-x="1458" d="M1034 823h150v-178h-246l-74 -137v-62h322v-178h-322v-268h-280v268h-318v178h318v66l-70 133h-246v178h152l-361 631h306l360 -700l362 700h308z" />
<glyph unicode="&#xa6;" horiz-adv-x="563" d="M399 1587v-807h-233v807h233zM399 541v-807h-233v807h233z" />
<glyph unicode="&#xa7;" horiz-adv-x="1089" d="M1006 231q0 -85 -29.5 -156t-76.5 -117.5t-108 -78t-121.5 -45.5t-119.5 -14q-77 0 -149.5 21.5t-128.5 56.5t-95 68t-69 67l176 168q115 -121 254 -121q73 0 127.5 38.5t54.5 102.5q0 34 -14 57t-40.5 34t-51 15.5t-58.5 6.5q-201 13 -312.5 109.5t-111.5 254.5 q0 77 39 152q-34 32 -59 92t-25 133q0 159 127 274t305 115q68 0 130 -17.5t105.5 -42t84.5 -61.5t64.5 -66t49.5 -65l-211 -100q-28 52 -82 80.5t-124 28.5q-75 0 -123.5 -39t-48.5 -103q0 -70 45.5 -97.5t126.5 -29.5q64 -2 124 -13.5t118.5 -37.5t101.5 -63.5t69.5 -97 t26.5 -132.5q0 -54 -13 -99.5t-30 -68.5q72 -65 72 -209zM680 508q37 32 37 92q0 47 -28.5 78t-65 42t-76.5 11q-60 0 -115 19q-33 -33 -33 -88q0 -45 20 -73.5t54.5 -40.5t69.5 -17t75.5 -10t61.5 -13z" />
<glyph unicode="&#xa8;" horiz-adv-x="935" d="M158 1237v244h227v-244h-227zM551 1237v244h227v-244h-227z" />
<glyph unicode="&#xa9;" horiz-adv-x="1722" d="M88 727q0 156 58 293t159.5 234.5t244 153.5t304.5 56q166 0 311 -56t248 -153.5t162 -234.5t59 -293q0 -157 -59 -294.5t-162 -235.5t-248 -154.5t-311 -56.5q-162 0 -304.5 56.5t-244 154.5t-159.5 235.5t-58 294.5zM1518 725q0 175 -86 319.5t-238.5 228t-339.5 83.5 q-136 0 -256.5 -49t-206.5 -133.5t-136 -201t-50 -247.5t49.5 -247.5t135.5 -201t206.5 -133.5t257.5 -49q185 0 336.5 79t239.5 224t88 328zM365 727q0 93 32.5 178t93 152.5t158.5 108t219 40.5q156 0 273 -69t172 -189l-260 -80q-29 57 -80 84t-107 27q-104 0 -165.5 -73 t-61.5 -179q0 -115 69.5 -183.5t159.5 -68.5q59 0 111.5 30t79.5 83l260 -78q-49 -111 -167.5 -186.5t-279.5 -75.5q-223 0 -365 136.5t-142 342.5z" />
<glyph unicode="&#xaa;" horiz-adv-x="909" d="M82 928q0 107 86 175t221 68q98 0 170 -32v39q0 68 -39 105.5t-114 37.5q-105 0 -226 -82l-61 125q140 96 305 96q160 0 248 -79t88 -228v-213q0 -31 11 -44.5t40 -14.5v-174q-53 -9 -90 -9q-111 0 -127 90l-4 39q-49 -64 -117 -98.5t-145 -34.5q-104 0 -175 67t-71 167z M530 897q29 26 29 53v80q-64 25 -135 25q-68 0 -111 -30t-43 -79q0 -44 33.5 -74t83.5 -30q41 0 80.5 15t62.5 40z" />
<glyph unicode="&#xab;" horiz-adv-x="1329" d="M72 590l540 387v-223l-321 -224l321 -211v-225l-540 363v133zM670 590l538 387v-223l-321 -224l321 -211v-225l-538 363v133z" />
<glyph unicode="&#xac;" horiz-adv-x="1253" d="M1120 819v-602h-233v356h-766v246h999z" />
<glyph unicode="&#xad;" horiz-adv-x="1234" d="M119 438v248h999v-248h-999z" />
<glyph unicode="&#xae;" horiz-adv-x="1722" d="M88 727q0 156 58.5 293t160 234.5t244.5 153.5t307 56t308 -56t247 -153.5t162 -234.5t59 -293q0 -157 -59 -294.5t-162 -235.5t-247 -154.5t-308 -56.5q-219 0 -395.5 96.5t-275.5 266t-99 378.5zM1513 723q0 176 -84.5 321t-235 228.5t-335.5 83.5q-139 0 -260 -49 t-205.5 -133t-133 -200.5t-48.5 -246.5q0 -176 82.5 -321.5t231 -229.5t333.5 -84q183 0 332.5 80t236 225t86.5 326zM526 1180h400q120 0 203 -93.5t83 -207.5q0 -86 -45 -159t-118 -102l211 -339h-220l-188 303h-131v-303h-195v901zM909 743q51 0 81 36t30 100t-33 98.5 t-82 34.5h-184v-269h188z" />
<glyph unicode="&#xaf;" horiz-adv-x="858" d="M123 1296v170h614v-170h-614z" />
<glyph unicode="&#xb0;" horiz-adv-x="583" d="M291 1483q92 0 151.5 -58t59.5 -145q0 -97 -59 -157t-152 -60q-91 0 -150 61t-59 156q0 87 59.5 145t149.5 58zM215 1272q0 -30 21 -51q29 -25 55 -25q34 0 55 25q21 21 21 51t-21 55q-20 23 -55 23q-29 0 -55 -23q-21 -25 -21 -55z" />
<glyph unicode="&#xb1;" horiz-adv-x="966" d="M846 881v-219h-240v-261h-246v261h-239v219h239v260h246v-260h240zM121 57v222h725v-222h-725z" />
<glyph unicode="&#xb2;" horiz-adv-x="851" d="M61 797q0 162 58.5 248t208.5 149q20 9 62 25.5t65 26.5t56 27.5t50 33.5t30 39.5t13 50.5q0 56 -47.5 89.5t-130.5 33.5q-149 0 -254 -109l-104 119q39 52 141 96.5t235 44.5q164 0 252 -71t88 -195q0 -201 -270 -281q-186 -59 -186 -168h450v-159h-717z" />
<glyph unicode="&#xb3;" horiz-adv-x="833" d="M57 946l86 111q29 -46 93.5 -79.5t156.5 -33.5q84 0 140.5 29.5t56.5 83.5q0 112 -268 112h-48v148h48q237 0 237 102q0 52 -49.5 78.5t-118.5 26.5q-150 0 -231 -99l-101 123q44 57 141 90t201 33q150 0 246 -68t96 -171q0 -70 -46 -117t-130 -64q89 -13 143 -75.5 t54 -147.5q0 -80 -52.5 -137t-133 -82t-179.5 -25q-127 0 -220 42.5t-122 119.5z" />
<glyph unicode="&#xb4;" horiz-adv-x="522" d="M272 1198l-176 53l111 244h256z" />
<glyph unicode="&#xb5;" horiz-adv-x="1359" d="M158 1073h274v-612q0 -248 184 -248q79 0 153.5 50.5t119.5 144.5v665h274v-758q0 -43 16.5 -62t57.5 -20v-233q-68 -12 -129 -12q-74 0 -121 37t-53 98l-4 78q-39 -81 -135.5 -151t-196.5 -70q-72 0 -119.5 37.5t-64.5 82.5l18 -534h-274v1507z" />
<glyph unicode="&#xb6;" horiz-adv-x="1345" d="M649 1454h602v-205h-143v-1413h-231v590h-105v-590h-233v590q-212 1 -339.5 140t-127.5 368q0 248 151 384t426 136zM539 631v618q-113 -6 -175.5 -89t-62.5 -220q0 -136 67.5 -218t170.5 -91zM877 1249h-105v-618h105v618z" />
<glyph unicode="&#xb7;" horiz-adv-x="460" d="M119 496v309h225v-309h-225z" />
<glyph unicode="&#xb8;" horiz-adv-x="667" d="M303 -412q-119 0 -246 62l70 145q68 -43 129 -43q53 0 83 24t30 68q0 80 -115 156l92 59q60 -41 97.5 -75.5t64.5 -84.5t27 -108q0 -90 -61 -146.5t-171 -56.5z" />
<glyph unicode="&#xb9;" horiz-adv-x="610" d="M567 961v-162h-469v162h160v534q-25 -32 -86 -68t-106 -36v161q24 0 52.5 12t52 28.5t43.5 34t31.5 30t12.5 14.5h166v-710h143z" />
<glyph unicode="&#xba;" horiz-adv-x="907" d="M74 1077q0 161 104 272t277 111t277 -111t104 -272q0 -103 -44 -189t-132.5 -140t-204.5 -54t-204.5 54t-132.5 140t-44 189zM455 866q75 0 125.5 59.5t50.5 151.5t-50 150.5t-126 58.5t-127.5 -59t-51.5 -152q0 -90 51.5 -149.5t127.5 -59.5z" />
<glyph unicode="&#xbb;" horiz-adv-x="1329" d="M659 457l-540 -363v225l323 211l-323 224v223l540 -387v-133zM1255 457l-540 -363v225l323 211l-323 224v223l540 -387v-133z" />
<glyph unicode="&#xbc;" horiz-adv-x="1808" d="M567 786v-159h-469v159h160v535q-25 -32 -86 -68t-106 -36v163q24 0 52.5 11.5t52 28t43.5 33.5t31.5 29.5t12.5 14.5h166v-711h143zM197 96l577 674l533 700l125 -110l-562 -664l-548 -710zM1456 0v199h-444v149l504 516h120v-524h115v-141h-115v-199h-180zM1169 340 h293v305z" />
<glyph unicode="&#xbd;" horiz-adv-x="1867" d="M567 786v-159h-469v159h160v535q-25 -32 -86 -68t-106 -36v163q24 0 52.5 11.5t52 28t43.5 33.5t31.5 29.5t12.5 14.5h166v-711h143zM197 96l577 674l533 700l125 -110l-562 -664l-548 -710zM1079 0q0 161 58 247.5t206 149.5q19 9 71.5 30t77 33t58 34t48 48t14.5 58 q0 56 -46.5 89.5t-127.5 33.5q-148 0 -250 -111l-103 119q41 52 141.5 96.5t229.5 44.5q161 0 246.5 -71t85.5 -195q0 -52 -18.5 -96t-44.5 -72t-65 -51.5t-69 -35.5t-67 -23q-183 -59 -183 -168h449v-160h-711z" />
<glyph unicode="&#xbe;" horiz-adv-x="2031" d="M57 772l86 113q28 -47 93 -81t157 -34q84 0 140.5 29.5t56.5 83.5q0 114 -268 114h-48v146h48q237 0 237 102q0 52 -50 79.5t-118 27.5q-148 0 -231 -101l-101 125q44 56 140.5 88.5t201.5 32.5q150 0 246 -67t96 -170q0 -70 -46 -118t-130 -65q90 -13 143.5 -75 t53.5 -146q0 -81 -52.5 -138t-133 -82.5t-179.5 -25.5q-127 0 -220 42.5t-122 119.5zM420 96l577 674l533 700l125 -110l-561 -664l-549 -710zM1679 0v199h-444v149l504 516h121v-524h114v-141h-114v-199h-181zM1393 340h293v305z" />
<glyph unicode="&#xbf;" horiz-adv-x="980" d="M733 1036v-282h-227v282h227zM737 559q0 -110 -36 -186.5t-132 -132.5q-11 -7 -47 -26.5t-59 -33t-56.5 -39t-53.5 -49.5t-35 -58t-15 -71q0 -81 57.5 -128.5t137.5 -47.5q141 0 241 164l179 -123q-53 -124 -170 -194t-259 -70q-81 0 -154.5 23.5t-135.5 70.5t-99 126.5 t-37 182.5q0 84 28.5 149.5t73 108t114.5 86.5q19 12 54.5 32t55.5 32t46.5 33t41 40.5t25 48t10.5 62.5h225z" />
<glyph unicode="&#xc0;" horiz-adv-x="1376" d="M436 1876h254l113 -244l-176 -53zM547 1454h287l534 -1454h-291l-135 362h-508l-133 -362h-291zM891 561l-201 600l-209 -600h410z" />
<glyph unicode="&#xc1;" horiz-adv-x="1376" d="M780 1577l-176 53l111 244h256zM547 1454h287l534 -1454h-291l-135 362h-508l-133 -362h-291zM891 561l-201 600l-209 -600h410z" />
<glyph unicode="&#xc2;" horiz-adv-x="1376" d="M373 1667l217 207h198l218 -207l-142 -65l-174 129l-174 -129zM547 1454h287l534 -1454h-291l-135 362h-508l-133 -362h-291zM891 561l-201 600l-209 -600h410z" />
<glyph unicode="&#xc3;" horiz-adv-x="1376" d="M555 1704q-26 0 -45.5 -10t-29 -22.5t-15.5 -28.5t-7 -24.5t-1 -12.5h-152q0 18 7.5 47t25.5 67t44 70.5t69 55t94 22.5q42 0 81 -15t64 -33t59 -33t66 -15q28 0 49 10t32 23.5t18 29.5t8.5 25t1.5 14h151q0 -14 -7.5 -42t-27 -66.5t-46.5 -72.5t-72 -57.5t-99 -23.5 q-52 0 -100 23t-89.5 46t-78.5 23zM547 1454h287l534 -1454h-291l-135 362h-508l-133 -362h-291zM891 561l-201 600l-209 -600h410z" />
<glyph unicode="&#xc4;" horiz-adv-x="1376" d="M379 1618v244h227v-244h-227zM772 1618v244h227v-244h-227zM547 1454h287l534 -1454h-291l-135 362h-508l-133 -362h-291zM891 561l-201 600l-209 -600h410z" />
<glyph unicode="&#xc5;" horiz-adv-x="1376" d="M690 1907q97 0 156 -51t59 -136q0 -84 -59 -134t-156 -50q-96 0 -155.5 50t-59.5 134t59.5 135.5t155.5 51.5zM600 1722q0 -37 26 -63.5t64 -26.5q37 0 63.5 26t26.5 64t-26 63t-64 25t-64 -25t-26 -63zM547 1454h287l534 -1454h-291l-135 362h-508l-133 -362h-291z M891 561l-201 600l-209 -600h410z" />
<glyph unicode="&#xc6;" horiz-adv-x="1978" d="M856 1454h1034v-248h-682v-342h572v-248h-572v-368h701v-248h-979v362h-467l-215 -362h-299zM909 608v529l-325 -529h325z" />
<glyph unicode="&#xc7;" horiz-adv-x="1404" d="M1366 326q-56 -133 -194 -220t-302 -110q105 -92 105 -205q0 -90 -61 -146.5t-171 -56.5q-118 0 -245 62l69 145q68 -43 129 -43q53 0 83 24t30 68q0 78 -100 146q-139 13 -261.5 82.5t-205.5 173t-131 232t-48 259.5q0 134 49.5 263t138.5 232t227 166.5t302 63.5 q195 0 344.5 -86t221.5 -231l-218 -150q-35 78 -97 128.5t-125.5 69.5t-133.5 19q-102 0 -184.5 -42.5t-133 -112.5t-77.5 -154.5t-27 -173.5q0 -129 53 -241t152 -181t221 -69q70 0 137 21.5t128.5 73t93.5 126.5z" />
<glyph unicode="&#xc8;" horiz-adv-x="1230" d="M414 1876h254l112 -244l-176 -53zM1161 248v-248h-1009v1454h991v-248h-709v-350h613v-229h-613v-379h727z" />
<glyph unicode="&#xc9;" horiz-adv-x="1230" d="M758 1577l-176 53l110 244h256zM1161 248v-248h-1009v1454h991v-248h-709v-350h613v-229h-613v-379h727z" />
<glyph unicode="&#xca;" horiz-adv-x="1230" d="M350 1667l217 207h199l217 -207l-141 -65l-174 129l-174 -129zM1161 248v-248h-1009v1454h991v-248h-709v-350h613v-229h-613v-379h727z" />
<glyph unicode="&#xcb;" horiz-adv-x="1230" d="M356 1618v244h228v-244h-228zM750 1618v244h227v-244h-227zM1161 248v-248h-1009v1454h991v-248h-709v-350h613v-229h-613v-379h727z" />
<glyph unicode="&#xcc;" horiz-adv-x="585" d="M39 1876h254l113 -244l-177 -53zM152 0v1454h282v-1454h-282z" />
<glyph unicode="&#xcd;" horiz-adv-x="585" d="M383 1577l-176 53l110 244h256zM152 0v1454h282v-1454h-282z" />
<glyph unicode="&#xce;" horiz-adv-x="585" d="M-25 1667l218 207h198l217 -207l-141 -65l-174 129l-174 -129zM152 0v1454h282v-1454h-282z" />
<glyph unicode="&#xcf;" horiz-adv-x="585" d="M-18 1618v244h227v-244h-227zM375 1618v244h227v-244h-227zM152 0v1454h282v-1454h-282z" />
<glyph unicode="&#xd0;" horiz-adv-x="1476" d="M690 1454q173 0 311.5 -56.5t226 -156t133.5 -230t46 -282.5q0 -331 -195.5 -530t-521.5 -199h-528v629h-99v205h99v620h528zM690 248q203 0 317.5 134.5t114.5 346.5q0 215 -115 346t-317 131h-246v-372h285v-205h-285v-381h246z" />
<glyph unicode="&#xd1;" horiz-adv-x="1562" d="M645 1702q-26 0 -45.5 -10t-29 -22.5t-15.5 -28.5t-7 -24.5t-1 -12.5h-152q0 18 7.5 47t25.5 67t44 70.5t69 55t94 22.5q42 0 81 -15t64 -33.5t59 -33.5t66 -15q28 0 49 10t32 23.5t18 30t8.5 25.5t1.5 14h151q0 -14 -7.5 -42t-27 -66.5t-46.5 -72.5t-72 -57.5t-99 -23.5 q-52 0 -100 23t-89.5 46t-78.5 23zM434 934v-934h-282v1454h225l751 -958v956h283v-1452h-235z" />
<glyph unicode="&#xd2;" horiz-adv-x="1548" d="M524 1876h254l113 -244l-176 -53zM63 727q0 144 54.5 278.5t148 235.5t227.5 162t285 61q123 0 235 -41.5t196 -114t146.5 -166t95 -201.5t32.5 -218q0 -143 -54 -276.5t-146.5 -234.5t-226 -161.5t-284.5 -60.5q-124 0 -236 40.5t-197 111.5t-148 164t-95.5 201.5 t-32.5 219.5zM774 240q99 0 181 42t134 111.5t80.5 156t28.5 177.5q0 128 -50.5 237.5t-149 178.5t-224.5 69q-99 0 -181 -42t-134 -111t-80.5 -155t-28.5 -177q0 -128 49 -237.5t147.5 -179.5t227.5 -70z" />
<glyph unicode="&#xd3;" horiz-adv-x="1548" d="M868 1577l-176 53l111 244h256zM63 727q0 144 54.5 278.5t148 235.5t227.5 162t285 61q123 0 235 -41.5t196 -114t146.5 -166t95 -201.5t32.5 -218q0 -143 -54 -276.5t-146.5 -234.5t-226 -161.5t-284.5 -60.5q-124 0 -236 40.5t-197 111.5t-148 164t-95.5 201.5 t-32.5 219.5zM774 240q99 0 181 42t134 111.5t80.5 156t28.5 177.5q0 128 -50.5 237.5t-149 178.5t-224.5 69q-99 0 -181 -42t-134 -111t-80.5 -155t-28.5 -177q0 -128 49 -237.5t147.5 -179.5t227.5 -70z" />
<glyph unicode="&#xd4;" horiz-adv-x="1548" d="M461 1667l217 207h199l217 -207l-142 -65l-174 129l-174 -129zM63 727q0 144 54.5 278.5t148 235.5t227.5 162t285 61q123 0 235 -41.5t196 -114t146.5 -166t95 -201.5t32.5 -218q0 -143 -54 -276.5t-146.5 -234.5t-226 -161.5t-284.5 -60.5q-124 0 -236 40.5t-197 111.5 t-148 164t-95.5 201.5t-32.5 219.5zM774 240q99 0 181 42t134 111.5t80.5 156t28.5 177.5q0 128 -50.5 237.5t-149 178.5t-224.5 69q-99 0 -181 -42t-134 -111t-80.5 -155t-28.5 -177q0 -128 49 -237.5t147.5 -179.5t227.5 -70z" />
<glyph unicode="&#xd5;" horiz-adv-x="1548" d="M643 1704q-26 0 -45.5 -10t-29 -22.5t-15.5 -28.5t-7 -24.5t-1 -12.5h-152q0 18 7.5 47t25.5 67t44 70.5t69 55t94 22.5q42 0 81 -15t64 -33t59 -33t66 -15q28 0 49 10t32 23.5t18 29.5t8.5 25t1.5 14h151q0 -14 -7.5 -42t-27 -66.5t-46.5 -72.5t-72 -57.5t-99 -23.5 q-52 0 -100 23t-89.5 46t-78.5 23zM63 727q0 144 54.5 278.5t148 235.5t227.5 162t285 61q123 0 235 -41.5t196 -114t146.5 -166t95 -201.5t32.5 -218q0 -143 -54 -276.5t-146.5 -234.5t-226 -161.5t-284.5 -60.5q-124 0 -236 40.5t-197 111.5t-148 164t-95.5 201.5 t-32.5 219.5zM774 240q99 0 181 42t134 111.5t80.5 156t28.5 177.5q0 128 -50.5 237.5t-149 178.5t-224.5 69q-99 0 -181 -42t-134 -111t-80.5 -155t-28.5 -177q0 -128 49 -237.5t147.5 -179.5t227.5 -70z" />
<glyph unicode="&#xd6;" horiz-adv-x="1548" d="M467 1618v244h227v-244h-227zM860 1618v244h227v-244h-227zM63 727q0 144 54.5 278.5t148 235.5t227.5 162t285 61q123 0 235 -41.5t196 -114t146.5 -166t95 -201.5t32.5 -218q0 -143 -54 -276.5t-146.5 -234.5t-226 -161.5t-284.5 -60.5q-124 0 -236 40.5t-197 111.5 t-148 164t-95.5 201.5t-32.5 219.5zM774 240q99 0 181 42t134 111.5t80.5 156t28.5 177.5q0 128 -50.5 237.5t-149 178.5t-224.5 69q-99 0 -181 -42t-134 -111t-80.5 -155t-28.5 -177q0 -128 49 -237.5t147.5 -179.5t227.5 -70z" />
<glyph unicode="&#xd7;" horiz-adv-x="976" d="M870 352l-172 -170l-211 211l-211 -211l-170 172l209 209l-200 203l172 170l200 -201l203 203l170 -172l-201 -203z" />
<glyph unicode="&#xd8;" horiz-adv-x="1546" d="M1282 1237q95 -104 148 -239.5t53 -274.5q0 -143 -54 -276.5t-146.5 -234.5t-226 -161.5t-284.5 -60.5q-168 0 -311 73l-43 -63h-303l149 213q-96 105 -148.5 239t-52.5 275q0 144 54.5 278.5t148 235.5t227.5 162t285 61q164 0 307 -73l43 63h306zM350 727 q0 -159 74 -283l512 736q-75 32 -162 32q-99 0 -181 -42t-134 -111t-80.5 -155t-28.5 -177zM774 240q99 0 181 42t134 111.5t80.5 156t28.5 177.5q0 156 -76 283l-514 -736q72 -34 166 -34z" />
<glyph unicode="&#xd9;" horiz-adv-x="1536" d="M514 1876h254l113 -244l-176 -53zM768 -10q-135 0 -244 39.5t-181.5 106.5t-121 160t-69.5 196.5t-21 220.5v741h283v-741q0 -96 18.5 -177.5t58 -149.5t110 -107t165.5 -39q97 0 168.5 39.5t111 108.5t58 149.5t18.5 175.5v741h281v-741q0 -153 -37 -281t-111.5 -228.5 t-199 -157t-287.5 -56.5z" />
<glyph unicode="&#xda;" horiz-adv-x="1536" d="M858 1577l-176 53l111 244h256zM768 -10q-135 0 -244 39.5t-181.5 106.5t-121 160t-69.5 196.5t-21 220.5v741h283v-741q0 -96 18.5 -177.5t58 -149.5t110 -107t165.5 -39q97 0 168.5 39.5t111 108.5t58 149.5t18.5 175.5v741h281v-741q0 -153 -37 -281t-111.5 -228.5 t-199 -157t-287.5 -56.5z" />
<glyph unicode="&#xdb;" horiz-adv-x="1536" d="M451 1667l217 207h198l217 -207l-141 -65l-174 129l-174 -129zM768 -10q-135 0 -244 39.5t-181.5 106.5t-121 160t-69.5 196.5t-21 220.5v741h283v-741q0 -96 18.5 -177.5t58 -149.5t110 -107t165.5 -39q97 0 168.5 39.5t111 108.5t58 149.5t18.5 175.5v741h281v-741 q0 -153 -37 -281t-111.5 -228.5t-199 -157t-287.5 -56.5z" />
<glyph unicode="&#xdc;" horiz-adv-x="1536" d="M457 1618v244h227v-244h-227zM850 1618v244h227v-244h-227zM768 -10q-135 0 -244 39.5t-181.5 106.5t-121 160t-69.5 196.5t-21 220.5v741h283v-741q0 -96 18.5 -177.5t58 -149.5t110 -107t165.5 -39q97 0 168.5 39.5t111 108.5t58 149.5t18.5 175.5v741h281v-741 q0 -153 -37 -281t-111.5 -228.5t-199 -157t-287.5 -56.5z" />
<glyph unicode="&#xdd;" horiz-adv-x="1351" d="M764 1577l-176 53l110 244h256zM315 1454l359 -684l364 684h305l-528 -946v-508h-280v512l-527 942h307z" />
<glyph unicode="&#xde;" horiz-adv-x="1236" d="M1196 709q0 -126 -56 -236t-160.5 -179t-234.5 -69h-311v-225h-282v1454h282v-262h299q97 0 184.5 -42t148 -109.5t95.5 -154.5t35 -177zM915 709q0 99 -59 167t-137 68h-285v-471h297q79 0 131.5 69t52.5 167z" />
<glyph unicode="&#xdf;" horiz-adv-x="1142" d="M506 240q133 2 213 57t80 164q0 101 -69 161t-165 60h-43v246h39q73 0 115.5 41.5t42.5 109.5q0 54 -28 89.5t-62.5 48t-71.5 12.5q-89 0 -130.5 -62.5t-41.5 -144.5v-1022h-260v1069q0 171 129.5 282t325.5 111q174 0 286.5 -92t112.5 -244q0 -104 -52 -190t-126 -113 q132 -37 208 -141.5t76 -251.5q0 -91 -31 -165t-84.5 -124t-128 -84.5t-158 -50.5t-177.5 -18v252z" />
<glyph unicode="&#xe0;" horiz-adv-x="1175" d="M303 1497h254l113 -244l-176 -53zM51 317q0 156 128 252.5t333 96.5q154 0 258 -43v57q0 103 -60.5 158t-179.5 55q-86 0 -164 -29.5t-171 -91.5l-89 180q215 140 453 140q230 0 357.5 -115t127.5 -328v-342q0 -44 15 -62.5t51 -21.5v-223q-69 -14 -117 -14 q-79 0 -122.5 34.5t-53.5 92.5l-6 55q-69 -89 -173.5 -138.5t-213.5 -49.5q-161 0 -267 96t-106 241zM719 262q51 51 51 94v109q-105 43 -215 43q-108 0 -176 -46.5t-68 -121.5q0 -65 52 -112.5t139 -47.5q61 0 119.5 22.5t97.5 59.5z" />
<glyph unicode="&#xe1;" horiz-adv-x="1175" d="M647 1198l-176 53l111 244h256zM51 317q0 156 128 252.5t333 96.5q154 0 258 -43v57q0 103 -60.5 158t-179.5 55q-86 0 -164 -29.5t-171 -91.5l-89 180q215 140 453 140q230 0 357.5 -115t127.5 -328v-342q0 -44 15 -62.5t51 -21.5v-223q-69 -14 -117 -14 q-79 0 -122.5 34.5t-53.5 92.5l-6 55q-69 -89 -173.5 -138.5t-213.5 -49.5q-161 0 -267 96t-106 241zM719 262q51 51 51 94v109q-105 43 -215 43q-108 0 -176 -46.5t-68 -121.5q0 -65 52 -112.5t139 -47.5q61 0 119.5 22.5t97.5 59.5z" />
<glyph unicode="&#xe2;" horiz-adv-x="1175" d="M240 1288l217 207h198l217 -207l-141 -65l-174 129l-174 -129zM51 317q0 156 128 252.5t333 96.5q154 0 258 -43v57q0 103 -60.5 158t-179.5 55q-86 0 -164 -29.5t-171 -91.5l-89 180q215 140 453 140q230 0 357.5 -115t127.5 -328v-342q0 -44 15 -62.5t51 -21.5v-223 q-69 -14 -117 -14q-79 0 -122.5 34.5t-53.5 92.5l-6 55q-69 -89 -173.5 -138.5t-213.5 -49.5q-161 0 -267 96t-106 241zM719 262q51 51 51 94v109q-105 43 -215 43q-108 0 -176 -46.5t-68 -121.5q0 -65 52 -112.5t139 -47.5q61 0 119.5 22.5t97.5 59.5z" />
<glyph unicode="&#xe3;" horiz-adv-x="1175" d="M422 1325q-26 0 -45.5 -10t-29 -22.5t-15.5 -28.5t-7 -24.5t-1 -12.5h-152q0 18 7.5 47t25.5 67t44 70.5t69 55t94 22.5q42 0 81 -15t64 -33t59 -33t66 -15q28 0 49 10t32 23.5t18 29.5t8.5 25t1.5 14h151q0 -14 -7.5 -42t-27 -66.5t-46.5 -72.5t-72 -57.5t-99 -23.5 q-52 0 -100 23t-89.5 46t-78.5 23zM51 317q0 156 128 252.5t333 96.5q154 0 258 -43v57q0 103 -60.5 158t-179.5 55q-86 0 -164 -29.5t-171 -91.5l-89 180q215 140 453 140q230 0 357.5 -115t127.5 -328v-342q0 -44 15 -62.5t51 -21.5v-223q-69 -14 -117 -14 q-79 0 -122.5 34.5t-53.5 92.5l-6 55q-69 -89 -173.5 -138.5t-213.5 -49.5q-161 0 -267 96t-106 241zM719 262q51 51 51 94v109q-105 43 -215 43q-108 0 -176 -46.5t-68 -121.5q0 -65 52 -112.5t139 -47.5q61 0 119.5 22.5t97.5 59.5z" />
<glyph unicode="&#xe4;" horiz-adv-x="1175" d="M246 1239v244h227v-244h-227zM639 1239v244h227v-244h-227zM51 317q0 156 128 252.5t333 96.5q154 0 258 -43v57q0 103 -60.5 158t-179.5 55q-86 0 -164 -29.5t-171 -91.5l-89 180q215 140 453 140q230 0 357.5 -115t127.5 -328v-342q0 -44 15 -62.5t51 -21.5v-223 q-69 -14 -117 -14q-79 0 -122.5 34.5t-53.5 92.5l-6 55q-69 -89 -173.5 -138.5t-213.5 -49.5q-161 0 -267 96t-106 241zM719 262q51 51 51 94v109q-105 43 -215 43q-108 0 -176 -46.5t-68 -121.5q0 -65 52 -112.5t139 -47.5q61 0 119.5 22.5t97.5 59.5z" />
<glyph unicode="&#xe5;" horiz-adv-x="1175" d="M557 1528q97 0 156 -51t59 -136q0 -84 -59 -134t-156 -50q-96 0 -155.5 50t-59.5 134t59.5 135.5t155.5 51.5zM467 1343q0 -37 26 -63.5t64 -26.5q37 0 63.5 26t26.5 64t-26 63.5t-64 25.5t-64 -25.5t-26 -63.5zM51 317q0 156 128 252.5t333 96.5q154 0 258 -43v57 q0 103 -60.5 158t-179.5 55q-86 0 -164 -29.5t-171 -91.5l-89 180q215 140 453 140q230 0 357.5 -115t127.5 -328v-342q0 -44 15 -62.5t51 -21.5v-223q-69 -14 -117 -14q-79 0 -122.5 34.5t-53.5 92.5l-6 55q-69 -89 -173.5 -138.5t-213.5 -49.5q-161 0 -267 96t-106 241z M719 262q51 51 51 94v109q-105 43 -215 43q-108 0 -176 -46.5t-68 -121.5q0 -65 52 -112.5t139 -47.5q61 0 119.5 22.5t97.5 59.5z" />
<glyph unicode="&#xe6;" horiz-adv-x="1918" d="M51 319q0 153 128 250t329 97q142 0 242 -41q3 47 16 90q-18 186 -236 186q-160 0 -337 -121l-84 174q212 138 448 138q248 0 375 -152q149 152 381 152q170 0 299.5 -77t196 -202t67.5 -276q0 -19 -6 -88h-840q9 -123 93 -196t202 -73q83 0 155.5 40.5t98.5 105.5 l236 -66q-62 -127 -194 -203.5t-306 -76.5q-148 0 -267.5 59t-193.5 162q-67 -109 -189.5 -165t-246.5 -56q-157 0 -262 96.5t-105 242.5zM1593 618q-11 123 -89 199t-195 76t-195.5 -76t-87.5 -199h567zM725 270q45 33 45 74q-16 49 -20 133q-103 35 -197 35 q-106 0 -175 -48t-69 -122q0 -69 54.5 -115.5t132.5 -46.5q69 0 130.5 24.5t98.5 65.5z" />
<glyph unicode="&#xe7;" horiz-adv-x="1155" d="M1112 258q-47 -103 -146 -175t-233 -95q96 -89 96 -197q0 -90 -60.5 -146.5t-170.5 -56.5q-119 0 -246 62l70 145q68 -43 129 -43q53 0 83 24t30 68q0 71 -89 138q-155 11 -274.5 90.5t-181.5 201t-62 263.5q0 151 67.5 276t198 202t300.5 77t296 -74t189 -201l-268 -82 q-34 58 -92 90.5t-127 32.5q-120 0 -200.5 -90t-80.5 -231q0 -139 82 -231.5t199 -92.5q73 0 135.5 36t87.5 91z" />
<glyph unicode="&#xe8;" horiz-adv-x="1226" d="M367 1497h254l112 -244l-176 -53zM623 -20q-168 0 -299 76t-199 200.5t-68 273.5q0 153 68 280.5t199 204.5t301 77q128 0 234.5 -45t177 -121.5t109 -175.5t38.5 -209q0 -57 -6 -92h-830q10 -122 92 -195.5t193 -73.5q83 0 155.5 40.5t98.5 105.5l235 -66 q-60 -126 -192.5 -203t-306.5 -77zM342 623h561q-12 121 -90.5 195.5t-191.5 74.5q-111 0 -190 -75t-89 -195z" />
<glyph unicode="&#xe9;" horiz-adv-x="1226" d="M711 1198l-176 53l110 244h256zM623 -20q-168 0 -299 76t-199 200.5t-68 273.5q0 153 68 280.5t199 204.5t301 77q128 0 234.5 -45t177 -121.5t109 -175.5t38.5 -209q0 -57 -6 -92h-830q10 -122 92 -195.5t193 -73.5q83 0 155.5 40.5t98.5 105.5l235 -66 q-60 -126 -192.5 -203t-306.5 -77zM342 623h561q-12 121 -90.5 195.5t-191.5 74.5q-111 0 -190 -75t-89 -195z" />
<glyph unicode="&#xea;" horiz-adv-x="1226" d="M303 1288l217 207h199l217 -207l-141 -65l-174 129l-175 -129zM623 -20q-168 0 -299 76t-199 200.5t-68 273.5q0 153 68 280.5t199 204.5t301 77q128 0 234.5 -45t177 -121.5t109 -175.5t38.5 -209q0 -57 -6 -92h-830q10 -122 92 -195.5t193 -73.5q83 0 155.5 40.5 t98.5 105.5l235 -66q-60 -126 -192.5 -203t-306.5 -77zM342 623h561q-12 121 -90.5 195.5t-191.5 74.5q-111 0 -190 -75t-89 -195z" />
<glyph unicode="&#xeb;" horiz-adv-x="1226" d="M309 1239v244h228v-244h-228zM702 1239v244h228v-244h-228zM623 -20q-168 0 -299 76t-199 200.5t-68 273.5q0 153 68 280.5t199 204.5t301 77q128 0 234.5 -45t177 -121.5t109 -175.5t38.5 -209q0 -57 -6 -92h-830q10 -122 92 -195.5t193 -73.5q83 0 155.5 40.5 t98.5 105.5l235 -66q-60 -126 -192.5 -203t-306.5 -77zM342 623h561q-12 121 -90.5 195.5t-191.5 74.5q-111 0 -190 -75t-89 -195z" />
<glyph unicode="&#xec;" horiz-adv-x="522" d="M8 1497h254l113 -244l-176 -53zM125 0v1073h274v-1073h-274z" />
<glyph unicode="&#xed;" horiz-adv-x="522" d="M352 1198l-176 53l111 244h256zM125 0v1073h274v-1073h-274z" />
<glyph unicode="&#xee;" horiz-adv-x="522" d="M-55 1288l217 207h198l218 -207l-142 -65l-174 129l-174 -129zM125 0v1073h274v-1073h-274z" />
<glyph unicode="&#xef;" horiz-adv-x="522" d="M-49 1239v244h227v-244h-227zM344 1239v244h227v-244h-227zM125 0v1073h274v-1073h-274z" />
<glyph unicode="&#xf0;" horiz-adv-x="1255" d="M932 1272q126 -144 191 -323t65 -355q0 -281 -158.5 -447.5t-408.5 -166.5q-156 0 -283.5 64.5t-201 178.5t-73.5 254q0 133 66 246t180 178.5t250 65.5q104 0 197 -43.5t151 -116.5q-47 210 -184 371l-191 -109l-79 107l174 98q-124 112 -328 221h352q109 -58 187 -127 l159 92l80 -108zM625 213q121 0 201.5 78.5t80.5 193.5q0 113 -79.5 186.5t-198.5 73.5q-121 0 -202 -76t-81 -190t79.5 -190t199.5 -76z" />
<glyph unicode="&#xf1;" horiz-adv-x="1236" d="M514 1325q-26 0 -45.5 -10t-29 -22.5t-15.5 -28.5t-7 -24.5t-1 -12.5h-152q0 18 7.5 47t25.5 67t44 70.5t69 55t94 22.5q42 0 81 -15t64 -33t59 -33t66 -15q28 0 49 10t32 23.5t18 29.5t8.5 25t1.5 14h151q0 -14 -7.5 -42t-27 -66.5t-46.5 -72.5t-72 -57.5t-99 -23.5 q-52 0 -100 23t-89.5 46t-78.5 23zM1122 0h-274v602q0 248 -170 248q-85 0 -167 -64t-112 -159v-627h-274v1073h248v-199q60 102 173.5 160t252.5 58q78 0 136.5 -24.5t93.5 -63.5t56.5 -96t29 -113.5t7.5 -124.5v-670z" />
<glyph unicode="&#xf2;" horiz-adv-x="1241" d="M367 1497h254l112 -244l-176 -53zM57 535q0 112 40 213t111 177.5t178.5 121.5t234.5 45q169 0 298.5 -77.5t196 -203t66.5 -276.5q0 -111 -39 -211.5t-109.5 -177t-177.5 -121.5t-235 -45q-103 0 -193 29.5t-157 81.5t-116 121.5t-73.5 152t-24.5 170.5zM621 213 q119 0 199.5 92t80.5 232q0 139 -80.5 230t-199.5 91t-200 -92t-81 -231q0 -140 80.5 -231t200.5 -91z" />
<glyph unicode="&#xf3;" horiz-adv-x="1241" d="M711 1198l-176 53l110 244h256zM57 535q0 112 40 213t111 177.5t178.5 121.5t234.5 45q169 0 298.5 -77.5t196 -203t66.5 -276.5q0 -111 -39 -211.5t-109.5 -177t-177.5 -121.5t-235 -45q-103 0 -193 29.5t-157 81.5t-116 121.5t-73.5 152t-24.5 170.5zM621 213 q119 0 199.5 92t80.5 232q0 139 -80.5 230t-199.5 91t-200 -92t-81 -231q0 -140 80.5 -231t200.5 -91z" />
<glyph unicode="&#xf4;" horiz-adv-x="1241" d="M303 1288l217 207h199l217 -207l-141 -65l-174 129l-175 -129zM57 535q0 112 40 213t111 177.5t178.5 121.5t234.5 45q169 0 298.5 -77.5t196 -203t66.5 -276.5q0 -111 -39 -211.5t-109.5 -177t-177.5 -121.5t-235 -45q-103 0 -193 29.5t-157 81.5t-116 121.5t-73.5 152 t-24.5 170.5zM621 213q119 0 199.5 92t80.5 232q0 139 -80.5 230t-199.5 91t-200 -92t-81 -231q0 -140 80.5 -231t200.5 -91z" />
<glyph unicode="&#xf5;" horiz-adv-x="1241" d="M485 1325q-26 0 -45.5 -10t-29 -22.5t-15.5 -28.5t-7 -24.5t-1 -12.5h-151q0 24 13 63.5t38.5 86t75 79.5t112.5 33q42 0 81 -15t64 -33t59 -33t66 -15q28 0 49 10t32 23.5t18 29.5t8.5 25t1.5 14h152q0 -14 -7.5 -42t-27 -66.5t-46.5 -72.5t-72 -57.5t-99 -23.5 q-52 0 -100.5 23t-90 46t-78.5 23zM57 535q0 112 40 213t111 177.5t178.5 121.5t234.5 45q169 0 298.5 -77.5t196 -203t66.5 -276.5q0 -111 -39 -211.5t-109.5 -177t-177.5 -121.5t-235 -45q-103 0 -193 29.5t-157 81.5t-116 121.5t-73.5 152t-24.5 170.5zM621 213 q119 0 199.5 92t80.5 232q0 139 -80.5 230t-199.5 91t-200 -92t-81 -231q0 -140 80.5 -231t200.5 -91z" />
<glyph unicode="&#xf6;" horiz-adv-x="1241" d="M309 1239v244h228v-244h-228zM702 1239v244h228v-244h-228zM57 535q0 112 40 213t111 177.5t178.5 121.5t234.5 45q169 0 298.5 -77.5t196 -203t66.5 -276.5q0 -111 -39 -211.5t-109.5 -177t-177.5 -121.5t-235 -45q-103 0 -193 29.5t-157 81.5t-116 121.5t-73.5 152 t-24.5 170.5zM621 213q119 0 199.5 92t80.5 232q0 139 -80.5 230t-199.5 91t-200 -92t-81 -231q0 -140 80.5 -231t200.5 -91z" />
<glyph unicode="&#xf7;" horiz-adv-x="1046" d="M410 858v262h231v-262h-231zM111 500v219h827v-219h-827zM410 98v264h231v-264h-231z" />
<glyph unicode="&#xf8;" horiz-adv-x="1241" d="M1024 932q76 -76 117 -178.5t41 -218.5q0 -111 -39 -211.5t-109.5 -177t-177.5 -121.5t-235 -45q-172 0 -304 77l-55 -65h-176l123 151q-73 76 -112.5 177.5t-39.5 214.5q0 112 40 213t111 177.5t178.5 121.5t234.5 45q163 0 292 -74l52 63h180zM621 858q-119 0 -200 -92 t-81 -231q0 -112 51 -191l365 477q-61 37 -135 37zM621 213q119 0 199.5 92t80.5 232q0 113 -55 196l-367 -479q62 -41 142 -41z" />
<glyph unicode="&#xf9;" horiz-adv-x="1265" d="M360 1497h254l113 -244l-176 -53zM115 401v672h274v-612q0 -248 178 -248q83 0 157 50t120 145v665h274v-766q0 -44 15 -62.5t51 -21.5v-223q-66 -12 -119 -12q-74 0 -120.5 33.5t-53.5 93.5l-6 86q-71 -109 -183 -165t-249 -56q-166 0 -252 107t-86 314z" />
<glyph unicode="&#xfa;" horiz-adv-x="1265" d="M705 1198l-177 53l111 244h256zM115 401v672h274v-612q0 -248 178 -248q83 0 157 50t120 145v665h274v-766q0 -44 15 -62.5t51 -21.5v-223q-66 -12 -119 -12q-74 0 -120.5 33.5t-53.5 93.5l-6 86q-71 -109 -183 -165t-249 -56q-166 0 -252 107t-86 314z" />
<glyph unicode="&#xfb;" horiz-adv-x="1265" d="M297 1288l217 207h199l217 -207l-142 -65l-174 129l-174 -129zM115 401v672h274v-612q0 -248 178 -248q83 0 157 50t120 145v665h274v-766q0 -44 15 -62.5t51 -21.5v-223q-66 -12 -119 -12q-74 0 -120.5 33.5t-53.5 93.5l-6 86q-71 -109 -183 -165t-249 -56 q-166 0 -252 107t-86 314z" />
<glyph unicode="&#xfc;" horiz-adv-x="1265" d="M303 1239v244h227v-244h-227zM696 1239v244h228v-244h-228zM115 401v672h274v-612q0 -248 178 -248q83 0 157 50t120 145v665h274v-766q0 -44 15 -62.5t51 -21.5v-223q-66 -12 -119 -12q-74 0 -120.5 33.5t-53.5 93.5l-6 86q-71 -109 -183 -165t-249 -56q-166 0 -252 107 t-86 314z" />
<glyph unicode="&#xfd;" horiz-adv-x="1126" d="M676 1198l-176 53l110 244h256zM147 -209q78 -20 123 -20q56 0 90.5 47t75.5 182l-424 1073h285l289 -792l254 792h262l-451 -1286q-38 -114 -135 -185t-231 -71q-68 0 -138 23v237z" />
<glyph unicode="&#xfe;" horiz-adv-x="1230" d="M637 -49q-86 0 -145.5 31.5t-85.5 72.5v-491h-281v1890h281v-465q83 115 247 115q93 0 176.5 -33.5t145.5 -91t108 -132t69.5 -157.5t23.5 -166q-1 -150 -73.5 -282t-197 -211.5t-268.5 -79.5zM637 856q-143 0 -231 -168v-328q0 -57 72.5 -109t150.5 -52q114 0 190 96 t76 233t-71 232.5t-187 95.5z" />
<glyph unicode="&#xff;" horiz-adv-x="1126" d="M274 1239v244h228v-244h-228zM668 1239v244h227v-244h-227zM147 -209q78 -20 123 -20q56 0 90.5 47t75.5 182l-424 1073h285l289 -792l254 792h262l-451 -1286q-38 -114 -135 -185t-231 -71q-68 0 -138 23v237z" />
<glyph unicode="&#x100;" horiz-adv-x="1376" d="M385 1675v170h614v-170h-614zM547 1454h287l534 -1454h-291l-135 362h-508l-133 -362h-291zM891 561l-201 600l-209 -600h410z" />
<glyph unicode="&#x101;" horiz-adv-x="1175" d="M252 1296v170h614v-170h-614zM51 317q0 156 128 252.5t333 96.5q154 0 258 -43v57q0 103 -60.5 158t-179.5 55q-86 0 -164 -29.5t-171 -91.5l-89 180q215 140 453 140q230 0 357.5 -115t127.5 -328v-342q0 -44 15 -62.5t51 -21.5v-223q-69 -14 -117 -14 q-79 0 -122.5 34.5t-53.5 92.5l-6 55q-69 -89 -173.5 -138.5t-213.5 -49.5q-161 0 -267 96t-106 241zM719 262q51 51 51 94v109q-105 43 -215 43q-108 0 -176 -46.5t-68 -121.5q0 -65 52 -112.5t139 -47.5q61 0 119.5 22.5t97.5 59.5z" />
<glyph unicode="&#x102;" horiz-adv-x="1376" d="M813 1874h145q0 -119 -75.5 -197t-192.5 -78t-192.5 78t-75.5 197h147q0 -61 36.5 -106.5t84.5 -45.5q46 0 81.5 43.5t41.5 108.5zM547 1454h287l534 -1454h-291l-135 362h-508l-133 -362h-291zM891 561l-201 600l-209 -600h410z" />
<glyph unicode="&#x103;" horiz-adv-x="1175" d="M680 1495h145q0 -119 -75.5 -196.5t-192.5 -77.5t-192.5 77.5t-75.5 196.5h147q0 -61 36.5 -106.5t84.5 -45.5q46 0 81.5 43.5t41.5 108.5zM51 317q0 156 128 252.5t333 96.5q154 0 258 -43v57q0 103 -60.5 158t-179.5 55q-86 0 -164 -29.5t-171 -91.5l-89 180 q215 140 453 140q230 0 357.5 -115t127.5 -328v-342q0 -44 15 -62.5t51 -21.5v-223q-69 -14 -117 -14q-79 0 -122.5 34.5t-53.5 92.5l-6 55q-69 -89 -173.5 -138.5t-213.5 -49.5q-161 0 -267 96t-106 241zM719 262q51 51 51 94v109q-105 43 -215 43q-108 0 -176 -46.5 t-68 -121.5q0 -65 52 -112.5t139 -47.5q61 0 119.5 22.5t97.5 59.5z" />
<glyph unicode="&#x104;" horiz-adv-x="1376" d="M1214 -178q0 -73 154 -76l-55 -156q-144 13 -208.5 64t-64.5 121q0 121 142 225h-105l-135 362h-508l-133 -362h-291l537 1454h287l534 -1454q-154 -109 -154 -178zM481 561h410l-201 600z" />
<glyph unicode="&#x105;" horiz-adv-x="1175" d="M1110 0q-154 -109 -154 -178q0 -73 154 -76l-55 -156q-144 13 -208.5 64t-64.5 121q0 119 138 221q-44 13 -70.5 44.5t-32.5 72.5l-6 55q-69 -89 -173.5 -138.5t-213.5 -49.5q-161 0 -267 96t-106 241q0 156 128 252.5t333 96.5q154 0 258 -43v57q0 103 -60.5 158 t-179.5 55q-86 0 -164 -29.5t-171 -91.5l-89 180q215 140 453 140q230 0 357.5 -115t127.5 -328v-342q0 -44 15 -62.5t51 -21.5v-223zM770 356v109q-105 43 -215 43q-108 0 -176 -46.5t-68 -121.5q0 -65 52 -112.5t139 -47.5q61 0 119.5 22.5t97.5 59.5q51 51 51 94z" />
<glyph unicode="&#x106;" horiz-adv-x="1404" d="M868 1577l-176 53l111 244h256zM780 1462q195 0 344.5 -86t221.5 -231l-218 -150q-35 78 -97 128.5t-125.5 69.5t-133.5 19q-102 0 -184.5 -42.5t-133 -112.5t-77.5 -154.5t-27 -173.5q0 -129 53 -241t152 -181t221 -69q70 0 137 21.5t128.5 73t93.5 126.5l231 -133 q-43 -104 -141.5 -182.5t-217 -117t-239.5 -38.5t-232 42t-195.5 115.5t-148 168t-96.5 204t-33 219.5q0 134 49.5 263t138.5 232t227 166.5t302 63.5z" />
<glyph unicode="&#x107;" horiz-adv-x="1155" d="M713 1198l-176 53l110 244h256zM625 -20q-127 0 -235 45.5t-180 122t-112.5 177.5t-40.5 212q0 151 67.5 276t198 202t300.5 77t296 -74t189 -201l-268 -82q-34 58 -92 90.5t-127 32.5q-120 0 -200.5 -90t-80.5 -231q0 -139 82 -231.5t199 -92.5q73 0 135.5 36t87.5 91 l268 -82q-57 -125 -186 -201.5t-301 -76.5z" />
<glyph unicode="&#x108;" horiz-adv-x="1404" d="M461 1667l217 207h199l217 -207l-142 -65l-174 129l-174 -129zM780 1462q195 0 344.5 -86t221.5 -231l-218 -150q-35 78 -97 128.5t-125.5 69.5t-133.5 19q-102 0 -184.5 -42.5t-133 -112.5t-77.5 -154.5t-27 -173.5q0 -129 53 -241t152 -181t221 -69q70 0 137 21.5 t128.5 73t93.5 126.5l231 -133q-43 -104 -141.5 -182.5t-217 -117t-239.5 -38.5t-232 42t-195.5 115.5t-148 168t-96.5 204t-33 219.5q0 134 49.5 263t138.5 232t227 166.5t302 63.5z" />
<glyph unicode="&#x109;" horiz-adv-x="1155" d="M305 1288l217 207h199l217 -207l-141 -65l-174 129l-174 -129zM625 -20q-127 0 -235 45.5t-180 122t-112.5 177.5t-40.5 212q0 151 67.5 276t198 202t300.5 77t296 -74t189 -201l-268 -82q-34 58 -92 90.5t-127 32.5q-120 0 -200.5 -90t-80.5 -231q0 -139 82 -231.5 t199 -92.5q73 0 135.5 36t87.5 91l268 -82q-57 -125 -186 -201.5t-301 -76.5z" />
<glyph unicode="&#x10a;" horiz-adv-x="1404" d="M655 1616v258h248v-258h-248zM780 1462q195 0 344.5 -86t221.5 -231l-218 -150q-35 78 -97 128.5t-125.5 69.5t-133.5 19q-102 0 -184.5 -42.5t-133 -112.5t-77.5 -154.5t-27 -173.5q0 -129 53 -241t152 -181t221 -69q70 0 137 21.5t128.5 73t93.5 126.5l231 -133 q-43 -104 -141.5 -182.5t-217 -117t-239.5 -38.5t-232 42t-195.5 115.5t-148 168t-96.5 204t-33 219.5q0 134 49.5 263t138.5 232t227 166.5t302 63.5z" />
<glyph unicode="&#x10b;" horiz-adv-x="1155" d="M500 1237v258h248v-258h-248zM625 -20q-127 0 -235 45.5t-180 122t-112.5 177.5t-40.5 212q0 151 67.5 276t198 202t300.5 77t296 -74t189 -201l-268 -82q-34 58 -92 90.5t-127 32.5q-120 0 -200.5 -90t-80.5 -231q0 -139 82 -231.5t199 -92.5q73 0 135.5 36t87.5 91 l268 -82q-57 -125 -186 -201.5t-301 -76.5z" />
<glyph unicode="&#x10c;" horiz-adv-x="1404" d="M604 1874l174 -129l174 129l142 -66l-217 -206h-199l-217 206zM780 1462q195 0 344.5 -86t221.5 -231l-218 -150q-35 78 -97 128.5t-125.5 69.5t-133.5 19q-102 0 -184.5 -42.5t-133 -112.5t-77.5 -154.5t-27 -173.5q0 -129 53 -241t152 -181t221 -69q70 0 137 21.5 t128.5 73t93.5 126.5l231 -133q-43 -104 -141.5 -182.5t-217 -117t-239.5 -38.5t-232 42t-195.5 115.5t-148 168t-96.5 204t-33 219.5q0 134 49.5 263t138.5 232t227 166.5t302 63.5z" />
<glyph unicode="&#x10d;" horiz-adv-x="1155" d="M449 1495l174 -129l174 129l141 -65l-217 -207h-199l-217 207zM625 -20q-127 0 -235 45.5t-180 122t-112.5 177.5t-40.5 212q0 151 67.5 276t198 202t300.5 77t296 -74t189 -201l-268 -82q-34 58 -92 90.5t-127 32.5q-120 0 -200.5 -90t-80.5 -231q0 -139 82 -231.5 t199 -92.5q73 0 135.5 36t87.5 91l268 -82q-57 -125 -186 -201.5t-301 -76.5z" />
<glyph unicode="&#x10e;" horiz-adv-x="1466" d="M502 1874l174 -129l174 129l141 -66l-217 -206h-199l-217 206zM152 0v1454h528q173 0 311.5 -56.5t226 -156t133.5 -230t46 -282.5q0 -331 -195.5 -530t-521.5 -199h-528zM680 1206h-246v-958h246q203 0 317.5 134.5t114.5 346.5q0 215 -115 346t-317 131z" />
<glyph unicode="&#x10f;" horiz-adv-x="1320" d="M59 537q0 153 61 280t171.5 201t247.5 74q115 0 210.5 -56.5t151.5 -150.5v610h275v-1188q0 -44 14 -62.5t49 -21.5v-223q-71 -14 -117 -14q-73 0 -121.5 36.5t-54.5 96.5l-4 67q-58 -99 -159 -152.5t-214 -53.5q-146 0 -263 74t-182 201.5t-65 281.5zM1407 1198l-176 53 l110 244h256zM901 393v256q-34 89 -113.5 149t-162.5 60q-121 0 -201 -97.5t-80 -230.5q0 -134 84.5 -225.5t212.5 -91.5q80 0 156.5 51.5t103.5 128.5z" />
<glyph unicode="&#x110;" horiz-adv-x="1476" d="M690 1454q173 0 311.5 -56.5t226 -156t133.5 -230t46 -282.5q0 -331 -195.5 -530t-521.5 -199h-528v629h-99v205h99v620h528zM690 248q203 0 317.5 134.5t114.5 346.5q0 215 -115 346t-317 131h-246v-372h285v-205h-285v-381h246z" />
<glyph unicode="&#x111;" horiz-adv-x="1320" d="M1305 1223h-129v-916q0 -44 14 -62.5t49 -21.5v-223q-71 -14 -117 -14q-73 0 -121.5 36.5t-54.5 96.5l-4 67q-58 -99 -159 -152.5t-214 -53.5q-146 0 -263 74t-182 201.5t-65 281.5q0 153 61 280t171.5 201t247.5 74q115 0 210.5 -56.5t151.5 -150.5v338h-205v161h205 v111h275v-111h129v-161zM901 393v256q-34 89 -113.5 149t-162.5 60q-121 0 -201 -97.5t-80 -230.5q0 -134 84.5 -225.5t212.5 -91.5q80 0 156.5 51.5t103.5 128.5z" />
<glyph unicode="&#x112;" horiz-adv-x="1230" d="M362 1675v170h615v-170h-615zM1161 248v-248h-1009v1454h991v-248h-709v-350h613v-229h-613v-379h727z" />
<glyph unicode="&#x113;" horiz-adv-x="1226" d="M315 1296v170h615v-170h-615zM623 -20q-168 0 -299 76t-199 200.5t-68 273.5q0 153 68 280.5t199 204.5t301 77q128 0 234.5 -45t177 -121.5t109 -175.5t38.5 -209q0 -57 -6 -92h-830q10 -122 92 -195.5t193 -73.5q83 0 155.5 40.5t98.5 105.5l235 -66 q-60 -126 -192.5 -203t-306.5 -77zM342 623h561q-12 121 -90.5 195.5t-191.5 74.5q-111 0 -190 -75t-89 -195z" />
<glyph unicode="&#x114;" horiz-adv-x="1230" d="M791 1874h145q0 -119 -75.5 -197t-192.5 -78t-193 78t-76 197h148q0 -61 36.5 -106.5t84.5 -45.5q46 0 81.5 43.5t41.5 108.5zM1161 248v-248h-1009v1454h991v-248h-709v-350h613v-229h-613v-379h727z" />
<glyph unicode="&#x115;" horiz-adv-x="1226" d="M743 1495h146q0 -119 -75.5 -196.5t-192.5 -77.5t-193 77.5t-76 196.5h148q0 -61 36.5 -106.5t84.5 -45.5q46 0 81 43t41 109zM623 -20q-168 0 -299 76t-199 200.5t-68 273.5q0 153 68 280.5t199 204.5t301 77q128 0 234.5 -45t177 -121.5t109 -175.5t38.5 -209 q0 -57 -6 -92h-830q10 -122 92 -195.5t193 -73.5q83 0 155.5 40.5t98.5 105.5l235 -66q-60 -126 -192.5 -203t-306.5 -77zM342 623h561q-12 121 -90.5 195.5t-191.5 74.5q-111 0 -190 -75t-89 -195z" />
<glyph unicode="&#x116;" horiz-adv-x="1230" d="M545 1616v258h248v-258h-248zM1161 248v-248h-1009v1454h991v-248h-709v-350h613v-229h-613v-379h727z" />
<glyph unicode="&#x117;" horiz-adv-x="1226" d="M498 1237v258h247v-258h-247zM623 -20q-168 0 -299 76t-199 200.5t-68 273.5q0 153 68 280.5t199 204.5t301 77q128 0 234.5 -45t177 -121.5t109 -175.5t38.5 -209q0 -57 -6 -92h-830q10 -122 92 -195.5t193 -73.5q83 0 155.5 40.5t98.5 105.5l235 -66 q-60 -126 -192.5 -203t-306.5 -77zM342 623h561q-12 121 -90.5 195.5t-191.5 74.5q-111 0 -190 -75t-89 -195z" />
<glyph unicode="&#x118;" horiz-adv-x="1230" d="M1161 0q-153 -108 -153 -178q0 -73 153 -76l-55 -156q-75 6 -129.5 24.5t-84.5 44.5t-44 54.5t-14 61.5q0 122 141 225h-823v1454h991v-248h-709v-350h613v-229h-613v-379h727v-248z" />
<glyph unicode="&#x119;" horiz-adv-x="1226" d="M1184 541q0 -57 -6 -92h-830q10 -122 92 -195.5t193 -73.5q83 0 155.5 40.5t98.5 105.5l235 -66q-45 -95 -133.5 -164t-206.5 -98q-151 -106 -151 -176q0 -73 153 -76l-55 -156q-75 6 -129.5 24.5t-84.5 44.5t-44 54.5t-14 61.5q0 109 116 207q-232 17 -374 173.5 t-142 374.5q0 153 68 280.5t199 204.5t301 77q128 0 234.5 -45t177 -121.5t109 -175.5t38.5 -209zM342 623h561q-12 121 -90.5 195.5t-191.5 74.5q-111 0 -190 -75t-89 -195z" />
<glyph unicode="&#x11a;" horiz-adv-x="1230" d="M494 1874l174 -129l174 129l141 -66l-217 -206h-199l-217 206zM1161 248v-248h-1009v1454h991v-248h-709v-350h613v-229h-613v-379h727z" />
<glyph unicode="&#x11b;" horiz-adv-x="1226" d="M446 1495l175 -129l174 129l141 -65l-217 -207h-199l-217 207zM623 -20q-168 0 -299 76t-199 200.5t-68 273.5q0 153 68 280.5t199 204.5t301 77q128 0 234.5 -45t177 -121.5t109 -175.5t38.5 -209q0 -57 -6 -92h-830q10 -122 92 -195.5t193 -73.5q83 0 155.5 40.5 t98.5 105.5l235 -66q-60 -126 -192.5 -203t-306.5 -77zM342 623h561q-12 121 -90.5 195.5t-191.5 74.5q-111 0 -190 -75t-89 -195z" />
<glyph unicode="&#x11c;" horiz-adv-x="1484" d="M772 1731l-174 -129l-143 65l217 207h198l217 -207l-141 -65zM868 748h527v-748h-234v166q-176 -176 -405 -176q-189 0 -347.5 98t-250.5 269.5t-92 377.5q0 147 54.5 281t148 232.5t225.5 157t280 58.5q200 0 348.5 -84.5t223.5 -232.5l-211 -156q-55 106 -154 164.5 t-217 58.5q-121 0 -216.5 -67t-146.5 -178t-51 -242q0 -207 122.5 -347t307.5 -140q211 0 381 200v101h-293v207z" />
<glyph unicode="&#x11d;" horiz-adv-x="1298" d="M322 1288l217 207h198l217 -207l-141 -65l-174 129l-174 -129zM61 537q0 154 63 280.5t178 200.5t259 74q121 0 216 -55t159 -152v188h240v-1022q0 -155 -77.5 -271.5t-212 -176.5t-306.5 -60q-169 0 -290.5 57t-211.5 167l149 145q62 -75 155.5 -118.5t197.5 -43.5 q66 0 123 18t102 53.5t70.5 94.5t25.5 135v135q-53 -91 -149 -141.5t-207 -50.5q-140 0 -251.5 74t-172 198t-60.5 271zM901 393v256q-36 93 -114.5 151t-165.5 58q-122 0 -200.5 -98.5t-78.5 -231.5t85 -224t210 -91q87 0 160.5 52t103.5 128z" />
<glyph unicode="&#x11e;" horiz-adv-x="1484" d="M772 1599q-117 0 -192.5 78t-75.5 197h147q0 -61 36.5 -106.5t84.5 -45.5q46 0 81.5 43.5t41.5 108.5h145q0 -119 -75.5 -197t-192.5 -78zM868 748h527v-748h-234v166q-176 -176 -405 -176q-189 0 -347.5 98t-250.5 269.5t-92 377.5q0 147 54.5 281t148 232.5t225.5 157 t280 58.5q200 0 348.5 -84.5t223.5 -232.5l-211 -156q-55 106 -154 164.5t-217 58.5q-121 0 -216.5 -67t-146.5 -178t-51 -242q0 -207 122.5 -347t307.5 -140q211 0 381 200v101h-293v207z" />
<glyph unicode="&#x11f;" horiz-adv-x="1298" d="M762 1495h145q0 -119 -75.5 -196.5t-192.5 -77.5t-192.5 77.5t-75.5 196.5h147q0 -61 36.5 -106.5t84.5 -45.5q46 0 81.5 43.5t41.5 108.5zM61 537q0 154 63 280.5t178 200.5t259 74q121 0 216 -55t159 -152v188h240v-1022q0 -155 -77.5 -271.5t-212 -176.5t-306.5 -60 q-169 0 -290.5 57t-211.5 167l149 145q62 -75 155.5 -118.5t197.5 -43.5q66 0 123 18t102 53.5t70.5 94.5t25.5 135v135q-53 -91 -149 -141.5t-207 -50.5q-140 0 -251.5 74t-172 198t-60.5 271zM901 393v256q-36 93 -114.5 151t-165.5 58q-122 0 -200.5 -98.5t-78.5 -231.5 t85 -224t210 -91q87 0 160.5 52t103.5 128z" />
<glyph unicode="&#x120;" horiz-adv-x="1484" d="M897 1874v-258h-248v258h248zM868 748h527v-748h-234v166q-176 -176 -405 -176q-189 0 -347.5 98t-250.5 269.5t-92 377.5q0 147 54.5 281t148 232.5t225.5 157t280 58.5q200 0 348.5 -84.5t223.5 -232.5l-211 -156q-55 106 -154 164.5t-217 58.5q-121 0 -216.5 -67 t-146.5 -178t-51 -242q0 -207 122.5 -347t307.5 -140q211 0 381 200v101h-293v207z" />
<glyph unicode="&#x121;" horiz-adv-x="1298" d="M516 1237v258h248v-258h-248zM61 537q0 154 63 280.5t178 200.5t259 74q121 0 216 -55t159 -152v188h240v-1022q0 -155 -77.5 -271.5t-212 -176.5t-306.5 -60q-169 0 -290.5 57t-211.5 167l149 145q62 -75 155.5 -118.5t197.5 -43.5q66 0 123 18t102 53.5t70.5 94.5 t25.5 135v135q-53 -91 -149 -141.5t-207 -50.5q-140 0 -251.5 74t-172 198t-60.5 271zM901 393v256q-36 93 -114.5 151t-165.5 58q-122 0 -200.5 -98.5t-78.5 -231.5t85 -224t210 -91q87 0 160.5 52t103.5 128z" />
<glyph unicode="&#x122;" horiz-adv-x="1484" d="M868 748h527v-748h-234v166q-176 -176 -405 -176q-189 0 -347.5 98t-250.5 269.5t-92 377.5q0 147 54.5 281t148 232.5t225.5 157t280 58.5q200 0 348.5 -84.5t223.5 -232.5l-211 -156q-55 106 -154 164.5t-217 58.5q-121 0 -216.5 -67t-146.5 -178t-51 -242 q0 -207 122.5 -347t307.5 -140q211 0 381 200v101h-293v207zM639 -289v193h231v-193l-82 -147h-124l55 147h-80z" />
<glyph unicode="&#x123;" horiz-adv-x="1298" d="M729 1495l-55 -129h80v-172h-232v172l82 129h125zM61 537q0 154 63 280.5t178 200.5t259 74q121 0 216 -55t159 -152v188h240v-1022q0 -155 -77.5 -271.5t-212 -176.5t-306.5 -60q-169 0 -290.5 57t-211.5 167l149 145q62 -75 155.5 -118.5t197.5 -43.5q66 0 123 18 t102 53.5t70.5 94.5t25.5 135v135q-53 -91 -149 -141.5t-207 -50.5q-140 0 -251.5 74t-172 198t-60.5 271zM901 393v256q-36 93 -114.5 151t-165.5 58q-122 0 -200.5 -98.5t-78.5 -231.5t85 -224t210 -91q87 0 160.5 52t103.5 128z" />
<glyph unicode="&#x124;" horiz-adv-x="1525" d="M451 1665l217 207h198l217 -207l-141 -66l-174 130l-174 -130zM1374 1454v-1454h-280v621h-660v-621h-282v1454h282v-588h660v588h280z" />
<glyph unicode="&#x125;" horiz-adv-x="1236" d="M338 1669l217 207h199l217 -207l-142 -65l-174 129l-174 -129zM1122 0h-274v602q0 124 -47 186t-133 62q-78 0 -158.5 -64t-110.5 -159v-627h-274v1495h274v-621q60 103 162 160.5t223 57.5q338 0 338 -422v-670z" />
<glyph unicode="&#x126;" horiz-adv-x="1542" d="M1485 1247v-155h-103v-1092h-280v621h-660v-621h-282v1092h-103v155h103v207h282v-207h660v207h280v-207h103zM1102 866v226h-660v-226h660z" />
<glyph unicode="&#x127;" horiz-adv-x="1236" d="M784 1092q338 0 338 -422v-670h-274v602q0 124 -47 186t-133 62q-78 0 -158.5 -64t-110.5 -159v-627h-274v1223h-92v161h92v111h274v-111h242v-161h-242v-349q60 103 162 160.5t223 57.5z" />
<glyph unicode="&#x128;" horiz-adv-x="585" d="M158 1704q-26 0 -45.5 -10t-29 -22.5t-15.5 -28.5t-7.5 -24.5t-1.5 -12.5h-151q0 24 13 63.5t38.5 86t75 79.5t112.5 33q53 0 100 -24t89 -48t82 -24q28 0 49 10t31.5 23.5t17.5 29.5t8.5 25t1.5 14h152q0 -14 -7.5 -42t-27 -66.5t-46.5 -72.5t-72 -57.5t-99 -23.5 q-52 0 -100 23t-89.5 46t-78.5 23zM152 0v1454h282v-1454h-282z" />
<glyph unicode="&#x129;" horiz-adv-x="522" d="M127 1325q-26 0 -45.5 -10t-29 -22.5t-15.5 -28.5t-7 -24.5t-1 -12.5h-152q0 18 7.5 47t25.5 67t44 70.5t69 55t94 22.5q42 0 81 -15t64 -33t59 -33t66 -15q28 0 49 10t32 23.5t18 29.5t8.5 25t1.5 14h151q0 -14 -7.5 -42t-27 -66.5t-46.5 -72.5t-72 -57.5t-99 -23.5 q-52 0 -100 23t-89.5 46t-78.5 23zM125 0v1073h274v-1073h-274z" />
<glyph unicode="&#x12a;" horiz-adv-x="585" d="M-12 1675v170h614v-170h-614zM152 0v1454h282v-1454h-282z" />
<glyph unicode="&#x12b;" horiz-adv-x="522" d="M-43 1296v170h614v-170h-614zM125 0v1073h274v-1073h-274z" />
<glyph unicode="&#x12c;" horiz-adv-x="585" d="M416 1874h145q0 -119 -75.5 -197t-192.5 -78t-192.5 78t-75.5 197h147q0 -61 36.5 -106.5t84.5 -45.5q46 0 81.5 43.5t41.5 108.5zM152 0v1454h282v-1454h-282z" />
<glyph unicode="&#x12d;" horiz-adv-x="522" d="M385 1495h145q0 -119 -75.5 -196.5t-192.5 -77.5t-192.5 77.5t-75.5 196.5h147q0 -61 36.5 -106.5t84.5 -45.5q46 0 81.5 43.5t41.5 108.5zM125 0v1073h274v-1073h-274z" />
<glyph unicode="&#x12e;" horiz-adv-x="585" d="M434 0q-153 -108 -153 -178q0 -73 153 -76l-55 -156q-144 13 -208.5 64t-64.5 121q0 121 142 225h-96v1454h282v-1454z" />
<glyph unicode="&#x12f;" horiz-adv-x="522" d="M125 1495h274v-272h-274v272zM125 0v1073h274v-1073q-153 -108 -153 -178q0 -73 153 -76l-55 -156q-75 6 -129.5 24.5t-84.5 44.5t-44 54.5t-14 61.5q0 122 141 225h-88z" />
<glyph unicode="&#x130;" horiz-adv-x="585" d="M170 1616v258h248v-258h-248zM152 0v1454h282v-1454h-282z" />
<glyph unicode="&#x131;" horiz-adv-x="522" d="M125 0v1073h274v-1073h-274z" />
<glyph unicode="&#x134;" horiz-adv-x="1005" d="M416 1667l217 207h198l218 -207l-142 -65l-174 129l-174 -129zM78 297q35 -25 103.5 -47.5t150.5 -22.5q65 0 110 18t74 51t44.5 92.5t21.5 129.5t6 174v762h282v-739q0 -102 -4.5 -179.5t-18.5 -158t-38 -137.5t-64.5 -109.5t-96.5 -84.5t-135 -50.5t-179 -18.5 q-187 0 -320 91z" />
<glyph unicode="&#x135;" horiz-adv-x="522" d="M-55 1288l217 207h198l218 -207l-142 -65l-174 129l-174 -129zM-246 -305l117 186q48 -45 121 -45q55 0 94 38t39 97v1102h274v-1081q0 -171 -107.5 -282t-264.5 -111q-165 0 -273 96z" />
<glyph unicode="&#x136;" horiz-adv-x="1370" d="M152 0v1452h282v-690l610 692h312l-557 -645l592 -809h-320l-453 627l-184 -193v-434h-282zM623 -436l55 147h-80v193h231v-193l-81 -147h-125z" />
<glyph unicode="&#x137;" horiz-adv-x="1142" d="M858 0l-313 463l-146 -144v-319h-274v1495h274v-905l432 481h291l-399 -455l428 -616h-293zM494 -436l55 147h-80v193h231v-193l-82 -147h-124z" />
<glyph unicode="&#x138;" horiz-adv-x="1142" d="M858 0l-311 465l-148 -146v-319h-274v1073h274v-485l430 483h293l-399 -455l428 -616h-293z" />
<glyph unicode="&#x139;" horiz-adv-x="1196" d="M381 1577l-176 53l110 244h256zM152 0v1454h282v-1206h742v-248h-1024z" />
<glyph unicode="&#x13a;" horiz-adv-x="649" d="M350 1579l-176 53l111 244h256zM123 1495h274v-1151q0 -71 23 -98t69 -27q66 0 129 29l37 -209q-54 -25 -127 -40t-135 -15q-128 0 -199 69t-71 195v1247z" />
<glyph unicode="&#x13b;" horiz-adv-x="1196" d="M152 0v1454h282v-1206h742v-248h-1024zM590 -436l55 147h-80v193h232v-193l-82 -147h-125z" />
<glyph unicode="&#x13c;" horiz-adv-x="649" d="M123 1495h274v-1151q0 -71 23 -98t69 -27q66 0 129 29l37 -209q-54 -25 -127 -40t-135 -15q-128 0 -199 69t-71 195v1247zM289 -436l55 147h-80v193h232v-193l-82 -147h-125z" />
<glyph unicode="&#x13d;" horiz-adv-x="1196" d="M913 1202l-176 53l111 244h256zM152 0v1454h282v-1206h742v-248h-1024z" />
<glyph unicode="&#x13e;" horiz-adv-x="649" d="M123 1495h274v-1151q0 -71 23 -98t69 -27q66 0 129 29l37 -209q-54 -25 -127 -40t-135 -15q-128 0 -199 69t-71 195v1247zM653 1198l-176 53l111 244h256z" />
<glyph unicode="&#x13f;" horiz-adv-x="1196" d="M152 0v1454h282v-1206h742v-248h-1024zM748 678v309h225v-309h-225z" />
<glyph unicode="&#x140;" horiz-adv-x="813" d="M123 1495h274v-1151q0 -71 23 -98t69 -27q66 0 129 29l37 -209q-54 -25 -127 -40t-135 -15q-128 0 -199 69t-71 195v1247zM553 496v309h225v-309h-225z" />
<glyph unicode="&#x141;" horiz-adv-x="1216" d="M453 248h741v-248h-1024v563l-107 -67l-67 149l174 111v698h283v-520l225 141l67 -149l-292 -185v-493z" />
<glyph unicode="&#x142;" horiz-adv-x="704" d="M668 248l37 -209q-54 -25 -127.5 -40t-135.5 -15q-128 0 -199 69t-71 195v366l-104 -63l-70 147l174 105v692h274v-528l177 106l69 -147l-246 -148v-434q0 -71 23.5 -98t69.5 -27q66 0 129 29z" />
<glyph unicode="&#x143;" horiz-adv-x="1562" d="M870 1575l-176 53l111 244h256zM434 934v-934h-282v1454h225l751 -958v956h283v-1452h-235z" />
<glyph unicode="&#x144;" horiz-adv-x="1236" d="M739 1198l-176 53l111 244h256zM1122 0h-274v602q0 248 -170 248q-85 0 -167 -64t-112 -159v-627h-274v1073h248v-199q60 102 173.5 160t252.5 58q78 0 136.5 -24.5t93.5 -63.5t56.5 -96t29 -113.5t7.5 -124.5v-670z" />
<glyph unicode="&#x145;" horiz-adv-x="1562" d="M434 934v-934h-282v1454h225l751 -958v956h283v-1452h-235zM682 -436l55 147h-80v193h232v-193l-82 -147h-125z" />
<glyph unicode="&#x146;" horiz-adv-x="1236" d="M1122 0h-274v602q0 248 -170 248q-85 0 -167 -64t-112 -159v-627h-274v1073h248v-199q60 102 173.5 160t252.5 58q78 0 136.5 -24.5t93.5 -63.5t56.5 -96t29 -113.5t7.5 -124.5v-670zM520 -436l55 147h-79v193h231v-193l-82 -147h-125z" />
<glyph unicode="&#x147;" horiz-adv-x="1562" d="M606 1872l174 -129l174 129l142 -66l-217 -207h-199l-217 207zM434 934v-934h-282v1454h225l751 -958v956h283v-1452h-235z" />
<glyph unicode="&#x148;" horiz-adv-x="1236" d="M475 1495l174 -129l174 129l142 -65l-217 -207h-199l-217 207zM1122 0h-274v602q0 248 -170 248q-85 0 -167 -64t-112 -159v-627h-274v1073h248v-199q60 102 173.5 160t252.5 58q78 0 136.5 -24.5t93.5 -63.5t56.5 -96t29 -113.5t7.5 -124.5v-670z" />
<glyph unicode="&#x14a;" horiz-adv-x="1536" d="M434 924v-924h-282v1454h217l733 -942v940h280v-1470q0 -168 -108 -275.5t-264 -107.5q-165 0 -273 96l119 186q45 -45 119 -45q55 0 94 38t39 97v86z" />
<glyph unicode="&#x14b;" horiz-adv-x="1236" d="M477 -305l117 186q48 -45 121 -45q55 0 94 38t39 97v631q0 248 -170 248q-85 0 -167 -64t-112 -159v-627h-274v1073h248v-199q60 102 173.5 160t252.5 58q78 0 136 -24.5t93 -63.5t56 -96t28.5 -113.5t7.5 -124.5v-678q0 -171 -107 -282t-263 -111q-165 0 -273 96z" />
<glyph unicode="&#x14c;" horiz-adv-x="1548" d="M473 1675v170h614v-170h-614zM63 727q0 144 54.5 278.5t148 235.5t227.5 162t285 61q123 0 235 -41.5t196 -114t146.5 -166t95 -201.5t32.5 -218q0 -143 -54 -276.5t-146.5 -234.5t-226 -161.5t-284.5 -60.5q-124 0 -236 40.5t-197 111.5t-148 164t-95.5 201.5 t-32.5 219.5zM774 240q99 0 181 42t134 111.5t80.5 156t28.5 177.5q0 128 -50.5 237.5t-149 178.5t-224.5 69q-99 0 -181 -42t-134 -111t-80.5 -155t-28.5 -177q0 -128 49 -237.5t147.5 -179.5t227.5 -70z" />
<glyph unicode="&#x14d;" horiz-adv-x="1241" d="M315 1296v170h615v-170h-615zM57 535q0 112 40 213t111 177.5t178.5 121.5t234.5 45q169 0 298.5 -77.5t196 -203t66.5 -276.5q0 -111 -39 -211.5t-109.5 -177t-177.5 -121.5t-235 -45q-103 0 -193 29.5t-157 81.5t-116 121.5t-73.5 152t-24.5 170.5zM621 213 q119 0 199.5 92t80.5 232q0 139 -80.5 230t-199.5 91t-200 -92t-81 -231q0 -140 80.5 -231t200.5 -91z" />
<glyph unicode="&#x14e;" horiz-adv-x="1548" d="M901 1874h146q0 -119 -76 -197t-193 -78t-192.5 78t-75.5 197h147q0 -61 36.5 -106.5t84.5 -45.5q46 0 81.5 43.5t41.5 108.5zM63 727q0 144 54.5 278.5t148 235.5t227.5 162t285 61q123 0 235 -41.5t196 -114t146.5 -166t95 -201.5t32.5 -218q0 -143 -54 -276.5 t-146.5 -234.5t-226 -161.5t-284.5 -60.5q-124 0 -236 40.5t-197 111.5t-148 164t-95.5 201.5t-32.5 219.5zM774 240q99 0 181 42t134 111.5t80.5 156t28.5 177.5q0 128 -50.5 237.5t-149 178.5t-224.5 69q-99 0 -181 -42t-134 -111t-80.5 -155t-28.5 -177q0 -128 49 -237.5 t147.5 -179.5t227.5 -70z" />
<glyph unicode="&#x14f;" horiz-adv-x="1241" d="M743 1495h146q0 -119 -75.5 -196.5t-192.5 -77.5t-193 77.5t-76 196.5h148q0 -61 36.5 -106.5t84.5 -45.5q46 0 81 43t41 109zM57 535q0 112 40 213t111 177.5t178.5 121.5t234.5 45q169 0 298.5 -77.5t196 -203t66.5 -276.5q0 -111 -39 -211.5t-109.5 -177 t-177.5 -121.5t-235 -45q-103 0 -193 29.5t-157 81.5t-116 121.5t-73.5 152t-24.5 170.5zM621 213q119 0 199.5 92t80.5 232q0 139 -80.5 230t-199.5 91t-200 -92t-81 -231q0 -140 80.5 -231t200.5 -91z" />
<glyph unicode="&#x150;" horiz-adv-x="1548" d="M649 1579l-135 53l98 244h213zM977 1579l-133 53l96 244h215zM63 727q0 144 54.5 278.5t148 235.5t227.5 162t285 61q123 0 235 -41.5t196 -114t146.5 -166t95 -201.5t32.5 -218q0 -143 -54 -276.5t-146.5 -234.5t-226 -161.5t-284.5 -60.5q-124 0 -236 40.5t-197 111.5 t-148 164t-95.5 201.5t-32.5 219.5zM774 240q99 0 181 42t134 111.5t80.5 156t28.5 177.5q0 128 -50.5 237.5t-149 178.5t-224.5 69q-99 0 -181 -42t-134 -111t-80.5 -155t-28.5 -177q0 -128 49 -237.5t147.5 -179.5t227.5 -70z" />
<glyph unicode="&#x151;" horiz-adv-x="1241" d="M492 1200l-136 53l99 244h213zM819 1200l-133 53l96 244h215zM57 535q0 112 40 213t111 177.5t178.5 121.5t234.5 45q169 0 298.5 -77.5t196 -203t66.5 -276.5q0 -111 -39 -211.5t-109.5 -177t-177.5 -121.5t-235 -45q-103 0 -193 29.5t-157 81.5t-116 121.5t-73.5 152 t-24.5 170.5zM621 213q119 0 199.5 92t80.5 232q0 139 -80.5 230t-199.5 91t-200 -92t-81 -231q0 -140 80.5 -231t200.5 -91z" />
<glyph unicode="&#x152;" horiz-adv-x="2222" d="M2154 248v-248h-983v215q-72 -101 -181.5 -163t-235.5 -62q-150 0 -281 62.5t-219.5 166t-139.5 236t-51 272.5q0 193 89.5 361.5t250.5 272t355 103.5q128 0 235 -61t178 -162v213h965v-248h-682v-342h571v-248h-571v-368h700zM1159 729q0 94 -28.5 181.5t-79 155 t-127.5 108t-168 40.5q-95 0 -173.5 -42t-128.5 -111.5t-77 -156t-27 -177.5q0 -128 47.5 -238t142 -179.5t216.5 -69.5q95 0 173 42t127.5 112t76 156.5t26.5 178.5z" />
<glyph unicode="&#x153;" horiz-adv-x="2070" d="M57 535q0 241 158.5 399t400.5 158q137 0 245 -64.5t179 -185.5q154 250 430 250q158 0 283.5 -69.5t197.5 -196t77 -289.5q0 -48 -7 -88h-827q7 -117 91.5 -196t201.5 -79q86 0 159 43t99 109l227 -66q-61 -129 -195.5 -204.5t-299.5 -75.5q-247 0 -435 241 q-95 -123 -197.5 -182t-228.5 -59q-241 0 -400 158t-159 397zM1747 618q-10 122 -90.5 198.5t-194.5 76.5t-191.5 -77t-84.5 -198h561zM901 535q0 140 -79.5 231.5t-200.5 91.5q-120 0 -200.5 -93.5t-80.5 -232.5q0 -138 79.5 -228.5t201.5 -90.5q121 0 200.5 92t79.5 230z " />
<glyph unicode="&#x154;" horiz-adv-x="1361" d="M731 1579l-176 53l111 244h256zM152 0v1454h643q129 0 237 -71.5t166.5 -181.5t58.5 -230q0 -140 -71.5 -256.5t-190.5 -167.5l332 -547h-311l-299 487h-283v-487h-282zM434 735h354q78 0 131.5 68.5t53.5 167.5t-60 167t-137 68h-342v-471z" />
<glyph unicode="&#x155;" horiz-adv-x="792" d="M532 1198l-176 53l111 244h256zM764 836q-128 -2 -225.5 -50t-139.5 -137v-649h-274v1073h252v-229q57 109 145.5 174t186.5 69q43 0 55 -2v-249z" />
<glyph unicode="&#x156;" horiz-adv-x="1361" d="M152 0v1454h643q129 0 237 -71.5t166.5 -181.5t58.5 -230q0 -140 -71.5 -256.5t-190.5 -167.5l332 -547h-311l-299 487h-283v-487h-282zM434 735h354q78 0 131.5 68.5t53.5 167.5t-60 167t-137 68h-342v-471zM602 -436l55 147h-79v193h231v-193l-82 -147h-125z" />
<glyph unicode="&#x157;" horiz-adv-x="792" d="M764 836q-128 -2 -225.5 -50t-139.5 -137v-649h-274v1073h252v-229q57 109 145.5 174t186.5 69q43 0 55 -2v-249zM154 -436l55 147h-80v193h231v-193l-81 -147h-125z" />
<glyph unicode="&#x158;" horiz-adv-x="1361" d="M467 1876l174 -129l174 129l141 -66l-217 -206h-198l-217 206zM152 0v1454h643q129 0 237 -71.5t166.5 -181.5t58.5 -230q0 -140 -71.5 -256.5t-190.5 -167.5l332 -547h-311l-299 487h-283v-487h-282zM434 735h354q78 0 131.5 68.5t53.5 167.5t-60 167t-137 68h-342v-471 z" />
<glyph unicode="&#x159;" horiz-adv-x="792" d="M268 1495l174 -129l174 129l142 -65l-217 -207h-199l-217 207zM764 836q-128 -2 -225.5 -50t-139.5 -137v-649h-274v1073h252v-229q57 109 145.5 174t186.5 69q43 0 55 -2v-249z" />
<glyph unicode="&#x15a;" horiz-adv-x="1255" d="M733 1591l-176 54l111 243h256zM1018 1073q-37 41 -156 92.5t-235 51.5q-114 0 -173 -42.5t-59 -121.5q0 -22 4.5 -40.5t17 -34.5t25 -28t38 -24t45.5 -20.5t58.5 -20t65.5 -19t78 -20.5q93 -24 159.5 -47.5t128 -59t98.5 -79t59 -105t22 -139.5q0 -113 -43.5 -198.5 t-120 -135.5t-170.5 -74t-205 -24q-163 0 -323.5 49.5t-286.5 138.5l125 244q52 -52 197.5 -115t291.5 -63q115 0 174.5 38.5t59.5 110.5q0 45 -20.5 76.5t-78 58.5t-100.5 41t-146 42q-7 2 -11 3t-10 3t-11 3q-109 31 -182 63.5t-127 78.5t-78.5 107.5t-24.5 144.5 q0 144 72 249t190.5 156t268.5 51q270 0 508 -161z" />
<glyph unicode="&#x15b;" horiz-adv-x="1011" d="M612 1198l-176 53l111 244h256zM520 -20q-139 0 -264 46t-213 132l98 178q192 -152 369 -152q81 0 128.5 29.5t47.5 85.5q0 13 -2.5 23.5t-10 20t-13.5 16.5t-21 14.5t-25 12t-32 12t-34.5 11t-41.5 12t-45 13.5q-79 25 -129.5 45t-98.5 47t-74 57t-41.5 71t-15.5 94 q0 158 119 252t316 94q241 0 403 -152l-111 -174q-160 123 -305 123q-72 0 -119 -26t-47 -85q0 -53 42 -78.5t153 -56.5q89 -26 141 -44.5t107.5 -46.5t84 -58.5t46.5 -74.5t18 -102q0 -158 -116.5 -248.5t-313.5 -90.5z" />
<glyph unicode="&#x15c;" horiz-adv-x="1255" d="M326 1681l217 207h198l217 -207l-141 -65l-174 129l-174 -129zM1018 1073q-37 41 -156 92.5t-235 51.5q-114 0 -173 -42.5t-59 -121.5q0 -22 4.5 -40.5t17 -34.5t25 -28t38 -24t45.5 -20.5t58.5 -20t65.5 -19t78 -20.5q93 -24 159.5 -47.5t128 -59t98.5 -79t59 -105 t22 -139.5q0 -113 -43.5 -198.5t-120 -135.5t-170.5 -74t-205 -24q-163 0 -323.5 49.5t-286.5 138.5l125 244q52 -52 197.5 -115t291.5 -63q115 0 174.5 38.5t59.5 110.5q0 45 -20.5 76.5t-78 58.5t-100.5 41t-146 42q-7 2 -11 3t-10 3t-11 3q-109 31 -182 63.5t-127 78.5 t-78.5 107.5t-24.5 144.5q0 144 72 249t190.5 156t268.5 51q270 0 508 -161z" />
<glyph unicode="&#x15d;" horiz-adv-x="1011" d="M205 1288l217 207h199l217 -207l-142 -65l-174 129l-174 -129zM520 -20q-139 0 -264 46t-213 132l98 178q192 -152 369 -152q81 0 128.5 29.5t47.5 85.5q0 13 -2.5 23.5t-10 20t-13.5 16.5t-21 14.5t-25 12t-32 12t-34.5 11t-41.5 12t-45 13.5q-79 25 -129.5 45t-98.5 47 t-74 57t-41.5 71t-15.5 94q0 158 119 252t316 94q241 0 403 -152l-111 -174q-160 123 -305 123q-72 0 -119 -26t-47 -85q0 -53 42 -78.5t153 -56.5q89 -26 141 -44.5t107.5 -46.5t84 -58.5t46.5 -74.5t18 -102q0 -158 -116.5 -248.5t-313.5 -90.5z" />
<glyph unicode="&#x15e;" horiz-adv-x="1255" d="M1194 416q0 -99 -33.5 -177t-93 -128.5t-136 -80.5t-169.5 -40q98 -88 98 -199q0 -90 -60.5 -146.5t-170.5 -56.5q-119 0 -246 62l70 145q68 -43 129 -43q53 0 82.5 24t29.5 68q0 73 -94 142q-150 8 -295 56t-260 130l125 244q52 -52 197.5 -115t291.5 -63 q115 0 174.5 38.5t59.5 110.5q0 45 -20.5 76.5t-78 58.5t-100.5 41t-146 42q-7 2 -11 3t-10 3t-11 3q-109 31 -182 63.5t-127 78.5t-78.5 107.5t-24.5 144.5q0 144 72 249t190.5 156t268.5 51q270 0 508 -161l-125 -230q-37 41 -156 92.5t-235 51.5q-114 0 -173 -42.5 t-59 -121.5q0 -22 4.5 -40.5t17 -34.5t25 -28t38 -24t45.5 -20.5t58.5 -20t65.5 -19t78 -20.5q93 -24 159.5 -47.5t128 -59t98.5 -79t59 -105t22 -139.5z" />
<glyph unicode="&#x15f;" horiz-adv-x="1011" d="M950 319q0 -133 -84.5 -219.5t-234.5 -111.5q96 -89 96 -197q0 -90 -60.5 -146.5t-170.5 -56.5q-119 0 -246 62l69 145q68 -43 130 -43q53 0 82.5 24t29.5 68q0 72 -88 138q-125 6 -237 51.5t-193 124.5l98 178q192 -152 369 -152q81 0 128.5 29.5t47.5 85.5 q0 13 -2.5 23.5t-10 20t-13.5 16.5t-21 14.5t-25 12t-32 12t-34.5 11t-41.5 12t-45 13.5q-79 25 -129.5 45t-98.5 47t-74 57t-41.5 71t-15.5 94q0 158 119 252t316 94q241 0 403 -152l-111 -174q-160 123 -305 123q-72 0 -119 -26t-47 -85q0 -53 42 -78.5t153 -56.5 q89 -26 141 -44.5t107.5 -46.5t84 -58.5t46.5 -74.5t18 -102z" />
<glyph unicode="&#x160;" horiz-adv-x="1255" d="M469 1888l174 -129l174 129l141 -65l-217 -207h-198l-217 207zM1018 1073q-37 41 -156 92.5t-235 51.5q-114 0 -173 -42.5t-59 -121.5q0 -22 4.5 -40.5t17 -34.5t25 -28t38 -24t45.5 -20.5t58.5 -20t65.5 -19t78 -20.5q93 -24 159.5 -47.5t128 -59t98.5 -79t59 -105 t22 -139.5q0 -113 -43.5 -198.5t-120 -135.5t-170.5 -74t-205 -24q-163 0 -323.5 49.5t-286.5 138.5l125 244q52 -52 197.5 -115t291.5 -63q115 0 174.5 38.5t59.5 110.5q0 45 -20.5 76.5t-78 58.5t-100.5 41t-146 42q-7 2 -11 3t-10 3t-11 3q-109 31 -182 63.5t-127 78.5 t-78.5 107.5t-24.5 144.5q0 144 72 249t190.5 156t268.5 51q270 0 508 -161z" />
<glyph unicode="&#x161;" horiz-adv-x="1011" d="M348 1495l174 -129l174 129l142 -65l-217 -207h-199l-217 207zM520 -20q-139 0 -264 46t-213 132l98 178q192 -152 369 -152q81 0 128.5 29.5t47.5 85.5q0 13 -2.5 23.5t-10 20t-13.5 16.5t-21 14.5t-25 12t-32 12t-34.5 11t-41.5 12t-45 13.5q-79 25 -129.5 45t-98.5 47 t-74 57t-41.5 71t-15.5 94q0 158 119 252t316 94q241 0 403 -152l-111 -174q-160 123 -305 123q-72 0 -119 -26t-47 -85q0 -53 42 -78.5t153 -56.5q89 -26 141 -44.5t107.5 -46.5t84 -58.5t46.5 -74.5t18 -102q0 -158 -116.5 -248.5t-313.5 -90.5z" />
<glyph unicode="&#x162;" horiz-adv-x="1267" d="M774 1206v-1206h-43q109 -91 109 -209q0 -90 -61 -146.5t-171 -56.5q-119 0 -246 62l70 145q68 -43 129 -43q53 0 83 24t30 68q0 80 -115 156h-65v1206h-465v248h1210v-248h-465z" />
<glyph unicode="&#x163;" horiz-adv-x="786" d="M569 -8q99 -92 99 -201q0 -90 -61 -146.5t-171 -56.5q-119 0 -246 62l70 145q68 -43 129 -43q53 0 83 24t30 68q0 73 -94 142q-100 13 -161 77.5t-61 182.5v616h-141v211h141v348h275v-348h225v-211h-225v-524q3 -105 102 -105q58 0 150 39l55 -217q-99 -45 -199 -63z " />
<glyph unicode="&#x164;" horiz-adv-x="1267" d="M471 1874l174 -129l174 129l142 -66l-218 -206h-198l-217 206zM1239 1206h-465v-1206h-280v1206h-465v248h1210v-248z" />
<glyph unicode="&#x165;" horiz-adv-x="786" d="M731 1198l-176 53l111 244h256zM768 55q-164 -73 -303 -73q-59 0 -108 15t-88 45.5t-61 82.5t-22 121v616h-141v211h141v348h275v-348h225v-211h-225v-524q3 -105 102 -105q58 0 150 39z" />
<glyph unicode="&#x166;" horiz-adv-x="1318" d="M1266 1206h-465v-456h368v-154h-368v-596h-281v596h-370v154h370v456h-465v248h1211v-248z" />
<glyph unicode="&#x167;" horiz-adv-x="788" d="M715 272l55 -217q-164 -73 -303 -73q-59 0 -108 15t-88 45.5t-61 82.5t-22 121v270h-122v164h122v182h-141v211h141v348h275v-348h225v-211h-225v-182h203v-164h-203v-178q3 -105 102 -105q58 0 150 39z" />
<glyph unicode="&#x168;" horiz-adv-x="1536" d="M633 1704q-26 0 -45.5 -10t-29 -22.5t-15.5 -28.5t-7 -24.5t-1 -12.5h-152q0 18 7.5 47t25.5 67t44 70.5t69 55t94 22.5q42 0 81 -15t64 -33t59 -33t66 -15q28 0 49 10t31.5 23.5t17.5 29.5t8.5 25t1.5 14h152q0 -14 -7.5 -42t-27 -66.5t-46.5 -72.5t-72 -57.5t-99 -23.5 q-52 0 -100 23t-89.5 46t-78.5 23zM768 -10q-135 0 -244 39.5t-181.5 106.5t-121 160t-69.5 196.5t-21 220.5v741h283v-741q0 -96 18.5 -177.5t58 -149.5t110 -107t165.5 -39q97 0 168.5 39.5t111 108.5t58 149.5t18.5 175.5v741h281v-741q0 -153 -37 -281t-111.5 -228.5 t-199 -157t-287.5 -56.5z" />
<glyph unicode="&#x169;" horiz-adv-x="1265" d="M479 1325q-26 0 -45.5 -10t-29 -22.5t-15.5 -28.5t-7 -24.5t-1 -12.5h-152q0 18 7.5 47t25.5 67t44 70.5t69 55t94 22.5q42 0 81 -15t64 -33t59 -33t66 -15q28 0 49 10t32 23.5t18 29.5t8.5 25t1.5 14h151q0 -11 -5.5 -33t-17 -52t-32 -60.5t-46.5 -57t-65.5 -43 t-84.5 -16.5q-52 0 -100.5 23t-90 46t-78.5 23zM115 401v672h274v-612q0 -248 178 -248q83 0 157 50t120 145v665h274v-766q0 -44 15 -62.5t51 -21.5v-223q-66 -12 -119 -12q-74 0 -120.5 33.5t-53.5 93.5l-6 86q-71 -109 -183 -165t-249 -56q-166 0 -252 107t-86 314z" />
<glyph unicode="&#x16a;" horiz-adv-x="1536" d="M463 1675v170h614v-170h-614zM768 -10q-135 0 -244 39.5t-181.5 106.5t-121 160t-69.5 196.5t-21 220.5v741h283v-741q0 -96 18.5 -177.5t58 -149.5t110 -107t165.5 -39q97 0 168.5 39.5t111 108.5t58 149.5t18.5 175.5v741h281v-741q0 -153 -37 -281t-111.5 -228.5 t-199 -157t-287.5 -56.5z" />
<glyph unicode="&#x16b;" horiz-adv-x="1265" d="M309 1296v170h615v-170h-615zM115 401v672h274v-612q0 -248 178 -248q83 0 157 50t120 145v665h274v-766q0 -44 15 -62.5t51 -21.5v-223q-66 -12 -119 -12q-74 0 -120.5 33.5t-53.5 93.5l-6 86q-71 -109 -183 -165t-249 -56q-166 0 -252 107t-86 314z" />
<glyph unicode="&#x16c;" horiz-adv-x="1536" d="M891 1874h145q0 -119 -75.5 -197t-192.5 -78t-192.5 78t-75.5 197h147q0 -61 36.5 -106.5t84.5 -45.5q46 0 81.5 43.5t41.5 108.5zM768 -10q-135 0 -244 39.5t-181.5 106.5t-121 160t-69.5 196.5t-21 220.5v741h283v-741q0 -96 18.5 -177.5t58 -149.5t110 -107t165.5 -39 q97 0 168.5 39.5t111 108.5t58 149.5t18.5 175.5v741h281v-741q0 -153 -37 -281t-111.5 -228.5t-199 -157t-287.5 -56.5z" />
<glyph unicode="&#x16d;" horiz-adv-x="1265" d="M737 1495h146q0 -119 -76 -196.5t-193 -77.5t-192.5 77.5t-75.5 196.5h148q0 -61 36 -106.5t84 -45.5q46 0 81.5 43.5t41.5 108.5zM115 401v672h274v-612q0 -248 178 -248q83 0 157 50t120 145v665h274v-766q0 -44 15 -62.5t51 -21.5v-223q-66 -12 -119 -12 q-74 0 -120.5 33.5t-53.5 93.5l-6 86q-71 -109 -183 -165t-249 -56q-166 0 -252 107t-86 314z" />
<glyph unicode="&#x16e;" horiz-adv-x="1536" d="M768 1907q97 0 156 -51t59 -136q0 -84 -59 -134t-156 -50q-96 0 -155.5 50t-59.5 134t59.5 135.5t155.5 51.5zM678 1722q0 -37 26 -63.5t64 -26.5q37 0 63.5 26t26.5 64t-26 63t-64 25t-64 -25t-26 -63zM768 -10q-135 0 -244 39.5t-181.5 106.5t-121 160t-69.5 196.5 t-21 220.5v741h283v-741q0 -96 18.5 -177.5t58 -149.5t110 -107t165.5 -39q97 0 168.5 39.5t111 108.5t58 149.5t18.5 175.5v741h281v-741q0 -153 -37 -281t-111.5 -228.5t-199 -157t-287.5 -56.5z" />
<glyph unicode="&#x16f;" horiz-adv-x="1265" d="M614 1528q97 0 156 -51t59 -136q0 -84 -59 -134t-156 -50q-96 0 -155.5 50t-59.5 134t59.5 135.5t155.5 51.5zM524 1343q0 -37 26 -63.5t64 -26.5q37 0 64 26t27 64t-26.5 63.5t-64.5 25.5t-64 -25.5t-26 -63.5zM115 401v672h274v-612q0 -248 178 -248q83 0 157 50 t120 145v665h274v-766q0 -44 15 -62.5t51 -21.5v-223q-66 -12 -119 -12q-74 0 -120.5 33.5t-53.5 93.5l-6 86q-71 -109 -183 -165t-249 -56q-166 0 -252 107t-86 314z" />
<glyph unicode="&#x170;" horiz-adv-x="1536" d="M639 1579l-135 53l98 244h213zM967 1579l-133 53l96 244h215zM768 -10q-135 0 -244 39.5t-181.5 106.5t-121 160t-69.5 196.5t-21 220.5v741h283v-741q0 -96 18.5 -177.5t58 -149.5t110 -107t165.5 -39q97 0 168.5 39.5t111 108.5t58 149.5t18.5 175.5v741h281v-741 q0 -153 -37 -281t-111.5 -228.5t-199 -157t-287.5 -56.5z" />
<glyph unicode="&#x171;" horiz-adv-x="1265" d="M485 1200l-135 53l99 244h213zM813 1200l-133 53l96 244h215zM115 401v672h274v-612q0 -248 178 -248q83 0 157 50t120 145v665h274v-766q0 -44 15 -62.5t51 -21.5v-223q-66 -12 -119 -12q-74 0 -120.5 33.5t-53.5 93.5l-6 86q-71 -109 -183 -165t-249 -56 q-166 0 -252 107t-86 314z" />
<glyph unicode="&#x172;" horiz-adv-x="1536" d="M1122 1454h281v-741q0 -133 -28 -247.5t-84 -210t-149 -160.5t-216 -91q-152 -106 -152 -176q0 -73 154 -76l-56 -155q-144 13 -208 63.5t-64 120.5q0 111 121 211q-125 6 -226 48t-168 109t-112 158.5t-64.5 192t-19.5 213.5v741h283v-741q0 -96 18.5 -177.5t58 -149.5 t110 -107t165.5 -39q97 0 168.5 39.5t111 108.5t58 149.5t18.5 175.5v741z" />
<glyph unicode="&#x173;" horiz-adv-x="1265" d="M1184 0q-154 -109 -154 -178q0 -73 154 -76l-56 -156q-75 6 -129.5 24.5t-84.5 44.5t-44 54.5t-14 61.5q0 119 137 223q-43 12 -69.5 42.5t-32.5 74.5l-6 86q-71 -109 -183 -165t-249 -56q-166 0 -252 107t-86 314v672h274v-612q0 -248 178 -248q83 0 157 50t120 145v665 h274v-766q0 -44 15 -62.5t51 -21.5v-223z" />
<glyph unicode="&#x174;" horiz-adv-x="2156" d="M760 1667l217 207h199l217 -207l-142 -65l-174 129l-174 -129zM649 1450h262l166 -481l168 481h260l-250 -662l185 -462l411 1128h308l-582 -1454h-244l-256 610l-254 -610h-243l-580 1454h303l414 -1128l180 462z" />
<glyph unicode="&#x175;" horiz-adv-x="1718" d="M541 1288l217 207h198l218 -207l-142 -65l-174 129l-174 -129zM1456 1073h260l-448 -1073h-230l-180 461l-176 -461h-231l-447 1073h258l320 -811l125 350l-187 459h228l110 -328l113 328h227l-186 -459l127 -350z" />
<glyph unicode="&#x176;" horiz-adv-x="1351" d="M356 1667l217 207h199l217 -207l-141 -65l-174 129l-174 -129zM315 1454l359 -684l364 684h305l-528 -946v-508h-280v512l-527 942h307z" />
<glyph unicode="&#x177;" horiz-adv-x="1126" d="M268 1288l217 207h199l217 -207l-141 -65l-174 129l-174 -129zM147 -209q78 -20 123 -20q56 0 90.5 47t75.5 182l-424 1073h285l289 -792l254 792h262l-451 -1286q-38 -114 -135 -185t-231 -71q-68 0 -138 23v237z" />
<glyph unicode="&#x178;" horiz-adv-x="1351" d="M362 1618v244h228v-244h-228zM756 1618v244h227v-244h-227zM315 1454l359 -684l364 684h305l-528 -946v-508h-280v512l-527 942h307z" />
<glyph unicode="&#x179;" horiz-adv-x="1284" d="M758 1577l-176 53l110 244h256zM61 213l811 993h-788v248h1124v-213l-784 -993h790v-248h-1153v213z" />
<glyph unicode="&#x17a;" horiz-adv-x="1009" d="M600 1198l-176 53l111 244h256zM53 168l592 713h-567v192h862v-168l-588 -712h598v-193h-897v168z" />
<glyph unicode="&#x17b;" horiz-adv-x="1284" d="M545 1616v258h248v-258h-248zM61 213l811 993h-788v248h1124v-213l-784 -993h790v-248h-1153v213z" />
<glyph unicode="&#x17c;" horiz-adv-x="1009" d="M387 1237v258h248v-258h-248zM53 168l592 713h-567v192h862v-168l-588 -712h598v-193h-897v168z" />
<glyph unicode="&#x17d;" horiz-adv-x="1284" d="M494 1874l174 -129l174 129l141 -66l-217 -206h-199l-217 206zM61 213l811 993h-788v248h1124v-213l-784 -993h790v-248h-1153v213z" />
<glyph unicode="&#x17e;" horiz-adv-x="1009" d="M336 1495l174 -129l174 129l141 -65l-217 -207h-198l-217 207zM53 168l592 713h-567v192h862v-168l-588 -712h598v-193h-897v168z" />
<glyph unicode="&#x18f;" horiz-adv-x="1527" d="M41 705q0 68 10 116h1104q-18 176 -132.5 283.5t-270.5 107.5q-118 0 -216 -62t-128 -161l-285 96q83 171 254 275t383 104q153 0 286 -61.5t223 -163t141.5 -233t51.5 -271.5q0 -146 -51 -281t-141 -238t-224 -164.5t-290 -61.5q-155 0 -291 61.5t-227.5 162.5 t-144 229.5t-52.5 261.5zM1151 600h-801q15 -158 131 -260t279 -102q158 0 268 101t123 261z" />
<glyph unicode="&#x192;" horiz-adv-x="1122" d="M59 -305l119 186q45 -45 121 -45q55 0 93 38t38 97v766h-139v211h139v133q0 199 97.5 317t260.5 118q131 0 265 -64l-56 -207q-70 39 -149 39q-70 0 -106.5 -49t-36.5 -143v-144h262v-211h-262v-760q0 -165 -108.5 -271.5t-264.5 -106.5q-165 0 -273 96z" />
<glyph unicode="&#x1a0;" horiz-adv-x="1548" d="M1180 1331q141 -105 222 -269t81 -339q0 -143 -54 -276.5t-146.5 -234.5t-226 -161.5t-284.5 -60.5q-124 0 -236 40.5t-197 111.5t-148 164t-95.5 201.5t-32.5 219.5q0 144 54.5 278.5t148 235.5t227.5 162t285 61q68 0 129 -12q124 3 168 47q15 17 22.5 41t9.5 42t3 52 h199q-2 -86 -18.5 -150t-67.5 -118q-22 -22 -43 -35zM774 240q99 0 181 42t134 111.5t80.5 156t28.5 177.5q0 128 -50.5 237.5t-149 178.5t-224.5 69q-99 0 -181 -42t-134 -111t-80.5 -155t-28.5 -177q0 -128 49 -237.5t147.5 -179.5t227.5 -70z" />
<glyph unicode="&#x1a1;" horiz-adv-x="1241" d="M1012 944q82 -76 126 -182.5t44 -226.5q0 -111 -39 -211.5t-109.5 -177t-177.5 -121.5t-235 -45q-103 0 -193 29.5t-157 81.5t-116 121.5t-73.5 152t-24.5 170.5q0 112 40 213t111 177.5t178.5 121.5t234.5 45q77 0 151 -19q109 6 150 47q15 17 22.5 41.5t9 41t2.5 52.5 h199q-2 -86 -18.5 -150t-67.5 -118q-16 -18 -57 -43zM621 213q119 0 199.5 92t80.5 232q0 139 -80.5 230t-199.5 91t-200 -92t-81 -231q0 -140 80.5 -231t200.5 -91z" />
<glyph unicode="&#x1af;" horiz-adv-x="1536" d="M1448 1636h199q-2 -86 -18.5 -150t-67.5 -118q-56 -56 -158 -80v-575q0 -153 -37 -281t-111.5 -228.5t-199 -157t-287.5 -56.5q-135 0 -244 39.5t-181.5 106.5t-121 160t-69.5 196.5t-21 220.5v741h283v-741q0 -96 18.5 -177.5t58 -149.5t110 -107t165.5 -39 q97 0 168.5 39.5t111 108.5t58 149.5t18.5 175.5v741h109q135 0 182 47q15 17 22.5 41t9.5 42t3 52z" />
<glyph unicode="&#x1b0;" horiz-adv-x="1265" d="M1186 1255h198q-2 -86 -18.5 -150t-67.5 -118q-58 -61 -180 -86v-594q0 -44 15 -62.5t51 -21.5v-223q-66 -12 -119 -12q-74 0 -120.5 33.5t-53.5 93.5l-6 86q-71 -109 -183 -165t-249 -56q-166 0 -252 107t-86 314v672h274v-612q0 -248 178 -248q83 0 157 50t120 145v665 h125q135 0 182 47q15 17 22.5 41t9.5 42t3 52z" />
<glyph unicode="&#x1e6;" horiz-adv-x="1484" d="M870 1602h-198l-217 206l143 66l174 -129l174 129l141 -66zM868 748h527v-748h-234v166q-176 -176 -405 -176q-189 0 -347.5 98t-250.5 269.5t-92 377.5q0 147 54.5 281t148 232.5t225.5 157t280 58.5q200 0 348.5 -84.5t223.5 -232.5l-211 -156q-55 106 -154 164.5 t-217 58.5q-121 0 -216.5 -67t-146.5 -178t-51 -242q0 -207 122.5 -347t307.5 -140q211 0 381 200v101h-293v207z" />
<glyph unicode="&#x1e7;" horiz-adv-x="1298" d="M465 1495l174 -129l174 129l141 -65l-217 -207h-198l-217 207zM61 537q0 154 63 280.5t178 200.5t259 74q121 0 216 -55t159 -152v188h240v-1022q0 -155 -77.5 -271.5t-212 -176.5t-306.5 -60q-169 0 -290.5 57t-211.5 167l149 145q62 -75 155.5 -118.5t197.5 -43.5 q66 0 123 18t102 53.5t70.5 94.5t25.5 135v135q-53 -91 -149 -141.5t-207 -50.5q-140 0 -251.5 74t-172 198t-60.5 271zM901 393v256q-36 93 -114.5 151t-165.5 58q-122 0 -200.5 -98.5t-78.5 -231.5t85 -224t210 -91q87 0 160.5 52t103.5 128z" />
<glyph unicode="&#x1ea;" horiz-adv-x="1548" d="M936 8q-145 -103 -145 -172q0 -73 153 -76l-55 -155q-144 13 -208.5 64t-64.5 120q0 109 113 203q-117 7 -222 50.5t-185 114.5t-139 162t-89.5 196t-30.5 212q0 144 54.5 278.5t148 235.5t227.5 162t285 61q123 0 235 -41.5t196 -114t146.5 -166t95 -201.5t32.5 -218 q0 -165 -68 -314t-193.5 -255.5t-285.5 -145.5zM350 727q0 -128 49 -237.5t147.5 -179.5t227.5 -70q99 0 181 42t134 111.5t80.5 156t28.5 177.5q0 128 -50.5 237.5t-149 178.5t-224.5 69q-99 0 -181 -42t-134 -111t-80.5 -155t-28.5 -177z" />
<glyph unicode="&#x1eb;" horiz-adv-x="1241" d="M778 -2q-151 -106 -151 -176q0 -73 153 -76l-55 -156q-75 6 -129.5 24.5t-84.5 44.5t-44 54.5t-14 61.5q0 109 116 207q-232 17 -372 176t-140 377q0 112 40 213t111 177.5t178.5 121.5t234.5 45q169 0 298.5 -77.5t196 -203t66.5 -276.5q0 -125 -47 -234.5t-139.5 -190 t-217.5 -112.5zM340 535q0 -140 80.5 -231t200.5 -91q119 0 199.5 92t80.5 232q0 139 -80.5 230t-199.5 91t-200 -92t-81 -231z" />
<glyph unicode="&#x1fa;" horiz-adv-x="1376" d="M846 1423l522 -1423h-291l-135 362h-508l-133 -362h-291l527 1423q-62 52 -62 136q0 62 34 107.5t93 64.5l90 182h256l-137 -195q94 -53 94 -159q0 -83 -59 -136zM690 1649q-38 0 -64 -25t-26 -63q0 -37 26 -64t64 -27q37 0 63.5 26.5t26.5 64.5t-26 63t-64 25zM481 561 h410l-201 600z" />
<glyph unicode="&#x1fb;" horiz-adv-x="1175" d="M680 1577l-176 53l110 244h256zM557 1528q97 0 156 -51t59 -136q0 -84 -59 -134t-156 -50q-96 0 -155.5 50t-59.5 134t59.5 135.5t155.5 51.5zM467 1343q0 -37 26 -63.5t64 -26.5q37 0 63.5 26t26.5 64t-26 63.5t-64 25.5t-64 -25.5t-26 -63.5zM51 317q0 156 128 252.5 t333 96.5q154 0 258 -43v57q0 103 -60.5 158t-179.5 55q-86 0 -164 -29.5t-171 -91.5l-89 180q215 140 453 140q230 0 357.5 -115t127.5 -328v-342q0 -44 15 -62.5t51 -21.5v-223q-69 -14 -117 -14q-79 0 -122.5 34.5t-53.5 92.5l-6 55q-69 -89 -173.5 -138.5t-213.5 -49.5 q-161 0 -267 96t-106 241zM719 262q51 51 51 94v109q-105 43 -215 43q-108 0 -176 -46.5t-68 -121.5q0 -65 52 -112.5t139 -47.5q61 0 119.5 22.5t97.5 59.5z" />
<glyph unicode="&#x1fc;" horiz-adv-x="1978" d="M1343 1577l-176 53l111 244h256zM856 1454h1034v-248h-682v-342h572v-248h-572v-368h701v-248h-979v362h-467l-215 -362h-299zM909 608v529l-325 -529h325z" />
<glyph unicode="&#x1fd;" horiz-adv-x="1918" d="M1042 1198l-176 53l111 244h256zM51 319q0 153 128 250t329 97q142 0 242 -41q3 47 16 90q-18 186 -236 186q-160 0 -337 -121l-84 174q212 138 448 138q248 0 375 -152q149 152 381 152q170 0 299.5 -77t196 -202t67.5 -276q0 -19 -6 -88h-840q9 -123 93 -196t202 -73 q83 0 155.5 40.5t98.5 105.5l236 -66q-62 -127 -194 -203.5t-306 -76.5q-148 0 -267.5 59t-193.5 162q-67 -109 -189.5 -165t-246.5 -56q-157 0 -262 96.5t-105 242.5zM1593 618q-11 123 -89 199t-195 76t-195.5 -76t-87.5 -199h567zM725 270q45 33 45 74q-16 49 -20 133 q-103 35 -197 35q-106 0 -175 -48t-69 -122q0 -69 54.5 -115.5t132.5 -46.5q69 0 130.5 24.5t98.5 65.5z" />
<glyph unicode="&#x1fe;" horiz-adv-x="1546" d="M1059 1874l-191 -297l-176 53l111 244h256zM1282 1237q95 -104 148 -239.5t53 -274.5q0 -143 -54 -276.5t-146.5 -234.5t-226 -161.5t-284.5 -60.5q-168 0 -311 73l-43 -63h-303l149 213q-96 105 -148.5 239t-52.5 275q0 144 54.5 278.5t148 235.5t227.5 162t285 61 q164 0 307 -73l43 63h306zM350 727q0 -159 74 -283l512 736q-75 32 -162 32q-99 0 -181 -42t-134 -111t-80.5 -155t-28.5 -177zM774 240q99 0 181 42t134 111.5t80.5 156t28.5 177.5q0 156 -76 283l-514 -736q72 -34 166 -34z" />
<glyph unicode="&#x1ff;" horiz-adv-x="1241" d="M821 1495l-190 -297l-176 53l110 244h256zM1024 932q76 -76 117 -178.5t41 -218.5q0 -111 -39 -211.5t-109.5 -177t-177.5 -121.5t-235 -45q-172 0 -304 77l-55 -65h-176l123 151q-73 76 -112.5 177.5t-39.5 214.5q0 112 40 213t111 177.5t178.5 121.5t234.5 45 q163 0 292 -74l52 63h180zM621 858q-119 0 -200 -92t-81 -231q0 -112 51 -191l365 477q-61 37 -135 37zM621 213q119 0 199.5 92t80.5 232q0 113 -55 196l-367 -479q62 -41 142 -41z" />
<glyph unicode="&#x200;" horiz-adv-x="1376" d="M307 1876h213l98 -244l-135 -53zM635 1876h215l96 -244l-135 -53zM547 1454h287l534 -1454h-291l-135 362h-508l-133 -362h-291zM891 561l-201 600l-209 -600h410z" />
<glyph unicode="&#x201;" horiz-adv-x="1175" d="M174 1497h213l98 -244l-135 -53zM502 1497h215l96 -244l-135 -53zM51 317q0 156 128 252.5t333 96.5q154 0 258 -43v57q0 103 -60.5 158t-179.5 55q-86 0 -164 -29.5t-171 -91.5l-89 180q215 140 453 140q230 0 357.5 -115t127.5 -328v-342q0 -44 15 -62.5t51 -21.5v-223 q-69 -14 -117 -14q-79 0 -122.5 34.5t-53.5 92.5l-6 55q-69 -89 -173.5 -138.5t-213.5 -49.5q-161 0 -267 96t-106 241zM719 262q51 51 51 94v109q-105 43 -215 43q-108 0 -176 -46.5t-68 -121.5q0 -65 52 -112.5t139 -47.5q61 0 119.5 22.5t97.5 59.5z" />
<glyph unicode="&#x202;" horiz-adv-x="1376" d="M569 1599h-147q0 119 75.5 197t192.5 78t192.5 -78t75.5 -197h-145q-6 65 -41.5 108.5t-81.5 43.5q-48 0 -84.5 -45.5t-36.5 -106.5zM547 1454h287l534 -1454h-291l-135 362h-508l-133 -362h-291zM891 561l-201 600l-209 -600h410z" />
<glyph unicode="&#x203;" horiz-adv-x="1175" d="M436 1221h-147q0 119 75.5 196.5t192.5 77.5t192.5 -77.5t75.5 -196.5h-145q-6 65 -41.5 108t-81.5 43q-48 0 -84.5 -45t-36.5 -106zM51 317q0 156 128 252.5t333 96.5q154 0 258 -43v57q0 103 -60.5 158t-179.5 55q-86 0 -164 -29.5t-171 -91.5l-89 180q215 140 453 140 q230 0 357.5 -115t127.5 -328v-342q0 -44 15 -62.5t51 -21.5v-223q-69 -14 -117 -14q-79 0 -122.5 34.5t-53.5 92.5l-6 55q-69 -89 -173.5 -138.5t-213.5 -49.5q-161 0 -267 96t-106 241zM719 262q51 51 51 94v109q-105 43 -215 43q-108 0 -176 -46.5t-68 -121.5 q0 -65 52 -112.5t139 -47.5q61 0 119.5 22.5t97.5 59.5z" />
<glyph unicode="&#x204;" horiz-adv-x="1230" d="M285 1876h213l98 -244l-135 -53zM612 1876h215l97 -244l-136 -53zM1161 248v-248h-1009v1454h991v-248h-709v-350h613v-229h-613v-379h727z" />
<glyph unicode="&#x205;" horiz-adv-x="1226" d="M238 1497h213l98 -244l-135 -53zM565 1497h215l97 -244l-136 -53zM623 -20q-168 0 -299 76t-199 200.5t-68 273.5q0 153 68 280.5t199 204.5t301 77q128 0 234.5 -45t177 -121.5t109 -175.5t38.5 -209q0 -57 -6 -92h-830q10 -122 92 -195.5t193 -73.5q83 0 155.5 40.5 t98.5 105.5l235 -66q-60 -126 -192.5 -203t-306.5 -77zM342 623h561q-12 121 -90.5 195.5t-191.5 74.5q-111 0 -190 -75t-89 -195z" />
<glyph unicode="&#x206;" horiz-adv-x="1230" d="M547 1599h-148q0 119 76 197t193 78t192.5 -78t75.5 -197h-145q-6 65 -41.5 108.5t-81.5 43.5q-48 0 -84.5 -45.5t-36.5 -106.5zM1161 248v-248h-1009v1454h991v-248h-709v-350h613v-229h-613v-379h727z" />
<glyph unicode="&#x207;" horiz-adv-x="1226" d="M500 1221h-148q0 119 76 196.5t193 77.5t192.5 -77.5t75.5 -196.5h-146q-6 65 -41 108t-81 43q-48 0 -84.5 -45t-36.5 -106zM623 -20q-168 0 -299 76t-199 200.5t-68 273.5q0 153 68 280.5t199 204.5t301 77q128 0 234.5 -45t177 -121.5t109 -175.5t38.5 -209 q0 -57 -6 -92h-830q10 -122 92 -195.5t193 -73.5q83 0 155.5 40.5t98.5 105.5l235 -66q-60 -126 -192.5 -203t-306.5 -77zM342 623h561q-12 121 -90.5 195.5t-191.5 74.5q-111 0 -190 -75t-89 -195z" />
<glyph unicode="&#x208;" horiz-adv-x="585" d="M-90 1876h213l98 -244l-135 -53zM238 1876h215l96 -244l-135 -53zM152 0v1454h282v-1454h-282z" />
<glyph unicode="&#x209;" horiz-adv-x="522" d="M-121 1497h213l98 -244l-135 -53zM207 1497h215l96 -244l-135 -53zM125 0v1073h274v-1073h-274z" />
<glyph unicode="&#x20a;" horiz-adv-x="585" d="M172 1599h-147q0 119 75.5 197t192.5 78t192.5 -78t75.5 -197h-145q-6 65 -41.5 108.5t-81.5 43.5q-48 0 -84.5 -45.5t-36.5 -106.5zM152 0v1454h282v-1454h-282z" />
<glyph unicode="&#x20b;" horiz-adv-x="522" d="M141 1221h-147q0 119 75.5 196.5t192.5 77.5t192.5 -77.5t75.5 -196.5h-145q-6 65 -41.5 108t-81.5 43q-48 0 -84.5 -45t-36.5 -106zM125 0v1073h274v-1073h-274z" />
<glyph unicode="&#x20c;" horiz-adv-x="1548" d="M395 1876h213l99 -244l-136 -53zM723 1876h215l96 -244l-135 -53zM63 727q0 144 54.5 278.5t148 235.5t227.5 162t285 61q123 0 235 -41.5t196 -114t146.5 -166t95 -201.5t32.5 -218q0 -143 -54 -276.5t-146.5 -234.5t-226 -161.5t-284.5 -60.5q-124 0 -236 40.5 t-197 111.5t-148 164t-95.5 201.5t-32.5 219.5zM774 240q99 0 181 42t134 111.5t80.5 156t28.5 177.5q0 128 -50.5 237.5t-149 178.5t-224.5 69q-99 0 -181 -42t-134 -111t-80.5 -155t-28.5 -177q0 -128 49 -237.5t147.5 -179.5t227.5 -70z" />
<glyph unicode="&#x20d;" horiz-adv-x="1241" d="M238 1497h213l98 -244l-135 -53zM565 1497h215l97 -244l-136 -53zM57 535q0 112 40 213t111 177.5t178.5 121.5t234.5 45q169 0 298.5 -77.5t196 -203t66.5 -276.5q0 -111 -39 -211.5t-109.5 -177t-177.5 -121.5t-235 -45q-103 0 -193 29.5t-157 81.5t-116 121.5 t-73.5 152t-24.5 170.5zM621 213q119 0 199.5 92t80.5 232q0 139 -80.5 230t-199.5 91t-200 -92t-81 -231q0 -140 80.5 -231t200.5 -91z" />
<glyph unicode="&#x20e;" horiz-adv-x="1548" d="M657 1599h-147q0 119 75.5 197t192.5 78t193 -78t76 -197h-146q-6 65 -41.5 108.5t-81.5 43.5q-48 0 -84.5 -45.5t-36.5 -106.5zM63 727q0 144 54.5 278.5t148 235.5t227.5 162t285 61q123 0 235 -41.5t196 -114t146.5 -166t95 -201.5t32.5 -218q0 -143 -54 -276.5 t-146.5 -234.5t-226 -161.5t-284.5 -60.5q-124 0 -236 40.5t-197 111.5t-148 164t-95.5 201.5t-32.5 219.5zM774 240q99 0 181 42t134 111.5t80.5 156t28.5 177.5q0 128 -50.5 237.5t-149 178.5t-224.5 69q-99 0 -181 -42t-134 -111t-80.5 -155t-28.5 -177q0 -128 49 -237.5 t147.5 -179.5t227.5 -70z" />
<glyph unicode="&#x20f;" horiz-adv-x="1241" d="M500 1221h-148q0 119 76 196.5t193 77.5t192.5 -77.5t75.5 -196.5h-146q-6 65 -41 108t-81 43q-48 0 -84.5 -45t-36.5 -106zM57 535q0 112 40 213t111 177.5t178.5 121.5t234.5 45q169 0 298.5 -77.5t196 -203t66.5 -276.5q0 -111 -39 -211.5t-109.5 -177t-177.5 -121.5 t-235 -45q-103 0 -193 29.5t-157 81.5t-116 121.5t-73.5 152t-24.5 170.5zM621 213q119 0 199.5 92t80.5 232q0 139 -80.5 230t-199.5 91t-200 -92t-81 -231q0 -140 80.5 -231t200.5 -91z" />
<glyph unicode="&#x210;" horiz-adv-x="1361" d="M258 1878h213l98 -244l-135 -53zM586 1878h215l96 -244l-135 -53zM152 0v1454h643q129 0 237 -71.5t166.5 -181.5t58.5 -230q0 -140 -71.5 -256.5t-190.5 -167.5l332 -547h-311l-299 487h-283v-487h-282zM434 735h354q78 0 131.5 68.5t53.5 167.5t-60 167t-137 68h-342 v-471z" />
<glyph unicode="&#x211;" horiz-adv-x="792" d="M59 1497h213l99 -244l-135 -53zM387 1497h215l96 -244l-135 -53zM764 836q-128 -2 -225.5 -50t-139.5 -137v-649h-274v1073h252v-229q57 109 145.5 174t186.5 69q43 0 55 -2v-249z" />
<glyph unicode="&#x212;" horiz-adv-x="1361" d="M520 1602h-147q0 119 75.5 196.5t192.5 77.5t192.5 -77.5t75.5 -196.5h-145q-6 65 -41.5 108t-81.5 43q-48 0 -84.5 -45t-36.5 -106zM152 0v1454h643q129 0 237 -71.5t166.5 -181.5t58.5 -230q0 -140 -71.5 -256.5t-190.5 -167.5l332 -547h-311l-299 487h-283v-487h-282z M434 735h354q78 0 131.5 68.5t53.5 167.5t-60 167t-137 68h-342v-471z" />
<glyph unicode="&#x213;" horiz-adv-x="792" d="M322 1221h-148q0 119 75.5 196.5t192.5 77.5t193 -77.5t76 -196.5h-146q-6 65 -41.5 108t-81.5 43q-48 0 -84 -45t-36 -106zM764 836q-128 -2 -225.5 -50t-139.5 -137v-649h-274v1073h252v-229q57 109 145.5 174t186.5 69q43 0 55 -2v-249z" />
<glyph unicode="&#x214;" horiz-adv-x="1536" d="M385 1876h213l98 -244l-135 -53zM713 1876h215l96 -244l-135 -53zM768 -10q-135 0 -244 39.5t-181.5 106.5t-121 160t-69.5 196.5t-21 220.5v741h283v-741q0 -96 18.5 -177.5t58 -149.5t110 -107t165.5 -39q97 0 168.5 39.5t111 108.5t58 149.5t18.5 175.5v741h281v-741 q0 -153 -37 -281t-111.5 -228.5t-199 -157t-287.5 -56.5z" />
<glyph unicode="&#x215;" horiz-adv-x="1265" d="M231 1497h213l99 -244l-135 -53zM559 1497h215l96 -244l-135 -53zM115 401v672h274v-612q0 -248 178 -248q83 0 157 50t120 145v665h274v-766q0 -44 15 -62.5t51 -21.5v-223q-66 -12 -119 -12q-74 0 -120.5 33.5t-53.5 93.5l-6 86q-71 -109 -183 -165t-249 -56 q-166 0 -252 107t-86 314z" />
<glyph unicode="&#x216;" horiz-adv-x="1536" d="M647 1599h-147q0 119 75.5 197t192.5 78t192.5 -78t75.5 -197h-145q-6 65 -41.5 108.5t-81.5 43.5q-48 0 -84.5 -45.5t-36.5 -106.5zM768 -10q-135 0 -244 39.5t-181.5 106.5t-121 160t-69.5 196.5t-21 220.5v741h283v-741q0 -96 18.5 -177.5t58 -149.5t110 -107 t165.5 -39q97 0 168.5 39.5t111 108.5t58 149.5t18.5 175.5v741h281v-741q0 -153 -37 -281t-111.5 -228.5t-199 -157t-287.5 -56.5z" />
<glyph unicode="&#x217;" horiz-adv-x="1265" d="M494 1221h-148q0 119 75.5 196.5t192.5 77.5t193 -77.5t76 -196.5h-146q-6 65 -41.5 108t-81.5 43q-48 0 -84 -45t-36 -106zM115 401v672h274v-612q0 -248 178 -248q83 0 157 50t120 145v665h274v-766q0 -44 15 -62.5t51 -21.5v-223q-66 -12 -119 -12q-74 0 -120.5 33.5 t-53.5 93.5l-6 86q-71 -109 -183 -165t-249 -56q-166 0 -252 107t-86 314z" />
<glyph unicode="&#x218;" horiz-adv-x="1255" d="M1018 1073q-37 41 -156 92.5t-235 51.5q-114 0 -173 -42.5t-59 -121.5q0 -22 4.5 -40.5t17 -34.5t25 -28t38 -24t45.5 -20.5t58.5 -20t65.5 -19t78 -20.5q93 -24 159.5 -47.5t128 -59t98.5 -79t59 -105t22 -139.5q0 -113 -43.5 -198.5t-120 -135.5t-170.5 -74t-205 -24 q-163 0 -323.5 49.5t-286.5 138.5l125 244q52 -52 197.5 -115t291.5 -63q115 0 174.5 38.5t59.5 110.5q0 45 -20.5 76.5t-78 58.5t-100.5 41t-146 42q-7 2 -11 3t-10 3t-11 3q-109 31 -182 63.5t-127 78.5t-78.5 107.5t-24.5 144.5q0 144 72 249t190.5 156t268.5 51 q270 0 508 -161zM557 -436l55 147h-80v193h232v-193l-82 -147h-125z" />
<glyph unicode="&#x219;" horiz-adv-x="1011" d="M520 -20q-139 0 -264 46t-213 132l98 178q192 -152 369 -152q81 0 128.5 29.5t47.5 85.5q0 13 -2.5 23.5t-10 20t-13.5 16.5t-21 14.5t-25 12t-32 12t-34.5 11t-41.5 12t-45 13.5q-79 25 -129.5 45t-98.5 47t-74 57t-41.5 71t-15.5 94q0 158 119 252t316 94 q241 0 403 -152l-111 -174q-160 123 -305 123q-72 0 -119 -26t-47 -85q0 -53 42 -78.5t153 -56.5q89 -26 141 -44.5t107.5 -46.5t84 -58.5t46.5 -74.5t18 -102q0 -158 -116.5 -248.5t-313.5 -90.5zM424 -436l55 147h-80v193h232v-193l-82 -147h-125z" />
<glyph unicode="&#x21a;" horiz-adv-x="1267" d="M1239 1206h-465v-1206h-280v1206h-465v248h1210v-248zM537 -436l55 147h-80v193h231v-193l-81 -147h-125z" />
<glyph unicode="&#x21b;" horiz-adv-x="786" d="M768 55q-164 -73 -303 -73q-59 0 -108 15t-88 45.5t-61 82.5t-22 121v616h-141v211h141v348h275v-348h225v-211h-225v-524q3 -105 102 -105q58 0 150 39zM365 -436l55 147h-80v193h231v-193l-82 -147h-124z" />
<glyph unicode="&#x22a;" horiz-adv-x="1548" d="M473 2079v170h614v-170h-614zM467 1618v244h227v-244h-227zM860 1618v244h227v-244h-227zM63 727q0 144 54.5 278.5t148 235.5t227.5 162t285 61q123 0 235 -41.5t196 -114t146.5 -166t95 -201.5t32.5 -218q0 -143 -54 -276.5t-146.5 -234.5t-226 -161.5t-284.5 -60.5 q-124 0 -236 40.5t-197 111.5t-148 164t-95.5 201.5t-32.5 219.5zM774 240q99 0 181 42t134 111.5t80.5 156t28.5 177.5q0 128 -50.5 237.5t-149 178.5t-224.5 69q-99 0 -181 -42t-134 -111t-80.5 -155t-28.5 -177q0 -128 49 -237.5t147.5 -179.5t227.5 -70z" />
<glyph unicode="&#x22b;" horiz-adv-x="1241" d="M315 1700v170h615v-170h-615zM309 1239v244h228v-244h-228zM702 1239v244h228v-244h-228zM57 535q0 112 40 213t111 177.5t178.5 121.5t234.5 45q169 0 298.5 -77.5t196 -203t66.5 -276.5q0 -111 -39 -211.5t-109.5 -177t-177.5 -121.5t-235 -45q-103 0 -193 29.5 t-157 81.5t-116 121.5t-73.5 152t-24.5 170.5zM621 213q119 0 199.5 92t80.5 232q0 139 -80.5 230t-199.5 91t-200 -92t-81 -231q0 -140 80.5 -231t200.5 -91z" />
<glyph unicode="&#x22c;" horiz-adv-x="1548" d="M473 2097v170h614v-170h-614zM643 1704q-26 0 -45.5 -10t-29 -22.5t-15.5 -28.5t-7 -24.5t-1 -12.5h-152q0 18 7.5 47t25.5 67t44 70.5t69 55t94 22.5q42 0 81 -15t64 -33t59 -33t66 -15q28 0 49 10t32 23.5t18 29.5t8.5 25t1.5 14h151q0 -14 -7.5 -42t-27 -66.5 t-46.5 -72.5t-72 -57.5t-99 -23.5q-52 0 -100 23t-89.5 46t-78.5 23zM63 727q0 144 54.5 278.5t148 235.5t227.5 162t285 61q123 0 235 -41.5t196 -114t146.5 -166t95 -201.5t32.5 -218q0 -143 -54 -276.5t-146.5 -234.5t-226 -161.5t-284.5 -60.5q-124 0 -236 40.5 t-197 111.5t-148 164t-95.5 201.5t-32.5 219.5zM774 240q99 0 181 42t134 111.5t80.5 156t28.5 177.5q0 128 -50.5 237.5t-149 178.5t-224.5 69q-99 0 -181 -42t-134 -111t-80.5 -155t-28.5 -177q0 -128 49 -237.5t147.5 -179.5t227.5 -70z" />
<glyph unicode="&#x22d;" horiz-adv-x="1241" d="M315 1718v170h615v-170h-615zM485 1325q-26 0 -45.5 -10t-29 -22.5t-15.5 -28.5t-7 -24.5t-1 -12.5h-151q0 24 13 63.5t38.5 86t75 79.5t112.5 33q42 0 81 -15t64 -33t59 -33t66 -15q28 0 49 10t32 23.5t18 29.5t8.5 25t1.5 14h152q0 -14 -7.5 -42t-27 -66.5t-46.5 -72.5 t-72 -57.5t-99 -23.5q-52 0 -100.5 23t-90 46t-78.5 23zM57 535q0 112 40 213t111 177.5t178.5 121.5t234.5 45q169 0 298.5 -77.5t196 -203t66.5 -276.5q0 -111 -39 -211.5t-109.5 -177t-177.5 -121.5t-235 -45q-103 0 -193 29.5t-157 81.5t-116 121.5t-73.5 152 t-24.5 170.5zM621 213q119 0 199.5 92t80.5 232q0 139 -80.5 230t-199.5 91t-200 -92t-81 -231q0 -140 80.5 -231t200.5 -91z" />
<glyph unicode="&#x230;" horiz-adv-x="1548" d="M473 2097v170h614v-170h-614zM655 1616v258h248v-258h-248zM63 727q0 144 54.5 278.5t148 235.5t227.5 162t285 61q123 0 235 -41.5t196 -114t146.5 -166t95 -201.5t32.5 -218q0 -143 -54 -276.5t-146.5 -234.5t-226 -161.5t-284.5 -60.5q-124 0 -236 40.5t-197 111.5 t-148 164t-95.5 201.5t-32.5 219.5zM774 240q99 0 181 42t134 111.5t80.5 156t28.5 177.5q0 128 -50.5 237.5t-149 178.5t-224.5 69q-99 0 -181 -42t-134 -111t-80.5 -155t-28.5 -177q0 -128 49 -237.5t147.5 -179.5t227.5 -70z" />
<glyph unicode="&#x231;" horiz-adv-x="1241" d="M315 1718v170h615v-170h-615zM498 1237v258h247v-258h-247zM57 535q0 112 40 213t111 177.5t178.5 121.5t234.5 45q169 0 298.5 -77.5t196 -203t66.5 -276.5q0 -111 -39 -211.5t-109.5 -177t-177.5 -121.5t-235 -45q-103 0 -193 29.5t-157 81.5t-116 121.5t-73.5 152 t-24.5 170.5zM621 213q119 0 199.5 92t80.5 232q0 139 -80.5 230t-199.5 91t-200 -92t-81 -231q0 -140 80.5 -231t200.5 -91z" />
<glyph unicode="&#x232;" horiz-adv-x="1351" d="M369 1675v170h614v-170h-614zM315 1454l359 -684l364 684h305l-528 -946v-508h-280v512l-527 942h307z" />
<glyph unicode="&#x233;" horiz-adv-x="1126" d="M281 1296v170h614v-170h-614zM147 -209q78 -20 123 -20q56 0 90.5 47t75.5 182l-424 1073h285l289 -792l254 792h262l-451 -1286q-38 -114 -135 -185t-231 -71q-68 0 -138 23v237z" />
<glyph unicode="&#x237;" horiz-adv-x="522" d="M-246 -305l117 186q48 -45 121 -45q55 0 94 38t39 97v1102h274v-1081q0 -171 -107.5 -282t-264.5 -111q-165 0 -273 96z" />
<glyph unicode="&#x259;" horiz-adv-x="1226" d="M608 -20q-170 0 -300 77t-197 202t-68 276q0 19 6 88h830q-10 122 -91.5 195t-191.5 73q-85 0 -157.5 -40.5t-98.5 -105.5l-234 66q60 127 192 204t306 77q168 0 298.5 -76t198.5 -201.5t68 -275.5q0 -153 -66.5 -279t-196 -203t-298.5 -77zM610 178q112 0 188 76.5 t87 198.5h-557q9 -121 89.5 -198t192.5 -77z" />
<glyph unicode="&#x2b9;" horiz-adv-x="481" d="M125 1022v459h233l-71 -459h-162z" />
<glyph unicode="&#x2ba;" horiz-adv-x="964" d="M125 1022v459h233l-71 -459h-162zM606 1022v459h234l-72 -459h-162z" />
<glyph unicode="&#x2bb;" horiz-adv-x="411" d="M262 1495l-55 -129h80v-172h-232v172l82 129h125z" />
<glyph unicode="&#x2bc;" horiz-adv-x="522" d="M272 1198l-176 53l111 244h256z" />
<glyph unicode="&#x2be;" horiz-adv-x="321" d="M53 1157v96q37 0 63.5 26t26.5 64t-26 63.5t-64 25.5v96q97 0 156 -51t59 -136q0 -84 -59 -134t-156 -50z" />
<glyph unicode="&#x2bf;" horiz-adv-x="321" d="M268 1157q-96 0 -155.5 50t-59.5 134t59.5 135.5t155.5 51.5v-96q-38 0 -64 -25.5t-26 -63.5q0 -37 26 -63.5t64 -26.5v-96z" />
<glyph unicode="&#x2c6;" horiz-adv-x="755" d="M61 1288l218 207h198l217 -207l-141 -65l-174 129l-174 -129z" />
<glyph unicode="&#x2c7;" horiz-adv-x="755" d="M205 1495l174 -129l174 129l141 -65l-217 -207h-198l-218 207z" />
<glyph unicode="&#x2c8;" horiz-adv-x="563" d="M399 1587v-807h-233v807h233z" />
<glyph unicode="&#x2c9;" horiz-adv-x="858" d="M123 1296v170h614v-170h-614z" />
<glyph unicode="&#x2ca;" horiz-adv-x="481" d="M125 1022v459h233l-71 -459h-162z" />
<glyph unicode="&#x2cb;" horiz-adv-x="481" d="M195 1022l-70 459h233v-459h-163z" />
<glyph unicode="&#x2cc;" horiz-adv-x="563" d="M399 541v-807h-233v807h233z" />
<glyph unicode="&#x2d8;" horiz-adv-x="671" d="M459 1495h145q0 -119 -75.5 -196.5t-192.5 -77.5t-192.5 77.5t-75.5 196.5h147q0 -61 36.5 -106.5t84.5 -45.5q46 0 81.5 43.5t41.5 108.5z" />
<glyph unicode="&#x2d9;" horiz-adv-x="452" d="M102 1237v258h248v-258h-248z" />
<glyph unicode="&#x2da;" horiz-adv-x="536" d="M268 1528q97 0 156 -51t59 -136q0 -84 -59 -134t-156 -50q-96 0 -155.5 50t-59.5 134t59.5 135.5t155.5 51.5zM178 1343q0 -37 26 -63.5t64 -26.5q37 0 63.5 26t26.5 64t-26 63.5t-64 25.5t-64 -25.5t-26 -63.5z" />
<glyph unicode="&#x2db;" horiz-adv-x="593" d="M129 -225q0 149 209 268h86l33 -43q-154 -109 -154 -178q0 -73 154 -76l-56 -156q-75 6 -129.5 24.5t-84.5 44.5t-44 54.5t-14 61.5z" />
<glyph unicode="&#x2dc;" horiz-adv-x="894" d="M313 1325q-26 0 -45.5 -10t-29 -22.5t-15.5 -28.5t-7 -24.5t-1 -12.5h-152q0 18 7.5 47t25.5 67t44 70.5t69 55t94 22.5q42 0 81 -15t64 -33t59 -33t66 -15q28 0 49 10t32 23.5t18 29.5t8.5 25t1.5 14h152q0 -14 -7.5 -42t-27 -66.5t-46.5 -72.5t-72 -57.5t-99 -23.5 q-52 0 -100.5 23t-90 46t-78.5 23z" />
<glyph unicode="&#x2dd;" horiz-adv-x="749" d="M203 1198l-135 53l98 244h213zM530 1198l-133 53l97 244h215z" />
<glyph unicode="&#x300;" d="M-426 1495h254l113 -244l-177 -53z" />
<glyph unicode="&#x301;" d="M-250 1198l-176 53l111 244h256z" />
<glyph unicode="&#x302;" d="M-694 1288l217 207h198l218 -207l-142 -65l-174 129l-174 -129z" />
<glyph unicode="&#x303;" d="M-582 1325q-26 0 -45.5 -10t-29 -22.5t-15.5 -28.5t-7 -24.5t-1 -12.5h-151q0 24 13 63.5t38.5 86t75 79.5t112.5 33q42 0 81 -15t64 -33t59 -33t66 -15q28 0 49 10t32 23.5t18 29.5t8.5 25t1.5 14h152q0 -14 -7.5 -42t-27 -66.5t-46.5 -72.5t-72 -57.5t-99 -23.5 q-52 0 -100.5 23t-90 46t-78.5 23z" />
<glyph unicode="&#x304;" d="M-735 1296v170h614v-170h-614z" />
<glyph unicode="&#x306;" d="M-213 1495h145q0 -119 -75.5 -196.5t-192.5 -77.5t-192.5 77.5t-75.5 196.5h147q0 -61 36.5 -106.5t84.5 -45.5q46 0 81.5 43.5t41.5 108.5z" />
<glyph unicode="&#x307;" d="M-350 1237v258h248v-258h-248z" />
<glyph unicode="&#x308;" d="M-778 1237v244h227v-244h-227zM-385 1237v244h227v-244h-227z" />
<glyph unicode="&#x309;" d="M-705 1407l-83 84q98 94 204 94q79 0 124.5 -43t45.5 -108q0 -59 -31 -107.5t-100 -105.5l-69 75q65 54 65 103q0 25 -15.5 41t-41.5 16t-46 -10.5t-53 -38.5z" />
<glyph unicode="&#x30a;" d="M-268 1528q97 0 156 -51t59 -136q0 -84 -59 -134t-156 -50q-96 0 -155.5 50t-59.5 134t59.5 135.5t155.5 51.5zM-358 1343q0 -37 26 -63.5t64 -26.5q37 0 63.5 26t26.5 64t-26 63.5t-64 25.5t-64 -25.5t-26 -63.5z" />
<glyph unicode="&#x30b;" d="M-547 1198l-135 53l98 244h213zM-219 1198l-133 53l96 244h215z" />
<glyph unicode="&#x30c;" d="M-551 1495l174 -129l174 129l142 -65l-218 -207h-198l-217 207z" />
<glyph unicode="&#x30f;" d="M-709 1495h213l99 -244l-135 -53zM-381 1495h215l96 -244l-135 -53z" />
<glyph unicode="&#x311;" d="M-457 1221h-147q0 119 75.5 196.5t192.5 77.5t192.5 -77.5t75.5 -196.5h-145q-6 65 -41.5 108t-81.5 43q-48 0 -84.5 -45t-36.5 -106z" />
<glyph unicode="&#x312;" d="M-150 1495l-55 -129h80v-172h-231v172l82 129h124z" />
<glyph unicode="&#x31b;" d="M-522 989l4 189q135 0 182 47q15 17 22.5 41t9.5 42t3 52h199q-2 -86 -18.5 -150t-67.5 -118q-45 -47 -137.5 -75t-196.5 -28z" />
<glyph unicode="&#x323;" d="M-350 -408v258h248v-258h-248z" />
<glyph unicode="&#x324;" d="M-778 -408v244h227v-244h-227zM-385 -408v244h227v-244h-227z" />
<glyph unicode="&#x326;" d="M-262 -436l55 147h-80v193h232v-193l-82 -147h-125z" />
<glyph unicode="&#x327;" d="M-305 -412q-119 0 -246 62l70 145q68 -43 129 -43q53 0 82.5 24t29.5 68q0 81 -114 156l92 59q92 -62 140 -123.5t48 -144.5q0 -90 -60.5 -146.5t-170.5 -56.5z" />
<glyph unicode="&#x328;" d="M-465 -225q0 149 209 268h86l33 -43q-154 -109 -154 -178q0 -73 154 -76l-56 -156q-75 6 -129.5 24.5t-84.5 44.5t-44 54.5t-14 61.5z" />
<glyph unicode="&#x32e;" d="M-213 -109h145q0 -120 -75.5 -197t-192.5 -77t-192.5 77t-75.5 197h147q0 -61 36.5 -106t84.5 -45q46 0 81.5 43t41.5 108z" />
<glyph unicode="&#x331;" d="M-735 -334v170h614v-170h-614z" />
<glyph unicode="&#x335;" d="M-702 516v164h600v-164h-600z" />
<glyph unicode="&#x3c0;" horiz-adv-x="1314" d="M477 831v-831h-270v831h-154v238h1161v-238h-196v-487q0 -60 28 -92.5t82 -32.5q49 0 109 29l39 -209q-119 -55 -264 -55q-125 0 -196 69.5t-71 194.5v583h-268z" />
<glyph unicode="&#x400;" horiz-adv-x="1230" d="M414 1876h254l112 -244l-176 -53zM1161 248v-248h-1009v1454h991v-248h-709v-350h613v-229h-613v-379h727z" />
<glyph unicode="&#x401;" horiz-adv-x="1230" d="M356 1618v244h228v-244h-228zM750 1618v244h227v-244h-227zM1161 248v-248h-1009v1454h991v-248h-709v-350h613v-229h-613v-379h727z" />
<glyph unicode="&#x402;" horiz-adv-x="1562" d="M991 -18q-126 0 -227 34l70 230q76 -31 133 -31q111 0 176 59.5t65 180.5q0 117 -72 182t-188 65q-179 0 -350 -127v-575h-274v1214h-295v240h1132v-240h-563v-393q176 115 387 115q226 0 362 -131t136 -350q0 -227 -130.5 -350t-361.5 -123z" />
<glyph unicode="&#x403;" horiz-adv-x="1099" d="M764 1579l-176 53l110 244h256zM156 0v1454h893v-248h-613v-1206h-280z" />
<glyph unicode="&#x404;" horiz-adv-x="1466" d="M776 -12q-126 0 -239.5 41.5t-198.5 114t-148 167t-95 204t-32 222.5q0 109 29.5 213.5t90.5 197t146 162.5t203.5 111t255.5 41q199 0 349.5 -86t226.5 -231l-219 -150q-35 78 -98 128.5t-128.5 69.5t-138.5 19q-167 0 -275 -101.5t-134 -254.5h536v-225h-545 q17 -166 137 -279.5t285 -113.5q72 0 141 21.5t132 73t96 126.5l231 -133q-44 -104 -144.5 -182.5t-220.5 -117t-243 -38.5z" />
<glyph unicode="&#x405;" horiz-adv-x="1255" d="M1018 1073q-37 41 -156 92.5t-235 51.5q-114 0 -173 -42.5t-59 -121.5q0 -22 4.5 -40.5t17 -34.5t25 -28t38 -24t45.5 -20.5t58.5 -20t65.5 -19t78 -20.5q93 -24 159.5 -47.5t128 -59t98.5 -79t59 -105t22 -139.5q0 -113 -43.5 -198.5t-120 -135.5t-170.5 -74t-205 -24 q-163 0 -323.5 49.5t-286.5 138.5l125 244q52 -52 197.5 -115t291.5 -63q115 0 174.5 38.5t59.5 110.5q0 45 -20.5 76.5t-78 58.5t-100.5 41t-146 42q-7 2 -11 3t-10 3t-11 3q-109 31 -182 63.5t-127 78.5t-78.5 107.5t-24.5 144.5q0 144 72 249t190.5 156t268.5 51 q270 0 508 -161z" />
<glyph unicode="&#x406;" horiz-adv-x="585" d="M152 0v1454h282v-1454h-282z" />
<glyph unicode="&#x407;" horiz-adv-x="585" d="M-18 1618v244h227v-244h-227zM375 1618v244h227v-244h-227zM152 0v1454h282v-1454h-282z" />
<glyph unicode="&#x408;" horiz-adv-x="1005" d="M78 297q35 -25 103.5 -47.5t150.5 -22.5q65 0 110 18t74 51t44.5 92.5t21.5 129.5t6 174v762h282v-739q0 -102 -4.5 -179.5t-18.5 -158t-38 -137.5t-64.5 -109.5t-96.5 -84.5t-135 -50.5t-179 -18.5q-187 0 -320 91z" />
<glyph unicode="&#x409;" horiz-adv-x="2111" d="M61 -10v243q79 6 130 42t90 126.5t58.5 249.5t25.5 408l10 395h934v-545h258q231 0 359 -122t128 -332q0 -204 -125 -329.5t-346 -125.5h-555v1206h-399l-4 -258q-4 -235 -29 -402t-68 -275t-113 -170t-153 -86t-201 -25zM1309 229h237q110 0 165.5 63t55.5 163 q0 97 -54.5 160t-168.5 63h-235v-449z" />
<glyph unicode="&#x40a;" horiz-adv-x="2119" d="M156 0v1454h280v-577h600v577h281v-565h258q231 0 359 -118.5t128 -321.5q0 -202 -125 -325.5t-346 -123.5h-555v631h-600v-631h-280zM1317 229h235q111 0 167.5 61.5t56.5 158.5q0 90 -55.5 150t-170.5 60h-233v-430z" />
<glyph unicode="&#x40b;" horiz-adv-x="1523" d="M324 0v1214h-295v240h1104v-240h-535v-354q159 68 346 68q488 0 488 -504v-424h-275v391q0 139 -63.5 207t-202.5 68q-77 0 -156.5 -20t-136.5 -52v-594h-274z" />
<glyph unicode="&#x40c;" horiz-adv-x="1409" d="M786 1579l-176 53l111 244h256zM156 0v1454h280v-586h144l432 586h315l-528 -704l569 -750h-342l-451 612h-139v-612h-280z" />
<glyph unicode="&#x40d;" horiz-adv-x="1570" d="M532 1878h254l113 -244l-176 -53zM162 0v1454h280v-1059l705 1059h262v-1454h-281v1034l-696 -1034h-270z" />
<glyph unicode="&#x40e;" horiz-adv-x="1308" d="M676 1581q-146 0 -232 73t-86 189h146q0 -61 43.5 -101t128.5 -40q153 0 174 141h145q0 -116 -86 -189t-233 -73zM293 -10v233h115q51 0 78.5 21.5t48.5 72.5l32 72l-577 1065h311l391 -778l340 778h297l-579 -1270q-54 -107 -121.5 -150.5t-179.5 -43.5h-156z" />
<glyph unicode="&#x40f;" horiz-adv-x="1456" d="M612 -279v279h-460v1454h282v-1206h590v1206h281v-1454h-453v-279h-240z" />
<glyph unicode="&#x410;" horiz-adv-x="1376" d="M547 1454h287l534 -1454h-291l-135 362h-508l-133 -362h-291zM891 561l-201 600l-209 -600h410z" />
<glyph unicode="&#x411;" horiz-adv-x="1368" d="M156 0v1454h1048v-244h-768v-350h395q238 0 364 -113t126 -309q0 -201 -122.5 -319.5t-352.5 -118.5h-690zM436 244h371q113 0 169 59t56 146q0 84 -52.5 138t-176.5 54h-367v-397z" />
<glyph unicode="&#x412;" horiz-adv-x="1392" d="M854 0h-702v1454h778q98 0 176 -55.5t117 -139t39 -176.5q0 -109 -55 -202t-154 -136q126 -37 198 -133.5t72 -236.5q0 -118 -64.5 -204.5t-169.5 -128.5t-235 -42zM434 1212v-366h377q73 0 122.5 50t49.5 134q0 82 -45.5 132t-114.5 50h-389zM868 623h-434v-383h420 q76 0 130 55t54 133q0 80 -49.5 137.5t-120.5 57.5z" />
<glyph unicode="&#x413;" horiz-adv-x="1099" d="M156 0v1454h893v-248h-613v-1206h-280z" />
<glyph unicode="&#x414;" horiz-adv-x="1615" d="M61 -279v527h78q74 0 122 78t76.5 252t37.5 460l12 416h969v-1206h192v-527h-248v279h-991v-279h-248zM477 248h598v958h-432l-4 -205q-9 -331 -45 -506.5t-117 -246.5z" />
<glyph unicode="&#x415;" horiz-adv-x="1230" d="M1161 248v-248h-1009v1454h991v-248h-709v-350h613v-229h-613v-379h727z" />
<glyph unicode="&#x416;" horiz-adv-x="2193" d="M41 0l561 754l-520 700h328l424 -586h122v586h281v-586h123l424 586h327l-520 -700l561 -754h-323l-465 612h-127v-612h-281v612h-129l-462 -612h-324z" />
<glyph unicode="&#x417;" horiz-adv-x="1239" d="M623 -14q-178 0 -320.5 71.5t-222.5 200.5l211 131q52 -81 135 -125.5t190 -44.5q126 0 193.5 56.5t67.5 152.5q0 94 -64 149.5t-186 55.5h-174v215h176q97 0 151 50t54 132q0 84 -59 134t-171 50q-109 0 -189 -42.5t-124 -116.5l-203 143q184 268 528 268 q228 0 359 -103.5t131 -289.5q0 -105 -50.5 -191t-150.5 -130q120 -36 188 -130.5t68 -220.5q0 -131 -70.5 -226t-191 -142t-276.5 -47z" />
<glyph unicode="&#x418;" horiz-adv-x="1570" d="M162 0v1454h280v-1059l705 1059h262v-1454h-281v1034l-696 -1034h-270z" />
<glyph unicode="&#x419;" horiz-adv-x="1570" d="M786 1581q-145 0 -231 73t-86 189h145q0 -61 43.5 -101t128.5 -40q154 0 175 141h145q0 -116 -86.5 -189t-233.5 -73zM162 0v1454h280v-1059l705 1059h262v-1454h-281v1034l-696 -1034h-270z" />
<glyph unicode="&#x41a;" horiz-adv-x="1409" d="M156 0v1454h280v-586h144l432 586h315l-528 -704l569 -750h-342l-451 612h-139v-612h-280z" />
<glyph unicode="&#x41b;" horiz-adv-x="1511" d="M1077 0v1206h-426l-8 -245q-7 -194 -25 -339.5t-50.5 -254t-77 -180t-109.5 -115.5t-141.5 -62t-178.5 -18v244q63 0 107.5 19.5t82.5 71t62.5 142t40.5 230.5t23 339l14 416h967v-1454h-281z" />
<glyph unicode="&#x41c;" horiz-adv-x="1771" d="M1337 0v954l-372 -710h-158l-373 710v-954h-282v1454h303l430 -827l434 827h301v-1454h-283z" />
<glyph unicode="&#x41d;" horiz-adv-x="1525" d="M1374 1454v-1454h-280v621h-660v-621h-282v1454h282v-588h660v588h280z" />
<glyph unicode="&#x41e;" horiz-adv-x="1548" d="M63 727q0 144 54.5 278.5t148 235.5t227.5 162t285 61q123 0 235 -41.5t196 -114t146.5 -166t95 -201.5t32.5 -218q0 -143 -54 -276.5t-146.5 -234.5t-226 -161.5t-284.5 -60.5q-124 0 -236 40.5t-197 111.5t-148 164t-95.5 201.5t-32.5 219.5zM774 240q99 0 181 42 t134 111.5t80.5 156t28.5 177.5q0 128 -50.5 237.5t-149 178.5t-224.5 69q-99 0 -181 -42t-134 -111t-80.5 -155t-28.5 -177q0 -128 49 -237.5t147.5 -179.5t227.5 -70z" />
<glyph unicode="&#x41f;" horiz-adv-x="1488" d="M156 0v1454h1177v-1454h-280v1206h-617v-1206h-280z" />
<glyph unicode="&#x420;" horiz-adv-x="1275" d="M152 0v1454h616q97 0 184.5 -42t148 -110t95.5 -155t35 -176q0 -125 -56 -235t-161.5 -179.5t-235.5 -69.5h-344v-487h-282zM434 735h328q79 0 130.5 65t51.5 171q0 108 -57.5 171.5t-136.5 63.5h-316v-471z" />
<glyph unicode="&#x421;" horiz-adv-x="1404" d="M780 1462q195 0 344.5 -86t221.5 -231l-218 -150q-35 78 -97 128.5t-125.5 69.5t-133.5 19q-102 0 -184.5 -42.5t-133 -112.5t-77.5 -154.5t-27 -173.5q0 -129 53 -241t152 -181t221 -69q70 0 137 21.5t128.5 73t93.5 126.5l231 -133q-43 -104 -141.5 -182.5t-217 -117 t-239.5 -38.5t-232 42t-195.5 115.5t-148 168t-96.5 204t-33 219.5q0 134 49.5 263t138.5 232t227 166.5t302 63.5z" />
<glyph unicode="&#x422;" horiz-adv-x="1267" d="M1239 1206h-465v-1206h-280v1206h-465v248h1210v-248z" />
<glyph unicode="&#x423;" horiz-adv-x="1308" d="M293 -10v233h115q51 0 78.5 21.5t48.5 72.5l32 72l-577 1065h311l391 -778l340 778h297l-579 -1270q-54 -107 -121.5 -150.5t-179.5 -43.5h-156z" />
<glyph unicode="&#x424;" horiz-adv-x="1693" d="M713 0v131q-174 8 -321.5 88.5t-238.5 226t-90 326.5q1 142 55.5 262.5t145.5 200.5t207 127t242 53v111h268v-111q101 -5 196 -35.5t177 -86.5t143 -131.5t96 -176t35 -213.5q1 -138 -52.5 -257t-143.5 -200t-207 -129.5t-244 -54.5v-131h-268zM721 358v830 q-162 -11 -268.5 -121.5t-106.5 -294.5q0 -94 31 -171t83.5 -128t119.5 -80.5t141 -34.5zM973 358q76 5 143.5 35t119.5 81.5t82 128t30 169.5t-30 170t-82 128.5t-119.5 82t-143.5 35.5v-830z" />
<glyph unicode="&#x425;" horiz-adv-x="1323" d="M303 1454l361 -536l358 536h307l-504 -737l488 -717h-307l-342 516l-345 -516h-309l488 717l-504 737h309z" />
<glyph unicode="&#x426;" horiz-adv-x="1548" d="M1235 -276v276h-1083v1454h282v-1206h576v1206h280v-1206h193v-524h-248z" />
<glyph unicode="&#x427;" horiz-adv-x="1384" d="M958 0v567q-144 -67 -327 -67q-258 0 -383 114t-125 359v481h274v-450q0 -131 67.5 -190.5t227.5 -59.5q153 0 266 55v645h275v-1454h-275z" />
<glyph unicode="&#x428;" horiz-adv-x="2039" d="M152 0v1454h282v-1206h445v1206h282v-1206h445v1206h282v-1454h-1736z" />
<glyph unicode="&#x429;" horiz-adv-x="2146" d="M1833 -276v276h-1681v1454h282v-1206h445v1206h282v-1206h445v1206h282v-1206h191v-524h-246z" />
<glyph unicode="&#x42a;" horiz-adv-x="1507" d="M381 0v1221h-340v233h623v-520h284q239 0 371.5 -125t132.5 -338t-129 -342t-358 -129h-584zM664 229h262q119 0 179 67t60 175q0 100 -59.5 167t-181.5 67h-260v-476z" />
<glyph unicode="&#x42b;" horiz-adv-x="1884" d="M152 0v1454h282v-520h297q239 0 371.5 -125t132.5 -338t-129.5 -342t-357.5 -129h-596zM1450 0v1452h283v-1452h-283zM434 229h275q119 0 178 67t59 175q0 100 -58.5 167t-180.5 67h-273v-476z" />
<glyph unicode="&#x42c;" horiz-adv-x="1294" d="M156 0v1454h280v-520h299q238 0 370 -124.5t132 -338.5q0 -213 -128.5 -342t-356.5 -129h-596zM436 229h277q119 0 178 67t59 175q0 100 -58.5 167t-180.5 67h-275v-476z" />
<glyph unicode="&#x42d;" horiz-adv-x="1460" d="M674 -12q-206 0 -357.5 89.5t-242.5 248.5l233 133q54 -104 151.5 -162.5t217.5 -58.5q170 0 284.5 112.5t135.5 280.5h-545v225h541q-30 152 -139 254t-277 102q-120 0 -213.5 -57t-147.5 -164l-223 154q203 317 586 317q132 0 248 -40t200.5 -110t146 -163t92 -201 t30.5 -221q0 -146 -52 -280t-144 -236t-229 -162.5t-296 -60.5z" />
<glyph unicode="&#x42e;" horiz-adv-x="2060" d="M1315 -10q-270 0 -449 167.5t-211 452.5h-221v-610h-282v1454h282v-598h223q35 282 217 445t447 163q199 0 352.5 -92.5t237.5 -261t84 -387.5q0 -174 -51 -313.5t-142 -231t-215 -140t-272 -48.5zM1319 240q185 0 287 133t102 354q0 226 -104.5 355.5t-286.5 129.5 q-183 0 -284 -132t-101 -353q0 -226 102.5 -356.5t284.5 -130.5z" />
<glyph unicode="&#x42f;" horiz-adv-x="1384" d="M113 0l356 584q-136 44 -212.5 156t-76.5 266q0 194 135.5 321t350.5 127h567v-1454h-281v549h-147h-51l-324 -549h-317zM698 791h254v423h-250q-102 0 -168.5 -54t-66.5 -154q0 -102 63 -158.5t168 -56.5z" />
<glyph unicode="&#x430;" horiz-adv-x="1175" d="M51 317q0 156 128 252.5t333 96.5q154 0 258 -43v57q0 103 -60.5 158t-179.5 55q-86 0 -164 -29.5t-171 -91.5l-89 180q215 140 453 140q230 0 357.5 -115t127.5 -328v-342q0 -44 15 -62.5t51 -21.5v-223q-69 -14 -117 -14q-79 0 -122.5 34.5t-53.5 92.5l-6 55 q-69 -89 -173.5 -138.5t-213.5 -49.5q-161 0 -267 96t-106 241zM719 262q51 51 51 94v109q-105 43 -215 43q-108 0 -176 -46.5t-68 -121.5q0 -65 52 -112.5t139 -47.5q61 0 119.5 22.5t97.5 59.5z" />
<glyph unicode="&#x431;" horiz-adv-x="1273" d="M659 -20q-276 0 -418.5 162t-142.5 476q0 155 22.5 273t64.5 203t110.5 146t152 99.5t197.5 65.5l461 117l4 -224l-455 -118q-157 -47 -243 -141.5t-103 -264.5q63 104 171 160.5t255 56.5q215 0 348.5 -134.5t133.5 -348.5q0 -238 -146.5 -383t-411.5 -145zM659 213 q127 0 202 76.5t75 204.5q0 125 -75 201.5t-202 76.5q-123 0 -200.5 -75t-77.5 -203q0 -126 74.5 -203.5t203.5 -77.5z" />
<glyph unicode="&#x432;" horiz-adv-x="1159" d="M125 0v1073h598q156 0 234.5 -74.5t78.5 -185.5q0 -190 -164 -262q98 -27 155.5 -93.5t57.5 -166.5q0 -148 -102 -219.5t-289 -71.5h-569zM385 627h268q55 0 90 39t35 96q0 53 -34 89t-89 36h-270v-260zM385 186h301q57 0 95 39.5t38 96.5t-37 95t-94 38h-303v-269z" />
<glyph unicode="&#x433;" horiz-adv-x="868" d="M125 0v1073h711v-239h-437v-834h-274z" />
<glyph unicode="&#x434;" horiz-adv-x="1294" d="M37 -260v500h29q44 1 77 23t62 75t46.5 152.5t22.5 244.5l13 338h805v-833h149v-500h-240v260h-722v-260h-242zM412 240h405v602h-291l-6 -133q-9 -202 -34.5 -312.5t-73.5 -156.5z" />
<glyph unicode="&#x435;" horiz-adv-x="1226" d="M623 -20q-168 0 -299 76t-199 200.5t-68 273.5q0 153 68 280.5t199 204.5t301 77q128 0 234.5 -45t177 -121.5t109 -175.5t38.5 -209q0 -57 -6 -92h-830q10 -122 92 -195.5t193 -73.5q83 0 155.5 40.5t98.5 105.5l235 -66q-60 -126 -192.5 -203t-306.5 -77zM342 623h561 q-12 121 -90.5 195.5t-191.5 74.5q-111 0 -190 -75t-89 -195z" />
<glyph unicode="&#x436;" horiz-adv-x="1753" d="M45 0l377 555l-350 518h305l274 -407h84v407h283v-407h90l268 407h307l-350 -518l379 -555h-313l-291 428h-90v-428h-281v428h-86l-295 -428h-311z" />
<glyph unicode="&#x437;" horiz-adv-x="1015" d="M508 -16q-330 0 -467 231l221 100q70 -112 232 -112q95 0 147.5 37t52.5 100q0 57 -44 92t-126 35h-110v170h112q57 0 91 33t34 86q0 54 -42 85t-124 31q-135 0 -194 -106l-207 111q58 102 165.5 158.5t250.5 56.5q174 0 283.5 -79t109.5 -220q0 -76 -36 -139.5 t-107 -92.5q97 -29 147.5 -97t50.5 -165q0 -150 -122 -232.5t-318 -82.5z" />
<glyph unicode="&#x438;" horiz-adv-x="1255" d="M125 0v1071h274v-704l482 706h249v-1073h-274v688l-475 -688h-256z" />
<glyph unicode="&#x439;" horiz-adv-x="1255" d="M629 1200q-146 0 -232 73t-86 189h146q0 -61 43.5 -101t128.5 -40q153 0 174 141h145q0 -116 -86 -189t-233 -73zM125 0v1071h274v-704l482 706h249v-1073h-274v688l-475 -688h-256z" />
<glyph unicode="&#x43a;" horiz-adv-x="1167" d="M125 0v1073h274v-405h93l290 405h299l-381 -518l422 -555h-313l-322 426h-88v-426h-274z" />
<glyph unicode="&#x43b;" horiz-adv-x="1218" d="M47 -14v243q52 2 89 24t67 76.5t47.5 154.5t23.5 251l15 338h805v-1073h-275v834h-289l-4 -125q-9 -210 -40.5 -349t-92.5 -221.5t-143.5 -116.5t-202.5 -36z" />
<glyph unicode="&#x43c;" horiz-adv-x="1495" d="M125 0v1073h287l336 -620l337 620h283v-1073h-260v694l-274 -504h-172l-277 504v-694h-260z" />
<glyph unicode="&#x43d;" horiz-adv-x="1234" d="M125 0v1073h274v-409h435v409h274v-1073h-274v434h-435v-434h-274z" />
<glyph unicode="&#x43e;" horiz-adv-x="1241" d="M57 535q0 112 40 213t111 177.5t178.5 121.5t234.5 45q169 0 298.5 -77.5t196 -203t66.5 -276.5q0 -111 -39 -211.5t-109.5 -177t-177.5 -121.5t-235 -45q-103 0 -193 29.5t-157 81.5t-116 121.5t-73.5 152t-24.5 170.5zM621 213q119 0 199.5 92t80.5 232 q0 139 -80.5 230t-199.5 91t-200 -92t-81 -231q0 -140 80.5 -231t200.5 -91z" />
<glyph unicode="&#x43f;" horiz-adv-x="1212" d="M125 0v1073h962v-1073h-274v834h-414v-834h-274z" />
<glyph unicode="&#x440;" horiz-adv-x="1298" d="M399 188v-624h-274v1509h240v-184q61 96 156 149.5t214 53.5q141 0 257 -75t180.5 -201.5t64.5 -276.5q0 -155 -60 -283t-168 -202t-241 -74q-123 0 -218.5 55t-150.5 153zM956 539q0 135 -85 227t-212 92q-80 0 -156.5 -51.5t-103.5 -128.5v-252q37 -92 114 -152.5 t163 -60.5q121 0 200.5 97t79.5 229z" />
<glyph unicode="&#x441;" horiz-adv-x="1155" d="M625 -20q-127 0 -235 45.5t-180 122t-112.5 177.5t-40.5 212q0 151 67.5 276t198 202t300.5 77t296 -74t189 -201l-268 -82q-34 58 -92 90.5t-127 32.5q-120 0 -200.5 -90t-80.5 -231q0 -139 82 -231.5t199 -92.5q73 0 135.5 36t87.5 91l268 -82q-57 -125 -186 -201.5 t-301 -76.5z" />
<glyph unicode="&#x442;" horiz-adv-x="1017" d="M373 0v834h-340v239h956v-239h-342v-834h-274z" />
<glyph unicode="&#x443;" horiz-adv-x="1126" d="M147 -209q78 -20 123 -20q56 0 90.5 47t75.5 182l-424 1073h285l289 -792l254 792h262l-451 -1286q-38 -114 -135 -185t-231 -71q-68 0 -138 23v237z" />
<glyph unicode="&#x444;" horiz-adv-x="1525" d="M625 -436v436h-31q-163 0 -287.5 75t-187 195.5t-62.5 264.5q0 109 37 206t104.5 170.5t170 116.5t225.5 43h31v424h274v-424h33q123 0 225 -43t169.5 -116.5t104.5 -170.5t37 -206q0 -107 -37 -203.5t-104 -170.5t-169.5 -117.5t-225.5 -43.5h-33v-436h-274zM594 219h45 v633h-45q-117 0 -192.5 -89.5t-75.5 -227.5t75 -227t193 -89zM887 219h45q118 0 193 89t75 227t-75.5 227.5t-192.5 89.5h-45v-633z" />
<glyph unicode="&#x445;" horiz-adv-x="1087" d="M301 1073l225 -336l17 -37l20 37l223 336h289l-373 -534l379 -539h-288l-232 334l-18 35l-17 -35l-229 -334h-289l379 532l-373 541h287z" />
<glyph unicode="&#x446;" horiz-adv-x="1255" d="M961 -260v260h-836v1073h274v-833h377v833h275v-833h151v-500h-241z" />
<glyph unicode="&#x447;" horiz-adv-x="1124" d="M723 0v385q-113 -51 -266 -51q-173 0 -268 91.5t-95 266.5v381h275v-344q0 -96 41.5 -141t130.5 -45q109 0 182 39v491h276v-1073h-276z" />
<glyph unicode="&#x448;" horiz-adv-x="1757" d="M125 0v1073h274v-833h342v833h277v-833h340v833h274v-1073h-1507z" />
<glyph unicode="&#x449;" horiz-adv-x="1837" d="M1544 -260v260h-1419v1073h274v-833h342v833h277v-833h340v833h274v-833h152v-500h-240z" />
<glyph unicode="&#x44a;" horiz-adv-x="1265" d="M313 0v852h-276v221h541v-338h245q189 0 292.5 -97t103.5 -261q0 -171 -99 -274t-280 -103h-527zM578 209h219q79 0 120 46.5t41 119.5t-39 116.5t-124 43.5h-217v-326z" />
<glyph unicode="&#x44b;" horiz-adv-x="1556" d="M125 0v1073h274v-338h189q190 0 294.5 -97t104.5 -261q0 -170 -99.5 -273.5t-281.5 -103.5h-481zM1155 0v1071h275v-1071h-275zM399 209h164q81 0 121.5 46t40.5 120q0 73 -39.5 116.5t-124.5 43.5h-162v-326z" />
<glyph unicode="&#x44c;" horiz-adv-x="1087" d="M125 0v1073h274v-338h244q190 0 293.5 -96.5t103.5 -261.5q0 -171 -98.5 -274t-279.5 -103h-537zM399 209h219q80 0 121 46.5t41 119.5t-39.5 116.5t-124.5 43.5h-217v-326z" />
<glyph unicode="&#x44d;" horiz-adv-x="1179" d="M561 -18q-163 0 -293 70t-196 194l219 102q84 -149 254 -149q111 0 192.5 72.5t102.5 181.5h-377v178h375q-23 104 -100.5 172.5t-192.5 68.5q-169 0 -250 -139l-207 109q66 118 187 184t284 66q132 0 241 -46t178 -123.5t106.5 -176.5t37.5 -207q0 -109 -38.5 -209 t-108.5 -177.5t-177.5 -124t-236.5 -46.5z" />
<glyph unicode="&#x44e;" horiz-adv-x="1691" d="M1090 -20q-211 0 -350.5 121.5t-172.5 314.5h-168v-416h-274v1073h274v-418h168q35 196 174 316.5t349 120.5q126 0 230 -44t172 -120t105 -177t37 -216t-37.5 -216t-106.5 -176.5t-172 -119t-228 -43.5zM1090 213q117 0 189.5 88.5t72.5 233.5q0 147 -73.5 235 t-188.5 88t-185.5 -88t-70.5 -235t72 -234.5t184 -87.5z" />
<glyph unicode="&#x44f;" horiz-adv-x="1148" d="M68 0l272 418q-99 28 -154 106t-55 203q0 157 106.5 253.5t276.5 96.5h510v-1077h-274v371h-146l-235 -371h-301zM547 567h203v299h-193q-73 0 -116.5 -40.5t-43.5 -106.5q0 -67 39.5 -109.5t110.5 -42.5z" />
<glyph unicode="&#x450;" horiz-adv-x="1226" d="M358 1497h254l113 -244l-176 -53zM623 -20q-168 0 -299 76t-199 200.5t-68 273.5q0 153 68 280.5t199 204.5t301 77q128 0 234.5 -45t177 -121.5t109 -175.5t38.5 -209q0 -57 -6 -92h-830q10 -122 92 -195.5t193 -73.5q83 0 155.5 40.5t98.5 105.5l235 -66 q-60 -126 -192.5 -203t-306.5 -77zM342 623h561q-12 121 -90.5 195.5t-191.5 74.5q-111 0 -190 -75t-89 -195z" />
<glyph unicode="&#x451;" horiz-adv-x="1226" d="M309 1239v244h228v-244h-228zM702 1239v244h228v-244h-228zM623 -20q-168 0 -299 76t-199 200.5t-68 273.5q0 153 68 280.5t199 204.5t301 77q128 0 234.5 -45t177 -121.5t109 -175.5t38.5 -209q0 -57 -6 -92h-830q10 -122 92 -195.5t193 -73.5q83 0 155.5 40.5 t98.5 105.5l235 -66q-60 -126 -192.5 -203t-306.5 -77zM342 623h561q-12 121 -90.5 195.5t-191.5 74.5q-111 0 -190 -75t-89 -195z" />
<glyph unicode="&#x452;" horiz-adv-x="1228" d="M690 -420q-185 1 -315 135l188 138q58 -50 111 -50q71 0 114.5 41.5t69 149t27.5 291.5q1 166 -24.5 261.5t-77 135t-140.5 39.5q-84 0 -143.5 -49t-91.5 -137v-535h-275v1120h-158v164h158v211h275v-211h446v-164h-446v-332q126 175 335 175q150 0 239 -62t133 -206 t44 -390q0 -172 -23.5 -300t-77 -226t-145.5 -148.5t-223 -50.5z" />
<glyph unicode="&#x453;" horiz-adv-x="868" d="M647 1198l-176 53l111 244h256zM125 0v1073h711v-239h-437v-834h-274z" />
<glyph unicode="&#x454;" horiz-adv-x="1181" d="M621 -18q-129 0 -237.5 46.5t-179 124t-109 177.5t-38.5 209q0 108 38 207t107.5 176.5t178.5 123.5t242 46q162 0 283.5 -66t187.5 -184l-207 -109q-81 139 -252 139q-114 0 -192 -69t-101 -172h377v-178h-377q21 -111 102 -182.5t193 -71.5q167 0 254 149l219 -102 q-66 -124 -196 -194t-293 -70z" />
<glyph unicode="&#x455;" horiz-adv-x="1011" d="M520 -20q-139 0 -264 46t-213 132l98 178q192 -152 369 -152q81 0 128.5 29.5t47.5 85.5q0 13 -2.5 23.5t-10 20t-13.5 16.5t-21 14.5t-25 12t-32 12t-34.5 11t-41.5 12t-45 13.5q-79 25 -129.5 45t-98.5 47t-74 57t-41.5 71t-15.5 94q0 158 119 252t316 94 q241 0 403 -152l-111 -174q-160 123 -305 123q-72 0 -119 -26t-47 -85q0 -53 42 -78.5t153 -56.5q89 -26 141 -44.5t107.5 -46.5t84 -58.5t46.5 -74.5t18 -102q0 -158 -116.5 -248.5t-313.5 -90.5z" />
<glyph unicode="&#x456;" horiz-adv-x="522" d="M125 1223v272h274v-272h-274zM125 0v1073h274v-1073h-274z" />
<glyph unicode="&#x457;" horiz-adv-x="522" d="M-49 1239v244h227v-244h-227zM344 1239v244h227v-244h-227zM125 0v1073h274v-1073h-274z" />
<glyph unicode="&#x458;" horiz-adv-x="534" d="M135 1223v272h275v-272h-275zM-236 -305l119 186q45 -45 121 -45q55 0 93 38t38 97v1102h275v-1081q0 -171 -107 -282t-266 -111q-165 0 -273 96z" />
<glyph unicode="&#x459;" horiz-adv-x="1718" d="M47 -14v243q52 2 89 24t67 76.5t47.5 154.5t23.5 251l15 338h784v-362h201q189 0 293 -94t104 -252q0 -165 -99.5 -265t-279.5 -100h-493v834h-269l-4 -125q-9 -210 -40.5 -349t-92.5 -221.5t-143.5 -116.5t-202.5 -36zM1073 209h174q81 0 122.5 42.5t41.5 110.5 q0 66 -40 107t-124 41h-174v-301z" />
<glyph unicode="&#x45a;" horiz-adv-x="1746" d="M125 0v1073h274v-401h426v401h271v-362h207q190 0 293.5 -93.5t103.5 -252.5q0 -166 -98.5 -265.5t-280.5 -99.5h-496v434h-426v-434h-274zM1096 209h180q81 0 121.5 42.5t40.5 110.5q0 66 -39.5 107t-122.5 41h-180v-301z" />
<glyph unicode="&#x45b;" horiz-adv-x="1257" d="M133 0v1120h-158v164h158v211h275v-211h446v-164h-446v-332q128 175 354 175q195 0 283 -101t88 -301v-561h-275v492q0 229 -196 229q-186 0 -254 -186v-535h-275z" />
<glyph unicode="&#x45c;" horiz-adv-x="1167" d="M666 1198l-177 53l111 244h256zM125 0v1073h274v-405h93l290 405h299l-381 -518l422 -555h-313l-322 426h-88v-426h-274z" />
<glyph unicode="&#x45d;" horiz-adv-x="1255" d="M375 1497h254l112 -244l-176 -53zM125 0v1071h274v-704l482 706h249v-1073h-274v688l-475 -688h-256z" />
<glyph unicode="&#x45e;" horiz-adv-x="1126" d="M563 1200q-145 0 -231 73t-86 189h145q0 -61 43.5 -101t128.5 -40q153 0 174 141h146q0 -116 -86.5 -189t-233.5 -73zM147 -209q78 -20 123 -20q56 0 90.5 47t75.5 182l-424 1073h285l289 -792l254 792h262l-451 -1286q-38 -114 -135 -185t-231 -71q-68 0 -138 23v237z " />
<glyph unicode="&#x45f;" horiz-adv-x="1210" d="M489 -260v260h-364v1073h274v-833h412v833h274v-1073h-364v-260h-232z" />
<glyph unicode="&#x462;" horiz-adv-x="1331" d="M772 934q239 0 371.5 -125t132.5 -338t-130 -342t-358 -129h-595v1133h-216v174h216v176h282v-176h340v-174h-340v-199h297zM750 229q119 0 178 67t59 175q0 100 -58.5 167t-180.5 67h-273v-476h275z" />
<glyph unicode="&#x463;" horiz-adv-x="1142" d="M180 0v1028h-231v170h231v297h275v-297h348v-170h-348v-293h243q190 0 294 -97t104 -261q0 -170 -99.5 -273.5t-279.5 -103.5h-537zM455 209h219q80 0 121 46.5t41 119.5t-39.5 116.5t-124.5 43.5h-217v-326z" />
<glyph unicode="&#x46a;" horiz-adv-x="2177" d="M41 0l561 739l-520 715h2013l-520 -715l561 -739h-315l-463 598h-129v-598h-281v598h-129l-463 -598h-315zM825 854h527l309 432h-1145z" />
<glyph unicode="&#x46b;" horiz-adv-x="1806" d="M45 0l418 555l-377 518h1638l-381 -518l420 -555h-329l-316 428h-74v-428h-280v428h-72l-315 -428h-332zM713 639h385l209 293h-805z" />
<glyph unicode="&#x472;" horiz-adv-x="1560" d="M778 1464q123 0 235 -41.5t196 -114t146.5 -166t95 -201.5t32.5 -218q0 -143 -54 -276.5t-146.5 -234.5t-226 -161.5t-284.5 -60.5q-124 0 -236 40.5t-197 111.5t-148 164t-95.5 201.5t-32.5 219.5q0 144 54.5 278.5t148 235.5t227.5 162t285 61zM774 1212 q-88 0 -162.5 -33t-126 -89.5t-84.5 -127.5t-45 -151h836q-24 171 -137 286t-281 115zM774 240q122 0 216.5 63.5t145 160.5t60.5 212h-844q10 -118 61.5 -215.5t146 -159t214.5 -61.5z" />
<glyph unicode="&#x473;" horiz-adv-x="1239" d="M621 1092q169 0 298.5 -77.5t196 -203t66.5 -276.5q0 -111 -39 -211.5t-109.5 -177t-177.5 -121.5t-235 -45q-103 0 -193 29.5t-157 81.5t-116 121.5t-73.5 152t-24.5 170.5q0 112 40 213t111 177.5t178.5 121.5t234.5 45zM621 858q-104 0 -180 -72t-95 -186h551 q-19 115 -95.5 186.5t-180.5 71.5zM621 213q107 0 184 75t92 195h-553q13 -121 91 -195.5t186 -74.5z" />
<glyph unicode="&#x474;" horiz-adv-x="1482" d="M575 0l-571 1454h297l393 -1087l305 827q47 139 123 199.5t217 60.5h123v-233h-82q-62 0 -95 -26.5t-58 -92.5l-434 -1102h-218z" />
<glyph unicode="&#x475;" horiz-adv-x="1196" d="M414 0l-396 1073h275l272 -835l203 596q37 127 108.5 183t202.5 56h117v-211h-74q-57 0 -87 -24.5t-52 -89.5l-291 -748h-278z" />
<glyph unicode="&#x490;" horiz-adv-x="1097" d="M156 0v1454h645v320h246v-568h-611v-1206h-280z" />
<glyph unicode="&#x491;" horiz-adv-x="868" d="M125 0v1073h467v260h244v-499h-437v-834h-274z" />
<glyph unicode="&#x492;" horiz-adv-x="1146" d="M1096 1206h-613v-446h353v-182h-353v-578h-280v578h-193v182h193v694h893v-248z" />
<glyph unicode="&#x493;" horiz-adv-x="933" d="M901 834h-436v-310h287v-168h-287v-356h-275v356h-180v168h180v549h711v-239z" />
<glyph unicode="&#x494;" horiz-adv-x="1409" d="M801 799q249 0 382.5 -144t133.5 -399q0 -257 -130 -396t-362 -139q-111 0 -227 35l70 230q74 -29 133 -29q109 0 175 74t66 225q0 309 -288 309q-87 0 -160.5 -25t-161.5 -81v-459h-280v1454h892v-248h-612v-501q163 94 369 94z" />
<glyph unicode="&#x495;" horiz-adv-x="1175" d="M735 659q177 0 276 -116.5t99 -302.5v-56q0 -275 -116.5 -438.5t-313.5 -163.5q-155 0 -264 92l116 185q48 -39 115 -39q94 0 140.5 87t48.5 245v38q0 256 -213 256q-138 0 -224 -86v-360h-274v1073h711v-239h-437v-271q122 96 336 96z" />
<glyph unicode="&#x496;" horiz-adv-x="2195" d="M1968 248h197v-524h-242v276h-117v29l-442 583h-127v-612h-281v612h-129l-462 -612h-324l561 754l-520 700h328l424 -586h122v586h281v-586h123l424 586h327l-520 -700z" />
<glyph unicode="&#x497;" horiz-adv-x="1787" d="M1561 221h196v-481h-227v260h-131l-291 428h-90v-428h-281v428h-86l-295 -428h-311l377 555l-350 518h305l274 -407h84v407h283v-407h90l268 407h307l-350 -518z" />
<glyph unicode="&#x498;" horiz-adv-x="1239" d="M1161 401q0 -170 -114.5 -276t-307.5 -131q103 -93 103 -203q0 -90 -61 -146.5t-171 -56.5q-118 0 -245 62l69 145q68 -43 129 -43q53 0 83 24t30 68q0 73 -96 144q-163 8 -294 78.5t-206 191.5l211 131q52 -81 135 -125.5t190 -44.5q126 0 193.5 56.5t67.5 152.5 q0 94 -64 149.5t-186 55.5h-174v215h176q97 0 151 50t54 132q0 84 -59 134t-171 50q-109 0 -189 -42.5t-124 -116.5l-203 143q184 268 528 268q228 0 359 -103.5t131 -289.5q0 -105 -50.5 -191t-150.5 -130q120 -36 188 -130.5t68 -220.5z" />
<glyph unicode="&#x499;" horiz-adv-x="1015" d="M948 299q0 -129 -93 -209.5t-249 -99.5q99 -89 99 -199q0 -90 -61 -146.5t-171 -56.5q-119 0 -246 62l70 145q68 -43 129 -43q53 0 83 24t30 68q0 72 -95 142q-279 20 -403 229l221 100q70 -112 232 -112q95 0 147.5 37t52.5 100q0 57 -44 92t-126 35h-110v170h112 q57 0 91 33t34 86q0 54 -42 85t-124 31q-135 0 -194 -106l-207 111q58 102 165.5 158.5t250.5 56.5q174 0 283.5 -79t109.5 -220q0 -76 -36 -139.5t-107 -92.5q97 -29 147.5 -97t50.5 -165z" />
<glyph unicode="&#x49a;" horiz-adv-x="1419" d="M1180 248h211v-524h-242v276h-123l-451 612h-139v-612h-280v1454h280v-586h144l432 586h315l-528 -704z" />
<glyph unicode="&#x49b;" horiz-adv-x="1189" d="M954 221h203v-481h-225v260h-123l-322 426h-88v-426h-274v1073h274v-405h93l290 405h299l-381 -518z" />
<glyph unicode="&#x49c;" horiz-adv-x="1396" d="M979 750l438 -750h-307l-362 627h-46v-240h-118v240h-152v-627h-280v1454h280v-600h152v221h118v-221h41l342 600h293z" />
<glyph unicode="&#x49d;" horiz-adv-x="1280" d="M887 555l350 -555h-301l-274 432h-52v-182h-110v182h-103v-432h-272v1073h272v-411h103v180h110v-180h52l243 411h293z" />
<glyph unicode="&#x4a0;" horiz-adv-x="1536" d="M987 750l569 -750h-342l-450 612h-139v-612h-281v1221h-330v233h611v-586h143l432 586h316z" />
<glyph unicode="&#x4a1;" horiz-adv-x="1280" d="M864 555l422 -555h-313l-322 426h-88v-426h-274v850h-275v223h549v-405h92l291 405h299z" />
<glyph unicode="&#x4a2;" horiz-adv-x="1632" d="M1374 248h193v-524h-242v276h-231v621h-660v-621h-282v1454h282v-588h660v588h280v-1206z" />
<glyph unicode="&#x4a3;" horiz-adv-x="1329" d="M1108 240h166v-500h-246v260h-194v434h-435v-434h-274v1073h274v-409h435v409h274v-833z" />
<glyph unicode="&#x4a4;" horiz-adv-x="2033" d="M1982 1454v-248h-608v-1206h-280v621h-660v-621h-282v1454h282v-588h660v586l-2 2h890z" />
<glyph unicode="&#x4a5;" horiz-adv-x="1576" d="M1544 1073v-239h-436v-834h-274v434h-435v-434h-274v1073h274v-409h435v409h710z" />
<glyph unicode="&#x4aa;" horiz-adv-x="1404" d="M1366 326q-53 -129 -183 -214.5t-290 -113.5v-279h-234v277q-172 29 -310 142.5t-212 272t-74 326.5q0 134 49.5 263t138.5 232t227 166.5t302 63.5q195 0 344.5 -86t221.5 -231l-218 -150q-35 78 -97 128.5t-125.5 69.5t-133.5 19q-102 0 -184.5 -42.5t-133 -112.5 t-77.5 -154.5t-27 -173.5q0 -129 53 -241t152 -181t221 -69q70 0 137 21.5t128.5 73t93.5 126.5z" />
<glyph unicode="&#x4ab;" horiz-adv-x="1155" d="M1112 258q-47 -103 -146 -175t-233 -95v-248h-233v252q-201 39 -322 192.5t-121 352.5q0 151 67.5 276t198 202t300.5 77t296 -74t189 -201l-268 -82q-34 58 -92 90.5t-127 32.5q-120 0 -200.5 -90t-80.5 -231q0 -139 82 -231.5t199 -92.5q73 0 135.5 36t87.5 91z" />
<glyph unicode="&#x4ae;" horiz-adv-x="1351" d="M315 1454l359 -684l364 684h305l-528 -946v-508h-280v512l-527 942h307z" />
<glyph unicode="&#x4af;" horiz-adv-x="1126" d="M426 -436v438l-408 1071h285l272 -850l275 850h258l-408 -1071v-438h-274z" />
<glyph unicode="&#x4b0;" horiz-adv-x="1318" d="M518 0v305h-325v178h325v29l-524 942h303l360 -700l365 700h307l-532 -946v-25h325v-178h-325v-305h-279z" />
<glyph unicode="&#x4b1;" horiz-adv-x="1118" d="M438 -436v313h-250v123h250v2l-407 1071h274l275 -872l278 872h262l-407 -1071v-2h241v-123h-241v-313h-275z" />
<glyph unicode="&#x4b6;" horiz-adv-x="1482" d="M1233 248h182v-524h-241v276h-216v567q-144 -67 -327 -67q-258 0 -383 114t-125 359v481h274v-450q0 -131 67.5 -190.5t227.5 -59.5q153 0 266 55v645h275v-1206z" />
<glyph unicode="&#x4b7;" horiz-adv-x="1181" d="M999 240h129v-500h-245v260h-195v240h35v145q-113 -51 -266 -51q-173 0 -268 91.5t-95 266.5v381h275v-344q0 -96 41.5 -141t130.5 -45q109 0 182 39v491h276v-833z" />
<glyph unicode="&#x4b8;" horiz-adv-x="1384" d="M958 1454h275v-1454h-275v567q-99 -48 -223 -61v-199h-119v193q-250 3 -371.5 117t-121.5 356v481h274v-450q0 -115 51 -174.5t168 -71.5v237h119v-239q131 6 223 53v645z" />
<glyph unicode="&#x4b9;" horiz-adv-x="1161" d="M760 1073h276v-1073h-276v385q-66 -29 -135 -41v-176h-111v166h-20q-189 0 -294.5 92t-105.5 266v381h275v-344q0 -83 33.5 -126.5t111.5 -55.5v213h111v-215q78 9 135 37v491z" />
<glyph unicode="&#x4ba;" horiz-adv-x="1384" d="M426 1454v-567q144 67 328 67q258 0 383 -114t125 -359v-481h-275v451q0 131 -67.5 190t-227.5 59q-153 0 -266 -55v-645h-274v1454h274z" />
<glyph unicode="&#x4bb;" horiz-adv-x="1236" d="M1122 0h-274v602q0 124 -47 186t-133 62q-78 0 -158.5 -64t-110.5 -159v-627h-274v1495h274v-621q60 103 162 160.5t223 57.5q338 0 338 -422v-670z" />
<glyph unicode="&#x4c0;" horiz-adv-x="585" d="M152 0v1454h282v-1454h-282z" />
<glyph unicode="&#x4c1;" horiz-adv-x="2193" d="M1098 1581q-146 0 -232 73t-86 189h146q0 -61 43.5 -101t128.5 -40q153 0 174 141h145q0 -116 -86 -189t-233 -73zM41 0l561 754l-520 700h328l424 -586h122v586h281v-586h123l424 586h327l-520 -700l561 -754h-323l-465 612h-127v-612h-281v612h-129l-462 -612h-324z " />
<glyph unicode="&#x4c2;" horiz-adv-x="1753" d="M877 1200q-146 0 -232 73t-86 189h146q0 -61 43.5 -101t128.5 -40q153 0 174 141h145q0 -116 -86 -189t-233 -73zM45 0l377 555l-350 518h305l274 -407h84v407h283v-407h90l268 407h307l-350 -518l379 -555h-313l-291 428h-90v-428h-281v428h-86l-295 -428h-311z" />
<glyph unicode="&#x4cb;" horiz-adv-x="1384" d="M958 1454h275v-1454h-268v-276h-242v469h235v411q-144 -67 -335 -67q-253 0 -376.5 114t-123.5 359v444h274v-414q0 -130 68 -189.5t219 -59.5q154 0 274 55v608z" />
<glyph unicode="&#x4cc;" horiz-adv-x="1101" d="M551 -260v389h158v295q-123 -49 -238 -49q-173 0 -275 100.5t-102 272.5v325h260v-289q0 -103 44 -151.5t139 -48.5q97 0 172 43v446h268v-1073h-193v-260h-233z" />
<glyph unicode="&#x4cf;" horiz-adv-x="522" d="M125 0v1073h274v-1073h-274z" />
<glyph unicode="&#x4d0;" horiz-adv-x="1376" d="M690 1581q-145 0 -231 73t-86 189h145q0 -61 43.5 -101t128.5 -40q153 0 174 141h146q0 -116 -86.5 -189t-233.5 -73zM547 1454h287l534 -1454h-291l-135 362h-508l-133 -362h-291zM891 561l-201 600l-209 -600h410z" />
<glyph unicode="&#x4d1;" horiz-adv-x="1175" d="M588 1200q-146 0 -232 73t-86 189h146q0 -61 43.5 -101t128.5 -40q153 0 174 141h145q0 -116 -86 -189t-233 -73zM51 317q0 156 128 252.5t333 96.5q154 0 258 -43v57q0 103 -60.5 158t-179.5 55q-86 0 -164 -29.5t-171 -91.5l-89 180q215 140 453 140q230 0 357.5 -115 t127.5 -328v-342q0 -44 15 -62.5t51 -21.5v-223q-69 -14 -117 -14q-79 0 -122.5 34.5t-53.5 92.5l-6 55q-69 -89 -173.5 -138.5t-213.5 -49.5q-161 0 -267 96t-106 241zM719 262q51 51 51 94v109q-105 43 -215 43q-108 0 -176 -46.5t-68 -121.5q0 -65 52 -112.5t139 -47.5 q61 0 119.5 22.5t97.5 59.5z" />
<glyph unicode="&#x4d2;" horiz-adv-x="1376" d="M379 1620v244h227v-244h-227zM772 1620v244h227v-244h-227zM547 1454h287l534 -1454h-291l-135 362h-508l-133 -362h-291zM891 561l-201 600l-209 -600h410z" />
<glyph unicode="&#x4d3;" horiz-adv-x="1175" d="M276 1239v244h228v-244h-228zM670 1239v244h227v-244h-227zM51 317q0 156 128 252.5t333 96.5q154 0 258 -43v57q0 103 -60.5 158t-179.5 55q-86 0 -164 -29.5t-171 -91.5l-89 180q215 140 453 140q230 0 357.5 -115t127.5 -328v-342q0 -44 15 -62.5t51 -21.5v-223 q-69 -14 -117 -14q-79 0 -122.5 34.5t-53.5 92.5l-6 55q-69 -89 -173.5 -138.5t-213.5 -49.5q-161 0 -267 96t-106 241zM719 262q51 51 51 94v109q-105 43 -215 43q-108 0 -176 -46.5t-68 -121.5q0 -65 52 -112.5t139 -47.5q61 0 119.5 22.5t97.5 59.5z" />
<glyph unicode="&#x4d4;" horiz-adv-x="1978" d="M856 1454h1034v-248h-682v-342h572v-248h-572v-368h701v-248h-979v362h-467l-215 -362h-299zM909 608v529l-325 -529h325z" />
<glyph unicode="&#x4d5;" horiz-adv-x="1918" d="M51 319q0 153 128 250t329 97q142 0 242 -41q3 47 16 90q-18 186 -236 186q-160 0 -337 -121l-84 174q212 138 448 138q248 0 375 -152q149 152 381 152q170 0 299.5 -77t196 -202t67.5 -276q0 -19 -6 -88h-840q9 -123 93 -196t202 -73q83 0 155.5 40.5t98.5 105.5 l236 -66q-62 -127 -194 -203.5t-306 -76.5q-148 0 -267.5 59t-193.5 162q-67 -109 -189.5 -165t-246.5 -56q-157 0 -262 96.5t-105 242.5zM1593 618q-11 123 -89 199t-195 76t-195.5 -76t-87.5 -199h567zM725 270q45 33 45 74q-16 49 -20 133q-103 35 -197 35 q-106 0 -175 -48t-69 -122q0 -69 54.5 -115.5t132.5 -46.5q69 0 130.5 24.5t98.5 65.5z" />
<glyph unicode="&#x4d6;" horiz-adv-x="1230" d="M668 1579q-146 0 -232 73t-86 189h146q0 -61 43.5 -101t128.5 -40q153 0 174 141h145q0 -116 -86 -189t-233 -73zM1161 248v-248h-1009v1454h991v-248h-709v-350h613v-229h-613v-379h727z" />
<glyph unicode="&#x4d7;" horiz-adv-x="1226" d="M621 1200q-146 0 -232 73t-86 189h146q0 -61 43.5 -101t128.5 -40q153 0 174 141h145q0 -116 -86 -189t-233 -73zM623 -20q-168 0 -299 76t-199 200.5t-68 273.5q0 153 68 280.5t199 204.5t301 77q128 0 234.5 -45t177 -121.5t109 -175.5t38.5 -209q0 -57 -6 -92h-830 q10 -122 92 -195.5t193 -73.5q83 0 155.5 40.5t98.5 105.5l235 -66q-60 -126 -192.5 -203t-306.5 -77zM342 623h561q-12 121 -90.5 195.5t-191.5 74.5q-111 0 -190 -75t-89 -195z" />
<glyph unicode="&#x4d8;" horiz-adv-x="1527" d="M41 705q0 68 10 116h1104q-18 176 -132.5 283.5t-270.5 107.5q-118 0 -216 -62t-128 -161l-285 96q83 171 254 275t383 104q153 0 286 -61.5t223 -163t141.5 -233t51.5 -271.5q0 -146 -51 -281t-141 -238t-224 -164.5t-290 -61.5q-155 0 -291 61.5t-227.5 162.5 t-144 229.5t-52.5 261.5zM1151 600h-801q15 -158 131 -260t279 -102q158 0 268 101t123 261z" />
<glyph unicode="&#x4d9;" horiz-adv-x="1226" d="M608 -20q-170 0 -300 77t-197 202t-68 276q0 19 6 88h830q-10 122 -91.5 195t-191.5 73q-85 0 -157.5 -40.5t-98.5 -105.5l-234 66q60 127 192 204t306 77q168 0 298.5 -76t198.5 -201.5t68 -275.5q0 -153 -66.5 -279t-196 -203t-298.5 -77zM610 178q112 0 188 76.5 t87 198.5h-557q9 -121 89.5 -198t192.5 -77z" />
<glyph unicode="&#x4dc;" horiz-adv-x="2193" d="M786 1620v244h228v-244h-228zM1180 1620v244h227v-244h-227zM41 0l561 754l-520 700h328l424 -586h122v586h281v-586h123l424 586h327l-520 -700l561 -754h-323l-465 612h-127v-612h-281v612h-129l-462 -612h-324z" />
<glyph unicode="&#x4dd;" horiz-adv-x="1753" d="M565 1239v244h228v-244h-228zM958 1239v244h228v-244h-228zM45 0l377 555l-350 518h305l274 -407h84v407h283v-407h90l268 407h307l-350 -518l379 -555h-313l-291 428h-90v-428h-281v428h-86l-295 -428h-311z" />
<glyph unicode="&#x4de;" horiz-adv-x="1239" d="M319 1620v244h228v-244h-228zM713 1620v244h227v-244h-227zM623 -14q-178 0 -320.5 71.5t-222.5 200.5l211 131q52 -81 135 -125.5t190 -44.5q126 0 193.5 56.5t67.5 152.5q0 94 -64 149.5t-186 55.5h-174v215h176q97 0 151 50t54 132q0 84 -59 134t-171 50 q-109 0 -189 -42.5t-124 -116.5l-203 143q184 268 528 268q228 0 359 -103.5t131 -289.5q0 -105 -50.5 -191t-150.5 -130q120 -36 188 -130.5t68 -220.5q0 -131 -70.5 -226t-191 -142t-276.5 -47z" />
<glyph unicode="&#x4df;" horiz-adv-x="1015" d="M186 1239v244h228v-244h-228zM580 1239v244h227v-244h-227zM508 -16q-330 0 -467 231l221 100q70 -112 232 -112q95 0 147.5 37t52.5 100q0 57 -44 92t-126 35h-110v170h112q57 0 91 33t34 86q0 54 -42 85t-124 31q-135 0 -194 -106l-207 111q58 102 165.5 158.5 t250.5 56.5q174 0 283.5 -79t109.5 -220q0 -76 -36 -139.5t-107 -92.5q97 -29 147.5 -97t50.5 -165q0 -150 -122 -232.5t-318 -82.5z" />
<glyph unicode="&#x4e2;" horiz-adv-x="1570" d="M481 1677v170h615v-170h-615zM162 0v1454h280v-1059l705 1059h262v-1454h-281v1034l-696 -1034h-270z" />
<glyph unicode="&#x4e3;" horiz-adv-x="1255" d="M324 1296v170h614v-170h-614zM125 0v1071h274v-704l482 706h249v-1073h-274v688l-475 -688h-256z" />
<glyph unicode="&#x4e4;" horiz-adv-x="1570" d="M475 1620v244h227v-244h-227zM868 1620v244h228v-244h-228zM162 0v1454h280v-1059l705 1059h262v-1454h-281v1034l-696 -1034h-270z" />
<glyph unicode="&#x4e5;" horiz-adv-x="1255" d="M317 1239v244h228v-244h-228zM711 1239v244h227v-244h-227zM125 0v1071h274v-704l482 706h249v-1073h-274v688l-475 -688h-256z" />
<glyph unicode="&#x4e6;" horiz-adv-x="1548" d="M467 1618v244h227v-244h-227zM860 1618v244h227v-244h-227zM63 727q0 144 54.5 278.5t148 235.5t227.5 162t285 61q123 0 235 -41.5t196 -114t146.5 -166t95 -201.5t32.5 -218q0 -143 -54 -276.5t-146.5 -234.5t-226 -161.5t-284.5 -60.5q-124 0 -236 40.5t-197 111.5 t-148 164t-95.5 201.5t-32.5 219.5zM774 240q99 0 181 42t134 111.5t80.5 156t28.5 177.5q0 128 -50.5 237.5t-149 178.5t-224.5 69q-99 0 -181 -42t-134 -111t-80.5 -155t-28.5 -177q0 -128 49 -237.5t147.5 -179.5t227.5 -70z" />
<glyph unicode="&#x4e7;" horiz-adv-x="1241" d="M309 1239v244h228v-244h-228zM702 1239v244h228v-244h-228zM57 535q0 112 40 213t111 177.5t178.5 121.5t234.5 45q169 0 298.5 -77.5t196 -203t66.5 -276.5q0 -111 -39 -211.5t-109.5 -177t-177.5 -121.5t-235 -45q-103 0 -193 29.5t-157 81.5t-116 121.5t-73.5 152 t-24.5 170.5zM621 213q119 0 199.5 92t80.5 232q0 139 -80.5 230t-199.5 91t-200 -92t-81 -231q0 -140 80.5 -231t200.5 -91z" />
<glyph unicode="&#x4e8;" horiz-adv-x="1560" d="M778 1464q123 0 235 -41.5t196 -114t146.5 -166t95 -201.5t32.5 -218q0 -143 -54 -276.5t-146.5 -234.5t-226 -161.5t-284.5 -60.5q-124 0 -236 40.5t-197 111.5t-148 164t-95.5 201.5t-32.5 219.5q0 144 54.5 278.5t148 235.5t227.5 162t285 61zM774 1212 q-88 0 -162.5 -33t-126 -89.5t-84.5 -127.5t-45 -151h836q-24 171 -137 286t-281 115zM774 240q122 0 216.5 63.5t145 160.5t60.5 212h-844q10 -118 61.5 -215.5t146 -159t214.5 -61.5z" />
<glyph unicode="&#x4e9;" horiz-adv-x="1239" d="M621 1092q169 0 298.5 -77.5t196 -203t66.5 -276.5q0 -111 -39 -211.5t-109.5 -177t-177.5 -121.5t-235 -45q-103 0 -193 29.5t-157 81.5t-116 121.5t-73.5 152t-24.5 170.5q0 112 40 213t111 177.5t178.5 121.5t234.5 45zM621 858q-104 0 -180 -72t-95 -186h551 q-19 115 -95.5 186.5t-180.5 71.5zM621 213q107 0 184 75t92 195h-553q13 -121 91 -195.5t186 -74.5z" />
<glyph unicode="&#x4ee;" horiz-adv-x="1308" d="M371 1677v170h614v-170h-614zM293 -10v233h115q51 0 78.5 21.5t48.5 72.5l32 72l-577 1065h311l391 -778l340 778h297l-579 -1270q-54 -107 -121.5 -150.5t-179.5 -43.5h-156z" />
<glyph unicode="&#x4ef;" horiz-adv-x="1126" d="M258 1296v170h614v-170h-614zM147 -209q78 -20 123 -20q56 0 90.5 47t75.5 182l-424 1073h285l289 -792l254 792h262l-451 -1286q-38 -114 -135 -185t-231 -71q-68 0 -138 23v237z" />
<glyph unicode="&#x4f0;" horiz-adv-x="1308" d="M365 1620v244h227v-244h-227zM758 1620v244h227v-244h-227zM293 -10v233h115q51 0 78.5 21.5t48.5 72.5l32 72l-577 1065h311l391 -778l340 778h297l-579 -1270q-54 -107 -121.5 -150.5t-179.5 -43.5h-156z" />
<glyph unicode="&#x4f1;" horiz-adv-x="1126" d="M252 1239v244h227v-244h-227zM645 1239v244h227v-244h-227zM147 -209q78 -20 123 -20q56 0 90.5 47t75.5 182l-424 1073h285l289 -792l254 792h262l-451 -1286q-38 -114 -135 -185t-231 -71q-68 0 -138 23v237z" />
<glyph unicode="&#x4f2;" horiz-adv-x="1308" d="M547 1581l-135 53l98 244h213zM874 1581l-133 53l97 244h215zM293 -10v233h115q51 0 78.5 21.5t48.5 72.5l32 72l-577 1065h311l391 -778l340 778h297l-579 -1270q-54 -107 -121.5 -150.5t-179.5 -43.5h-156z" />
<glyph unicode="&#x4f3;" horiz-adv-x="1126" d="M434 1200l-135 53l98 244h213zM762 1200l-133 53l96 244h215zM147 -209q78 -20 123 -20q56 0 90.5 47t75.5 182l-424 1073h285l289 -792l254 792h262l-451 -1286q-38 -114 -135 -185t-231 -71q-68 0 -138 23v237z" />
<glyph unicode="&#x4f4;" horiz-adv-x="1384" d="M391 1620v244h227v-244h-227zM784 1620v244h228v-244h-228zM958 0v567q-144 -67 -327 -67q-258 0 -383 114t-125 359v481h274v-450q0 -131 67.5 -190.5t227.5 -59.5q153 0 266 55v645h275v-1454h-275z" />
<glyph unicode="&#x4f5;" horiz-adv-x="1124" d="M244 1239v244h227v-244h-227zM637 1239v244h227v-244h-227zM723 0v385q-113 -51 -266 -51q-173 0 -268 91.5t-95 266.5v381h275v-344q0 -96 41.5 -141t130.5 -45q109 0 182 39v491h276v-1073h-276z" />
<glyph unicode="&#x4f6;" horiz-adv-x="1099" d="M1049 1206h-613v-958h189v-524h-242v276h-227v1454h893v-248z" />
<glyph unicode="&#x4f7;" horiz-adv-x="868" d="M836 834h-437v-594h181v-500h-246v260h-209v1073h711v-239z" />
<glyph unicode="&#x4f8;" horiz-adv-x="1884" d="M631 1620v244h227v-244h-227zM1024 1620v244h227v-244h-227zM152 0v1454h282v-520h297q239 0 371.5 -125t132.5 -338t-129.5 -342t-357.5 -129h-596zM1450 0v1452h283v-1452h-283zM434 229h275q119 0 178 67t59 175q0 100 -58.5 167t-180.5 67h-273v-476z" />
<glyph unicode="&#x4f9;" horiz-adv-x="1556" d="M469 1239v244h227v-244h-227zM862 1239v244h228v-244h-228zM125 0v1073h274v-338h189q190 0 294.5 -97t104.5 -261q0 -170 -99.5 -273.5t-281.5 -103.5h-481zM1155 0v1071h275v-1071h-275zM399 209h164q81 0 121.5 46t40.5 120q0 73 -39.5 116.5t-124.5 43.5h-162v-326z " />
<glyph unicode="&#x51a;" horiz-adv-x="1546" d="M1491 0h-266l-84 94q-167 -104 -369 -104q-124 1 -236 41.5t-197 111.5t-148 163.5t-95.5 201t-32.5 219.5q0 144 54.5 278.5t148 235.5t227.5 162t285 61q123 0 235 -41.5t196 -114t146.5 -166t95 -201.5t32.5 -218q0 -139 -50 -269.5t-141 -230.5zM774 240 q108 0 195 49l-224 250h267l100 -113q86 130 86 301q0 128 -50.5 238t-149 179.5t-224.5 69.5q-99 0 -181 -42t-134 -111.5t-80.5 -156t-28.5 -177.5q0 -128 49 -237.5t147.5 -179.5t227.5 -70z" />
<glyph unicode="&#x51b;" horiz-adv-x="1298" d="M61 539q0 153 65.5 279.5t181 200t255.5 73.5q120 0 215.5 -55t155.5 -150v186h240v-1509h-275v624q-60 -102 -154 -155t-215 -53q-134 0 -242 75t-167.5 203t-59.5 281zM899 389v254q-23 90 -103 152.5t-167 62.5q-123 0 -205 -97.5t-82 -230.5q0 -135 81.5 -226 t209.5 -91q163 0 266 176z" />
<glyph unicode="&#x51c;" horiz-adv-x="2156" d="M649 1450h262l166 -481l168 481h260l-250 -662l185 -462l411 1128h308l-582 -1454h-244l-256 610l-254 -610h-243l-580 1454h303l414 -1128l180 462z" />
<glyph unicode="&#x51d;" horiz-adv-x="1718" d="M1456 1073h260l-448 -1073h-230l-180 461l-176 -461h-231l-447 1073h258l320 -811l125 350l-187 459h228l110 -328l113 328h227l-186 -459l127 -350z" />
<glyph unicode="&#x524;" horiz-adv-x="1581" d="M1333 248h180v-524h-241v276h-219v1206h-617v-1206h-280v1454h1177v-1206z" />
<glyph unicode="&#x525;" horiz-adv-x="1306" d="M1087 240h166v-500h-245v260h-195v834h-414v-834h-274v1073h962v-833z" />
<glyph unicode="&#x1e08;" horiz-adv-x="1404" d="M1059 1874l-191 -297l-176 53l111 244h256zM1366 326q-56 -133 -194 -220t-302 -110q105 -92 105 -205q0 -90 -61 -146.5t-171 -56.5q-118 0 -245 62l69 145q68 -43 129 -43q53 0 83 24t30 68q0 78 -100 146q-139 13 -261.5 82.5t-205.5 173t-131 232t-48 259.5 q0 134 49.5 263t138.5 232t227 166.5t302 63.5q195 0 344.5 -86t221.5 -231l-218 -150q-35 78 -97 128.5t-125.5 69.5t-133.5 19q-102 0 -184.5 -42.5t-133 -112.5t-77.5 -154.5t-27 -173.5q0 -129 53 -241t152 -181t221 -69q70 0 137 21.5t128.5 73t93.5 126.5z" />
<glyph unicode="&#x1e09;" horiz-adv-x="1155" d="M903 1495l-190 -297l-176 53l110 244h256zM1112 258q-47 -103 -146 -175t-233 -95q96 -89 96 -197q0 -90 -60.5 -146.5t-170.5 -56.5q-119 0 -246 62l70 145q68 -43 129 -43q53 0 83 24t30 68q0 71 -89 138q-155 11 -274.5 90.5t-181.5 201t-62 263.5q0 151 67.5 276 t198 202t300.5 77t296 -74t189 -201l-268 -82q-34 58 -92 90.5t-127 32.5q-120 0 -200.5 -90t-80.5 -231q0 -139 82 -231.5t199 -92.5q73 0 135.5 36t87.5 91z" />
<glyph unicode="&#x1e0c;" horiz-adv-x="1466" d="M152 0v1454h528q173 0 311.5 -56.5t226 -156t133.5 -230t46 -282.5q0 -331 -195.5 -530t-521.5 -199h-528zM680 1206h-246v-958h246q203 0 317.5 134.5t114.5 346.5q0 215 -115 346t-317 131zM610 -408v258h248v-258h-248z" />
<glyph unicode="&#x1e0d;" horiz-adv-x="1320" d="M59 537q0 153 61 280t171.5 201t247.5 74q115 0 210.5 -56.5t151.5 -150.5v610h275v-1188q0 -44 14 -62.5t49 -21.5v-223q-71 -14 -117 -14q-73 0 -121.5 36.5t-54.5 96.5l-4 67q-58 -99 -159 -152.5t-214 -53.5q-146 0 -263 74t-182 201.5t-65 281.5zM901 393v256 q-34 89 -113.5 149t-162.5 60q-121 0 -201 -97.5t-80 -230.5q0 -134 84.5 -225.5t212.5 -91.5q80 0 156.5 51.5t103.5 128.5zM539 -408v258h247v-258h-247z" />
<glyph unicode="&#x1e0e;" horiz-adv-x="1466" d="M152 0v1454h528q173 0 311.5 -56.5t226 -156t133.5 -230t46 -282.5q0 -331 -195.5 -530t-521.5 -199h-528zM680 1206h-246v-958h246q203 0 317.5 134.5t114.5 346.5q0 215 -115 346t-317 131zM426 -334v170h614v-170h-614z" />
<glyph unicode="&#x1e0f;" horiz-adv-x="1320" d="M59 537q0 153 61 280t171.5 201t247.5 74q115 0 210.5 -56.5t151.5 -150.5v610h275v-1188q0 -44 14 -62.5t49 -21.5v-223q-71 -14 -117 -14q-73 0 -121.5 36.5t-54.5 96.5l-4 67q-58 -99 -159 -152.5t-214 -53.5q-146 0 -263 74t-182 201.5t-65 281.5zM901 393v256 q-34 89 -113.5 149t-162.5 60q-121 0 -201 -97.5t-80 -230.5q0 -134 84.5 -225.5t212.5 -91.5q80 0 156.5 51.5t103.5 128.5zM354 -334v170h615v-170h-615z" />
<glyph unicode="&#x1e14;" horiz-adv-x="1230" d="M416 2269h254l112 -244l-176 -53zM362 1675v170h615v-170h-615zM1161 248v-248h-1009v1454h991v-248h-709v-350h613v-229h-613v-379h727z" />
<glyph unicode="&#x1e15;" horiz-adv-x="1226" d="M369 1890h254l112 -243l-176 -54zM315 1296v170h615v-170h-615zM623 -20q-168 0 -299 76t-199 200.5t-68 273.5q0 153 68 280.5t199 204.5t301 77q128 0 234.5 -45t177 -121.5t109 -175.5t38.5 -209q0 -57 -6 -92h-830q10 -122 92 -195.5t193 -73.5q83 0 155.5 40.5 t98.5 105.5l235 -66q-60 -126 -192.5 -203t-306.5 -77zM342 623h561q-12 121 -90.5 195.5t-191.5 74.5q-111 0 -190 -75t-89 -195z" />
<glyph unicode="&#x1e16;" horiz-adv-x="1230" d="M760 1970l-176 53l110 244h256zM362 1675v170h615v-170h-615zM1161 248v-248h-1009v1454h991v-248h-709v-350h613v-229h-613v-379h727z" />
<glyph unicode="&#x1e17;" horiz-adv-x="1226" d="M713 1591l-176 54l110 243h256zM315 1296v170h615v-170h-615zM623 -20q-168 0 -299 76t-199 200.5t-68 273.5q0 153 68 280.5t199 204.5t301 77q128 0 234.5 -45t177 -121.5t109 -175.5t38.5 -209q0 -57 -6 -92h-830q10 -122 92 -195.5t193 -73.5q83 0 155.5 40.5 t98.5 105.5l235 -66q-60 -126 -192.5 -203t-306.5 -77zM342 623h561q-12 121 -90.5 195.5t-191.5 74.5q-111 0 -190 -75t-89 -195z" />
<glyph unicode="&#x1e1c;" horiz-adv-x="1230" d="M668 1599q-117 0 -193 78t-76 197h148q0 -61 36.5 -106.5t84.5 -45.5q46 0 81.5 43.5t41.5 108.5h145q0 -119 -75.5 -197t-192.5 -78zM1161 248v-248h-397q108 -90 108 -209q0 -90 -60.5 -146.5t-170.5 -56.5q-119 0 -246 62l70 145q68 -43 129 -43q53 0 83 24t30 68 q0 80 -115 156h-440v1454h991v-248h-709v-350h613v-229h-613v-379h727z" />
<glyph unicode="&#x1e1d;" horiz-adv-x="1226" d="M621 1221q-117 0 -193 77.5t-76 196.5h148q0 -61 36.5 -106.5t84.5 -45.5q46 0 81 43t41 109h146q0 -119 -75.5 -196.5t-192.5 -77.5zM1184 541q0 -57 -6 -92h-830q10 -122 92 -195.5t193 -73.5q83 0 155.5 40.5t98.5 105.5l235 -66q-50 -104 -152.5 -176.5t-238.5 -95.5 q96 -89 96 -197q0 -90 -60.5 -146.5t-170.5 -56.5q-119 0 -246 62l70 145q68 -43 129 -43q53 0 83 24t30 68q0 71 -89 138q-232 17 -374 173.5t-142 374.5q0 153 68 280.5t199 204.5t301 77q128 0 234.5 -45t177 -121.5t109 -175.5t38.5 -209zM342 623h561 q-12 121 -90.5 195.5t-191.5 74.5q-111 0 -190 -75t-89 -195z" />
<glyph unicode="&#x1e20;" horiz-adv-x="1484" d="M1081 1845v-170h-614v170h614zM868 748h527v-748h-234v166q-176 -176 -405 -176q-189 0 -347.5 98t-250.5 269.5t-92 377.5q0 147 54.5 281t148 232.5t225.5 157t280 58.5q200 0 348.5 -84.5t223.5 -232.5l-211 -156q-55 106 -154 164.5t-217 58.5q-121 0 -216.5 -67 t-146.5 -178t-51 -242q0 -207 122.5 -347t307.5 -140q211 0 381 200v101h-293v207z" />
<glyph unicode="&#x1e21;" horiz-adv-x="1298" d="M334 1296v170h614v-170h-614zM61 537q0 154 63 280.5t178 200.5t259 74q121 0 216 -55t159 -152v188h240v-1022q0 -155 -77.5 -271.5t-212 -176.5t-306.5 -60q-169 0 -290.5 57t-211.5 167l149 145q62 -75 155.5 -118.5t197.5 -43.5q66 0 123 18t102 53.5t70.5 94.5 t25.5 135v135q-53 -91 -149 -141.5t-207 -50.5q-140 0 -251.5 74t-172 198t-60.5 271zM901 393v256q-36 93 -114.5 151t-165.5 58q-122 0 -200.5 -98.5t-78.5 -231.5t85 -224t210 -91q87 0 160.5 52t103.5 128z" />
<glyph unicode="&#x1e24;" horiz-adv-x="1525" d="M1374 1454v-1454h-280v621h-660v-621h-282v1454h282v-588h660v588h280zM641 -408v258h248v-258h-248z" />
<glyph unicode="&#x1e25;" horiz-adv-x="1236" d="M1122 0h-274v602q0 124 -47 186t-133 62q-78 0 -158.5 -64t-110.5 -159v-627h-274v1495h274v-621q60 103 162 160.5t223 57.5q338 0 338 -422v-670zM496 -408v258h247v-258h-247z" />
<glyph unicode="&#x1e2a;" horiz-adv-x="1525" d="M1374 1454v-1454h-280v621h-660v-621h-282v1454h282v-588h660v588h280zM887 -109h145q0 -120 -75.5 -197t-192.5 -77t-192.5 77t-75.5 197h147q0 -61 36.5 -106t84.5 -45q46 0 81.5 43t41.5 108z" />
<glyph unicode="&#x1e2b;" horiz-adv-x="1236" d="M1122 0h-274v602q0 124 -47 186t-133 62q-78 0 -158.5 -64t-110.5 -159v-627h-274v1495h274v-621q60 103 162 160.5t223 57.5q338 0 338 -422v-670zM741 -109h146q0 -120 -76 -197t-193 -77t-192.5 77t-75.5 197h148q0 -61 36 -106t84 -45q46 0 81.5 43t41.5 108z" />
<glyph unicode="&#x1e2e;" horiz-adv-x="585" d="M383 1980l-176 54l110 243h256zM-18 1618v244h227v-244h-227zM375 1618v244h227v-244h-227zM152 0v1454h282v-1454h-282z" />
<glyph unicode="&#x1e2f;" horiz-adv-x="522" d="M352 1602l-176 53l111 243h256zM-49 1239v244h227v-244h-227zM344 1239v244h227v-244h-227zM125 0v1073h274v-1073h-274z" />
<glyph unicode="&#x1e36;" horiz-adv-x="1196" d="M152 0v1454h282v-1206h742v-248h-1024zM565 -408v258h248v-258h-248z" />
<glyph unicode="&#x1e37;" horiz-adv-x="649" d="M123 1495h274v-1151q0 -71 23 -98t69 -27q66 0 129 29l37 -209q-54 -25 -127 -40t-135 -15q-128 0 -199 69t-71 195v1247zM264 -408v258h248v-258h-248z" />
<glyph unicode="&#x1e3a;" horiz-adv-x="1196" d="M152 0v1454h282v-1206h742v-248h-1024zM381 -334v170h614v-170h-614z" />
<glyph unicode="&#x1e3b;" horiz-adv-x="649" d="M123 1495h274v-1151q0 -71 23 -98t69 -27q66 0 129 29l37 -209q-54 -25 -127 -40t-135 -15q-128 0 -199 69t-71 195v1247zM80 -334v170h614v-170h-614z" />
<glyph unicode="&#x1e42;" horiz-adv-x="1771" d="M1337 0v954l-372 -710h-158l-373 710v-954h-282v1454h303l430 -827l434 827h301v-1454h-283zM762 -408v258h248v-258h-248z" />
<glyph unicode="&#x1e43;" horiz-adv-x="1906" d="M1792 0h-274v602q0 125 -43 186.5t-123 61.5q-82 0 -153.5 -63t-102.5 -162v-625h-275v602q0 248 -166 248q-81 0 -153.5 -62t-102.5 -161v-627h-274v1073h248v-199q60 104 163.5 161t235.5 57q127 0 204 -63.5t99 -164.5q65 110 166.5 169t228.5 59q322 0 322 -422v-670 zM831 -408v258h248v-258h-248z" />
<glyph unicode="&#x1e44;" horiz-adv-x="1562" d="M657 1614v258h248v-258h-248zM434 934v-934h-282v1454h225l751 -958v956h283v-1452h-235z" />
<glyph unicode="&#x1e45;" horiz-adv-x="1236" d="M526 1237v258h248v-258h-248zM1122 0h-274v602q0 248 -170 248q-85 0 -167 -64t-112 -159v-627h-274v1073h248v-199q60 102 173.5 160t252.5 58q78 0 136.5 -24.5t93.5 -63.5t56.5 -96t29 -113.5t7.5 -124.5v-670z" />
<glyph unicode="&#x1e46;" horiz-adv-x="1562" d="M434 934v-934h-282v1454h225l751 -958v956h283v-1452h-235zM657 -408v258h248v-258h-248z" />
<glyph unicode="&#x1e47;" horiz-adv-x="1236" d="M1122 0h-274v602q0 248 -170 248q-85 0 -167 -64t-112 -159v-627h-274v1073h248v-199q60 102 173.5 160t252.5 58q78 0 136.5 -24.5t93.5 -63.5t56.5 -96t29 -113.5t7.5 -124.5v-670zM496 -408v258h247v-258h-247z" />
<glyph unicode="&#x1e48;" horiz-adv-x="1562" d="M434 934v-934h-282v1454h225l751 -958v956h283v-1452h-235zM473 -334v170h614v-170h-614z" />
<glyph unicode="&#x1e49;" horiz-adv-x="1236" d="M1122 0h-274v602q0 248 -170 248q-85 0 -167 -64t-112 -159v-627h-274v1073h248v-199q60 102 173.5 160t252.5 58q78 0 136.5 -24.5t93.5 -63.5t56.5 -96t29 -113.5t7.5 -124.5v-670zM311 -334v170h615v-170h-615z" />
<glyph unicode="&#x1e4c;" horiz-adv-x="1548" d="M868 1999l-176 53l111 244h256zM643 1704q-26 0 -45.5 -10t-29 -22.5t-15.5 -28.5t-7 -24.5t-1 -12.5h-152q0 18 7.5 47t25.5 67t44 70.5t69 55t94 22.5q42 0 81 -15t64 -33t59 -33t66 -15q28 0 49 10t32 23.5t18 29.5t8.5 25t1.5 14h151q0 -14 -7.5 -42t-27 -66.5 t-46.5 -72.5t-72 -57.5t-99 -23.5q-52 0 -100 23t-89.5 46t-78.5 23zM63 727q0 144 54.5 278.5t148 235.5t227.5 162t285 61q123 0 235 -41.5t196 -114t146.5 -166t95 -201.5t32.5 -218q0 -143 -54 -276.5t-146.5 -234.5t-226 -161.5t-284.5 -60.5q-124 0 -236 40.5 t-197 111.5t-148 164t-95.5 201.5t-32.5 219.5zM774 240q99 0 181 42t134 111.5t80.5 156t28.5 177.5q0 128 -50.5 237.5t-149 178.5t-224.5 69q-99 0 -181 -42t-134 -111t-80.5 -155t-28.5 -177q0 -128 49 -237.5t147.5 -179.5t227.5 -70z" />
<glyph unicode="&#x1e4d;" horiz-adv-x="1241" d="M711 1620l-176 53l110 244h256zM485 1325q-26 0 -45.5 -10t-29 -22.5t-15.5 -28.5t-7 -24.5t-1 -12.5h-151q0 24 13 63.5t38.5 86t75 79.5t112.5 33q42 0 81 -15t64 -33t59 -33t66 -15q28 0 49 10t32 23.5t18 29.5t8.5 25t1.5 14h152q0 -14 -7.5 -42t-27 -66.5 t-46.5 -72.5t-72 -57.5t-99 -23.5q-52 0 -100.5 23t-90 46t-78.5 23zM57 535q0 112 40 213t111 177.5t178.5 121.5t234.5 45q169 0 298.5 -77.5t196 -203t66.5 -276.5q0 -111 -39 -211.5t-109.5 -177t-177.5 -121.5t-235 -45q-103 0 -193 29.5t-157 81.5t-116 121.5 t-73.5 152t-24.5 170.5zM621 213q119 0 199.5 92t80.5 232q0 139 -80.5 230t-199.5 91t-200 -92t-81 -231q0 -140 80.5 -231t200.5 -91z" />
<glyph unicode="&#x1e4e;" horiz-adv-x="1548" d="M467 2040v244h227v-244h-227zM860 2040v244h227v-244h-227zM643 1704q-26 0 -45.5 -10t-29 -22.5t-15.5 -28.5t-7 -24.5t-1 -12.5h-152q0 18 7.5 47t25.5 67t44 70.5t69 55t94 22.5q42 0 81 -15t64 -33t59 -33t66 -15q28 0 49 10t32 23.5t18 29.5t8.5 25t1.5 14h151 q0 -14 -7.5 -42t-27 -66.5t-46.5 -72.5t-72 -57.5t-99 -23.5q-52 0 -100 23t-89.5 46t-78.5 23zM63 727q0 144 54.5 278.5t148 235.5t227.5 162t285 61q123 0 235 -41.5t196 -114t146.5 -166t95 -201.5t32.5 -218q0 -143 -54 -276.5t-146.5 -234.5t-226 -161.5t-284.5 -60.5 q-124 0 -236 40.5t-197 111.5t-148 164t-95.5 201.5t-32.5 219.5zM774 240q99 0 181 42t134 111.5t80.5 156t28.5 177.5q0 128 -50.5 237.5t-149 178.5t-224.5 69q-99 0 -181 -42t-134 -111t-80.5 -155t-28.5 -177q0 -128 49 -237.5t147.5 -179.5t227.5 -70z" />
<glyph unicode="&#x1e4f;" horiz-adv-x="1241" d="M309 1661v244h228v-244h-228zM702 1661v244h228v-244h-228zM485 1325q-26 0 -45.5 -10t-29 -22.5t-15.5 -28.5t-7 -24.5t-1 -12.5h-151q0 24 13 63.5t38.5 86t75 79.5t112.5 33q42 0 81 -15t64 -33t59 -33t66 -15q28 0 49 10t32 23.5t18 29.5t8.5 25t1.5 14h152 q0 -14 -7.5 -42t-27 -66.5t-46.5 -72.5t-72 -57.5t-99 -23.5q-52 0 -100.5 23t-90 46t-78.5 23zM57 535q0 112 40 213t111 177.5t178.5 121.5t234.5 45q169 0 298.5 -77.5t196 -203t66.5 -276.5q0 -111 -39 -211.5t-109.5 -177t-177.5 -121.5t-235 -45q-103 0 -193 29.5 t-157 81.5t-116 121.5t-73.5 152t-24.5 170.5zM621 213q119 0 199.5 92t80.5 232q0 139 -80.5 230t-199.5 91t-200 -92t-81 -231q0 -140 80.5 -231t200.5 -91z" />
<glyph unicode="&#x1e50;" horiz-adv-x="1548" d="M526 2269h254l113 -244l-176 -53zM473 1675v170h614v-170h-614zM63 727q0 144 54.5 278.5t148 235.5t227.5 162t285 61q123 0 235 -41.5t196 -114t146.5 -166t95 -201.5t32.5 -218q0 -143 -54 -276.5t-146.5 -234.5t-226 -161.5t-284.5 -60.5q-124 0 -236 40.5 t-197 111.5t-148 164t-95.5 201.5t-32.5 219.5zM774 240q99 0 181 42t134 111.5t80.5 156t28.5 177.5q0 128 -50.5 237.5t-149 178.5t-224.5 69q-99 0 -181 -42t-134 -111t-80.5 -155t-28.5 -177q0 -128 49 -237.5t147.5 -179.5t227.5 -70z" />
<glyph unicode="&#x1e51;" horiz-adv-x="1241" d="M369 1890h254l112 -243l-176 -54zM315 1296v170h615v-170h-615zM57 535q0 112 40 213t111 177.5t178.5 121.5t234.5 45q169 0 298.5 -77.5t196 -203t66.5 -276.5q0 -111 -39 -211.5t-109.5 -177t-177.5 -121.5t-235 -45q-103 0 -193 29.5t-157 81.5t-116 121.5t-73.5 152 t-24.5 170.5zM621 213q119 0 199.5 92t80.5 232q0 139 -80.5 230t-199.5 91t-200 -92t-81 -231q0 -140 80.5 -231t200.5 -91z" />
<glyph unicode="&#x1e52;" horiz-adv-x="1548" d="M870 1970l-176 53l111 244h256zM473 1675v170h614v-170h-614zM63 727q0 144 54.5 278.5t148 235.5t227.5 162t285 61q123 0 235 -41.5t196 -114t146.5 -166t95 -201.5t32.5 -218q0 -143 -54 -276.5t-146.5 -234.5t-226 -161.5t-284.5 -60.5q-124 0 -236 40.5t-197 111.5 t-148 164t-95.5 201.5t-32.5 219.5zM774 240q99 0 181 42t134 111.5t80.5 156t28.5 177.5q0 128 -50.5 237.5t-149 178.5t-224.5 69q-99 0 -181 -42t-134 -111t-80.5 -155t-28.5 -177q0 -128 49 -237.5t147.5 -179.5t227.5 -70z" />
<glyph unicode="&#x1e53;" horiz-adv-x="1241" d="M713 1591l-176 54l110 243h256zM315 1296v170h615v-170h-615zM57 535q0 112 40 213t111 177.5t178.5 121.5t234.5 45q169 0 298.5 -77.5t196 -203t66.5 -276.5q0 -111 -39 -211.5t-109.5 -177t-177.5 -121.5t-235 -45q-103 0 -193 29.5t-157 81.5t-116 121.5t-73.5 152 t-24.5 170.5zM621 213q119 0 199.5 92t80.5 232q0 139 -80.5 230t-199.5 91t-200 -92t-81 -231q0 -140 80.5 -231t200.5 -91z" />
<glyph unicode="&#x1e5a;" horiz-adv-x="1361" d="M152 0v1454h643q129 0 237 -71.5t166.5 -181.5t58.5 -230q0 -140 -71.5 -256.5t-190.5 -167.5l332 -547h-311l-299 487h-283v-487h-282zM434 735h354q78 0 131.5 68.5t53.5 167.5t-60 167t-137 68h-342v-471zM578 -408v258h247v-258h-247z" />
<glyph unicode="&#x1e5b;" horiz-adv-x="792" d="M764 836q-128 -2 -225.5 -50t-139.5 -137v-649h-274v1073h252v-229q57 109 145.5 174t186.5 69q43 0 55 -2v-249zM129 -408v258h248v-258h-248z" />
<glyph unicode="&#x1e5e;" horiz-adv-x="1361" d="M152 0v1454h643q129 0 237 -71.5t166.5 -181.5t58.5 -230q0 -140 -71.5 -256.5t-190.5 -167.5l332 -547h-311l-299 487h-283v-487h-282zM434 735h354q78 0 131.5 68.5t53.5 167.5t-60 167t-137 68h-342v-471zM393 -334v170h615v-170h-615z" />
<glyph unicode="&#x1e5f;" horiz-adv-x="792" d="M764 836q-128 -2 -225.5 -50t-139.5 -137v-649h-274v1073h252v-229q57 109 145.5 174t186.5 69q43 0 55 -2v-249zM-55 -334v170h614v-170h-614z" />
<glyph unicode="&#x1e60;" horiz-adv-x="1255" d="M520 1630v258h248v-258h-248zM1018 1073q-37 41 -156 92.5t-235 51.5q-114 0 -173 -42.5t-59 -121.5q0 -22 4.5 -40.5t17 -34.5t25 -28t38 -24t45.5 -20.5t58.5 -20t65.5 -19t78 -20.5q93 -24 159.5 -47.5t128 -59t98.5 -79t59 -105t22 -139.5q0 -113 -43.5 -198.5 t-120 -135.5t-170.5 -74t-205 -24q-163 0 -323.5 49.5t-286.5 138.5l125 244q52 -52 197.5 -115t291.5 -63q115 0 174.5 38.5t59.5 110.5q0 45 -20.5 76.5t-78 58.5t-100.5 41t-146 42q-7 2 -11 3t-10 3t-11 3q-109 31 -182 63.5t-127 78.5t-78.5 107.5t-24.5 144.5 q0 144 72 249t190.5 156t268.5 51q270 0 508 -161z" />
<glyph unicode="&#x1e61;" horiz-adv-x="1011" d="M399 1237v258h248v-258h-248zM520 -20q-139 0 -264 46t-213 132l98 178q192 -152 369 -152q81 0 128.5 29.5t47.5 85.5q0 13 -2.5 23.5t-10 20t-13.5 16.5t-21 14.5t-25 12t-32 12t-34.5 11t-41.5 12t-45 13.5q-79 25 -129.5 45t-98.5 47t-74 57t-41.5 71t-15.5 94 q0 158 119 252t316 94q241 0 403 -152l-111 -174q-160 123 -305 123q-72 0 -119 -26t-47 -85q0 -53 42 -78.5t153 -56.5q89 -26 141 -44.5t107.5 -46.5t84 -58.5t46.5 -74.5t18 -102q0 -158 -116.5 -248.5t-313.5 -90.5z" />
<glyph unicode="&#x1e62;" horiz-adv-x="1255" d="M1018 1073q-37 41 -156 92.5t-235 51.5q-114 0 -173 -42.5t-59 -121.5q0 -22 4.5 -40.5t17 -34.5t25 -28t38 -24t45.5 -20.5t58.5 -20t65.5 -19t78 -20.5q93 -24 159.5 -47.5t128 -59t98.5 -79t59 -105t22 -139.5q0 -113 -43.5 -198.5t-120 -135.5t-170.5 -74t-205 -24 q-163 0 -323.5 49.5t-286.5 138.5l125 244q52 -52 197.5 -115t291.5 -63q115 0 174.5 38.5t59.5 110.5q0 45 -20.5 76.5t-78 58.5t-100.5 41t-146 42q-7 2 -11 3t-10 3t-11 3q-109 31 -182 63.5t-127 78.5t-78.5 107.5t-24.5 144.5q0 144 72 249t190.5 156t268.5 51 q270 0 508 -161zM532 -408v258h248v-258h-248z" />
<glyph unicode="&#x1e63;" horiz-adv-x="1011" d="M520 -20q-139 0 -264 46t-213 132l98 178q192 -152 369 -152q81 0 128.5 29.5t47.5 85.5q0 13 -2.5 23.5t-10 20t-13.5 16.5t-21 14.5t-25 12t-32 12t-34.5 11t-41.5 12t-45 13.5q-79 25 -129.5 45t-98.5 47t-74 57t-41.5 71t-15.5 94q0 158 119 252t316 94 q241 0 403 -152l-111 -174q-160 123 -305 123q-72 0 -119 -26t-47 -85q0 -53 42 -78.5t153 -56.5q89 -26 141 -44.5t107.5 -46.5t84 -58.5t46.5 -74.5t18 -102q0 -158 -116.5 -248.5t-313.5 -90.5zM399 -408v258h248v-258h-248z" />
<glyph unicode="&#x1e64;" horiz-adv-x="1255" d="M616 2052v258h248v-258h-248zM733 1591l-176 54l111 243h256zM1018 1073q-37 41 -156 92.5t-235 51.5q-114 0 -173 -42.5t-59 -121.5q0 -22 4.5 -40.5t17 -34.5t25 -28t38 -24t45.5 -20.5t58.5 -20t65.5 -19t78 -20.5q93 -24 159.5 -47.5t128 -59t98.5 -79t59 -105 t22 -139.5q0 -113 -43.5 -198.5t-120 -135.5t-170.5 -74t-205 -24q-163 0 -323.5 49.5t-286.5 138.5l125 244q52 -52 197.5 -115t291.5 -63q115 0 174.5 38.5t59.5 110.5q0 45 -20.5 76.5t-78 58.5t-100.5 41t-146 42q-7 2 -11 3t-10 3t-11 3q-109 31 -182 63.5t-127 78.5 t-78.5 107.5t-24.5 144.5q0 144 72 249t190.5 156t268.5 51q270 0 508 -161z" />
<glyph unicode="&#x1e65;" horiz-adv-x="1011" d="M496 1659v258h247v-258h-247zM612 1198l-176 53l111 244h256zM520 -20q-139 0 -264 46t-213 132l98 178q192 -152 369 -152q81 0 128.5 29.5t47.5 85.5q0 13 -2.5 23.5t-10 20t-13.5 16.5t-21 14.5t-25 12t-32 12t-34.5 11t-41.5 12t-45 13.5q-79 25 -129.5 45t-98.5 47 t-74 57t-41.5 71t-15.5 94q0 158 119 252t316 94q241 0 403 -152l-111 -174q-160 123 -305 123q-72 0 -119 -26t-47 -85q0 -53 42 -78.5t153 -56.5q89 -26 141 -44.5t107.5 -46.5t84 -58.5t46.5 -74.5t18 -102q0 -158 -116.5 -248.5t-313.5 -90.5z" />
<glyph unicode="&#x1e66;" horiz-adv-x="1255" d="M520 2052v258h248v-258h-248zM469 1888l174 -129l174 129l141 -65l-217 -207h-198l-217 207zM1018 1073q-37 41 -156 92.5t-235 51.5q-114 0 -173 -42.5t-59 -121.5q0 -22 4.5 -40.5t17 -34.5t25 -28t38 -24t45.5 -20.5t58.5 -20t65.5 -19t78 -20.5q93 -24 159.5 -47.5 t128 -59t98.5 -79t59 -105t22 -139.5q0 -113 -43.5 -198.5t-120 -135.5t-170.5 -74t-205 -24q-163 0 -323.5 49.5t-286.5 138.5l125 244q52 -52 197.5 -115t291.5 -63q115 0 174.5 38.5t59.5 110.5q0 45 -20.5 76.5t-78 58.5t-100.5 41t-146 42q-7 2 -11 3t-10 3t-11 3 q-109 31 -182 63.5t-127 78.5t-78.5 107.5t-24.5 144.5q0 144 72 249t190.5 156t268.5 51q270 0 508 -161z" />
<glyph unicode="&#x1e67;" horiz-adv-x="1011" d="M399 1659v258h248v-258h-248zM348 1495l174 -129l174 129l142 -65l-217 -207h-199l-217 207zM520 -20q-139 0 -264 46t-213 132l98 178q192 -152 369 -152q81 0 128.5 29.5t47.5 85.5q0 13 -2.5 23.5t-10 20t-13.5 16.5t-21 14.5t-25 12t-32 12t-34.5 11t-41.5 12 t-45 13.5q-79 25 -129.5 45t-98.5 47t-74 57t-41.5 71t-15.5 94q0 158 119 252t316 94q241 0 403 -152l-111 -174q-160 123 -305 123q-72 0 -119 -26t-47 -85q0 -53 42 -78.5t153 -56.5q89 -26 141 -44.5t107.5 -46.5t84 -58.5t46.5 -74.5t18 -102q0 -158 -116.5 -248.5 t-313.5 -90.5z" />
<glyph unicode="&#x1e68;" horiz-adv-x="1255" d="M520 1630v258h248v-258h-248zM1018 1073q-37 41 -156 92.5t-235 51.5q-114 0 -173 -42.5t-59 -121.5q0 -22 4.5 -40.5t17 -34.5t25 -28t38 -24t45.5 -20.5t58.5 -20t65.5 -19t78 -20.5q93 -24 159.5 -47.5t128 -59t98.5 -79t59 -105t22 -139.5q0 -113 -43.5 -198.5 t-120 -135.5t-170.5 -74t-205 -24q-163 0 -323.5 49.5t-286.5 138.5l125 244q52 -52 197.5 -115t291.5 -63q115 0 174.5 38.5t59.5 110.5q0 45 -20.5 76.5t-78 58.5t-100.5 41t-146 42q-7 2 -11 3t-10 3t-11 3q-109 31 -182 63.5t-127 78.5t-78.5 107.5t-24.5 144.5 q0 144 72 249t190.5 156t268.5 51q270 0 508 -161zM532 -408v258h248v-258h-248z" />
<glyph unicode="&#x1e69;" horiz-adv-x="1011" d="M399 1237v258h248v-258h-248zM520 -20q-139 0 -264 46t-213 132l98 178q192 -152 369 -152q81 0 128.5 29.5t47.5 85.5q0 13 -2.5 23.5t-10 20t-13.5 16.5t-21 14.5t-25 12t-32 12t-34.5 11t-41.5 12t-45 13.5q-79 25 -129.5 45t-98.5 47t-74 57t-41.5 71t-15.5 94 q0 158 119 252t316 94q241 0 403 -152l-111 -174q-160 123 -305 123q-72 0 -119 -26t-47 -85q0 -53 42 -78.5t153 -56.5q89 -26 141 -44.5t107.5 -46.5t84 -58.5t46.5 -74.5t18 -102q0 -158 -116.5 -248.5t-313.5 -90.5zM399 -408v258h248v-258h-248z" />
<glyph unicode="&#x1e6c;" horiz-adv-x="1267" d="M1239 1206h-465v-1206h-280v1206h-465v248h1210v-248zM512 -408v258h248v-258h-248z" />
<glyph unicode="&#x1e6d;" horiz-adv-x="786" d="M768 55q-164 -73 -303 -73q-59 0 -108 15t-88 45.5t-61 82.5t-22 121v616h-141v211h141v348h275v-348h225v-211h-225v-524q3 -105 102 -105q58 0 150 39zM340 -408v258h248v-258h-248z" />
<glyph unicode="&#x1e6e;" horiz-adv-x="1267" d="M1239 1206h-465v-1206h-280v1206h-465v248h1210v-248zM328 -334v170h614v-170h-614z" />
<glyph unicode="&#x1e6f;" horiz-adv-x="786" d="M768 55q-164 -73 -303 -73q-59 0 -108 15t-88 45.5t-61 82.5t-22 121v616h-141v211h141v348h275v-348h225v-211h-225v-524q3 -105 102 -105q58 0 150 39zM156 -334v170h614v-170h-614z" />
<glyph unicode="&#x1e78;" horiz-adv-x="1536" d="M858 1999l-176 53l111 244h256zM633 1704q-26 0 -45.5 -10t-29 -22.5t-15.5 -28.5t-7 -24.5t-1 -12.5h-152q0 18 7.5 47t25.5 67t44 70.5t69 55t94 22.5q42 0 81 -15t64 -33t59 -33t66 -15q28 0 49 10t31.5 23.5t17.5 29.5t8.5 25t1.5 14h152q0 -14 -7.5 -42t-27 -66.5 t-46.5 -72.5t-72 -57.5t-99 -23.5q-52 0 -100 23t-89.5 46t-78.5 23zM768 -10q-135 0 -244 39.5t-181.5 106.5t-121 160t-69.5 196.5t-21 220.5v741h283v-741q0 -96 18.5 -177.5t58 -149.5t110 -107t165.5 -39q97 0 168.5 39.5t111 108.5t58 149.5t18.5 175.5v741h281v-741 q0 -153 -37 -281t-111.5 -228.5t-199 -157t-287.5 -56.5z" />
<glyph unicode="&#x1e79;" horiz-adv-x="1265" d="M705 1620l-177 53l111 244h256zM479 1325q-26 0 -45.5 -10t-29 -22.5t-15.5 -28.5t-7 -24.5t-1 -12.5h-152q0 18 7.5 47t25.5 67t44 70.5t69 55t94 22.5q42 0 81 -15t64 -33t59 -33t66 -15q28 0 49 10t32 23.5t18 29.5t8.5 25t1.5 14h151q0 -11 -5.5 -33t-17 -52 t-32 -60.5t-46.5 -57t-65.5 -43t-84.5 -16.5q-52 0 -100.5 23t-90 46t-78.5 23zM115 401v672h274v-612q0 -248 178 -248q83 0 157 50t120 145v665h274v-766q0 -44 15 -62.5t51 -21.5v-223q-66 -12 -119 -12q-74 0 -120.5 33.5t-53.5 93.5l-6 86q-71 -109 -183 -165t-249 -56 q-166 0 -252 107t-86 314z" />
<glyph unicode="&#x1e7a;" horiz-adv-x="1536" d="M459 2011v244h227v-244h-227zM852 2011v244h227v-244h-227zM463 1675v170h614v-170h-614zM768 -10q-135 0 -244 39.5t-181.5 106.5t-121 160t-69.5 196.5t-21 220.5v741h283v-741q0 -96 18.5 -177.5t58 -149.5t110 -107t165.5 -39q97 0 168.5 39.5t111 108.5t58 149.5 t18.5 175.5v741h281v-741q0 -153 -37 -281t-111.5 -228.5t-199 -157t-287.5 -56.5z" />
<glyph unicode="&#x1e7b;" horiz-adv-x="1265" d="M305 1632v244h227v-244h-227zM698 1632v244h228v-244h-228zM309 1296v170h615v-170h-615zM115 401v672h274v-612q0 -248 178 -248q83 0 157 50t120 145v665h274v-766q0 -44 15 -62.5t51 -21.5v-223q-66 -12 -119 -12q-74 0 -120.5 33.5t-53.5 93.5l-6 86 q-71 -109 -183 -165t-249 -56q-166 0 -252 107t-86 314z" />
<glyph unicode="&#x1e80;" horiz-adv-x="2156" d="M823 1876h254l113 -244l-176 -53zM649 1450h262l166 -481l168 481h260l-250 -662l185 -462l411 1128h308l-582 -1454h-244l-256 610l-254 -610h-243l-580 1454h303l414 -1128l180 462z" />
<glyph unicode="&#x1e81;" horiz-adv-x="1718" d="M604 1497h254l113 -244l-176 -53zM1456 1073h260l-448 -1073h-230l-180 461l-176 -461h-231l-447 1073h258l320 -811l125 350l-187 459h228l110 -328l113 328h227l-186 -459l127 -350z" />
<glyph unicode="&#x1e82;" horiz-adv-x="2156" d="M1167 1577l-176 53l111 244h256zM649 1450h262l166 -481l168 481h260l-250 -662l185 -462l411 1128h308l-582 -1454h-244l-256 610l-254 -610h-243l-580 1454h303l414 -1128l180 462z" />
<glyph unicode="&#x1e83;" horiz-adv-x="1718" d="M948 1198l-176 53l111 244h256zM1456 1073h260l-448 -1073h-230l-180 461l-176 -461h-231l-447 1073h258l320 -811l125 350l-187 459h228l110 -328l113 328h227l-186 -459l127 -350z" />
<glyph unicode="&#x1e84;" horiz-adv-x="2156" d="M766 1618v244h227v-244h-227zM1159 1618v244h227v-244h-227zM649 1450h262l166 -481l168 481h260l-250 -662l185 -462l411 1128h308l-582 -1454h-244l-256 610l-254 -610h-243l-580 1454h303l414 -1128l180 462z" />
<glyph unicode="&#x1e85;" horiz-adv-x="1718" d="M547 1239v244h227v-244h-227zM940 1239v244h227v-244h-227zM1456 1073h260l-448 -1073h-230l-180 461l-176 -461h-231l-447 1073h258l320 -811l125 350l-187 459h228l110 -328l113 328h227l-186 -459l127 -350z" />
<glyph unicode="&#x1e8e;" horiz-adv-x="1351" d="M551 1616v258h248v-258h-248zM315 1454l359 -684l364 684h305l-528 -946v-508h-280v512l-527 942h307z" />
<glyph unicode="&#x1e8f;" horiz-adv-x="1126" d="M463 1237v258h248v-258h-248zM147 -209q78 -20 123 -20q56 0 90.5 47t75.5 182l-424 1073h285l289 -792l254 792h262l-451 -1286q-38 -114 -135 -185t-231 -71q-68 0 -138 23v237z" />
<glyph unicode="&#x1e92;" horiz-adv-x="1284" d="M61 213l811 993h-788v248h1124v-213l-784 -993h790v-248h-1153v213zM520 -408v258h248v-258h-248z" />
<glyph unicode="&#x1e93;" horiz-adv-x="1009" d="M53 168l592 713h-567v192h862v-168l-588 -712h598v-193h-897v168zM383 -408v258h248v-258h-248z" />
<glyph unicode="&#x1e97;" horiz-adv-x="786" d="M23 1620v244h227v-244h-227zM416 1620v244h227v-244h-227zM768 55q-164 -73 -303 -73q-59 0 -108 15t-88 45.5t-61 82.5t-22 121v616h-141v211h141v348h275v-348h225v-211h-225v-524q3 -105 102 -105q58 0 150 39z" />
<glyph unicode="&#x1e9e;" horiz-adv-x="1394" d="M954 639q65 -20 100.5 -31.5t83 -29.5t72 -33.5t52.5 -38.5t40.5 -48t21.5 -59t9 -75q0 -162 -110.5 -253t-302.5 -91q-138 0 -263 46t-211 132l97 178q183 -152 352 -152q80 0 127 29.5t47 85.5q0 35 -24.5 58.5t-53.5 35t-103 33.5q-5 2 -8.5 3t-8.5 2.5t-9 2.5 q-79 25 -130 45t-98.5 47t-73.5 57.5t-41 72.5t-15 96q0 83 33 147.5t95 107t139.5 69.5t178.5 42q-69 121 -250 121q-159 0 -237 -90t-78 -240v-909h-260v958q0 159 77.5 275t205 172.5t286.5 56.5q220 0 364.5 -108t176.5 -305l12 -78q-236 -40 -275 -48 q-169 -39 -202 -105q-10 -19 -10 -42q0 -51 44 -78t150 -59z" />
<glyph unicode="&#x1ea0;" horiz-adv-x="1376" d="M547 1454h287l534 -1454h-291l-135 362h-508l-133 -362h-291zM891 561l-201 600l-209 -600h410zM588 -408v258h248v-258h-248z" />
<glyph unicode="&#x1ea1;" horiz-adv-x="1175" d="M51 317q0 156 128 252.5t333 96.5q154 0 258 -43v57q0 103 -60.5 158t-179.5 55q-86 0 -164 -29.5t-171 -91.5l-89 180q215 140 453 140q230 0 357.5 -115t127.5 -328v-342q0 -44 15 -62.5t51 -21.5v-223q-69 -14 -117 -14q-79 0 -122.5 34.5t-53.5 92.5l-6 55 q-69 -89 -173.5 -138.5t-213.5 -49.5q-161 0 -267 96t-106 241zM719 262q51 51 51 94v109q-105 43 -215 43q-108 0 -176 -46.5t-68 -121.5q0 -65 52 -112.5t139 -47.5q61 0 119.5 22.5t97.5 59.5zM489 -408v258h248v-258h-248z" />
<glyph unicode="&#x1ea2;" horiz-adv-x="1376" d="M586 1786l-84 84q98 94 205 94q79 0 124.5 -43.5t45.5 -108.5q0 -58 -31 -107t-101 -106l-69 76q65 54 65 103q0 25 -15.5 41t-41.5 16t-45.5 -10.5t-52.5 -38.5zM547 1454h287l534 -1454h-291l-135 362h-508l-133 -362h-291zM891 561l-201 600l-209 -600h410z" />
<glyph unicode="&#x1ea3;" horiz-adv-x="1175" d="M453 1407l-84 84q98 94 204 94q79 0 124.5 -43t45.5 -108q0 -59 -31 -107.5t-100 -105.5l-69 75q65 54 65 103q0 25 -15.5 41t-41.5 16t-45.5 -10.5t-52.5 -38.5zM51 317q0 156 128 252.5t333 96.5q154 0 258 -43v57q0 103 -60.5 158t-179.5 55q-86 0 -164 -29.5 t-171 -91.5l-89 180q215 140 453 140q230 0 357.5 -115t127.5 -328v-342q0 -44 15 -62.5t51 -21.5v-223q-69 -14 -117 -14q-79 0 -122.5 34.5t-53.5 92.5l-6 55q-69 -89 -173.5 -138.5t-213.5 -49.5q-161 0 -267 96t-106 241zM719 262q51 51 51 94v109q-105 43 -215 43 q-108 0 -176 -46.5t-68 -121.5q0 -65 52 -112.5t139 -47.5q61 0 119.5 22.5t97.5 59.5z" />
<glyph unicode="&#x1ea4;" horiz-adv-x="1376" d="M1063 1776l-176 53l110 244h256zM358 1640l217 207h199l217 -207l-141 -65l-174 129l-174 -129zM547 1454h287l534 -1454h-291l-135 362h-508l-133 -362h-291zM891 561l-201 600l-209 -600h410z" />
<glyph unicode="&#x1ea5;" horiz-adv-x="1175" d="M930 1397l-176 53l110 244h256zM225 1262l217 206h199l217 -206l-141 -66l-174 129l-174 -129zM51 317q0 156 128 252.5t333 96.5q154 0 258 -43v57q0 103 -60.5 158t-179.5 55q-86 0 -164 -29.5t-171 -91.5l-89 180q215 140 453 140q230 0 357.5 -115t127.5 -328v-342 q0 -44 15 -62.5t51 -21.5v-223q-69 -14 -117 -14q-79 0 -122.5 34.5t-53.5 92.5l-6 55q-69 -89 -173.5 -138.5t-213.5 -49.5q-161 0 -267 96t-106 241zM719 262q51 51 51 94v109q-105 43 -215 43q-108 0 -176 -46.5t-68 -121.5q0 -65 52 -112.5t139 -47.5q61 0 119.5 22.5 t97.5 59.5z" />
<glyph unicode="&#x1ea6;" horiz-adv-x="1376" d="M109 2058h253l113 -243l-176 -54zM373 1640l217 207h198l218 -207l-142 -65l-174 129l-174 -129zM547 1454h287l534 -1454h-291l-135 362h-508l-133 -362h-291zM891 561l-201 600l-209 -600h410z" />
<glyph unicode="&#x1ea7;" horiz-adv-x="1175" d="M-25 1679h254l113 -243l-176 -54zM240 1262l217 206h198l217 -206l-141 -66l-174 129l-174 -129zM51 317q0 156 128 252.5t333 96.5q154 0 258 -43v57q0 103 -60.5 158t-179.5 55q-86 0 -164 -29.5t-171 -91.5l-89 180q215 140 453 140q230 0 357.5 -115t127.5 -328v-342 q0 -44 15 -62.5t51 -21.5v-223q-69 -14 -117 -14q-79 0 -122.5 34.5t-53.5 92.5l-6 55q-69 -89 -173.5 -138.5t-213.5 -49.5q-161 0 -267 96t-106 241zM719 262q51 51 51 94v109q-105 43 -215 43q-108 0 -176 -46.5t-68 -121.5q0 -65 52 -112.5t139 -47.5q61 0 119.5 22.5 t97.5 59.5z" />
<glyph unicode="&#x1ea8;" horiz-adv-x="1376" d="M864 1909l-84 84q98 94 205 94q79 0 124.5 -43.5t45.5 -108.5q0 -59 -31 -107.5t-100 -105.5l-70 76q66 55 66 103q0 25 -15.5 41t-41.5 16t-46 -10.5t-53 -38.5zM350 1640l217 207h199l217 -207l-141 -65l-174 129l-174 -129zM547 1454h287l534 -1454h-291l-135 362 h-508l-133 -362h-291zM891 561l-201 600l-209 -600h410z" />
<glyph unicode="&#x1ea9;" horiz-adv-x="1175" d="M731 1530l-84 84q98 94 205 94q79 0 124.5 -43.5t45.5 -108.5q0 -59 -31 -107.5t-100 -105.5l-70 76q66 55 66 103q0 25 -16 41t-42 16t-45.5 -10.5t-52.5 -38.5zM217 1262l217 206h199l217 -206l-141 -66l-174 129l-175 -129zM51 317q0 156 128 252.5t333 96.5 q154 0 258 -43v57q0 103 -60.5 158t-179.5 55q-86 0 -164 -29.5t-171 -91.5l-89 180q215 140 453 140q230 0 357.5 -115t127.5 -328v-342q0 -44 15 -62.5t51 -21.5v-223q-69 -14 -117 -14q-79 0 -122.5 34.5t-53.5 92.5l-6 55q-69 -89 -173.5 -138.5t-213.5 -49.5 q-161 0 -267 96t-106 241zM719 262q51 51 51 94v109q-105 43 -215 43q-108 0 -176 -46.5t-68 -121.5q0 -65 52 -112.5t139 -47.5q61 0 119.5 22.5t97.5 59.5z" />
<glyph unicode="&#x1eaa;" horiz-adv-x="1376" d="M547 2001q-26 0 -45.5 -10t-29 -22.5t-15.5 -28.5t-7 -24.5t-1 -12.5h-152q0 18 7.5 47t25.5 67t44 70.5t69 55t94 22.5q53 0 100 -24.5t88.5 -48.5t81.5 -24q28 0 49 10t31.5 23.5t17.5 30t8.5 25.5t1.5 14h152q0 -14 -7.5 -42t-27 -66.5t-46.5 -72.5t-72 -57.5 t-99 -23.5q-52 0 -100 23t-89.5 46t-78.5 23zM358 1638l217 207h199l217 -207l-141 -65l-174 129l-174 -129zM547 1454h287l534 -1454h-291l-135 362h-508l-133 -362h-291zM891 561l-201 600l-209 -600h410z" />
<glyph unicode="&#x1eab;" horiz-adv-x="1175" d="M414 1622q-26 0 -45.5 -10t-29 -22.5t-15.5 -28.5t-7.5 -24.5t-1.5 -12.5h-151q0 24 13 63.5t38.5 86t75 79.5t112.5 33q53 0 100 -24t89 -48t82 -24q28 0 49 10t31.5 23.5t17.5 29.5t8.5 25t1.5 14h152q0 -14 -7.5 -42t-27 -66.5t-46.5 -72.5t-72 -57.5t-99 -23.5 q-52 0 -100 23t-89.5 46t-78.5 23zM225 1260l217 206h199l217 -206l-141 -66l-174 129l-174 -129zM51 317q0 156 128 252.5t333 96.5q154 0 258 -43v57q0 103 -60.5 158t-179.5 55q-86 0 -164 -29.5t-171 -91.5l-89 180q215 140 453 140q230 0 357.5 -115t127.5 -328v-342 q0 -44 15 -62.5t51 -21.5v-223q-69 -14 -117 -14q-79 0 -122.5 34.5t-53.5 92.5l-6 55q-69 -89 -173.5 -138.5t-213.5 -49.5q-161 0 -267 96t-106 241zM719 262q51 51 51 94v109q-105 43 -215 43q-108 0 -176 -46.5t-68 -121.5q0 -65 52 -112.5t139 -47.5q61 0 119.5 22.5 t97.5 59.5z" />
<glyph unicode="&#x1eac;" horiz-adv-x="1376" d="M373 1667l217 207h198l218 -207l-142 -65l-174 129l-174 -129zM547 1454h287l534 -1454h-291l-135 362h-508l-133 -362h-291zM891 561l-201 600l-209 -600h410zM588 -408v258h248v-258h-248z" />
<glyph unicode="&#x1ead;" horiz-adv-x="1175" d="M240 1288l217 207h198l217 -207l-141 -65l-174 129l-174 -129zM51 317q0 156 128 252.5t333 96.5q154 0 258 -43v57q0 103 -60.5 158t-179.5 55q-86 0 -164 -29.5t-171 -91.5l-89 180q215 140 453 140q230 0 357.5 -115t127.5 -328v-342q0 -44 15 -62.5t51 -21.5v-223 q-69 -14 -117 -14q-79 0 -122.5 34.5t-53.5 92.5l-6 55q-69 -89 -173.5 -138.5t-213.5 -49.5q-161 0 -267 96t-106 241zM719 262q51 51 51 94v109q-105 43 -215 43q-108 0 -176 -46.5t-68 -121.5q0 -65 52 -112.5t139 -47.5q61 0 119.5 22.5t97.5 59.5zM489 -408v258h248 v-258h-248z" />
<glyph unicode="&#x1eae;" horiz-adv-x="1376" d="M772 1864l-176 53l111 244h256zM805 1841h145q0 -119 -75.5 -196.5t-192.5 -77.5t-192.5 77.5t-75.5 196.5h147q0 -61 36.5 -106t84.5 -45q46 0 81.5 43t41.5 108zM547 1454h287l534 -1454h-291l-135 362h-508l-133 -362h-291zM891 561l-201 600l-209 -600h410z" />
<glyph unicode="&#x1eaf;" horiz-adv-x="1175" d="M639 1485l-176 53l110 244h256zM672 1462h145q0 -119 -75.5 -196.5t-192.5 -77.5t-192.5 77.5t-75.5 196.5h147q0 -61 36.5 -106t84.5 -45q46 0 81.5 43t41.5 108zM51 317q0 156 128 252.5t333 96.5q154 0 258 -43v57q0 103 -60.5 158t-179.5 55q-86 0 -164 -29.5 t-171 -91.5l-89 180q215 140 453 140q230 0 357.5 -115t127.5 -328v-342q0 -44 15 -62.5t51 -21.5v-223q-69 -14 -117 -14q-79 0 -122.5 34.5t-53.5 92.5l-6 55q-69 -89 -173.5 -138.5t-213.5 -49.5q-161 0 -267 96t-106 241zM719 262q51 51 51 94v109q-105 43 -215 43 q-108 0 -176 -46.5t-68 -121.5q0 -65 52 -112.5t139 -47.5q61 0 119.5 22.5t97.5 59.5z" />
<glyph unicode="&#x1eb0;" horiz-adv-x="1376" d="M414 2173h254l112 -244l-176 -53zM797 1841h145q0 -119 -75.5 -196.5t-192.5 -77.5t-192.5 77.5t-75.5 196.5h147q0 -61 36.5 -106t84.5 -45q46 0 81.5 43t41.5 108zM547 1454h287l534 -1454h-291l-135 362h-508l-133 -362h-291zM891 561l-201 600l-209 -600h410z" />
<glyph unicode="&#x1eb1;" horiz-adv-x="1175" d="M281 1794h254l112 -244l-176 -53zM664 1462h145q0 -119 -75.5 -196.5t-192.5 -77.5t-193 77.5t-76 196.5h148q0 -61 36.5 -106t84.5 -45q46 0 81.5 43t41.5 108zM51 317q0 156 128 252.5t333 96.5q154 0 258 -43v57q0 103 -60.5 158t-179.5 55q-86 0 -164 -29.5 t-171 -91.5l-89 180q215 140 453 140q230 0 357.5 -115t127.5 -328v-342q0 -44 15 -62.5t51 -21.5v-223q-69 -14 -117 -14q-79 0 -122.5 34.5t-53.5 92.5l-6 55q-69 -89 -173.5 -138.5t-213.5 -49.5q-161 0 -267 96t-106 241zM719 262q51 51 51 94v109q-105 43 -215 43 q-108 0 -176 -46.5t-68 -121.5q0 -65 52 -112.5t139 -47.5q61 0 119.5 22.5t97.5 59.5z" />
<glyph unicode="&#x1eb2;" horiz-adv-x="1376" d="M541 2015l-84 84q98 94 205 94q79 0 124 -43t45 -108q0 -59 -31 -107.5t-100 -105.5l-69 76q65 54 65 102q0 25 -15.5 41t-41.5 16t-45.5 -10.5t-52.5 -38.5zM815 1845h146q0 -119 -76 -196.5t-193 -77.5t-192.5 77.5t-75.5 196.5h147q0 -61 36.5 -106t84.5 -45 q46 0 81.5 43t41.5 108zM547 1454h287l534 -1454h-291l-135 362h-508l-133 -362h-291zM891 561l-201 600l-209 -600h410z" />
<glyph unicode="&#x1eb3;" horiz-adv-x="1175" d="M408 1636l-84 84q100 95 204 95q79 0 124.5 -43.5t45.5 -108.5q0 -59 -31 -107.5t-100 -105.5l-69 76q65 54 65 102q0 25 -15.5 41.5t-41.5 16.5t-45 -10.5t-53 -39.5zM682 1466h145q0 -119 -75.5 -196.5t-192.5 -77.5t-192.5 77.5t-75.5 196.5h147q0 -61 36.5 -106 t84.5 -45q46 0 81.5 43t41.5 108zM51 317q0 156 128 252.5t333 96.5q154 0 258 -43v57q0 103 -60.5 158t-179.5 55q-86 0 -164 -29.5t-171 -91.5l-89 180q215 140 453 140q230 0 357.5 -115t127.5 -328v-342q0 -44 15 -62.5t51 -21.5v-223q-69 -14 -117 -14 q-79 0 -122.5 34.5t-53.5 92.5l-6 55q-69 -89 -173.5 -138.5t-213.5 -49.5q-161 0 -267 96t-106 241zM719 262q51 51 51 94v109q-105 43 -215 43q-108 0 -176 -46.5t-68 -121.5q0 -65 52 -112.5t139 -47.5q61 0 119.5 22.5t97.5 59.5z" />
<glyph unicode="&#x1eb4;" horiz-adv-x="1376" d="M514 2011q-26 0 -45.5 -10t-29 -22.5t-15.5 -28.5t-7 -24.5t-1 -12.5h-152q0 18 7.5 47t25.5 67t44 70.5t69 55t94 22.5q42 0 81 -15t64 -33t59 -33t66 -15q28 0 49 10t32 23.5t18 29.5t8.5 25t1.5 14h151q0 -14 -7.5 -42t-27 -66.5t-46.5 -72.5t-72 -57.5t-99 -23.5 q-52 0 -100 23t-89.5 46t-78.5 23zM772 1843h146q0 -119 -76 -196.5t-193 -77.5t-192.5 77.5t-75.5 196.5h147q0 -61 36.5 -106t84.5 -45q46 0 81.5 43t41.5 108zM547 1454h287l534 -1454h-291l-135 362h-508l-133 -362h-291zM891 561l-201 600l-209 -600h410z" />
<glyph unicode="&#x1eb5;" horiz-adv-x="1175" d="M381 1632q-26 0 -45.5 -10t-29 -22.5t-15.5 -28.5t-7 -24.5t-1 -12.5h-152q0 18 7.5 47t25.5 67t44 70.5t69 55t94 22.5q42 0 81 -15t64 -33t59 -33t66 -15q28 0 49 10t32 23.5t18 29.5t8.5 25t1.5 14h151q0 -14 -7.5 -42t-27 -66.5t-46.5 -72.5t-72 -57.5t-99 -23.5 q-52 0 -100 23t-89.5 46t-78.5 23zM639 1464h145q0 -119 -75.5 -196.5t-192.5 -77.5t-192.5 77.5t-75.5 196.5h147q0 -61 36.5 -106t84.5 -45q46 0 81.5 43t41.5 108zM51 317q0 156 128 252.5t333 96.5q154 0 258 -43v57q0 103 -60.5 158t-179.5 55q-86 0 -164 -29.5 t-171 -91.5l-89 180q215 140 453 140q230 0 357.5 -115t127.5 -328v-342q0 -44 15 -62.5t51 -21.5v-223q-69 -14 -117 -14q-79 0 -122.5 34.5t-53.5 92.5l-6 55q-69 -89 -173.5 -138.5t-213.5 -49.5q-161 0 -267 96t-106 241zM719 262q51 51 51 94v109q-105 43 -215 43 q-108 0 -176 -46.5t-68 -121.5q0 -65 52 -112.5t139 -47.5q61 0 119.5 22.5t97.5 59.5z" />
<glyph unicode="&#x1eb6;" horiz-adv-x="1376" d="M813 1874h145q0 -119 -75.5 -197t-192.5 -78t-192.5 78t-75.5 197h147q0 -61 36.5 -106.5t84.5 -45.5q46 0 81.5 43.5t41.5 108.5zM547 1454h287l534 -1454h-291l-135 362h-508l-133 -362h-291zM891 561l-201 600l-209 -600h410zM588 -408v258h248v-258h-248z" />
</font>
</defs>
</svg>
