<?xml version="1.0" standalone="no"?>
<!DOCTYPE svg PUBLIC "-//W3C//DTD SVG 1.1//EN" "http://www.w3.org/Graphics/SVG/1.1/DTD/svg11.dtd" >
<svg xmlns="http://www.w3.org/2000/svg" xmlns:xlink="http://www.w3.org/1999/xlink" version="1.1">
<metadata></metadata>
<defs>
<font id="rawlinelight_italic" horiz-adv-x="1482" >
<font-face units-per-em="2048" ascent="1638" descent="-410" />
<missing-glyph horiz-adv-x="514" />
<glyph unicode="fi" horiz-adv-x="950" d="M272 981h-141l19 84h143l6 35q14 74 49 145t88 133t130 100t165 38q92 0 159.5 -28.5t96.5 -57.5l-67 -72q-23 28 -78.5 46.5t-124.5 18.5q-63 0 -118.5 -28.5t-94.5 -76t-65 -102.5t-38 -114l-6 -37h496l-227 -1065h-103l209 981h-395l-207 -981h-102z" />
<glyph unicode="fl" horiz-adv-x="1097" d="M651 129q0 28 8 61l215 1012q9 40 9 58q0 71 -44 117t-139 46q-116 0 -194 -94t-105 -231l-6 -33h221l-18 -84h-223l-207 -981h-102l206 981h-141l19 84h143l8 41q37 183 145.5 296.5t272.5 113.5q132 0 201 -61t69 -163q0 -37 -8 -73l-215 -1010q-4 -20 -4 -31 q0 -40 22.5 -68t65.5 -28q14 0 31.5 2t32.5 5t28.5 6t21.5 5l9 2l2 -86q-1 -2 -26.5 -8.5t-68 -13t-79.5 -6.5q-71 0 -110.5 39.5t-39.5 101.5z" />
<glyph unicode="&#xd;" horiz-adv-x="0" />
<glyph unicode=" "  horiz-adv-x="514" />
<glyph unicode="&#x09;" horiz-adv-x="514" />
<glyph unicode="&#xa0;" horiz-adv-x="514" />
<glyph unicode="!" horiz-adv-x="489" d="M158 446l215 1022h104l-217 -1022h-102zM61 0l45 209h109l-49 -209h-105z" />
<glyph unicode="&#x22;" horiz-adv-x="530" d="M242 1106l75 356h93l-78 -356h-90zM397 1106l76 356h92l-76 -356h-92z" />
<glyph unicode="#" horiz-adv-x="1312" d="M1307 954h-244l-191 -436h261l-17 -84h-282l-191 -434h-90l195 434h-402l-190 -434h-90l192 434h-219l18 84h242l188 436h-256l19 80h276l185 420h90l-189 -420h402l184 420h90l-188 -420h225zM784 518l191 436h-400l-190 -436h399z" />
<glyph unicode="$" horiz-adv-x="1212" d="M1130 1212q-96 155 -331 158l-127 -594q2 -2 6 -2q102 -24 170 -48.5t126 -62.5t85.5 -92t27.5 -127q0 -215 -159.5 -334.5t-417.5 -121.5l-41 -191h-61l41 193q-284 15 -451 215l74 84q61 -90 163.5 -144t237.5 -63l129 602q-98 22 -163 45.5t-118 58t-77.5 83 t-24.5 114.5q0 210 151.5 338.5t391.5 140.5l45 205h61l-45 -205q251 -6 377 -170zM332 1016q0 -92 67.5 -141.5t223.5 -88.5l125 584q-210 -9 -313 -105t-103 -249zM973 414q0 101 -77.5 158.5t-244.5 99.5l-127 -592q208 0 328.5 87.5t120.5 246.5z" />
<glyph unicode="%" horiz-adv-x="1376" d="M203 1133q0 136 108.5 239t243.5 103q101 0 165 -68.5t64 -171.5q0 -135 -108.5 -237.5t-243.5 -102.5q-101 0 -165 68.5t-64 169.5zM-2 43l680 688l698 729l47 -47l-706 -721l-672 -698zM702 1227q0 77 -46 129.5t-115 52.5q-97 0 -176.5 -82.5t-79.5 -183.5 q0 -78 45 -130t116 -52q97 0 176.5 82t79.5 184zM639 219q0 88 51 167.5t132.5 126t168.5 46.5q100 0 164 -68t64 -169q0 -136 -108 -239t-243 -103q-100 0 -164.5 68.5t-64.5 170.5zM1139 309q0 77 -46.5 131t-115.5 54q-97 0 -177.5 -82.5t-80.5 -184.5q0 -78 45.5 -130 t116.5 -52q97 0 177.5 81.5t80.5 182.5z" />
<glyph unicode="&#x26;" horiz-adv-x="1372" d="M1323 766h-201q-65 -260 -204 -453l219 -313h-133l-156 225q-102 -117 -223 -181t-244 -64q-151 0 -246.5 94t-95.5 243q0 152 99.5 272.5t297.5 237.5q-63 98 -90 165t-27 124q0 144 125 250.5t291 106.5q109 0 195.5 -57.5t130.5 -158.5l-72 -63q-36 90 -108 143.5 t-162 53.5q-119 0 -211 -79.5t-92 -181.5q0 -100 127 -280l323 -463q129 203 178 465h297zM401 68q104 0 207.5 59.5t192.5 167.5l-314 457l-4 6q-173 -103 -257.5 -205t-84.5 -223q0 -119 72.5 -190.5t187.5 -71.5z" />
<glyph unicode="'" horiz-adv-x="372" d="M242 1104l75 358h93l-78 -358h-90z" />
<glyph unicode="(" horiz-adv-x="512" d="M553 1503l70 -41q-73 -87 -141 -186t-137 -222.5t-110.5 -257.5t-41.5 -251q0 -133 29 -287.5t83 -280.5l-84 -45q-60 137 -93.5 295.5t-33.5 300.5q0 106 25 212.5t62 194t103 193t123 183.5t146 192z" />
<glyph unicode=")" horiz-adv-x="512" d="M2 -68l-68 45q424 497 424 891q0 151 -32.5 320.5t-77.5 273.5l88 41q123 -334 123 -616q0 -161 -59.5 -326t-155 -310.5t-242.5 -318.5z" />
<glyph unicode="*" horiz-adv-x="626" d="M283 1133l108 122l-121 45l31 60l123 -49l27 147h69l-35 -147l146 49l2 -60l-139 -45l57 -122l-62 -37l-53 125l-110 -125z" />
<glyph unicode="+" horiz-adv-x="845" d="M756 770v-86h-267v-289h-94v289h-268v86h268v289h94v-289h267z" />
<glyph unicode="," horiz-adv-x="423" d="M31 -166l63 162h-37l37 178h105l-39 -178l-74 -162h-55z" />
<glyph unicode="-" horiz-adv-x="829" d="M111 510l20 94h561l-20 -94h-561z" />
<glyph unicode="." horiz-adv-x="362" d="M8 0l39 174h88l-37 -174h-90z" />
<glyph unicode="/" horiz-adv-x="1175" d="M1282 1454l-1219 -1454h-116l1218 1454h117z" />
<glyph unicode="0" horiz-adv-x="1335" d="M104 561q0 100 27 207t75.5 205t118 186.5t150 153.5t177 103t194.5 38q88 0 160.5 -35t121 -92.5t81.5 -134t48 -157.5t15 -165q0 -101 -27 -207.5t-75 -204.5t-117 -186t-149.5 -152.5t-177 -102t-194.5 -37.5q-108 0 -193 51.5t-134.5 136.5t-75 185t-25.5 208z M1165 860q0 95 -21 182.5t-61.5 159t-107.5 114t-150 42.5q-104 0 -201.5 -52.5t-170 -139t-128 -192.5t-84 -218t-28.5 -211q0 -76 12 -143.5t38.5 -127.5t65 -103.5t96 -69t128.5 -25.5q103 0 200 51t170 134t128.5 185.5t84.5 210.5t29 203z" />
<glyph unicode="1" horiz-adv-x="768" d="M18 94h261l266 1258q-46 -53 -158 -114.5t-184 -61.5l20 96q38 0 87.5 20t92.5 48.5t82 58.5t61 50t25 24h105l-293 -1379h246l-21 -94h-610z" />
<glyph unicode="2" horiz-adv-x="1120" d="M492 662q31 13 86 34t90 34.5t84.5 37t81.5 45t68 54t56.5 67.5t34 83.5t13.5 104.5q0 110 -66.5 182t-198.5 72q-74 0 -145.5 -22t-128.5 -59t-96 -70t-72 -70l-55 64q15 17 36 38.5t74.5 62.5t110.5 72.5t140.5 56t168.5 24.5q169 0 257.5 -95.5t88.5 -238.5 q0 -77 -19.5 -142t-57 -114t-80 -86.5t-102.5 -69.5t-108.5 -54t-112.5 -48q-42 -17 -62 -25q-99 -40 -175.5 -90t-125 -98.5t-82.5 -105.5t-51 -106t-27 -106h788l-18 -94h-918q20 112 55.5 204t81.5 160.5t108 125t128.5 96.5t149.5 76z" />
<glyph unicode="3" horiz-adv-x="1140" d="M35 336l78 47q0 -141 90 -223t243 -82q175 0 307 102t132 248q0 125 -105 195.5t-291 70.5h-65l18 92h68q225 0 353 86.5t128 241.5q0 122 -79 193t-212 71q-123 0 -232 -60.5t-167 -156.5l-61 66q74 113 207.5 179.5t277.5 66.5q169 0 273 -96t104 -249 q0 -141 -91.5 -242.5t-260.5 -142.5q112 -24 176.5 -107.5t64.5 -197.5q0 -129 -82 -235.5t-210 -163.5t-269 -57q-178 0 -286.5 94t-108.5 260z" />
<glyph unicode="4" horiz-adv-x="1103" d="M625 0l86 406h-701l21 90l934 958h71l-202 -954h172l-21 -94h-172l-86 -406h-102zM739 500l168 790l-762 -790h594z" />
<glyph unicode="5" horiz-adv-x="1097" d="M14 266l84 43q31 -107 115.5 -171t200.5 -64q118 0 223 59t170 164.5t65 230.5q0 133 -78.5 216t-205.5 83q-98 0 -195 -47t-170 -131h-98l324 805h663l-20 -96h-586l-227 -576q147 138 337 138q161 0 262 -104t101 -269q0 -120 -50 -227t-131.5 -180.5t-187 -116.5 t-215.5 -43q-146 0 -247 77.5t-134 208.5z" />
<glyph unicode="6" horiz-adv-x="1198" d="M1090 567q0 173 -106 289.5t-275 116.5q-138 0 -266.5 -81.5t-202.5 -213.5q71 326 220 510t331 184q115 0 193 -67.5t93 -178.5l82 56q-23 130 -116 206t-230 76q-155 0 -290 -86.5t-227 -230t-145 -332t-53 -389.5q0 -206 104.5 -326t282.5 -120q114 0 224.5 47.5 t194 126.5t135 188t51.5 225zM199 408q0 123 70 234t181.5 177t229.5 66q133 0 220 -97.5t87 -238.5q0 -124 -69.5 -235.5t-180 -176.5t-229.5 -65q-135 0 -222 97t-87 239z" />
<glyph unicode="7" horiz-adv-x="995" d="M975 1358h-770l18 96h938l-1014 -1454h-114z" />
<glyph unicode="8" horiz-adv-x="1157" d="M438 -14q-177 0 -282 100.5t-105 249.5q0 82 34.5 157.5t90.5 130.5t121 94.5t133 61.5q-80 34 -131 102.5t-51 157.5q0 76 31 143.5t82.5 116t118 84t138 53t140.5 17.5q145 0 250.5 -81.5t105.5 -219.5q0 -130 -92 -227t-227 -146q99 -38 160 -122t61 -195 q0 -103 -49.5 -194t-131 -152t-185.5 -96t-212 -35zM621 819q63 0 130 21.5t125 60.5t95 100.5t37 133.5q0 102 -79 163.5t-194 61.5q-95 0 -182 -37.5t-145 -111t-58 -164.5q0 -103 82.5 -165.5t188.5 -62.5zM600 735q-75 0 -153.5 -29t-143 -78t-106 -122.5t-41.5 -155.5 q0 -123 93 -198.5t216 -75.5q75 0 153.5 28t144 77t107 122.5t41.5 155.5q0 83 -45.5 147.5t-115.5 96.5t-150 32z" />
<glyph unicode="9" horiz-adv-x="1198" d="M535 471q138 0 267.5 81.5t201.5 213.5q-71 -326 -219 -509t-332 -183q-114 0 -193 66.5t-94 176.5l-82 -55q25 -131 118.5 -206.5t229.5 -75.5q124 0 236.5 56t198 155t149 229.5t96.5 284t33 313.5q0 207 -104 326.5t-283 119.5q-114 0 -224.5 -47.5t-194 -126.5 t-134.5 -188t-51 -225q0 -172 106.5 -289t274.5 -117zM1047 1036q0 -122 -70.5 -233.5t-182.5 -177.5t-229 -66q-134 0 -220.5 98t-86.5 240q0 124 69.5 235t180.5 176.5t229 65.5q135 0 222.5 -98t87.5 -240z" />
<glyph unicode=":" horiz-adv-x="356" d="M188 885l39 174h88l-36 -174h-91zM2 0l37 174h88l-37 -174h-88z" />
<glyph unicode=";" horiz-adv-x="366" d="M193 885l36 174h90l-38 -174h-88zM-25 -166l64 162h-37l39 178h102l-39 -178l-73 -162h-56z" />
<glyph unicode="&#x3c;" horiz-adv-x="1114" d="M63 559l857 514v-110l-709 -433l709 -432v-112l-857 512v61z" />
<glyph unicode="=" horiz-adv-x="950" d="M158 627v78h610v-78h-610zM158 426v78h610v-78h-610z" />
<glyph unicode="&#x3e;" horiz-adv-x="1112" d="M1014 498l-858 -512v112l708 432l-708 433v110l858 -514v-61z" />
<glyph unicode="?" horiz-adv-x="931" d="M268 395q32 151 89 232t153 131q20 11 56 28t60.5 29t58 32t56.5 39t48 47.5t40 59t25 72.5t10 90q0 111 -65 170t-164 59q-106 0 -208.5 -61.5t-168.5 -159.5l-65 45q80 124 207 194.5t255 70.5q130 0 218 -80t88 -226q0 -43 -6 -81t-14 -68t-26 -59.5t-31 -49 t-40 -42.5t-42.5 -35.5t-50 -32.5t-50.5 -28.5t-55.5 -28.5t-53.5 -27q-36 -19 -59 -32.5t-53 -40t-50 -57t-39.5 -79.5t-32.5 -111h-90zM186 0l43 201h88l-41 -201h-90z" />
<glyph unicode="@" horiz-adv-x="1636" d="M1446 616q0 156 -63 282.5t-184 202t-279 75.5q-150 0 -297 -69t-259 -183t-181.5 -271.5t-69.5 -322.5q0 -162 64 -291.5t182.5 -204t271.5 -74.5q150 0 309 78l12 -55q-178 -82 -342 -82q-120 0 -224.5 47.5t-177.5 129.5t-115 197.5t-42 248.5q0 182 78 353t202 292 t283 193.5t318 72.5q127 0 235.5 -47t182.5 -128t115.5 -192t41.5 -237q0 -82 -16.5 -172t-51 -177.5t-81 -158t-112 -113.5t-138.5 -43q-119 0 -119 129q0 43 6 66q-71 -68 -161.5 -109t-176.5 -41q-138 0 -221.5 103t-83.5 262q0 142 68 269.5t182 204.5t240 77 q99 0 169 -50t103 -137l37 181h74l-154 -719q-12 -54 -12 -90q0 -82 74 -82q83 0 157 93t115 228t41 264zM1022 307l68 346q-29 99 -95.5 152t-156.5 53q-101 0 -196 -63.5t-154.5 -172t-59.5 -229.5q0 -136 72.5 -223.5t185.5 -87.5q100 0 199.5 66.5t136.5 158.5z" />
<glyph unicode="A" horiz-adv-x="1329" d="M807 1454h90l272 -1454h-110l-90 479h-654l-290 -479h-113zM961 565l-136 762l-467 -762h603z" />
<glyph unicode="B" horiz-adv-x="1302" d="M365 1454h647q115 0 180 -87.5t65 -209.5q0 -131 -78 -245t-202 -167q89 -30 138.5 -110.5t49.5 -185.5q0 -91 -39.5 -175t-103.5 -143.5t-147.5 -95t-169.5 -35.5h-650zM827 778q125 0 224.5 109t99.5 243q0 99 -50.5 164.5t-137.5 65.5h-514l-123 -582h501zM723 94 q127 0 232.5 110.5t105.5 244.5q0 101 -54 171t-143 70h-557l-127 -596h543z" />
<glyph unicode="C" horiz-adv-x="1349" d="M100 590q0 123 38 248t112 236.5t172 198.5t227 138t269 51q186 0 300 -86.5t150 -230.5l-90 -45q-77 266 -373 266q-124 0 -236 -45.5t-195 -123t-144.5 -176.5t-93 -208.5t-31.5 -216.5q0 -139 51 -254t152 -186.5t235 -71.5q133 0 268.5 72t231.5 213l82 -43 q-103 -162 -268.5 -250t-331.5 -88q-124 0 -225.5 51.5t-166 137t-99 192t-34.5 221.5z" />
<glyph unicode="D" horiz-adv-x="1409" d="M365 1454h460q131 0 233.5 -42.5t165.5 -118.5t95.5 -175.5t32.5 -218.5q0 -255 -108 -460.5t-299.5 -322t-428.5 -116.5h-461zM537 94q128 0 241 42t197 116t145 173t92 215.5t31 240.5q0 217 -113 348t-325 131h-356l-269 -1266h357z" />
<glyph unicode="E" horiz-adv-x="1196" d="M365 1454h903l-19 -94h-800l-121 -572h698l-20 -90h-697l-129 -604h817l-20 -94h-922z" />
<glyph unicode="F" horiz-adv-x="1183" d="M365 1454h901l-21 -94h-796l-121 -578h673l-18 -90h-676l-147 -692h-105z" />
<glyph unicode="G" horiz-adv-x="1406" d="M893 623l18 84h402l-150 -707h-92l49 225q-250 -235 -512 -235q-95 0 -177.5 33.5t-142.5 91.5t-103 135t-64 166.5t-21 183.5q0 130 42 258.5t118.5 236.5t177 191.5t225.5 130.5t255 47q190 0 302.5 -85t149.5 -232l-94 -51q-75 272 -375 272q-115 0 -223.5 -43.5 t-192.5 -118.5t-148 -171.5t-98 -208t-34 -222.5q0 -105 31 -199.5t86 -165t138 -112t181 -41.5q243 0 504 258l59 279h-311z" />
<glyph unicode="H" horiz-adv-x="1445" d="M365 1454h104l-141 -663h864l141 663h105l-310 -1454h-104l147 696h-862l-149 -696h-105z" />
<glyph unicode="I" horiz-adv-x="477" d="M365 1452h104l-309 -1452h-105z" />
<glyph unicode="J" horiz-adv-x="950" d="M-72 68l52 84q95 -80 253 -80q63 0 115 15t92 41t74 71t58.5 93t48 120t40.5 140t37 163l158 737h105l-158 -737q-23 -108 -42.5 -185t-47.5 -159.5t-58.5 -138t-73.5 -107.5t-94.5 -82t-120 -48t-151.5 -18q-169 0 -287 91z" />
<glyph unicode="K" horiz-adv-x="1241" d="M365 1452h104l-188 -881l987 883h121l-709 -637l428 -817h-117l-389 754l-346 -305l-96 -449h-105z" />
<glyph unicode="L" horiz-adv-x="1136" d="M365 1454h104l-289 -1360h821l-20 -94h-926z" />
<glyph unicode="M" horiz-adv-x="1724" d="M365 1454h104l350 -1040l795 1040h102l-309 -1454h-104l268 1257l-748 -981h-65l-330 981l-268 -1257h-105z" />
<glyph unicode="N" horiz-adv-x="1517" d="M365 1454h81l689 -1280l270 1278h104l-309 -1452h-92l-680 1257l-268 -1257h-105z" />
<glyph unicode="O" d="M98 586q0 169 67.5 331t178 281.5t261 192.5t308.5 73q102 0 188 -33t146 -90t101.5 -133.5t61.5 -163.5t20 -180q0 -224 -113 -426.5t-301.5 -325t-399.5 -122.5q-127 0 -228 49.5t-163 133.5t-94.5 189.5t-32.5 223.5zM1323 858q0 103 -26.5 194t-78 162t-134.5 112.5 t-189 41.5q-140 0 -269.5 -67.5t-220.5 -176t-145.5 -248.5t-54.5 -282q0 -103 26.5 -193.5t78 -161.5t135.5 -112t190 -41q141 0 270 67.5t219.5 176t144.5 248t54 280.5z" />
<glyph unicode="P" horiz-adv-x="1224" d="M365 1454h561q99 0 175 -54t113 -137.5t37 -179.5q0 -129 -67 -252.5t-183 -202.5t-247 -79h-478l-116 -549h-105zM770 645q100 0 188 65t137.5 164.5t49.5 202.5q0 119 -67 201t-171 82h-458l-152 -715h473z" />
<glyph unicode="Q" horiz-adv-x="1480" d="M1430 864q0 -196 -87 -376t-235 -306l106 -182h-108l-74 125q-198 -135 -416 -135q-127 0 -228 49.5t-163 133.5t-94.5 189.5t-32.5 223.5q0 169 67.5 331t178 281.5t261 192.5t308.5 73q102 0 188 -33t146 -90t101.5 -133.5t61.5 -163.5t20 -180zM635 86q186 0 352 117 l-127 219h107l94 -160q121 115 191.5 273.5t70.5 322.5q0 103 -26.5 194t-78 162t-134.5 112.5t-189 41.5q-140 0 -269.5 -67.5t-220.5 -176t-145.5 -248.5t-54.5 -282q0 -103 26.5 -193.5t78 -161.5t135.5 -112t190 -41z" />
<glyph unicode="R" horiz-adv-x="1277" d="M55 0l310 1454h577q96 0 170 -54t111 -138t37 -181q0 -118 -57.5 -231t-156 -190.5t-212.5 -94.5l221 -565h-119l-217 549h-443l-116 -549h-105zM778 645q99 0 186.5 63.5t137 161.5t49.5 199q0 120 -66.5 205.5t-169.5 85.5h-466l-152 -715h481z" />
<glyph unicode="S" horiz-adv-x="1193" d="M-12 205l71 84q163 -207 461 -207q203 0 323 87t120 241q0 49 -16.5 86.5t-43 63t-78 49t-100.5 38.5t-133 37q-70 17 -114.5 30.5t-93 32.5t-77 40t-53 50t-35 67t-10.5 87q0 214 161.5 343.5t413.5 129.5q265 0 406 -170l-72 -82q-107 158 -348 158q-216 0 -332 -98.5 t-116 -251.5q0 -38 8.5 -66.5t30 -52t45 -39.5t68.5 -32t84.5 -27.5t107.5 -28.5q74 -19 123.5 -34.5t100.5 -36.5t82 -44.5t57 -56t37 -73.5t11 -93q0 -147 -78.5 -250t-206.5 -150.5t-294 -47.5q-164 0 -288 53.5t-222 163.5z" />
<glyph unicode="T" horiz-adv-x="1185" d="M694 1360h-504l19 94h1114l-20 -94h-504l-291 -1360h-102z" />
<glyph unicode="U" d="M160 467q0 122 28 256l156 731h105l-156 -731q-29 -149 -29 -240q0 -87 18.5 -156t59.5 -124.5t112.5 -86t170.5 -30.5q107 0 199.5 37t157.5 97.5t117.5 145t84.5 172t53 185.5l154 731h104l-154 -731q-26 -122 -67.5 -227.5t-104.5 -200t-142.5 -161t-186 -105.5 t-230.5 -39q-98 0 -175.5 24.5t-128.5 67t-84 103.5t-47.5 130.5t-14.5 151.5z" />
<glyph unicode="V" horiz-adv-x="1325" d="M201 1454h110l242 -1323l801 1323h110l-893 -1454h-96z" />
<glyph unicode="W" horiz-adv-x="2033" d="M199 1454h114l242 -1331l436 708l-114 613h102l92 -529l318 529h102l-373 -613l135 -708l807 1331h115l-899 -1454h-94l-144 748l-465 -748h-94z" />
<glyph unicode="X" horiz-adv-x="1224" d="M575 717l-382 737h118l340 -661l619 661h119l-697 -737l371 -717h-119l-326 641l-600 -641h-118z" />
<glyph unicode="Y" horiz-adv-x="1232" d="M541 553l-351 901h117l307 -805l652 805h114l-735 -905l-119 -549h-102z" />
<glyph unicode="Z" horiz-adv-x="1214" d="M-57 86l1245 1274h-963l21 94h1087l-20 -86l-1239 -1274h964l-18 -94h-1096z" />
<glyph unicode="[" horiz-adv-x="487" d="M35 -82l340 1598h200l-18 -89h-104l-303 -1421h106l-18 -88h-203z" />
<glyph unicode="\" horiz-adv-x="1052" d="M336 1454l536 -1454h-116l-539 1454h119z" />
<glyph unicode="]" horiz-adv-x="485" d="M-47 -82l18 88h105l303 1421h-105l19 89h201l-338 -1598h-203z" />
<glyph unicode="^" horiz-adv-x="1081" d="M109 621l405 833h88l404 -833h-95l-352 729l-360 -729h-90z" />
<glyph unicode="_" horiz-adv-x="1024" d="M-18 -94l20 94h750l-21 -94h-749z" />
<glyph unicode="`" horiz-adv-x="440" d="M307 1495h115l84 -174l-76 -33z" />
<glyph unicode="a" horiz-adv-x="1210" d="M55 428q0 123 50 243t131 210t190.5 146t222.5 56q126 0 214 -70t128 -179l49 231h105l-197 -918q-4 -16 -4 -24q0 -31 35 -31l-21 -92q-31 -4 -40 -2q-74 6 -74 72q0 18 24 143q-84 -106 -201.5 -169.5t-232.5 -63.5q-114 0 -202 62.5t-132.5 164t-44.5 221.5zM891 358 l74 351q-15 117 -103.5 199.5t-208.5 82.5q-125 0 -240 -83t-183 -210.5t-68 -257.5q0 -152 87.5 -260t221.5 -108q75 0 163 38.5t160 106t97 141.5z" />
<glyph unicode="b" horiz-adv-x="1200" d="M162 213l-45 -213h-92l317 1495h102l-141 -661q215 249 445 249q117 0 201.5 -64.5t123.5 -161.5t39 -212q0 -128 -53 -251t-137.5 -213t-196 -145.5t-223.5 -55.5q-124 0 -212.5 65t-127.5 168zM1004 631q0 95 -34 175.5t-104 132.5t-164 52q-211 0 -423 -272l-82 -393 q12 -112 98.5 -183t206.5 -71q94 0 186.5 48t161.5 125t111.5 179.5t42.5 206.5z" />
<glyph unicode="c" horiz-adv-x="1069" d="M55 430q0 128 51 248.5t136 209t201.5 142t240.5 53.5q140 0 231 -65t121 -182l-108 -33q-25 89 -92 138.5t-162 49.5q-129 0 -247.5 -74t-192.5 -201t-74 -270q0 -160 86 -267t221 -107q105 0 211.5 58.5t146.5 137.5l95 -28q-63 -113 -194 -186.5t-269 -73.5 q-182 0 -292 129t-110 321z" />
<glyph unicode="d" horiz-adv-x="1210" d="M55 428q0 164 83.5 316t222 245.5t290.5 93.5q124 0 212.5 -70t127.5 -179l139 661h105l-287 -1348q-4 -20 -4 -24q0 -31 35 -31l-21 -92q-18 -2 -45 -2q-33 4 -51 24t-18 50q0 27 24 141q-83 -106 -200.5 -169.5t-229.5 -63.5q-117 0 -205.5 63t-133 163.5t-44.5 221.5z M891 358l74 351q-15 116 -107.5 199t-202.5 83q-97 0 -189.5 -49.5t-158 -127t-105.5 -176t-40 -194.5q0 -156 88 -264t227 -108q110 0 243.5 87t170.5 199z" />
<glyph unicode="e" horiz-adv-x="1083" d="M463 492q-123 0 -299 12q-4 -50 -4 -72q0 -103 34.5 -185.5t108 -134t176.5 -51.5q105 0 211 59.5t160 155.5l86 -26q-72 -121 -203 -195.5t-274 -74.5q-186 0 -295 128.5t-109 321.5q0 123 49 241.5t132 209.5t202 146.5t250 55.5q87 0 161.5 -31.5t122.5 -97.5t48 -155 q0 -307 -557 -307zM676 999q-93 0 -177 -34.5t-146 -93t-106.5 -132.5t-66.5 -157q184 -13 289 -13q455 0 455 232q0 97 -73 147.5t-175 50.5z" />
<glyph unicode="f" horiz-adv-x="636" d="M272 981h-141l19 84h143l6 35q38 193 140 304.5t237 111.5q56 0 106.5 -18.5t81.5 -49.5l-53 -74q-20 23 -58 37t-79 14q-99 0 -170 -83.5t-103 -239.5l-6 -37h285l-18 -84h-287l-299 -1417h-103z" />
<glyph unicode="g" horiz-adv-x="1200" d="M-59 -211l77 47q36 -104 126 -156.5t212 -52.5q162 0 288 92.5t163 260.5l49 233q-82 -103 -199 -166t-229 -63q-114 0 -201 63t-130.5 163t-43.5 218q0 162 82.5 313.5t222.5 246.5t297 95q231 0 344 -249l50 231h92l-232 -1085q-22 -105 -78.5 -189.5t-134 -138 t-169.5 -81.5t-189 -28q-169 0 -262 63t-135 183zM889 358l74 351q-19 123 -107 202.5t-205 79.5q-100 0 -192.5 -51t-157 -130.5t-103 -176.5t-38.5 -189q0 -156 87 -264t226 -108q124 0 251 90t165 196z" />
<glyph unicode="h" horiz-adv-x="1130" d="M342 1495h102l-145 -684q88 125 213.5 198.5t251.5 73.5q244 0 244 -276q0 -91 -23 -195l-129 -612h-102l125 594q20 110 20 170q0 225 -186 225q-122 0 -251.5 -95t-195.5 -235l-139 -659h-102z" />
<glyph unicode="i" horiz-adv-x="411" d="M342 1495h102l-38 -188h-103zM250 1065h102l-225 -1065h-102z" />
<glyph unicode="j" horiz-adv-x="428" d="M356 1495h103l-41 -188h-103zM-420 -287l70 68q41 -49 137 -49q75 0 147.5 60.5t90.5 146.5l239 1126h103l-238 -1122q-28 -129 -134.5 -217t-217.5 -88q-136 0 -197 75z" />
<glyph unicode="k" horiz-adv-x="1085" d="M1049 872q0 -134 -109 -239.5t-303 -157.5l242 -475h-113l-254 522q210 43 324 133t114 203q0 70 -43 106.5t-121 36.5q-133 0 -272.5 -111t-263.5 -312l-123 -578h-102l317 1495h102l-159 -756q249 348 526 348q115 0 176.5 -57t61.5 -158z" />
<glyph unicode="l" horiz-adv-x="509" d="M63 129q0 19 7 51l278 1315h103l-273 -1284q-4 -28 -4 -37q0 -43 25.5 -67.5t74.5 -24.5q53 0 111 20v-82q-35 -13 -86.5 -22.5t-87.5 -9.5q-69 0 -108.5 37.5t-39.5 103.5z" />
<glyph unicode="m" horiz-adv-x="1789" d="M250 1065h96l-55 -254q89 128 206.5 200t237.5 72q121 0 184.5 -77.5t57.5 -217.5q83 142 205.5 218.5t253.5 76.5q233 0 233 -264q0 -90 -24 -207l-132 -612h-102l127 594q21 105 21 182q0 213 -177 213q-122 0 -237.5 -91.5t-186.5 -240.5l-137 -657h-102l125 594 q22 102 22 186q0 209 -174 209q-123 0 -238 -90.5t-188 -239.5l-139 -659h-102z" />
<glyph unicode="n" horiz-adv-x="1130" d="M250 1065h96l-55 -254q88 122 223 197t268 75q119 0 174.5 -64.5t55.5 -191.5q0 -77 -27 -215l-129 -612h-102l125 594q22 105 22 190q0 104 -42 154.5t-128 50.5q-127 0 -261.5 -95t-203.5 -235l-139 -659h-102z" />
<glyph unicode="o" horiz-adv-x="1165" d="M53 424q0 134 51 257t135.5 210.5t197.5 139.5t233 52q98 0 176 -35t127 -97t74.5 -142t25.5 -174q0 -132 -50 -253.5t-133.5 -209.5t-197 -140t-235.5 -52q-130 0 -223.5 61t-137 159.5t-43.5 223.5zM969 618q0 163 -82.5 268t-233.5 105q-125 0 -238.5 -72.5t-184 -201 t-70.5 -279.5q0 -162 82 -264t233 -102q125 0 238.5 71t184.5 198t71 277z" />
<glyph unicode="p" horiz-adv-x="1202" d="M252 1065h92l-45 -213q85 103 202 167t230 64q116 0 204 -64t131.5 -165t43.5 -221q0 -163 -80 -314t-218.5 -245t-295.5 -94q-123 0 -211 69t-129 180l-141 -665h-103zM1004 618q0 155 -87.5 264t-226.5 109q-70 0 -156.5 -39t-160 -106.5t-97.5 -140.5l-75 -351 q26 -122 110 -202t201 -80q97 0 189.5 49t158 126.5t105 176t39.5 194.5z" />
<glyph unicode="q" horiz-adv-x="1200" d="M860 229q-208 -249 -446 -249q-112 0 -196 61.5t-124.5 159.5t-40.5 217q0 127 53.5 250t139 213.5t198 146t226.5 55.5q115 0 204 -65t127 -168l46 215h94l-320 -1501h-102zM885 346l80 369q-6 110 -91 193t-206 83q-97 0 -191 -49t-163 -127t-111.5 -179.5 t-42.5 -201.5q0 -153 81.5 -257.5t217.5 -104.5q120 0 231.5 77t194.5 197z" />
<glyph unicode="r" horiz-adv-x="681" d="M250 1065h98l-57 -262q81 118 185.5 187t209.5 75q8 1 16.5 1t17.5 -0.5t13 -0.5l-20 -92q-137 -5 -256 -86.5t-189 -220.5l-141 -666h-102z" />
<glyph unicode="s" horiz-adv-x="944" d="M-35 143l64 70q132 -150 327 -150q151 0 247.5 69t96.5 183q0 24 -7 43.5t-16.5 34t-30.5 28.5t-38.5 23t-52.5 21t-59.5 19t-71.5 20q-68 18 -104 29.5t-77.5 30t-60.5 38.5t-32 50t-13 71q0 166 127 263t316 97q118 0 202.5 -40.5t120.5 -108.5l-67 -55 q-69 120 -269 120q-86 0 -158 -25.5t-120.5 -83.5t-48.5 -140q0 -67 48 -97.5t179 -64.5q72 -20 117 -34.5t92 -36.5t72 -46t41 -59t16 -80q0 -160 -127.5 -256t-331.5 -96q-258 0 -381 163z" />
<glyph unicode="t" horiz-adv-x="626" d="M98 133q0 13 4 45l172 803h-143l19 84h143l76 365h102l-76 -365h236l-19 -84h-235l-154 -721q-14 -66 -14 -82q0 -45 28.5 -69.5t73.5 -24.5q82 0 168 49l13 -82q-27 -19 -92 -41t-136 -22q-74 0 -120 38t-46 107z" />
<glyph unicode="u" horiz-adv-x="1150" d="M84 258q0 77 22 193l134 614h100l-127 -600q-23 -108 -23 -174q0 -219 191 -219q129 0 257 88.5t202 232.5l141 672h102l-188 -891q-1 -7 -4 -19t-4.5 -19.5t-1.5 -10.5q0 -33 35 -33l-21 -92q-18 -2 -45 -2q-32 4 -50 23.5t-18 48.5q0 26 35 182q-93 -127 -224 -199.5 t-265 -72.5q-248 0 -248 278z" />
<glyph unicode="v" horiz-adv-x="974" d="M123 1065h106l144 -963q179 219 311 472t201 491h98q-166 -567 -584 -1065h-106z" />
<glyph unicode="w" horiz-adv-x="1521" d="M115 1065h106l174 -963q171 193 322 467l-107 496h107l71 -360q92 187 144 360h98q-72 -242 -211 -498l94 -465q183 218 317.5 471t205.5 492h100q-176 -575 -596 -1065h-106l-89 444q-143 -243 -321 -444h-107z" />
<glyph unicode="x" horiz-adv-x="966" d="M406 530l-279 535h113l229 -440l8 -29l21 25l420 444h112l-506 -535l279 -530h-115l-227 438l-10 27l-21 -25l-414 -440h-114z" />
<glyph unicode="y" horiz-adv-x="962" d="M-74 -375q64 11 107 27t82 48t69.5 71t75.5 108l74 111l-228 1075h107l193 -965l98 156q182 294 262 458t131 351h102q-56 -200 -137.5 -365.5t-283.5 -488.5l-168 -264q-143 -229 -238.5 -311.5t-232.5 -94.5z" />
<glyph unicode="z" horiz-adv-x="948" d="M-57 74l901 911h-694l18 80h811l-16 -74l-897 -911h702l-18 -80h-824z" />
<glyph unicode="{" horiz-adv-x="487" d="M455 1427l-121 -567q-4 -25 -23.5 -61t-52.5 -62q27 -31 27 -84q0 -8 -1 -22t-1 -17l-127 -589h108l-20 -88h-158q-33 0 -33 38q0 15 2 23l127 594q2 10 2 33q0 67 -49 73l17 82q36 0 60.5 35.5t31.5 67.5l121 571q7 34 24.5 48t32.5 14h158l-19 -89h-106z" />
<glyph unicode="|" horiz-adv-x="563" d="M246 -266v1853h92v-1853h-92z" />
<glyph unicode="}" horiz-adv-x="487" d="M272 1427l19 89h155q7 0 14 -2.5t14 -13t7 -27.5q0 -13 -2 -19l-123 -571q-2 -6 -2 -31q0 -29 12.5 -50.5t39.5 -21.5l-19 -82q-35 -4 -59.5 -35t-32.5 -71l-125 -594q-7 -31 -24 -46t-35 -15h-156l18 88h107l125 589q19 80 74 123q-25 35 -25 82q0 25 4 41l121 567h-107 z" />
<glyph unicode="~" horiz-adv-x="968" d="M328 696q40 0 82.5 -19t73 -42.5t71 -42.5t76.5 -19q28 0 53.5 10.5t42.5 25t29.5 30.5t18 27.5t5.5 15.5h70q-1 -5 -9 -22t-27.5 -45t-45 -52.5t-65.5 -42.5t-85 -18q-44 0 -89 19t-76 41.5t-68.5 41.5t-67.5 19q-25 0 -48.5 -12t-39.5 -29.5t-28 -35.5t-17.5 -30 t-5.5 -14h-69q2 8 10.5 27t27.5 48.5t43 55.5t61 44.5t77 18.5z" />
<glyph unicode="&#xa1;" horiz-adv-x="489" d="M475 1466l-43 -209h-108l49 209h102zM381 1020l-217 -1022h-103l218 1022h102z" />
<glyph unicode="&#xa2;" horiz-adv-x="1091" d="M358 -246l50 228q-106 9 -186.5 75t-120.5 164t-40 209q0 153 76.5 297.5t211.5 242.5t292 111l51 240h62l-52 -240q274 -8 338 -245l-106 -33q-53 176 -250 186l-195 -915q90 2 196.5 57.5t145.5 136.5l95 -28q-66 -120 -202 -190t-255 -70l-49 -226h-62zM428 78 l193 907q-94 -7 -180 -60t-145.5 -130.5t-94.5 -171t-35 -181.5q0 -140 71.5 -243.5t190.5 -120.5z" />
<glyph unicode="&#xa3;" horiz-adv-x="954" d="M682 1464q102 0 180.5 -58t114.5 -157l-76 -63q-29 88 -94.5 139t-147.5 51q-117 0 -210 -93.5t-93 -219.5q0 -44 10.5 -92t30.5 -113t29 -100h346l-18 -84h-312q4 -46 4 -70q0 -89 -20.5 -154t-89 -153.5t-203.5 -212.5q75 16 143 16q59 0 143 -19.5t130 -19.5 q72 0 188 39l8 -82q-113 -49 -221 -49q-57 0 -151.5 22.5t-155.5 22.5q-91 0 -207 -28l-14 75q116 102 184 171t107.5 131t52 112.5t12.5 118.5q0 40 -6 80h-227l16 84h193q-8 30 -28.5 94.5t-31 111.5t-10.5 93q0 107 62 202t159.5 150t202.5 55z" />
<glyph unicode="&#xa4;" horiz-adv-x="1142" d="M346 973q98 88 236 88q137 0 237 -90l146 145l53 -53l-146 -145q76 -102 76 -230q0 -127 -80 -231l150 -146l-49 -49l-150 144q-103 -87 -237 -87q-136 0 -236 84l-145 -141l-49 49l145 144q-80 104 -80 233q0 130 76 232l-141 143l55 53zM582 395q114 0 196 87t82 208 q0 122 -81.5 207.5t-196.5 85.5q-113 0 -195 -86.5t-82 -210.5q0 -121 81.5 -206t195.5 -85z" />
<glyph unicode="&#xa5;" horiz-adv-x="1314" d="M827 731h170l-16 -78h-213l-86 -104l-10 -53h276l-14 -76h-279l-90 -420h-104l90 420h-277l17 76h276l13 57l-39 100h-215l16 78h172l-285 723h117l305 -805l652 805h116z" />
<glyph unicode="&#xa6;" horiz-adv-x="550" d="M332 1587v-839h-92v839h92zM332 573v-839h-92v839h92z" />
<glyph unicode="&#xa7;" horiz-adv-x="985" d="M809 240q0 -81 -30.5 -151t-79 -118.5t-111 -83t-126 -51t-122.5 -16.5q-215 0 -340 180l82 63q112 -145 276 -145q58 0 117.5 20.5t109.5 57.5t81.5 94t31.5 123q0 38 -13.5 67t-34.5 46t-53 27.5t-61 15t-67 6.5q-143 6 -228 72.5t-85 189.5q0 71 30.5 137t71.5 107 q-29 23 -45 71t-16 107q0 89 42 167t109 129t146.5 80t156.5 29q129 0 200.5 -47.5t109.5 -132.5l-91 -37q-20 66 -85.5 94.5t-149.5 28.5q-78 0 -153.5 -35t-128 -105t-52.5 -157q0 -177 236 -180q64 0 120.5 -14t103 -43.5t74 -80t27.5 -116.5q0 -72 -32.5 -140.5 t-79.5 -109.5q59 -44 59 -149zM659 420q44 33 73.5 89.5t29.5 113.5q0 49 -21.5 86t-58 57t-76.5 29.5t-84 9.5q-108 0 -176 35q-38 -33 -65 -88.5t-27 -114.5q0 -53 22 -89.5t56 -53.5t80 -28t88.5 -14.5t87.5 -11.5t71 -20z" />
<glyph unicode="&#xa8;" horiz-adv-x="563" d="M268 1311l39 180h88l-37 -180h-90zM537 1311l38 180h89l-37 -180h-90z" />
<glyph unicode="&#xa9;" horiz-adv-x="1724" d="M137 727q0 156 57 293t155.5 234.5t237 153.5t296.5 56q159 0 298.5 -56t238.5 -153.5t156.5 -234.5t57.5 -293q0 -157 -57.5 -294.5t-156.5 -235.5t-238.5 -154.5t-298.5 -56.5q-158 0 -296.5 56.5t-237 154.5t-155.5 235.5t-57 294.5zM1573 721q0 146 -52.5 273.5 t-143 218t-218.5 142.5t-274 52q-195 0 -352.5 -88.5t-246.5 -244.5t-89 -349q0 -192 88.5 -348t246.5 -245t353 -89q192 0 349 85t248 240.5t91 352.5zM432 727q0 69 17 136t53.5 129t88.5 109t128 75t166 28q130 0 232 -57t145 -162l-99 -33q-21 47 -55.5 80.5t-75 50 t-76 23t-71.5 6.5q-69 0 -127.5 -22.5t-98.5 -60.5t-68 -88t-41 -104t-13 -110q0 -88 33 -162t85 -120.5t113.5 -72.5t122.5 -26q86 0 170.5 46.5t118.5 121.5l98 -29q-12 -35 -44.5 -74t-80.5 -75t-115.5 -59t-138.5 -23q-88 0 -171.5 33.5t-149.5 93t-106 150t-40 196.5z " />
<glyph unicode="&#xaa;" horiz-adv-x="839" d="M156 897q0 111 99.5 183.5t242.5 72.5q120 0 198 -37l13 64q6 27 6 53q0 68 -42 107.5t-116 39.5q-101 0 -242 -84l-20 64q155 94 285 94q111 0 172 -53.5t61 -151.5q0 -43 -8 -82l-68 -313q-2 -4 -2 -14q0 -24 27 -27l-19 -88q-55 -3 -63 23q-39 6 -39 36q4 17 10 62 q-61 -64 -141.5 -98.5t-165.5 -34.5q-84 0 -136 52.5t-52 131.5zM657 940l25 113q-67 34 -182 34q-107 0 -177.5 -47.5t-70.5 -124.5q0 -53 37 -88.5t96 -35.5q88 0 174 45t98 104z" />
<glyph unicode="&#xab;" horiz-adv-x="1089" d="M74 559l551 359l-19 -93l-452 -295l327 -292l-20 -93l-402 353zM471 559l553 359l-20 -93l-453 -295l328 -292l-19 -93l-401 353z" />
<glyph unicode="&#xac;" horiz-adv-x="1134" d="M1014 725l-99 -457h-90l78 363h-741l20 94h832z" />
<glyph unicode="&#xad;" horiz-adv-x="1099" d="M111 510l20 94h832l-19 -94h-833z" />
<glyph unicode="&#xae;" horiz-adv-x="1724" d="M137 727q0 156 57 293t155.5 234.5t237.5 153.5t298 56q211 0 382.5 -95.5t269 -264.5t97.5 -377q0 -157 -57 -294.5t-156.5 -235.5t-238.5 -154.5t-297 -56.5q-159 0 -298 56.5t-237.5 154.5t-155.5 235.5t-57 294.5zM1571 727q0 191 -88.5 346.5t-246 244.5t-351.5 89 t-351.5 -89t-246 -244.5t-88.5 -346.5q0 -193 88 -349.5t245 -245.5t353 -89q144 0 270.5 49.5t218 138t144.5 217t53 279.5zM578 1190h389q114 0 193 -89.5t79 -201.5q0 -105 -62.5 -185t-160.5 -93l233 -365h-94l-225 354h-268v-354h-84v934zM969 684q89 0 138.5 61.5 t49.5 153.5q0 91 -55 152t-141 61h-299v-428h307z" />
<glyph unicode="&#xaf;" horiz-adv-x="761" d="M281 1374l16 76h557l-16 -76h-557z" />
<glyph unicode="&#xb0;" horiz-adv-x="520" d="M248 1288q0 74 57 134.5t133 60.5q55 0 89 -37t34 -92q0 -76 -57.5 -133.5t-132.5 -57.5q-55 0 -89 35t-34 90zM496 1341q0 35 -19.5 53.5t-52.5 18.5q-42 0 -75.5 -31.5t-33.5 -74.5q0 -34 19 -56t51 -22q39 0 75 34t36 78z" />
<glyph unicode="&#xb1;" horiz-adv-x="991" d="M788 782v-88h-272v-295h-96v295h-275v88h275v295h96v-295h272zM145 143v88h643v-88h-643z" />
<glyph unicode="&#xb2;" horiz-adv-x="751" d="M125 846q33 150 110.5 233.5t213.5 132.5q18 6 53 18.5t55.5 19.5t52 20.5t50.5 25t41.5 29t35 36t21 43t8.5 52.5q0 60 -40 97.5t-124 37.5q-89 0 -162.5 -38t-122.5 -85l-38 56q14 14 36 31t65.5 44t105.5 44.5t128 17.5q115 0 173.5 -53.5t58.5 -137.5 q0 -53 -19.5 -96.5t-48 -72.5t-77.5 -55.5t-89 -42t-102 -36.5q-226 -76 -262 -252h485l-16 -69h-592z" />
<glyph unicode="&#xb3;" horiz-adv-x="757" d="M160 1022l53 37q0 -68 58 -113t159 -45q109 0 189.5 53t80.5 129q0 66 -68.5 104t-187.5 38h-45l15 65h43q140 0 218.5 43t78.5 125q0 61 -53 98t-134 37q-79 0 -146 -31.5t-106 -84.5l-36 53q44 59 127.5 95t175.5 36q113 0 182.5 -54t69.5 -137q0 -81 -56 -134.5 t-164 -75.5q74 -13 117 -61t43 -112q0 -111 -106.5 -181t-249.5 -70q-121 0 -189.5 50.5t-68.5 135.5z" />
<glyph unicode="&#xb4;" horiz-adv-x="440" d="M328 1288l-64 33l156 174h117z" />
<glyph unicode="&#xb5;" horiz-adv-x="1210" d="M268 1065h103l-127 -600q-23 -108 -23 -174q0 -219 193 -219q126 0 253.5 89t200.5 232l144 672h104l-196 -922q-2 -6 -2 -20q0 -31 34 -31l-22 -92q-50 -3 -64 31q-50 6 -47 51q22 123 33 170q-85 -120 -212 -196t-251 -76q-189 0 -215 188l-123 -602h-102z" />
<glyph unicode="&#xb6;" horiz-adv-x="1157" d="M797 1454h442l-18 -84h-136l-327 -1534h-90l139 649h-156l-139 -649h-90l137 649q-203 4 -315.5 105.5t-112.5 277.5q0 264 181.5 425t484.5 161zM578 571l170 799q-163 -1 -282.5 -63t-181 -170t-61.5 -248q0 -152 97.5 -231t257.5 -87zM993 1370h-153l-170 -799h153z " />
<glyph unicode="&#xb7;" horiz-adv-x="356" d="M109 508l45 207h88l-43 -207h-90z" />
<glyph unicode="&#xb8;" horiz-adv-x="593" d="M115 -356q-106 0 -191 55l45 61q78 -45 146 -45q72 0 115.5 37.5t43.5 97.5q0 79 -96 150l55 31q107 -87 107 -183q0 -97 -62 -150.5t-163 -53.5z" />
<glyph unicode="&#xb9;" horiz-adv-x="518" d="M541 915l-15 -71h-379l15 71h160l139 660q-30 -30 -96.5 -64t-110.5 -34l14 71q38 0 90 28t84.5 53.5t36.5 31.5h74l-160 -746h148z" />
<glyph unicode="&#xba;" horiz-adv-x="882" d="M180 1014q0 112 60 214t161 164t213 62q126 0 203.5 -87t77.5 -216q0 -111 -60.5 -212.5t-162 -163.5t-215.5 -62q-127 0 -202 86.5t-75 214.5zM805 1139q0 101 -58 168t-149 67q-124 0 -227 -105.5t-103 -244.5q0 -101 57.5 -168.5t147.5 -67.5q125 0 228.5 107 t103.5 244z" />
<glyph unicode="&#xbb;" horiz-adv-x="1089" d="M580 498l-551 -353l20 93l453 292l-328 295l19 93l399 -359zM977 498l-549 -353l18 93l453 292l-328 295l19 93l401 -359z" />
<glyph unicode="&#xbc;" horiz-adv-x="1550" d="M506 752l-14 -72h-379l14 72h160l139 659q-30 -30 -96.5 -64t-110.5 -34l14 71q38 0 90 28t84.5 53.5t36.5 31.5h74l-160 -745h148zM-27 43l670 680l709 737l47 -47l-717 -731l-662 -688zM1221 217h-447l14 66l580 522h49l-110 -518h110l-14 -70h-111l-47 -217h-69z M1237 287l88 413l-455 -413h367z" />
<glyph unicode="&#xbd;" horiz-adv-x="1548" d="M506 752l-14 -72h-379l14 72h160l139 659q-30 -30 -96.5 -64t-110.5 -34l14 71q38 0 90 28t84.5 53.5t36.5 31.5h74l-160 -745h148zM-27 43l670 680l709 737l47 -47l-717 -731l-662 -688zM754 0q33 152 109 236t210 133q18 7 59 21t63.5 22.5t56.5 24t53.5 30.5t40 36 t29.5 48t9 59q0 61 -38 98t-121 37q-154 0 -281 -122l-39 55q14 14 35.5 31t65 44t105 44.5t126.5 17.5q112 0 169.5 -53t57.5 -137q0 -53 -19.5 -96.5t-47 -72.5t-76 -55.5t-87.5 -42t-101 -36.5q-223 -76 -259 -252h480l-17 -70h-583z" />
<glyph unicode="&#xbe;" horiz-adv-x="1789" d="M125 858l53 35q0 -63 59 -110.5t158 -47.5q108 0 189.5 54.5t81.5 130.5q0 66 -68.5 103.5t-187.5 37.5h-45l14 65h43q140 0 218.5 42.5t78.5 123.5q0 61 -53.5 99.5t-133.5 38.5q-78 0 -145 -32.5t-106 -84.5l-37 51q44 61 127.5 97t175.5 36q113 0 182.5 -54t69.5 -138 q0 -80 -56 -134t-163 -77q74 -12 116.5 -59t42.5 -111q0 -111 -106.5 -182.5t-249.5 -71.5q-105 0 -181.5 49t-76.5 139zM213 43l670 680l708 737l47 -47l-716 -731l-662 -688zM1460 217h-446l14 66l580 522h49l-111 -518h111l-15 -70h-110l-47 -217h-70zM1477 287l88 413 l-455 -413h367z" />
<glyph unicode="&#xbf;" horiz-adv-x="921" d="M698 1036l-43 -200h-88l41 200h90zM616 641q-32 -151 -88.5 -231.5t-152.5 -130.5q-20 -11 -63.5 -31.5t-70 -35t-65 -38.5t-62.5 -50t-47.5 -61t-35 -81t-11.5 -101q0 -110 65.5 -169.5t164.5 -59.5q106 0 208.5 61.5t168.5 159.5l65 -45q-79 -124 -206.5 -194 t-256.5 -70q-130 0 -217.5 79.5t-87.5 225.5q0 43 6 81.5t14 68t26 59t30.5 49t40.5 43t42.5 36t50 32.5t50.5 28t55.5 28.5t53.5 27.5q37 19 59.5 32.5t52 39.5t49.5 56.5t39.5 79.5t32.5 111h90z" />
<glyph unicode="&#xc0;" horiz-adv-x="1329" d="M700 1884h115l84 -174l-76 -33zM807 1454h90l272 -1454h-110l-90 479h-654l-290 -479h-113zM961 565l-136 762l-467 -762h603z" />
<glyph unicode="&#xc1;" horiz-adv-x="1329" d="M915 1677l-63 33l156 174h116zM807 1454h90l272 -1454h-110l-90 479h-654l-290 -479h-113zM961 565l-136 762l-467 -762h603z" />
<glyph unicode="&#xc2;" horiz-adv-x="1329" d="M680 1686l225 165h76l154 -165l-70 -37l-137 129l-193 -129zM807 1454h90l272 -1454h-110l-90 479h-654l-290 -479h-113zM961 565l-136 762l-467 -762h603z" />
<glyph unicode="&#xc3;" horiz-adv-x="1329" d="M797 1796q-80 0 -119 -98h-68q2 9 9 26.5t24 43t38.5 47.5t56.5 37.5t75 15.5q43 0 80 -20.5t72.5 -41t76.5 -20.5q29 0 53 9.5t38 22.5t24.5 28.5t14 24t4.5 13.5h67q-2 -10 -9.5 -27.5t-25 -43t-40.5 -47t-61 -37t-81 -15.5q-39 0 -73 13t-54 28t-47.5 28t-54.5 13z M807 1454h90l272 -1454h-110l-90 479h-654l-290 -479h-113zM961 565l-136 762l-467 -762h603z" />
<glyph unicode="&#xc4;" horiz-adv-x="1329" d="M727 1700l39 180h88l-37 -180h-90zM995 1700l39 180h88l-37 -180h-90zM807 1454h90l272 -1454h-110l-90 479h-654l-290 -479h-113zM961 565l-136 762l-467 -762h603z" />
<glyph unicode="&#xc5;" horiz-adv-x="1329" d="M946 1884q49 0 78 -28.5t29 -73.5q0 -64 -48 -109t-116 -45q-49 0 -78 29.5t-29 75.5q0 64 48.5 107.5t115.5 43.5zM838 1741q0 -28 17 -47t46 -19q34 0 66 29t32 68q0 30 -17.5 47.5t-47.5 17.5q-38 0 -67 -27.5t-29 -68.5zM807 1454h90l272 -1454h-110l-90 479h-654 l-290 -479h-113zM961 565l-136 762l-467 -762h603z" />
<glyph unicode="&#xc6;" horiz-adv-x="1888" d="M1036 1454h926l-23 -94h-792l-119 -569h686l-20 -97h-688l-127 -600h809l-19 -94h-913l102 479h-518l-391 -479h-117zM872 573l158 750l-620 -750h462z" />
<glyph unicode="&#xc7;" horiz-adv-x="1349" d="M905 1366q-124 0 -236 -45.5t-195 -123t-144.5 -176.5t-93 -208.5t-31.5 -216.5q0 -139 51 -254t152 -186.5t235 -71.5q133 0 268.5 72t231.5 213l82 -43q-101 -160 -265.5 -248t-328.5 -90q59 -62 59 -140q0 -97 -62 -150.5t-163 -53.5q-106 0 -191 55l45 61 q78 -45 146 -45q72 0 116 37.5t44 97.5q0 75 -90 146q-136 23 -237 113.5t-149.5 215.5t-48.5 265q0 123 38 248t112 236.5t172 198.5t227 138t269 51q186 0 300 -86.5t150 -230.5l-90 -45q-77 266 -373 266z" />
<glyph unicode="&#xc8;" horiz-adv-x="1196" d="M641 1884h115l84 -174l-76 -33zM365 1454h903l-19 -94h-800l-121 -572h698l-20 -90h-697l-129 -604h817l-20 -94h-922z" />
<glyph unicode="&#xc9;" horiz-adv-x="1196" d="M856 1677l-63 33l155 174h117zM365 1454h903l-19 -94h-800l-121 -572h698l-20 -90h-697l-129 -604h817l-20 -94h-922z" />
<glyph unicode="&#xca;" horiz-adv-x="1196" d="M621 1686l225 165h76l153 -165l-69 -37l-138 129l-192 -129zM365 1454h903l-19 -94h-800l-121 -572h698l-20 -90h-697l-129 -604h817l-20 -94h-922z" />
<glyph unicode="&#xcb;" horiz-adv-x="1196" d="M668 1700l39 180h88l-37 -180h-90zM936 1700l39 180h88l-37 -180h-90zM365 1454h903l-19 -94h-800l-121 -572h698l-20 -90h-697l-129 -604h817l-20 -94h-922z" />
<glyph unicode="&#xcc;" horiz-adv-x="477" d="M262 1880h115l84 -174l-76 -33zM365 1452h104l-309 -1452h-105z" />
<glyph unicode="&#xcd;" horiz-adv-x="477" d="M477 1673l-63 33l155 174h117zM365 1452h104l-309 -1452h-105z" />
<glyph unicode="&#xce;" horiz-adv-x="477" d="M242 1681l225 166h76l153 -166l-69 -36l-138 129l-192 -129zM365 1452h104l-309 -1452h-105z" />
<glyph unicode="&#xcf;" horiz-adv-x="477" d="M289 1696l39 180h88l-37 -180h-90zM557 1696l39 180h88l-37 -180h-90zM365 1452h104l-309 -1452h-105z" />
<glyph unicode="&#xd0;" horiz-adv-x="1423" d="M840 1454q131 0 233 -42.5t165.5 -118.5t95.5 -175.5t32 -218.5q0 -255 -108 -460.5t-299.5 -322t-428.5 -116.5h-460l145 688h-123l19 86h122l146 680h461zM551 94q128 0 241 42t197 116t145 173t92 215.5t31 240.5q0 217 -113 348t-325 131h-356l-125 -586h346l-18 -86 h-347l-124 -594h356z" />
<glyph unicode="&#xd1;" horiz-adv-x="1517" d="M905 1790q-80 0 -119 -98h-67q2 9 9 26.5t24 43t38.5 47.5t56.5 37.5t75 15.5q43 0 80 -20.5t72.5 -41t76.5 -20.5q29 0 53 9.5t37.5 22.5t24 28.5t14 24t4.5 13.5h68q-2 -10 -9.5 -27.5t-25 -43t-40.5 -47t-61 -37t-81 -15.5q-49 0 -89 20.5t-74 41t-67 20.5zM365 1454 h81l689 -1280l270 1278h104l-309 -1452h-92l-680 1257l-268 -1257h-105z" />
<glyph unicode="&#xd2;" d="M780 1878h115l84 -174l-76 -33zM98 586q0 169 67.5 331t178 281.5t261 192.5t308.5 73q102 0 188 -33t146 -90t101.5 -133.5t61.5 -163.5t20 -180q0 -224 -113 -426.5t-301.5 -325t-399.5 -122.5q-127 0 -228 49.5t-163 133.5t-94.5 189.5t-32.5 223.5zM1323 858 q0 103 -26.5 194t-78 162t-134.5 112.5t-189 41.5q-140 0 -269.5 -67.5t-220.5 -176t-145.5 -248.5t-54.5 -282q0 -103 26.5 -193.5t78 -161.5t135.5 -112t190 -41q141 0 270 67.5t219.5 176t144.5 248t54 280.5z" />
<glyph unicode="&#xd3;" d="M995 1671l-63 33l155 174h117zM98 586q0 169 67.5 331t178 281.5t261 192.5t308.5 73q102 0 188 -33t146 -90t101.5 -133.5t61.5 -163.5t20 -180q0 -224 -113 -426.5t-301.5 -325t-399.5 -122.5q-127 0 -228 49.5t-163 133.5t-94.5 189.5t-32.5 223.5zM1323 858 q0 103 -26.5 194t-78 162t-134.5 112.5t-189 41.5q-140 0 -269.5 -67.5t-220.5 -176t-145.5 -248.5t-54.5 -282q0 -103 26.5 -193.5t78 -161.5t135.5 -112t190 -41q141 0 270 67.5t219.5 176t144.5 248t54 280.5z" />
<glyph unicode="&#xd4;" d="M760 1679l225 166h76l153 -166l-69 -37l-137 130l-193 -130zM98 586q0 169 67.5 331t178 281.5t261 192.5t308.5 73q102 0 188 -33t146 -90t101.5 -133.5t61.5 -163.5t20 -180q0 -224 -113 -426.5t-301.5 -325t-399.5 -122.5q-127 0 -228 49.5t-163 133.5t-94.5 189.5 t-32.5 223.5zM1323 858q0 103 -26.5 194t-78 162t-134.5 112.5t-189 41.5q-140 0 -269.5 -67.5t-220.5 -176t-145.5 -248.5t-54.5 -282q0 -103 26.5 -193.5t78 -161.5t135.5 -112t190 -41q141 0 270 67.5t219.5 176t144.5 248t54 280.5z" />
<glyph unicode="&#xd5;" d="M877 1790q-80 0 -119 -98h-68q2 9 9 26.5t24 43t38.5 47.5t56.5 37.5t75 15.5q43 0 80 -20.5t72.5 -41t76.5 -20.5q29 0 53 9.5t37.5 22.5t24 28.5t14 24t4.5 13.5h68q-2 -10 -9.5 -27.5t-25 -43t-40.5 -47t-61 -37t-81 -15.5q-39 0 -73 13t-54 28t-47.5 28t-54.5 13z M98 586q0 169 67.5 331t178 281.5t261 192.5t308.5 73q102 0 188 -33t146 -90t101.5 -133.5t61.5 -163.5t20 -180q0 -224 -113 -426.5t-301.5 -325t-399.5 -122.5q-127 0 -228 49.5t-163 133.5t-94.5 189.5t-32.5 223.5zM1323 858q0 103 -26.5 194t-78 162t-134.5 112.5 t-189 41.5q-140 0 -269.5 -67.5t-220.5 -176t-145.5 -248.5t-54.5 -282q0 -103 26.5 -193.5t78 -161.5t135.5 -112t190 -41q141 0 270 67.5t219.5 176t144.5 248t54 280.5z" />
<glyph unicode="&#xd6;" d="M807 1694l39 180h88l-37 -180h-90zM1075 1694l39 180h88l-37 -180h-90zM98 586q0 169 67.5 331t178 281.5t261 192.5t308.5 73q102 0 188 -33t146 -90t101.5 -133.5t61.5 -163.5t20 -180q0 -224 -113 -426.5t-301.5 -325t-399.5 -122.5q-127 0 -228 49.5t-163 133.5 t-94.5 189.5t-32.5 223.5zM1323 858q0 103 -26.5 194t-78 162t-134.5 112.5t-189 41.5q-140 0 -269.5 -67.5t-220.5 -176t-145.5 -248.5t-54.5 -282q0 -103 26.5 -193.5t78 -161.5t135.5 -112t190 -41q141 0 270 67.5t219.5 176t144.5 248t54 280.5z" />
<glyph unicode="&#xd7;" horiz-adv-x="952" d="M786 297l-67 -66l-258 258l-260 -258l-66 68l258 256l-258 260l68 66l258 -258l258 260l65 -68l-258 -260z" />
<glyph unicode="&#xd8;" d="M1436 1454l-140 -166q134 -168 134 -424q0 -224 -113 -426.5t-301.5 -325t-399.5 -122.5q-189 0 -317 106l-82 -96h-117l136 160q-138 170 -138 426q0 169 67.5 331t178 281.5t261 192.5t308.5 73q192 0 320 -112l86 102h117zM205 594q0 -212 100 -350l860 1028 q-111 96 -270 96q-140 0 -269.5 -67.5t-220.5 -176t-145.5 -248.5t-54.5 -282zM1323 858q0 206 -96 346l-860 -1026q110 -92 268 -92q141 0 270 67.5t219.5 176t144.5 248t54 280.5z" />
<glyph unicode="&#xd9;" d="M758 1878h114l84 -174l-75 -33zM160 467q0 122 28 256l156 731h105l-156 -731q-29 -149 -29 -240q0 -87 18.5 -156t59.5 -124.5t112.5 -86t170.5 -30.5q107 0 199.5 37t157.5 97.5t117.5 145t84.5 172t53 185.5l154 731h104l-154 -731q-26 -122 -67.5 -227.5t-104.5 -200 t-142.5 -161t-186 -105.5t-230.5 -39q-98 0 -175.5 24.5t-128.5 67t-84 103.5t-47.5 130.5t-14.5 151.5z" />
<glyph unicode="&#xda;" d="M973 1671l-64 33l156 174h117zM160 467q0 122 28 256l156 731h105l-156 -731q-29 -149 -29 -240q0 -87 18.5 -156t59.5 -124.5t112.5 -86t170.5 -30.5q107 0 199.5 37t157.5 97.5t117.5 145t84.5 172t53 185.5l154 731h104l-154 -731q-26 -122 -67.5 -227.5t-104.5 -200 t-142.5 -161t-186 -105.5t-230.5 -39q-98 0 -175.5 24.5t-128.5 67t-84 103.5t-47.5 130.5t-14.5 151.5z" />
<glyph unicode="&#xdb;" d="M737 1679l226 166h75l154 -166l-70 -37l-137 130l-192 -130zM160 467q0 122 28 256l156 731h105l-156 -731q-29 -149 -29 -240q0 -87 18.5 -156t59.5 -124.5t112.5 -86t170.5 -30.5q107 0 199.5 37t157.5 97.5t117.5 145t84.5 172t53 185.5l154 731h104l-154 -731 q-26 -122 -67.5 -227.5t-104.5 -200t-142.5 -161t-186 -105.5t-230.5 -39q-98 0 -175.5 24.5t-128.5 67t-84 103.5t-47.5 130.5t-14.5 151.5z" />
<glyph unicode="&#xdc;" d="M784 1694l39 180h88l-37 -180h-90zM1053 1694l39 180h88l-37 -180h-90zM160 467q0 122 28 256l156 731h105l-156 -731q-29 -149 -29 -240q0 -87 18.5 -156t59.5 -124.5t112.5 -86t170.5 -30.5q107 0 199.5 37t157.5 97.5t117.5 145t84.5 172t53 185.5l154 731h104 l-154 -731q-26 -122 -67.5 -227.5t-104.5 -200t-142.5 -161t-186 -105.5t-230.5 -39q-98 0 -175.5 24.5t-128.5 67t-84 103.5t-47.5 130.5t-14.5 151.5z" />
<glyph unicode="&#xdd;" horiz-adv-x="1232" d="M831 1671l-63 33l156 174h116zM541 553l-351 901h117l307 -805l652 805h114l-735 -905l-119 -549h-102z" />
<glyph unicode="&#xde;" horiz-adv-x="1181" d="M365 1454h104l-63 -295h428q97 0 170.5 -54t110 -138t36.5 -181q0 -95 -40.5 -191.5t-107 -171.5t-159.5 -122t-191 -47h-440l-53 -254h-105zM670 350q101 0 189.5 64.5t138 162t49.5 197.5q0 120 -66.5 204.5t-171.5 84.5h-422l-151 -713h434z" />
<glyph unicode="&#xdf;" horiz-adv-x="1079" d="M348 82q236 5 372 112.5t136 301.5q0 127 -76 201.5t-207 74.5h-36l20 96h35q129 0 222 86.5t93 210.5q0 93 -60.5 149t-156.5 56q-129 0 -221.5 -92.5t-124.5 -241.5l-221 -1036h-98l223 1051q38 182 168.5 296.5t298.5 114.5q133 0 215 -75.5t82 -194.5 q0 -123 -89.5 -232.5t-199.5 -134.5q116 -27 178 -112t62 -207q0 -236 -171.5 -371.5t-463.5 -146.5z" />
<glyph unicode="&#xe0;" horiz-adv-x="1210" d="M565 1495h115l84 -174l-76 -33zM55 428q0 123 50 243t131 210t190.5 146t222.5 56q126 0 214 -70t128 -179l49 231h105l-197 -918q-4 -16 -4 -24q0 -31 35 -31l-21 -92q-31 -4 -40 -2q-74 6 -74 72q0 18 24 143q-84 -106 -201.5 -169.5t-232.5 -63.5q-114 0 -202 62.5 t-132.5 164t-44.5 221.5zM891 358l74 351q-15 117 -103.5 199.5t-208.5 82.5q-125 0 -240 -83t-183 -210.5t-68 -257.5q0 -152 87.5 -260t221.5 -108q75 0 163 38.5t160 106t97 141.5z" />
<glyph unicode="&#xe1;" horiz-adv-x="1210" d="M780 1288l-63 33l155 174h117zM55 428q0 123 50 243t131 210t190.5 146t222.5 56q126 0 214 -70t128 -179l49 231h105l-197 -918q-4 -16 -4 -24q0 -31 35 -31l-21 -92q-31 -4 -40 -2q-74 6 -74 72q0 18 24 143q-84 -106 -201.5 -169.5t-232.5 -63.5q-114 0 -202 62.5 t-132.5 164t-44.5 221.5zM891 358l74 351q-15 117 -103.5 199.5t-208.5 82.5q-125 0 -240 -83t-183 -210.5t-68 -257.5q0 -152 87.5 -260t221.5 -108q75 0 163 38.5t160 106t97 141.5z" />
<glyph unicode="&#xe2;" horiz-adv-x="1210" d="M545 1296l225 166h76l153 -166l-69 -36l-137 129l-193 -129zM55 428q0 123 50 243t131 210t190.5 146t222.5 56q126 0 214 -70t128 -179l49 231h105l-197 -918q-4 -16 -4 -24q0 -31 35 -31l-21 -92q-31 -4 -40 -2q-74 6 -74 72q0 18 24 143q-84 -106 -201.5 -169.5 t-232.5 -63.5q-114 0 -202 62.5t-132.5 164t-44.5 221.5zM891 358l74 351q-15 117 -103.5 199.5t-208.5 82.5q-125 0 -240 -83t-183 -210.5t-68 -257.5q0 -152 87.5 -260t221.5 -108q75 0 163 38.5t160 106t97 141.5z" />
<glyph unicode="&#xe3;" horiz-adv-x="1210" d="M662 1407q-80 0 -119 -98h-68q2 9 9 26.5t24 43t38.5 47.5t56.5 37.5t75 15.5q43 0 80 -20.5t72.5 -41t76.5 -20.5q29 0 53 9.5t37.5 22.5t24 28.5t14 24t4.5 13.5h68q-2 -10 -9.5 -27.5t-25 -43t-40.5 -47t-61 -37t-81 -15.5q-39 0 -73 13t-54 28t-47.5 28t-54.5 13z M55 428q0 123 50 243t131 210t190.5 146t222.5 56q126 0 214 -70t128 -179l49 231h105l-197 -918q-4 -16 -4 -24q0 -31 35 -31l-21 -92q-31 -4 -40 -2q-74 6 -74 72q0 18 24 143q-84 -106 -201.5 -169.5t-232.5 -63.5q-114 0 -202 62.5t-132.5 164t-44.5 221.5zM891 358 l74 351q-15 117 -103.5 199.5t-208.5 82.5q-125 0 -240 -83t-183 -210.5t-68 -257.5q0 -152 87.5 -260t221.5 -108q75 0 163 38.5t160 106t97 141.5z" />
<glyph unicode="&#xe4;" horiz-adv-x="1210" d="M592 1311l39 180h88l-37 -180h-90zM860 1311l39 180h88l-37 -180h-90zM55 428q0 123 50 243t131 210t190.5 146t222.5 56q126 0 214 -70t128 -179l49 231h105l-197 -918q-4 -16 -4 -24q0 -31 35 -31l-21 -92q-31 -4 -40 -2q-74 6 -74 72q0 18 24 143 q-84 -106 -201.5 -169.5t-232.5 -63.5q-114 0 -202 62.5t-132.5 164t-44.5 221.5zM891 358l74 351q-15 117 -103.5 199.5t-208.5 82.5q-125 0 -240 -83t-183 -210.5t-68 -257.5q0 -152 87.5 -260t221.5 -108q75 0 163 38.5t160 106t97 141.5z" />
<glyph unicode="&#xe5;" horiz-adv-x="1210" d="M811 1495q49 0 78 -28.5t29 -73.5q0 -64 -48 -109t-116 -45q-49 0 -78 29t-29 75q0 64 48.5 108t115.5 44zM702 1352q0 -28 17.5 -47t46.5 -19q35 0 66.5 28.5t31.5 67.5q0 30 -18 48t-47 18q-38 0 -67.5 -27.5t-29.5 -68.5zM55 428q0 123 50 243t131 210t190.5 146 t222.5 56q126 0 214 -70t128 -179l49 231h105l-197 -918q-4 -16 -4 -24q0 -31 35 -31l-21 -92q-31 -4 -40 -2q-74 6 -74 72q0 18 24 143q-84 -106 -201.5 -169.5t-232.5 -63.5q-114 0 -202 62.5t-132.5 164t-44.5 221.5zM891 358l74 351q-15 117 -103.5 199.5t-208.5 82.5 q-125 0 -240 -83t-183 -210.5t-68 -257.5q0 -152 87.5 -260t221.5 -108q75 0 163 38.5t160 106t97 141.5z" />
<glyph unicode="&#xe6;" horiz-adv-x="1812" d="M-4 250q0 108 66 194.5t179.5 133.5t252.5 47q135 0 256 -41q11 38 37.5 100t35.5 90q0 103 -62.5 165t-174.5 62q-152 0 -355 -127l-24 70q230 139 405 139q121 0 198.5 -59.5t96.5 -167.5q89 104 205.5 165.5t239.5 61.5q177 0 288 -122t111 -306q0 -95 -29 -163h-893 q-4 -50 -4 -74q0 -156 89 -256.5t231 -100.5q106 0 209.5 57.5t158.5 147.5l86 -24q-69 -115 -202 -188.5t-273 -73.5q-129 0 -224 64.5t-140 174.5q-57 -81 -149 -137.5t-176.5 -79t-158.5 -22.5q-131 0 -205.5 77t-74.5 193zM1640 567q9 47 9 95q0 146 -84 241.5 t-232 95.5q-162 0 -300 -122t-189 -310h796zM735 297q-12 46 -12 100q0 59 12 115q-112 41 -241 41q-174 0 -286 -78.5t-112 -204.5q0 -89 56 -149t163 -60q78 0 167 31t160 86.5t93 118.5z" />
<glyph unicode="&#xe7;" horiz-adv-x="1069" d="M674 991q-129 0 -247.5 -74t-192.5 -201t-74 -270q0 -160 86 -267t221 -107q105 0 211.5 58.5t146.5 137.5l95 -28q-54 -95 -157 -163.5t-222 -88.5q59 -65 59 -140q0 -97 -62 -150.5t-163 -53.5q-106 0 -191 55l45 61q78 -45 146 -45q72 0 116 37.5t44 97.5 q0 69 -70 130h-8q-182 0 -292 129t-110 321q0 128 51 248.5t136 209t201.5 142t240.5 53.5q140 0 231 -65t121 -182l-108 -33q-25 89 -92 138.5t-162 49.5z" />
<glyph unicode="&#xe8;" horiz-adv-x="1083" d="M729 1321l-76 -33l-123 207h115zM463 492q-123 0 -299 12q-4 -50 -4 -72q0 -103 34.5 -185.5t108 -134t176.5 -51.5q105 0 211 59.5t160 155.5l86 -26q-72 -121 -203 -195.5t-274 -74.5q-186 0 -295 128.5t-109 321.5q0 123 49 241.5t132 209.5t202 146.5t250 55.5 q87 0 161.5 -31.5t122.5 -97.5t48 -155q0 -307 -557 -307zM676 999q-93 0 -177 -34.5t-146 -93t-106.5 -132.5t-66.5 -157q184 -13 289 -13q455 0 455 232q0 97 -73 147.5t-175 50.5z" />
<glyph unicode="&#xe9;" horiz-adv-x="1083" d="M954 1495l-209 -207l-63 33l156 174h116zM463 492q-123 0 -299 12q-4 -50 -4 -72q0 -103 34.5 -185.5t108 -134t176.5 -51.5q105 0 211 59.5t160 155.5l86 -26q-72 -121 -203 -195.5t-274 -74.5q-186 0 -295 128.5t-109 321.5q0 123 49 241.5t132 209.5t202 146.5 t250 55.5q87 0 161.5 -31.5t122.5 -97.5t48 -155q0 -307 -557 -307zM676 999q-93 0 -177 -34.5t-146 -93t-106.5 -132.5t-66.5 -157q184 -13 289 -13q455 0 455 232q0 97 -73 147.5t-175 50.5z" />
<glyph unicode="&#xea;" horiz-adv-x="1083" d="M758 1389l-193 -129l-55 36l225 166h76l154 -166l-70 -36zM463 492q-123 0 -299 12q-4 -50 -4 -72q0 -103 34.5 -185.5t108 -134t176.5 -51.5q105 0 211 59.5t160 155.5l86 -26q-72 -121 -203 -195.5t-274 -74.5q-186 0 -295 128.5t-109 321.5q0 123 49 241.5t132 209.5 t202 146.5t250 55.5q87 0 161.5 -31.5t122.5 -97.5t48 -155q0 -307 -557 -307zM676 999q-93 0 -177 -34.5t-146 -93t-106.5 -132.5t-66.5 -157q184 -13 289 -13q455 0 455 232q0 97 -73 147.5t-175 50.5z" />
<glyph unicode="&#xeb;" horiz-adv-x="1083" d="M684 1491l-37 -180h-90l39 180h88zM952 1491l-37 -180h-90l39 180h88zM463 492q-123 0 -299 12q-4 -50 -4 -72q0 -103 34.5 -185.5t108 -134t176.5 -51.5q105 0 211 59.5t160 155.5l86 -26q-72 -121 -203 -195.5t-274 -74.5q-186 0 -295 128.5t-109 321.5q0 123 49 241.5 t132 209.5t202 146.5t250 55.5q87 0 161.5 -31.5t122.5 -97.5t48 -155q0 -307 -557 -307zM676 999q-93 0 -177 -34.5t-146 -93t-106.5 -132.5t-66.5 -157q184 -13 289 -13q455 0 455 232q0 97 -73 147.5t-175 50.5z" />
<glyph unicode="&#xec;" horiz-adv-x="411" d="M365 1421h114l84 -174l-76 -33zM250 1065h102l-225 -1065h-102z" />
<glyph unicode="&#xed;" horiz-adv-x="411" d="M362 1288l-63 33l156 174h116zM250 1065h102l-225 -1065h-102z" />
<glyph unicode="&#xee;" horiz-adv-x="411" d="M127 1296l225 166h76l154 -166l-70 -36l-137 129l-193 -129zM250 1065h102l-225 -1065h-102z" />
<glyph unicode="&#xef;" horiz-adv-x="411" d="M174 1311l39 180h88l-37 -180h-90zM442 1311l39 180h88l-37 -180h-90zM250 1065h102l-225 -1065h-102z" />
<glyph unicode="&#xf0;" horiz-adv-x="1177" d="M1120 1411l-196 -113q172 -236 172 -540q0 -173 -57.5 -322.5t-150.5 -247t-209 -153t-235 -55.5q-174 0 -285.5 118t-111.5 291q0 113 51.5 221t134.5 186.5t191 126.5t217 48q135 0 231 -71.5t123 -188.5q3 63 0 127q-10 236 -155 417l-254 -149l-25 51l244 141 q-83 96 -227 197h143q97 -69 168 -156l207 121zM465 72q122 0 236.5 69.5t185.5 184t71 237.5q0 135 -88.5 227.5t-226.5 92.5q-121 0 -235 -66.5t-185 -178.5t-71 -237q0 -140 87.5 -234.5t225.5 -94.5z" />
<glyph unicode="&#xf1;" horiz-adv-x="1130" d="M682 1407q-80 0 -119 -98h-67q2 9 9 26.5t23.5 43t38.5 47.5t56.5 37.5t74.5 15.5q43 0 80.5 -20.5t73 -41t76.5 -20.5q29 0 53 9.5t37.5 22.5t24 28.5t14 24t4.5 13.5h67q-2 -10 -9.5 -27.5t-25 -43t-40.5 -47t-61 -37t-81 -15.5q-39 0 -73 13t-54 28t-47.5 28t-54.5 13 zM250 1065h96l-55 -254q88 122 223 197t268 75q119 0 174.5 -64.5t55.5 -191.5q0 -77 -27 -215l-129 -612h-102l125 594q22 105 22 190q0 104 -42 154.5t-128 50.5q-127 0 -261.5 -95t-203.5 -235l-139 -659h-102z" />
<glyph unicode="&#xf2;" horiz-adv-x="1165" d="M524 1495h115l84 -174l-76 -33zM53 424q0 134 51 257t135.5 210.5t197.5 139.5t233 52q98 0 176 -35t127 -97t74.5 -142t25.5 -174q0 -132 -50 -253.5t-133.5 -209.5t-197 -140t-235.5 -52q-130 0 -223.5 61t-137 159.5t-43.5 223.5zM969 618q0 163 -82.5 268t-233.5 105 q-125 0 -238.5 -72.5t-184 -201t-70.5 -279.5q0 -162 82 -264t233 -102q125 0 238.5 71t184.5 198t71 277z" />
<glyph unicode="&#xf3;" horiz-adv-x="1165" d="M739 1288l-63 33l155 174h117zM53 424q0 134 51 257t135.5 210.5t197.5 139.5t233 52q98 0 176 -35t127 -97t74.5 -142t25.5 -174q0 -132 -50 -253.5t-133.5 -209.5t-197 -140t-235.5 -52q-130 0 -223.5 61t-137 159.5t-43.5 223.5zM969 618q0 163 -82.5 268t-233.5 105 q-125 0 -238.5 -72.5t-184 -201t-70.5 -279.5q0 -162 82 -264t233 -102q125 0 238.5 71t184.5 198t71 277z" />
<glyph unicode="&#xf4;" horiz-adv-x="1165" d="M504 1296l225 166h76l153 -166l-69 -36l-137 129l-193 -129zM53 424q0 134 51 257t135.5 210.5t197.5 139.5t233 52q98 0 176 -35t127 -97t74.5 -142t25.5 -174q0 -132 -50 -253.5t-133.5 -209.5t-197 -140t-235.5 -52q-130 0 -223.5 61t-137 159.5t-43.5 223.5zM969 618 q0 163 -82.5 268t-233.5 105q-125 0 -238.5 -72.5t-184 -201t-70.5 -279.5q0 -162 82 -264t233 -102q125 0 238.5 71t184.5 198t71 277z" />
<glyph unicode="&#xf5;" horiz-adv-x="1165" d="M621 1407q-80 0 -119 -98h-68q2 9 9 26.5t24 43t38.5 47.5t56.5 37.5t75 15.5q43 0 80 -20.5t72.5 -41t76.5 -20.5q29 0 53 9.5t37.5 22.5t24 28.5t14 24t4.5 13.5h68q-2 -10 -9.5 -27.5t-25 -43t-40.5 -47t-61 -37t-81 -15.5q-39 0 -73 13t-54 28t-47.5 28t-54.5 13z M53 424q0 134 51 257t135.5 210.5t197.5 139.5t233 52q98 0 176 -35t127 -97t74.5 -142t25.5 -174q0 -132 -50 -253.5t-133.5 -209.5t-197 -140t-235.5 -52q-130 0 -223.5 61t-137 159.5t-43.5 223.5zM969 618q0 163 -82.5 268t-233.5 105q-125 0 -238.5 -72.5t-184 -201 t-70.5 -279.5q0 -162 82 -264t233 -102q125 0 238.5 71t184.5 198t71 277z" />
<glyph unicode="&#xf6;" horiz-adv-x="1165" d="M551 1311l39 180h88l-37 -180h-90zM819 1311l39 180h88l-37 -180h-90zM53 424q0 134 51 257t135.5 210.5t197.5 139.5t233 52q98 0 176 -35t127 -97t74.5 -142t25.5 -174q0 -132 -50 -253.5t-133.5 -209.5t-197 -140t-235.5 -52q-130 0 -223.5 61t-137 159.5t-43.5 223.5 zM969 618q0 163 -82.5 268t-233.5 105q-125 0 -238.5 -72.5t-184 -201t-70.5 -279.5q0 -162 82 -264t233 -102q125 0 238.5 71t184.5 198t71 277z" />
<glyph unicode="&#xf7;" horiz-adv-x="1107" d="M498 807v166h90v-166h-90zM131 526v88h825v-88h-825zM498 166v164h90v-164h-90z" />
<glyph unicode="&#xf8;" horiz-adv-x="1165" d="M961 961q112 -128 112 -326q0 -125 -52 -245.5t-137 -210t-200 -144.5t-235 -55q-140 0 -240 81l-57 -63h-78l94 102q-115 127 -115 324q0 127 53.5 248.5t140 211t202 144.5t233.5 55q138 0 236 -82l61 66h78zM662 991q-91 0 -182 -46t-161.5 -121t-114.5 -178t-44 -210 q0 -150 82 -256l608 740q-80 71 -188 71zM465 72q91 0 183 45.5t162.5 119.5t114.5 176t44 208q0 152 -82 258l-608 -738q79 -69 186 -69z" />
<glyph unicode="&#xf9;" horiz-adv-x="1150" d="M537 1495h114l84 -174l-76 -33zM84 258q0 77 22 193l134 614h100l-127 -600q-23 -108 -23 -174q0 -219 191 -219q129 0 257 88.5t202 232.5l141 672h102l-188 -891q-1 -7 -4 -19t-4.5 -19.5t-1.5 -10.5q0 -33 35 -33l-21 -92q-18 -2 -45 -2q-32 4 -50 23.5t-18 48.5 q0 26 35 182q-93 -127 -224 -199.5t-265 -72.5q-248 0 -248 278z" />
<glyph unicode="&#xfa;" horiz-adv-x="1150" d="M752 1288l-64 33l156 174h117zM84 258q0 77 22 193l134 614h100l-127 -600q-23 -108 -23 -174q0 -219 191 -219q129 0 257 88.5t202 232.5l141 672h102l-188 -891q-1 -7 -4 -19t-4.5 -19.5t-1.5 -10.5q0 -33 35 -33l-21 -92q-18 -2 -45 -2q-32 4 -50 23.5t-18 48.5 q0 26 35 182q-93 -127 -224 -199.5t-265 -72.5q-248 0 -248 278z" />
<glyph unicode="&#xfb;" horiz-adv-x="1150" d="M516 1296l225 166h76l154 -166l-70 -36l-137 129l-193 -129zM84 258q0 77 22 193l134 614h100l-127 -600q-23 -108 -23 -174q0 -219 191 -219q129 0 257 88.5t202 232.5l141 672h102l-188 -891q-1 -7 -4 -19t-4.5 -19.5t-1.5 -10.5q0 -33 35 -33l-21 -92q-18 -2 -45 -2 q-32 4 -50 23.5t-18 48.5q0 26 35 182q-93 -127 -224 -199.5t-265 -72.5q-248 0 -248 278z" />
<glyph unicode="&#xfc;" horiz-adv-x="1150" d="M563 1311l39 180h88l-37 -180h-90zM831 1311l39 180h88l-36 -180h-91zM84 258q0 77 22 193l134 614h100l-127 -600q-23 -108 -23 -174q0 -219 191 -219q129 0 257 88.5t202 232.5l141 672h102l-188 -891q-1 -7 -4 -19t-4.5 -19.5t-1.5 -10.5q0 -33 35 -33l-21 -92 q-18 -2 -45 -2q-32 4 -50 23.5t-18 48.5q0 26 35 182q-93 -127 -224 -199.5t-265 -72.5q-248 0 -248 278z" />
<glyph unicode="&#xfd;" horiz-adv-x="962" d="M651 1288l-63 33l155 174h117zM-74 -375q64 11 107 27t82 48t69.5 71t75.5 108l74 111l-228 1075h107l193 -965l98 156q182 294 262 458t131 351h102q-56 -200 -137.5 -365.5t-283.5 -488.5l-168 -264q-143 -229 -238.5 -311.5t-232.5 -94.5z" />
<glyph unicode="&#xfe;" horiz-adv-x="1181" d="M-68 -436l402 1890h104l-127 -590q83 99 196.5 159t223.5 60q116 0 204 -64t131.5 -165t43.5 -221q0 -163 -80 -314t-218.5 -245t-295.5 -94q-123 0 -211 69t-129 180l-141 -665h-103zM512 72q97 0 189.5 49t158 126.5t105 176t39.5 194.5q0 155 -87.5 264t-226.5 109 q-70 0 -156.5 -39t-160 -106.5t-97.5 -140.5l-75 -351q26 -122 110 -202t201 -80z" />
<glyph unicode="&#xff;" horiz-adv-x="962" d="M463 1311l39 180h88l-37 -180h-90zM731 1311l39 180h88l-37 -180h-90zM-74 -375q64 11 107 27t82 48t69.5 71t75.5 108l74 111l-228 1075h107l193 -965l98 156q182 294 262 458t131 351h102q-56 -200 -137.5 -365.5t-283.5 -488.5l-168 -264q-143 -229 -238.5 -311.5 t-232.5 -94.5z" />
<glyph unicode="&#x100;" horiz-adv-x="1329" d="M641 1763l16 76h557l-16 -76h-557zM807 1454h90l272 -1454h-110l-90 479h-654l-290 -479h-113zM961 565l-136 762l-467 -762h603z" />
<glyph unicode="&#x101;" horiz-adv-x="1210" d="M506 1374l16 76h557l-16 -76h-557zM55 428q0 123 50 243t131 210t190.5 146t222.5 56q126 0 214 -70t128 -179l49 231h105l-197 -918q-4 -16 -4 -24q0 -31 35 -31l-21 -92q-31 -4 -40 -2q-74 6 -74 72q0 18 24 143q-84 -106 -201.5 -169.5t-232.5 -63.5q-114 0 -202 62.5 t-132.5 164t-44.5 221.5zM891 358l74 351q-15 117 -103.5 199.5t-208.5 82.5q-125 0 -240 -83t-183 -210.5t-68 -257.5q0 -152 87.5 -260t221.5 -108q75 0 163 38.5t160 106t97 141.5z" />
<glyph unicode="&#x102;" horiz-adv-x="1329" d="M1057 1884h65q-17 -78 -80 -133t-135 -55q-62 0 -101.5 41.5t-39.5 105.5q0 13 4 41h68q-2 -10 -2 -29q0 -42 24 -72t60 -30q40 0 80 38t57 93zM807 1454h90l272 -1454h-110l-90 479h-654l-290 -479h-113zM961 565l-136 762l-467 -762h603z" />
<glyph unicode="&#x103;" horiz-adv-x="1210" d="M922 1495h65q-17 -78 -80 -133t-135 -55q-62 0 -101.5 41.5t-39.5 105.5q0 13 4 41h67q-2 -10 -2 -29q0 -42 24 -72t60 -30q40 0 80.5 38t57.5 93zM55 428q0 123 50 243t131 210t190.5 146t222.5 56q126 0 214 -70t128 -179l49 231h105l-197 -918q-4 -16 -4 -24 q0 -31 35 -31l-21 -92q-31 -4 -40 -2q-74 6 -74 72q0 18 24 143q-84 -106 -201.5 -169.5t-232.5 -63.5q-114 0 -202 62.5t-132.5 164t-44.5 221.5zM891 358l74 351q-15 117 -103.5 199.5t-208.5 82.5q-125 0 -240 -83t-183 -210.5t-68 -257.5q0 -152 87.5 -260t221.5 -108 q75 0 163 38.5t160 106t97 141.5z" />
<glyph unicode="&#x104;" horiz-adv-x="1329" d="M1008 -215q0 -29 22 -46t70 -28l-45 -69q-119 22 -119 118q0 58 38 115t118 125h-33l-90 479h-654l-290 -479h-113l895 1454h90l272 -1454q-88 -74 -124.5 -123t-36.5 -92zM358 565h603l-136 762z" />
<glyph unicode="&#x105;" horiz-adv-x="1210" d="M944 123q0 -31 35 -31l-21 -92q-88 -74 -124.5 -123t-36.5 -92q0 -29 22 -46t70 -28l-45 -69q-119 22 -119 118q0 59 39.5 117t122.5 127q-43 18 -43 66q0 18 24 143q-84 -106 -201.5 -169.5t-232.5 -63.5q-114 0 -202 62.5t-132.5 164t-44.5 221.5q0 123 50 243t131 210 t190.5 146t222.5 56q126 0 214 -70t128 -179l49 231h105l-197 -918q-4 -16 -4 -24zM471 72q75 0 163 38.5t160 106t97 141.5l74 351q-15 117 -103.5 199.5t-208.5 82.5q-125 0 -240 -83t-183 -210.5t-68 -257.5q0 -152 87.5 -260t221.5 -108z" />
<glyph unicode="&#x106;" horiz-adv-x="1349" d="M932 1677l-64 33l156 174h117zM100 590q0 123 38 248t112 236.5t172 198.5t227 138t269 51q186 0 300 -86.5t150 -230.5l-90 -45q-77 266 -373 266q-124 0 -236 -45.5t-195 -123t-144.5 -176.5t-93 -208.5t-31.5 -216.5q0 -139 51 -254t152 -186.5t235 -71.5 q133 0 268.5 72t231.5 213l82 -43q-103 -162 -268.5 -250t-331.5 -88q-124 0 -225.5 51.5t-166 137t-99 192t-34.5 221.5z" />
<glyph unicode="&#x107;" horiz-adv-x="1069" d="M745 1288l-63 33l156 174h116zM55 430q0 128 51 248.5t136 209t201.5 142t240.5 53.5q140 0 231 -65t121 -182l-108 -33q-25 89 -92 138.5t-162 49.5q-129 0 -247.5 -74t-192.5 -201t-74 -270q0 -160 86 -267t221 -107q105 0 211.5 58.5t146.5 137.5l95 -28 q-63 -113 -194 -186.5t-269 -73.5q-182 0 -292 129t-110 321z" />
<glyph unicode="&#x108;" horiz-adv-x="1349" d="M696 1686l226 165h75l154 -165l-70 -37l-137 129l-192 -129zM100 590q0 123 38 248t112 236.5t172 198.5t227 138t269 51q186 0 300 -86.5t150 -230.5l-90 -45q-77 266 -373 266q-124 0 -236 -45.5t-195 -123t-144.5 -176.5t-93 -208.5t-31.5 -216.5q0 -139 51 -254 t152 -186.5t235 -71.5q133 0 268.5 72t231.5 213l82 -43q-103 -162 -268.5 -250t-331.5 -88q-124 0 -225.5 51.5t-166 137t-99 192t-34.5 221.5z" />
<glyph unicode="&#x109;" horiz-adv-x="1069" d="M510 1296l225 166h76l154 -166l-70 -36l-137 129l-193 -129zM55 430q0 128 51 248.5t136 209t201.5 142t240.5 53.5q140 0 231 -65t121 -182l-108 -33q-25 89 -92 138.5t-162 49.5q-129 0 -247.5 -74t-192.5 -201t-74 -270q0 -160 86 -267t221 -107q105 0 211.5 58.5 t146.5 137.5l95 -28q-63 -113 -194 -186.5t-269 -73.5q-182 0 -292 129t-110 321z" />
<glyph unicode="&#x10a;" horiz-adv-x="1349" d="M877 1700l38 184h95l-39 -184h-94zM100 590q0 123 38 248t112 236.5t172 198.5t227 138t269 51q186 0 300 -86.5t150 -230.5l-90 -45q-77 266 -373 266q-124 0 -236 -45.5t-195 -123t-144.5 -176.5t-93 -208.5t-31.5 -216.5q0 -139 51 -254t152 -186.5t235 -71.5 q133 0 268.5 72t231.5 213l82 -43q-103 -162 -268.5 -250t-331.5 -88q-124 0 -225.5 51.5t-166 137t-99 192t-34.5 221.5z" />
<glyph unicode="&#x10b;" horiz-adv-x="1069" d="M690 1311l39 184h94l-39 -184h-94zM55 430q0 128 51 248.5t136 209t201.5 142t240.5 53.5q140 0 231 -65t121 -182l-108 -33q-25 89 -92 138.5t-162 49.5q-129 0 -247.5 -74t-192.5 -201t-74 -270q0 -160 86 -267t221 -107q105 0 211.5 58.5t146.5 137.5l95 -28 q-63 -113 -194 -186.5t-269 -73.5q-182 0 -292 129t-110 321z" />
<glyph unicode="&#x10c;" horiz-adv-x="1349" d="M713 1849l69 35l138 -129l192 129l53 -35l-223 -166h-76zM100 590q0 123 38 248t112 236.5t172 198.5t227 138t269 51q186 0 300 -86.5t150 -230.5l-90 -45q-77 266 -373 266q-124 0 -236 -45.5t-195 -123t-144.5 -176.5t-93 -208.5t-31.5 -216.5q0 -139 51 -254 t152 -186.5t235 -71.5q133 0 268.5 72t231.5 213l82 -43q-103 -162 -268.5 -250t-331.5 -88q-124 0 -225.5 51.5t-166 137t-99 192t-34.5 221.5z" />
<glyph unicode="&#x10d;" horiz-adv-x="1069" d="M526 1460l70 35l137 -129l193 129l53 -35l-223 -166h-76zM55 430q0 128 51 248.5t136 209t201.5 142t240.5 53.5q140 0 231 -65t121 -182l-108 -33q-25 89 -92 138.5t-162 49.5q-129 0 -247.5 -74t-192.5 -201t-74 -270q0 -160 86 -267t221 -107q105 0 211.5 58.5 t146.5 137.5l95 -28q-63 -113 -194 -186.5t-269 -73.5q-182 0 -292 129t-110 321z" />
<glyph unicode="&#x10e;" horiz-adv-x="1409" d="M662 1847l69 35l137 -129l193 129l53 -35l-223 -166h-76zM365 1454h460q131 0 233.5 -42.5t165.5 -118.5t95.5 -175.5t32.5 -218.5q0 -255 -108 -460.5t-299.5 -322t-428.5 -116.5h-461zM537 94q128 0 241 42t197 116t145 173t92 215.5t31 240.5q0 217 -113 348t-325 131 h-356l-269 -1266h357z" />
<glyph unicode="&#x10f;" horiz-adv-x="1210" d="M55 428q0 164 83.5 316t222 245.5t290.5 93.5q124 0 212.5 -70t127.5 -179l139 661h105l-287 -1348q-4 -20 -4 -24q0 -31 35 -31l-21 -92q-18 -2 -45 -2q-33 4 -51 24t-18 50q0 27 24 141q-83 -106 -200.5 -169.5t-229.5 -63.5q-117 0 -205.5 63t-133 163.5t-44.5 221.5z M1255 1321l156 174h117l-207 -207zM891 358l74 351q-15 116 -107.5 199t-202.5 83q-97 0 -189.5 -49.5t-158 -127t-105.5 -176t-40 -194.5q0 -156 88 -264t227 -108q110 0 243.5 87t170.5 199z" />
<glyph unicode="&#x110;" horiz-adv-x="1423" d="M840 1454q131 0 233 -42.5t165.5 -118.5t95.5 -175.5t32 -218.5q0 -255 -108 -460.5t-299.5 -322t-428.5 -116.5h-460l145 688h-123l19 86h122l146 680h461zM551 94q128 0 241 42t197 116t145 173t92 215.5t31 240.5q0 217 -113 348t-325 131h-356l-125 -586h346l-18 -86 h-347l-124 -594h356z" />
<glyph unicode="&#x111;" horiz-adv-x="1210" d="M1186 1268l-238 -1121q-4 -20 -4 -24q0 -31 35 -31l-21 -92q-18 -2 -45 -2q-33 4 -51 24t-18 50q0 27 24 141q-83 -106 -200.5 -169.5t-229.5 -63.5q-117 0 -205.5 63t-133 163.5t-44.5 221.5q0 164 83.5 316t222 245.5t290.5 93.5q124 0 212.5 -70t127.5 -179l92 434 h-217l15 73h217l32 154h105l-33 -154h152l-17 -73h-151zM891 358l74 351q-15 116 -107.5 199t-202.5 83q-97 0 -189.5 -49.5t-158 -127t-105.5 -176t-40 -194.5q0 -156 88 -264t227 -108q110 0 243.5 87t170.5 199z" />
<glyph unicode="&#x112;" horiz-adv-x="1196" d="M582 1763l16 76h557l-16 -76h-557zM365 1454h903l-19 -94h-800l-121 -572h698l-20 -90h-697l-129 -604h817l-20 -94h-922z" />
<glyph unicode="&#x113;" horiz-adv-x="1083" d="M487 1450h557l-16 -76h-557zM688 1083q87 0 161.5 -31.5t122.5 -97.5t48 -155q0 -307 -557 -307q-123 0 -299 12q-4 -50 -4 -72q0 -103 34.5 -185.5t108 -134t176.5 -51.5q105 0 211 59.5t160 155.5l86 -26q-72 -121 -203 -195.5t-274 -74.5q-186 0 -295 128.5 t-109 321.5q0 123 49 241.5t132 209.5t202 146.5t250 55.5zM469 569q455 0 455 232q0 97 -73 147.5t-175 50.5q-93 0 -177 -34.5t-146 -93t-106.5 -132.5t-66.5 -157q184 -13 289 -13z" />
<glyph unicode="&#x114;" horiz-adv-x="1196" d="M997 1884h66q-17 -78 -80 -133t-135 -55q-62 0 -101.5 41.5t-39.5 105.5q0 13 4 41h67q-2 -10 -2 -29q0 -42 24 -72t60 -30q40 0 80 38t57 93zM365 1454h903l-19 -94h-800l-121 -572h698l-20 -90h-697l-129 -604h817l-20 -94h-922z" />
<glyph unicode="&#x115;" horiz-adv-x="1083" d="M737 1307q-62 0 -101.5 41.5t-39.5 105.5q0 13 4 41h68q-2 -10 -2 -29q0 -42 24 -72t60 -30q40 0 80 38t57 93h65q-17 -78 -80 -133t-135 -55zM463 492q-123 0 -299 12q-4 -50 -4 -72q0 -103 34.5 -185.5t108 -134t176.5 -51.5q105 0 211 59.5t160 155.5l86 -26 q-72 -121 -203 -195.5t-274 -74.5q-186 0 -295 128.5t-109 321.5q0 123 49 241.5t132 209.5t202 146.5t250 55.5q87 0 161.5 -31.5t122.5 -97.5t48 -155q0 -307 -557 -307zM676 999q-93 0 -177 -34.5t-146 -93t-106.5 -132.5t-66.5 -157q184 -13 289 -13q455 0 455 232 q0 97 -73 147.5t-175 50.5z" />
<glyph unicode="&#x116;" horiz-adv-x="1196" d="M801 1700l39 184h94l-39 -184h-94zM365 1454h903l-19 -94h-800l-121 -572h698l-20 -90h-697l-129 -604h817l-20 -94h-922z" />
<glyph unicode="&#x117;" horiz-adv-x="1083" d="M823 1495l-39 -184h-94l39 184h94zM463 492q-123 0 -299 12q-4 -50 -4 -72q0 -103 34.5 -185.5t108 -134t176.5 -51.5q105 0 211 59.5t160 155.5l86 -26q-72 -121 -203 -195.5t-274 -74.5q-186 0 -295 128.5t-109 321.5q0 123 49 241.5t132 209.5t202 146.5t250 55.5 q87 0 161.5 -31.5t122.5 -97.5t48 -155q0 -307 -557 -307zM676 999q-93 0 -177 -34.5t-146 -93t-106.5 -132.5t-66.5 -157q184 -13 289 -13q455 0 455 232q0 97 -73 147.5t-175 50.5z" />
<glyph unicode="&#x118;" horiz-adv-x="1196" d="M1249 1360h-800l-121 -572h698l-20 -90h-697l-129 -604h817l-20 -94q-89 -75 -125.5 -123.5t-36.5 -91.5q0 -29 22 -46t70 -28l-45 -69q-119 22 -119 118q0 58 38 115t118 125h-844l310 1454h903z" />
<glyph unicode="&#x119;" horiz-adv-x="1083" d="M463 492q-123 0 -299 12q-4 -50 -4 -72q0 -103 34.5 -185.5t108 -134t176.5 -51.5q105 0 211 59.5t160 155.5l86 -26q-63 -105 -172 -176t-234 -90q-78 -68 -110.5 -113t-32.5 -86q0 -29 22 -46t70 -28l-45 -69q-119 22 -119 118q0 54 31.5 106.5t99.5 113.5 q-121 3 -211 64.5t-135 162t-45 223.5t49 241.5t132 209.5t202 146.5t250 55.5q87 0 161.5 -31.5t122.5 -97.5t48 -155q0 -307 -557 -307zM676 999q-93 0 -177 -34.5t-146 -93t-106.5 -132.5t-66.5 -157q184 -13 289 -13q455 0 455 232q0 97 -73 147.5t-175 50.5z" />
<glyph unicode="&#x11a;" horiz-adv-x="1196" d="M637 1849l70 35l137 -129l192 129l54 -35l-224 -166h-75zM365 1454h903l-19 -94h-800l-121 -572h698l-20 -90h-697l-129 -604h817l-20 -94h-922z" />
<glyph unicode="&#x11b;" horiz-adv-x="1083" d="M756 1294h-76l-154 166l70 35l137 -129l193 129l53 -35zM463 492q-123 0 -299 12q-4 -50 -4 -72q0 -103 34.5 -185.5t108 -134t176.5 -51.5q105 0 211 59.5t160 155.5l86 -26q-72 -121 -203 -195.5t-274 -74.5q-186 0 -295 128.5t-109 321.5q0 123 49 241.5t132 209.5 t202 146.5t250 55.5q87 0 161.5 -31.5t122.5 -97.5t48 -155q0 -307 -557 -307zM676 999q-93 0 -177 -34.5t-146 -93t-106.5 -132.5t-66.5 -157q184 -13 289 -13q455 0 455 232q0 97 -73 147.5t-175 50.5z" />
<glyph unicode="&#x11c;" horiz-adv-x="1406" d="M983 1772l-192 -130l-56 37l226 166h75l154 -166l-70 -37zM893 623l18 84h402l-150 -707h-92l49 225q-250 -235 -512 -235q-95 0 -177.5 33.5t-142.5 91.5t-103 135t-64 166.5t-21 183.5q0 130 42 258.5t118.5 236.5t177 191.5t225.5 130.5t255 47q190 0 302.5 -85 t149.5 -232l-94 -51q-75 272 -375 272q-115 0 -223.5 -43.5t-192.5 -118.5t-148 -171.5t-98 -208t-34 -222.5q0 -105 31 -199.5t86 -165t138 -112t181 -41.5q243 0 504 258l59 279h-311z" />
<glyph unicode="&#x11d;" horiz-adv-x="1200" d="M510 1296l225 166h76l154 -166l-70 -36l-137 129l-193 -129zM-59 -211l77 47q36 -104 126 -156.5t212 -52.5q162 0 288 92.5t163 260.5l49 233q-82 -103 -199 -166t-229 -63q-114 0 -201 63t-130.5 163t-43.5 218q0 162 82.5 313.5t222.5 246.5t297 95q231 0 344 -249 l50 231h92l-232 -1085q-22 -105 -78.5 -189.5t-134 -138t-169.5 -81.5t-189 -28q-169 0 -262 63t-135 183zM889 358l74 351q-19 123 -107 202.5t-205 79.5q-100 0 -192.5 -51t-157 -130.5t-103 -176.5t-38.5 -189q0 -156 87 -264t226 -108q124 0 251 90t165 196z" />
<glyph unicode="&#x11e;" horiz-adv-x="1406" d="M963 1690q-63 0 -102.5 41.5t-39.5 105.5q0 13 4 41h68q-2 -10 -2 -29q0 -42 24 -72t60 -30q40 0 80 38t57 93h66q-17 -78 -80 -133t-135 -55zM893 623l18 84h402l-150 -707h-92l49 225q-250 -235 -512 -235q-95 0 -177.5 33.5t-142.5 91.5t-103 135t-64 166.5t-21 183.5 q0 130 42 258.5t118.5 236.5t177 191.5t225.5 130.5t255 47q190 0 302.5 -85t149.5 -232l-94 -51q-75 272 -375 272q-115 0 -223.5 -43.5t-192.5 -118.5t-148 -171.5t-98 -208t-34 -222.5q0 -105 31 -199.5t86 -165t138 -112t181 -41.5q243 0 504 258l59 279h-311z" />
<glyph unicode="&#x11f;" horiz-adv-x="1200" d="M887 1495h65q-17 -78 -80 -133t-135 -55q-62 0 -101.5 41.5t-39.5 105.5q0 13 4 41h68q-2 -10 -2 -29q0 -42 24 -72t60 -30q40 0 80 38t57 93zM-59 -211l77 47q36 -104 126 -156.5t212 -52.5q162 0 288 92.5t163 260.5l49 233q-82 -103 -199 -166t-229 -63 q-114 0 -201 63t-130.5 163t-43.5 218q0 162 82.5 313.5t222.5 246.5t297 95q231 0 344 -249l50 231h92l-232 -1085q-22 -105 -78.5 -189.5t-134 -138t-169.5 -81.5t-189 -28q-169 0 -262 63t-135 183zM889 358l74 351q-19 123 -107 202.5t-205 79.5q-100 0 -192.5 -51 t-157 -130.5t-103 -176.5t-38.5 -189q0 -156 87 -264t226 -108q124 0 251 90t165 196z" />
<glyph unicode="&#x120;" horiz-adv-x="1406" d="M1049 1878l-39 -184h-95l39 184h95zM893 623l18 84h402l-150 -707h-92l49 225q-250 -235 -512 -235q-95 0 -177.5 33.5t-142.5 91.5t-103 135t-64 166.5t-21 183.5q0 130 42 258.5t118.5 236.5t177 191.5t225.5 130.5t255 47q190 0 302.5 -85t149.5 -232l-94 -51 q-75 272 -375 272q-115 0 -223.5 -43.5t-192.5 -118.5t-148 -171.5t-98 -208t-34 -222.5q0 -105 31 -199.5t86 -165t138 -112t181 -41.5q243 0 504 258l59 279h-311z" />
<glyph unicode="&#x121;" horiz-adv-x="1200" d="M690 1311l39 184h94l-39 -184h-94zM-59 -211l77 47q36 -104 126 -156.5t212 -52.5q162 0 288 92.5t163 260.5l49 233q-82 -103 -199 -166t-229 -63q-114 0 -201 63t-130.5 163t-43.5 218q0 162 82.5 313.5t222.5 246.5t297 95q231 0 344 -249l50 231h92l-232 -1085 q-22 -105 -78.5 -189.5t-134 -138t-169.5 -81.5t-189 -28q-169 0 -262 63t-135 183zM889 358l74 351q-19 123 -107 202.5t-205 79.5q-100 0 -192.5 -51t-157 -130.5t-103 -176.5t-38.5 -189q0 -156 87 -264t226 -108q124 0 251 90t165 196z" />
<glyph unicode="&#x122;" horiz-adv-x="1406" d="M893 623l18 84h402l-150 -707h-92l49 225q-250 -235 -512 -235q-95 0 -177.5 33.5t-142.5 91.5t-103 135t-64 166.5t-21 183.5q0 130 42 258.5t118.5 236.5t177 191.5t225.5 130.5t255 47q190 0 302.5 -85t149.5 -232l-94 -51q-75 272 -375 272q-115 0 -223.5 -43.5 t-192.5 -118.5t-148 -171.5t-98 -208t-34 -222.5q0 -105 31 -199.5t86 -165t138 -112t181 -41.5q243 0 504 258l59 279h-311zM528 -244l33 144h98l-30 -144l-70 -139h-55l57 139h-33z" />
<glyph unicode="&#x123;" horiz-adv-x="1200" d="M817 1495l-51 -127h27l-33 -135h-76l35 135l57 127h41zM-59 -211l77 47q36 -104 126 -156.5t212 -52.5q162 0 288 92.5t163 260.5l49 233q-82 -103 -199 -166t-229 -63q-114 0 -201 63t-130.5 163t-43.5 218q0 162 82.5 313.5t222.5 246.5t297 95q231 0 344 -249l50 231 h92l-232 -1085q-22 -105 -78.5 -189.5t-134 -138t-169.5 -81.5t-189 -28q-169 0 -262 63t-135 183zM889 358l74 351q-19 123 -107 202.5t-205 79.5q-100 0 -192.5 -51t-157 -130.5t-103 -176.5t-38.5 -189q0 -156 87 -264t226 -108q124 0 251 90t165 196z" />
<glyph unicode="&#x124;" horiz-adv-x="1445" d="M745 1686l226 165h76l153 -165l-70 -37l-137 129l-192 -129zM365 1454h104l-141 -663h864l141 663h105l-310 -1454h-104l147 696h-862l-149 -696h-105z" />
<glyph unicode="&#x125;" horiz-adv-x="1130" d="M592 1683l217 166h74l149 -166l-67 -34l-134 127l-186 -127zM342 1495h102l-145 -684q88 125 213.5 198.5t251.5 73.5q244 0 244 -276q0 -91 -23 -195l-129 -612h-102l125 594q20 110 20 170q0 225 -186 225q-122 0 -251.5 -95t-195.5 -235l-139 -659h-102z" />
<glyph unicode="&#x126;" horiz-adv-x="1464" d="M1489 1194l-14 -66h-97l-239 -1128h-105l148 696h-865l-147 -696h-104l239 1128h-96l14 66h96l56 260h104l-55 -260h864l55 260h105l-55 -260h96zM1202 791l72 337h-864l-72 -337h864z" />
<glyph unicode="&#x127;" horiz-adv-x="1130" d="M764 1083q244 0 244 -276q0 -91 -23 -195l-129 -612h-102l125 594q20 110 20 170q0 225 -186 225q-122 0 -251.5 -95t-195.5 -235l-139 -659h-102l268 1268h-141l14 73h143l33 154h102l-32 -154h225l-16 -73h-226l-96 -457q88 125 213.5 198.5t251.5 73.5z" />
<glyph unicode="&#x128;" horiz-adv-x="477" d="M358 1792q-79 0 -118 -98h-68q2 9 9 26.5t24 43t38.5 47.5t56.5 37.5t75 15.5q43 0 80 -20.5t72.5 -41t76.5 -20.5q29 0 53 9.5t37.5 22.5t24 28.5t14 24t4.5 13.5h68q-2 -10 -9.5 -27.5t-25 -43t-40.5 -47t-61 -37t-81 -15.5q-49 0 -89 20.5t-74 41t-67 20.5zM365 1452 h104l-309 -1452h-105z" />
<glyph unicode="&#x129;" horiz-adv-x="411" d="M414 1323q-80 0 -119 -98h-68q2 9 9 26.5t24 43t38.5 47.5t56.5 37.5t75 15.5q43 0 80 -20.5t72.5 -41t76.5 -20.5q29 0 53 9.5t38 22.5t24.5 28.5t14 24t4.5 13.5h67q-2 -10 -9.5 -27.5t-25 -43t-40.5 -47t-61 -37t-81 -15.5q-39 0 -73 13t-54 28t-47.5 28t-54.5 13z M250 1065h102l-225 -1065h-102z" />
<glyph unicode="&#x12a;" horiz-adv-x="477" d="M203 1759l16 76h557l-16 -76h-557zM365 1452h104l-309 -1452h-105z" />
<glyph unicode="&#x12b;" horiz-adv-x="411" d="M88 1374l16 76h558l-17 -76h-557zM250 1065h102l-225 -1065h-102z" />
<glyph unicode="&#x12c;" horiz-adv-x="477" d="M618 1880h66q-17 -78 -80 -133t-135 -55q-62 0 -101.5 41.5t-39.5 105.5q0 13 4 41h67q-2 -10 -2 -29q0 -42 24 -72t60 -30q40 0 80 38t57 93zM365 1452h104l-309 -1452h-105z" />
<glyph unicode="&#x12d;" horiz-adv-x="411" d="M504 1495h65q-17 -78 -80 -133t-135 -55q-62 0 -101.5 41.5t-39.5 105.5q0 13 4 41h68q-2 -10 -2 -29q0 -42 24 -72t60 -30q40 0 80 38t57 93zM250 1065h102l-225 -1065h-102z" />
<glyph unicode="&#x12e;" horiz-adv-x="477" d="M160 0q-89 -75 -125.5 -123.5t-36.5 -91.5q0 -29 22 -46t70 -28l-45 -69q-119 22 -119 118q0 58 38 115t118 125h-27l310 1452h104z" />
<glyph unicode="&#x12f;" horiz-adv-x="411" d="M342 1495h102l-38 -188h-103zM25 0l225 1065h102l-225 -1065q-89 -75 -125.5 -123.5t-36.5 -91.5q0 -29 22 -46t70 -28l-45 -69q-118 21 -118 118q0 59 37.5 115.5t117.5 124.5h-24z" />
<glyph unicode="&#x130;" horiz-adv-x="477" d="M422 1696l39 184h94l-39 -184h-94zM365 1452h104l-309 -1452h-105z" />
<glyph unicode="&#x131;" horiz-adv-x="411" d="M250 1065h102l-225 -1065h-102z" />
<glyph unicode="&#x134;" horiz-adv-x="950" d="M735 1679l226 166h75l154 -166l-70 -37l-137 130l-192 -130zM-72 68l52 84q95 -80 253 -80q63 0 115 15t92 41t74 71t58.5 93t48 120t40.5 140t37 163l158 737h105l-158 -737q-23 -108 -42.5 -185t-47.5 -159.5t-58.5 -138t-73.5 -107.5t-94.5 -82t-120 -48t-151.5 -18 q-169 0 -287 91z" />
<glyph unicode="&#x135;" horiz-adv-x="411" d="M145 1296l226 166h75l154 -166l-70 -36l-137 129l-192 -129zM-434 -287l69 68q41 -49 138 -49q75 0 147 60t90 147l240 1126h102l-239 -1122q-27 -129 -133 -217t-218 -88q-135 0 -196 75z" />
<glyph unicode="&#x136;" horiz-adv-x="1241" d="M365 1452h104l-188 -881l987 883h121l-709 -637l428 -817h-117l-389 754l-346 -305l-96 -449h-105zM414 -383l57 139h-33l33 144h98l-30 -144l-70 -139h-55z" />
<glyph unicode="&#x137;" horiz-adv-x="1085" d="M1049 872q0 -134 -109 -239.5t-303 -157.5l242 -475h-113l-254 522q210 43 324 133t114 203q0 70 -43 106.5t-121 36.5q-133 0 -272.5 -111t-263.5 -312l-123 -578h-102l317 1495h102l-159 -756q249 348 526 348q115 0 176.5 -57t61.5 -158zM326 -244l32 144h99l-31 -144 l-70 -139h-55l57 139h-32z" />
<glyph unicode="&#x138;" horiz-adv-x="1021" d="M250 1065h102l-129 -614l738 612h118l-514 -432l303 -631h-112l-273 569l-284 -231l-72 -338h-102z" />
<glyph unicode="&#x139;" horiz-adv-x="1136" d="M471 1677l-63 33l155 174h117zM365 1454h104l-289 -1360h821l-20 -94h-926z" />
<glyph unicode="&#x13a;" horiz-adv-x="509" d="M461 1718l-64 33l156 174h117zM63 129q0 19 7 51l278 1315h103l-273 -1284q-4 -28 -4 -37q0 -43 25.5 -67.5t74.5 -24.5q53 0 111 20v-82q-35 -13 -86.5 -22.5t-87.5 -9.5q-69 0 -108.5 37.5t-39.5 103.5z" />
<glyph unicode="&#x13b;" horiz-adv-x="1136" d="M365 1454h104l-289 -1360h821l-20 -94h-926zM393 -383l58 139h-33l33 144h98l-31 -144l-69 -139h-56z" />
<glyph unicode="&#x13c;" horiz-adv-x="509" d="M63 129q0 19 7 51l278 1315h103l-273 -1284q-4 -28 -4 -37q0 -43 25.5 -67.5t74.5 -24.5q53 0 111 20v-82q-35 -13 -86.5 -22.5t-87.5 -9.5q-69 0 -108.5 37.5t-39.5 103.5zM84 -383l57 139h-32l32 144h99l-31 -144l-70 -139h-55z" />
<glyph unicode="&#x13d;" horiz-adv-x="1136" d="M936 1321l156 174h116l-207 -207zM365 1454h104l-289 -1360h821l-20 -94h-926z" />
<glyph unicode="&#x13e;" horiz-adv-x="509" d="M63 129q0 19 7 51l278 1315h103l-273 -1284q-4 -28 -4 -37q0 -43 25.5 -67.5t74.5 -24.5q53 0 111 20v-82q-35 -13 -86.5 -22.5t-87.5 -9.5q-69 0 -108.5 37.5t-39.5 103.5zM481 1321l156 174h117l-207 -207z" />
<glyph unicode="&#x13f;" horiz-adv-x="1136" d="M365 1454h104l-289 -1360h821l-20 -94h-926zM678 723l45 207h88l-43 -207h-90z" />
<glyph unicode="&#x140;" horiz-adv-x="567" d="M63 129q0 19 7 51l278 1315h103l-273 -1284q-4 -28 -4 -37q0 -43 25.5 -67.5t74.5 -24.5q53 0 111 20v-82q-35 -13 -86.5 -22.5t-87.5 -9.5q-69 0 -108.5 37.5t-39.5 103.5zM432 530l45 207h88l-43 -207h-90z" />
<glyph unicode="&#x141;" horiz-adv-x="1150" d="M180 94h821l-20 -94h-926l119 557l-121 -94l-24 63l166 129l170 799h104l-150 -700l406 315l25 -61l-451 -353z" />
<glyph unicode="&#x142;" horiz-adv-x="544" d="M307 82q51 0 113 20l2 -82q-87 -32 -176 -32q-70 0 -109 37t-39 102q0 26 6 53l115 541l-156 -117l-26 60l203 151l143 680h102l-125 -588l209 158l29 -61l-258 -193l-123 -584q-8 -27 -8 -53q0 -43 25.5 -67.5t72.5 -24.5z" />
<glyph unicode="&#x143;" horiz-adv-x="1517" d="M1024 1671l-63 33l155 174h117zM365 1454h81l689 -1280l270 1278h104l-309 -1452h-92l-680 1257l-268 -1257h-105z" />
<glyph unicode="&#x144;" horiz-adv-x="1130" d="M801 1288l-64 33l156 174h117zM250 1065h96l-55 -254q88 122 223 197t268 75q119 0 174.5 -64.5t55.5 -191.5q0 -77 -27 -215l-129 -612h-102l125 594q22 105 22 190q0 104 -42 154.5t-128 50.5q-127 0 -261.5 -95t-203.5 -235l-139 -659h-102z" />
<glyph unicode="&#x145;" horiz-adv-x="1517" d="M365 1454h81l689 -1280l270 1278h104l-309 -1452h-92l-680 1257l-268 -1257h-105zM522 -383l58 139h-33l33 144h98l-31 -144l-69 -139h-56z" />
<glyph unicode="&#x146;" horiz-adv-x="1130" d="M250 1065h96l-55 -254q88 122 223 197t268 75q119 0 174.5 -64.5t55.5 -191.5q0 -77 -27 -215l-129 -612h-102l125 594q22 105 22 190q0 104 -42 154.5t-128 50.5q-127 0 -261.5 -95t-203.5 -235l-139 -659h-102zM332 -383l57 139h-33l33 144h98l-30 -144l-70 -139h-55z " />
<glyph unicode="&#x147;" horiz-adv-x="1517" d="M805 1843l69 35l138 -129l192 129l53 -35l-223 -166h-76zM365 1454h81l689 -1280l270 1278h104l-309 -1452h-92l-680 1257l-268 -1257h-105z" />
<glyph unicode="&#x148;" horiz-adv-x="1130" d="M582 1460l69 35l137 -129l193 129l53 -35l-223 -166h-76zM250 1065h96l-55 -254q88 122 223 197t268 75q119 0 174.5 -64.5t55.5 -191.5q0 -77 -27 -215l-129 -612h-102l125 594q22 105 22 190q0 104 -42 154.5t-128 50.5q-127 0 -261.5 -95t-203.5 -235l-139 -659h-102z " />
<glyph unicode="&#x14a;" horiz-adv-x="1513" d="M633 -287l69 68q41 -49 138 -49q75 0 147 60t90 147l17 69l-666 1247l-268 -1255h-105l310 1454h79l682 -1276l273 1274h102l-319 -1511q-19 -86 -77 -156.5t-131.5 -108.5t-144.5 -38q-135 0 -196 75z" />
<glyph unicode="&#x14b;" horiz-adv-x="1130" d="M295 -287l70 68q41 -49 137 -49q73 0 145 60.5t92 146.5l140 655q22 105 22 190q0 104 -42 154.5t-128 50.5q-127 0 -261.5 -95t-203.5 -235l-139 -659h-102l225 1065h96l-55 -254q88 122 223 197t268 75q119 0 174.5 -64.5t55.5 -191.5q0 -77 -27 -215l-141 -669 q-28 -129 -135 -217t-217 -88q-136 0 -197 75z" />
<glyph unicode="&#x14c;" d="M721 1757l16 76h557l-16 -76h-557zM98 586q0 169 67.5 331t178 281.5t261 192.5t308.5 73q102 0 188 -33t146 -90t101.5 -133.5t61.5 -163.5t20 -180q0 -224 -113 -426.5t-301.5 -325t-399.5 -122.5q-127 0 -228 49.5t-163 133.5t-94.5 189.5t-32.5 223.5zM1323 858 q0 103 -26.5 194t-78 162t-134.5 112.5t-189 41.5q-140 0 -269.5 -67.5t-220.5 -176t-145.5 -248.5t-54.5 -282q0 -103 26.5 -193.5t78 -161.5t135.5 -112t190 -41q141 0 270 67.5t219.5 176t144.5 248t54 280.5z" />
<glyph unicode="&#x14d;" horiz-adv-x="1165" d="M465 1374l16 76h557l-16 -76h-557zM53 424q0 134 51 257t135.5 210.5t197.5 139.5t233 52q98 0 176 -35t127 -97t74.5 -142t25.5 -174q0 -132 -50 -253.5t-133.5 -209.5t-197 -140t-235.5 -52q-130 0 -223.5 61t-137 159.5t-43.5 223.5zM969 618q0 163 -82.5 268 t-233.5 105q-125 0 -238.5 -72.5t-184 -201t-70.5 -279.5q0 -162 82 -264t233 -102q125 0 238.5 71t184.5 198t71 277z" />
<glyph unicode="&#x14e;" d="M1137 1878h65q-17 -78 -80 -133t-135 -55q-62 0 -101.5 41.5t-39.5 105.5q0 13 4 41h68q-3 -15 -3 -29q0 -42 24 -72t60 -30q40 0 80.5 38t57.5 93zM98 586q0 169 67.5 331t178 281.5t261 192.5t308.5 73q102 0 188 -33t146 -90t101.5 -133.5t61.5 -163.5t20 -180 q0 -224 -113 -426.5t-301.5 -325t-399.5 -122.5q-127 0 -228 49.5t-163 133.5t-94.5 189.5t-32.5 223.5zM1323 858q0 103 -26.5 194t-78 162t-134.5 112.5t-189 41.5q-140 0 -269.5 -67.5t-220.5 -176t-145.5 -248.5t-54.5 -282q0 -103 26.5 -193.5t78 -161.5t135.5 -112 t190 -41q141 0 270 67.5t219.5 176t144.5 248t54 280.5z" />
<glyph unicode="&#x14f;" horiz-adv-x="1165" d="M881 1495h65q-17 -78 -80 -133t-135 -55q-62 0 -101.5 41.5t-39.5 105.5q0 13 4 41h68q-3 -15 -3 -29q0 -42 24 -72t60 -30q40 0 80.5 38t57.5 93zM53 424q0 134 51 257t135.5 210.5t197.5 139.5t233 52q98 0 176 -35t127 -97t74.5 -142t25.5 -174q0 -132 -50 -253.5 t-133.5 -209.5t-197 -140t-235.5 -52q-130 0 -223.5 61t-137 159.5t-43.5 223.5zM969 618q0 163 -82.5 268t-233.5 105q-125 0 -238.5 -72.5t-184 -201t-70.5 -279.5q0 -162 82 -264t233 -102q125 0 238.5 71t184.5 198t71 277z" />
<glyph unicode="&#x150;" d="M860 1671l-53 33l154 174h104zM1090 1671l-54 33l152 174h106zM98 586q0 169 67.5 331t178 281.5t261 192.5t308.5 73q102 0 188 -33t146 -90t101.5 -133.5t61.5 -163.5t20 -180q0 -224 -113 -426.5t-301.5 -325t-399.5 -122.5q-127 0 -228 49.5t-163 133.5t-94.5 189.5 t-32.5 223.5zM1323 858q0 103 -26.5 194t-78 162t-134.5 112.5t-189 41.5q-140 0 -269.5 -67.5t-220.5 -176t-145.5 -248.5t-54.5 -282q0 -103 26.5 -193.5t78 -161.5t135.5 -112t190 -41q141 0 270 67.5t219.5 176t144.5 248t54 280.5z" />
<glyph unicode="&#x151;" horiz-adv-x="1165" d="M604 1288l-53 33l154 174h104zM834 1288l-54 33l152 174h106zM53 424q0 134 51 257t135.5 210.5t197.5 139.5t233 52q98 0 176 -35t127 -97t74.5 -142t25.5 -174q0 -132 -50 -253.5t-133.5 -209.5t-197 -140t-235.5 -52q-130 0 -223.5 61t-137 159.5t-43.5 223.5z M969 618q0 163 -82.5 268t-233.5 105q-125 0 -238.5 -72.5t-184 -201t-70.5 -279.5q0 -162 82 -264t233 -102q125 0 238.5 71t184.5 198t71 277z" />
<glyph unicode="&#x152;" horiz-adv-x="2287" d="M98 590q0 163 70.5 323.5t184 281t265 195t306.5 74.5q184 0 303 -120t147 -302l88 412h899l-22 -94h-793l-119 -569h687l-21 -97h-688l-127 -600h809l-19 -94h-915l88 410q-108 -184 -279.5 -302t-351.5 -118q-119 0 -217.5 49.5t-162 133t-98 191.5t-34.5 226z M1323 854q0 139 -49.5 254.5t-147 187.5t-225.5 72q-137 0 -267 -68.5t-223 -177.5t-149.5 -247.5t-56.5 -274.5q0 -140 49 -255.5t147 -187t228 -71.5q110 0 216.5 44.5t191 121t150 174t101 209t35.5 219.5z" />
<glyph unicode="&#x153;" horiz-adv-x="2029" d="M53 420q0 131 53.5 254t141 212t202.5 143t234 54q152 0 250.5 -98t112.5 -262q86 169 224.5 264.5t299.5 95.5q181 0 284 -122t103 -330q0 -88 -19 -139h-882q-6 -37 -6 -72q0 -155 91 -257t236 -102q110 0 214.5 57t158.5 148l84 -24q-73 -116 -207.5 -189t-271.5 -73 q-151 0 -257.5 98.5t-131.5 259.5q-92 -165 -233 -261.5t-290 -96.5q-174 0 -282.5 125.5t-108.5 314.5zM1855 567q7 51 7 84q0 156 -85.5 252t-226.5 96q-160 0 -295.5 -122t-185.5 -310h786zM969 623q0 158 -84.5 263t-220.5 105q-92 0 -184 -46t-162 -121t-114 -179 t-44 -213q0 -156 84.5 -258t220.5 -102q94 0 186 45t161.5 119t113 176.5t43.5 210.5z" />
<glyph unicode="&#x154;" horiz-adv-x="1277" d="M872 1677l-63 33l156 174h116zM55 0l310 1454h577q96 0 170 -54t111 -138t37 -181q0 -118 -57.5 -231t-156 -190.5t-212.5 -94.5l221 -565h-119l-217 549h-443l-116 -549h-105zM778 645q99 0 186.5 63.5t137 161.5t49.5 199q0 120 -66.5 205.5t-169.5 85.5h-466 l-152 -715h481z" />
<glyph unicode="&#x155;" horiz-adv-x="681" d="M496 1288l-64 33l156 174h117zM250 1065h98l-57 -262q81 118 185.5 187t209.5 75q8 1 16.5 1t17.5 -0.5t13 -0.5l-20 -92q-137 -5 -256 -86.5t-189 -220.5l-141 -666h-102z" />
<glyph unicode="&#x156;" horiz-adv-x="1277" d="M55 0l310 1454h577q96 0 170 -54t111 -138t37 -181q0 -118 -57.5 -231t-156 -190.5t-212.5 -94.5l221 -565h-119l-217 549h-443l-116 -549h-105zM778 645q99 0 186.5 63.5t137 161.5t49.5 199q0 120 -66.5 205.5t-169.5 85.5h-466l-152 -715h481zM383 -383l57 139h-32 l32 144h99l-31 -144l-70 -139h-55z" />
<glyph unicode="&#x157;" horiz-adv-x="681" d="M250 1065h98l-57 -262q81 118 185.5 187t209.5 75q8 1 16.5 1t17.5 -0.5t13 -0.5l-20 -92q-137 -5 -256 -86.5t-189 -220.5l-141 -666h-102zM-47 -383l57 139h-33l33 144h99l-31 -144l-70 -139h-55z" />
<glyph unicode="&#x158;" horiz-adv-x="1277" d="M653 1849l70 35l137 -129l193 129l53 -35l-223 -166h-76zM55 0l310 1454h577q96 0 170 -54t111 -138t37 -181q0 -118 -57.5 -231t-156 -190.5t-212.5 -94.5l221 -565h-119l-217 549h-443l-116 -549h-105zM778 645q99 0 186.5 63.5t137 161.5t49.5 199q0 120 -66.5 205.5 t-169.5 85.5h-466l-152 -715h481z" />
<glyph unicode="&#x159;" horiz-adv-x="681" d="M276 1460l70 35l137 -129l193 129l53 -35l-223 -166h-76zM250 1065h98l-57 -262q81 118 185.5 187t209.5 75q8 1 16.5 1t17.5 -0.5t13 -0.5l-20 -92q-137 -5 -256 -86.5t-189 -220.5l-141 -666h-102z" />
<glyph unicode="&#x15a;" horiz-adv-x="1193" d="M864 1708l-63 33l155 174h117zM-12 205l71 84q163 -207 461 -207q203 0 323 87t120 241q0 49 -16.5 86.5t-43 63t-78 49t-100.5 38.5t-133 37q-70 17 -114.5 30.5t-93 32.5t-77 40t-53 50t-35 67t-10.5 87q0 214 161.5 343.5t413.5 129.5q265 0 406 -170l-72 -82 q-107 158 -348 158q-216 0 -332 -98.5t-116 -251.5q0 -38 8.5 -66.5t30 -52t45 -39.5t68.5 -32t84.5 -27.5t107.5 -28.5q74 -19 123.5 -34.5t100.5 -36.5t82 -44.5t57 -56t37 -73.5t11 -93q0 -147 -78.5 -250t-206.5 -150.5t-294 -47.5q-164 0 -288 53.5t-222 163.5z" />
<glyph unicode="&#x15b;" horiz-adv-x="944" d="M645 1288l-63 33l155 174h117zM-35 143l64 70q132 -150 327 -150q151 0 247.5 69t96.5 183q0 24 -7 43.5t-16.5 34t-30.5 28.5t-38.5 23t-52.5 21t-59.5 19t-71.5 20q-68 18 -104 29.5t-77.5 30t-60.5 38.5t-32 50t-13 71q0 166 127 263t316 97q118 0 202.5 -40.5 t120.5 -108.5l-67 -55q-69 120 -269 120q-86 0 -158 -25.5t-120.5 -83.5t-48.5 -140q0 -67 48 -97.5t179 -64.5q72 -20 117 -34.5t92 -36.5t72 -46t41 -59t16 -80q0 -160 -127.5 -256t-331.5 -96q-258 0 -381 163z" />
<glyph unicode="&#x15c;" horiz-adv-x="1193" d="M629 1716l225 166h76l153 -166l-69 -37l-137 129l-193 -129zM-12 205l71 84q163 -207 461 -207q203 0 323 87t120 241q0 49 -16.5 86.5t-43 63t-78 49t-100.5 38.5t-133 37q-70 17 -114.5 30.5t-93 32.5t-77 40t-53 50t-35 67t-10.5 87q0 214 161.5 343.5t413.5 129.5 q265 0 406 -170l-72 -82q-107 158 -348 158q-216 0 -332 -98.5t-116 -251.5q0 -38 8.5 -66.5t30 -52t45 -39.5t68.5 -32t84.5 -27.5t107.5 -28.5q74 -19 123.5 -34.5t100.5 -36.5t82 -44.5t57 -56t37 -73.5t11 -93q0 -147 -78.5 -250t-206.5 -150.5t-294 -47.5 q-164 0 -288 53.5t-222 163.5z" />
<glyph unicode="&#x15d;" horiz-adv-x="944" d="M410 1296l225 166h76l153 -166l-69 -36l-138 129l-192 -129zM-35 143l64 70q132 -150 327 -150q151 0 247.5 69t96.5 183q0 24 -7 43.5t-16.5 34t-30.5 28.5t-38.5 23t-52.5 21t-59.5 19t-71.5 20q-68 18 -104 29.5t-77.5 30t-60.5 38.5t-32 50t-13 71q0 166 127 263 t316 97q118 0 202.5 -40.5t120.5 -108.5l-67 -55q-69 120 -269 120q-86 0 -158 -25.5t-120.5 -83.5t-48.5 -140q0 -67 48 -97.5t179 -64.5q72 -20 117 -34.5t92 -36.5t72 -46t41 -59t16 -80q0 -160 -127.5 -256t-331.5 -96q-258 0 -381 163z" />
<glyph unicode="&#x15e;" horiz-adv-x="1193" d="M784 1464q265 0 406 -170l-72 -82q-107 158 -348 158q-216 0 -332 -98.5t-116 -251.5q0 -38 8.5 -66.5t30 -52t45 -39.5t68.5 -32t84.5 -27.5t107.5 -28.5q74 -19 123.5 -34.5t100.5 -36.5t82 -44.5t57 -56t37 -73.5t11 -93q0 -205 -144 -319t-378 -127q61 -64 61 -142 q0 -97 -62 -150.5t-163 -53.5q-105 0 -190 55l45 61q78 -45 145 -45q72 0 116 37.5t44 97.5q0 74 -80 138q-299 9 -483 217l71 84q163 -207 461 -207q203 0 323 87t120 241q0 49 -16.5 86.5t-43 63t-78 49t-100.5 38.5t-133 37q-70 17 -114.5 30.5t-93 32.5t-77 40t-53 50 t-35 67t-10.5 87q0 214 161.5 343.5t413.5 129.5z" />
<glyph unicode="&#x15f;" horiz-adv-x="944" d="M567 999q-86 0 -158 -25.5t-120.5 -83.5t-48.5 -140q0 -67 48 -97.5t179 -64.5q72 -20 117 -34.5t92 -36.5t72 -46t41 -59t16 -80q0 -141 -100.5 -233t-268.5 -113q58 -65 58 -138q0 -97 -62.5 -150.5t-163.5 -53.5q-105 0 -190 55l45 61q78 -45 145 -45q72 0 116 37.5 t44 97.5q0 69 -70 130h-12q-258 0 -381 163l64 70q132 -150 327 -150q151 0 247.5 69t96.5 183q0 24 -7 43.5t-16.5 34t-30.5 28.5t-38.5 23t-52.5 21t-59.5 19t-71.5 20q-68 18 -104 29.5t-77.5 30t-60.5 38.5t-32 50t-13 71q0 166 127 263t316 97q118 0 202.5 -40.5 t120.5 -108.5l-67 -55q-69 120 -269 120z" />
<glyph unicode="&#x160;" horiz-adv-x="1193" d="M645 1880l70 35l137 -129l192 129l54 -35l-224 -166h-75zM-12 205l71 84q163 -207 461 -207q203 0 323 87t120 241q0 49 -16.5 86.5t-43 63t-78 49t-100.5 38.5t-133 37q-70 17 -114.5 30.5t-93 32.5t-77 40t-53 50t-35 67t-10.5 87q0 214 161.5 343.5t413.5 129.5 q265 0 406 -170l-72 -82q-107 158 -348 158q-216 0 -332 -98.5t-116 -251.5q0 -38 8.5 -66.5t30 -52t45 -39.5t68.5 -32t84.5 -27.5t107.5 -28.5q74 -19 123.5 -34.5t100.5 -36.5t82 -44.5t57 -56t37 -73.5t11 -93q0 -147 -78.5 -250t-206.5 -150.5t-294 -47.5 q-164 0 -288 53.5t-222 163.5z" />
<glyph unicode="&#x161;" horiz-adv-x="944" d="M426 1460l70 35l137 -129l192 129l54 -35l-224 -166h-75zM-35 143l64 70q132 -150 327 -150q151 0 247.5 69t96.5 183q0 24 -7 43.5t-16.5 34t-30.5 28.5t-38.5 23t-52.5 21t-59.5 19t-71.5 20q-68 18 -104 29.5t-77.5 30t-60.5 38.5t-32 50t-13 71q0 166 127 263t316 97 q118 0 202.5 -40.5t120.5 -108.5l-67 -55q-69 120 -269 120q-86 0 -158 -25.5t-120.5 -83.5t-48.5 -140q0 -67 48 -97.5t179 -64.5q72 -20 117 -34.5t92 -36.5t72 -46t41 -59t16 -80q0 -160 -127.5 -256t-331.5 -96q-258 0 -381 163z" />
<glyph unicode="&#x162;" horiz-adv-x="1185" d="M209 1454h1114l-20 -94h-504l-291 -1356q76 -73 76 -156q0 -97 -62.5 -150.5t-163.5 -53.5q-105 0 -190 55l45 61q78 -45 145 -45q72 0 116 37.5t44 97.5q0 79 -96 150h-16l288 1360h-504z" />
<glyph unicode="&#x163;" horiz-adv-x="626" d="M377 981l-154 -721q-14 -66 -14 -82q0 -45 28.5 -69.5t73.5 -24.5q82 0 168 49l13 -82q-23 -16 -76 -36t-113 -25q62 -65 62 -142q0 -97 -62.5 -150.5t-163.5 -53.5q-105 0 -190 55l45 61q78 -45 145 -45q72 0 116 37.5t44 97.5q0 78 -88 144q-52 11 -82.5 47t-30.5 92 q0 13 4 45l172 803h-143l19 84h143l76 365h102l-76 -365h236l-19 -84h-235z" />
<glyph unicode="&#x164;" horiz-adv-x="1185" d="M608 1843l70 35l137 -129l193 129l53 -35l-223 -166h-76zM694 1360h-504l19 94h1114l-20 -94h-504l-291 -1360h-102z" />
<glyph unicode="&#x165;" horiz-adv-x="626" d="M561 1321l156 174h117l-207 -207zM98 133q0 13 4 45l172 803h-143l19 84h143l76 365h102l-76 -365h236l-19 -84h-235l-154 -721q-14 -66 -14 -82q0 -45 28.5 -69.5t73.5 -24.5q82 0 168 49l13 -82q-27 -19 -92 -41t-136 -22q-74 0 -120 38t-46 107z" />
<glyph unicode="&#x166;" horiz-adv-x="1261" d="M1341 1360h-503l-111 -516h442l-14 -66h-440l-166 -778h-105l166 778h-442l12 66h443l110 516h-504l19 94h1114z" />
<glyph unicode="&#x167;" horiz-adv-x="628" d="M612 981h-235l-60 -279h228l-15 -71h-227l-80 -371q-14 -66 -14 -82q0 -45 28.5 -69.5t73.5 -24.5q82 0 168 49l13 -82q-27 -19 -92 -41t-136 -22q-74 0 -120 38t-46 107q0 13 4 45l97 453h-150l17 71h149l59 279h-143l19 84h143l76 365h102l-76 -365h236z" />
<glyph unicode="&#x168;" d="M854 1790q-80 0 -119 -98h-67q2 9 9 26.5t23.5 43t38.5 47.5t56.5 37.5t74.5 15.5q43 0 80.5 -20.5t73 -41t76.5 -20.5q29 0 53 9.5t37.5 22.5t24 28.5t14 24t4.5 13.5h67q-2 -10 -9.5 -27.5t-25 -43t-40.5 -47t-61 -37t-81 -15.5q-39 0 -73 13t-54 28t-47.5 28t-54.5 13 zM160 467q0 122 28 256l156 731h105l-156 -731q-29 -149 -29 -240q0 -87 18.5 -156t59.5 -124.5t112.5 -86t170.5 -30.5q107 0 199.5 37t157.5 97.5t117.5 145t84.5 172t53 185.5l154 731h104l-154 -731q-26 -122 -67.5 -227.5t-104.5 -200t-142.5 -161t-186 -105.5 t-230.5 -39q-98 0 -175.5 24.5t-128.5 67t-84 103.5t-47.5 130.5t-14.5 151.5z" />
<glyph unicode="&#x169;" horiz-adv-x="1150" d="M633 1407q-80 0 -119 -98h-68q2 9 9 26.5t24 43t38.5 47.5t56.5 37.5t75 15.5q43 0 80.5 -20.5t73 -41t76.5 -20.5q29 0 53 9.5t37.5 22.5t24 28.5t14 24t4.5 13.5h67q-2 -10 -9.5 -27.5t-25 -43t-40.5 -47t-61 -37t-81 -15.5q-39 0 -73 13t-54 28t-47.5 28t-54.5 13z M84 258q0 77 22 193l134 614h100l-127 -600q-23 -108 -23 -174q0 -219 191 -219q129 0 257 88.5t202 232.5l141 672h102l-188 -891q-1 -7 -4 -19t-4.5 -19.5t-1.5 -10.5q0 -33 35 -33l-21 -92q-18 -2 -45 -2q-32 4 -50 23.5t-18 48.5q0 26 35 182q-93 -127 -224 -199.5 t-265 -72.5q-248 0 -248 278z" />
<glyph unicode="&#x16a;" d="M698 1757l17 76h557l-17 -76h-557zM160 467q0 122 28 256l156 731h105l-156 -731q-29 -149 -29 -240q0 -87 18.5 -156t59.5 -124.5t112.5 -86t170.5 -30.5q107 0 199.5 37t157.5 97.5t117.5 145t84.5 172t53 185.5l154 731h104l-154 -731q-26 -122 -67.5 -227.5 t-104.5 -200t-142.5 -161t-186 -105.5t-230.5 -39q-98 0 -175.5 24.5t-128.5 67t-84 103.5t-47.5 130.5t-14.5 151.5z" />
<glyph unicode="&#x16b;" horiz-adv-x="1150" d="M477 1374l17 76h557l-17 -76h-557zM84 258q0 77 22 193l134 614h100l-127 -600q-23 -108 -23 -174q0 -219 191 -219q129 0 257 88.5t202 232.5l141 672h102l-188 -891q-1 -7 -4 -19t-4.5 -19.5t-1.5 -10.5q0 -33 35 -33l-21 -92q-18 -2 -45 -2q-32 4 -50 23.5t-18 48.5 q0 26 35 182q-93 -127 -224 -199.5t-265 -72.5q-248 0 -248 278z" />
<glyph unicode="&#x16c;" d="M1114 1878h66q-17 -78 -80 -133t-135 -55q-63 0 -102.5 41.5t-39.5 105.5q0 13 4 41h68q-2 -10 -2 -29q0 -42 24 -72t60 -30q40 0 80 38t57 93zM160 467q0 122 28 256l156 731h105l-156 -731q-29 -149 -29 -240q0 -87 18.5 -156t59.5 -124.5t112.5 -86t170.5 -30.5 q107 0 199.5 37t157.5 97.5t117.5 145t84.5 172t53 185.5l154 731h104l-154 -731q-26 -122 -67.5 -227.5t-104.5 -200t-142.5 -161t-186 -105.5t-230.5 -39q-98 0 -175.5 24.5t-128.5 67t-84 103.5t-47.5 130.5t-14.5 151.5z" />
<glyph unicode="&#x16d;" horiz-adv-x="1150" d="M893 1495h65q-17 -78 -80 -133t-135 -55q-62 0 -101.5 41.5t-39.5 105.5q0 13 4 41h68q-2 -10 -2 -29q0 -42 24 -72t60 -30q40 0 80 38t57 93zM84 258q0 77 22 193l134 614h100l-127 -600q-23 -108 -23 -174q0 -219 191 -219q129 0 257 88.5t202 232.5l141 672h102 l-188 -891q-1 -7 -4 -19t-4.5 -19.5t-1.5 -10.5q0 -33 35 -33l-21 -92q-18 -2 -45 -2q-32 4 -50 23.5t-18 48.5q0 26 35 182q-93 -127 -224 -199.5t-265 -72.5q-248 0 -248 278z" />
<glyph unicode="&#x16e;" d="M1004 1878q49 0 77.5 -28.5t28.5 -73.5q0 -64 -48 -109t-116 -45q-49 0 -77.5 29t-28.5 75q0 64 48.5 108t115.5 44zM895 1735q0 -28 17 -47t46 -19q35 0 67 28.5t32 67.5q0 30 -18 48t-48 18q-38 0 -67 -27.5t-29 -68.5zM160 467q0 122 28 256l156 731h105l-156 -731 q-29 -149 -29 -240q0 -87 18.5 -156t59.5 -124.5t112.5 -86t170.5 -30.5q107 0 199.5 37t157.5 97.5t117.5 145t84.5 172t53 185.5l154 731h104l-154 -731q-26 -122 -67.5 -227.5t-104.5 -200t-142.5 -161t-186 -105.5t-230.5 -39q-98 0 -175.5 24.5t-128.5 67t-84 103.5 t-47.5 130.5t-14.5 151.5z" />
<glyph unicode="&#x16f;" horiz-adv-x="1150" d="M782 1495q49 0 78 -28.5t29 -73.5q0 -64 -48 -109t-116 -45q-49 0 -78 29t-29 75q0 64 48.5 108t115.5 44zM674 1352q0 -28 17 -47t46 -19q35 0 67 28.5t32 67.5q0 30 -18 48t-48 18q-38 0 -67 -27.5t-29 -68.5zM84 258q0 77 22 193l134 614h100l-127 -600 q-23 -108 -23 -174q0 -219 191 -219q129 0 257 88.5t202 232.5l141 672h102l-188 -891q-1 -7 -4 -19t-4.5 -19.5t-1.5 -10.5q0 -33 35 -33l-21 -92q-18 -2 -45 -2q-32 4 -50 23.5t-18 48.5q0 26 35 182q-93 -127 -224 -199.5t-265 -72.5q-248 0 -248 278z" />
<glyph unicode="&#x170;" d="M838 1671l-54 33l154 174h104zM1067 1671l-53 33l151 174h107zM160 467q0 122 28 256l156 731h105l-156 -731q-29 -149 -29 -240q0 -87 18.5 -156t59.5 -124.5t112.5 -86t170.5 -30.5q107 0 199.5 37t157.5 97.5t117.5 145t84.5 172t53 185.5l154 731h104l-154 -731 q-26 -122 -67.5 -227.5t-104.5 -200t-142.5 -161t-186 -105.5t-230.5 -39q-98 0 -175.5 24.5t-128.5 67t-84 103.5t-47.5 130.5t-14.5 151.5z" />
<glyph unicode="&#x171;" horiz-adv-x="1150" d="M616 1288l-53 33l154 174h104zM846 1288l-53 33l151 174h107zM84 258q0 77 22 193l134 614h100l-127 -600q-23 -108 -23 -174q0 -219 191 -219q129 0 257 88.5t202 232.5l141 672h102l-188 -891q-1 -7 -4 -19t-4.5 -19.5t-1.5 -10.5q0 -33 35 -33l-21 -92q-18 -2 -45 -2 q-32 4 -50 23.5t-18 48.5q0 26 35 182q-93 -127 -224 -199.5t-265 -72.5q-248 0 -248 278z" />
<glyph unicode="&#x172;" d="M1391 1454h104l-154 -731q-31 -144 -84 -265.5t-132 -222.5t-191.5 -164.5t-249.5 -76.5q-84 -71 -119 -119t-35 -90q0 -29 22.5 -46t70.5 -28l-45 -69q-119 22 -119 118q0 56 35 111t108 119q-120 1 -207.5 38.5t-137.5 104t-73.5 149.5t-23.5 185q0 122 28 256l156 731 h105l-156 -731q-29 -149 -29 -240q0 -87 18.5 -156t59.5 -124.5t112.5 -86t170.5 -30.5q107 0 199.5 37t157.5 97.5t117.5 145t84.5 172t53 185.5z" />
<glyph unicode="&#x173;" horiz-adv-x="1150" d="M885 125q0 -33 35 -33l-21 -92q-89 -75 -125.5 -123.5t-36.5 -91.5q0 -29 22 -46t70 -28l-45 -69q-118 21 -118 118q0 59 39 117.5t122 128.5q-41 15 -41 64q0 26 35 182q-93 -127 -224 -199.5t-265 -72.5q-248 0 -248 278q0 77 22 193l134 614h100l-127 -600 q-23 -108 -23 -174q0 -219 191 -219q129 0 257 88.5t202 232.5l141 672h102l-188 -891q-1 -7 -4 -19t-4.5 -19.5t-1.5 -10.5z" />
<glyph unicode="&#x174;" horiz-adv-x="2033" d="M1010 1679l225 166h76l153 -166l-69 -37l-138 130l-192 -130zM199 1454h114l242 -1331l436 708l-114 613h102l92 -529l318 529h102l-373 -613l135 -708l807 1331h115l-899 -1454h-94l-144 748l-465 -748h-94z" />
<glyph unicode="&#x175;" horiz-adv-x="1521" d="M678 1296l225 166h76l154 -166l-70 -36l-137 129l-193 -129zM115 1065h106l174 -963q171 193 322 467l-107 496h107l71 -360q92 187 144 360h98q-72 -242 -211 -498l94 -465q183 218 317.5 471t205.5 492h100q-176 -575 -596 -1065h-106l-89 444q-143 -243 -321 -444 h-107z" />
<glyph unicode="&#x176;" horiz-adv-x="1232" d="M596 1679l225 166h76l154 -166l-70 -37l-137 130l-193 -130zM541 553l-351 901h117l307 -805l652 805h114l-735 -905l-119 -549h-102z" />
<glyph unicode="&#x177;" horiz-adv-x="962" d="M416 1296l225 166h76l153 -166l-69 -36l-137 129l-193 -129zM-74 -375q64 11 107 27t82 48t69.5 71t75.5 108l74 111l-228 1075h107l193 -965l98 156q182 294 262 458t131 351h102q-56 -200 -137.5 -365.5t-283.5 -488.5l-168 -264q-143 -229 -238.5 -311.5t-232.5 -94.5 z" />
<glyph unicode="&#x178;" horiz-adv-x="1232" d="M643 1694l39 180h88l-37 -180h-90zM911 1694l39 180h88l-37 -180h-90zM541 553l-351 901h117l307 -805l652 805h114l-735 -905l-119 -549h-102z" />
<glyph unicode="&#x179;" horiz-adv-x="1214" d="M864 1677l-63 33l155 174h117zM-57 86l1245 1274h-963l21 94h1087l-20 -86l-1239 -1274h964l-18 -94h-1096z" />
<glyph unicode="&#x17a;" horiz-adv-x="948" d="M649 1288l-63 33l155 174h117zM-57 74l901 911h-694l18 80h811l-16 -74l-897 -911h702l-18 -80h-824z" />
<glyph unicode="&#x17b;" horiz-adv-x="1214" d="M809 1700l39 184h94l-39 -184h-94zM-57 86l1245 1274h-963l21 94h1087l-20 -86l-1239 -1274h964l-18 -94h-1096z" />
<glyph unicode="&#x17c;" horiz-adv-x="948" d="M594 1311l39 184h94l-39 -184h-94zM-57 74l901 911h-694l18 80h811l-16 -74l-897 -911h702l-18 -80h-824z" />
<glyph unicode="&#x17d;" horiz-adv-x="1214" d="M645 1849l70 35l137 -129l192 129l54 -35l-224 -166h-75zM-57 86l1245 1274h-963l21 94h1087l-20 -86l-1239 -1274h964l-18 -94h-1096z" />
<glyph unicode="&#x17e;" horiz-adv-x="948" d="M430 1460l70 35l137 -129l192 129l54 -35l-224 -166h-75zM-57 74l901 911h-694l18 80h811l-16 -74l-897 -911h702l-18 -80h-824z" />
<glyph unicode="&#x18f;" horiz-adv-x="1447" d="M61 555q0 108 33 213h1176q6 56 6 106q0 217 -116 354.5t-302 137.5q-146 0 -289 -83.5t-217 -215.5l-90 47q95 152 271.5 251t351.5 99q150 0 267 -80t179 -216t62 -304q0 -174 -70 -338t-183.5 -282t-262.5 -189t-302 -71q-229 0 -371.5 161t-142.5 410zM1249 674 h-1069q-14 -75 -14 -131q0 -92 27 -173.5t78.5 -146.5t135 -103t187.5 -38q146 0 283 77.5t236 213t136 301.5z" />
<glyph unicode="&#x192;" horiz-adv-x="1019" d="M-129 -287l70 68q41 -49 137 -49q75 0 147 60t90 147l195 917h-141l16 84h145l33 160q40 194 140.5 305t234.5 111q58 0 108.5 -18.5t81.5 -49.5l-53 -74q-20 23 -58 37t-79 14q-99 0 -168.5 -83t-103.5 -240l-33 -162h285l-19 -84h-287l-194 -915q-28 -129 -134 -216 t-216 -87q-136 0 -197 75z" />
<glyph unicode="&#x1a0;" d="M1167 1401q128 -76 195.5 -220.5t67.5 -316.5q0 -224 -113 -426.5t-301.5 -325t-399.5 -122.5q-127 0 -228 49.5t-163 133.5t-94.5 189.5t-32.5 223.5q0 169 67.5 331t178 281.5t261 192.5t308.5 73q51 0 109 -10q124 0 174 47q35 35 57 125h90q-17 -64 -35 -102.5 t-55 -73.5q-37 -32 -86 -49zM635 86q141 0 270 67.5t219.5 176t144.5 248t54 280.5q0 103 -26.5 194t-78 162t-134.5 112.5t-189 41.5q-140 0 -269.5 -67.5t-220.5 -176t-145.5 -248.5t-54.5 -282q0 -103 26.5 -193.5t78 -161.5t135.5 -112t190 -41z" />
<glyph unicode="&#x1a1;" horiz-adv-x="1165" d="M918 1006q77 -60 116 -156.5t39 -214.5q0 -132 -50 -253.5t-133.5 -209.5t-197 -140t-235.5 -52q-130 0 -223.5 61t-137 159.5t-43.5 223.5q0 134 51 257t135.5 210.5t197.5 139.5t233 52q66 0 125 -16q124 0 174 47q35 35 57 125h90q-17 -64 -35 -102.5t-55 -73.5 q-42 -38 -108 -57zM475 72q125 0 238.5 71t184.5 198t71 277q0 163 -82.5 268t-233.5 105q-125 0 -238.5 -72.5t-184 -201t-70.5 -279.5q0 -162 82 -264t233 -102z" />
<glyph unicode="&#x1af;" d="M1663 1626h90q-17 -64 -35 -102.5t-55 -73.5q-62 -59 -184 -72l-138 -655q-26 -122 -67.5 -227.5t-104.5 -200t-142.5 -161t-186 -105.5t-230.5 -39q-98 0 -175.5 24.5t-128.5 67t-84 103.5t-47.5 130.5t-14.5 151.5q0 122 28 256l156 731h105l-156 -731 q-29 -149 -29 -240q0 -87 18.5 -156t59.5 -124.5t112.5 -86t170.5 -30.5q107 0 199.5 37t157.5 97.5t117.5 145t84.5 172t53 185.5l154 731h41q124 0 174 47q35 35 57 125z" />
<glyph unicode="&#x1b0;" horiz-adv-x="1150" d="M1257 1235h91q-17 -63 -35.5 -101.5t-55.5 -74.5q-64 -61 -190 -74l-172 -811q-1 -7 -4 -19t-4.5 -19.5t-1.5 -10.5q0 -33 35 -33l-21 -92q-18 -2 -45 -2q-32 4 -50 23.5t-18 48.5q0 26 35 182q-93 -127 -224 -199.5t-265 -72.5q-248 0 -248 278q0 77 22 193l134 614h100 l-127 -600q-23 -108 -23 -174q0 -219 191 -219q129 0 257 88.5t202 232.5l141 672h92q88 9 127 45q35 35 57 125z" />
<glyph unicode="&#x1e6;" horiz-adv-x="1406" d="M981 1677h-76l-153 166l69 35l137 -129l193 129l53 -35zM893 623l18 84h402l-150 -707h-92l49 225q-250 -235 -512 -235q-95 0 -177.5 33.5t-142.5 91.5t-103 135t-64 166.5t-21 183.5q0 130 42 258.5t118.5 236.5t177 191.5t225.5 130.5t255 47q190 0 302.5 -85 t149.5 -232l-94 -51q-75 272 -375 272q-115 0 -223.5 -43.5t-192.5 -118.5t-148 -171.5t-98 -208t-34 -222.5q0 -105 31 -199.5t86 -165t138 -112t181 -41.5q243 0 504 258l59 279h-311z" />
<glyph unicode="&#x1e7;" horiz-adv-x="1200" d="M526 1460l70 35l137 -129l193 129l53 -35l-223 -166h-76zM-59 -211l77 47q36 -104 126 -156.5t212 -52.5q162 0 288 92.5t163 260.5l49 233q-82 -103 -199 -166t-229 -63q-114 0 -201 63t-130.5 163t-43.5 218q0 162 82.5 313.5t222.5 246.5t297 95q231 0 344 -249 l50 231h92l-232 -1085q-22 -105 -78.5 -189.5t-134 -138t-169.5 -81.5t-189 -28q-169 0 -262 63t-135 183zM889 358l74 351q-19 123 -107 202.5t-205 79.5q-100 0 -192.5 -51t-157 -130.5t-103 -176.5t-38.5 -189q0 -156 87 -264t226 -108q124 0 251 90t165 196z" />
<glyph unicode="&#x1ea;" d="M670 -8q-83 -72 -117.5 -119t-34.5 -88q0 -29 22 -46t70 -28l-45 -69q-119 22 -119 118q0 56 35 110.5t109 119.5q-120 5 -216 56.5t-155 134.5t-90 186.5t-31 218.5q0 169 67.5 331t178 281.5t261 192.5t308.5 73q102 0 188 -33t146 -90t101.5 -133.5t61.5 -163.5 t20 -180q0 -161 -62 -316t-164.5 -272.5t-243 -194.5t-290.5 -89zM205 594q0 -103 26.5 -193.5t78 -161.5t135.5 -112t190 -41q141 0 270 67.5t219.5 176t144.5 248t54 280.5q0 103 -26.5 194t-78 162t-134.5 112.5t-189 41.5q-140 0 -269.5 -67.5t-220.5 -176 t-145.5 -248.5t-54.5 -282z" />
<glyph unicode="&#x1eb;" horiz-adv-x="1165" d="M518 -16q-76 -67 -108.5 -113t-32.5 -86q0 -29 22 -46t70 -28l-45 -69q-119 22 -119 118q0 104 131 220q-124 5 -212 66.5t-129.5 158.5t-41.5 219q0 134 51 257t135.5 210.5t197.5 139.5t233 52q98 0 176 -35t127 -97t74.5 -142t25.5 -174q0 -165 -75.5 -309.5 t-202.5 -235t-277 -106.5zM160 438q0 -162 82 -264t233 -102q125 0 238.5 71t184.5 198t71 277q0 163 -82.5 268t-233.5 105q-125 0 -238.5 -72.5t-184 -201t-70.5 -279.5z" />
<glyph unicode="&#x1fa;" horiz-adv-x="1329" d="M897 1452l272 -1452h-110l-90 479h-654l-290 -479h-113l895 1452q-31 11 -48.5 37t-17.5 61q0 55 37 96t92 52l156 170h117l-185 -178q54 -25 54 -91q0 -52 -32 -92t-83 -55zM893 1655q-38 0 -67 -27.5t-29 -68.5q0 -28 17 -47t46 -19q35 0 66.5 28.5t31.5 67.5 q0 31 -18 48.5t-47 17.5zM358 565h603l-136 762z" />
<glyph unicode="&#x1fb;" horiz-adv-x="1210" d="M872 1718l-63 33l156 174h116zM811 1495q49 0 78 -28.5t29 -73.5q0 -64 -48 -109t-116 -45q-49 0 -78 29t-29 75q0 64 48.5 108t115.5 44zM702 1352q0 -28 17.5 -47t46.5 -19q35 0 66.5 28.5t31.5 67.5q0 30 -18 48t-47 18q-38 0 -67.5 -27.5t-29.5 -68.5zM55 428 q0 123 50 243t131 210t190.5 146t222.5 56q126 0 214 -70t128 -179l49 231h105l-197 -918q-4 -16 -4 -24q0 -31 35 -31l-21 -92q-31 -4 -40 -2q-74 6 -74 72q0 18 24 143q-84 -106 -201.5 -169.5t-232.5 -63.5q-114 0 -202 62.5t-132.5 164t-44.5 221.5zM891 358l74 351 q-15 117 -103.5 199.5t-208.5 82.5q-125 0 -240 -83t-183 -210.5t-68 -257.5q0 -152 87.5 -260t221.5 -108q75 0 163 38.5t160 106t97 141.5z" />
<glyph unicode="&#x1fc;" horiz-adv-x="1888" d="M1331 1671l-63 33l155 174h117zM1036 1454h926l-23 -94h-792l-119 -569h686l-20 -97h-688l-127 -600h809l-19 -94h-913l102 479h-518l-391 -479h-117zM872 573l158 750l-620 -750h462z" />
<glyph unicode="&#x1fd;" horiz-adv-x="1812" d="M991 1288l-63 33l155 174h117zM-4 250q0 108 66 194.5t179.5 133.5t252.5 47q135 0 256 -41q11 38 37.5 100t35.5 90q0 103 -62.5 165t-174.5 62q-152 0 -355 -127l-24 70q230 139 405 139q121 0 198.5 -59.5t96.5 -167.5q89 104 205.5 165.5t239.5 61.5q177 0 288 -122 t111 -306q0 -95 -29 -163h-893q-4 -50 -4 -74q0 -156 89 -256.5t231 -100.5q106 0 209.5 57.5t158.5 147.5l86 -24q-69 -115 -202 -188.5t-273 -73.5q-129 0 -224 64.5t-140 174.5q-57 -81 -149 -137.5t-176.5 -79t-158.5 -22.5q-131 0 -205.5 77t-74.5 193zM1640 567 q9 47 9 95q0 146 -84 241.5t-232 95.5q-162 0 -300 -122t-189 -310h796zM735 297q-12 46 -12 100q0 59 12 115q-112 41 -241 41q-174 0 -286 -78.5t-112 -204.5q0 -89 56 -149t163 -60q78 0 167 31t160 86.5t93 118.5z" />
<glyph unicode="&#x1fe;" d="M1204 1878l-209 -207l-63 33l155 174h117zM1448 1454l-145 -174q127 -164 127 -416q0 -224 -113 -426.5t-301.5 -325t-399.5 -122.5q-180 0 -311 100l-76 -90h-116l129 154q-71 82 -107.5 194.5t-36.5 237.5q0 169 67.5 331t178 281.5t261 192.5t308.5 73q197 0 328 -118 l90 108h117zM205 594q0 -221 106 -356l863 1028q-113 102 -279 102q-140 0 -269.5 -67.5t-220.5 -176t-145.5 -248.5t-54.5 -282zM1323 858q0 199 -92 338l-856 -1024q107 -86 260 -86q141 0 270 67.5t219.5 176t144.5 248t54 280.5z" />
<glyph unicode="&#x1ff;" horiz-adv-x="1165" d="M1118 1495l-209 -207l-63 33l155 174h117zM1057 1067l-96 -106q112 -128 112 -326q0 -125 -52 -245.5t-137 -210t-200 -144.5t-235 -55q-140 0 -240 81l-57 -63h-78l94 102q-115 127 -115 324q0 127 53.5 248.5t140 211t202 144.5t233.5 55q138 0 236 -82l61 66h78z M662 991q-91 0 -182 -46t-161.5 -121t-114.5 -178t-44 -210q0 -150 82 -256l608 740q-80 71 -188 71zM465 72q91 0 183 45.5t162.5 119.5t114.5 176t44 208q0 152 -82 258l-608 -738q79 -69 186 -69z" />
<glyph unicode="&#x200;" horiz-adv-x="1329" d="M621 1884h106l76 -174l-66 -33zM850 1884h102l80 -174l-65 -33zM807 1454h90l272 -1454h-110l-90 479h-654l-290 -479h-113zM961 565l-136 762l-467 -762h603z" />
<glyph unicode="&#x201;" horiz-adv-x="1210" d="M485 1495h107l76 -174l-66 -33zM715 1495h102l80 -174l-66 -33zM55 428q0 123 50 243t131 210t190.5 146t222.5 56q126 0 214 -70t128 -179l49 231h105l-197 -918q-4 -16 -4 -24q0 -31 35 -31l-21 -92q-31 -4 -40 -2q-74 6 -74 72q0 18 24 143q-84 -106 -201.5 -169.5 t-232.5 -63.5q-114 0 -202 62.5t-132.5 164t-44.5 221.5zM891 358l74 351q-15 117 -103.5 199.5t-208.5 82.5q-125 0 -240 -83t-183 -210.5t-68 -257.5q0 -152 87.5 -260t221.5 -108q75 0 163 38.5t160 106t97 141.5z" />
<glyph unicode="&#x202;" horiz-adv-x="1329" d="M946 1884q65 0 103 -43t38 -106q0 -15 -4 -39h-65q4 24 4 37q0 94 -84 94q-54 0 -91 -37.5t-48 -93.5h-68q18 78 79 133t136 55zM807 1454h90l272 -1454h-110l-90 479h-654l-290 -479h-113zM961 565l-136 762l-467 -762h603z" />
<glyph unicode="&#x203;" horiz-adv-x="1210" d="M811 1495q65 0 103 -43t38 -106q0 -15 -4 -39h-65q4 24 4 36q0 95 -84 95q-54 0 -91 -37.5t-48 -93.5h-68q18 78 79 133t136 55zM55 428q0 123 50 243t131 210t190.5 146t222.5 56q126 0 214 -70t128 -179l49 231h105l-197 -918q-4 -16 -4 -24q0 -31 35 -31l-21 -92 q-31 -4 -40 -2q-74 6 -74 72q0 18 24 143q-84 -106 -201.5 -169.5t-232.5 -63.5q-114 0 -202 62.5t-132.5 164t-44.5 221.5zM891 358l74 351q-15 117 -103.5 199.5t-208.5 82.5q-125 0 -240 -83t-183 -210.5t-68 -257.5q0 -152 87.5 -260t221.5 -108q75 0 163 38.5t160 106 t97 141.5z" />
<glyph unicode="&#x204;" horiz-adv-x="1196" d="M561 1884h107l75 -174l-65 -33zM791 1884h102l80 -174l-66 -33zM365 1454h903l-19 -94h-800l-121 -572h698l-20 -90h-697l-129 -604h817l-20 -94h-922z" />
<glyph unicode="&#x205;" horiz-adv-x="1083" d="M633 1321l-66 -33l-116 207h106zM862 1321l-65 -33l-117 207h102zM463 492q-123 0 -299 12q-4 -50 -4 -72q0 -103 34.5 -185.5t108 -134t176.5 -51.5q105 0 211 59.5t160 155.5l86 -26q-72 -121 -203 -195.5t-274 -74.5q-186 0 -295 128.5t-109 321.5q0 123 49 241.5 t132 209.5t202 146.5t250 55.5q87 0 161.5 -31.5t122.5 -97.5t48 -155q0 -307 -557 -307zM676 999q-93 0 -177 -34.5t-146 -93t-106.5 -132.5t-66.5 -157q184 -13 289 -13q455 0 455 232q0 97 -73 147.5t-175 50.5z" />
<glyph unicode="&#x206;" horiz-adv-x="1196" d="M887 1884q65 0 103 -43t38 -106q0 -15 -4 -39h-66q5 30 5 37q0 94 -84 94q-54 0 -91.5 -37.5t-48.5 -93.5h-67q18 78 79 133t136 55zM365 1454h903l-19 -94h-800l-121 -572h698l-20 -90h-697l-129 -604h817l-20 -94h-922z" />
<glyph unicode="&#x207;" horiz-adv-x="1083" d="M768 1438q-54 0 -91 -37.5t-48 -93.5h-68q18 78 79 133t136 55q65 0 103.5 -43t38.5 -106q0 -9 -5 -39h-65q4 24 4 36q0 95 -84 95zM463 492q-123 0 -299 12q-4 -50 -4 -72q0 -103 34.5 -185.5t108 -134t176.5 -51.5q105 0 211 59.5t160 155.5l86 -26 q-72 -121 -203 -195.5t-274 -74.5q-186 0 -295 128.5t-109 321.5q0 123 49 241.5t132 209.5t202 146.5t250 55.5q87 0 161.5 -31.5t122.5 -97.5t48 -155q0 -307 -557 -307zM676 999q-93 0 -177 -34.5t-146 -93t-106.5 -132.5t-66.5 -157q184 -13 289 -13q455 0 455 232 q0 97 -73 147.5t-175 50.5z" />
<glyph unicode="&#x208;" horiz-adv-x="477" d="M182 1880h107l76 -174l-66 -33zM412 1880h102l80 -174l-66 -33zM365 1452h104l-309 -1452h-105z" />
<glyph unicode="&#x209;" horiz-adv-x="411" d="M68 1495h106l76 -174l-66 -33zM297 1495h102l80 -174l-65 -33zM250 1065h102l-225 -1065h-102z" />
<glyph unicode="&#x20a;" horiz-adv-x="477" d="M508 1880q65 0 103 -43t38 -106q0 -15 -4 -39h-65q4 24 4 37q0 94 -84 94q-54 0 -91.5 -37.5t-48.5 -93.5h-67q18 78 79 133t136 55zM365 1452h104l-309 -1452h-105z" />
<glyph unicode="&#x20b;" horiz-adv-x="411" d="M393 1495q65 0 103.5 -43t38.5 -106q0 -9 -5 -39h-65q4 24 4 36q0 95 -84 95q-54 0 -91 -37.5t-48 -93.5h-68q18 78 79 133t136 55zM250 1065h102l-225 -1065h-102z" />
<glyph unicode="&#x20c;" d="M700 1878h107l76 -174l-66 -33zM930 1878h102l80 -174l-65 -33zM98 586q0 169 67.5 331t178 281.5t261 192.5t308.5 73q102 0 188 -33t146 -90t101.5 -133.5t61.5 -163.5t20 -180q0 -224 -113 -426.5t-301.5 -325t-399.5 -122.5q-127 0 -228 49.5t-163 133.5t-94.5 189.5 t-32.5 223.5zM1323 858q0 103 -26.5 194t-78 162t-134.5 112.5t-189 41.5q-140 0 -269.5 -67.5t-220.5 -176t-145.5 -248.5t-54.5 -282q0 -103 26.5 -193.5t78 -161.5t135.5 -112t190 -41q141 0 270 67.5t219.5 176t144.5 248t54 280.5z" />
<glyph unicode="&#x20d;" horiz-adv-x="1165" d="M444 1495h107l76 -174l-66 -33zM674 1495h102l80 -174l-65 -33zM53 424q0 134 51 257t135.5 210.5t197.5 139.5t233 52q98 0 176 -35t127 -97t74.5 -142t25.5 -174q0 -132 -50 -253.5t-133.5 -209.5t-197 -140t-235.5 -52q-130 0 -223.5 61t-137 159.5t-43.5 223.5z M969 618q0 163 -82.5 268t-233.5 105q-125 0 -238.5 -72.5t-184 -201t-70.5 -279.5q0 -162 82 -264t233 -102q125 0 238.5 71t184.5 198t71 277z" />
<glyph unicode="&#x20e;" d="M1026 1878q65 0 103 -43t38 -106q0 -15 -4 -39h-65q4 24 4 36q0 95 -84 95q-54 0 -91 -37.5t-48 -93.5h-68q18 78 79 133t136 55zM98 586q0 169 67.5 331t178 281.5t261 192.5t308.5 73q102 0 188 -33t146 -90t101.5 -133.5t61.5 -163.5t20 -180q0 -224 -113 -426.5 t-301.5 -325t-399.5 -122.5q-127 0 -228 49.5t-163 133.5t-94.5 189.5t-32.5 223.5zM1323 858q0 103 -26.5 194t-78 162t-134.5 112.5t-189 41.5q-140 0 -269.5 -67.5t-220.5 -176t-145.5 -248.5t-54.5 -282q0 -103 26.5 -193.5t78 -161.5t135.5 -112t190 -41 q141 0 270 67.5t219.5 176t144.5 248t54 280.5z" />
<glyph unicode="&#x20f;" horiz-adv-x="1165" d="M770 1495q65 0 103 -43t38 -106q0 -15 -4 -39h-65q4 24 4 36q0 95 -84 95q-54 0 -91 -37.5t-48 -93.5h-68q18 78 79 133t136 55zM53 424q0 134 51 257t135.5 210.5t197.5 139.5t233 52q98 0 176 -35t127 -97t74.5 -142t25.5 -174q0 -132 -50 -253.5t-133.5 -209.5 t-197 -140t-235.5 -52q-130 0 -223.5 61t-137 159.5t-43.5 223.5zM969 618q0 163 -82.5 268t-233.5 105q-125 0 -238.5 -72.5t-184 -201t-70.5 -279.5q0 -162 82 -264t233 -102q125 0 238.5 71t184.5 198t71 277z" />
<glyph unicode="&#x210;" horiz-adv-x="1277" d="M578 1884h106l76 -174l-66 -33zM807 1884h102l80 -174l-65 -33zM55 0l310 1454h577q96 0 170 -54t111 -138t37 -181q0 -118 -57.5 -231t-156 -190.5t-212.5 -94.5l221 -565h-119l-217 549h-443l-116 -549h-105zM778 645q99 0 186.5 63.5t137 161.5t49.5 199 q0 120 -66.5 205.5t-169.5 85.5h-466l-152 -715h481z" />
<glyph unicode="&#x211;" horiz-adv-x="681" d="M201 1495h106l76 -174l-66 -33zM430 1495h102l80 -174l-65 -33zM250 1065h98l-57 -262q81 118 185.5 187t209.5 75q8 1 16.5 1t17.5 -0.5t13 -0.5l-20 -92q-137 -5 -256 -86.5t-189 -220.5l-141 -666h-102z" />
<glyph unicode="&#x212;" horiz-adv-x="1277" d="M903 1884q65 0 103 -43t38 -106q0 -15 -4 -39h-65q4 24 4 37q0 94 -84 94q-54 0 -91 -37.5t-48 -93.5h-68q18 78 79 133t136 55zM55 0l310 1454h577q96 0 170 -54t111 -138t37 -181q0 -118 -57.5 -231t-156 -190.5t-212.5 -94.5l221 -565h-119l-217 549h-443l-116 -549 h-105zM778 645q99 0 186.5 63.5t137 161.5t49.5 199q0 120 -66.5 205.5t-169.5 85.5h-466l-152 -715h481z" />
<glyph unicode="&#x213;" horiz-adv-x="681" d="M526 1495q65 0 103.5 -43t38.5 -106q0 -15 -4 -39h-66q4 24 4 36q0 95 -84 95q-54 0 -91 -37.5t-48 -93.5h-68q18 78 79 133t136 55zM250 1065h98l-57 -262q81 118 185.5 187t209.5 75q8 1 16.5 1t17.5 -0.5t13 -0.5l-20 -92q-137 -5 -256 -86.5t-189 -220.5l-141 -666 h-102z" />
<glyph unicode="&#x214;" d="M678 1878h106l76 -174l-65 -33zM907 1878h103l80 -174l-66 -33zM160 467q0 122 28 256l156 731h105l-156 -731q-29 -149 -29 -240q0 -87 18.5 -156t59.5 -124.5t112.5 -86t170.5 -30.5q107 0 199.5 37t157.5 97.5t117.5 145t84.5 172t53 185.5l154 731h104l-154 -731 q-26 -122 -67.5 -227.5t-104.5 -200t-142.5 -161t-186 -105.5t-230.5 -39q-98 0 -175.5 24.5t-128.5 67t-84 103.5t-47.5 130.5t-14.5 151.5z" />
<glyph unicode="&#x215;" horiz-adv-x="1150" d="M457 1495h106l76 -174l-66 -33zM686 1495h102l80 -174l-65 -33zM84 258q0 77 22 193l134 614h100l-127 -600q-23 -108 -23 -174q0 -219 191 -219q129 0 257 88.5t202 232.5l141 672h102l-188 -891q-1 -7 -4 -19t-4.5 -19.5t-1.5 -10.5q0 -33 35 -33l-21 -92 q-18 -2 -45 -2q-32 4 -50 23.5t-18 48.5q0 26 35 182q-93 -127 -224 -199.5t-265 -72.5q-248 0 -248 278z" />
<glyph unicode="&#x216;" d="M1004 1878q65 0 103 -43t38 -106q0 -15 -4 -39h-66q4 24 4 36q0 95 -84 95q-54 0 -91 -37.5t-48 -93.5h-68q18 78 79.5 133t136.5 55zM160 467q0 122 28 256l156 731h105l-156 -731q-29 -149 -29 -240q0 -87 18.5 -156t59.5 -124.5t112.5 -86t170.5 -30.5q107 0 199.5 37 t157.5 97.5t117.5 145t84.5 172t53 185.5l154 731h104l-154 -731q-26 -122 -67.5 -227.5t-104.5 -200t-142.5 -161t-186 -105.5t-230.5 -39q-98 0 -175.5 24.5t-128.5 67t-84 103.5t-47.5 130.5t-14.5 151.5z" />
<glyph unicode="&#x217;" horiz-adv-x="1150" d="M782 1495q65 0 103.5 -43t38.5 -106q0 -15 -4 -39h-66q4 24 4 36q0 95 -84 95q-54 0 -91 -37.5t-48 -93.5h-68q18 78 79 133t136 55zM84 258q0 77 22 193l134 614h100l-127 -600q-23 -108 -23 -174q0 -219 191 -219q129 0 257 88.5t202 232.5l141 672h102l-188 -891 q-1 -7 -4 -19t-4.5 -19.5t-1.5 -10.5q0 -33 35 -33l-21 -92q-18 -2 -45 -2q-32 4 -50 23.5t-18 48.5q0 26 35 182q-93 -127 -224 -199.5t-265 -72.5q-248 0 -248 278z" />
<glyph unicode="&#x218;" horiz-adv-x="1193" d="M-12 205l71 84q163 -207 461 -207q203 0 323 87t120 241q0 49 -16.5 86.5t-43 63t-78 49t-100.5 38.5t-133 37q-70 17 -114.5 30.5t-93 32.5t-77 40t-53 50t-35 67t-10.5 87q0 214 161.5 343.5t413.5 129.5q265 0 406 -170l-72 -82q-107 158 -348 158q-216 0 -332 -98.5 t-116 -251.5q0 -38 8.5 -66.5t30 -52t45 -39.5t68.5 -32t84.5 -27.5t107.5 -28.5q74 -19 123.5 -34.5t100.5 -36.5t82 -44.5t57 -56t37 -73.5t11 -93q0 -147 -78.5 -250t-206.5 -150.5t-294 -47.5q-164 0 -288 53.5t-222 163.5zM362 -383l58 139h-33l33 144h98l-31 -144 l-69 -139h-56z" />
<glyph unicode="&#x219;" horiz-adv-x="944" d="M-35 143l64 70q132 -150 327 -150q151 0 247.5 69t96.5 183q0 24 -7 43.5t-16.5 34t-30.5 28.5t-38.5 23t-52.5 21t-59.5 19t-71.5 20q-68 18 -104 29.5t-77.5 30t-60.5 38.5t-32 50t-13 71q0 166 127 263t316 97q118 0 202.5 -40.5t120.5 -108.5l-67 -55 q-69 120 -269 120q-86 0 -158 -25.5t-120.5 -83.5t-48.5 -140q0 -67 48 -97.5t179 -64.5q72 -20 117 -34.5t92 -36.5t72 -46t41 -59t16 -80q0 -160 -127.5 -256t-331.5 -96q-258 0 -381 163zM240 -383l57 139h-33l33 144h98l-30 -144l-70 -139h-55z" />
<glyph unicode="&#x21a;" horiz-adv-x="1185" d="M694 1360h-504l19 94h1114l-20 -94h-504l-291 -1360h-102zM330 -383l57 139h-33l33 144h98l-30 -144l-70 -139h-55z" />
<glyph unicode="&#x21b;" horiz-adv-x="626" d="M98 133q0 13 4 45l172 803h-143l19 84h143l76 365h102l-76 -365h236l-19 -84h-235l-154 -721q-14 -66 -14 -82q0 -45 28.5 -69.5t73.5 -24.5q82 0 168 49l13 -82q-27 -19 -92 -41t-136 -22q-74 0 -120 38t-46 107zM111 -383l57 139h-33l33 144h98l-30 -144l-70 -139h-55z " />
<glyph unicode="&#x22a;" d="M811 2183l16 76h557l-16 -76h-557zM807 1694l39 180h88l-37 -180h-90zM1075 1694l39 180h88l-37 -180h-90zM98 586q0 169 67.5 331t178 281.5t261 192.5t308.5 73q102 0 188 -33t146 -90t101.5 -133.5t61.5 -163.5t20 -180q0 -224 -113 -426.5t-301.5 -325t-399.5 -122.5 q-127 0 -228 49.5t-163 133.5t-94.5 189.5t-32.5 223.5zM1323 858q0 103 -26.5 194t-78 162t-134.5 112.5t-189 41.5q-140 0 -269.5 -67.5t-220.5 -176t-145.5 -248.5t-54.5 -282q0 -103 26.5 -193.5t78 -161.5t135.5 -112t190 -41q141 0 270 67.5t219.5 176t144.5 248 t54 280.5z" />
<glyph unicode="&#x22b;" horiz-adv-x="1165" d="M555 1800l16 76h557l-16 -76h-557zM551 1311l39 180h88l-37 -180h-90zM819 1311l39 180h88l-37 -180h-90zM53 424q0 134 51 257t135.5 210.5t197.5 139.5t233 52q98 0 176 -35t127 -97t74.5 -142t25.5 -174q0 -132 -50 -253.5t-133.5 -209.5t-197 -140t-235.5 -52 q-130 0 -223.5 61t-137 159.5t-43.5 223.5zM969 618q0 163 -82.5 268t-233.5 105q-125 0 -238.5 -72.5t-184 -201t-70.5 -279.5q0 -162 82 -264t233 -102q125 0 238.5 71t184.5 198t71 277z" />
<glyph unicode="&#x22c;" d="M813 2187l16 76h557l-16 -76h-557zM877 1790q-80 0 -119 -98h-68q2 9 9 26.5t24 43t38.5 47.5t56.5 37.5t75 15.5q43 0 80 -20.5t72.5 -41t76.5 -20.5q29 0 53 9.5t37.5 22.5t24 28.5t14 24t4.5 13.5h68q-2 -10 -9.5 -27.5t-25 -43t-40.5 -47t-61 -37t-81 -15.5 q-39 0 -73 13t-54 28t-47.5 28t-54.5 13zM98 586q0 169 67.5 331t178 281.5t261 192.5t308.5 73q102 0 188 -33t146 -90t101.5 -133.5t61.5 -163.5t20 -180q0 -224 -113 -426.5t-301.5 -325t-399.5 -122.5q-127 0 -228 49.5t-163 133.5t-94.5 189.5t-32.5 223.5zM1323 858 q0 103 -26.5 194t-78 162t-134.5 112.5t-189 41.5q-140 0 -269.5 -67.5t-220.5 -176t-145.5 -248.5t-54.5 -282q0 -103 26.5 -193.5t78 -161.5t135.5 -112t190 -41q141 0 270 67.5t219.5 176t144.5 248t54 280.5z" />
<glyph unicode="&#x22d;" horiz-adv-x="1165" d="M557 1804l16 76h557l-16 -76h-557zM621 1407q-80 0 -119 -98h-68q2 9 9 26.5t24 43t38.5 47.5t56.5 37.5t75 15.5q43 0 80 -20.5t72.5 -41t76.5 -20.5q29 0 53 9.5t37.5 22.5t24 28.5t14 24t4.5 13.5h68q-2 -10 -9.5 -27.5t-25 -43t-40.5 -47t-61 -37t-81 -15.5 q-39 0 -73 13t-54 28t-47.5 28t-54.5 13zM53 424q0 134 51 257t135.5 210.5t197.5 139.5t233 52q98 0 176 -35t127 -97t74.5 -142t25.5 -174q0 -132 -50 -253.5t-133.5 -209.5t-197 -140t-235.5 -52q-130 0 -223.5 61t-137 159.5t-43.5 223.5zM969 618q0 163 -82.5 268 t-233.5 105q-125 0 -238.5 -72.5t-184 -201t-70.5 -279.5q0 -162 82 -264t233 -102q125 0 238.5 71t184.5 198t71 277z" />
<glyph unicode="&#x230;" d="M813 2187l16 76h557l-16 -76h-557zM940 1694l39 184h94l-39 -184h-94zM98 586q0 169 67.5 331t178 281.5t261 192.5t308.5 73q102 0 188 -33t146 -90t101.5 -133.5t61.5 -163.5t20 -180q0 -224 -113 -426.5t-301.5 -325t-399.5 -122.5q-127 0 -228 49.5t-163 133.5 t-94.5 189.5t-32.5 223.5zM1323 858q0 103 -26.5 194t-78 162t-134.5 112.5t-189 41.5q-140 0 -269.5 -67.5t-220.5 -176t-145.5 -248.5t-54.5 -282q0 -103 26.5 -193.5t78 -161.5t135.5 -112t190 -41q141 0 270 67.5t219.5 176t144.5 248t54 280.5z" />
<glyph unicode="&#x231;" horiz-adv-x="1165" d="M557 1804l16 76h557l-16 -76h-557zM684 1311l39 184h94l-39 -184h-94zM53 424q0 134 51 257t135.5 210.5t197.5 139.5t233 52q98 0 176 -35t127 -97t74.5 -142t25.5 -174q0 -132 -50 -253.5t-133.5 -209.5t-197 -140t-235.5 -52q-130 0 -223.5 61t-137 159.5t-43.5 223.5 zM969 618q0 163 -82.5 268t-233.5 105q-125 0 -238.5 -72.5t-184 -201t-70.5 -279.5q0 -162 82 -264t233 -102q125 0 238.5 71t184.5 198t71 277z" />
<glyph unicode="&#x232;" horiz-adv-x="1232" d="M557 1757l16 76h557l-16 -76h-557zM541 553l-351 901h117l307 -805l652 805h114l-735 -905l-119 -549h-102z" />
<glyph unicode="&#x233;" horiz-adv-x="962" d="M377 1374l16 76h557l-16 -76h-557zM-74 -375q64 11 107 27t82 48t69.5 71t75.5 108l74 111l-228 1075h107l193 -965l98 156q182 294 262 458t131 351h102q-56 -200 -137.5 -365.5t-283.5 -488.5l-168 -264q-143 -229 -238.5 -311.5t-232.5 -94.5z" />
<glyph unicode="&#x237;" horiz-adv-x="411" d="M-434 -287l69 68q41 -49 138 -49q75 0 147 60t90 147l240 1126h102l-239 -1122q-27 -129 -133 -217t-218 -88q-135 0 -196 75z" />
<glyph unicode="&#x259;" horiz-adv-x="1138" d="M424 -20q-180 0 -288.5 118t-108.5 303q0 103 24 168h885q6 41 6 78q0 154 -87 253t-224 99q-106 0 -210 -56.5t-161 -145.5l-84 24q68 114 202 188t275 74q178 0 287 -129.5t109 -322.5q0 -126 -52 -246.5t-137 -208.5t-200 -142t-236 -54zM442 61q158 0 294 123.5 t186 309.5h-787q-6 -44 -6 -82q0 -157 86 -254t227 -97z" />
<glyph unicode="&#x2b9;" horiz-adv-x="374" d="M266 1104l86 358h76l-113 -358h-49z" />
<glyph unicode="&#x2ba;" horiz-adv-x="804" d="M266 1104l86 358h76l-113 -358h-49zM696 1104l86 358h76l-113 -358h-49z" />
<glyph unicode="&#x2bb;" horiz-adv-x="284" d="M385 1495l-51 -127h26l-32 -135h-76l35 135l57 127h41z" />
<glyph unicode="&#x2bc;" horiz-adv-x="385" d="M319 1288l-53 33l131 174h101z" />
<glyph unicode="&#x2be;" horiz-adv-x="280" d="M225 1217l15 59q33 0 64.5 40t31.5 97q0 33 -13 52.5t-34 19.5l14 61q38 0 61 -34t23 -87q0 -86 -49.5 -147t-112.5 -61z" />
<glyph unicode="&#x2bf;" horiz-adv-x="278" d="M338 1217q-38 0 -61 33.5t-23 86.5q0 85 50 147t114 62l-17 -61q-37 0 -65.5 -38.5t-28.5 -96.5q0 -32 12 -53t33 -21z" />
<glyph unicode="&#x2c6;" horiz-adv-x="657" d="M264 1296l225 166h76l154 -166l-70 -36l-137 129l-193 -129z" />
<glyph unicode="&#x2c7;" horiz-adv-x="657" d="M299 1460l70 35l137 -129l192 129l54 -35l-224 -166h-75z" />
<glyph unicode="&#x2c8;" horiz-adv-x="335" d="M332 1587v-839h-92v839h92z" />
<glyph unicode="&#x2c9;" horiz-adv-x="749" d="M289 1376l16 76h531l-17 -76h-530z" />
<glyph unicode="&#x2cb;" horiz-adv-x="364" d="M281 1104l61 358h78l-88 -358h-51z" />
<glyph unicode="&#x2cc;" horiz-adv-x="335" d="M117 573v-839h-92v839h92z" />
<glyph unicode="&#x2d8;" horiz-adv-x="557" d="M594 1495h65q-17 -78 -80 -133t-135 -55q-62 0 -101.5 41.5t-39.5 105.5q0 13 4 41h68q-2 -10 -2 -29q0 -42 24 -72t60 -30q40 0 80 38t57 93z" />
<glyph unicode="&#x2d9;" horiz-adv-x="299" d="M268 1311l39 184h94l-39 -184h-94z" />
<glyph unicode="&#x2da;" horiz-adv-x="473" d="M442 1495q49 0 78 -28.5t29 -73.5q0 -64 -48 -109t-116 -45q-49 0 -77.5 29t-28.5 75q0 64 48 108t115 44zM334 1352q0 -28 17 -47t46 -19q35 0 67 28.5t32 67.5q0 30 -18 48t-48 18q-38 0 -67 -27.5t-29 -68.5z" />
<glyph unicode="&#x2db;" horiz-adv-x="391" d="M-57 -240q0 65 46.5 129t145.5 142h27l14 -31q-89 -75 -125.5 -123.5t-36.5 -91.5q0 -29 22 -46t70 -28l-45 -69q-118 21 -118 118z" />
<glyph unicode="&#x2dc;" horiz-adv-x="798" d="M455 1407q-80 0 -119 -98h-68q2 9 9 26.5t24 43t38.5 47.5t56.5 37.5t75 15.5q43 0 80 -20.5t72.5 -41t76.5 -20.5q29 0 53 9.5t38 22.5t24.5 28.5t14 24t4.5 13.5h67q-2 -10 -9.5 -27.5t-25 -43t-40.5 -47t-61 -37t-81 -15.5q-39 0 -73 13t-54 28t-47.5 28t-54.5 13z " />
<glyph unicode="&#x2dd;" horiz-adv-x="653" d="M322 1288l-54 33l154 174h104zM551 1288l-53 33l151 174h107z" />
<glyph unicode="&#x300;" horiz-adv-x="0" d="M-133 1495h115l84 -174l-76 -33z" />
<glyph unicode="&#x301;" horiz-adv-x="0" d="M-113 1288l-63 33l156 174h116z" />
<glyph unicode="&#x302;" horiz-adv-x="0" d="M-393 1296l225 166h76l153 -166l-69 -36l-137 129l-193 -129z" />
<glyph unicode="&#x303;" horiz-adv-x="0" d="M-344 1407q-80 0 -119 -98h-67q2 9 9 26.5t23.5 43t38.5 47.5t56.5 37.5t74.5 15.5q43 0 80.5 -20.5t73 -41t76.5 -20.5q29 0 53 9.5t37.5 22.5t24 28.5t14 24t4.5 13.5h67q-2 -10 -9.5 -27.5t-25 -43t-40.5 -47t-61 -37t-81 -15.5q-39 0 -73 13t-54 28t-47.5 28 t-54.5 13z" />
<glyph unicode="&#x304;" horiz-adv-x="0" d="M-481 1374l16 76h557l-16 -76h-557z" />
<glyph unicode="&#x306;" horiz-adv-x="0" d="M37 1495h65q-17 -78 -80 -133t-135 -55q-62 0 -101.5 41.5t-39.5 105.5q0 13 4 41h68q-2 -10 -2 -29q0 -42 24 -72t60 -30q40 0 80 38t57 93z" />
<glyph unicode="&#x307;" horiz-adv-x="0" d="M-31 1311l39 184h94l-39 -184h-94z" />
<glyph unicode="&#x308;" horiz-adv-x="0" d="M-295 1311l39 180h88l-37 -180h-90zM-27 1311l39 180h88l-37 -180h-90z" />
<glyph unicode="&#x309;" horiz-adv-x="0" d="M-152 1409l-24 45q101 68 176 68q59 0 80.5 -36t-0.5 -89q-14 -39 -51 -74.5t-107 -83.5l-20 39q93 69 108 111q12 29 0.5 49t-45.5 20q-25 0 -49 -10.5t-68 -38.5z" />
<glyph unicode="&#x30a;" horiz-adv-x="0" d="M-31 1495q49 0 78 -28.5t29 -73.5q0 -64 -48 -109t-116 -45q-49 0 -78 29t-29 75q0 64 48.5 108t115.5 44zM-139 1352q0 -28 17 -47t46 -19q35 0 67 28.5t32 67.5q0 30 -18 48t-48 18q-38 0 -67 -27.5t-29 -68.5z" />
<glyph unicode="&#x30b;" horiz-adv-x="0" d="M-332 1288l-53 33l154 174h104zM-102 1288l-54 33l152 174h106z" />
<glyph unicode="&#x30c;" horiz-adv-x="0" d="M-358 1460l69 35l137 -129l193 129l53 -35l-223 -166h-76z" />
<glyph unicode="&#x30f;" horiz-adv-x="0" d="M-348 1495h106l76 -174l-65 -33zM-119 1495h103l79 -174l-65 -33z" />
<glyph unicode="&#x311;" horiz-adv-x="0" d="M-76 1495q65 0 103.5 -43t38.5 -106q0 -9 -5 -39h-65q4 24 4 36q0 95 -84 95q-54 0 -91 -37.5t-48 -93.5h-68q18 78 79 133t136 55z" />
<glyph unicode="&#x312;" horiz-adv-x="0" d="M100 1495l-51 -127h27l-33 -135h-76l35 135l57 127h41z" />
<glyph unicode="&#x31b;" horiz-adv-x="0" d="M-274 1061l16 80q124 0 174 47q35 35 57 125h90q-17 -64 -35 -102.5t-55 -73.5q-37 -36 -104.5 -56t-142.5 -20z" />
<glyph unicode="&#x323;" horiz-adv-x="0" d="M-375 -309l39 184h94l-39 -184h-94z" />
<glyph unicode="&#x324;" horiz-adv-x="0" d="M-616 -313l43 180h81l-43 -180h-81zM-383 -313l43 180h82l-43 -180h-82z" />
<glyph unicode="&#x326;" horiz-adv-x="0" d="M-393 -383l57 139h-33l33 144h98l-30 -144l-70 -139h-55z" />
<glyph unicode="&#x327;" horiz-adv-x="0" d="M-479 -356q-106 0 -191 55l45 61q78 -45 146 -45q72 0 116 37.5t44 97.5q0 78 -97 150l56 31q106 -86 106 -183t-62 -150.5t-163 -53.5z" />
<glyph unicode="&#x328;" horiz-adv-x="0" d="M-449 -240q0 64 46.5 128t146.5 143h27l14 -31q-89 -75 -125.5 -123.5t-36.5 -91.5q0 -29 22 -46t70 -28l-45 -69q-119 22 -119 118z" />
<glyph unicode="&#x32e;" horiz-adv-x="0" d="M-428 -287q-63 0 -97.5 56.5t-15.5 132.5h62q-11 -50 9 -89.5t58 -39.5q34 0 71 37.5t54 91.5h60q-19 -77 -77.5 -133t-123.5 -56z" />
<glyph unicode="&#x331;" horiz-adv-x="0" d="M-799 -238l19 76h530l-16 -76h-533z" />
<glyph unicode="&#x335;" horiz-adv-x="0" d="M-510 588l16 74h416l-16 -74h-416z" />
<glyph unicode="&#x3c0;" horiz-adv-x="1337" d="M821 180v791h-444v-971h-101v971h-163v94h1034v-94h-225v-760q0 -60 34.5 -94.5t94.5 -34.5q52 0 110 20l23 -82q-35 -13 -86.5 -22.5t-87.5 -9.5q-85 0 -137 52.5t-52 139.5z" />
<glyph unicode="&#x400;" horiz-adv-x="1196" d="M641 1884h115l84 -174l-76 -33zM365 1454h903l-19 -94h-800l-121 -572h698l-20 -90h-697l-129 -604h817l-20 -94h-922z" />
<glyph unicode="&#x401;" horiz-adv-x="1196" d="M668 1700l39 180h88l-37 -180h-90zM936 1700l39 180h88l-37 -180h-90zM365 1454h903l-19 -94h-800l-121 -572h698l-20 -90h-697l-129 -604h817l-20 -94h-922z" />
<glyph unicode="&#x402;" horiz-adv-x="1515" d="M971 899q206 0 314 -125t71 -344q-37 -221 -171 -332.5t-337 -111.5q-78 0 -158 18l21 88q78 -16 141 -16q162 0 264.5 89t132.5 265q31 180 -55 277.5t-248 97.5q-192 0 -399 -119l-146 -686h-104l287 1360h-394l21 94h1034l-20 -94h-537l-121 -574q212 113 404 113z " />
<glyph unicode="&#x403;" horiz-adv-x="1019" d="M850 1677l-64 33l156 174h117zM53 0l307 1454h807l-20 -94h-701l-288 -1360h-105z" />
<glyph unicode="&#x404;" horiz-adv-x="1474" d="M717 84q93 0 186.5 28.5t185.5 95t154 161.5l84 -43q-94 -158 -273 -248t-360 -90q-146 0 -266 65t-193.5 171t-106 240.5t-13.5 272.5q19 133 85 261.5t167 232t244.5 167.5t303.5 64q189 0 316.5 -86.5t179.5 -230.5l-92 -49q-35 96 -105.5 158.5t-149.5 87t-171 24.5 q-127 0 -241.5 -49t-198 -130.5t-141.5 -183.5t-83 -212h703l-17 -95h-700q-14 -163 45 -303t180 -224.5t277 -84.5z" />
<glyph unicode="&#x405;" horiz-adv-x="1193" d="M-12 205l71 84q163 -207 461 -207q203 0 323 87t120 241q0 49 -16.5 86.5t-43 63t-78 49t-100.5 38.5t-133 37q-70 17 -114.5 30.5t-93 32.5t-77 40t-53 50t-35 67t-10.5 87q0 214 161.5 343.5t413.5 129.5q265 0 406 -170l-72 -82q-107 158 -348 158q-216 0 -332 -98.5 t-116 -251.5q0 -38 8.5 -66.5t30 -52t45 -39.5t68.5 -32t84.5 -27.5t107.5 -28.5q74 -19 123.5 -34.5t100.5 -36.5t82 -44.5t57 -56t37 -73.5t11 -93q0 -147 -78.5 -250t-206.5 -150.5t-294 -47.5q-164 0 -288 53.5t-222 163.5z" />
<glyph unicode="&#x406;" horiz-adv-x="477" d="M365 1452h104l-309 -1452h-105z" />
<glyph unicode="&#x407;" horiz-adv-x="477" d="M289 1696l39 180h88l-37 -180h-90zM557 1696l39 180h88l-37 -180h-90zM365 1452h104l-309 -1452h-105z" />
<glyph unicode="&#x408;" horiz-adv-x="950" d="M-72 68l52 84q95 -80 253 -80q63 0 115 15t92 41t74 71t58.5 93t48 120t40.5 140t37 163l158 737h105l-158 -737q-23 -108 -42.5 -185t-47.5 -159.5t-58.5 -138t-73.5 -107.5t-94.5 -82t-120 -48t-151.5 -18q-169 0 -287 91z" />
<glyph unicode="&#x409;" horiz-adv-x="2111" d="M-27 0l21 94q83 0 151 44t136 151t132.5 294.5t131.5 467.5l96 403h807l-121 -577h252q229 0 327 -119t64 -320q-31 -188 -172 -313t-360 -125h-402l289 1360h-606l-78 -330q-71 -302 -142.5 -501.5t-153.5 -316.5t-170 -164.5t-202 -47.5zM1161 94h283 q174 0 284.5 100.5t135.5 243.5q8 54 8.5 104t-19.5 94t-54 76.5t-95 51t-143 18.5h-254z" />
<glyph unicode="&#x40a;" horiz-adv-x="2050" d="M57 0l308 1454h104l-135 -637h790l136 637h104l-131 -627h278q228 0 327 -110t67 -297q-14 -86 -56 -161.5t-107.5 -133.5t-160 -91.5t-205.5 -33.5h-424l152 721h-789l-153 -721h-105zM1075 94h305q92 0 168 27.5t126 74t81.5 103.5t42.5 121q7 49 7 94.5t-20 85.5 t-54.5 69.5t-96 46.5t-143.5 17h-281z" />
<glyph unicode="&#x40b;" horiz-adv-x="1499" d="M946 887q236 0 331.5 -107.5t51.5 -333.5l-92 -446h-104l94 449q37 182 -35.5 267t-259.5 85q-105 0 -217 -26t-185 -66l-149 -709h-105l289 1360h-375l19 94h1030l-18 -94h-551l-119 -555q193 82 395 82z" />
<glyph unicode="&#x40c;" horiz-adv-x="1263" d="M834 1677l-64 33l156 174h116zM57 0l308 1454h104l-141 -666h237l641 666h129l-684 -700l439 -754h-115l-404 696h-262l-147 -696h-105z" />
<glyph unicode="&#x40d;" horiz-adv-x="1480" d="M760 1884h114l84 -174l-75 -33zM57 0l308 1454h104l-276 -1304l1181 1304h99l-310 -1454h-104l276 1288l-1169 -1288h-109z" />
<glyph unicode="&#x40e;" horiz-adv-x="1208" d="M848 1683q-143 0 -212.5 54.5t-55.5 138.5h86q-10 -50 38.5 -86.5t139.5 -36.5q115 0 180 33t76 90h82q-13 -83 -101 -138t-233 -55zM197 0l18 92h98q91 0 155 49.5t114 141.5l24 45l-420 1126h103l373 -1020l550 1020h107l-653 -1194q-72 -133 -157 -196.5t-218 -63.5 h-94z" />
<glyph unicode="&#x40f;" horiz-adv-x="1417" d="M473 -279l57 279h-473l308 1454h104l-287 -1360h834l287 1360h104l-309 -1454h-473l-60 -279h-92z" />
<glyph unicode="&#x410;" horiz-adv-x="1329" d="M807 1454h90l272 -1454h-110l-90 479h-654l-290 -479h-113zM961 565l-136 762l-467 -762h603z" />
<glyph unicode="&#x411;" horiz-adv-x="1345" d="M57 0l308 1454h954l-21 -94h-849l-115 -549h502q228 0 326.5 -107.5t66.5 -287.5q-31 -180 -168 -298t-354 -118h-650zM180 94h531q93 0 168.5 27t124.5 74t78 103t40 120q7 48 6.5 92.5t-20.5 83t-54.5 67.5t-96 45.5t-144.5 16.5h-498z" />
<glyph unicode="&#x412;" horiz-adv-x="1302" d="M365 1454h647q115 0 180 -87.5t65 -209.5q0 -131 -78 -245t-202 -167q89 -30 138.5 -110.5t49.5 -185.5q0 -91 -39.5 -175t-103.5 -143.5t-147.5 -95t-169.5 -35.5h-650zM827 778q125 0 224.5 109t99.5 243q0 99 -50.5 164.5t-137.5 65.5h-514l-123 -582h501zM723 94 q127 0 232.5 110.5t105.5 244.5q0 101 -54 171t-143 70h-557l-127 -596h543z" />
<glyph unicode="&#x413;" horiz-adv-x="1019" d="M53 0l307 1454h807l-20 -94h-701l-288 -1360h-105z" />
<glyph unicode="&#x414;" horiz-adv-x="1562" d="M-68 -279l78 373h62q87 1 162 99.5t150.5 322.5t152.5 592l73 346h863l-287 -1360h172l-80 -373h-94l57 279h-1155l-57 -279h-97zM246 94h835l269 1266h-660l-72 -340q-89 -422 -180 -638t-192 -288z" />
<glyph unicode="&#x415;" horiz-adv-x="1196" d="M365 1454h903l-19 -94h-800l-121 -572h698l-20 -90h-697l-129 -604h817l-20 -94h-922z" />
<glyph unicode="&#x416;" horiz-adv-x="1957" d="M-66 0l697 750l-410 704h111l385 -666h229l141 666h105l-141 -666h221l633 666h125l-674 -700l428 -754h-111l-393 696h-248l-147 -696h-105l148 696h-223l-648 -696h-123z" />
<glyph unicode="&#x417;" horiz-adv-x="1099" d="M430 -18q-140 0 -245 61.5t-150 173.5l92 49q36 -94 120 -144t199 -50q165 0 274 85t132 232q22 142 -53.5 232t-227.5 90h-116l16 88h115q116 0 206 82.5t109 203.5q22 131 -46 213t-202 82q-103 0 -192.5 -48t-145.5 -136l-73 49q75 108 183.5 168t238.5 60 q175 0 271.5 -106.5t70.5 -274.5q-17 -110 -88.5 -200.5t-174.5 -131.5q122 -35 178.5 -137.5t34.5 -241.5q-29 -185 -169.5 -292t-356.5 -107z" />
<glyph unicode="&#x418;" horiz-adv-x="1480" d="M57 0l308 1454h104l-276 -1304l1181 1304h99l-310 -1454h-104l276 1288l-1169 -1288h-109z" />
<glyph unicode="&#x419;" horiz-adv-x="1480" d="M946 1683q-143 0 -212.5 54.5t-55.5 138.5h86q-10 -50 38.5 -86.5t139.5 -36.5q115 0 180 33t76 90h82q-13 -83 -101 -138t-233 -55zM57 0l308 1454h104l-276 -1304l1181 1304h99l-310 -1454h-104l276 1288l-1169 -1288h-109z" />
<glyph unicode="&#x41a;" horiz-adv-x="1263" d="M57 0l308 1454h104l-141 -666h237l641 666h129l-684 -700l439 -754h-115l-404 696h-262l-147 -696h-105z" />
<glyph unicode="&#x41b;" horiz-adv-x="1509" d="M-27 0l21 94q83 0 151 44t135.5 151.5t132 294.5t132.5 467l96 403h858l-307 -1454h-105l289 1360h-657l-78 -330q-97 -401 -196.5 -627t-209.5 -314.5t-262 -88.5z" />
<glyph unicode="&#x41c;" horiz-adv-x="1724" d="M365 1454h104l350 -1040l795 1040h102l-309 -1454h-104l268 1257l-748 -981h-65l-330 981l-268 -1257h-105z" />
<glyph unicode="&#x41d;" horiz-adv-x="1445" d="M365 1454h104l-141 -663h864l141 663h105l-310 -1454h-104l147 696h-862l-149 -696h-105z" />
<glyph unicode="&#x41e;" horiz-adv-x="1556" d="M696 -10q-119 1 -221 41.5t-174.5 111.5t-121 163.5t-65 201t-1.5 219.5q27 192 141 361t288.5 272.5t364.5 103.5q149 0 270 -62t194.5 -164.5t105 -235.5t12.5 -275q-20 -151 -92 -287t-177.5 -235t-242.5 -157t-281 -58zM713 86q128 0 246.5 56t205 146.5t144.5 205 t75 233.5q24 174 -29.5 320.5t-175.5 233.5t-286 87q-128 0 -247 -55.5t-206 -146t-145.5 -205.5t-75.5 -234q-18 -125 9.5 -241t90.5 -204.5t165.5 -142t228.5 -53.5z" />
<glyph unicode="&#x41f;" horiz-adv-x="1447" d="M57 0l308 1454h1073l-308 -1454h-104l289 1360h-866l-287 -1360h-105z" />
<glyph unicode="&#x420;" horiz-adv-x="1224" d="M365 1454h561q99 0 175 -54t113 -137.5t37 -179.5q0 -129 -67 -252.5t-183 -202.5t-247 -79h-478l-116 -549h-105zM770 645q100 0 188 65t137.5 164.5t49.5 202.5q0 119 -67 201t-171 82h-458l-152 -715h473z" />
<glyph unicode="&#x421;" horiz-adv-x="1452" d="M694 -12q-146 0 -266 65t-193.5 171t-106 240.5t-13.5 272.5q19 133 85 261.5t167 232t244.5 167.5t303.5 64q189 0 316.5 -86.5t179.5 -230.5l-92 -49q-35 96 -105.5 158.5t-149.5 87t-171 24.5q-135 0 -256.5 -56t-206 -147t-140 -203t-71.5 -229q-17 -127 12 -245.5 t94.5 -206.5t167.5 -141.5t224 -53.5q93 0 186.5 28.5t185.5 95t154 161.5l84 -43q-94 -158 -273 -248t-360 -90z" />
<glyph unicode="&#x422;" horiz-adv-x="1185" d="M694 1360h-504l19 94h1114l-20 -94h-504l-291 -1360h-102z" />
<glyph unicode="&#x423;" horiz-adv-x="1208" d="M197 0l18 92h98q91 0 155 49.5t114 141.5l24 45l-420 1126h103l373 -1020l550 1020h107l-653 -1194q-72 -133 -157 -196.5t-218 -63.5h-94z" />
<glyph unicode="&#x424;" horiz-adv-x="1660" d="M1044 1391q136 -7 249 -52.5t190.5 -122.5t110.5 -192t10 -252q-31 -185 -150 -326.5t-294 -216t-378 -75.5l-30 -154h-101l33 154q-139 7 -252.5 52.5t-190.5 123.5t-109.5 192t-10.5 250q36 190 156 331t291.5 213t373.5 75l29 127h100zM705 246l221 1052 q-272 -5 -464.5 -146t-234.5 -380q-21 -123 8 -222.5t98 -163t163.5 -99.5t208.5 -41zM1499 772q20 122 -9 221.5t-96.5 164t-162.5 100.5t-209 40l-221 -1052q176 3 324 66.5t248 183t126 276.5z" />
<glyph unicode="&#x425;" horiz-adv-x="1224" d="M575 717l-382 737h118l340 -661l619 661h119l-697 -737l371 -717h-119l-326 641l-600 -641h-118z" />
<glyph unicode="&#x426;" horiz-adv-x="1492" d="M1114 -276l57 276h-1114l308 1454h104l-289 -1360h830l288 1360h105l-289 -1360h172l-78 -370h-94z" />
<glyph unicode="&#x427;" horiz-adv-x="1349" d="M1235 1454h104l-307 -1454h-104l135 639q-211 -80 -414 -80q-253 0 -353.5 111.5t-53.5 337.5l98 446h104l-98 -457q-38 -182 38.5 -263t283.5 -81q111 0 227 24.5t190 63.5z" />
<glyph unicode="&#x428;" horiz-adv-x="1882" d="M57 0l308 1454h104l-289 -1360h598l287 1360h104l-286 -1360h596l288 1360h105l-307 -1454h-1508z" />
<glyph unicode="&#x429;" horiz-adv-x="1961" d="M1581 -279l57 279h-1581l308 1454h104l-287 -1360h598l285 1360h104l-284 -1360h596l286 1360h105l-289 -1360h172l-78 -373h-96z" />
<glyph unicode="&#x42a;" horiz-adv-x="1449" d="M309 0l289 1362h-408l19 92h512l-123 -577h352q229 0 327 -119t64 -320q-16 -91 -58.5 -169.5t-108 -138.5t-159.5 -95t-204 -35h-502zM434 94h381q93 0 169.5 28.5t126.5 78t81 109t43 128.5q8 54 8.5 104t-19.5 94t-54 76.5t-95 51t-143 18.5h-354z" />
<glyph unicode="&#x42b;" horiz-adv-x="1599" d="M57 0l308 1454h104l-123 -577h287q227 0 324.5 -119t64.5 -320q-31 -188 -171.5 -313t-358.5 -125h-435zM1487 1452h104l-309 -1452h-104zM180 94h318q93 0 168.5 28.5t125 78t80.5 109t43 128.5q8 54 8.5 104t-19.5 94t-54 76.5t-95 51t-143 18.5h-286z" />
<glyph unicode="&#x42c;" horiz-adv-x="1224" d="M57 0l308 1454h104l-123 -577h348q227 0 324.5 -119t64.5 -320q-31 -188 -171.5 -313t-358.5 -125h-496zM180 94h379q93 0 168.5 28.5t125.5 78t81 109.5t43 128q8 54 8.5 104t-19.5 94t-54 76.5t-95 51t-143 18.5h-348z" />
<glyph unicode="&#x42d;" horiz-adv-x="1452" d="M848 1462q94 0 175 -21.5t140 -60.5t106 -92.5t74 -117.5t43.5 -136t15 -147.5t-12.5 -151.5q-23 -142 -90.5 -275t-167 -238.5t-237 -169.5t-288.5 -64q-188 0 -330.5 90t-191.5 248l94 43q49 -140 167 -212.5t267 -72.5q123 0 235.5 49.5t197.5 134t146 195.5t87 235 h-729l16 90h725q23 265 -97 421.5t-357 156.5q-147 0 -277.5 -65.5t-224.5 -204.5l-80 49q97 146 248.5 231.5t345.5 85.5z" />
<glyph unicode="&#x42e;" horiz-adv-x="2052" d="M1403 1464q149 0 270 -62t194.5 -164.5t105 -235.5t12.5 -275q-20 -151 -92 -287t-177.5 -235t-242.5 -157t-281 -58q-114 1 -213 38.5t-171 103.5t-121.5 153t-70.5 189t-12 208h-299l-143 -682h-105l308 1454h104l-145 -678h292q38 183 152.5 340t283 252.5t351.5 95.5 zM1880 727q24 174 -29.5 320.5t-175.5 233.5t-286 87q-128 0 -247 -55.5t-206 -146t-145.5 -205.5t-75.5 -234q-18 -125 9 -241t90 -204.5t166 -142t228 -53.5q128 0 246.5 56t205 146.5t145 205.5t75.5 233z" />
<glyph unicode="&#x42f;" horiz-adv-x="1288" d="M29 0l516 637q-154 33 -224 147t-42 273q32 181 177 289t361 108h463l-307 -1454h-105l127 610h-297q-35 0 -51 2l-491 -612h-127zM690 705h328l137 655h-340q-173 0 -290 -83.5t-144 -234.5q-26 -147 53 -242t256 -95z" />
<glyph unicode="&#x430;" horiz-adv-x="1210" d="M55 428q0 123 50 243t131 210t190.5 146t222.5 56q126 0 214 -70t128 -179l49 231h105l-197 -918q-4 -16 -4 -24q0 -31 35 -31l-21 -92q-31 -4 -40 -2q-74 6 -74 72q0 18 24 143q-84 -106 -201.5 -169.5t-232.5 -63.5q-114 0 -202 62.5t-132.5 164t-44.5 221.5zM891 358 l74 351q-15 117 -103.5 199.5t-208.5 82.5q-125 0 -240 -83t-183 -210.5t-68 -257.5q0 -152 87.5 -260t221.5 -108q75 0 163 38.5t160 106t97 141.5z" />
<glyph unicode="&#x431;" horiz-adv-x="1206" d="M537 -20q-232 0 -331.5 156.5t-51.5 428.5q49 285 130.5 465t198.5 273.5t289 128.5q38 8 96 17t95 15.5t78.5 18.5t69 33t42.5 51l74 -31q-8 -27 -23 -49t-32 -37.5t-45 -29t-51.5 -22t-63 -18t-68 -15t-78 -14.5t-82.5 -16q-208 -42 -321 -181t-180 -421 q70 126 186.5 194t257.5 68q142 0 235 -64t127 -176t11 -261q-37 -238 -185 -376t-378 -138zM549 68q180 0 296.5 112.5t149.5 306.5q29 191 -49 305.5t-254 114.5q-162 0 -286.5 -115.5t-157.5 -304.5q-21 -113 5.5 -207.5t103 -153t192.5 -58.5z" />
<glyph unicode="&#x432;" horiz-adv-x="1134" d="M782 553q95 -28 146 -90t51 -150q0 -104 -59.5 -180t-160 -114t-227.5 -37q-245 1 -343.5 149t-47.5 430q46 253 196.5 388.5t383.5 135.5q148 0 228.5 -63.5t80.5 -179.5q0 -101 -64 -175t-184 -114zM709 1001q-173 0 -292 -105t-163 -298q120 -14 235 -14 q212 3 326.5 68t114.5 179q0 81 -57 125.5t-164 44.5zM537 63q149 -2 244.5 65t95.5 185q0 90 -57 143.5t-167 65.5q-80 -12 -178 -12q-118 0 -233 14q-38 -233 33 -345.5t262 -115.5z" />
<glyph unicode="&#x433;" horiz-adv-x="983" d="M446 -20q-182 0 -272 75.5t-76 210.5q10 110 94 177t281 130q161 56 222.5 105.5t70.5 132.5q9 93 -45 143t-162 50q-93 0 -171.5 -35.5t-125.5 -98.5l-76 50q60 80 160 122.5t227 42.5q153 0 230.5 -72.5t68.5 -203.5q-11 -116 -96 -183t-268 -128 q-166 -54 -230.5 -103.5t-74.5 -132.5q-11 -95 55.5 -145.5t202.5 -50.5q205 0 332 139l65 -60q-152 -165 -412 -165z" />
<glyph unicode="&#x434;" horiz-adv-x="1208" d="M504 -20q-139 0 -243 74t-149.5 196.5t-25.5 265.5q31 212 194 360t371 148q147 0 253 -85t134 -218q38 246 0.5 392t-151.5 214q-147 94 -481 72v90q355 23 528 -86q217 -128 217 -451q0 -241 -90 -528q-61 -192 -211 -318t-346 -126zM516 68q165 0 303.5 132.5 t163.5 313.5q17 115 -21 212.5t-120 154.5t-189 57q-168 0 -303.5 -123.5t-163.5 -304.5q-16 -121 22.5 -223t120 -160.5t187.5 -58.5z" />
<glyph unicode="&#x435;" horiz-adv-x="1118" d="M526 68q118 0 216.5 63t136.5 135l90 -28q-15 -30 -41.5 -62.5t-69 -68t-93 -63.5t-118.5 -46t-141 -18q-135 0 -234 68.5t-145 180.5t-39 248q5 156 83.5 294.5t217 225t303.5 86.5q63 0 122.5 -18.5t109 -52.5t79.5 -89.5t31 -123.5q5 -153 -130.5 -232.5t-414.5 -79.5 q-143 0 -301 11v-19q-9 -179 81 -295t257 -116zM676 995q-166 0 -300 -121t-173 -292q200 -11 286 -11q240 0 342 60t97 168q-3 93 -78.5 144.5t-173.5 51.5z" />
<glyph unicode="&#x436;" horiz-adv-x="1552" d="M-43 0q139 208 256 341t250 206l-270 518h106l248 -481l166 -2l102 483h100l-102 -483h176q115 66 209 175.5t227 307.5h113q-126 -188 -235.5 -315.5t-223.5 -204.5l299 -545h-114l-273 508h-192l-109 -508h-102l108 508h-129q-74 -33 -139 -82.5t-127 -119t-112 -137.5 t-117 -169h-115z" />
<glyph unicode="&#x437;" horiz-adv-x="968" d="M371 -12q-139 0 -232 55.5t-127 157.5l90 37q26 -77 99 -119.5t182 -42.5q134 0 225.5 63t108.5 168q17 94 -37 154t-162 61h-143l14 76h150q69 0 130 57t74 136q18 94 -35.5 148t-168.5 54q-188 0 -285 -151l-76 41q62 95 159.5 146.5t217.5 51.5q151 0 231 -77t58 -209 q-13 -77 -60.5 -138t-115.5 -92q88 -29 127 -100.5t22 -169.5q-24 -141 -147.5 -224t-298.5 -83z" />
<glyph unicode="&#x438;" horiz-adv-x="1150" d="M84 258q0 77 22 193l134 614h100l-127 -600q-23 -108 -23 -174q0 -219 191 -219q129 0 257 88.5t202 232.5l141 672h102l-188 -891q-1 -7 -4 -19t-4.5 -19.5t-1.5 -10.5q0 -33 35 -33l-21 -92q-18 -2 -45 -2q-32 4 -50 23.5t-18 48.5q0 26 35 182q-93 -127 -224 -199.5 t-265 -72.5q-248 0 -248 278z" />
<glyph unicode="&#x439;" horiz-adv-x="1150" d="M678 1253q-121 0 -178 44.5t-51 115.5h63q-5 -45 35.5 -74.5t134.5 -29.5q91 0 134 27t63 77h61q-6 -70 -73 -115t-189 -45zM84 258q0 77 22 193l134 614h100l-127 -600q-23 -108 -23 -174q0 -219 191 -219q129 0 257 88.5t202 232.5l141 672h102l-188 -891q-1 -7 -4 -19 t-4.5 -19.5t-1.5 -10.5q0 -33 35 -33l-21 -92q-18 -2 -45 -2q-32 4 -50 23.5t-18 48.5q0 26 35 182q-93 -127 -224 -199.5t-265 -72.5q-248 0 -248 278z" />
<glyph unicode="&#x43a;" horiz-adv-x="987" d="M41 0l225 1065h103l-103 -479h174q115 67 217.5 183.5t221.5 295.5h110q-124 -189 -233.5 -315.5t-225.5 -204.5l299 -545h-114l-275 502h-192l-107 -502h-100z" />
<glyph unicode="&#x43b;" horiz-adv-x="1075" d="M-16 0q209 605 661 1065h100l164 -1065h-108l-135 961q-371 -389 -582 -961h-100z" />
<glyph unicode="&#x43c;" horiz-adv-x="1384" d="M41 0l225 1065h111l266 -756l582 756h118l-225 -1065h-98l192 915l-553 -725h-67l-258 730l-195 -920h-98z" />
<glyph unicode="&#x43d;" horiz-adv-x="1169" d="M41 0l225 1065h103l-103 -477h660l100 477h102l-225 -1065h-102l106 504h-657l-107 -504h-102z" />
<glyph unicode="&#x43e;" horiz-adv-x="1230" d="M530 -20q-145 0 -254.5 75.5t-158.5 201.5t-29 273q20 148 106.5 275t217.5 202.5t274 75.5q144 0 254 -75.5t160 -202.5t30 -275q-15 -111 -68 -211.5t-131 -175t-183 -119t-218 -44.5zM543 68q111 0 217 64.5t177.5 171.5t88.5 228q26 189 -77.5 326t-274.5 137 q-111 0 -215 -63t-175.5 -171t-88.5 -235q-18 -125 22.5 -230.5t127 -166.5t198.5 -61z" />
<glyph unicode="&#x43f;" horiz-adv-x="1136" d="M41 0l225 1065h830l-226 -1065h-102l207 981h-625l-207 -981h-102z" />
<glyph unicode="&#x440;" horiz-adv-x="1202" d="M252 1065h92l-45 -213q85 103 202 167t230 64q116 0 204 -64t131.5 -165t43.5 -221q0 -163 -80 -314t-218.5 -245t-295.5 -94q-123 0 -211 69t-129 180l-141 -665h-103zM1004 618q0 155 -87.5 264t-226.5 109q-70 0 -156.5 -39t-160 -106.5t-97.5 -140.5l-75 -351 q26 -122 110 -202t201 -80q97 0 189.5 49t158 126.5t105 176t39.5 194.5z" />
<glyph unicode="&#x441;" horiz-adv-x="1069" d="M55 430q0 128 51 248.5t136 209t201.5 142t240.5 53.5q140 0 231 -65t121 -182l-108 -33q-25 89 -92 138.5t-162 49.5q-129 0 -247.5 -74t-192.5 -201t-74 -270q0 -160 86 -267t221 -107q105 0 211.5 58.5t146.5 137.5l95 -28q-63 -113 -194 -186.5t-269 -73.5 q-182 0 -292 129t-110 321z" />
<glyph unicode="&#x442;" horiz-adv-x="1789" d="M250 1065h96l-55 -254q89 128 206.5 200t237.5 72q121 0 184.5 -77.5t57.5 -217.5q83 142 205.5 218.5t253.5 76.5q233 0 233 -264q0 -90 -24 -207l-132 -612h-102l127 594q21 105 21 182q0 213 -177 213q-122 0 -237.5 -91.5t-186.5 -240.5l-137 -657h-102l125 594 q22 102 22 186q0 209 -174 209q-123 0 -238 -90.5t-188 -239.5l-139 -659h-102z" />
<glyph unicode="&#x443;" horiz-adv-x="962" d="M-74 -375q64 11 107 27t82 48t69.5 71t75.5 108l74 111l-228 1075h107l193 -965l98 156q182 294 262 458t131 351h102q-56 -200 -137.5 -365.5t-283.5 -488.5l-168 -264q-143 -229 -238.5 -311.5t-232.5 -94.5z" />
<glyph unicode="&#x444;" horiz-adv-x="1394" d="M426 -436l92 436h-43q-110 0 -197.5 43t-140 115.5t-72.5 169t-2 202.5q26 145 110 266t215 194t280 73h75l93 432h98l-92 -432l39 -2q147 -3 250.5 -75.5t145 -192.5t17.5 -263q-25 -144 -108 -264t-214 -193t-282 -73h-74l-92 -436h-98zM500 80h39l192 903h-76 q-179 0 -317.5 -132.5t-169.5 -324.5q-31 -188 61.5 -317t270.5 -129zM629 80h76q180 0 317 129t168 317q21 125 -13 229.5t-118 166t-201 61.5h-37z" />
<glyph unicode="&#x445;" horiz-adv-x="966" d="M406 530l-279 535h113l229 -440l8 -29l21 25l420 444h112l-506 -535l279 -530h-115l-227 438l-10 27l-21 -25l-414 -440h-114z" />
<glyph unicode="&#x446;" horiz-adv-x="1210" d="M862 -246l53 246q-90 0 -109.5 63t15.5 189q-90 -126 -217.5 -199t-261.5 -73q-128 0 -192 73.5t-64 212.5q0 88 20 185l134 614h100l-131 -616q-23 -103 -23 -166q0 -211 195 -211q129 0 257 88.5t202 232.5l143 672h102l-172 -811q-26 -107 -13.5 -138.5t85.5 -31.5h41 l-68 -330h-96z" />
<glyph unicode="&#x447;" horiz-adv-x="1024" d="M651 0l101 463q-146 -64 -308 -64q-370 0 -292 369l69 297h105l-66 -285q-33 -155 21.5 -227t195.5 -72q78 0 160.5 19t130.5 47l111 518h104l-225 -1065h-107z" />
<glyph unicode="&#x448;" horiz-adv-x="1789" d="M1540 0h-96l55 254q-89 -128 -206.5 -200t-237.5 -72q-121 0 -184.5 77t-57.5 217q-83 -141 -205.5 -217.5t-253.5 -76.5q-233 0 -233 264q0 90 24 207l131 612h103l-127 -594q-21 -105 -21 -182q0 -213 177 -213q122 0 237 91.5t186 240.5l138 657h102l-125 -594 q-22 -102 -22 -186q0 -209 174 -209q123 0 238 90.5t188 239.5l139 659h102z" />
<glyph unicode="&#x449;" horiz-adv-x="1853" d="M1507 -246l52 246q-93 3 -111 57t14 199q-186 -272 -432 -272q-132 0 -194 77.5t-60 210.5q-80 -138 -200 -213t-248 -75q-244 0 -244 274q0 79 25 195l131 612h102l-127 -594q-22 -110 -22 -184q0 -209 178 -209q122 0 237.5 91t186.5 239l137 657h102l-125 -594 q-22 -96 -22 -184q0 -104 42 -156.5t132 -52.5q123 0 238 89.5t188 238.5l139 659h103l-173 -809q-23 -109 -12 -140.5t80 -31.5h45l-67 -330h-95z" />
<glyph unicode="&#x44a;" horiz-adv-x="1163" d="M598 -14q-183 0 -269.5 81t-86.5 222q0 142 82 325t219 367h-418l18 84h559q-116 -143 -227 -360h199q196 0 290.5 -100t69.5 -269q-25 -168 -140 -259t-296 -91zM612 76q133 0 218 72t102 198q15 133 -53.5 204t-231.5 71q-38 0 -213 -5q-76 -152 -82 -278 q-23 -262 260 -262z" />
<glyph unicode="&#x44b;" horiz-adv-x="1314" d="M473 705q189 0 280.5 -99.5t69.5 -269.5q-23 -167 -130.5 -258.5t-274.5 -91.5q-183 0 -270.5 109t-47.5 321q19 93 146 649h102q-14 -61 -41.5 -180.5t-40.5 -179.5h207zM1171 1065h103l-225 -1065h-103zM719 346q32 275 -270 275h-201q-26 -112 -45 -209 q-31 -169 31 -253.5t198 -84.5q119 0 194.5 72.5t92.5 199.5z" />
<glyph unicode="&#x44c;" horiz-adv-x="1011" d="M514 705q200 0 297.5 -99.5t73.5 -269.5q-26 -167 -144 -258.5t-303 -91.5q-188 0 -284 110t-54 320q19 93 146 649h102q-14 -61 -41.5 -180.5t-40.5 -179.5h248zM780 346q18 133 -52 204t-239 71h-241q-26 -112 -45 -209q-34 -167 38 -252.5t212 -85.5q136 0 222 72.5 t105 199.5z" />
<glyph unicode="&#x44d;" horiz-adv-x="1173" d="M639 1083q122 0 216 -47.5t146 -125t71.5 -174t2.5 -197.5q-18 -105 -71.5 -205t-132.5 -178.5t-186 -126t-222 -47.5q-143 0 -257 67.5t-151 186.5l92 36q36 -101 124.5 -152.5t197.5 -51.5q170 0 315 128t187 308h-539l19 82h532q10 186 -87 297.5t-267 111.5 q-105 0 -202 -46t-169 -146l-76 39q75 111 193 176t264 65z" />
<glyph unicode="&#x44e;" horiz-adv-x="1632" d="M1087 1083q144 0 254 -75.5t160.5 -202.5t30.5 -275q-15 -111 -68 -211.5t-131 -175t-183 -119t-218 -44.5q-145 0 -254.5 75.5t-159 201.5t-29.5 273q20 148 106.5 275t217.5 202.5t274 75.5zM1427 532q26 189 -77.5 326t-274.5 137q-111 0 -215 -63t-175.5 -171 t-88.5 -235q-18 -125 22.5 -230.5t127 -166.5t198.5 -61q111 0 217 64.5t177.5 171.5t88.5 228zM422 866l10 -61l-102 -162zM242 471l-19 287l35 -293l-80 -193zM252 518l78 125l-64 -154zM279 287l-21 178l8 24l96 -182z" />
<glyph unicode="&#x44f;" horiz-adv-x="1089" d="M16 0l408 444q-111 19 -170.5 94.5t-44.5 196.5q12 155 132 244.5t318 89.5q194 0 355 -84l-211 -985h-103l91 426h-259l-389 -426h-127zM532 508h275l92 426q-11 6 -32.5 14.5t-87 22.5t-132.5 14q-145 0 -236 -68.5t-102 -179.5q-14 -101 41.5 -165t181.5 -64z" />
<glyph unicode="&#x450;" horiz-adv-x="1118" d="M725 1321l-76 -33l-123 207h115zM526 68q118 0 216.5 63t136.5 135l90 -28q-15 -30 -41.5 -62.5t-69 -68t-93 -63.5t-118.5 -46t-141 -18q-135 0 -234 68.5t-145 180.5t-39 248q5 156 83.5 294.5t217 225t303.5 86.5q63 0 122.5 -18.5t109 -52.5t79.5 -89.5t31 -123.5 q5 -153 -130.5 -232.5t-414.5 -79.5q-143 0 -301 11v-19q-9 -179 81 -295t257 -116zM676 995q-166 0 -300 -121t-173 -292q200 -11 286 -11q240 0 342 60t97 168q-3 93 -78.5 144.5t-173.5 51.5z" />
<glyph unicode="&#x451;" horiz-adv-x="1118" d="M680 1491l-37 -180h-90l39 180h88zM948 1491l-37 -180h-90l39 180h88zM526 68q118 0 216.5 63t136.5 135l90 -28q-15 -30 -41.5 -62.5t-69 -68t-93 -63.5t-118.5 -46t-141 -18q-135 0 -234 68.5t-145 180.5t-39 248q5 156 83.5 294.5t217 225t303.5 86.5 q63 0 122.5 -18.5t109 -52.5t79.5 -89.5t31 -123.5q5 -153 -130.5 -232.5t-414.5 -79.5q-143 0 -301 11v-19q-9 -179 81 -295t257 -116zM676 995q-166 0 -300 -121t-173 -292q200 -11 286 -11q240 0 342 60t97 168q-3 93 -78.5 144.5t-173.5 51.5z" />
<glyph unicode="&#x452;" horiz-adv-x="1189" d="M731 944q215 0 282.5 -157.5t-1.5 -452.5q-43 -197 -116.5 -341.5t-182.5 -228t-242 -83.5q-42 0 -80 9t-72 28t-48 28t-40 29l82 53q85 -61 164 -61q145 0 259.5 152t170.5 396q63 275 13.5 404t-226.5 129q-133 0 -242.5 -73.5t-189.5 -209.5l-135 -565h-102l278 1159 h-166l15 74h167l64 262h102l-63 -262h475l-16 -74h-475l-107 -440q184 225 432 225z" />
<glyph unicode="&#x453;" horiz-adv-x="983" d="M627 1288l-64 33l156 174h117zM446 -20q-182 0 -272 75.5t-76 210.5q10 110 94 177t281 130q161 56 222.5 105.5t70.5 132.5q9 93 -45 143t-162 50q-93 0 -171.5 -35.5t-125.5 -98.5l-76 50q60 80 160 122.5t227 42.5q153 0 230.5 -72.5t68.5 -203.5q-11 -116 -96 -183 t-268 -128q-166 -54 -230.5 -103.5t-74.5 -132.5q-11 -95 55.5 -145.5t202.5 -50.5q205 0 332 139l65 -60q-152 -165 -412 -165z" />
<glyph unicode="&#x454;" horiz-adv-x="1134" d="M514 72q99 0 198.5 50.5t164.5 147.5l92 -30q-73 -120 -204 -189t-269 -69q-109 0 -196.5 48t-138.5 126t-71.5 178t-3.5 205q16 101 66.5 197.5t126.5 174t183 125t226 47.5q143 0 233.5 -66t129.5 -181l-103 -33q-75 188 -278 188q-163 0 -293 -111.5t-180 -293.5h532 l-18 -82h-531q-12 -118 26 -217t119.5 -157t188.5 -58z" />
<glyph unicode="&#x455;" horiz-adv-x="944" d="M-35 143l64 70q132 -150 327 -150q151 0 247.5 69t96.5 183q0 24 -7 43.5t-16.5 34t-30.5 28.5t-38.5 23t-52.5 21t-59.5 19t-71.5 20q-68 18 -104 29.5t-77.5 30t-60.5 38.5t-32 50t-13 71q0 166 127 263t316 97q118 0 202.5 -40.5t120.5 -108.5l-67 -55 q-69 120 -269 120q-86 0 -158 -25.5t-120.5 -83.5t-48.5 -140q0 -67 48 -97.5t179 -64.5q72 -20 117 -34.5t92 -36.5t72 -46t41 -59t16 -80q0 -160 -127.5 -256t-331.5 -96q-258 0 -381 163z" />
<glyph unicode="&#x456;" horiz-adv-x="411" d="M342 1495h102l-38 -188h-103zM250 1065h102l-225 -1065h-102z" />
<glyph unicode="&#x457;" horiz-adv-x="411" d="M174 1311l39 180h88l-37 -180h-90zM442 1311l39 180h88l-37 -180h-90zM250 1065h102l-225 -1065h-102z" />
<glyph unicode="&#x458;" horiz-adv-x="428" d="M356 1495h103l-41 -188h-103zM-420 -287l70 68q41 -49 137 -49q75 0 147.5 60.5t90.5 146.5l239 1126h103l-238 -1122q-28 -129 -134.5 -217t-217.5 -88q-136 0 -197 75z" />
<glyph unicode="&#x459;" horiz-adv-x="1505" d="M1022 627q183 0 272 -85.5t70 -252.5q-10 -136 -106 -219.5t-242 -83.5q-74 0 -125.5 15t-87 43.5t-59.5 82.5t-39 117.5t-29 163.5l-80 555q-323 -392 -508 -963h-104q184 600 587 1065h107l67 -449q253 11 277 11zM1260 297q12 125 -48.5 185.5t-203.5 60.5 q-100 0 -250 -11l16 -114q11 -71 19.5 -115.5t22.5 -87t30 -66t41 -41.5t57.5 -25t77.5 -7q96 0 162.5 62t75.5 159z" />
<glyph unicode="&#x45a;" horiz-adv-x="1658" d="M1190 614q181 0 269 -82.5t65 -240.5q-21 -144 -133 -224.5t-283 -80.5q-89 0 -159 27t-116.5 81t-61 134t6.5 186l25 116h-547l-113 -530h-102l225 1065h103l-97 -451h549l94 451h103l-94 -451h266zM1417 293q15 116 -44 175.5t-197 59.5h-271l-24 -120 q-36 -164 33 -248t206 -84q125 0 204.5 57.5t92.5 159.5z" />
<glyph unicode="&#x45b;" horiz-adv-x="1204" d="M745 944q181 0 256.5 -110t34.5 -310l-106 -524h-103l105 514q33 167 -18 250.5t-199 83.5q-144 0 -258.5 -72.5t-188.5 -208.5l-118 -567h-105l246 1159h-154l15 74h155l55 262h103l-55 -262h487l-14 -74h-490l-92 -438q173 223 444 223z" />
<glyph unicode="&#x45c;" horiz-adv-x="987" d="M637 1288l-64 33l156 174h117zM41 0l225 1065h103l-103 -479h174q115 67 217.5 183.5t221.5 295.5h110q-124 -189 -233.5 -315.5t-225.5 -204.5l299 -545h-114l-275 502h-192l-107 -502h-100z" />
<glyph unicode="&#x45d;" horiz-adv-x="1150" d="M514 1495h115l84 -174l-76 -33zM84 258q0 77 22 193l134 614h100l-127 -600q-23 -108 -23 -174q0 -219 191 -219q129 0 257 88.5t202 232.5l141 672h102l-188 -891q-1 -7 -4 -19t-4.5 -19.5t-1.5 -10.5q0 -33 35 -33l-21 -92q-18 -2 -45 -2q-32 4 -50 23.5t-18 48.5 q0 26 35 182q-93 -127 -224 -199.5t-265 -72.5q-248 0 -248 278z" />
<glyph unicode="&#x45e;" horiz-adv-x="962" d="M623 1253q-121 0 -178.5 45t-51.5 115h64q-5 -45 35.5 -74.5t134.5 -29.5q62 0 103.5 14.5t60.5 35.5t32 54h62q-6 -70 -73 -115t-189 -45zM-74 -375q64 11 107 27t82 48t69.5 71t75.5 108l74 111l-228 1075h107l193 -965l98 156q182 294 262 458t131 351h102 q-56 -200 -137.5 -365.5t-283.5 -488.5l-168 -264q-143 -229 -238.5 -311.5t-232.5 -94.5z" />
<glyph unicode="&#x45f;" horiz-adv-x="1150" d="M84 258q0 77 22 193l134 614h100l-127 -600q-23 -108 -23 -174q0 -219 191 -219q129 0 257 88.5t202 232.5l141 672h102l-188 -891q-1 -7 -4 -19t-4.5 -19.5t-1.5 -10.5q0 -33 35 -33l-21 -92q-18 -2 -45 -2q-32 4 -50 23.5t-18 48.5q0 26 35 182q-93 -127 -224 -199.5 t-265 -72.5q-248 0 -248 278zM352 -309l39 184h94l-39 -184h-94z" />
<glyph unicode="&#x462;" horiz-adv-x="1370" d="M838 877q228 0 325.5 -119t65.5 -320q-16 -90 -58.5 -169t-108.5 -139t-160 -95t-204 -35h-495l239 1133h-286l16 77h285l55 263h104l-55 -263h412l-17 -77h-409l-55 -256h346zM1122 438q8 54 8.5 104t-19.5 94t-54 76.5t-95 51t-143 18.5h-348l-145 -688h376 q93 0 169.5 28.5t126.5 78t81 109t43 128.5z" />
<glyph unicode="&#x463;" horiz-adv-x="1505" d="M975 -14q-173 0 -257 111.5t-34 318.5l45 184q55 207 28.5 299t-134.5 92q-188 0 -332 -219l-164 -772h-102l225 1065h98l-37 -170q135 186 342 186q305 0 181 -465q118 15 196 15q177 0 266 -79.5t74 -236.5q-14 -154 -116 -241.5t-279 -87.5zM987 76q123 0 196.5 65.5 t84.5 182.5q11 104 -50 162t-198 59q-93 0 -207 -13l-29 -124q-42 -162 18.5 -247t184.5 -85z" />
<glyph unicode="&#x46a;" horiz-adv-x="1964" d="M2007 1454l-655 -709l438 -745h-117l-405 692h-226l-147 -692h-104l147 692h-227l-648 -692h-120l694 745l-416 709h1786zM723 786h547l538 584h-1423z" />
<glyph unicode="&#x46b;" d="M-59 0l532 547l-274 518h1292l-481 -518l315 -547h-111l-286 500h-140l-106 -500h-102l106 500h-137l-486 -500h-122zM551 584h383l379 415h-975z" />
<glyph unicode="&#x472;" horiz-adv-x="1501" d="M907 1464q149 0 270 -62t194.5 -164.5t105 -235.5t12.5 -275q-20 -151 -92 -287t-177.5 -235t-242.5 -157t-281 -58q-119 1 -221 41.5t-174.5 111.5t-121 163.5t-65 201t-1.5 219.5q27 192 141 361t288.5 272.5t364.5 103.5zM893 1368q-121 0 -234 -49.5t-198 -131.5 t-145.5 -187t-86.5 -218h1162q10 162 -48.5 295.5t-176.5 212t-273 78.5zM713 86q125 0 241.5 53.5t202 141t144.5 198t79 226.5h-1163q-14 -122 15 -234.5t92.5 -197.5t164.5 -136t224 -51z" />
<glyph unicode="&#x473;" horiz-adv-x="1208" d="M664 1083q144 0 254 -75.5t160 -202.5t30 -275q-15 -111 -68 -211.5t-131 -175t-183 -119t-218 -44.5q-145 0 -254.5 75.5t-158.5 201.5t-29 273q20 148 106.5 275t217.5 202.5t274 75.5zM651 995q-155 0 -289.5 -118.5t-177.5 -290.5h824q6 172 -96 290.5t-261 118.5z M520 68q107 0 209.5 60t174.5 160.5t95 215.5h-829q-19 -183 82.5 -309.5t267.5 -126.5z" />
<glyph unicode="&#x474;" horiz-adv-x="1359" d="M475 0l-274 1454h110l238 -1313l610 1069q80 140 148 192t172 52h69l-24 -92h-54q-70 0 -117.5 -41.5t-117.5 -159.5l-664 -1161h-96z" />
<glyph unicode="&#x475;" horiz-adv-x="960" d="M283 0l-160 1065h106l131 -954q124 146 231 328t169 337q66 173 136.5 240t188.5 67l-12 -88q-71 0 -120.5 -52t-100.5 -181q-75 -182 -204.5 -392.5t-280.5 -369.5h-84z" />
<glyph unicode="&#x490;" horiz-adv-x="1024" d="M57 0l308 1454h712l60 287h94l-80 -381h-705l-284 -1360h-105z" />
<glyph unicode="&#x491;" horiz-adv-x="874" d="M-78 -324q-56 0 -106 19t-82 51l53 72q20 -23 58 -37t79 -14q95 0 142 55.5t73 177.5l228 1065h487l53 246h94l-71 -330h-477l-211 -981q-17 -74 -39.5 -129t-59 -101t-92 -70t-129.5 -24z" />
<glyph unicode="&#x492;" horiz-adv-x="1067" d="M1194 1360h-700l-129 -612h462l-8 -76h-471l-143 -672h-105l142 672h-230l8 76h238l150 706h806z" />
<glyph unicode="&#x493;" horiz-adv-x="870" d="M924 981h-512l-97 -449h363l-16 -75h-363l-96 -457h-103l97 457h-179l15 75h180l113 533h614z" />
<glyph unicode="&#x494;" horiz-adv-x="1288" d="M1151 1360h-700l-125 -590q198 107 395 107q206 0 315 -129t72 -353q-39 -220 -172.5 -329t-337.5 -109q-78 0 -158 18l33 88q72 -16 131 -16q163 0 266.5 90.5t133.5 270.5q31 184 -56 284.5t-252 100.5q-189 0 -391 -115l-143 -678h-105l308 1454h806z" />
<glyph unicode="&#x495;" horiz-adv-x="1024" d="M559 709q197 0 280 -123t48 -340q-45 -285 -184.5 -448t-358.5 -163q-128 0 -205 72l80 53q46 -34 131 -34q161 0 278.5 139t153.5 364q30 188 -33.5 290t-230.5 102q-140 0 -262 -89l-113 -532h-102l225 1065h617l-19 -84h-512l-76 -356q125 84 283 84z" />
<glyph unicode="&#x496;" horiz-adv-x="2041" d="M1356 754l375 -660h176l-80 -370h-92l57 276h-123l2 6l-391 690h-248l-147 -696h-105l148 696h-223l-648 -696h-123l697 750l-410 704h111l385 -666h229l141 666h105l-141 -666h221l633 666h125z" />
<glyph unicode="&#x497;" horiz-adv-x="1624" d="M1079 545l248 -453h133l-69 -338h-95l52 246h-84l-273 508h-192l-109 -508h-102l108 508h-129q-74 -33 -139 -82.5t-127 -119t-112 -137.5t-117 -169h-115q139 208 256 341t250 206l-270 518h106l248 -481l166 -2l102 483h100l-102 -483h176q115 66 209 175.5t227 307.5 h113q-126 -188 -235.5 -315.5t-223.5 -204.5z" />
<glyph unicode="&#x498;" horiz-adv-x="1099" d="M1006 1092q-17 -110 -88.5 -200.5t-174.5 -131.5q122 -35 178.5 -137.5t34.5 -241.5q-26 -160 -136 -263t-281 -128l-54 -266h-94l51 258h-12q-140 0 -245 61.5t-150 173.5l92 49q36 -94 120 -144t199 -50q165 0 274 85t132 232q22 142 -53.5 232t-227.5 90h-116l16 88 h115q116 0 206 82.5t109 203.5q22 131 -46 213t-202 82q-103 0 -192.5 -48t-145.5 -136l-73 49q75 108 183.5 168t238.5 60q175 0 271.5 -106.5t70.5 -274.5z" />
<glyph unicode="&#x499;" horiz-adv-x="894" d="M844 795q-13 -77 -60.5 -138t-115.5 -92q88 -29 127 -100.5t22 -169.5q-24 -139 -145 -222t-293 -85l-47 -234h-96l51 240q-105 15 -175.5 68t-99.5 139l90 37q26 -77 99 -119.5t182 -42.5q134 0 225.5 63t108.5 168q17 94 -37 154t-162 61h-143l14 76h150q69 0 130 57 t74 136q18 94 -35.5 148t-168.5 54q-188 0 -285 -151l-76 41q62 95 159.5 146.5t217.5 51.5q151 0 231 -77t58 -209z" />
<glyph unicode="&#x49a;" horiz-adv-x="1353" d="M651 754l383 -660h185l-80 -370h-92l57 276h-129l-404 696h-262l-147 -696h-105l308 1454h104l-141 -666h237l641 666h129z" />
<glyph unicode="&#x49b;" horiz-adv-x="1079" d="M530 545l248 -453h140l-70 -338h-96l53 246h-90l-275 502h-192l-107 -502h-100l225 1065h103l-103 -479h174q115 67 217.5 183.5t221.5 295.5h110q-124 -189 -233.5 -315.5t-225.5 -204.5z" />
<glyph unicode="&#x49c;" horiz-adv-x="1271" d="M1343 1454l-684 -700l439 -754h-123l-404 694h-39l-57 -254h-78l58 254h-148l-147 -694h-105l307 1454h105l-139 -663h149l60 258h77l-59 -258h16l637 663h135z" />
<glyph unicode="&#x49d;" horiz-adv-x="1019" d="M1022 1065q-124 -189 -233.5 -315.5t-225.5 -204.5l299 -545h-114l-279 508h-8l-49 -232h-72l49 232h-139l-109 -508h-100l225 1065h103l-103 -483h137l48 219h73l-45 -211q113 66 213.5 181.5t218.5 293.5h111z" />
<glyph unicode="&#x4a0;" horiz-adv-x="1435" d="M1507 1454l-684 -700l439 -754h-115l-404 696h-262l-147 -696h-105l287 1360h-326l19 94h432l-141 -666h237l641 666h129z" />
<glyph unicode="&#x4a1;" horiz-adv-x="1153" d="M1153 1065q-124 -189 -233.5 -315.5t-225.5 -204.5l299 -545h-114l-275 502h-192l-107 -502h-100l207 981h-287l16 84h391l-102 -479h174q60 35 117.5 84.5t113 114t102.5 129.5t105 151h111z" />
<glyph unicode="&#x4a2;" horiz-adv-x="1558" d="M1438 1454l-289 -1360h203l-78 -370h-92l57 276h-215l147 696h-862l-149 -696h-105l310 1454h104l-141 -663h864l141 663h105z" />
<glyph unicode="&#x4a3;" horiz-adv-x="1257" d="M1128 1065l-204 -973h153l-69 -338h-97l54 246h-164l18 92h2l86 412h-657l-107 -504h-102l225 1065h103l-103 -477h660l100 477h102z" />
<glyph unicode="&#x4a4;" horiz-adv-x="1990" d="M2138 1454l-18 -94h-703l-289 -1360h-104l147 696h-862l-149 -696h-105l310 1454h104l-141 -663h864l141 663h805z" />
<glyph unicode="&#x4a5;" horiz-adv-x="1570" d="M1642 1065l-20 -92h-512l-207 -973h-102l106 504h-657l-107 -504h-102l225 1065h103l-103 -477h660l100 477h616z" />
<glyph unicode="&#x4aa;" horiz-adv-x="1452" d="M717 84q93 0 186.5 28.5t185.5 95t154 161.5l84 -43q-90 -151 -259 -240.5t-345 -97.5l-53 -264h-92l55 268q-106 11 -197.5 58t-156 120t-107.5 164t-57.5 195t0.5 208q19 133 85 261.5t167 232t244.5 167.5t303.5 64q189 0 316.5 -86.5t179.5 -230.5l-92 -49 q-35 96 -105.5 158.5t-149.5 87t-171 24.5q-135 0 -256.5 -56t-206 -147t-140 -203t-71.5 -229q-17 -127 12 -245.5t94.5 -206.5t167.5 -141.5t224 -53.5z" />
<glyph unicode="&#x4ab;" horiz-adv-x="1069" d="M674 991q-129 0 -247.5 -74t-192.5 -201t-74 -270q0 -160 86 -267t221 -107q105 0 211.5 58.5t146.5 137.5l95 -28q-59 -104 -178 -176.5t-248 -81.5l-48 -228h-94l47 230q-157 20 -250.5 145.5t-93.5 300.5q0 128 51 248.5t136 209t201.5 142t240.5 53.5q140 0 231 -65 t121 -182l-108 -33q-25 89 -92 138.5t-162 49.5z" />
<glyph unicode="&#x4ae;" horiz-adv-x="1232" d="M541 553l-351 901h117l307 -805l652 805h114l-735 -905l-119 -549h-102z" />
<glyph unicode="&#x4af;" horiz-adv-x="960" d="M190 -436l95 436l-162 1065h104l138 -954q321 387 507 954h97q-184 -597 -586 -1061l-90 -440h-103z" />
<glyph unicode="&#x4b0;" horiz-adv-x="1232" d="M645 549l-4 -23h233l-16 -77h-235l-97 -449h-102l94 449h-244l17 77h244l6 27l-351 901h117l307 -805l652 805h114z" />
<glyph unicode="&#x4b1;" horiz-adv-x="960" d="M969 1065q-176 -577 -570 -1042h215l-16 -74h-227l-78 -385h-103l84 385h-225l14 74h218l-158 1042h104l138 -954q321 387 507 954h97z" />
<glyph unicode="&#x4b6;" horiz-adv-x="1419" d="M1339 1454l-286 -1360h159l-77 -370h-93l58 276h-172l135 639q-211 -80 -414 -80q-253 0 -353.5 111.5t-53.5 337.5l98 446h104l-98 -457q-38 -182 38.5 -263t283.5 -81q111 0 227 24.5t190 63.5l150 713h104z" />
<glyph unicode="&#x4b7;" horiz-adv-x="1124" d="M983 1065l-205 -973h164l-70 -338h-96l53 246h-178l101 463q-146 -64 -308 -64q-370 0 -292 369l69 297h105l-66 -285q-33 -155 21.5 -227t195.5 -72q78 0 160.5 19t130.5 47l111 518h104z" />
<glyph unicode="&#x4b8;" horiz-adv-x="1349" d="M1235 1454h104l-307 -1454h-104l135 639q-186 -71 -371 -80l-57 -254h-78l57 254q-233 7 -325.5 119t-46.5 330l98 446h104l-98 -457q-37 -175 32.5 -256.5t258.5 -87.5l59 260h78l-59 -258q102 4 202.5 28t167.5 58z" />
<glyph unicode="&#x4b9;" horiz-adv-x="1034" d="M889 1065h104l-227 -1065h-104l98 463q-119 -51 -238 -60l-43 -200h-71l41 196h-7q-365 0 -290 369l69 297h107l-68 -285q-32 -154 19.5 -225.5t187.5 -73.5l51 246h74l-51 -242q144 13 237 62z" />
<glyph unicode="&#x4ba;" horiz-adv-x="1349" d="M197 0h-105l307 1454h105l-135 -639q211 80 413 80q253 0 354 -111.5t54 -337.5l-98 -446h-105l98 457q38 182 -38.5 263t-282.5 81q-111 0 -227.5 -24.5t-190.5 -63.5z" />
<glyph unicode="&#x4bb;" horiz-adv-x="1130" d="M342 1495h102l-145 -684q88 125 213.5 198.5t251.5 73.5q244 0 244 -276q0 -91 -23 -195l-129 -612h-102l125 594q20 110 20 170q0 225 -186 225q-122 0 -251.5 -95t-195.5 -235l-139 -659h-102z" />
<glyph unicode="&#x4c0;" horiz-adv-x="477" d="M365 1452h104l-309 -1452h-105z" />
<glyph unicode="&#x4c1;" horiz-adv-x="1957" d="M1169 1683q-143 0 -212.5 54.5t-55.5 138.5h86q-10 -50 38.5 -86.5t139.5 -36.5q115 0 180 33t76 90h82q-13 -83 -101 -138t-233 -55zM-66 0l697 750l-410 704h111l385 -666h229l141 666h105l-141 -666h221l633 666h125l-674 -700l428 -754h-111l-393 696h-248l-147 -696 h-105l148 696h-223l-648 -696h-123z" />
<glyph unicode="&#x4c2;" horiz-adv-x="1552" d="M872 1253q-121 0 -178 44.5t-51 115.5h64q-5 -45 35.5 -74.5t134.5 -29.5q62 0 103.5 14.5t60.5 35.5t32 54h62q-6 -70 -73.5 -115t-189.5 -45zM-43 0q139 208 256 341t250 206l-270 518h106l248 -481l166 -2l102 483h100l-102 -483h176q115 66 209 175.5t227 307.5h113 q-126 -188 -235.5 -315.5t-223.5 -204.5l299 -545h-114l-273 508h-192l-109 -508h-102l108 508h-129q-74 -33 -139 -82.5t-127 -119t-112 -137.5t-117 -169h-115z" />
<glyph unicode="&#x4cb;" horiz-adv-x="1349" d="M1235 1454h104l-307 -1454h-196l-58 -276h-92l76 370h186l115 545q-211 -80 -414 -80q-253 0 -353.5 111.5t-53.5 337.5l98 446h104l-98 -457q-38 -182 38.5 -263t283.5 -81q111 0 227 24.5t190 63.5z" />
<glyph unicode="&#x4cc;" horiz-adv-x="1126" d="M1022 1065l-211 -995h12l-14 -70h-141l-58 -276h-96l72 346h119l86 393q-146 -64 -308 -64q-371 0 -293 369l70 297h105l-66 -285q-33 -155 21.5 -227t195.5 -72q78 0 160.5 19t130.5 47l111 518h104z" />
<glyph unicode="&#x4cf;" horiz-adv-x="411" d="M250 1065h102l-225 -1065h-102z" />
<glyph unicode="&#x4d0;" horiz-adv-x="1329" d="M885 1683q-144 0 -213.5 55t-55.5 138h86q-9 -50 39.5 -86.5t139.5 -36.5q115 0 180 33t76 90h82q-13 -83 -101 -138t-233 -55zM807 1454h90l272 -1454h-110l-90 479h-654l-290 -479h-113zM961 565l-136 762l-467 -762h603z" />
<glyph unicode="&#x4d1;" horiz-adv-x="1210" d="M748 1253q-121 0 -178.5 45t-51.5 115h64q-5 -45 35.5 -74.5t134.5 -29.5q62 0 103.5 14.5t60.5 35.5t32 54h62q-6 -70 -73 -115t-189 -45zM55 428q0 123 50 243t131 210t190.5 146t222.5 56q126 0 214 -70t128 -179l49 231h105l-197 -918q-4 -16 -4 -24q0 -31 35 -31 l-21 -92q-31 -4 -40 -2q-74 6 -74 72q0 18 24 143q-84 -106 -201.5 -169.5t-232.5 -63.5q-114 0 -202 62.5t-132.5 164t-44.5 221.5zM891 358l74 351q-15 117 -103.5 199.5t-208.5 82.5q-125 0 -240 -83t-183 -210.5t-68 -257.5q0 -152 87.5 -260t221.5 -108q75 0 163 38.5 t160 106t97 141.5z" />
<glyph unicode="&#x4d2;" horiz-adv-x="1329" d="M725 1700l39 180h88l-37 -180h-90zM993 1700l39 180h88l-37 -180h-90zM807 1454h90l272 -1454h-110l-90 479h-654l-290 -479h-113zM961 565l-136 762l-467 -762h603z" />
<glyph unicode="&#x4d3;" horiz-adv-x="1210" d="M610 1311l39 180h88l-37 -180h-90zM879 1311l39 180h88l-37 -180h-90zM55 428q0 123 50 243t131 210t190.5 146t222.5 56q126 0 214 -70t128 -179l49 231h105l-197 -918q-4 -16 -4 -24q0 -31 35 -31l-21 -92q-31 -4 -40 -2q-74 6 -74 72q0 18 24 143 q-84 -106 -201.5 -169.5t-232.5 -63.5q-114 0 -202 62.5t-132.5 164t-44.5 221.5zM891 358l74 351q-15 117 -103.5 199.5t-208.5 82.5q-125 0 -240 -83t-183 -210.5t-68 -257.5q0 -152 87.5 -260t221.5 -108q75 0 163 38.5t160 106t97 141.5z" />
<glyph unicode="&#x4d4;" horiz-adv-x="1888" d="M1036 1454h926l-23 -94h-792l-119 -569h686l-20 -97h-688l-127 -600h809l-19 -94h-913l102 479h-518l-391 -479h-117zM872 573l158 750l-620 -750h462z" />
<glyph unicode="&#x4d5;" horiz-adv-x="1812" d="M-4 250q0 108 66 194.5t179.5 133.5t252.5 47q135 0 256 -41q11 38 37.5 100t35.5 90q0 103 -62.5 165t-174.5 62q-152 0 -355 -127l-24 70q230 139 405 139q121 0 198.5 -59.5t96.5 -167.5q89 104 205.5 165.5t239.5 61.5q177 0 288 -122t111 -306q0 -95 -29 -163h-893 q-4 -50 -4 -74q0 -156 89 -256.5t231 -100.5q106 0 209.5 57.5t158.5 147.5l86 -24q-69 -115 -202 -188.5t-273 -73.5q-129 0 -224 64.5t-140 174.5q-57 -81 -149 -137.5t-176.5 -79t-158.5 -22.5q-131 0 -205.5 77t-74.5 193zM1640 567q9 47 9 95q0 146 -84 241.5 t-232 95.5q-162 0 -300 -122t-189 -310h796zM735 297q-12 46 -12 100q0 59 12 115q-112 41 -241 41q-174 0 -286 -78.5t-112 -204.5q0 -89 56 -149t163 -60q78 0 167 31t160 86.5t93 118.5z" />
<glyph unicode="&#x4d6;" horiz-adv-x="1196" d="M827 1683q-143 0 -212.5 54.5t-55.5 138.5h86q-10 -50 38.5 -86.5t139.5 -36.5q115 0 180 33t76 90h82q-13 -83 -101 -138t-233 -55zM365 1454h903l-19 -94h-800l-121 -572h698l-20 -90h-697l-129 -604h817l-20 -94h-922z" />
<glyph unicode="&#x4d7;" horiz-adv-x="1118" d="M690 1253q-121 0 -178 44.5t-51 115.5h63q-5 -45 35.5 -74.5t134.5 -29.5q91 0 134 27t63 77h61q-6 -70 -73 -115t-189 -45zM526 68q118 0 216.5 63t136.5 135l90 -28q-15 -30 -41.5 -62.5t-69 -68t-93 -63.5t-118.5 -46t-141 -18q-135 0 -234 68.5t-145 180.5t-39 248 q5 156 83.5 294.5t217 225t303.5 86.5q63 0 122.5 -18.5t109 -52.5t79.5 -89.5t31 -123.5q5 -153 -130.5 -232.5t-414.5 -79.5q-143 0 -301 11v-19q-9 -179 81 -295t257 -116zM676 995q-166 0 -300 -121t-173 -292q200 -11 286 -11q240 0 342 60t97 168q-3 93 -78.5 144.5 t-173.5 51.5z" />
<glyph unicode="&#x4d8;" horiz-adv-x="1447" d="M61 555q0 108 33 213h1176q6 56 6 106q0 217 -116 354.5t-302 137.5q-146 0 -289 -83.5t-217 -215.5l-90 47q95 152 271.5 251t351.5 99q150 0 267 -80t179 -216t62 -304q0 -174 -70 -338t-183.5 -282t-262.5 -189t-302 -71q-229 0 -371.5 161t-142.5 410zM1249 674 h-1069q-14 -75 -14 -131q0 -92 27 -173.5t78.5 -146.5t135 -103t187.5 -38q146 0 283 77.5t236 213t136 301.5z" />
<glyph unicode="&#x4d9;" horiz-adv-x="1185" d="M471 -20q-180 0 -288.5 118t-108.5 303q0 103 24 168h885q6 41 6 78q0 154 -87 253t-224 99q-106 0 -210 -56.5t-161 -145.5l-84 24q68 114 202 188t275 74q178 0 287 -129.5t109 -322.5q0 -126 -52 -246.5t-137 -208.5t-200 -142t-236 -54zM489 61q158 0 294 123.5 t186 309.5h-787q-6 -44 -6 -82q0 -157 86 -254t227 -97z" />
<glyph unicode="&#x4dc;" horiz-adv-x="1957" d="M1010 1700l39 180h88l-37 -180h-90zM1278 1700l39 180h88l-37 -180h-90zM-66 0l697 750l-410 704h111l385 -666h229l141 666h105l-141 -666h221l633 666h125l-674 -700l428 -754h-111l-393 696h-248l-147 -696h-105l148 696h-223l-648 -696h-123z" />
<glyph unicode="&#x4dd;" horiz-adv-x="1552" d="M735 1311l39 180h88l-37 -180h-90zM1004 1311l38 180h88l-36 -180h-90zM-43 0q139 208 256 341t250 206l-270 518h106l248 -481l166 -2l102 483h100l-102 -483h176q115 66 209 175.5t227 307.5h113q-126 -188 -235.5 -315.5t-223.5 -204.5l299 -545h-114l-273 508h-192 l-109 -508h-102l108 508h-129q-74 -33 -139 -82.5t-127 -119t-112 -137.5t-117 -169h-115z" />
<glyph unicode="&#x4de;" horiz-adv-x="1099" d="M565 1700l39 180h88l-37 -180h-90zM834 1700l38 180h89l-37 -180h-90zM430 -18q-140 0 -245 61.5t-150 173.5l92 49q36 -94 120 -144t199 -50q165 0 274 85t132 232q22 142 -53.5 232t-227.5 90h-116l16 88h115q116 0 206 82.5t109 203.5q22 131 -46 213t-202 82 q-103 0 -192.5 -48t-145.5 -136l-73 49q75 108 183.5 168t238.5 60q175 0 271.5 -106.5t70.5 -274.5q-17 -110 -88.5 -200.5t-174.5 -131.5q122 -35 178.5 -137.5t34.5 -241.5q-29 -185 -169.5 -292t-356.5 -107z" />
<glyph unicode="&#x4df;" horiz-adv-x="968" d="M434 1311l39 180h88l-37 -180h-90zM702 1311l39 180h88l-36 -180h-91zM371 -12q-139 0 -232 55.5t-127 157.5l90 37q26 -77 99 -119.5t182 -42.5q134 0 225.5 63t108.5 168q17 94 -37 154t-162 61h-143l14 76h150q69 0 130 57t74 136q18 94 -35.5 148t-168.5 54 q-188 0 -285 -151l-76 41q62 95 159.5 146.5t217.5 51.5q151 0 231 -77t58 -209q-13 -77 -60.5 -138t-115.5 -92q88 -29 127 -100.5t22 -169.5q-24 -141 -147.5 -224t-298.5 -83z" />
<glyph unicode="&#x4e2;" horiz-adv-x="1480" d="M700 1763l17 76h557l-17 -76h-557zM57 0l308 1454h104l-276 -1304l1181 1304h99l-310 -1454h-104l276 1288l-1169 -1288h-109z" />
<glyph unicode="&#x4e3;" horiz-adv-x="1150" d="M455 1374l16 76h557l-16 -76h-557zM84 258q0 77 22 193l134 614h100l-127 -600q-23 -108 -23 -174q0 -219 191 -219q129 0 257 88.5t202 232.5l141 672h102l-188 -891q-1 -7 -4 -19t-4.5 -19.5t-1.5 -10.5q0 -33 35 -33l-21 -92q-18 -2 -45 -2q-32 4 -50 23.5t-18 48.5 q0 26 35 182q-93 -127 -224 -199.5t-265 -72.5q-248 0 -248 278z" />
<glyph unicode="&#x4e4;" horiz-adv-x="1480" d="M786 1700l39 180h88l-36 -180h-91zM1055 1700l39 180h88l-37 -180h-90zM57 0l308 1454h104l-276 -1304l1181 1304h99l-310 -1454h-104l276 1288l-1169 -1288h-109z" />
<glyph unicode="&#x4e5;" horiz-adv-x="1150" d="M541 1311l39 180h88l-37 -180h-90zM809 1311l39 180h88l-37 -180h-90zM84 258q0 77 22 193l134 614h100l-127 -600q-23 -108 -23 -174q0 -219 191 -219q129 0 257 88.5t202 232.5l141 672h102l-188 -891q-1 -7 -4 -19t-4.5 -19.5t-1.5 -10.5q0 -33 35 -33l-21 -92 q-18 -2 -45 -2q-32 4 -50 23.5t-18 48.5q0 26 35 182q-93 -127 -224 -199.5t-265 -72.5q-248 0 -248 278z" />
<glyph unicode="&#x4e6;" horiz-adv-x="1556" d="M823 1700l39 180h88l-37 -180h-90zM1092 1700l38 180h89l-37 -180h-90zM696 -10q-119 1 -221 41.5t-174.5 111.5t-121 163.5t-65 201t-1.5 219.5q27 192 141 361t288.5 272.5t364.5 103.5q149 0 270 -62t194.5 -164.5t105 -235.5t12.5 -275q-20 -151 -92 -287 t-177.5 -235t-242.5 -157t-281 -58zM713 86q128 0 246.5 56t205 146.5t144.5 205t75 233.5q24 174 -29.5 320.5t-175.5 233.5t-286 87q-128 0 -247 -55.5t-206 -146t-145.5 -205.5t-75.5 -234q-18 -125 9.5 -241t90.5 -204.5t165.5 -142t228.5 -53.5z" />
<glyph unicode="&#x4e7;" horiz-adv-x="1230" d="M594 1309l39 180h88l-37 -180h-90zM862 1309l39 180h88l-37 -180h-90zM530 -20q-145 0 -254.5 75.5t-158.5 201.5t-29 273q20 148 106.5 275t217.5 202.5t274 75.5q144 0 254 -75.5t160 -202.5t30 -275q-15 -111 -68 -211.5t-131 -175t-183 -119t-218 -44.5zM543 68 q111 0 217 64.5t177.5 171.5t88.5 228q26 189 -77.5 326t-274.5 137q-111 0 -215 -63t-175.5 -171t-88.5 -235q-18 -125 22.5 -230.5t127 -166.5t198.5 -61z" />
<glyph unicode="&#x4e8;" horiz-adv-x="1501" d="M907 1464q149 0 270 -62t194.5 -164.5t105 -235.5t12.5 -275q-20 -151 -92 -287t-177.5 -235t-242.5 -157t-281 -58q-119 1 -221 41.5t-174.5 111.5t-121 163.5t-65 201t-1.5 219.5q27 192 141 361t288.5 272.5t364.5 103.5zM893 1368q-121 0 -234 -49.5t-198 -131.5 t-145.5 -187t-86.5 -218h1162q10 162 -48.5 295.5t-176.5 212t-273 78.5zM713 86q125 0 241.5 53.5t202 141t144.5 198t79 226.5h-1163q-14 -122 15 -234.5t92.5 -197.5t164.5 -136t224 -51z" />
<glyph unicode="&#x4e9;" horiz-adv-x="1208" d="M664 1083q144 0 254 -75.5t160 -202.5t30 -275q-15 -111 -68 -211.5t-131 -175t-183 -119t-218 -44.5q-145 0 -254.5 75.5t-158.5 201.5t-29 273q20 148 106.5 275t217.5 202.5t274 75.5zM651 995q-155 0 -289.5 -118.5t-177.5 -290.5h824q6 172 -96 290.5t-261 118.5z M520 68q107 0 209.5 60t174.5 160.5t95 215.5h-829q-19 -183 82.5 -309.5t267.5 -126.5z" />
<glyph unicode="&#x4ee;" horiz-adv-x="1208" d="M602 1763l16 76h558l-17 -76h-557zM197 0l18 92h98q91 0 155 49.5t114 141.5l24 45l-420 1126h103l373 -1020l550 1020h107l-653 -1194q-72 -133 -157 -196.5t-218 -63.5h-94z" />
<glyph unicode="&#x4ef;" horiz-adv-x="962" d="M399 1374l17 76h557l-17 -76h-557zM-74 -375q64 11 107 27t82 48t69.5 71t75.5 108l74 111l-228 1075h107l193 -965l98 156q182 294 262 458t131 351h102q-56 -200 -137.5 -365.5t-283.5 -488.5l-168 -264q-143 -229 -238.5 -311.5t-232.5 -94.5z" />
<glyph unicode="&#x4f0;" horiz-adv-x="1208" d="M688 1700l39 180h88l-37 -180h-90zM956 1700l39 180h88l-36 -180h-91zM197 0l18 92h98q91 0 155 49.5t114 141.5l24 45l-420 1126h103l373 -1020l550 1020h107l-653 -1194q-72 -133 -157 -196.5t-218 -63.5h-94z" />
<glyph unicode="&#x4f1;" horiz-adv-x="962" d="M485 1311l39 180h88l-37 -180h-90zM754 1311l39 180h88l-37 -180h-90zM-74 -375q64 11 107 27t82 48t69.5 71t75.5 108l74 111l-228 1075h107l193 -965l98 156q182 294 262 458t131 351h102q-56 -200 -137.5 -365.5t-283.5 -488.5l-168 -264q-143 -229 -238.5 -311.5 t-232.5 -94.5z" />
<glyph unicode="&#x4f2;" horiz-adv-x="1208" d="M741 1677l-53 33l154 174h104zM971 1677l-53 33l151 174h107zM197 0l18 92h98q91 0 155 49.5t114 141.5l24 45l-420 1126h103l373 -1020l550 1020h107l-653 -1194q-72 -133 -157 -196.5t-218 -63.5h-94z" />
<glyph unicode="&#x4f3;" horiz-adv-x="962" d="M539 1288l-54 33l154 174h104zM768 1288l-53 33l151 174h107zM-74 -375q64 11 107 27t82 48t69.5 71t75.5 108l74 111l-228 1075h107l193 -965l98 156q182 294 262 458t131 351h102q-56 -200 -137.5 -365.5t-283.5 -488.5l-168 -264q-143 -229 -238.5 -311.5 t-232.5 -94.5z" />
<glyph unicode="&#x4f4;" horiz-adv-x="1349" d="M725 1700l39 180h88l-37 -180h-90zM993 1700l39 180h88l-37 -180h-90zM1235 1454h104l-307 -1454h-104l135 639q-211 -80 -414 -80q-253 0 -353.5 111.5t-53.5 337.5l98 446h104l-98 -457q-38 -182 38.5 -263t283.5 -81q111 0 227 24.5t190 63.5z" />
<glyph unicode="&#x4f5;" horiz-adv-x="1024" d="M506 1311l39 180h88l-37 -180h-90zM774 1311l39 180h88l-37 -180h-90zM651 0l101 463q-146 -64 -308 -64q-370 0 -292 369l69 297h105l-66 -285q-33 -155 21.5 -227t195.5 -72q78 0 160.5 19t130.5 47l111 518h104l-225 -1065h-107z" />
<glyph unicode="&#x4f6;" horiz-adv-x="1019" d="M360 1454h807l-20 -94h-701l-268 -1266h152l-78 -370h-92l57 276h-164z" />
<glyph unicode="&#x4f7;" horiz-adv-x="983" d="M508 498q-166 -54 -230.5 -103.5t-74.5 -132.5q-11 -95 55.5 -145.5t202.5 -50.5q205 0 332 139l65 -60l-12 -14l-64 -295h-94l45 213q-123 -69 -287 -69q-182 0 -272 75.5t-76 210.5q10 110 94 177t281 130q161 56 222.5 105.5t70.5 132.5q9 93 -45 143t-162 50 q-93 0 -171.5 -35.5t-125.5 -98.5l-76 50q60 80 160 122.5t227 42.5q153 0 230.5 -72.5t68.5 -203.5q-11 -116 -96 -183t-268 -128z" />
<glyph unicode="&#x4f8;" horiz-adv-x="1599" d="M831 1700l39 180h88l-36 -180h-91zM1100 1700l39 180h88l-37 -180h-90zM57 0l308 1454h104l-123 -577h287q227 0 324.5 -119t64.5 -320q-31 -188 -171.5 -313t-358.5 -125h-435zM1487 1452h104l-309 -1452h-104zM180 94h318q93 0 168.5 28.5t125 78t80.5 109t43 128.5 q8 54 8.5 104t-19.5 94t-54 76.5t-95 51t-143 18.5h-286z" />
<glyph unicode="&#x4f9;" horiz-adv-x="1314" d="M772 1491l-37 -180h-90l39 180h88zM1040 1491l-36 -180h-91l39 180h88zM473 705q189 0 280.5 -99.5t69.5 -269.5q-23 -167 -130.5 -258.5t-274.5 -91.5q-183 0 -270.5 109t-47.5 321q19 93 146 649h102q-14 -61 -41.5 -180.5t-40.5 -179.5h207zM1171 1065h103l-225 -1065 h-103zM719 346q32 275 -270 275h-201q-26 -112 -45 -209q-31 -169 31 -253.5t198 -84.5q119 0 194.5 72.5t92.5 199.5z" />
<glyph unicode="&#x51a;" horiz-adv-x="1480" d="M1430 864q0 -196 -87 -376t-235 -306l106 -182h-108l-74 125q-198 -135 -416 -135q-127 0 -228 49.5t-163 133.5t-94.5 189.5t-32.5 223.5q0 169 67.5 331t178 281.5t261 192.5t308.5 73q102 0 188 -33t146 -90t101.5 -133.5t61.5 -163.5t20 -180zM635 86q186 0 352 117 l-127 219h107l94 -160q121 115 191.5 273.5t70.5 322.5q0 103 -26.5 194t-78 162t-134.5 112.5t-189 41.5q-140 0 -269.5 -67.5t-220.5 -176t-145.5 -248.5t-54.5 -282q0 -103 26.5 -193.5t78 -161.5t135.5 -112t190 -41z" />
<glyph unicode="&#x51b;" horiz-adv-x="1200" d="M53 418q0 127 53.5 250t139 213.5t198 146t226.5 55.5q115 0 204 -65t127 -168l46 215h94l-287 -1354q-4 -16 -4 -20q0 -30 33 -33l-19 -90q-28 -3 -59 4q-29 5 -47.5 26t-18.5 52q0 8 4 24l117 555q-208 -249 -446 -249q-112 0 -196 61.5t-124.5 159.5t-40.5 217z M885 346l78 361q-11 119 -92.5 201.5t-202.5 82.5q-97 0 -191 -49t-163 -127t-111.5 -179.5t-42.5 -201.5q0 -153 81.5 -257.5t217.5 -104.5q120 0 231.5 77t194.5 197z" />
<glyph unicode="&#x51c;" horiz-adv-x="2033" d="M199 1454h114l242 -1331l436 708l-114 613h102l92 -529l318 529h102l-373 -613l135 -708l807 1331h115l-899 -1454h-94l-144 748l-465 -748h-94z" />
<glyph unicode="&#x51d;" horiz-adv-x="1521" d="M115 1065h106l174 -963q171 193 322 467l-107 496h107l71 -360q92 187 144 360h98q-72 -242 -211 -498l94 -465q183 218 317.5 471t205.5 492h100q-176 -575 -596 -1065h-106l-89 444q-143 -243 -321 -444h-107z" />
<glyph unicode="&#x524;" horiz-adv-x="1560" d="M1438 1454l-287 -1360h203l-78 -370h-92l57 276h-215l289 1360h-866l-287 -1360h-105l308 1454h1073z" />
<glyph unicode="&#x525;" horiz-adv-x="1247" d="M1096 1065l-205 -973h174l-70 -338h-96l53 246h-184l207 981h-625l-207 -981h-102l225 1065h830z" />
<glyph unicode="&#x1e08;" horiz-adv-x="1349" d="M1141 1884l-209 -207l-64 33l156 174h117zM905 1366q-124 0 -236 -45.5t-195 -123t-144.5 -176.5t-93 -208.5t-31.5 -216.5q0 -139 51 -254t152 -186.5t235 -71.5q133 0 268.5 72t231.5 213l82 -43q-101 -160 -265.5 -248t-328.5 -90q59 -62 59 -140q0 -97 -62 -150.5 t-163 -53.5q-106 0 -191 55l45 61q78 -45 146 -45q72 0 116 37.5t44 97.5q0 75 -90 146q-136 23 -237 113.5t-149.5 215.5t-48.5 265q0 123 38 248t112 236.5t172 198.5t227 138t269 51q186 0 300 -86.5t150 -230.5l-90 -45q-77 266 -373 266z" />
<glyph unicode="&#x1e09;" horiz-adv-x="1069" d="M954 1495l-209 -207l-63 33l156 174h116zM674 991q-129 0 -247.5 -74t-192.5 -201t-74 -270q0 -160 86 -267t221 -107q105 0 211.5 58.5t146.5 137.5l95 -28q-54 -95 -157 -163.5t-222 -88.5q59 -65 59 -140q0 -97 -62 -150.5t-163 -53.5q-106 0 -191 55l45 61 q78 -45 146 -45q72 0 116 37.5t44 97.5q0 69 -70 130h-8q-182 0 -292 129t-110 321q0 128 51 248.5t136 209t201.5 142t240.5 53.5q140 0 231 -65t121 -182l-108 -33q-25 89 -92 138.5t-162 49.5z" />
<glyph unicode="&#x1e0c;" horiz-adv-x="1409" d="M365 1454h460q131 0 233.5 -42.5t165.5 -118.5t95.5 -175.5t32.5 -218.5q0 -255 -108 -460.5t-299.5 -322t-428.5 -116.5h-461zM537 94q128 0 241 42t197 116t145 173t92 215.5t31 240.5q0 217 -113 348t-325 131h-356l-269 -1266h357zM387 -309l39 184h94l-39 -184h-94z " />
<glyph unicode="&#x1e0d;" horiz-adv-x="1210" d="M55 428q0 164 83.5 316t222 245.5t290.5 93.5q124 0 212.5 -70t127.5 -179l139 661h105l-287 -1348q-4 -20 -4 -24q0 -31 35 -31l-21 -92q-18 -2 -45 -2q-33 4 -51 24t-18 50q0 27 24 141q-83 -106 -200.5 -169.5t-229.5 -63.5q-117 0 -205.5 63t-133 163.5t-44.5 221.5z M891 358l74 351q-15 116 -107.5 199t-202.5 83q-97 0 -189.5 -49.5t-158 -127t-105.5 -176t-40 -194.5q0 -156 88 -264t227 -108q110 0 243.5 87t170.5 199zM381 -309l39 184h94l-39 -184h-94z" />
<glyph unicode="&#x1e0e;" horiz-adv-x="1409" d="M365 1454h460q131 0 233.5 -42.5t165.5 -118.5t95.5 -175.5t32.5 -218.5q0 -255 -108 -460.5t-299.5 -322t-428.5 -116.5h-461zM537 94q128 0 241 42t197 116t145 173t92 215.5t31 240.5q0 217 -113 348t-325 131h-356l-269 -1266h357zM180 -238l19 76h530l-16 -76h-533z " />
<glyph unicode="&#x1e0f;" horiz-adv-x="1210" d="M55 428q0 164 83.5 316t222 245.5t290.5 93.5q124 0 212.5 -70t127.5 -179l139 661h105l-287 -1348q-4 -20 -4 -24q0 -31 35 -31l-21 -92q-18 -2 -45 -2q-33 4 -51 24t-18 50q0 27 24 141q-83 -106 -200.5 -169.5t-229.5 -63.5q-117 0 -205.5 63t-133 163.5t-44.5 221.5z M891 358l74 351q-15 116 -107.5 199t-202.5 83q-97 0 -189.5 -49.5t-158 -127t-105.5 -176t-40 -194.5q0 -156 88 -264t227 -108q110 0 243.5 87t170.5 199zM174 -238l19 76h530l-16 -76h-533z" />
<glyph unicode="&#x1e14;" horiz-adv-x="1196" d="M723 2269h115l84 -174l-76 -33zM582 1763l16 76h557l-16 -76h-557zM365 1454h903l-19 -94h-800l-121 -572h698l-20 -90h-697l-129 -604h817l-20 -94h-922z" />
<glyph unicode="&#x1e15;" horiz-adv-x="1083" d="M811 1706l-76 -33l-123 207h115zM487 1450h557l-16 -76h-557zM688 1083q87 0 161.5 -31.5t122.5 -97.5t48 -155q0 -307 -557 -307q-123 0 -299 12q-4 -50 -4 -72q0 -103 34.5 -185.5t108 -134t176.5 -51.5q105 0 211 59.5t160 155.5l86 -26q-72 -121 -203 -195.5 t-274 -74.5q-186 0 -295 128.5t-109 321.5q0 123 49 241.5t132 209.5t202 146.5t250 55.5zM469 569q455 0 455 232q0 97 -73 147.5t-175 50.5q-93 0 -177 -34.5t-146 -93t-106.5 -132.5t-66.5 -157q184 -13 289 -13z" />
<glyph unicode="&#x1e16;" horiz-adv-x="1196" d="M938 2062l-64 33l156 174h117zM582 1763l16 76h557l-16 -76h-557zM365 1454h903l-19 -94h-800l-121 -572h698l-20 -90h-697l-129 -604h817l-20 -94h-922z" />
<glyph unicode="&#x1e17;" horiz-adv-x="1083" d="M1036 1880l-209 -207l-63 33l156 174h116zM487 1450h557l-16 -76h-557zM688 1083q87 0 161.5 -31.5t122.5 -97.5t48 -155q0 -307 -557 -307q-123 0 -299 12q-4 -50 -4 -72q0 -103 34.5 -185.5t108 -134t176.5 -51.5q105 0 211 59.5t160 155.5l86 -26 q-72 -121 -203 -195.5t-274 -74.5q-186 0 -295 128.5t-109 321.5q0 123 49 241.5t132 209.5t202 146.5t250 55.5zM469 569q455 0 455 232q0 97 -73 147.5t-175 50.5q-93 0 -177 -34.5t-146 -93t-106.5 -132.5t-66.5 -157q184 -13 289 -13z" />
<glyph unicode="&#x1e1c;" horiz-adv-x="1196" d="M848 1696q-62 0 -101.5 41.5t-39.5 105.5q0 13 4 41h67q-2 -10 -2 -29q0 -42 24 -72t60 -30q40 0 80 38t57 93h66q-17 -78 -80 -133t-135 -55zM1249 1360h-800l-121 -572h698l-20 -90h-697l-129 -604h817l-20 -94h-436q71 -71 71 -152q0 -97 -62 -150.5t-163 -53.5 q-105 0 -190 55l45 61q78 -45 145 -45q72 0 116 37.5t44 97.5q0 79 -96 150h-396l310 1454h903z" />
<glyph unicode="&#x1e1d;" horiz-adv-x="1083" d="M737 1307q-62 0 -101.5 41.5t-39.5 105.5q0 13 4 41h68q-2 -10 -2 -29q0 -42 24 -72t60 -30q40 0 80 38t57 93h65q-17 -78 -80 -133t-135 -55zM463 492q-123 0 -299 12q-4 -50 -4 -72q0 -103 34.5 -185.5t108 -134t176.5 -51.5q105 0 211 59.5t160 155.5l86 -26 q-63 -105 -173 -177t-235 -89q58 -65 58 -136q0 -97 -62.5 -150.5t-163.5 -53.5q-105 0 -190 55l45 61q78 -45 145 -45q72 0 116 37.5t44 97.5q0 70 -69 130q-183 3 -289.5 131t-106.5 319q0 123 49 241.5t132 209.5t202 146.5t250 55.5q87 0 161.5 -31.5t122.5 -97.5 t48 -155q0 -307 -557 -307zM676 999q-93 0 -177 -34.5t-146 -93t-106.5 -132.5t-66.5 -157q184 -13 289 -13q455 0 455 232q0 97 -73 147.5t-175 50.5z" />
<glyph unicode="&#x1e20;" horiz-adv-x="1406" d="M1270 1833l-17 -76h-557l17 76h557zM893 623l18 84h402l-150 -707h-92l49 225q-250 -235 -512 -235q-95 0 -177.5 33.5t-142.5 91.5t-103 135t-64 166.5t-21 183.5q0 130 42 258.5t118.5 236.5t177 191.5t225.5 130.5t255 47q190 0 302.5 -85t149.5 -232l-94 -51 q-75 272 -375 272q-115 0 -223.5 -43.5t-192.5 -118.5t-148 -171.5t-98 -208t-34 -222.5q0 -105 31 -199.5t86 -165t138 -112t181 -41.5q243 0 504 258l59 279h-311z" />
<glyph unicode="&#x1e21;" horiz-adv-x="1200" d="M471 1374l16 76h557l-16 -76h-557zM-59 -211l77 47q36 -104 126 -156.5t212 -52.5q162 0 288 92.5t163 260.5l49 233q-82 -103 -199 -166t-229 -63q-114 0 -201 63t-130.5 163t-43.5 218q0 162 82.5 313.5t222.5 246.5t297 95q231 0 344 -249l50 231h92l-232 -1085 q-22 -105 -78.5 -189.5t-134 -138t-169.5 -81.5t-189 -28q-169 0 -262 63t-135 183zM889 358l74 351q-19 123 -107 202.5t-205 79.5q-100 0 -192.5 -51t-157 -130.5t-103 -176.5t-38.5 -189q0 -156 87 -264t226 -108q124 0 251 90t165 196z" />
<glyph unicode="&#x1e24;" horiz-adv-x="1445" d="M365 1454h104l-141 -663h864l141 663h105l-310 -1454h-104l147 696h-862l-149 -696h-105zM500 -309l39 184h94l-39 -184h-94z" />
<glyph unicode="&#x1e25;" horiz-adv-x="1130" d="M342 1495h102l-145 -684q88 125 213.5 198.5t251.5 73.5q244 0 244 -276q0 -91 -23 -195l-129 -612h-102l125 594q20 110 20 170q0 225 -186 225q-122 0 -251.5 -95t-195.5 -235l-139 -659h-102zM340 -309l39 184h94l-39 -184h-94z" />
<glyph unicode="&#x1e2a;" horiz-adv-x="1445" d="M365 1454h104l-141 -663h864l141 663h105l-310 -1454h-104l147 696h-862l-149 -696h-105zM547 -287q-63 0 -97.5 56.5t-15.5 132.5h62q-11 -50 9 -89.5t58 -39.5q34 0 71 37.5t54 91.5h60q-19 -77 -77.5 -133t-123.5 -56z" />
<glyph unicode="&#x1e2b;" horiz-adv-x="1130" d="M342 1495h102l-145 -684q88 125 213.5 198.5t251.5 73.5q244 0 244 -276q0 -91 -23 -195l-129 -612h-102l125 594q20 110 20 170q0 225 -186 225q-122 0 -251.5 -95t-195.5 -235l-139 -659h-102zM387 -287q-63 0 -97.5 56.5t-15.5 132.5h62q-11 -50 9 -89.5t58 -39.5 q34 0 71 37.5t54 91.5h60q-19 -77 -77.5 -133t-123.5 -56z" />
<glyph unicode="&#x1e2e;" horiz-adv-x="477" d="M567 2099l-63 33l155 174h117zM289 1696l39 180h88l-37 -180h-90zM557 1696l39 180h88l-37 -180h-90zM365 1452h104l-309 -1452h-105z" />
<glyph unicode="&#x1e2f;" horiz-adv-x="411" d="M453 1714l-64 33l156 174h117zM174 1311l39 180h88l-37 -180h-90zM442 1311l39 180h88l-37 -180h-90zM250 1065h102l-225 -1065h-102z" />
<glyph unicode="&#x1e36;" horiz-adv-x="1136" d="M365 1454h104l-289 -1360h821l-20 -94h-926zM408 -309l38 184h95l-39 -184h-94z" />
<glyph unicode="&#x1e37;" horiz-adv-x="509" d="M63 129q0 19 7 51l278 1315h103l-273 -1284q-4 -28 -4 -37q0 -43 25.5 -67.5t74.5 -24.5q53 0 111 20v-82q-35 -13 -86.5 -22.5t-87.5 -9.5q-69 0 -108.5 37.5t-39.5 103.5zM98 -309l39 184h94l-38 -184h-95z" />
<glyph unicode="&#x1e3a;" horiz-adv-x="1136" d="M365 1454h104l-289 -1360h821l-20 -94h-926zM201 -238l18 76h531l-17 -76h-532z" />
<glyph unicode="&#x1e3b;" horiz-adv-x="509" d="M63 129q0 19 7 51l278 1315h103l-273 -1284q-4 -28 -4 -37q0 -43 25.5 -67.5t74.5 -24.5q53 0 111 20v-82q-35 -13 -86.5 -22.5t-87.5 -9.5q-69 0 -108.5 37.5t-39.5 103.5zM-109 -238l19 76h530l-16 -76h-533z" />
<glyph unicode="&#x1e42;" horiz-adv-x="1724" d="M365 1454h104l350 -1040l795 1040h102l-309 -1454h-104l268 1257l-748 -981h-65l-330 981l-268 -1257h-105zM637 -309l39 184h94l-39 -184h-94z" />
<glyph unicode="&#x1e43;" horiz-adv-x="1789" d="M250 1065h96l-55 -254q89 128 206.5 200t237.5 72q121 0 184.5 -77.5t57.5 -217.5q83 142 205.5 218.5t253.5 76.5q233 0 233 -264q0 -90 -24 -207l-132 -612h-102l127 594q21 105 21 182q0 213 -177 213q-122 0 -237.5 -91.5t-186.5 -240.5l-137 -657h-102l125 594 q22 102 22 186q0 209 -174 209q-123 0 -238 -90.5t-188 -239.5l-139 -659h-102zM670 -309l39 184h94l-39 -184h-94z" />
<glyph unicode="&#x1e44;" horiz-adv-x="1517" d="M969 1694l39 184h94l-39 -184h-94zM365 1454h81l689 -1280l270 1278h104l-309 -1452h-92l-680 1257l-268 -1257h-105z" />
<glyph unicode="&#x1e45;" horiz-adv-x="1130" d="M745 1311l39 184h95l-39 -184h-95zM250 1065h96l-55 -254q88 122 223 197t268 75q119 0 174.5 -64.5t55.5 -191.5q0 -77 -27 -215l-129 -612h-102l125 594q22 105 22 190q0 104 -42 154.5t-128 50.5q-127 0 -261.5 -95t-203.5 -235l-139 -659h-102z" />
<glyph unicode="&#x1e46;" horiz-adv-x="1517" d="M365 1454h81l689 -1280l270 1278h104l-309 -1452h-92l-680 1257l-268 -1257h-105zM537 -309l38 184h95l-39 -184h-94z" />
<glyph unicode="&#x1e47;" horiz-adv-x="1130" d="M250 1065h96l-55 -254q88 122 223 197t268 75q119 0 174.5 -64.5t55.5 -191.5q0 -77 -27 -215l-129 -612h-102l125 594q22 105 22 190q0 104 -42 154.5t-128 50.5q-127 0 -261.5 -95t-203.5 -235l-139 -659h-102zM346 -309l39 184h94l-39 -184h-94z" />
<glyph unicode="&#x1e48;" horiz-adv-x="1517" d="M365 1454h81l689 -1280l270 1278h104l-309 -1452h-92l-680 1257l-268 -1257h-105zM330 -238l18 76h531l-17 -76h-532z" />
<glyph unicode="&#x1e49;" horiz-adv-x="1130" d="M250 1065h96l-55 -254q88 122 223 197t268 75q119 0 174.5 -64.5t55.5 -191.5q0 -77 -27 -215l-129 -612h-102l125 594q22 105 22 190q0 104 -42 154.5t-128 50.5q-127 0 -261.5 -95t-203.5 -235l-139 -659h-102zM139 -238l19 76h530l-16 -76h-533z" />
<glyph unicode="&#x1e4c;" d="M1087 2101l-63 33l156 174h116zM877 1790q-80 0 -119 -98h-68q2 9 9 26.5t24 43t38.5 47.5t56.5 37.5t75 15.5q43 0 80 -20.5t72.5 -41t76.5 -20.5q29 0 53 9.5t37.5 22.5t24 28.5t14 24t4.5 13.5h68q-2 -10 -9.5 -27.5t-25 -43t-40.5 -47t-61 -37t-81 -15.5 q-39 0 -73 13t-54 28t-47.5 28t-54.5 13zM98 586q0 169 67.5 331t178 281.5t261 192.5t308.5 73q102 0 188 -33t146 -90t101.5 -133.5t61.5 -163.5t20 -180q0 -224 -113 -426.5t-301.5 -325t-399.5 -122.5q-127 0 -228 49.5t-163 133.5t-94.5 189.5t-32.5 223.5zM1323 858 q0 103 -26.5 194t-78 162t-134.5 112.5t-189 41.5q-140 0 -269.5 -67.5t-220.5 -176t-145.5 -248.5t-54.5 -282q0 -103 26.5 -193.5t78 -161.5t135.5 -112t190 -41q141 0 270 67.5t219.5 176t144.5 248t54 280.5z" />
<glyph unicode="&#x1e4d;" horiz-adv-x="1165" d="M831 1718l-63 33l156 174h116zM621 1407q-80 0 -119 -98h-68q2 9 9 26.5t24 43t38.5 47.5t56.5 37.5t75 15.5q43 0 80 -20.5t72.5 -41t76.5 -20.5q29 0 53 9.5t37.5 22.5t24 28.5t14 24t4.5 13.5h68q-2 -10 -9.5 -27.5t-25 -43t-40.5 -47t-61 -37t-81 -15.5q-39 0 -73 13 t-54 28t-47.5 28t-54.5 13zM53 424q0 134 51 257t135.5 210.5t197.5 139.5t233 52q98 0 176 -35t127 -97t74.5 -142t25.5 -174q0 -132 -50 -253.5t-133.5 -209.5t-197 -140t-235.5 -52q-130 0 -223.5 61t-137 159.5t-43.5 223.5zM969 618q0 163 -82.5 268t-233.5 105 q-125 0 -238.5 -72.5t-184 -201t-70.5 -279.5q0 -162 82 -264t233 -102q125 0 238.5 71t184.5 198t71 277z" />
<glyph unicode="&#x1e4e;" d="M899 2124l39 180h88l-37 -180h-90zM1167 2124l39 180h88l-37 -180h-90zM877 1790q-80 0 -119 -98h-68q2 9 9 26.5t24 43t38.5 47.5t56.5 37.5t75 15.5q43 0 80 -20.5t72.5 -41t76.5 -20.5q29 0 53 9.5t37.5 22.5t24 28.5t14 24t4.5 13.5h68q-2 -10 -9.5 -27.5t-25 -43 t-40.5 -47t-61 -37t-81 -15.5q-39 0 -73 13t-54 28t-47.5 28t-54.5 13zM98 586q0 169 67.5 331t178 281.5t261 192.5t308.5 73q102 0 188 -33t146 -90t101.5 -133.5t61.5 -163.5t20 -180q0 -224 -113 -426.5t-301.5 -325t-399.5 -122.5q-127 0 -228 49.5t-163 133.5 t-94.5 189.5t-32.5 223.5zM1323 858q0 103 -26.5 194t-78 162t-134.5 112.5t-189 41.5q-140 0 -269.5 -67.5t-220.5 -176t-145.5 -248.5t-54.5 -282q0 -103 26.5 -193.5t78 -161.5t135.5 -112t190 -41q141 0 270 67.5t219.5 176t144.5 248t54 280.5z" />
<glyph unicode="&#x1e4f;" horiz-adv-x="1165" d="M643 1741l39 180h88l-37 -180h-90zM911 1741l39 180h88l-37 -180h-90zM621 1407q-80 0 -119 -98h-68q2 9 9 26.5t24 43t38.5 47.5t56.5 37.5t75 15.5q43 0 80 -20.5t72.5 -41t76.5 -20.5q29 0 53 9.5t37.5 22.5t24 28.5t14 24t4.5 13.5h68q-2 -10 -9.5 -27.5t-25 -43 t-40.5 -47t-61 -37t-81 -15.5q-39 0 -73 13t-54 28t-47.5 28t-54.5 13zM53 424q0 134 51 257t135.5 210.5t197.5 139.5t233 52q98 0 176 -35t127 -97t74.5 -142t25.5 -174q0 -132 -50 -253.5t-133.5 -209.5t-197 -140t-235.5 -52q-130 0 -223.5 61t-137 159.5t-43.5 223.5z M969 618q0 163 -82.5 268t-233.5 105q-125 0 -238.5 -72.5t-184 -201t-70.5 -279.5q0 -162 82 -264t233 -102q125 0 238.5 71t184.5 198t71 277z" />
<glyph unicode="&#x1e50;" d="M862 2263h115l84 -174l-76 -33zM721 1757l16 76h557l-16 -76h-557zM98 586q0 169 67.5 331t178 281.5t261 192.5t308.5 73q102 0 188 -33t146 -90t101.5 -133.5t61.5 -163.5t20 -180q0 -224 -113 -426.5t-301.5 -325t-399.5 -122.5q-127 0 -228 49.5t-163 133.5 t-94.5 189.5t-32.5 223.5zM1323 858q0 103 -26.5 194t-78 162t-134.5 112.5t-189 41.5q-140 0 -269.5 -67.5t-220.5 -176t-145.5 -248.5t-54.5 -282q0 -103 26.5 -193.5t78 -161.5t135.5 -112t190 -41q141 0 270 67.5t219.5 176t144.5 248t54 280.5z" />
<glyph unicode="&#x1e51;" horiz-adv-x="1165" d="M606 1880h115l84 -174l-76 -33zM465 1374l16 76h557l-16 -76h-557zM53 424q0 134 51 257t135.5 210.5t197.5 139.5t233 52q98 0 176 -35t127 -97t74.5 -142t25.5 -174q0 -132 -50 -253.5t-133.5 -209.5t-197 -140t-235.5 -52q-130 0 -223.5 61t-137 159.5t-43.5 223.5z M969 618q0 163 -82.5 268t-233.5 105q-125 0 -238.5 -72.5t-184 -201t-70.5 -279.5q0 -162 82 -264t233 -102q125 0 238.5 71t184.5 198t71 277z" />
<glyph unicode="&#x1e52;" d="M1077 2056l-63 33l155 174h117zM721 1757l16 76h557l-16 -76h-557zM98 586q0 169 67.5 331t178 281.5t261 192.5t308.5 73q102 0 188 -33t146 -90t101.5 -133.5t61.5 -163.5t20 -180q0 -224 -113 -426.5t-301.5 -325t-399.5 -122.5q-127 0 -228 49.5t-163 133.5 t-94.5 189.5t-32.5 223.5zM1323 858q0 103 -26.5 194t-78 162t-134.5 112.5t-189 41.5q-140 0 -269.5 -67.5t-220.5 -176t-145.5 -248.5t-54.5 -282q0 -103 26.5 -193.5t78 -161.5t135.5 -112t190 -41q141 0 270 67.5t219.5 176t144.5 248t54 280.5z" />
<glyph unicode="&#x1e53;" horiz-adv-x="1165" d="M821 1673l-63 33l155 174h117zM465 1374l16 76h557l-16 -76h-557zM53 424q0 134 51 257t135.5 210.5t197.5 139.5t233 52q98 0 176 -35t127 -97t74.5 -142t25.5 -174q0 -132 -50 -253.5t-133.5 -209.5t-197 -140t-235.5 -52q-130 0 -223.5 61t-137 159.5t-43.5 223.5z M969 618q0 163 -82.5 268t-233.5 105q-125 0 -238.5 -72.5t-184 -201t-70.5 -279.5q0 -162 82 -264t233 -102q125 0 238.5 71t184.5 198t71 277z" />
<glyph unicode="&#x1e5a;" horiz-adv-x="1277" d="M55 0l310 1454h577q96 0 170 -54t111 -138t37 -181q0 -118 -57.5 -231t-156 -190.5t-212.5 -94.5l221 -565h-119l-217 549h-443l-116 -549h-105zM778 645q99 0 186.5 63.5t137 161.5t49.5 199q0 120 -66.5 205.5t-169.5 85.5h-466l-152 -715h481zM397 -309l39 184h94 l-38 -184h-95z" />
<glyph unicode="&#x1e5b;" horiz-adv-x="681" d="M250 1065h98l-57 -262q81 118 185.5 187t209.5 75q8 1 16.5 1t17.5 -0.5t13 -0.5l-20 -92q-137 -5 -256 -86.5t-189 -220.5l-141 -666h-102zM-33 -309l39 184h94l-39 -184h-94z" />
<glyph unicode="&#x1e5e;" horiz-adv-x="1277" d="M55 0l310 1454h577q96 0 170 -54t111 -138t37 -181q0 -118 -57.5 -231t-156 -190.5t-212.5 -94.5l221 -565h-119l-217 549h-443l-116 -549h-105zM778 645q99 0 186.5 63.5t137 161.5t49.5 199q0 120 -66.5 205.5t-169.5 85.5h-466l-152 -715h481zM190 -238l19 76h530 l-16 -76h-533z" />
<glyph unicode="&#x1e5f;" horiz-adv-x="681" d="M250 1065h98l-57 -262q81 118 185.5 187t209.5 75q8 1 16.5 1t17.5 -0.5t13 -0.5l-20 -92q-137 -5 -256 -86.5t-189 -220.5l-141 -666h-102zM-240 -238l19 76h530l-16 -76h-533z" />
<glyph unicode="&#x1e60;" horiz-adv-x="1193" d="M809 1731l39 184h94l-39 -184h-94zM-12 205l71 84q163 -207 461 -207q203 0 323 87t120 241q0 49 -16.5 86.5t-43 63t-78 49t-100.5 38.5t-133 37q-70 17 -114.5 30.5t-93 32.5t-77 40t-53 50t-35 67t-10.5 87q0 214 161.5 343.5t413.5 129.5q265 0 406 -170l-72 -82 q-107 158 -348 158q-216 0 -332 -98.5t-116 -251.5q0 -38 8.5 -66.5t30 -52t45 -39.5t68.5 -32t84.5 -27.5t107.5 -28.5q74 -19 123.5 -34.5t100.5 -36.5t82 -44.5t57 -56t37 -73.5t11 -93q0 -147 -78.5 -250t-206.5 -150.5t-294 -47.5q-164 0 -288 53.5t-222 163.5z" />
<glyph unicode="&#x1e61;" horiz-adv-x="944" d="M590 1311l39 184h94l-39 -184h-94zM-35 143l64 70q132 -150 327 -150q151 0 247.5 69t96.5 183q0 24 -7 43.5t-16.5 34t-30.5 28.5t-38.5 23t-52.5 21t-59.5 19t-71.5 20q-68 18 -104 29.5t-77.5 30t-60.5 38.5t-32 50t-13 71q0 166 127 263t316 97q118 0 202.5 -40.5 t120.5 -108.5l-67 -55q-69 120 -269 120q-86 0 -158 -25.5t-120.5 -83.5t-48.5 -140q0 -67 48 -97.5t179 -64.5q72 -20 117 -34.5t92 -36.5t72 -46t41 -59t16 -80q0 -160 -127.5 -256t-331.5 -96q-258 0 -381 163z" />
<glyph unicode="&#x1e62;" horiz-adv-x="1193" d="M-12 205l71 84q163 -207 461 -207q203 0 323 87t120 241q0 49 -16.5 86.5t-43 63t-78 49t-100.5 38.5t-133 37q-70 17 -114.5 30.5t-93 32.5t-77 40t-53 50t-35 67t-10.5 87q0 214 161.5 343.5t413.5 129.5q265 0 406 -170l-72 -82q-107 158 -348 158q-216 0 -332 -98.5 t-116 -251.5q0 -38 8.5 -66.5t30 -52t45 -39.5t68.5 -32t84.5 -27.5t107.5 -28.5q74 -19 123.5 -34.5t100.5 -36.5t82 -44.5t57 -56t37 -73.5t11 -93q0 -147 -78.5 -250t-206.5 -150.5t-294 -47.5q-164 0 -288 53.5t-222 163.5zM377 -309l39 184h94l-39 -184h-94z" />
<glyph unicode="&#x1e63;" horiz-adv-x="944" d="M-35 143l64 70q132 -150 327 -150q151 0 247.5 69t96.5 183q0 24 -7 43.5t-16.5 34t-30.5 28.5t-38.5 23t-52.5 21t-59.5 19t-71.5 20q-68 18 -104 29.5t-77.5 30t-60.5 38.5t-32 50t-13 71q0 166 127 263t316 97q118 0 202.5 -40.5t120.5 -108.5l-67 -55 q-69 120 -269 120q-86 0 -158 -25.5t-120.5 -83.5t-48.5 -140q0 -67 48 -97.5t179 -64.5q72 -20 117 -34.5t92 -36.5t72 -46t41 -59t16 -80q0 -160 -127.5 -256t-331.5 -96q-258 0 -381 163zM254 -309l39 184h94l-39 -184h-94z" />
<glyph unicode="&#x1e64;" horiz-adv-x="1193" d="M870 2161l39 184h95l-39 -184h-95zM864 1708l-63 33l155 174h117zM-12 205l71 84q163 -207 461 -207q203 0 323 87t120 241q0 49 -16.5 86.5t-43 63t-78 49t-100.5 38.5t-133 37q-70 17 -114.5 30.5t-93 32.5t-77 40t-53 50t-35 67t-10.5 87q0 214 161.5 343.5 t413.5 129.5q265 0 406 -170l-72 -82q-107 158 -348 158q-216 0 -332 -98.5t-116 -251.5q0 -38 8.5 -66.5t30 -52t45 -39.5t68.5 -32t84.5 -27.5t107.5 -28.5q74 -19 123.5 -34.5t100.5 -36.5t82 -44.5t57 -56t37 -73.5t11 -93q0 -147 -78.5 -250t-206.5 -150.5t-294 -47.5 q-164 0 -288 53.5t-222 163.5z" />
<glyph unicode="&#x1e65;" horiz-adv-x="944" d="M651 1741l39 184h94l-39 -184h-94zM645 1288l-63 33l155 174h117zM-35 143l64 70q132 -150 327 -150q151 0 247.5 69t96.5 183q0 24 -7 43.5t-16.5 34t-30.5 28.5t-38.5 23t-52.5 21t-59.5 19t-71.5 20q-68 18 -104 29.5t-77.5 30t-60.5 38.5t-32 50t-13 71 q0 166 127 263t316 97q118 0 202.5 -40.5t120.5 -108.5l-67 -55q-69 120 -269 120q-86 0 -158 -25.5t-120.5 -83.5t-48.5 -140q0 -67 48 -97.5t179 -64.5q72 -20 117 -34.5t92 -36.5t72 -46t41 -59t16 -80q0 -160 -127.5 -256t-331.5 -96q-258 0 -381 163z" />
<glyph unicode="&#x1e66;" horiz-adv-x="1193" d="M901 2161l39 184h94l-39 -184h-94zM645 1880l70 35l137 -129l192 129l54 -35l-224 -166h-75zM-12 205l71 84q163 -207 461 -207q203 0 323 87t120 241q0 49 -16.5 86.5t-43 63t-78 49t-100.5 38.5t-133 37q-70 17 -114.5 30.5t-93 32.5t-77 40t-53 50t-35 67t-10.5 87 q0 214 161.5 343.5t413.5 129.5q265 0 406 -170l-72 -82q-107 158 -348 158q-216 0 -332 -98.5t-116 -251.5q0 -38 8.5 -66.5t30 -52t45 -39.5t68.5 -32t84.5 -27.5t107.5 -28.5q74 -19 123.5 -34.5t100.5 -36.5t82 -44.5t57 -56t37 -73.5t11 -93q0 -147 -78.5 -250 t-206.5 -150.5t-294 -47.5q-164 0 -288 53.5t-222 163.5z" />
</font>
</defs>
</svg>
