<?xml version="1.0" standalone="no"?>
<!DOCTYPE svg PUBLIC "-//W3C//DTD SVG 1.1//EN" "http://www.w3.org/Graphics/SVG/1.1/DTD/svg11.dtd" >
<svg xmlns="http://www.w3.org/2000/svg" xmlns:xlink="http://www.w3.org/1999/xlink" version="1.1">
<metadata></metadata>
<defs>
<font id="rawlineblack_italic" horiz-adv-x="1220" >
<font-face units-per-em="2048" ascent="1638" descent="-410" />
<missing-glyph horiz-adv-x="456" />
<glyph unicode="fi" horiz-adv-x="1243" d="M176 659h-125l64 293h125l24 117q42 200 202 323.5t368 123.5q110 0 208.5 -39.5t214.5 -124.5l-208 -295q-57 62 -124.5 96.5t-133.5 34.5q-54 0 -90 -27t-46 -78l-28 -131h590l-203 -952h-389l139 659h-199l-139 -659h-389z" />
<glyph unicode="fl" horiz-adv-x="1417" d="M713 190q0 26 6 50l155 729q19 101 19 131q0 45 -19.5 66.5t-64.5 21.5q-134 0 -168 -176l-12 -60h127l-62 -293h-129l-139 -659h-389l139 659h-125l64 293h125l32 154q30 139 115 232.5t204 135.5t269 42q221 0 327.5 -88t106.5 -250q0 -68 -14 -134l-127 -600 q-4 -28 -4 -41q0 -75 59 -75q19 0 47.5 8t49.5 16t22 8l-20 -311q-6 -5 -52.5 -20t-125.5 -31t-144 -16q-129 0 -200.5 58.5t-71.5 149.5z" />
<glyph unicode="&#xd;" horiz-adv-x="0" />
<glyph unicode=" "  horiz-adv-x="456" />
<glyph unicode="&#x09;" horiz-adv-x="456" />
<glyph unicode="&#xa0;" horiz-adv-x="456" />
<glyph unicode="!" horiz-adv-x="675" d="M143 614l181 854h389l-181 -854h-389zM12 0l80 377h389l-80 -377h-389z" />
<glyph unicode="&#x22;" horiz-adv-x="966" d="M188 1016l103 479h327l-102 -479h-328zM614 1016l103 479h327l-102 -479h-328z" />
<glyph unicode="#" horiz-adv-x="1488" d="M1458 813h-313l-72 -178h248l-61 -287h-318l-154 -348h-307l154 348h-96l-152 -348h-309l153 348h-217l62 287h286l72 178h-221l57 266h287l166 375h309l-168 -375h97l165 375h310l-170 -375h250zM766 635l72 178h-97l-71 -178h96z" />
<glyph unicode="$" horiz-adv-x="1290" d="M846 895q82 -31 136 -59.5t101.5 -70t70 -98t22.5 -130.5q0 -112 -33.5 -203.5t-89 -153t-131.5 -105t-156.5 -64.5t-167.5 -27l-51 -248h-164l53 252q-129 12 -253.5 55.5t-215.5 108.5l246 350q2 -7 45 -36.5t124.5 -67t160.5 -50.5l37 176q-42 14 -121 43 q-138 55 -203.5 131t-65.5 191q0 122 47 227t126.5 175.5t178.5 114.5t208 56l45 207h161l-45 -209q184 -22 404 -151l-242 -330q-2 5 -37.5 28.5t-101.5 54t-127 42.5l-39 -182zM629 1026q0 -38 45 -63l31 147q-76 -18 -76 -84zM645 344q47 4 63.5 23.5t16.5 50.5 q0 40 -49 65z" />
<glyph unicode="%" horiz-adv-x="1689" d="M139 133l690 653l631 691l137 -154l-661 -633l-660 -710zM176 1098q0 100 60 187.5t158.5 138.5t207.5 51q127 0 208 -77.5t81 -193.5q0 -100 -60 -187.5t-158.5 -138.5t-207.5 -51q-128 0 -208.5 77.5t-80.5 193.5zM625 1188q0 43 -17.5 72.5t-44.5 29.5 q-43 0 -82 -54.5t-39 -121.5q0 -43 17.5 -72.5t44.5 -29.5q43 0 82 54.5t39 121.5zM846 250q0 100 60 187.5t158.5 138.5t207.5 51q127 0 208 -77.5t81 -193.5q0 -100 -60 -187.5t-158.5 -138t-207.5 -50.5q-129 0 -209 77t-80 193zM1292 340q0 44 -16 73t-43 29 q-43 0 -82 -54.5t-39 -121.5q0 -43 17.5 -72.5t44.5 -29.5q42 0 80 54.5t38 121.5z" />
<glyph unicode="&#x26;" horiz-adv-x="1490" d="M1391 588h-125q-58 -130 -146 -242l238 -346h-508l-51 76q-182 -96 -369 -96q-102 0 -182 32t-127.5 86t-71.5 120.5t-24 141.5q0 73 22.5 135.5t67.5 113.5t94.5 90t120.5 81q-44 76 -64 135t-20 123q0 125 68.5 226t178.5 155t234 54q69 0 130.5 -18.5t113.5 -56 t89 -99t52 -142.5l-274 -102q-14 70 -50.5 103.5t-80.5 33.5q-38 0 -68.5 -23.5t-30.5 -64.5q0 -19 9.5 -38.5t23 -36.5t43 -55.5t55.5 -76.5l217 -313q62 120 82 268h383zM541 274q53 0 112 21l-161 242q-49 -32 -69 -64t-20 -74q0 -62 38 -93.5t100 -31.5z" />
<glyph unicode="'" horiz-adv-x="540" d="M188 1016l103 479h327l-102 -479h-328z" />
<glyph unicode="(" horiz-adv-x="688" d="M565 1581l271 -119q-218 -289 -318 -507.5t-100 -391.5q0 -222 98 -561l-313 -137q-65 158 -107.5 338t-42.5 342q0 104 27.5 211.5t68 198t114.5 206.5t136.5 201.5t165.5 218.5z" />
<glyph unicode=")" horiz-adv-x="686" d="M164 -135l-254 137q178 249 240 356q141 240 157 451q2 30 2 61q0 158 -33.5 329t-64.5 263l321 119q142 -410 142 -700q0 -108 -30 -222t-75.5 -210t-117.5 -206.5t-135.5 -192t-151.5 -185.5z" />
<glyph unicode="*" horiz-adv-x="729" d="M219 1022l129 160l-131 43l82 157l131 -73l23 168h194l-49 -168l162 73l14 -157l-149 -43l63 -160l-160 -92l-59 170l-129 -170z" />
<glyph unicode="+" horiz-adv-x="901" d="M819 881v-308h-174v-194h-348v194h-174v308h174v194h348v-194h174z" />
<glyph unicode="," horiz-adv-x="524" d="M-53 -322l141 322h-117l82 377h320l-82 -377l-176 -322h-168z" />
<glyph unicode="-" horiz-adv-x="815" d="M53 391l74 348h612l-73 -348h-613z" />
<glyph unicode="." horiz-adv-x="520" d="M-27 0l80 377h316l-80 -377h-316z" />
<glyph unicode="/" horiz-adv-x="1579" d="M1690 1454l-1319 -1454h-428l1319 1454h428z" />
<glyph unicode="0" horiz-adv-x="1411" d="M78 575q0 119 40.5 245t115.5 238t173 201.5t222.5 142t253.5 52.5q100 0 183.5 -36t139.5 -95t94.5 -138t56 -162.5t17.5 -170.5q0 -99 -29 -203t-80.5 -200.5t-126 -182t-162 -149t-193.5 -100.5t-214 -37q-100 0 -183 35t-139 93t-95 135.5t-56.5 161t-17.5 170.5z M969 836q0 71 -15 128t-52 96.5t-93 39.5q-62 0 -117 -38t-92 -97t-64.5 -131.5t-40 -141.5t-12.5 -127q0 -103 39 -167t123 -64q61 0 115 34.5t91.5 89t64.5 121.5t40 133.5t13 123.5z" />
<glyph unicode="1" horiz-adv-x="1093" d="M72 348h278l158 742q-47 -52 -167.5 -114.5t-193.5 -62.5l76 357q39 0 90.5 19.5t97 46.5t86 56t64 49t25.5 23h397l-235 -1116h245l-73 -348h-922z" />
<glyph unicode="2" horiz-adv-x="1257" d="M432 696q54 24 84.5 38.5t74.5 37.5t69 41t54.5 43.5t44.5 50.5t25.5 57t10.5 68q0 49 -26 71.5t-64 22.5q-67 0 -152 -42.5t-158 -104.5l-184 260q108 99 276.5 165t346.5 66q200 0 307.5 -94t107.5 -268q0 -102 -19.5 -177t-66 -138.5t-112 -114.5t-170.5 -111 q-12 -7 -49 -27t-53 -29.5t-47 -28t-47 -32t-35.5 -31t-29.5 -35.5t-14 -36h492l-74 -348h-1075q26 125 49.5 205t59 159t84.5 133.5t119.5 104.5t170.5 94z" />
<glyph unicode="3" horiz-adv-x="1155" d="M-14 219l256 270q1 -1 7.5 -20.5t18.5 -39.5t32.5 -41.5t57 -35.5t84.5 -14q77 0 133 35t56 98q0 70 -77.5 97.5t-246.5 27.5h-63l67 322h64q70 0 130 8t110 25t79 47t29 69q0 66 -76 66q-150 0 -270 -134l-184 289q94 87 243 136t287 49q192 0 310 -95.5t118 -244.5 q0 -133 -92 -230.5t-228 -124.5q96 -17 149.5 -99t53.5 -202q0 -85 -28.5 -158.5t-78 -126.5t-113.5 -94t-138 -66t-148.5 -37.5t-148.5 -12.5q-155 0 -252 57.5t-141 179.5z" />
<glyph unicode="4" horiz-adv-x="1177" d="M410 2l59 279h-485l73 348l785 827h266l-176 -827h172l-74 -348h-172l-59 -279h-389zM588 629l53 245l-201 -245h148z" />
<glyph unicode="5" horiz-adv-x="1140" d="M1063 1102h-414l-49 -156q24 8 76 8q170 0 271.5 -103.5t101.5 -272.5q0 -168 -87.5 -305t-239 -214t-333.5 -77q-153 0 -262 60.5t-152 168.5l265 246q41 -63 101 -99t122 -36q79 0 127.5 53t48.5 137q0 50 -24.5 80.5t-67.5 30.5q-36 0 -70.5 -19.5t-56.5 -52.5h-332 q57 140 173.5 443t182.5 462h695z" />
<glyph unicode="6" horiz-adv-x="1214" d="M1120 578q0 171 -109 281t-288 110q-123 0 -211 -70q28 109 92.5 170t153.5 61q128 0 209 -110l268 250q-149 196 -399 196q-220 0 -393.5 -130.5t-268 -355t-94.5 -501.5q0 -236 102.5 -367.5t296.5 -131.5q124 0 242 48.5t205.5 129t140.5 191.5t53 229zM434 455 q0 85 58.5 147t132.5 62q52 0 84 -39.5t32 -98.5q0 -84 -61.5 -152.5t-130.5 -68.5q-50 0 -82.5 43.5t-32.5 106.5z" />
<glyph unicode="7" horiz-adv-x="1198" d="M690 1102h-510l76 354h1122l-983 -1454h-440z" />
<glyph unicode="8" horiz-adv-x="1210" d="M469 -20q-186 0 -310 110t-124 291q0 227 235 395q-34 27 -53.5 81.5t-19.5 113.5q0 88 37.5 167t99 135.5t138.5 98t156.5 62t151.5 20.5q74 0 145.5 -23.5t130.5 -67.5t95.5 -114t36.5 -155q0 -95 -55.5 -185.5t-128.5 -132.5q41 -43 69.5 -109t28.5 -147 q0 -151 -90 -276.5t-234.5 -194.5t-308.5 -69zM664 905q45 0 82.5 34.5t37.5 92.5q0 35 -19.5 57.5t-55.5 22.5q-49 0 -83 -37t-34 -88q0 -39 21 -60.5t51 -21.5zM604 616q-70 0 -117 -49t-47 -121q0 -48 28.5 -80t74.5 -32q68 0 116 51.5t48 122.5q0 52 -26.5 80t-76.5 28z " />
<glyph unicode="9" horiz-adv-x="1214" d="M537 477q123 0 211 70q-28 -109 -92.5 -170.5t-151.5 -61.5q-129 0 -211 111l-268 -250q152 -196 401 -196q219 0 392 130.5t267.5 355t94.5 501.5q0 236 -103 367.5t-297 131.5q-124 0 -242 -48.5t-205.5 -129t-140.5 -191.5t-53 -229q0 -171 109.5 -281t288.5 -110z M825 991q0 -85 -58.5 -147t-131.5 -62q-52 0 -84.5 39.5t-32.5 98.5q0 84 62 152.5t131 68.5q50 0 82 -43.5t32 -106.5z" />
<glyph unicode=":" horiz-adv-x="612" d="M164 686l80 377h315l-80 -377h-315zM18 0l80 377h316l-80 -377h-316z" />
<glyph unicode=";" horiz-adv-x="616" d="M166 686l80 377h315l-80 -377h-315zM-10 -322l141 322h-117l82 377h320l-82 -377l-176 -322h-168z" />
<glyph unicode="&#x3c;" horiz-adv-x="1134" d="M57 610l869 529v-414l-303 -195l303 -178v-434l-869 512v180z" />
<glyph unicode="=" horiz-adv-x="1007" d="M160 678v246h661v-246h-661zM160 207v246h661v-246h-661z" />
<glyph unicode="&#x3e;" horiz-adv-x="1136" d="M1038 430l-868 -512v434l303 178l-303 195v414l868 -529v-180z" />
<glyph unicode="?" horiz-adv-x="987" d="M166 530q11 52 22.5 86.5t34.5 76t62.5 75.5t97.5 63q161 78 224 130.5t63 113.5q0 38 -24.5 61t-61.5 23q-31 0 -60.5 -16t-44.5 -31t-39 -45l-28 -35l-211 176q75 124 199 194.5t266 70.5q68 0 129 -18.5t112 -56t81 -102.5t30 -151q0 -154 -59.5 -248.5t-170.5 -163.5 q-44 -28 -127 -65t-126.5 -67.5t-51.5 -70.5h-317zM59 0l72 336h318l-72 -336h-318z" />
<glyph unicode="@" horiz-adv-x="1679" d="M1425 596q0 228 -136.5 362t-368.5 134q-151 0 -287 -59.5t-234 -160.5t-155.5 -241t-57.5 -295q0 -230 121.5 -361t333.5 -131q136 0 313 78l15 -139q-178 -82 -357 -82q-265 0 -422 167t-157 449q0 188 73 358t196.5 292.5t294.5 195t359 72.5q285 0 454 -158.5 t169 -439.5q0 -168 -58.5 -321.5t-164 -251t-230.5 -97.5q-75 0 -120 35.5t-45 97.5q0 19 2 23q-159 -135 -310 -135t-241 103.5t-90 273.5q0 154 73.5 291.5t194 219.5t254.5 82q94 0 156.5 -41t76.5 -110l21 115h170l-121 -646q-8 -40 -8 -67q0 -36 17.5 -57t47.5 -21 q54 0 105.5 68.5t83.5 177t32 219.5zM948 346l33 236q-5 68 -46.5 114.5t-109.5 46.5q-105 0 -192.5 -107t-87.5 -255q0 -95 43 -154t137 -59q79 0 132 44t91 134z" />
<glyph unicode="A" horiz-adv-x="1302" d="M655 1454h367l162 -1454h-406l-14 285h-348l-133 -285h-408zM758 551l-17 450l-211 -450h228z" />
<glyph unicode="B" horiz-adv-x="1366" d="M303 1454h813q116 0 181 -88t65 -211q0 -126 -75.5 -241t-205.5 -169q91 -30 141 -102.5t50 -181.5q0 -95 -32 -173t-87.5 -130.5t-131.5 -88.5t-162.5 -52.5t-182.5 -16.5h-682zM823 891q48 0 84.5 34t36.5 111q0 78 -61 78h-252l-49 -223h241zM748 336q52 0 90.5 41.5 t38.5 109.5q0 41 -18 67t-48 26h-295l-51 -244h283z" />
<glyph unicode="C" horiz-adv-x="1359" d="M57 610q0 120 42.5 243t122.5 231.5t186.5 193.5t244.5 134.5t285 49.5q196 0 329 -86t175 -231l-350 -217q-7 50 -31 87t-58.5 56.5t-71 28t-77.5 8.5q-73 0 -137 -29.5t-109 -78t-78 -110t-49 -126.5t-16 -127q0 -127 59.5 -211t171.5 -84q84 0 167 43.5t132 134.5 l285 -194q-61 -103 -175.5 -182t-242.5 -117.5t-250 -38.5q-128 0 -234.5 52t-175.5 139.5t-107 198.5t-38 232z" />
<glyph unicode="D" horiz-adv-x="1419" d="M303 1454h537q141 0 250.5 -43.5t177 -121.5t102.5 -179.5t35 -222.5q0 -189 -67 -354t-183 -282t-278.5 -184t-346.5 -67h-536zM604 348q111 0 201 67t139 176.5t49 237.5q0 127 -59.5 202t-167.5 75h-137l-162 -758h137z" />
<glyph unicode="E" horiz-adv-x="1177" d="M303 1454h971l-74 -348h-571l-43 -205h487l-69 -323h-488l-49 -230h590l-74 -348h-989z" />
<glyph unicode="F" horiz-adv-x="1118" d="M303 1454h950l-73 -348h-551l-51 -242h446l-68 -323h-448l-115 -541h-399z" />
<glyph unicode="G" horiz-adv-x="1456" d="M782 487l60 287h581l-166 -774h-327l26 123q-175 -133 -362 -133q-114 0 -212.5 40.5t-170.5 114.5t-113 185.5t-41 247.5q0 182 75.5 348t198.5 283t285.5 186t331.5 69q187 0 322 -85t178 -232l-344 -227q-22 86 -90 138t-156 52q-101 0 -190.5 -63.5t-144 -175 t-54.5 -242.5q0 -130 62.5 -207.5t173.5 -77.5q156 0 315 143h-238z" />
<glyph unicode="H" horiz-adv-x="1482" d="M303 1454h399l-114 -536h434l115 536h399l-309 -1454h-400l121 569h-434l-121 -569h-399z" />
<glyph unicode="I" horiz-adv-x="649" d="M303 1454h399l-309 -1454h-399z" />
<glyph unicode="J" horiz-adv-x="999" d="M-98 68l151 325q7 -8 32 -21.5t74 -26.5t99 -13q109 0 158 81t96 302l158 739h399l-158 -739q-22 -104 -43.5 -181t-53 -158t-69.5 -138t-91.5 -109t-120 -83.5t-155 -50t-196.5 -18.5q-172 0 -280 91z" />
<glyph unicode="K" horiz-adv-x="1361" d="M303 1454h399l-116 -553l508 553h452l-637 -651l363 -803h-461l-213 535l-115 -115l-90 -420h-399z" />
<glyph unicode="L" horiz-adv-x="1155" d="M303 1454h399l-235 -1106h612l-73 -348h-1012z" />
<glyph unicode="M" horiz-adv-x="1679" d="M303 1454h436l133 -684l426 684h435l-310 -1454h-399l162 766l-324 -539h-211l-94 539l-164 -766h-399z" />
<glyph unicode="N" horiz-adv-x="1484" d="M303 1454h311l369 -739l156 739h399l-309 -1454h-316l-368 715l-152 -715h-399z" />
<glyph unicode="O" horiz-adv-x="1511" d="M57 598q0 162 73 320t192.5 277.5t283.5 193t336 73.5q131 0 239 -51t177 -136.5t106 -194t37 -228.5q0 -161 -72 -318.5t-190.5 -277.5t-282 -194t-335.5 -74q-132 0 -240.5 50.5t-178 136t-107.5 194.5t-38 229zM1094 825q0 123 -58 203t-176 80q-75 0 -140 -29.5 t-110.5 -78t-78.5 -111t-48.5 -129t-15.5 -131.5q0 -125 57 -206t174 -81q76 0 141.5 30t111.5 79.5t79 112.5t48.5 129.5t15.5 131.5z" />
<glyph unicode="P" horiz-adv-x="1232" d="M303 1454h598q112 0 199 -61t130.5 -156t43.5 -203q0 -106 -46.5 -212t-123.5 -189t-185 -135t-223 -52h-209l-94 -446h-399zM743 795q43 0 82 54t39 152q0 55 -19 80t-46 25h-170l-66 -311h180z" />
<glyph unicode="Q" horiz-adv-x="1509" d="M1499 852q0 -169 -77.5 -332.5t-211.5 -286.5l160 -233h-373l-43 63q-162 -73 -336 -73q-131 0 -239 50.5t-178 135t-108 193.5t-38 229q0 162 73 320.5t193 278t284 193.5t335 74q131 0 239 -51t177 -137t106 -195t37 -229zM698 344q24 0 60 4l-180 266h370l60 -86 q84 137 84 297q0 124 -58.5 204.5t-175.5 80.5q-74 0 -139 -29.5t-110.5 -78.5t-78.5 -111.5t-49 -129.5t-16 -132q0 -123 58 -204t175 -81z" />
<glyph unicode="R" horiz-adv-x="1337" d="M-6 0l309 1454h639q113 0 200 -61t130 -155.5t43 -203.5q0 -142 -79 -277t-210 -222l174 -535h-450l-142 446h-121l-94 -446h-399zM784 795q38 0 78.5 58.5t40.5 139.5q0 52 -18.5 82.5t-44.5 30.5h-211l-66 -311h221z" />
<glyph unicode="S" d="M811 895q82 -31 136 -59.5t101.5 -70t70 -98t22.5 -130.5q0 -100 -26.5 -184.5t-74 -144t-108.5 -104t-134 -71t-146.5 -39t-149.5 -12.5q-150 0 -305.5 46.5t-264.5 123.5l246 350q1 -3 22.5 -19.5t62 -40.5t89 -46t111.5 -38t121 -16q63 0 84.5 20.5t21.5 55.5 q0 21 -13.5 38t-42.5 31.5t-56.5 25t-75.5 26.5t-78 28q-138 55 -203 131t-65 191q0 107 36 200.5t98 161.5t143 117t172.5 73.5t185.5 24.5q225 0 489 -157l-242 -330q-2 7 -49.5 37.5t-130.5 63t-156 32.5q-47 0 -77.5 -22t-30.5 -64q0 -10 3 -19t10 -17.5t14.5 -15 t21 -13.5t24.5 -12.5t30.5 -13t33.5 -12.5t38.5 -13.5t41.5 -14.5z" />
<glyph unicode="T" horiz-adv-x="1228" d="M520 1106h-391l74 348h1179l-73 -348h-389l-236 -1106h-399z" />
<glyph unicode="U" horiz-adv-x="1460" d="M98 487q0 101 25 220l160 747h399l-160 -747q-16 -82 -16 -146q0 -101 40.5 -160t125.5 -59q59 0 110.5 30t88.5 82.5t63.5 116t42.5 136.5l160 747h399l-160 -747q-33 -155 -99 -284t-162 -227t-229.5 -153t-289.5 -55q-130 0 -227.5 37.5t-155.5 105.5t-86.5 157 t-28.5 199z" />
<glyph unicode="V" horiz-adv-x="1312" d="M156 1454h422l49 -952l450 952h420l-811 -1454h-332z" />
<glyph unicode="W" horiz-adv-x="2052" d="M141 1454h432l72 -997l146 303l-74 694h364l21 -448l211 448h366l-374 -694l22 -303l492 997h436l-848 -1454h-330l-80 520l-297 -520h-329z" />
<glyph unicode="X" horiz-adv-x="1292" d="M457 717l-299 737h432l137 -459l332 459h430l-612 -737l286 -717h-430l-125 438l-311 -438h-432z" />
<glyph unicode="Y" horiz-adv-x="1284" d="M406 485l-259 969h433l96 -629l371 629h434l-680 -973l-103 -481h-397z" />
<glyph unicode="Z" horiz-adv-x="1214" d="M-12 297l792 809h-590l74 348h1053l-64 -297l-753 -809h594l-74 -348h-1096z" />
<glyph unicode="[" horiz-adv-x="708" d="M-20 -82l339 1598h496l-65 -308h-138l-209 -983h138l-64 -307h-497z" />
<glyph unicode="\" horiz-adv-x="1357" d="M647 1454l537 -1454h-428l-539 1454h430z" />
<glyph unicode="]" horiz-adv-x="710" d="M-63 -82l65 307h139l209 983h-139l65 308h496l-338 -1598h-497z" />
<glyph unicode="^" horiz-adv-x="1290" d="M90 621l406 833h323l404 -833h-314l-252 518l-258 -518h-309z" />
<glyph unicode="_" horiz-adv-x="866" d="M-113 -348l74 348h682l-74 -348h-682z" />
<glyph unicode="`" horiz-adv-x="645" d="M305 1495h344l35 -291l-270 -28z" />
<glyph unicode="a" horiz-adv-x="1323" d="M14 414q0 182 80 340t214.5 251t287.5 93q97 0 168 -48t96 -132l33 151h391l-137 -639q-6 -30 -6 -49q0 -27 12.5 -39t42.5 -14l-70 -328q-103 -20 -165 -20q-96 0 -147.5 36.5t-51.5 120.5q0 21 2 31q-71 -94 -167.5 -141t-201.5 -47q-176 0 -278.5 119.5t-102.5 314.5z M758 418l41 192q-11 71 -51 115.5t-95 44.5q-87 0 -158 -89.5t-71 -203.5q0 -78 39 -124t108 -46q48 0 91 26.5t96 84.5z" />
<glyph unicode="b" horiz-adv-x="1284" d="M340 168l-35 -168h-338l318 1495h389l-123 -577q57 83 149 131.5t193 48.5q161 0 252.5 -119.5t91.5 -312.5q0 -140 -50.5 -268t-134.5 -219t-196 -145t-231 -54q-228 0 -285 188zM827 588q0 80 -35 131t-94 51q-54 0 -113.5 -45t-99.5 -115l-41 -192q29 -59 60.5 -85 t83.5 -26q98 0 168.5 82t70.5 199z" />
<glyph unicode="c" horiz-adv-x="1136" d="M12 432q0 125 50.5 245t139.5 213.5t222.5 150.5t288.5 57q182 0 293.5 -79t150.5 -214l-403 -115q-31 80 -113 80q-89 0 -156 -83.5t-67 -211.5q0 -78 34 -123t91 -45q78 0 145 80l354 -115q-97 -135 -241.5 -213.5t-325.5 -78.5q-114 0 -204 36t-145.5 98.5 t-84.5 143.5t-29 174z" />
<glyph unicode="d" horiz-adv-x="1320" d="M14 414q0 182 80 340t214.5 251t287.5 93q97 0 168 -48t96 -132l123 577h391l-227 -1065q-6 -30 -6 -49q0 -27 12.5 -39t42.5 -14l-70 -328q-103 -20 -165 -20q-201 0 -201 147q0 13 4 41q-71 -94 -167.5 -141t-201.5 -47q-176 0 -278.5 119.5t-102.5 314.5zM758 418 l41 192q-11 71 -51 115.5t-95 44.5q-87 0 -158 -89.5t-71 -203.5q0 -78 39 -124t108 -46q48 0 91 26.5t96 84.5z" />
<glyph unicode="e" horiz-adv-x="1159" d="M551 258q132 0 201 111l305 -99q-91 -130 -251 -210t-329 -80q-211 0 -337 124.5t-126 331.5q0 136 56 258.5t151 211t226.5 140.5t277.5 52q195 0 305.5 -83t110.5 -231q0 -181 -168 -273.5t-494 -92.5h-59v-2q0 -85 30.5 -121.5t100.5 -36.5zM655 821q-57 0 -107 -46 t-83 -124h12q158 0 220.5 19.5t62.5 70.5q0 35 -29.5 57.5t-75.5 22.5z" />
<glyph unicode="f" horiz-adv-x="806" d="M176 659h-125l64 293h125l24 117q43 202 174 324.5t303 122.5q129 0 277 -62l-127 -295q-71 29 -131 29q-84 0 -105 -105l-28 -131h221l-64 -293h-219l-233 -1095h-389z" />
<glyph unicode="g" horiz-adv-x="1282" d="M-133 -250l250 213q45 -59 115 -95t153 -36q69 0 128 25t106.5 87t66.5 154l14 70q-58 -82 -149 -125t-191 -43q-160 0 -252 116.5t-92 301.5q0 184 84 341t225 248t304 91q108 0 181 -46.5t101 -133.5l35 159h338l-209 -979q-54 -252 -258.5 -403.5t-490.5 -151.5 q-306 0 -459 207zM754 418l41 192q-10 73 -50.5 116.5t-95.5 43.5q-86 0 -156.5 -90t-70.5 -203q0 -76 39 -123t106 -47q48 0 92 27t95 84z" />
<glyph unicode="h" horiz-adv-x="1230" d="M285 1495h389l-123 -577q72 87 168.5 133.5t204.5 46.5q256 0 256 -238q0 -62 -19 -151l-149 -709h-389l129 606q6 30 6 56q0 49 -22.5 72.5t-61.5 23.5q-35 0 -93.5 -44.5t-95.5 -109.5l-129 -604h-389z" />
<glyph unicode="i" horiz-adv-x="585" d="M285 1495h389l-70 -328h-389zM197 1077h389l-230 -1077h-389z" />
<glyph unicode="j" horiz-adv-x="593" d="M293 1495h389l-70 -328h-389zM-408 -317l215 264q23 -41 78 -41q33 0 56 23t32 65l230 1083h391l-223 -1052q-43 -201 -183.5 -327t-322.5 -126q-171 0 -273 111z" />
<glyph unicode="k" horiz-adv-x="1191" d="M1151 834q0 -136 -70 -253t-196 -194l157 -387h-409l-152 440q148 26 235 86t87 138q0 40 -25 66t-63 26q-67 0 -140 -74t-116 -182l-107 -500h-385l318 1495h385l-144 -678q75 132 174.5 201t214.5 69q113 0 174.5 -66t61.5 -187z" />
<glyph unicode="l" horiz-adv-x="706" d="M10 199q0 51 10 92l256 1204h390l-228 -1067q-6 -24 -6 -45q0 -78 74 -78q46 0 106 31l-12 -287q-72 -32 -163 -50.5t-167 -18.5q-127 0 -193.5 56.5t-66.5 162.5z" />
<glyph unicode="m" horiz-adv-x="1849" d="M197 1077h350l-35 -159q69 86 176.5 133t226.5 47q225 0 244 -187q72 88 177.5 137.5t219.5 49.5q242 0 242 -238q0 -61 -18 -151l-152 -709h-389l129 606q6 34 6 60q0 45 -18.5 68.5t-46.5 23.5q-42 0 -98 -45t-91 -109l-127 -604h-389l129 606q6 35 6 60q0 45 -19 68.5 t-48 23.5q-42 0 -98 -45.5t-89 -108.5l-129 -604h-389z" />
<glyph unicode="n" horiz-adv-x="1230" d="M197 1077h350l-35 -159q72 88 180 134t240 46q246 0 246 -244q0 -54 -17 -145l-149 -709h-389l129 606q6 30 6 53q0 48 -22.5 73.5t-57.5 25.5q-41 0 -98.5 -44.5t-94.5 -109.5l-129 -604h-389z" />
<glyph unicode="o" d="M14 438q0 130 47.5 249t133.5 210.5t216.5 146t284.5 54.5q124 0 218 -35.5t150 -99t83 -144.5t27 -178q0 -130 -47.5 -249t-133.5 -211t-216.5 -146.5t-284.5 -54.5q-124 0 -218 35.5t-150 99.5t-83 145t-27 178zM768 598q0 82 -33 127t-94 45q-89 0 -155 -84.5 t-66 -206.5q0 -82 33 -127t94 -45q89 0 155 84.5t66 206.5z" />
<glyph unicode="p" horiz-adv-x="1282" d="M195 1077h337l-34 -162q150 183 366 183q168 0 269.5 -121.5t101.5 -312.5q0 -180 -80.5 -339t-212.5 -252t-278 -93q-109 0 -180.5 46.5t-94.5 133.5l-127 -596h-389zM827 600q0 78 -39 124t-108 46q-85 0 -184 -111l-41 -186q11 -72 50.5 -119t92.5 -47q87 0 158 89.5 t71 203.5z" />
<glyph unicode="q" horiz-adv-x="1282" d="M698 160q-60 -87 -150.5 -133.5t-201.5 -46.5q-152 0 -242 120t-90 310q0 141 50.5 269.5t134 219.5t195 145t229.5 54q211 0 286 -187l35 166h338l-321 -1515h-390zM754 418l41 192q-12 71 -52 115.5t-94 44.5q-88 0 -158.5 -89t-70.5 -202q0 -79 39.5 -125.5 t109.5 -46.5q91 0 185 111z" />
<glyph unicode="r" horiz-adv-x="835" d="M197 1077h356l-45 -205q78 107 171.5 166.5t184.5 59.5q37 0 45 -2l-73 -351q-241 0 -344 -106l-136 -639h-389z" />
<glyph unicode="s" horiz-adv-x="993" d="M-55 160l180 233q171 -141 315 -141q74 0 74 61q0 24 -26 44.5t-89 41.5q-180 60 -253.5 118.5t-73.5 150.5q0 118 68.5 217.5t185.5 157t254 57.5q123 0 215.5 -33.5t175.5 -122.5l-195 -233q-86 66 -142.5 93t-109.5 27q-34 0 -54.5 -17.5t-20.5 -47.5q0 -26 27 -44 t99 -40q179 -54 253.5 -117.5t74.5 -163.5q0 -188 -141.5 -304.5t-370.5 -116.5q-137 0 -257 47t-189 133z" />
<glyph unicode="t" horiz-adv-x="849" d="M92 197q0 50 10 94l105 493h-125l63 293h125l72 338h389l-72 -338h197l-61 -293h-199l-76 -356q-4 -28 -4 -37q0 -59 62 -59q44 0 137 35l4 -308q-208 -82 -367 -82q-119 0 -189.5 52.5t-70.5 167.5z" />
<glyph unicode="u" horiz-adv-x="1265" d="M18 233q0 53 17 136l151 708h387l-131 -620q-6 -30 -6 -56q0 -45 20.5 -69.5t57.5 -24.5q87 0 184 111l142 659h389l-137 -647q-7 -35 -7 -49q0 -27 13 -39t43 -14l-70 -328q-103 -20 -168 -20q-201 0 -201 149q0 4 5 39q-174 -188 -437 -188q-123 0 -187.5 64.5 t-64.5 188.5z" />
<glyph unicode="v" horiz-adv-x="1122" d="M88 1077h404v-772q119 218 187 375t150 397h349q-140 -510 -580 -1077h-401z" />
<glyph unicode="w" horiz-adv-x="1671" d="M70 1077h368l78 -723q18 39 54 116t53 116l-80 491h307l18 -315l154 315h287q-63 -150 -124.5 -263t-144.5 -228l15 -127q164 212 221 306t158 312h348q-219 -530 -723 -1077h-223l-41 410l-215 -410h-320z" />
<glyph unicode="x" horiz-adv-x="1095" d="M322 539l-224 538h394l77 -264l11 -43l26 43l199 264h389l-455 -538l236 -539h-395l-91 264l-8 41l-26 -41l-201 -264h-395z" />
<glyph unicode="y" horiz-adv-x="1112" d="M-115 -190q118 0 175.5 19.5t107.5 78.5l59 69l-141 1100h395l25 -747l69 114q160 265 230 633h373q-56 -201 -139 -372.5t-283 -493.5l-164 -264q-145 -234 -296 -330t-366 -96z" />
<glyph unicode="z" horiz-adv-x="966" d="M-37 229l572 582h-418l57 266h823l-49 -229l-571 -582h467l-58 -266h-872z" />
<glyph unicode="{" horiz-adv-x="737" d="M666 1208l-68 -315q-7 -35 -27.5 -66.5t-38 -48t-49.5 -41.5q54 -67 54 -119q0 -6 -5 -36l-71 -338h106l-65 -307h-410q-35 0 -35 40q0 13 2 21l97 451q4 24 4 34q0 48 -27.5 81.5t-62.5 41.5l55 266q42 0 92 49t62 105l90 428q7 33 25 47.5t34 14.5h410l-66 -308h-106z " />
<glyph unicode="|" horiz-adv-x="733" d="M213 -266v1853h328v-1853h-328z" />
<glyph unicode="}" horiz-adv-x="745" d="M227 1208l66 308h409q13 0 24 -10t11 -31q0 -13 -2 -21l-92 -428q-4 -20 -4 -31q0 -49 27.5 -86t64.5 -37l-57 -266q-48 -10 -94.5 -53.5t-59.5 -103.5l-94 -451q-7 -33 -25 -47t-34 -14h-410l66 307h106l72 338q7 34 28 66t38 48t48 41q-51 63 -51 117q0 25 4 39l68 315 h-109z" />
<glyph unicode="~" horiz-adv-x="1202" d="M406 766q70 0 139.5 -26t132 -52t115.5 -26q35 0 62 10t41 24t23.5 30t12 26t2.5 14h205q0 -13 -7.5 -39t-23 -63.5t-44 -75.5t-65 -71t-91 -54t-117.5 -21q-67 0 -136.5 25t-133.5 49.5t-118 24.5q-36 0 -62.5 -10t-39 -23t-20 -29.5t-8.5 -24.5t-1 -12h-206q0 24 10 60 t35.5 83t62 86.5t97.5 67t135 27.5z" />
<glyph unicode="&#xa1;" horiz-adv-x="677" d="M711 1454l-80 -377h-389l80 377h389zM582 840l-183 -854h-389l183 854h389z" />
<glyph unicode="&#xa2;" horiz-adv-x="1226" d="M367 -246l49 228q-165 13 -265 146t-100 308q0 111 39.5 216.5t113 195t189.5 155t258 91.5l49 227h162l-49 -227q134 -5 239 -78.5t146 -210.5l-403 -115q-4 23 -20.5 43t-31.5 25l-94 -441q43 20 80 70l354 -115q-47 -70 -116 -128t-139.5 -92.5t-135.5 -53t-114 -18.5 l-50 -226h-161zM489 336l86 403q-50 -32 -85 -113t-35 -163q0 -88 34 -127z" />
<glyph unicode="&#xa3;" horiz-adv-x="1159" d="M573 508q-46 -97 -167 -209q94 31 159 31q40 0 121.5 -15.5t122.5 -15.5q51 0 125 27l33 -287q-49 -31 -119 -50.5t-129 -19.5t-187 34t-196 34q-120 0 -297 -55l-19 274q66 39 125.5 106.5t94.5 145.5h-140l60 287h102q-2 16 -7.5 54t-8.5 59t-5.5 51t-2.5 55 q0 93 44.5 177t118.5 143.5t172 94.5t201 35q130 0 238.5 -57t171.5 -158l-246 -239q-37 60 -103 100.5t-128 40.5q-59 0 -95.5 -39t-36.5 -104q0 -26 5 -59t13.5 -79.5t12.5 -74.5h371l-62 -287h-342z" />
<glyph unicode="&#xa4;" horiz-adv-x="1200" d="M410 1038q92 45 211 45q111 0 204 -41l140 142l145 -146l-129 -129q61 -99 61 -217q0 -122 -63 -219l131 -131l-135 -135l-146 137q-85 -43 -208 -43t-215 45l-148 -139l-135 135l135 135q-59 95 -59 215q0 122 57 211l-133 135l145 146zM621 530q67 0 108 44t41 118 t-41 118t-108 44t-108.5 -44t-41.5 -118t41.5 -118t108.5 -44z" />
<glyph unicode="&#xa5;" horiz-adv-x="1468" d="M1182 885h121l-52 -246h-247l-111 -158l-14 -67h325l-51 -246h-328l-34 -168h-398l35 168h-324l54 246h323l15 71l-41 154h-248l51 246h125l-145 569h432l98 -629l369 629h434z" />
<glyph unicode="&#xa6;" horiz-adv-x="716" d="M532 1587v-786h-327v786h327zM532 520v-786h-327v786h327z" />
<glyph unicode="&#xa7;" horiz-adv-x="1095" d="M621 991q56 -3 107.5 -13t102 -32.5t87.5 -55.5t60 -84t23 -114q0 -30 -5.5 -60.5t-14.5 -56t-17.5 -44t-17.5 -36t-10 -20.5q14 -40 14 -115q0 -115 -40 -210t-102.5 -154.5t-141.5 -100.5t-153.5 -58t-143.5 -17q-79 0 -151.5 26t-122 65.5t-81.5 76t-47 67.5l299 238 q63 -105 164 -105q44 0 72 21.5t28 58.5q0 15 -9 24t-18.5 11.5t-25.5 3.5q-177 14 -264.5 100.5t-87.5 217.5q0 58 13 102t29 71t17 33q-22 63 -22 146q0 118 72 230.5t197.5 184.5t268.5 72q73 0 136 -22.5t103 -53t75.5 -76.5t52.5 -77.5t35 -71.5l-326 -139 q-17 45 -43.5 70.5t-79.5 25.5q-92 0 -92 -84q0 -18 10 -28.5t21 -13t29 -3.5zM596 567q27 24 27 62q0 27 -16 40t-36 13q-39 0 -47 8q-26 -22 -26 -61q0 -26 16.5 -38t46 -17t35.5 -7z" />
<glyph unicode="&#xa8;" horiz-adv-x="985" d="M240 1188l61 287h320l-62 -287h-319zM700 1188l62 287h317l-59 -287h-320z" />
<glyph unicode="&#xa9;" horiz-adv-x="1765" d="M117 727q0 156 59 293t162 234.5t248 153.5t311 56q227 0 410.5 -95.5t287 -264.5t103.5 -377q0 -157 -61 -294.5t-166.5 -235.5t-254.5 -154.5t-319 -56.5q-166 0 -311 56.5t-248 154.5t-162 235.5t-59 294.5zM1554 727q0 166 -85 305t-236 220t-336 81 q-178 0 -324.5 -81t-229.5 -220t-83 -305q0 -168 82.5 -308t229 -221t325.5 -81q183 0 333 76.5t237 217t87 316.5zM367 725q0 100 36.5 189.5t104.5 158.5t174 109.5t236 40.5q181 0 310 -79t195 -214l-379 -115q-49 80 -129 80q-64 0 -106.5 -45.5t-42.5 -124.5 t42.5 -124.5t106.5 -45.5q80 0 129 80l379 -115q-66 -135 -195 -214t-310 -79q-130 0 -236 40.5t-174 109.5t-104.5 158.5t-36.5 189.5z" />
<glyph unicode="&#xaa;" horiz-adv-x="888" d="M125 877q0 130 102.5 217.5t249.5 87.5q76 0 123 -29l4 23q4 28 4 36q0 36 -20.5 53t-67.5 17q-56 0 -108 -20t-117 -62l-41 168q151 96 330 96q140 0 213 -58t73 -171q0 -37 -10 -92l-31 -146q-4 -24 -4 -28q0 -22 12.5 -31.5t39.5 -11.5l-50 -230q-66 -14 -125 -14 q-70 0 -101.5 25.5t-31.5 78.5v29q-118 -133 -252 -133q-87 0 -139.5 54.5t-52.5 140.5zM557 958l12 56q-33 20 -75 20q-43 0 -77 -29.5t-34 -70.5q0 -25 15 -41t40 -16q31 0 71.5 26t47.5 55z" />
<glyph unicode="&#xab;" horiz-adv-x="1419" d="M61 610l629 406l-65 -311l-277 -175l205 -157l-66 -312l-464 369zM764 610l631 406l-68 -311l-274 -175l204 -157l-65 -312l-465 369z" />
<glyph unicode="&#xac;" horiz-adv-x="1259" d="M1196 883l-149 -701h-328l76 353h-717l74 348h1044z" />
<glyph unicode="&#xad;" horiz-adv-x="1247" d="M53 391l74 348h1044l-73 -348h-1045z" />
<glyph unicode="&#xae;" horiz-adv-x="1765" d="M117 727q0 156 59 293t162 234.5t249 153.5t314 56t316 -56t253.5 -153.5t166.5 -234.5t61 -293q0 -157 -61 -294.5t-166.5 -235.5t-253.5 -154.5t-316 -56.5q-224 0 -403.5 96.5t-280 265.5t-100.5 379zM1546 721q0 169 -82.5 309t-230.5 221.5t-330 81.5 q-137 0 -256 -47.5t-202 -129.5t-130 -193.5t-47 -237.5t47 -238t130 -194t202 -130t256 -48q179 0 326 78.5t232 217.5t85 310zM553 1171h408q124 0 210 -94.5t86 -212.5q0 -72 -35 -139t-92 -109l197 -321h-301l-166 268h-37v-268h-270v876zM932 793q59 0 59 71 q0 72 -63 72h-105v-143h109z" />
<glyph unicode="&#xaf;" horiz-adv-x="811" d="M252 1243l49 232h606l-49 -232h-606z" />
<glyph unicode="&#xb0;" horiz-adv-x="602" d="M186 1182q0 119 85.5 210t209.5 91q88 0 140.5 -53.5t52.5 -137.5q0 -127 -86 -212t-211 -85q-89 0 -140 51t-51 136zM489 1253q0 26 -13.5 38t-33.5 12q-28 0 -51.5 -22.5t-23.5 -51.5q0 -23 12.5 -39t36.5 -16q27 0 50 24.5t23 54.5z" />
<glyph unicode="&#xb1;" horiz-adv-x="1110" d="M924 946v-307h-215v-236h-349v236h-215v307h215v236h349v-236h215zM143 2v307h779v-307h-779z" />
<glyph unicode="&#xb2;" horiz-adv-x="874" d="M82 770q39 167 107 252.5t233 161.5q23 10 65.5 28t68 29t58.5 29.5t51.5 35.5t32 40.5t13.5 50.5q0 40 -30 63t-77 23q-121 0 -246 -109l-98 164q59 62 174.5 102.5t237.5 40.5q140 0 215.5 -60.5t75.5 -168.5q0 -65 -22 -121.5t-53.5 -93t-75.5 -67t-78 -46t-72 -28.5 q-98 -34 -127 -55q-31 -22 -37 -52h366l-51 -219h-731z" />
<glyph unicode="&#xb3;" horiz-adv-x="833" d="M109 901l143 152q42 -42 84.5 -62t107.5 -20q152 0 152 100q0 38 -35.5 54t-130.5 16h-47l43 196h45q74 0 113.5 10.5t52 27.5t12.5 48q0 35 -25.5 48.5t-56.5 13.5q-117 0 -223 -86l-90 168q61 54 170.5 84t210.5 30q131 0 204.5 -58.5t73.5 -154.5q0 -82 -51.5 -140.5 t-134.5 -76.5q53 -10 82 -62t29 -124q0 -81 -36 -142.5t-97.5 -97t-135.5 -52.5t-157 -17q-115 0 -198 36.5t-105 108.5z" />
<glyph unicode="&#xb4;" horiz-adv-x="645" d="M506 1180l-262 24l157 291h344z" />
<glyph unicode="&#xb5;" horiz-adv-x="1368" d="M221 1077h389l-131 -620q-8 -40 -8 -58q0 -92 86 -92q81 0 178 111l139 659h390l-138 -647q-6 -24 -6 -43q0 -30 18 -43.5t60 -15.5l-70 -328q-117 -20 -188 -20q-197 0 -197 149v39q-28 -54 -117 -121t-163 -67q-45 0 -69.5 19t-24.5 54l-80 -489h-389z" />
<glyph unicode="&#xb6;" horiz-adv-x="1398" d="M807 1454h680l-62 -287h-137l-282 -1331h-328l117 549h-54l-116 -549h-328l117 549q-135 0 -213 106.5t-78 280.5q0 313 184 497.5t500 184.5zM475 672l107 495q-27 -7 -58.5 -62t-54.5 -142t-23 -170q0 -48 8 -82.5t21 -38.5zM963 1167h-56l-104 -495h53z" />
<glyph unicode="&#xb7;" horiz-adv-x="520" d="M74 487l80 377h315l-80 -377h-315z" />
<glyph unicode="&#xb8;" horiz-adv-x="659" d="M117 -451q-108 0 -209 70l133 199q23 -39 65 -39q33 0 58.5 27t25.5 71q0 61 -32 123l135 74q106 -127 106 -248q0 -110 -75.5 -193.5t-206.5 -83.5z" />
<glyph unicode="&#xb9;" horiz-adv-x="638" d="M674 993l-47 -219h-500l47 219h148l96 453q-32 -34 -98 -71.5t-107 -37.5l47 224q36 0 87.5 30t84.5 57.5t35 32.5h225l-147 -688h129z" />
<glyph unicode="&#xba;" horiz-adv-x="868" d="M145 991q0 90 32.5 174.5t91 151t148 107t195.5 40.5q148 0 224.5 -86.5t76.5 -220.5q0 -90 -32.5 -175t-90.5 -152t-148 -107.5t-196 -40.5q-147 0 -224 87.5t-77 221.5zM639 1122q0 53 -20 83t-56 30q-59 0 -101 -61t-42 -150q0 -52 20.5 -82.5t55.5 -30.5q59 0 101 61 t42 150z" />
<glyph unicode="&#xbb;" horiz-adv-x="1419" d="M614 430l-622 -369l65 312l273 157l-201 175l66 311l456 -406zM1317 430l-621 -369l66 312l272 157l-203 175l68 311l457 -406z" />
<glyph unicode="&#xbc;" horiz-adv-x="1906" d="M637 809l-47 -219h-500l47 219h148l96 453q-32 -34 -98 -71.5t-107 -37.5l47 223q36 0 87.5 30t84.5 58t35 33h225l-147 -688h129zM182 133l690 653l631 691l137 -154l-661 -633l-660 -710zM1346 2l45 191h-359l47 198l566 512h170l-125 -534h94l-39 -176h-94l-45 -191 h-260zM1272 369h166l53 229z" />
<glyph unicode="&#xbd;" horiz-adv-x="1986" d="M637 809l-47 -219h-500l47 219h148l96 453q-32 -34 -98 -71.5t-107 -37.5l47 223q36 0 87.5 30t84.5 58t35 33h225l-147 -688h129zM182 133l690 653l631 691l137 -154l-661 -633l-660 -710zM1071 -2q26 114 60 183t96.5 124t171.5 107q22 10 63 28t65.5 29t56.5 29.5 t49.5 35.5t30.5 40.5t13 50.5q0 40 -28.5 63t-73.5 23q-117 0 -238 -109l-94 164q58 62 169 102.5t228 40.5q134 0 207.5 -60.5t73.5 -168.5q0 -65 -21.5 -121.5t-51.5 -93t-73 -67t-76 -46t-69 -28.5q-40 -14 -57 -21t-43.5 -20.5t-39.5 -29.5t-17 -36h352l-49 -219h-705z " />
<glyph unicode="&#xbe;" horiz-adv-x="2099" d="M78 717l143 151q42 -42 85 -62t108 -20q151 0 151 101q0 38 -35 53.5t-131 15.5h-47l43 197h45q74 0 113.5 10.5t52 27.5t12.5 48q0 61 -81 61q-118 0 -224 -86l-90 168q61 54 171 84.5t210 30.5q131 0 205 -58.5t74 -154.5q0 -82 -52 -140.5t-135 -76.5q53 -10 82 -62 t29 -124q0 -65 -24 -118t-64.5 -88.5t-95.5 -59t-115.5 -34t-126.5 -10.5q-115 0 -198 37t-105 109zM375 133l690 653l631 691l137 -154l-662 -633l-659 -710zM1538 2l45 191h-358l47 198l565 512h170l-125 -534h94l-39 -176h-94l-45 -191h-260zM1464 369h166l53 229z" />
<glyph unicode="&#xbf;" horiz-adv-x="974" d="M881 1036l-72 -336h-317l71 336h318zM774 506q-11 -52 -22.5 -86.5t-34.5 -76t-62.5 -75.5t-97.5 -63q-161 -78 -224 -130.5t-63 -113.5q0 -38 24.5 -61t61.5 -23q31 0 60.5 16t44.5 31t39 45l28 35l211 -176q-75 -124 -199 -194t-266 -70q-68 0 -129 18t-112 55.5 t-81 102.5t-30 151q0 154 59.5 248.5t170.5 163.5q44 28 127 65t126.5 67.5t51.5 70.5h317z" />
<glyph unicode="&#xc0;" horiz-adv-x="1302" d="M592 1872h344l35 -291l-271 -29zM655 1454h367l162 -1454h-406l-14 285h-348l-133 -285h-408zM758 551l-17 450l-211 -450h228z" />
<glyph unicode="&#xc1;" horiz-adv-x="1302" d="M993 1565l-262 24l158 291h344zM655 1454h367l162 -1454h-406l-14 285h-348l-133 -285h-408zM758 551l-17 450l-211 -450h228z" />
<glyph unicode="&#xc2;" horiz-adv-x="1302" d="M518 1636l273 236h278l172 -236l-215 -86l-137 129l-193 -129zM655 1454h367l162 -1454h-406l-14 285h-348l-133 -285h-408zM758 551l-17 450l-211 -450h228z" />
<glyph unicode="&#xc3;" horiz-adv-x="1302" d="M754 1647q-25 0 -45 -10t-31.5 -23.5t-19.5 -29t-10.5 -24.5t-2.5 -12h-207q5 24 22 61.5t49 83.5t71 85.5t93.5 66.5t110.5 27q43 0 79.5 -16.5t57 -36t48.5 -36t57 -16.5t53 14.5t38 37t19.5 33.5t8.5 20h205q-3 -13 -16 -40.5t-35 -64.5t-54.5 -75t-69.5 -70.5 t-84.5 -53t-95.5 -20.5q-40 0 -75.5 15.5t-57 34t-50.5 34t-58 15.5zM655 1454h367l162 -1454h-406l-14 285h-348l-133 -285h-408zM758 551l-17 450l-211 -450h228z" />
<glyph unicode="&#xc4;" horiz-adv-x="1302" d="M473 1565l62 286h319l-61 -286h-320zM934 1565l61 286h318l-60 -286h-319zM655 1454h367l162 -1454h-406l-14 285h-348l-133 -285h-408zM758 551l-17 450l-211 -450h228z" />
<glyph unicode="&#xc5;" horiz-adv-x="1302" d="M930 1872q95 0 147.5 -36.5t52.5 -106.5q0 -102 -75 -157.5t-201 -55.5q-95 0 -149 37t-54 106q0 102 76 157.5t203 55.5zM813 1683q0 -26 17.5 -41.5t46.5 -15.5q37 0 65.5 23.5t28.5 56.5q0 25 -18.5 40t-47.5 15q-39 0 -65.5 -22.5t-26.5 -55.5zM655 1454h367 l162 -1454h-406l-14 285h-348l-133 -285h-408zM758 551l-17 450l-211 -450h228z" />
<glyph unicode="&#xc6;" horiz-adv-x="1914" d="M979 1454h1034l-76 -348h-530l-41 -193h426l-74 -348h-426l-45 -217h547l-74 -348h-946l62 285h-383l-195 -285h-422zM879 633l79 381l-264 -381h185z" />
<glyph unicode="&#xc7;" horiz-adv-x="1359" d="M696 342q84 0 167 43.5t132 134.5l285 -194q-84 -142 -257 -232t-353 -104q45 -78 45 -164q0 -70 -31 -132t-97 -103.5t-155 -41.5q-108 0 -209 70l133 199q11 -19 30 -29t36 -10q33 0 58.5 27t25.5 71q0 59 -33 123l6 4q-131 32 -228.5 124.5t-145.5 217t-48 264.5 q0 120 42.5 243t122.5 231.5t186.5 193.5t244.5 134.5t285 49.5q196 0 329 -86t175 -231l-350 -217q-7 50 -31 87t-58.5 56.5t-71 28t-77.5 8.5q-73 0 -137 -29.5t-109 -78t-78 -110t-49 -126.5t-16 -127q0 -127 59.5 -211t171.5 -84z" />
<glyph unicode="&#xc8;" horiz-adv-x="1177" d="M537 1872h344l34 -291l-270 -29zM303 1454h971l-74 -348h-571l-43 -205h487l-69 -323h-488l-49 -230h590l-74 -348h-989z" />
<glyph unicode="&#xc9;" horiz-adv-x="1177" d="M938 1565l-262 24l158 291h344zM303 1454h971l-74 -348h-571l-43 -205h487l-69 -323h-488l-49 -230h590l-74 -348h-989z" />
<glyph unicode="&#xca;" horiz-adv-x="1177" d="M463 1636l272 236h279l172 -236l-215 -86l-137 129l-193 -129zM303 1454h971l-74 -348h-571l-43 -205h487l-69 -323h-488l-49 -230h590l-74 -348h-989z" />
<glyph unicode="&#xcb;" horiz-adv-x="1177" d="M418 1565l61 286h320l-62 -286h-319zM879 1565l61 286h317l-59 -286h-319zM303 1454h971l-74 -348h-571l-43 -205h487l-69 -323h-488l-49 -230h590l-74 -348h-989z" />
<glyph unicode="&#xcc;" horiz-adv-x="649" d="M272 1872h344l35 -291l-270 -29zM303 1454h399l-309 -1454h-399z" />
<glyph unicode="&#xcd;" horiz-adv-x="649" d="M674 1565l-262 24l157 291h344zM303 1454h399l-309 -1454h-399z" />
<glyph unicode="&#xce;" horiz-adv-x="649" d="M199 1636l272 236h279l172 -236l-215 -86l-138 129l-192 -129zM303 1454h399l-309 -1454h-399z" />
<glyph unicode="&#xcf;" horiz-adv-x="649" d="M154 1565l61 286h320l-62 -286h-319zM614 1565l62 286h317l-59 -286h-320zM303 1454h399l-309 -1454h-399z" />
<glyph unicode="&#xd0;" horiz-adv-x="1425" d="M846 1454q141 0 250.5 -43.5t177 -121.5t102.5 -179.5t35 -222.5q0 -189 -67 -354t-183 -282t-278 -184t-346 -67h-537l125 588h-68l60 286h69l123 580h537zM610 348q111 0 201 67t139 176.5t49 237.5q0 127 -59.5 202t-167.5 75h-137l-49 -232h213l-62 -286h-213 l-51 -240h137z" />
<glyph unicode="&#xd1;" horiz-adv-x="1484" d="M813 1642q-25 0 -45 -10t-31 -23.5t-19 -28.5t-10.5 -24t-2.5 -12h-207q5 24 22 61.5t49 83.5t71 85.5t93.5 66.5t110.5 27q43 0 79.5 -16.5t56.5 -36t48 -36t57 -16.5t53 14.5t38 37t19.5 33.5t8.5 20h205q-4 -17 -21 -52t-50 -82.5t-73 -89t-96.5 -71t-113.5 -29.5 q-40 0 -75.5 15.5t-57 33.5t-51 33.5t-58.5 15.5zM303 1454h311l369 -739l156 739h399l-309 -1454h-316l-368 715l-152 -715h-399z" />
<glyph unicode="&#xd2;" horiz-adv-x="1511" d="M690 1868h344l35 -291l-270 -29zM57 598q0 162 73 320t192.5 277.5t283.5 193t336 73.5q131 0 239 -51t177 -136.5t106 -194t37 -228.5q0 -161 -72 -318.5t-190.5 -277.5t-282 -194t-335.5 -74q-132 0 -240.5 50.5t-178 136t-107.5 194.5t-38 229zM1094 825 q0 123 -58 203t-176 80q-75 0 -140 -29.5t-110.5 -78t-78.5 -111t-48.5 -129t-15.5 -131.5q0 -125 57 -206t174 -81q76 0 141.5 30t111.5 79.5t79 112.5t48.5 129.5t15.5 131.5z" />
<glyph unicode="&#xd3;" horiz-adv-x="1511" d="M1092 1561l-263 24l158 291h344zM57 598q0 162 73 320t192.5 277.5t283.5 193t336 73.5q131 0 239 -51t177 -136.5t106 -194t37 -228.5q0 -161 -72 -318.5t-190.5 -277.5t-282 -194t-335.5 -74q-132 0 -240.5 50.5t-178 136t-107.5 194.5t-38 229zM1094 825 q0 123 -58 203t-176 80q-75 0 -140 -29.5t-110.5 -78t-78.5 -111t-48.5 -129t-15.5 -131.5q0 -125 57 -206t174 -81q76 0 141.5 30t111.5 79.5t79 112.5t48.5 129.5t15.5 131.5z" />
<glyph unicode="&#xd4;" horiz-adv-x="1511" d="M616 1632l273 236h278l172 -236l-215 -86l-137 129l-192 -129zM57 598q0 162 73 320t192.5 277.5t283.5 193t336 73.5q131 0 239 -51t177 -136.5t106 -194t37 -228.5q0 -161 -72 -318.5t-190.5 -277.5t-282 -194t-335.5 -74q-132 0 -240.5 50.5t-178 136t-107.5 194.5 t-38 229zM1094 825q0 123 -58 203t-176 80q-75 0 -140 -29.5t-110.5 -78t-78.5 -111t-48.5 -129t-15.5 -131.5q0 -125 57 -206t174 -81q76 0 141.5 30t111.5 79.5t79 112.5t48.5 129.5t15.5 131.5z" />
<glyph unicode="&#xd5;" horiz-adv-x="1511" d="M852 1642q-25 0 -45 -10t-31.5 -23.5t-19.5 -28.5t-10.5 -24t-2.5 -12h-206q5 24 22 61.5t49 83.5t71 85.5t93.5 66.5t110.5 27q43 0 79.5 -16.5t56.5 -36t48 -36t57 -16.5t53 14.5t38 37t19.5 33.5t8.5 20h205q-4 -17 -21 -52t-50 -82.5t-73 -89t-96.5 -71t-113.5 -29.5 q-40 0 -75.5 15.5t-57 33.5t-51 33.5t-58.5 15.5zM57 598q0 162 73 320t192.5 277.5t283.5 193t336 73.5q131 0 239 -51t177 -136.5t106 -194t37 -228.5q0 -161 -72 -318.5t-190.5 -277.5t-282 -194t-335.5 -74q-132 0 -240.5 50.5t-178 136t-107.5 194.5t-38 229zM1094 825 q0 123 -58 203t-176 80q-75 0 -140 -29.5t-110.5 -78t-78.5 -111t-48.5 -129t-15.5 -131.5q0 -125 57 -206t174 -81q76 0 141.5 30t111.5 79.5t79 112.5t48.5 129.5t15.5 131.5z" />
<glyph unicode="&#xd6;" horiz-adv-x="1511" d="M571 1561l62 286h319l-61 -286h-320zM1032 1561l62 286h317l-59 -286h-320zM57 598q0 162 73 320t192.5 277.5t283.5 193t336 73.5q131 0 239 -51t177 -136.5t106 -194t37 -228.5q0 -161 -72 -318.5t-190.5 -277.5t-282 -194t-335.5 -74q-132 0 -240.5 50.5t-178 136 t-107.5 194.5t-38 229zM1094 825q0 123 -58 203t-176 80q-75 0 -140 -29.5t-110.5 -78t-78.5 -111t-48.5 -129t-15.5 -131.5q0 -125 57 -206t174 -81q76 0 141.5 30t111.5 79.5t79 112.5t48.5 129.5t15.5 131.5z" />
<glyph unicode="&#xd7;" horiz-adv-x="1036" d="M922 391l-244 -241l-178 178l-178 -178l-240 241l176 176l-164 166l244 242l164 -164l164 164l239 -242l-164 -164z" />
<glyph unicode="&#xd8;" horiz-adv-x="1511" d="M1653 1454l-238 -262q86 -151 86 -340q0 -161 -72 -318.5t-190.5 -277.5t-282 -194t-335.5 -74q-135 0 -248 55l-39 -43h-428l237 260q-86 151 -86 338q0 162 73 320t192.5 277.5t283.5 193t336 73.5q133 0 244 -51l39 43h428zM467 629v-11l440 486q-28 4 -47 4 q-75 0 -140 -29.5t-110.5 -78t-78.5 -111t-48.5 -129t-15.5 -131.5zM1094 825v13l-447 -492q32 -4 51 -4q76 0 141.5 30t111.5 79.5t79 112.5t48.5 129.5t15.5 131.5z" />
<glyph unicode="&#xd9;" horiz-adv-x="1460" d="M657 1868h344l35 -291l-270 -29zM98 487q0 101 25 220l160 747h399l-160 -747q-16 -82 -16 -146q0 -101 40.5 -160t125.5 -59q59 0 110.5 30t88.5 82.5t63.5 116t42.5 136.5l160 747h399l-160 -747q-33 -155 -99 -284t-162 -227t-229.5 -153t-289.5 -55 q-130 0 -227.5 37.5t-155.5 105.5t-86.5 157t-28.5 199z" />
<glyph unicode="&#xda;" horiz-adv-x="1460" d="M1059 1561l-262 24l157 291h344zM98 487q0 101 25 220l160 747h399l-160 -747q-16 -82 -16 -146q0 -101 40.5 -160t125.5 -59q59 0 110.5 30t88.5 82.5t63.5 116t42.5 136.5l160 747h399l-160 -747q-33 -155 -99 -284t-162 -227t-229.5 -153t-289.5 -55 q-130 0 -227.5 37.5t-155.5 105.5t-86.5 157t-28.5 199z" />
<glyph unicode="&#xdb;" horiz-adv-x="1460" d="M584 1632l272 236h279l172 -236l-215 -86l-138 129l-192 -129zM98 487q0 101 25 220l160 747h399l-160 -747q-16 -82 -16 -146q0 -101 40.5 -160t125.5 -59q59 0 110.5 30t88.5 82.5t63.5 116t42.5 136.5l160 747h399l-160 -747q-33 -155 -99 -284t-162 -227t-229.5 -153 t-289.5 -55q-130 0 -227.5 37.5t-155.5 105.5t-86.5 157t-28.5 199z" />
<glyph unicode="&#xdc;" horiz-adv-x="1460" d="M539 1561l61 286h320l-62 -286h-319zM999 1561l62 286h317l-59 -286h-320zM98 487q0 101 25 220l160 747h399l-160 -747q-16 -82 -16 -146q0 -101 40.5 -160t125.5 -59q59 0 110.5 30t88.5 82.5t63.5 116t42.5 136.5l160 747h399l-160 -747q-33 -155 -99 -284t-162 -227 t-229.5 -153t-289.5 -55q-130 0 -227.5 37.5t-155.5 105.5t-86.5 157t-28.5 199z" />
<glyph unicode="&#xdd;" horiz-adv-x="1284" d="M948 1561l-262 24l158 291h344zM406 485l-259 969h433l96 -629l371 629h434l-680 -973l-103 -481h-397z" />
<glyph unicode="&#xde;" horiz-adv-x="1198" d="M303 1454h399l-51 -242h168q114 0 201 -60.5t130.5 -154.5t43.5 -202q0 -85 -29.5 -171t-83.5 -160t-125 -132t-159.5 -91.5t-180.5 -33.5h-180l-43 -207h-399zM670 555q40 0 80.5 59.5t40.5 139.5q0 51 -19.5 80.5t-46.5 29.5h-147l-66 -309h158z" />
<glyph unicode="&#xdf;" horiz-adv-x="1118" d="M449 344q76 0 133 46t57 122q0 52 -32.5 80.5t-61.5 28.5h-45l73 348h41q25 0 43 10.5t26 27t11.5 31.5t3.5 31q0 30 -16 48t-41 18q-36 0 -57 -30.5t-33 -92.5l-215 -1012h-369l230 1083q35 162 195 270.5t360 108.5q153 0 244 -74t91 -204q0 -114 -63.5 -217.5 t-140.5 -141.5q77 -36 120.5 -113.5t43.5 -183.5q0 -89 -22 -164t-60 -129.5t-91 -97.5t-112.5 -70.5t-127 -45.5t-131.5 -25.5t-130 -7.5z" />
<glyph unicode="&#xe0;" horiz-adv-x="1323" d="M528 1495h344l35 -291l-270 -28zM14 414q0 182 80 340t214.5 251t287.5 93q97 0 168 -48t96 -132l33 151h391l-137 -639q-6 -30 -6 -49q0 -27 12.5 -39t42.5 -14l-70 -328q-103 -20 -165 -20q-96 0 -147.5 36.5t-51.5 120.5q0 21 2 31q-71 -94 -167.5 -141t-201.5 -47 q-176 0 -278.5 119.5t-102.5 314.5zM758 418l41 192q-11 71 -51 115.5t-95 44.5q-87 0 -158 -89.5t-71 -203.5q0 -78 39 -124t108 -46q48 0 91 26.5t96 84.5z" />
<glyph unicode="&#xe1;" horiz-adv-x="1323" d="M930 1188l-262 24l157 291h344zM14 414q0 182 80 340t214.5 251t287.5 93q97 0 168 -48t96 -132l33 151h391l-137 -639q-6 -30 -6 -49q0 -27 12.5 -39t42.5 -14l-70 -328q-103 -20 -165 -20q-96 0 -147.5 36.5t-51.5 120.5q0 21 2 31q-71 -94 -167.5 -141t-201.5 -47 q-176 0 -278.5 119.5t-102.5 314.5zM758 418l41 192q-11 71 -51 115.5t-95 44.5q-87 0 -158 -89.5t-71 -203.5q0 -78 39 -124t108 -46q48 0 91 26.5t96 84.5z" />
<glyph unicode="&#xe2;" horiz-adv-x="1323" d="M455 1260l272 235h279l172 -235l-215 -86l-138 129l-192 -129zM14 414q0 182 80 340t214.5 251t287.5 93q97 0 168 -48t96 -132l33 151h391l-137 -639q-6 -30 -6 -49q0 -27 12.5 -39t42.5 -14l-70 -328q-103 -20 -165 -20q-96 0 -147.5 36.5t-51.5 120.5q0 21 2 31 q-71 -94 -167.5 -141t-201.5 -47q-176 0 -278.5 119.5t-102.5 314.5zM758 418l41 192q-11 71 -51 115.5t-95 44.5q-87 0 -158 -89.5t-71 -203.5q0 -78 39 -124t108 -46q48 0 91 26.5t96 84.5z" />
<glyph unicode="&#xe3;" horiz-adv-x="1323" d="M690 1270q-25 0 -45 -10t-31 -23.5t-19 -29t-10.5 -24.5t-2.5 -12h-207q5 24 22 61.5t49 83.5t71 85.5t93.5 66.5t110.5 27q43 0 79.5 -16.5t57 -35.5t48.5 -35.5t57 -16.5t53 14.5t37.5 36.5t19 33t8.5 20h205q-4 -17 -21 -52t-50 -82.5t-73 -89t-96.5 -71t-113.5 -29.5 q-40 0 -75.5 15.5t-57 34t-51 34t-58.5 15.5zM14 414q0 182 80 340t214.5 251t287.5 93q97 0 168 -48t96 -132l33 151h391l-137 -639q-6 -30 -6 -49q0 -27 12.5 -39t42.5 -14l-70 -328q-103 -20 -165 -20q-96 0 -147.5 36.5t-51.5 120.5q0 21 2 31q-71 -94 -167.5 -141 t-201.5 -47q-176 0 -278.5 119.5t-102.5 314.5zM758 418l41 192q-11 71 -51 115.5t-95 44.5q-87 0 -158 -89.5t-71 -203.5q0 -78 39 -124t108 -46q48 0 91 26.5t96 84.5z" />
<glyph unicode="&#xe4;" horiz-adv-x="1323" d="M410 1188l61 287h320l-62 -287h-319zM870 1188l62 287h317l-59 -287h-320zM14 414q0 182 80 340t214.5 251t287.5 93q97 0 168 -48t96 -132l33 151h391l-137 -639q-6 -30 -6 -49q0 -27 12.5 -39t42.5 -14l-70 -328q-103 -20 -165 -20q-96 0 -147.5 36.5t-51.5 120.5 q0 21 2 31q-71 -94 -167.5 -141t-201.5 -47q-176 0 -278.5 119.5t-102.5 314.5zM758 418l41 192q-11 71 -51 115.5t-95 44.5q-87 0 -158 -89.5t-71 -203.5q0 -78 39 -124t108 -46q48 0 91 26.5t96 84.5z" />
<glyph unicode="&#xe5;" horiz-adv-x="1323" d="M866 1495q95 0 148 -36.5t53 -106.5q0 -102 -75 -157.5t-201 -55.5q-95 0 -149 37t-54 106q0 102 75.5 157.5t202.5 55.5zM750 1307q0 -26 17 -42t46 -16q37 0 65.5 23.5t28.5 56.5q0 25 -18 40t-47 15q-39 0 -65.5 -22t-26.5 -55zM14 414q0 182 80 340t214.5 251 t287.5 93q97 0 168 -48t96 -132l33 151h391l-137 -639q-6 -30 -6 -49q0 -27 12.5 -39t42.5 -14l-70 -328q-103 -20 -165 -20q-96 0 -147.5 36.5t-51.5 120.5q0 21 2 31q-71 -94 -167.5 -141t-201.5 -47q-176 0 -278.5 119.5t-102.5 314.5zM758 418l41 192q-11 71 -51 115.5 t-95 44.5q-87 0 -158 -89.5t-71 -203.5q0 -78 39 -124t108 -46q48 0 91 26.5t96 84.5z" />
<glyph unicode="&#xe6;" horiz-adv-x="1847" d="M-29 266q0 180 155 304t376 124q124 0 192 -41q11 74 11 82q0 51 -35 76t-109 25q-83 0 -163 -28.5t-177 -88.5l-61 242q232 137 495 137q225 0 340 -103q163 103 359 103q114 0 203.5 -35.5t145 -97.5t84 -142t28.5 -172q0 -111 -52 -231h-702q-4 -24 -4 -39 q0 -61 38 -92t95 -31t113 30t81 79l310 -95q-94 -134 -244.5 -213t-333.5 -79q-152 0 -256 55.5t-155 152.5q-93 -103 -213.5 -155.5t-225.5 -52.5q-133 0 -214 79.5t-81 206.5zM1405 653q0 5 1 14t1 19q0 62 -31.5 98.5t-87.5 36.5q-63 0 -112 -45t-74 -123h303zM645 326 q-2 10 -2 32q0 19 8 97q-65 28 -129 28q-67 0 -119.5 -41.5t-52.5 -99.5q0 -38 25.5 -61t73.5 -23q46 0 100.5 19.5t95.5 48.5z" />
<glyph unicode="&#xe7;" horiz-adv-x="1136" d="M543 307q78 0 145 80l354 -115q-79 -112 -194.5 -186.5t-257.5 -97.5q45 -75 45 -162q0 -70 -31 -132t-97 -103.5t-155 -41.5q-108 0 -209 70l133 199q11 -19 30 -29t36 -10q33 0 58.5 27t25.5 71q0 52 -25 107q-128 15 -217.5 80.5t-130.5 159t-41 208.5q0 125 50.5 245 t139.5 213.5t222.5 150.5t288.5 57q182 0 293.5 -79t150.5 -214l-403 -115q-31 80 -113 80q-89 0 -156 -83.5t-67 -211.5q0 -78 34 -123t91 -45z" />
<glyph unicode="&#xe8;" horiz-adv-x="1159" d="M838 1196l-271 -29l-108 320h344zM551 258q132 0 201 111l305 -99q-91 -130 -251 -210t-329 -80q-211 0 -337 124.5t-126 331.5q0 136 56 258.5t151 211t226.5 140.5t277.5 52q195 0 305.5 -83t110.5 -231q0 -181 -168 -273.5t-494 -92.5h-59v-2q0 -85 30.5 -121.5 t100.5 -36.5zM655 821q-57 0 -107 -46t-83 -124h12q158 0 220.5 19.5t62.5 70.5q0 35 -29.5 57.5t-75.5 22.5z" />
<glyph unicode="&#xe9;" horiz-adv-x="1159" d="M1100 1495l-240 -315l-262 24l158 291h344zM551 258q132 0 201 111l305 -99q-91 -130 -251 -210t-329 -80q-211 0 -337 124.5t-126 331.5q0 136 56 258.5t151 211t226.5 140.5t277.5 52q195 0 305.5 -83t110.5 -231q0 -181 -168 -273.5t-494 -92.5h-59v-2 q0 -85 30.5 -121.5t100.5 -36.5zM655 821q-57 0 -107 -46t-83 -124h12q158 0 220.5 19.5t62.5 70.5q0 35 -29.5 57.5t-75.5 22.5z" />
<glyph unicode="&#xea;" horiz-adv-x="1159" d="M756 1294l-193 -129l-178 86l272 236h279l172 -236l-215 -86zM551 258q132 0 201 111l305 -99q-91 -130 -251 -210t-329 -80q-211 0 -337 124.5t-126 331.5q0 136 56 258.5t151 211t226.5 140.5t277.5 52q195 0 305.5 -83t110.5 -231q0 -181 -168 -273.5t-494 -92.5h-59 v-2q0 -85 30.5 -121.5t100.5 -36.5zM655 821q-57 0 -107 -46t-83 -124h12q158 0 220.5 19.5t62.5 70.5q0 35 -29.5 57.5t-75.5 22.5z" />
<glyph unicode="&#xeb;" horiz-adv-x="1159" d="M721 1466l-62 -286h-319l61 286h320zM1180 1466l-60 -286h-319l61 286h318zM479 418h-59v-2q0 -85 30.5 -121.5t100.5 -36.5q132 0 201 111l305 -99q-91 -130 -251 -210t-329 -80q-211 0 -337 124.5t-126 331.5q0 136 56 258.5t151 211t226.5 140.5t277.5 52 q195 0 305.5 -83t110.5 -231q0 -181 -168 -273.5t-494 -92.5zM655 821q-57 0 -107 -46t-83 -124h12q158 0 220.5 19.5t62.5 70.5q0 35 -29.5 57.5t-75.5 22.5z" />
<glyph unicode="&#xec;" horiz-adv-x="585" d="M143 1495h344l35 -291l-270 -28zM197 1077h389l-230 -1077h-389z" />
<glyph unicode="&#xed;" horiz-adv-x="585" d="M545 1188l-262 24l157 291h344zM197 1077h389l-230 -1077h-389z" />
<glyph unicode="&#xee;" horiz-adv-x="585" d="M70 1260l272 235h279l172 -235l-215 -86l-138 129l-192 -129zM197 1077h389l-230 -1077h-389z" />
<glyph unicode="&#xef;" horiz-adv-x="585" d="M25 1188l61 287h320l-62 -287h-319zM485 1188l62 287h317l-59 -287h-320zM197 1077h389l-230 -1077h-389z" />
<glyph unicode="&#xf0;" horiz-adv-x="1234" d="M1239 1313l-147 -72q106 -207 106 -465q0 -237 -89 -418t-252 -279.5t-378 -98.5q-216 0 -343.5 113.5t-127.5 297.5q0 152 81.5 285t215 211t281.5 78q71 0 136.5 -25t111.5 -70q-3 65 -19 131q-17 65 -41 115l-149 -72l-76 146l137 65q-110 132 -293 240h467 q80 -43 141 -115l162 78zM549 307q89 0 148 60.5t59 152.5q0 62 -34.5 98.5t-98.5 36.5q-91 0 -150 -60.5t-59 -152.5q0 -62 35.5 -98.5t99.5 -36.5z" />
<glyph unicode="&#xf1;" horiz-adv-x="1230" d="M637 1262q-25 0 -45 -10t-31.5 -23.5t-19.5 -29t-10.5 -24.5t-2.5 -12h-206q5 24 22 61.5t49 83.5t71 85.5t93.5 66.5t110.5 27q43 0 79.5 -16.5t56.5 -36t48 -36t57 -16.5t53 14.5t38 37t19.5 33.5t8.5 20h205q-4 -17 -21 -52t-50 -82.5t-73 -89t-96.5 -71t-113.5 -29.5 q-40 0 -75.5 15.5t-57 34t-51 34t-58.5 15.5zM197 1077h350l-35 -159q72 88 180 134t240 46q246 0 246 -244q0 -54 -17 -145l-149 -709h-389l129 606q6 30 6 53q0 48 -22.5 73.5t-57.5 25.5q-41 0 -98.5 -44.5t-94.5 -109.5l-129 -604h-389z" />
<glyph unicode="&#xf2;" d="M461 1487h344l35 -291l-271 -29zM14 438q0 130 47.5 249t133.5 210.5t216.5 146t284.5 54.5q124 0 218 -35.5t150 -99t83 -144.5t27 -178q0 -130 -47.5 -249t-133.5 -211t-216.5 -146.5t-284.5 -54.5q-124 0 -218 35.5t-150 99.5t-83 145t-27 178zM768 598q0 82 -33 127 t-94 45q-89 0 -155 -84.5t-66 -206.5q0 -82 33 -127t94 -45q89 0 155 84.5t66 206.5z" />
<glyph unicode="&#xf3;" d="M862 1180l-262 24l158 291h344zM14 438q0 130 47.5 249t133.5 210.5t216.5 146t284.5 54.5q124 0 218 -35.5t150 -99t83 -144.5t27 -178q0 -130 -47.5 -249t-133.5 -211t-216.5 -146.5t-284.5 -54.5q-124 0 -218 35.5t-150 99.5t-83 145t-27 178zM768 598q0 82 -33 127 t-94 45q-89 0 -155 -84.5t-66 -206.5q0 -82 33 -127t94 -45q89 0 155 84.5t66 206.5z" />
<glyph unicode="&#xf4;" d="M387 1251l272 236h279l172 -236l-215 -86l-137 129l-193 -129zM14 438q0 130 47.5 249t133.5 210.5t216.5 146t284.5 54.5q124 0 218 -35.5t150 -99t83 -144.5t27 -178q0 -130 -47.5 -249t-133.5 -211t-216.5 -146.5t-284.5 -54.5q-124 0 -218 35.5t-150 99.5t-83 145 t-27 178zM768 598q0 82 -33 127t-94 45q-89 0 -155 -84.5t-66 -206.5q0 -82 33 -127t94 -45q89 0 155 84.5t66 206.5z" />
<glyph unicode="&#xf5;" d="M623 1262q-25 0 -45 -10t-31.5 -23.5t-19.5 -29t-10.5 -24.5t-2.5 -12h-207q5 24 22 61.5t49 83.5t71 85.5t93.5 66.5t110.5 27q43 0 79.5 -16.5t57 -36t48.5 -36t57 -16.5t53 14.5t38 37t19.5 33.5t8.5 20h205q-3 -13 -16 -40.5t-35 -64.5t-54.5 -75t-69.5 -70.5 t-84.5 -53t-95.5 -20.5q-40 0 -75.5 15.5t-57 34t-50.5 34t-58 15.5zM14 438q0 130 47.5 249t133.5 210.5t216.5 146t284.5 54.5q124 0 218 -35.5t150 -99t83 -144.5t27 -178q0 -130 -47.5 -249t-133.5 -211t-216.5 -146.5t-284.5 -54.5q-124 0 -218 35.5t-150 99.5t-83 145 t-27 178zM768 598q0 82 -33 127t-94 45q-89 0 -155 -84.5t-66 -206.5q0 -82 33 -127t94 -45q89 0 155 84.5t66 206.5z" />
<glyph unicode="&#xf6;" d="M342 1180l61 286h320l-61 -286h-320zM803 1180l61 286h318l-60 -286h-319zM14 438q0 130 47.5 249t133.5 210.5t216.5 146t284.5 54.5q124 0 218 -35.5t150 -99t83 -144.5t27 -178q0 -130 -47.5 -249t-133.5 -211t-216.5 -146.5t-284.5 -54.5q-124 0 -218 35.5t-150 99.5 t-83 145t-27 178zM768 598q0 82 -33 127t-94 45q-89 0 -155 -84.5t-66 -206.5q0 -82 33 -127t94 -45q89 0 155 84.5t66 206.5z" />
<glyph unicode="&#xf7;" horiz-adv-x="1034" d="M360 891v328h326v-328h-326zM109 481v307h827v-307h-827zM360 55v328h326v-328h-326z" />
<glyph unicode="&#xf8;" d="M1278 1090l-182 -166q78 -116 78 -275q0 -126 -49.5 -245.5t-137 -214t-221.5 -152t-291 -57.5q-175 0 -295 86l-84 -78h-202l192 178q-72 113 -72 262q0 127 49.5 246.5t137.5 214t221.5 152t290.5 57.5q169 0 284 -78l74 70h207zM643 770q-92 0 -157.5 -84.5 t-65.5 -210.5v-10l295 283q-31 22 -72 22zM545 307q92 0 158.5 84.5t66.5 210.5q0 19 -2 27l-303 -289q29 -33 80 -33z" />
<glyph unicode="&#xf9;" horiz-adv-x="1265" d="M500 1495h344l35 -291l-271 -28zM18 233q0 53 17 136l151 708h387l-131 -620q-6 -30 -6 -56q0 -45 20.5 -69.5t57.5 -24.5q87 0 184 111l142 659h389l-137 -647q-7 -35 -7 -49q0 -27 13 -39t43 -14l-70 -328q-103 -20 -168 -20q-201 0 -201 149q0 4 5 39 q-174 -188 -437 -188q-123 0 -187.5 64.5t-64.5 188.5z" />
<glyph unicode="&#xfa;" horiz-adv-x="1265" d="M901 1188l-262 24l158 291h344zM18 233q0 53 17 136l151 708h387l-131 -620q-6 -30 -6 -56q0 -45 20.5 -69.5t57.5 -24.5q87 0 184 111l142 659h389l-137 -647q-7 -35 -7 -49q0 -27 13 -39t43 -14l-70 -328q-103 -20 -168 -20q-201 0 -201 149q0 4 5 39 q-174 -188 -437 -188q-123 0 -187.5 64.5t-64.5 188.5z" />
<glyph unicode="&#xfb;" horiz-adv-x="1265" d="M426 1260l272 235h279l172 -235l-215 -86l-137 129l-193 -129zM18 233q0 53 17 136l151 708h387l-131 -620q-6 -30 -6 -56q0 -45 20.5 -69.5t57.5 -24.5q87 0 184 111l142 659h389l-137 -647q-7 -35 -7 -49q0 -27 13 -39t43 -14l-70 -328q-103 -20 -168 -20 q-201 0 -201 149q0 4 5 39q-174 -188 -437 -188q-123 0 -187.5 64.5t-64.5 188.5z" />
<glyph unicode="&#xfc;" horiz-adv-x="1265" d="M381 1188l61 287h320l-62 -287h-319zM842 1188l61 287h318l-60 -287h-319zM18 233q0 53 17 136l151 708h387l-131 -620q-6 -30 -6 -56q0 -45 20.5 -69.5t57.5 -24.5q87 0 184 111l142 659h389l-137 -647q-7 -35 -7 -49q0 -27 13 -39t43 -14l-70 -328q-103 -20 -168 -20 q-201 0 -201 149q0 4 5 39q-174 -188 -437 -188q-123 0 -187.5 64.5t-64.5 188.5z" />
<glyph unicode="&#xfd;" horiz-adv-x="1112" d="M778 1180l-262 24l158 291h344zM-115 -190q118 0 175.5 19.5t107.5 78.5l59 69l-141 1100h395l25 -747l69 114q160 265 230 633h373q-56 -201 -139 -372.5t-283 -493.5l-164 -264q-145 -234 -296 -330t-366 -96z" />
<glyph unicode="&#xfe;" horiz-adv-x="1282" d="M-127 -436l401 1890h400l-99 -461q117 105 289 105q168 0 269.5 -121.5t101.5 -312.5q0 -180 -80.5 -339t-212.5 -252t-278 -93q-109 0 -180.5 46.5t-94.5 133.5l-127 -596h-389zM598 307q87 0 158 89.5t71 203.5q0 78 -39 124t-108 46q-85 0 -184 -111l-41 -186 q11 -72 50.5 -119t92.5 -47z" />
<glyph unicode="&#xff;" horiz-adv-x="1112" d="M258 1180l61 286h320l-61 -286h-320zM719 1180l61 286h318l-60 -286h-319zM-115 -190q118 0 175.5 19.5t107.5 78.5l59 69l-141 1100h395l25 -747l69 114q160 265 230 633h373q-56 -201 -139 -372.5t-283 -493.5l-164 -264q-145 -234 -296 -330t-366 -96z" />
<glyph unicode="&#x100;" horiz-adv-x="1302" d="M571 1620l50 231h606l-49 -231h-607zM655 1454h367l162 -1454h-406l-14 285h-348l-133 -285h-408zM758 551l-17 450l-211 -450h228z" />
<glyph unicode="&#x101;" horiz-adv-x="1323" d="M508 1243l49 232h606l-49 -232h-606zM14 414q0 182 80 340t214.5 251t287.5 93q97 0 168 -48t96 -132l33 151h391l-137 -639q-6 -30 -6 -49q0 -27 12.5 -39t42.5 -14l-70 -328q-103 -20 -165 -20q-96 0 -147.5 36.5t-51.5 120.5q0 21 2 31q-71 -94 -167.5 -141 t-201.5 -47q-176 0 -278.5 119.5t-102.5 314.5zM758 418l41 192q-11 71 -51 115.5t-95 44.5q-87 0 -158 -89.5t-71 -203.5q0 -78 39 -124t108 -46q48 0 91 26.5t96 84.5z" />
<glyph unicode="&#x102;" horiz-adv-x="1302" d="M1044 1872h201q-31 -146 -139.5 -239t-249.5 -93q-121 0 -190.5 67.5t-69.5 180.5q0 36 10 84h201q-6 -24 -6 -47q0 -51 25.5 -85t64.5 -34q44 0 87.5 47t65.5 119zM655 1454h367l162 -1454h-406l-14 285h-348l-133 -285h-408zM758 551l-17 450l-211 -450h228z" />
<glyph unicode="&#x103;" horiz-adv-x="1323" d="M981 1495h201q-31 -146 -139.5 -239t-249.5 -93q-121 0 -191 67.5t-70 180.5q0 31 11 84h200q-6 -24 -6 -47q0 -51 25.5 -85t64.5 -34q44 0 88 47t66 119zM14 414q0 182 80 340t214.5 251t287.5 93q97 0 168 -48t96 -132l33 151h391l-137 -639q-6 -30 -6 -49 q0 -27 12.5 -39t42.5 -14l-70 -328q-103 -20 -165 -20q-96 0 -147.5 36.5t-51.5 120.5q0 21 2 31q-71 -94 -167.5 -141t-201.5 -47q-176 0 -278.5 119.5t-102.5 314.5zM758 418l41 192q-11 71 -51 115.5t-95 44.5q-87 0 -158 -89.5t-71 -203.5q0 -78 39 -124t108 -46 q48 0 91 26.5t96 84.5z" />
<glyph unicode="&#x104;" horiz-adv-x="1302" d="M1030 -170q0 -66 92 -66l-116 -204q-105 17 -166.5 67t-61.5 115q0 62 48.5 130.5t138.5 127.5h-187l-14 285h-348l-133 -285h-408l780 1454h367l156 -1405h2l4 -49q-154 -99 -154 -170zM530 551h228l-17 450z" />
<glyph unicode="&#x105;" horiz-adv-x="1323" d="M1141 381q0 -27 12.5 -39t42.5 -14l-70 -328q-153 -98 -153 -170q0 -66 92 -66l-117 -204q-105 17 -166 67t-61 115q0 58 43 122.5t123 121.5q-125 26 -125 151q0 21 2 31q-71 -94 -167.5 -141t-201.5 -47q-176 0 -278.5 119.5t-102.5 314.5q0 182 80 340t214.5 251 t287.5 93q97 0 168 -48t96 -132l33 151h391l-137 -639q-6 -30 -6 -49zM758 418l41 192q-11 71 -51 115.5t-95 44.5q-87 0 -158 -89.5t-71 -203.5q0 -78 39 -124t108 -46q48 0 91 26.5t96 84.5z" />
<glyph unicode="&#x106;" horiz-adv-x="1359" d="M1028 1565l-262 24l158 291h344zM57 610q0 120 42.5 243t122.5 231.5t186.5 193.5t244.5 134.5t285 49.5q196 0 329 -86t175 -231l-350 -217q-7 50 -31 87t-58.5 56.5t-71 28t-77.5 8.5q-73 0 -137 -29.5t-109 -78t-78 -110t-49 -126.5t-16 -127q0 -127 59.5 -211 t171.5 -84q84 0 167 43.5t132 134.5l285 -194q-61 -103 -175.5 -182t-242.5 -117.5t-250 -38.5q-128 0 -234.5 52t-175.5 139.5t-107 198.5t-38 232z" />
<glyph unicode="&#x107;" horiz-adv-x="1136" d="M866 1180l-262 24l158 291h344zM12 432q0 125 50.5 245t139.5 213.5t222.5 150.5t288.5 57q182 0 293.5 -79t150.5 -214l-403 -115q-31 80 -113 80q-89 0 -156 -83.5t-67 -211.5q0 -78 34 -123t91 -45q78 0 145 80l354 -115q-97 -135 -241.5 -213.5t-325.5 -78.5 q-114 0 -204 36t-145.5 98.5t-84.5 143.5t-29 174z" />
<glyph unicode="&#x108;" horiz-adv-x="1359" d="M553 1636l272 236h279l172 -236l-215 -86l-137 129l-193 -129zM57 610q0 120 42.5 243t122.5 231.5t186.5 193.5t244.5 134.5t285 49.5q196 0 329 -86t175 -231l-350 -217q-7 50 -31 87t-58.5 56.5t-71 28t-77.5 8.5q-73 0 -137 -29.5t-109 -78t-78 -110t-49 -126.5 t-16 -127q0 -127 59.5 -211t171.5 -84q84 0 167 43.5t132 134.5l285 -194q-61 -103 -175.5 -182t-242.5 -117.5t-250 -38.5q-128 0 -234.5 52t-175.5 139.5t-107 198.5t-38 232z" />
<glyph unicode="&#x109;" horiz-adv-x="1136" d="M391 1251l273 236h278l172 -236l-215 -86l-137 129l-193 -129zM12 432q0 125 50.5 245t139.5 213.5t222.5 150.5t288.5 57q182 0 293.5 -79t150.5 -214l-403 -115q-31 80 -113 80q-89 0 -156 -83.5t-67 -211.5q0 -78 34 -123t91 -45q78 0 145 80l354 -115 q-97 -135 -241.5 -213.5t-325.5 -78.5q-114 0 -204 36t-145.5 98.5t-84.5 143.5t-29 174z" />
<glyph unicode="&#x10a;" horiz-adv-x="1359" d="M723 1565l65 307h349l-66 -307h-348zM57 610q0 120 42.5 243t122.5 231.5t186.5 193.5t244.5 134.5t285 49.5q196 0 329 -86t175 -231l-350 -217q-7 50 -31 87t-58.5 56.5t-71 28t-77.5 8.5q-73 0 -137 -29.5t-109 -78t-78 -110t-49 -126.5t-16 -127q0 -127 59.5 -211 t171.5 -84q84 0 167 43.5t132 134.5l285 -194q-61 -103 -175.5 -182t-242.5 -117.5t-250 -38.5q-128 0 -234.5 52t-175.5 139.5t-107 198.5t-38 232z" />
<glyph unicode="&#x10b;" horiz-adv-x="1136" d="M561 1180l66 307h348l-66 -307h-348zM12 432q0 125 50.5 245t139.5 213.5t222.5 150.5t288.5 57q182 0 293.5 -79t150.5 -214l-403 -115q-31 80 -113 80q-89 0 -156 -83.5t-67 -211.5q0 -78 34 -123t91 -45q78 0 145 80l354 -115q-97 -135 -241.5 -213.5t-325.5 -78.5 q-114 0 -204 36t-145.5 98.5t-84.5 143.5t-29 174z" />
<glyph unicode="&#x10c;" horiz-adv-x="1359" d="M578 1786l215 86l137 -129l192 129l178 -86l-272 -236h-278zM57 610q0 120 42.5 243t122.5 231.5t186.5 193.5t244.5 134.5t285 49.5q196 0 329 -86t175 -231l-350 -217q-7 50 -31 87t-58.5 56.5t-71 28t-77.5 8.5q-73 0 -137 -29.5t-109 -78t-78 -110t-49 -126.5 t-16 -127q0 -127 59.5 -211t171.5 -84q84 0 167 43.5t132 134.5l285 -194q-61 -103 -175.5 -182t-242.5 -117.5t-250 -38.5q-128 0 -234.5 52t-175.5 139.5t-107 198.5t-38 232z" />
<glyph unicode="&#x10d;" horiz-adv-x="1136" d="M416 1401l215 86l137 -129l193 129l178 -86l-273 -236h-278zM12 432q0 125 50.5 245t139.5 213.5t222.5 150.5t288.5 57q182 0 293.5 -79t150.5 -214l-403 -115q-31 80 -113 80q-89 0 -156 -83.5t-67 -211.5q0 -78 34 -123t91 -45q78 0 145 80l354 -115 q-97 -135 -241.5 -213.5t-325.5 -78.5q-114 0 -204 36t-145.5 98.5t-84.5 143.5t-29 174z" />
<glyph unicode="&#x10e;" horiz-adv-x="1419" d="M547 1786l215 86l137 -129l193 129l178 -86l-273 -236h-278zM303 1454h537q141 0 250.5 -43.5t177 -121.5t102.5 -179.5t35 -222.5q0 -189 -67 -354t-183 -282t-278.5 -184t-346.5 -67h-536zM604 348q111 0 201 67t139 176.5t49 237.5q0 127 -59.5 202t-167.5 75h-137 l-162 -758h137z" />
<glyph unicode="&#x10f;" horiz-adv-x="1320" d="M14 414q0 182 80 340t214.5 251t287.5 93q97 0 168 -48t96 -132l123 577h391l-227 -1065q-6 -30 -6 -49q0 -27 12.5 -39t42.5 -14l-70 -328q-103 -20 -165 -20q-201 0 -201 147q0 13 4 41q-71 -94 -167.5 -141t-201.5 -47q-176 0 -278.5 119.5t-102.5 314.5zM1348 1204 l157 291h344l-270 -356zM758 418l41 192q-11 71 -51 115.5t-95 44.5q-87 0 -158 -89.5t-71 -203.5q0 -78 39 -124t108 -46q48 0 91 26.5t96 84.5z" />
<glyph unicode="&#x110;" horiz-adv-x="1425" d="M846 1454q141 0 250.5 -43.5t177 -121.5t102.5 -179.5t35 -222.5q0 -189 -67 -354t-183 -282t-278 -184t-346 -67h-537l125 588h-68l60 286h69l123 580h537zM610 348q111 0 201 67t139 176.5t49 237.5q0 127 -59.5 202t-167.5 75h-137l-49 -232h213l-62 -286h-213 l-51 -240h137z" />
<glyph unicode="&#x111;" horiz-adv-x="1320" d="M1309 1186l-162 -756q-6 -30 -6 -49q0 -27 12.5 -39t42.5 -14l-70 -328q-103 -20 -165 -20q-201 0 -201 147q0 13 4 41q-71 -94 -167.5 -141t-201.5 -47q-176 0 -278.5 119.5t-102.5 314.5q0 182 80 340t214.5 251t287.5 93q97 0 168 -48t96 -132l58 268h-144l47 223h144 l18 86h391l-18 -86h131l-49 -223h-129zM758 418l41 192q-11 71 -51 115.5t-95 44.5q-87 0 -158 -89.5t-71 -203.5q0 -78 39 -124t108 -46q48 0 91 26.5t96 84.5z" />
<glyph unicode="&#x112;" horiz-adv-x="1177" d="M516 1620l49 231h606l-49 -231h-606zM303 1454h971l-74 -348h-571l-43 -205h487l-69 -323h-488l-49 -230h590l-74 -348h-989z" />
<glyph unicode="&#x113;" horiz-adv-x="1159" d="M1094 1466l-50 -231h-606l49 231h607zM551 258q132 0 201 111l305 -99q-91 -130 -251 -210t-329 -80q-211 0 -337 124.5t-126 331.5q0 136 56 258.5t151 211t226.5 140.5t277.5 52q195 0 305.5 -83t110.5 -231q0 -181 -168 -273.5t-494 -92.5h-59v-2q0 -85 30.5 -121.5 t100.5 -36.5zM655 821q-57 0 -107 -46t-83 -124h12q158 0 220.5 19.5t62.5 70.5q0 35 -29.5 57.5t-75.5 22.5z" />
<glyph unicode="&#x114;" horiz-adv-x="1177" d="M989 1872h201q-31 -146 -139.5 -239t-249.5 -93q-121 0 -190.5 67.5t-69.5 180.5q0 36 10 84h201q-7 -28 -7 -47q0 -51 25.5 -85t65.5 -34q44 0 87.5 47t65.5 119zM303 1454h971l-74 -348h-571l-43 -205h487l-69 -323h-488l-49 -230h590l-74 -348h-989z" />
<glyph unicode="&#x115;" horiz-adv-x="1159" d="M723 1155q-121 0 -190.5 67.5t-69.5 180.5q0 36 10 84h201q-6 -24 -6 -47q0 -51 25.5 -85t64.5 -34q44 0 87.5 47t65.5 119h201q-31 -146 -139.5 -239t-249.5 -93zM551 258q132 0 201 111l305 -99q-91 -130 -251 -210t-329 -80q-211 0 -337 124.5t-126 331.5 q0 136 56 258.5t151 211t226.5 140.5t277.5 52q195 0 305.5 -83t110.5 -231q0 -181 -168 -273.5t-494 -92.5h-59v-2q0 -85 30.5 -121.5t100.5 -36.5zM655 821q-57 0 -107 -46t-83 -124h12q158 0 220.5 19.5t62.5 70.5q0 35 -29.5 57.5t-75.5 22.5z" />
<glyph unicode="&#x116;" horiz-adv-x="1177" d="M633 1565l65 307h349l-66 -307h-348zM303 1454h971l-74 -348h-571l-43 -205h487l-69 -323h-488l-49 -230h590l-74 -348h-989z" />
<glyph unicode="&#x117;" horiz-adv-x="1159" d="M969 1487l-66 -307h-348l66 307h348zM551 258q132 0 201 111l305 -99q-91 -130 -251 -210t-329 -80q-211 0 -337 124.5t-126 331.5q0 136 56 258.5t151 211t226.5 140.5t277.5 52q195 0 305.5 -83t110.5 -231q0 -181 -168 -273.5t-494 -92.5h-59v-2q0 -85 30.5 -121.5 t100.5 -36.5zM655 821q-57 0 -107 -46t-83 -124h12q158 0 220.5 19.5t62.5 70.5q0 35 -29.5 57.5t-75.5 22.5z" />
<glyph unicode="&#x118;" horiz-adv-x="1177" d="M1200 1106h-571l-43 -205h487l-69 -323h-488l-49 -230h590l-74 -348q-154 -99 -154 -170q0 -66 93 -66l-117 -204q-105 17 -166 67t-61 115q0 63 48.5 131t137.5 127h-770l309 1454h971z" />
<glyph unicode="&#x119;" horiz-adv-x="1159" d="M551 258q132 0 201 111l305 -99q-67 -97 -176.5 -168t-235.5 -102q-153 -98 -153 -170q0 -66 92 -66l-117 -204q-105 17 -166 67t-61 115q0 58 42 121t121 121q-181 23 -285 143.5t-104 308.5q0 136 56 258.5t151 211t226.5 140.5t277.5 52q195 0 305.5 -83t110.5 -231 q0 -181 -168 -273.5t-494 -92.5h-59v-2q0 -85 30.5 -121.5t100.5 -36.5zM655 821q-57 0 -107 -46t-83 -124h12q158 0 220.5 19.5t62.5 70.5q0 35 -29.5 57.5t-75.5 22.5z" />
<glyph unicode="&#x11a;" horiz-adv-x="1177" d="M487 1786l215 86l138 -129l192 129l178 -86l-272 -236h-279zM303 1454h971l-74 -348h-571l-43 -205h487l-69 -323h-488l-49 -230h590l-74 -348h-989z" />
<glyph unicode="&#x11b;" horiz-adv-x="1159" d="M860 1165h-278l-172 236l215 86l137 -129l192 129l179 -86zM551 258q132 0 201 111l305 -99q-91 -130 -251 -210t-329 -80q-211 0 -337 124.5t-126 331.5q0 136 56 258.5t151 211t226.5 140.5t277.5 52q195 0 305.5 -83t110.5 -231q0 -181 -168 -273.5t-494 -92.5h-59v-2 q0 -85 30.5 -121.5t100.5 -36.5zM655 821q-57 0 -107 -46t-83 -124h12q158 0 220.5 19.5t62.5 70.5q0 35 -29.5 57.5t-75.5 22.5z" />
<glyph unicode="&#x11c;" horiz-adv-x="1456" d="M989 1675l-192 -129l-179 86l273 236h278l172 -236l-215 -86zM782 487l60 287h581l-166 -774h-327l26 123q-175 -133 -362 -133q-114 0 -212.5 40.5t-170.5 114.5t-113 185.5t-41 247.5q0 182 75.5 348t198.5 283t285.5 186t331.5 69q187 0 322 -85t178 -232l-344 -227 q-22 86 -90 138t-156 52q-101 0 -190.5 -63.5t-144 -175t-54.5 -242.5q0 -130 62.5 -207.5t173.5 -77.5q156 0 315 143h-238z" />
<glyph unicode="&#x11d;" horiz-adv-x="1282" d="M418 1251l272 236h279l172 -236l-215 -86l-138 129l-192 -129zM-133 -250l250 213q45 -59 115 -95t153 -36q69 0 128 25t106.5 87t66.5 154l14 70q-58 -82 -149 -125t-191 -43q-160 0 -252 116.5t-92 301.5q0 184 84 341t225 248t304 91q108 0 181 -46.5t101 -133.5 l35 159h338l-209 -979q-54 -252 -258.5 -403.5t-490.5 -151.5q-306 0 -459 207zM754 418l41 192q-10 73 -50.5 116.5t-95.5 43.5q-86 0 -156.5 -90t-70.5 -203q0 -76 39 -123t106 -47q48 0 92 27t95 84z" />
<glyph unicode="&#x11e;" horiz-adv-x="1456" d="M956 1536q-121 0 -190.5 67.5t-69.5 180.5q0 31 11 84h200q-6 -24 -6 -47q0 -51 25.5 -85t64.5 -34q44 0 88 47t66 119h201q-31 -146 -140 -239t-250 -93zM782 487l60 287h581l-166 -774h-327l26 123q-175 -133 -362 -133q-114 0 -212.5 40.5t-170.5 114.5t-113 185.5 t-41 247.5q0 182 75.5 348t198.5 283t285.5 186t331.5 69q187 0 322 -85t178 -232l-344 -227q-22 86 -90 138t-156 52q-101 0 -190.5 -63.5t-144 -175t-54.5 -242.5q0 -130 62.5 -207.5t173.5 -77.5q156 0 315 143h-238z" />
<glyph unicode="&#x11f;" horiz-adv-x="1282" d="M944 1487h201q-31 -146 -139.5 -239t-249.5 -93q-121 0 -190.5 67.5t-69.5 180.5q0 36 10 84h201q-7 -28 -7 -47q0 -51 25.5 -85t65.5 -34q44 0 87.5 47t65.5 119zM-133 -250l250 213q45 -59 115 -95t153 -36q69 0 128 25t106.5 87t66.5 154l14 70q-58 -82 -149 -125 t-191 -43q-160 0 -252 116.5t-92 301.5q0 184 84 341t225 248t304 91q108 0 181 -46.5t101 -133.5l35 159h338l-209 -979q-54 -252 -258.5 -403.5t-490.5 -151.5q-306 0 -459 207zM754 418l41 192q-10 73 -50.5 116.5t-95.5 43.5q-86 0 -156.5 -90t-70.5 -203q0 -76 39 -123 t106 -47q48 0 92 27t95 84z" />
<glyph unicode="&#x120;" horiz-adv-x="1456" d="M1202 1868l-65 -307h-349l66 307h348zM782 487l60 287h581l-166 -774h-327l26 123q-175 -133 -362 -133q-114 0 -212.5 40.5t-170.5 114.5t-113 185.5t-41 247.5q0 182 75.5 348t198.5 283t285.5 186t331.5 69q187 0 322 -85t178 -232l-344 -227q-22 86 -90 138t-156 52 q-101 0 -190.5 -63.5t-144 -175t-54.5 -242.5q0 -130 62.5 -207.5t173.5 -77.5q156 0 315 143h-238z" />
<glyph unicode="&#x121;" horiz-adv-x="1282" d="M588 1180l65 307h348l-65 -307h-348zM-133 -250l250 213q45 -59 115 -95t153 -36q69 0 128 25t106.5 87t66.5 154l14 70q-58 -82 -149 -125t-191 -43q-160 0 -252 116.5t-92 301.5q0 184 84 341t225 248t304 91q108 0 181 -46.5t101 -133.5l35 159h338l-209 -979 q-54 -252 -258.5 -403.5t-490.5 -151.5q-306 0 -459 207zM754 418l41 192q-10 73 -50.5 116.5t-95.5 43.5q-86 0 -156.5 -90t-70.5 -203q0 -76 39 -123t106 -47q48 0 92 27t95 84z" />
<glyph unicode="&#x122;" horiz-adv-x="1456" d="M782 487l60 287h581l-166 -774h-327l26 123q-175 -133 -362 -133q-114 0 -212.5 40.5t-170.5 114.5t-113 185.5t-41 247.5q0 182 75.5 348t198.5 283t285.5 186t331.5 69q187 0 322 -85t178 -232l-344 -227q-22 86 -90 138t-156 52q-101 0 -190.5 -63.5t-144 -175 t-54.5 -242.5q0 -130 62.5 -207.5t173.5 -77.5q156 0 315 143h-238zM373 -311l47 217h319l-45 -217l-137 -125h-168l100 125h-116z" />
<glyph unicode="&#x123;" horiz-adv-x="1282" d="M950 1487l-100 -121h115l-50 -197h-307l47 197l136 121h159zM-133 -250l250 213q45 -59 115 -95t153 -36q69 0 128 25t106.5 87t66.5 154l14 70q-58 -82 -149 -125t-191 -43q-160 0 -252 116.5t-92 301.5q0 184 84 341t225 248t304 91q108 0 181 -46.5t101 -133.5l35 159 h338l-209 -979q-54 -252 -258.5 -403.5t-490.5 -151.5q-306 0 -459 207zM754 418l41 192q-10 73 -50.5 116.5t-95.5 43.5q-86 0 -156.5 -90t-70.5 -203q0 -76 39 -123t106 -47q48 0 92 27t95 84z" />
<glyph unicode="&#x124;" horiz-adv-x="1482" d="M614 1636l273 236h278l172 -236l-215 -86l-137 129l-192 -129zM303 1454h399l-114 -536h434l115 536h399l-309 -1454h-400l121 569h-434l-121 -569h-399z" />
<glyph unicode="&#x125;" horiz-adv-x="1230" d="M512 1634l252 234h258l160 -234l-199 -84l-127 127l-178 -127zM285 1495h389l-123 -577q72 87 168.5 133.5t204.5 46.5q256 0 256 -238q0 -62 -19 -151l-149 -709h-389l129 606q6 30 6 56q0 49 -22.5 72.5t-61.5 23.5q-35 0 -93.5 -44.5t-95.5 -109.5l-129 -604h-389z " />
<glyph unicode="&#x126;" horiz-adv-x="1492" d="M1602 1282l-37 -180h-99l-233 -1102h-399l120 569h-434l-121 -569h-399l233 1102h-96l39 180h96l37 172h400l-37 -172h434l37 172h399l-37 -172h97zM1028 918l39 184h-434l-39 -184h434z" />
<glyph unicode="&#x127;" horiz-adv-x="1230" d="M924 1098q256 0 256 -238q0 -62 -19 -151l-149 -709h-389l129 606q6 30 6 56q0 49 -22.5 72.5t-61.5 23.5q-35 0 -93.5 -44.5t-95.5 -109.5l-129 -604h-389l252 1186h-94l47 223h94l19 86h389l-19 -86h183l-47 -223h-183l-57 -268q72 87 168.5 133.5t204.5 46.5z" />
<glyph unicode="&#x128;" horiz-adv-x="649" d="M434 1647q-25 0 -45 -10t-31 -23.5t-19 -29t-10.5 -24.5t-2.5 -12h-207q5 24 22 61.5t49 83.5t71 85.5t93.5 66.5t110.5 27q43 0 79.5 -16.5t57 -36t48.5 -36t57 -16.5t53 14.5t38 37t19 33.5t8 20h205q-4 -17 -21 -52t-50 -82.5t-73 -89t-96.5 -71t-113.5 -29.5 q-40 0 -75.5 15.5t-57 34t-51 34t-58.5 15.5zM303 1454h399l-309 -1454h-399z" />
<glyph unicode="&#x129;" horiz-adv-x="585" d="M305 1270q-25 0 -45 -10t-31 -23.5t-19 -29t-10.5 -24.5t-2.5 -12h-207q5 24 22 61.5t49 83.5t71 85.5t93.5 66.5t110.5 27q43 0 79.5 -16.5t57 -35.5t48.5 -35.5t57 -16.5t53 14.5t37.5 36.5t19 33t8.5 20h205q-4 -17 -21 -52t-50 -82.5t-73 -89t-96.5 -71t-113.5 -29.5 q-40 0 -75.5 15.5t-57 34t-51 34t-58.5 15.5zM197 1077h389l-230 -1077h-389z" />
<glyph unicode="&#x12a;" horiz-adv-x="649" d="M252 1620l49 231h606l-49 -231h-606zM303 1454h399l-309 -1454h-399z" />
<glyph unicode="&#x12b;" horiz-adv-x="585" d="M123 1243l49 232h606l-49 -232h-606zM197 1077h389l-230 -1077h-389z" />
<glyph unicode="&#x12c;" horiz-adv-x="649" d="M725 1872h201q-31 -146 -139.5 -239t-249.5 -93q-121 0 -191 67.5t-70 180.5q0 31 11 84h200q-6 -24 -6 -47q0 -51 25.5 -85t64.5 -34q44 0 88 47t66 119zM303 1454h399l-309 -1454h-399z" />
<glyph unicode="&#x12d;" horiz-adv-x="585" d="M596 1495h201q-31 -146 -139.5 -239t-249.5 -93q-121 0 -191 67.5t-70 180.5q0 31 11 84h200q-6 -24 -6 -47q0 -51 25.5 -85t64.5 -34q44 0 88 47t66 119zM197 1077h389l-230 -1077h-389z" />
<glyph unicode="&#x12e;" horiz-adv-x="649" d="M393 0q-153 -98 -153 -170q0 -66 92 -66l-117 -204q-105 17 -166 67t-61 115q0 63 48.5 131t137.5 127h-180l309 1454h399z" />
<glyph unicode="&#x12f;" horiz-adv-x="585" d="M285 1495h389l-70 -328h-389zM-33 0l230 1077h389l-230 -1077q-153 -98 -153 -170q0 -66 92 -66l-117 -204q-105 17 -166 67t-61 115q0 63 48.5 131t137.5 127h-170z" />
<glyph unicode="&#x130;" horiz-adv-x="649" d="M369 1565l65 307h348l-65 -307h-348zM303 1454h399l-309 -1454h-399z" />
<glyph unicode="&#x131;" horiz-adv-x="585" d="M197 1077h389l-230 -1077h-389z" />
<glyph unicode="&#x134;" horiz-adv-x="999" d="M545 1632l272 236h279l172 -236l-215 -86l-138 129l-192 -129zM-98 68l151 325q7 -8 32 -21.5t74 -26.5t99 -13q109 0 158 81t96 302l158 739h399l-158 -739q-22 -104 -43.5 -181t-53 -158t-69.5 -138t-91.5 -109t-120 -83.5t-155 -50t-196.5 -18.5q-172 0 -280 91z" />
<glyph unicode="&#x135;" horiz-adv-x="585" d="M86 1260l272 235h279l172 -235l-215 -86l-137 129l-193 -129zM-416 -317l215 264q23 -41 78 -41q33 0 56 23t32 65l230 1083h391l-224 -1052q-43 -201 -183.5 -327t-321.5 -126q-171 0 -273 111z" />
<glyph unicode="&#x136;" horiz-adv-x="1361" d="M303 1454h399l-116 -553l508 553h452l-637 -651l363 -803h-461l-213 535l-115 -115l-90 -420h-399zM356 -436l101 125h-117l47 217h320l-45 -217l-138 -125h-168z" />
<glyph unicode="&#x137;" horiz-adv-x="1191" d="M1151 834q0 -136 -70 -253t-196 -194l157 -387h-409l-152 440q148 26 235 86t87 138q0 40 -25 66t-63 26q-67 0 -140 -74t-116 -182l-107 -500h-385l318 1495h385l-144 -678q75 132 174.5 201t214.5 69q113 0 174.5 -66t61.5 -187zM254 -311l47 217h320l-46 -217 l-137 -125h-168l101 125h-117z" />
<glyph unicode="&#x138;" horiz-adv-x="1155" d="M197 1077h389l-86 -399l334 399h407l-446 -471l256 -606h-412l-137 393l-80 -86l-66 -307h-389z" />
<glyph unicode="&#x139;" horiz-adv-x="1155" d="M639 1565l-262 24l158 291h344zM303 1454h399l-235 -1106h612l-73 -348h-1012z" />
<glyph unicode="&#x13a;" horiz-adv-x="706" d="M610 1606l-262 24l158 291h344zM10 199q0 51 10 92l256 1204h390l-228 -1067q-6 -24 -6 -45q0 -78 74 -78q46 0 106 31l-12 -287q-72 -32 -163 -50.5t-167 -18.5q-127 0 -193.5 56.5t-66.5 162.5z" />
<glyph unicode="&#x13b;" horiz-adv-x="1155" d="M303 1454h399l-235 -1106h612l-73 -348h-1012zM285 -436l100 125h-117l47 217h320l-45 -217l-137 -125h-168z" />
<glyph unicode="&#x13c;" horiz-adv-x="706" d="M10 199q0 51 10 92l256 1204h390l-228 -1067q-6 -24 -6 -45q0 -78 74 -78q46 0 106 31l-12 -287q-72 -32 -163 -50.5t-167 -18.5q-127 0 -193.5 56.5t-66.5 162.5zM59 -436l101 125h-117l47 217h320l-45 -217l-138 -125h-168z" />
<glyph unicode="&#x13d;" horiz-adv-x="1155" d="M791 1204l157 291h344l-270 -356zM303 1454h399l-235 -1106h612l-73 -348h-1012z" />
<glyph unicode="&#x13e;" horiz-adv-x="706" d="M10 199q0 51 10 92l256 1204h390l-228 -1067q-6 -24 -6 -45q0 -78 74 -78q46 0 106 31l-12 -287q-72 -32 -163 -50.5t-167 -18.5q-127 0 -193.5 56.5t-66.5 162.5zM647 1204l158 291h344l-270 -356z" />
<glyph unicode="&#x13f;" horiz-adv-x="1157" d="M303 1454h399l-235 -1106h612l-73 -348h-1012zM711 688l80 377h315l-80 -377h-315z" />
<glyph unicode="&#x140;" horiz-adv-x="972" d="M10 199q0 51 10 92l256 1204h390l-228 -1067q-6 -24 -6 -45q0 -78 74 -78q46 0 106 31l-12 -287q-72 -32 -163 -50.5t-167 -18.5q-127 0 -193.5 56.5t-66.5 162.5zM610 537l80 376h316l-80 -376h-316z" />
<glyph unicode="&#x141;" horiz-adv-x="1173" d="M467 348h612l-73 -348h-1012l117 551l-76 -35l-43 207l172 80l139 651h399l-96 -448l162 73l43 -207l-258 -118z" />
<glyph unicode="&#x142;" horiz-adv-x="806" d="M530 383q0 -78 74 -78q47 0 107 31l-13 -287q-74 -32 -163.5 -50.5t-165.5 -18.5q-127 0 -193.5 56.5t-66.5 162.5q0 51 10 92l59 282l-127 -57l-43 207l223 102l144 670h389l-100 -475l131 59l43 -207l-230 -104l-71 -340q-7 -28 -7 -45z" />
<glyph unicode="&#x143;" horiz-adv-x="1484" d="M1053 1561l-262 24l157 291h344zM303 1454h311l369 -739l156 739h399l-309 -1454h-316l-368 715l-152 -715h-399z" />
<glyph unicode="&#x144;" horiz-adv-x="1230" d="M877 1180l-263 24l158 291h344zM197 1077h350l-35 -159q72 88 180 134t240 46q246 0 246 -244q0 -54 -17 -145l-149 -709h-389l129 606q6 30 6 53q0 48 -22.5 73.5t-57.5 25.5q-41 0 -98.5 -44.5t-94.5 -109.5l-129 -604h-389z" />
<glyph unicode="&#x145;" horiz-adv-x="1484" d="M303 1454h311l369 -739l156 739h399l-309 -1454h-316l-368 715l-152 -715h-399zM406 -436l100 125h-117l47 217h320l-45 -217l-138 -125h-167z" />
<glyph unicode="&#x146;" horiz-adv-x="1230" d="M197 1077h350l-35 -159q72 88 180 134t240 46q246 0 246 -244q0 -54 -17 -145l-149 -709h-389l129 606q6 30 6 53q0 48 -22.5 73.5t-57.5 25.5q-41 0 -98.5 -44.5t-94.5 -109.5l-129 -604h-389zM276 -436l101 125h-117l47 217h320l-45 -217l-138 -125h-168z" />
<glyph unicode="&#x147;" horiz-adv-x="1484" d="M602 1782l215 86l137 -129l193 129l178 -86l-272 -236h-279zM303 1454h311l369 -739l156 739h399l-309 -1454h-316l-368 715l-152 -715h-399z" />
<glyph unicode="&#x148;" horiz-adv-x="1230" d="M426 1401l215 86l137 -129l193 129l178 -86l-272 -236h-279zM197 1077h350l-35 -159q72 88 180 134t240 46q246 0 246 -244q0 -54 -17 -145l-149 -709h-389l129 606q6 30 6 53q0 48 -22.5 73.5t-57.5 25.5q-41 0 -98.5 -44.5t-94.5 -109.5l-129 -604h-389z" />
<glyph unicode="&#x14a;" horiz-adv-x="1443" d="M416 -317l215 264q23 -41 80 -41q33 0 56 23t32 65l20 96l-276 612l-150 -702h-399l309 1454h307l336 -719l152 717h399l-307 -1442q-42 -197 -183.5 -317.5t-318.5 -120.5q-167 0 -272 111z" />
<glyph unicode="&#x14b;" horiz-adv-x="1228" d="M238 -317l215 264q23 -41 77 -41q34 0 58 23.5t33 64.5l131 612q6 30 6 53q0 48 -22.5 73.5t-57.5 25.5q-41 0 -98.5 -44.5t-94.5 -109.5l-129 -604h-389l230 1077h350l-35 -159q72 88 180 134t240 46q246 0 246 -240q0 -64 -19 -149l-145 -684q-43 -201 -184.5 -327 t-321.5 -126q-168 0 -270 111z" />
<glyph unicode="&#x14c;" horiz-adv-x="1511" d="M670 1616l49 231h606l-49 -231h-606zM57 598q0 162 73 320t192.5 277.5t283.5 193t336 73.5q131 0 239 -51t177 -136.5t106 -194t37 -228.5q0 -161 -72 -318.5t-190.5 -277.5t-282 -194t-335.5 -74q-132 0 -240.5 50.5t-178 136t-107.5 194.5t-38 229zM1094 825 q0 123 -58 203t-176 80q-75 0 -140 -29.5t-110.5 -78t-78.5 -111t-48.5 -129t-15.5 -131.5q0 -125 57 -206t174 -81q76 0 141.5 30t111.5 79.5t79 112.5t48.5 129.5t15.5 131.5z" />
<glyph unicode="&#x14d;" d="M440 1235l49 231h607l-49 -231h-607zM14 438q0 130 47.5 249t133.5 210.5t216.5 146t284.5 54.5q124 0 218 -35.5t150 -99t83 -144.5t27 -178q0 -130 -47.5 -249t-133.5 -211t-216.5 -146.5t-284.5 -54.5q-124 0 -218 35.5t-150 99.5t-83 145t-27 178zM768 598 q0 82 -33 127t-94 45q-89 0 -155 -84.5t-66 -206.5q0 -82 33 -127t94 -45q89 0 155 84.5t66 206.5z" />
<glyph unicode="&#x14e;" horiz-adv-x="1511" d="M1143 1868h200q-31 -146 -139.5 -239t-249.5 -93q-121 0 -190.5 67.5t-69.5 180.5q0 31 11 84h200q-6 -24 -6 -47q0 -51 25.5 -85t64.5 -34q44 0 88 47t66 119zM57 598q0 162 73 320t192.5 277.5t283.5 193t336 73.5q131 0 239 -51t177 -136.5t106 -194t37 -228.5 q0 -161 -72 -318.5t-190.5 -277.5t-282 -194t-335.5 -74q-132 0 -240.5 50.5t-178 136t-107.5 194.5t-38 229zM1094 825q0 123 -58 203t-176 80q-75 0 -140 -29.5t-110.5 -78t-78.5 -111t-48.5 -129t-15.5 -131.5q0 -125 57 -206t174 -81q76 0 141.5 30t111.5 79.5t79 112.5 t48.5 129.5t15.5 131.5z" />
<glyph unicode="&#x14f;" d="M913 1487h201q-31 -146 -139.5 -239t-249.5 -93q-121 0 -190.5 67.5t-69.5 180.5q0 36 10 84h201q-6 -24 -6 -47q0 -51 25.5 -85t64.5 -34q44 0 87.5 47t65.5 119zM14 438q0 130 47.5 249t133.5 210.5t216.5 146t284.5 54.5q124 0 218 -35.5t150 -99t83 -144.5t27 -178 q0 -130 -47.5 -249t-133.5 -211t-216.5 -146.5t-284.5 -54.5q-124 0 -218 35.5t-150 99.5t-83 145t-27 178zM768 598q0 82 -33 127t-94 45q-89 0 -155 -84.5t-66 -206.5q0 -82 33 -127t94 -45q89 0 155 84.5t66 206.5z" />
<glyph unicode="&#x150;" horiz-adv-x="1511" d="M823 1559l-202 18l137 291h282zM1202 1559l-201 18l136 291h282zM57 598q0 162 73 320t192.5 277.5t283.5 193t336 73.5q131 0 239 -51t177 -136.5t106 -194t37 -228.5q0 -161 -72 -318.5t-190.5 -277.5t-282 -194t-335.5 -74q-132 0 -240.5 50.5t-178 136t-107.5 194.5 t-38 229zM1094 825q0 123 -58 203t-176 80q-75 0 -140 -29.5t-110.5 -78t-78.5 -111t-48.5 -129t-15.5 -131.5q0 -125 57 -206t174 -81q76 0 141.5 30t111.5 79.5t79 112.5t48.5 129.5t15.5 131.5z" />
<glyph unicode="&#x151;" d="M594 1178l-203 18l137 291h283zM973 1178l-201 18l135 291h283zM14 438q0 130 47.5 249t133.5 210.5t216.5 146t284.5 54.5q124 0 218 -35.5t150 -99t83 -144.5t27 -178q0 -130 -47.5 -249t-133.5 -211t-216.5 -146.5t-284.5 -54.5q-124 0 -218 35.5t-150 99.5t-83 145 t-27 178zM768 598q0 82 -33 127t-94 45q-89 0 -155 -84.5t-66 -206.5q0 -82 33 -127t94 -45q89 0 155 84.5t66 206.5z" />
<glyph unicode="&#x152;" horiz-adv-x="2000" d="M57 590q0 131 44.5 261t125 239t185 193.5t232 132.5t257.5 48q133 0 252 -92l16 82h930l-74 -348h-530l-41 -193h426l-74 -348h-426l-47 -217h549l-74 -348h-948l19 84q-165 -94 -301 -94q-98 0 -182.5 32.5t-145.5 89t-105 132t-66 164t-22 182.5zM1012 838 q0 117 -48.5 194.5t-144.5 77.5q-81 0 -150.5 -47t-112.5 -120.5t-67 -159t-24 -167.5q0 -118 47.5 -195t144.5 -77q67 0 125.5 31t99.5 82t71 116t44.5 133t14.5 132z" />
<glyph unicode="&#x153;" horiz-adv-x="1939" d="M14 428q0 139 55.5 264t148.5 213.5t220.5 140.5t266.5 52q113 0 193 -42.5t142 -133.5q115 94 210.5 135t203.5 41q207 0 330 -125t123 -324q0 -109 -52 -229h-704q-4 -24 -4 -33q0 -62 37 -99.5t98 -37.5q60 0 117.5 33t85.5 84l301 -95q-98 -137 -251 -214.5 t-323 -77.5q-99 0 -172 35.5t-166 127.5q-131 -92 -218 -127.5t-185 -35.5q-210 0 -333.5 124t-123.5 324zM1505 653q0 5 1 14t1 13q0 66 -32.5 103.5t-92.5 37.5q-66 0 -118.5 -45.5t-75.5 -122.5h317zM768 604q0 76 -33 121t-92 45q-95 0 -159 -86t-64 -211q0 -76 33 -121 t92 -45q95 0 159 86t64 211z" />
<glyph unicode="&#x154;" horiz-adv-x="1337" d="M981 1565l-262 24l158 291h344zM-6 0l309 1454h639q113 0 200 -61t130 -155.5t43 -203.5q0 -142 -79 -277t-210 -222l174 -535h-450l-142 446h-121l-94 -446h-399zM784 795q38 0 78.5 58.5t40.5 139.5q0 52 -18.5 82.5t-44.5 30.5h-211l-66 -311h221z" />
<glyph unicode="&#x155;" horiz-adv-x="835" d="M651 1180l-262 24l158 291h344zM197 1077h356l-45 -205q78 107 171.5 166.5t184.5 59.5q37 0 45 -2l-73 -351q-241 0 -344 -106l-136 -639h-389z" />
<glyph unicode="&#x156;" horiz-adv-x="1337" d="M-6 0l309 1454h639q113 0 200 -61t130 -155.5t43 -203.5q0 -142 -79 -277t-210 -222l174 -535h-450l-142 446h-121l-94 -446h-399zM784 795q38 0 78.5 58.5t40.5 139.5q0 52 -18.5 82.5t-44.5 30.5h-211l-66 -311h221zM324 -436l100 125h-117l47 217h320l-45 -217 l-137 -125h-168z" />
<glyph unicode="&#x157;" horiz-adv-x="835" d="M197 1077h356l-45 -205q78 107 171.5 166.5t184.5 59.5q37 0 45 -2l-73 -351q-241 0 -344 -106l-136 -639h-389zM-49 -436l100 125h-117l48 217h319l-45 -217l-137 -125h-168z" />
<glyph unicode="&#x158;" horiz-adv-x="1337" d="M530 1786l215 86l138 -129l192 129l178 -86l-272 -236h-279zM-6 0l309 1454h639q113 0 200 -61t130 -155.5t43 -203.5q0 -142 -79 -277t-210 -222l174 -535h-450l-142 446h-121l-94 -446h-399zM784 795q38 0 78.5 58.5t40.5 139.5q0 52 -18.5 82.5t-44.5 30.5h-211 l-66 -311h221z" />
<glyph unicode="&#x159;" horiz-adv-x="835" d="M201 1401l215 86l137 -129l192 129l179 -86l-273 -236h-278zM197 1077h356l-45 -205q78 107 171.5 166.5t184.5 59.5q37 0 45 -2l-73 -351q-241 0 -344 -106l-136 -639h-389z" />
<glyph unicode="&#x15a;" d="M1208 1903l-239 -316l-262 25l157 291h344zM811 895q82 -31 136 -59.5t101.5 -70t70 -98t22.5 -130.5q0 -100 -26.5 -184.5t-74 -144t-108.5 -104t-134 -71t-146.5 -39t-149.5 -12.5q-150 0 -305.5 46.5t-264.5 123.5l246 350q1 -3 22.5 -19.5t62 -40.5t89 -46t111.5 -38 t121 -16q63 0 84.5 20.5t21.5 55.5q0 21 -13.5 38t-42.5 31.5t-56.5 25t-75.5 26.5t-78 28q-138 55 -203 131t-65 191q0 107 36 200.5t98 161.5t143 117t172.5 73.5t185.5 24.5q225 0 489 -157l-242 -330q-2 7 -49.5 37.5t-130.5 63t-156 32.5q-47 0 -77.5 -22t-30.5 -64 q0 -10 3 -19t10 -17.5t14.5 -15t21 -13.5t24.5 -12.5t30.5 -13t33.5 -12.5t38.5 -13.5t41.5 -14.5z" />
<glyph unicode="&#x15b;" horiz-adv-x="993" d="M748 1180l-263 24l158 291h344zM-55 160l180 233q171 -141 315 -141q74 0 74 61q0 24 -26 44.5t-89 41.5q-180 60 -253.5 118.5t-73.5 150.5q0 118 68.5 217.5t185.5 157t254 57.5q123 0 215.5 -33.5t175.5 -122.5l-195 -233q-86 66 -142.5 93t-109.5 27 q-34 0 -54.5 -17.5t-20.5 -47.5q0 -26 27 -44t99 -40q179 -54 253.5 -117.5t74.5 -163.5q0 -188 -141.5 -304.5t-370.5 -116.5q-137 0 -257 47t-189 133z" />
<glyph unicode="&#x15c;" d="M864 1702l-192 -129l-178 86l272 235h278l173 -235l-216 -86zM811 895q82 -31 136 -59.5t101.5 -70t70 -98t22.5 -130.5q0 -100 -26.5 -184.5t-74 -144t-108.5 -104t-134 -71t-146.5 -39t-149.5 -12.5q-150 0 -305.5 46.5t-264.5 123.5l246 350q1 -3 22.5 -19.5t62 -40.5 t89 -46t111.5 -38t121 -16q63 0 84.5 20.5t21.5 55.5q0 21 -13.5 38t-42.5 31.5t-56.5 25t-75.5 26.5t-78 28q-138 55 -203 131t-65 191q0 107 36 200.5t98 161.5t143 117t172.5 73.5t185.5 24.5q225 0 489 -157l-242 -330q-2 7 -49.5 37.5t-130.5 63t-156 32.5 q-47 0 -77.5 -22t-30.5 -64q0 -10 3 -19t10 -17.5t14.5 -15t21 -13.5t24.5 -12.5t30.5 -13t33.5 -12.5t38.5 -13.5t41.5 -14.5z" />
<glyph unicode="&#x15d;" horiz-adv-x="993" d="M272 1251l273 236h278l172 -236l-215 -86l-137 129l-192 -129zM-55 160l180 233q171 -141 315 -141q74 0 74 61q0 24 -26 44.5t-89 41.5q-180 60 -253.5 118.5t-73.5 150.5q0 118 68.5 217.5t185.5 157t254 57.5q123 0 215.5 -33.5t175.5 -122.5l-195 -233 q-86 66 -142.5 93t-109.5 27q-34 0 -54.5 -17.5t-20.5 -47.5q0 -26 27 -44t99 -40q179 -54 253.5 -117.5t74.5 -163.5q0 -188 -141.5 -304.5t-370.5 -116.5q-137 0 -257 47t-189 133z" />
<glyph unicode="&#x15e;" d="M811 895q82 -31 136 -59.5t101.5 -70t70 -98t22.5 -130.5q0 -106 -30.5 -194.5t-81.5 -149t-121.5 -104.5t-145.5 -67.5t-158 -33.5q45 -78 45 -162q0 -110 -75.5 -193.5t-206.5 -83.5q-108 0 -209 70l133 199q23 -39 65 -39q33 0 58.5 27t25.5 71q0 52 -26 109 q-131 12 -260 56t-222 110l246 350q1 -3 22.5 -19.5t62 -40.5t89 -46t111.5 -38t121 -16q63 0 84.5 20.5t21.5 55.5q0 21 -13.5 38t-42.5 31.5t-56.5 25t-75.5 26.5t-78 28q-138 55 -203 131t-65 191q0 107 36 200.5t98 161.5t143 117t172.5 73.5t185.5 24.5q225 0 489 -157 l-242 -330q-2 7 -49.5 37.5t-130.5 63t-156 32.5q-47 0 -77.5 -22t-30.5 -64q0 -10 3 -19t10 -17.5t14.5 -15t21 -13.5t24.5 -12.5t30.5 -13t33.5 -12.5t38.5 -13.5t41.5 -14.5z" />
<glyph unicode="&#x15f;" horiz-adv-x="993" d="M575 682q179 -54 253.5 -117.5t74.5 -163.5q0 -170 -117 -282.5t-313 -134.5q43 -72 43 -158q0 -70 -31 -132t-97 -103.5t-155 -41.5q-107 0 -208 70l133 199q23 -39 65 -39q33 0 58.5 27t25.5 71q0 54 -26 111q-105 15 -193 59.5t-143 112.5l180 233q171 -141 315 -141 q74 0 74 61q0 24 -26 44.5t-89 41.5q-180 60 -253.5 118.5t-73.5 150.5q0 118 68.5 217.5t185.5 157t254 57.5q123 0 215.5 -33.5t175.5 -122.5l-195 -233q-86 66 -142.5 93t-109.5 27q-34 0 -54.5 -17.5t-20.5 -47.5q0 -26 27 -44t99 -40z" />
<glyph unicode="&#x160;" d="M969 1573h-279l-172 235l215 86l137 -129l193 129l178 -86zM811 895q82 -31 136 -59.5t101.5 -70t70 -98t22.5 -130.5q0 -100 -26.5 -184.5t-74 -144t-108.5 -104t-134 -71t-146.5 -39t-149.5 -12.5q-150 0 -305.5 46.5t-264.5 123.5l246 350q1 -3 22.5 -19.5t62 -40.5 t89 -46t111.5 -38t121 -16q63 0 84.5 20.5t21.5 55.5q0 21 -13.5 38t-42.5 31.5t-56.5 25t-75.5 26.5t-78 28q-138 55 -203 131t-65 191q0 107 36 200.5t98 161.5t143 117t172.5 73.5t185.5 24.5q225 0 489 -157l-242 -330q-2 7 -49.5 37.5t-130.5 63t-156 32.5 q-47 0 -77.5 -22t-30.5 -64q0 -10 3 -19t10 -17.5t14.5 -15t21 -13.5t24.5 -12.5t30.5 -13t33.5 -12.5t38.5 -13.5t41.5 -14.5z" />
<glyph unicode="&#x161;" horiz-adv-x="993" d="M297 1401l215 86l137 -129l193 129l178 -86l-272 -236h-279zM-55 160l180 233q171 -141 315 -141q74 0 74 61q0 24 -26 44.5t-89 41.5q-180 60 -253.5 118.5t-73.5 150.5q0 118 68.5 217.5t185.5 157t254 57.5q123 0 215.5 -33.5t175.5 -122.5l-195 -233 q-86 66 -142.5 93t-109.5 27q-34 0 -54.5 -17.5t-20.5 -47.5q0 -26 27 -44t99 -40q179 -54 253.5 -117.5t74.5 -163.5q0 -188 -141.5 -304.5t-370.5 -116.5q-137 0 -257 47t-189 133z" />
<glyph unicode="&#x162;" horiz-adv-x="1228" d="M203 1454h1179l-73 -348h-389l-236 -1106h-100q51 -86 51 -174q0 -70 -31 -132t-97 -103.5t-155 -41.5q-108 0 -209 70l133 199q11 -19 30 -29t36 -10q33 0 58.5 27t25.5 71q0 59 -33 123h-108l235 1106h-391z" />
<glyph unicode="&#x163;" horiz-adv-x="849" d="M596 784l-76 -356q-4 -28 -4 -37q0 -59 62 -59q44 0 137 35l4 -308q-152 -62 -299 -77q41 -74 41 -156q0 -70 -31 -132t-97 -103.5t-155 -41.5q-108 0 -209 70l133 199q11 -19 30 -29t36 -10q33 0 58.5 27t25.5 71q0 54 -31 121q-129 48 -129 199q0 50 10 94l105 493 h-125l63 293h125l72 338h389l-72 -338h197l-61 -293h-199z" />
<glyph unicode="&#x164;" horiz-adv-x="1228" d="M492 1782l215 86l137 -129l192 129l178 -86l-272 -236h-278zM520 1106h-391l74 348h1179l-73 -348h-389l-236 -1106h-399z" />
<glyph unicode="&#x165;" horiz-adv-x="849" d="M733 1204l158 291h344l-270 -356zM92 197q0 50 10 94l105 493h-125l63 293h125l72 338h389l-72 -338h197l-61 -293h-199l-76 -356q-4 -28 -4 -37q0 -59 62 -59q44 0 137 35l4 -308q-208 -82 -367 -82q-119 0 -189.5 52.5t-70.5 167.5z" />
<glyph unicode="&#x166;" horiz-adv-x="1269" d="M1327 1106h-389l-80 -377h311l-39 -180h-309l-116 -549h-400l117 549h-313l38 180h312l80 377h-392l74 348h1180z" />
<glyph unicode="&#x167;" horiz-adv-x="854" d="M795 784h-199l-21 -96h160l-47 -223h-160l-8 -37q-4 -28 -4 -37q0 -59 62 -59q44 0 137 35l4 -308q-208 -82 -367 -82q-119 0 -189.5 52.5t-70.5 167.5q0 50 10 94l37 174h-121l48 223h120l21 96h-125l63 293h125l72 338h389l-72 -338h197z" />
<glyph unicode="&#x168;" horiz-adv-x="1460" d="M819 1642q-25 0 -45 -10t-31 -23.5t-19 -28.5t-10.5 -24t-2.5 -12h-207q5 24 22 61.5t49 83.5t71 85.5t93.5 66.5t110.5 27q43 0 79.5 -16.5t57 -36t48.5 -36t57 -16.5t53 14.5t38 37t19 33.5t8 20h205q-4 -17 -21 -52t-50 -82.5t-73 -89t-96.5 -71t-113.5 -29.5 q-40 0 -75.5 15.5t-57 33.5t-51 33.5t-58.5 15.5zM98 487q0 101 25 220l160 747h399l-160 -747q-16 -82 -16 -146q0 -101 40.5 -160t125.5 -59q59 0 110.5 30t88.5 82.5t63.5 116t42.5 136.5l160 747h399l-160 -747q-33 -155 -99 -284t-162 -227t-229.5 -153t-289.5 -55 q-130 0 -227.5 37.5t-155.5 105.5t-86.5 157t-28.5 199z" />
<glyph unicode="&#x169;" horiz-adv-x="1265" d="M662 1270q-25 0 -45 -10t-31.5 -23.5t-19.5 -29t-10.5 -24.5t-2.5 -12h-207q5 24 22 61.5t49 83.5t71 85.5t93.5 66.5t110.5 27q43 0 79.5 -16.5t57 -35.5t48.5 -35.5t57 -16.5t53 14.5t38 36.5t19.5 33t8.5 20h204q-4 -17 -21 -52t-50 -82.5t-73 -89t-96.5 -71 t-113.5 -29.5q-40 0 -75.5 15.5t-57 34t-50.5 34t-58 15.5zM18 233q0 53 17 136l151 708h387l-131 -620q-6 -30 -6 -56q0 -45 20.5 -69.5t57.5 -24.5q87 0 184 111l142 659h389l-137 -647q-7 -35 -7 -49q0 -27 13 -39t43 -14l-70 -328q-103 -20 -168 -20q-201 0 -201 149 q0 4 5 39q-174 -188 -437 -188q-123 0 -187.5 64.5t-64.5 188.5z" />
<glyph unicode="&#x16a;" horiz-adv-x="1460" d="M637 1616l49 231h606l-49 -231h-606zM98 487q0 101 25 220l160 747h399l-160 -747q-16 -82 -16 -146q0 -101 40.5 -160t125.5 -59q59 0 110.5 30t88.5 82.5t63.5 116t42.5 136.5l160 747h399l-160 -747q-33 -155 -99 -284t-162 -227t-229.5 -153t-289.5 -55 q-130 0 -227.5 37.5t-155.5 105.5t-86.5 157t-28.5 199z" />
<glyph unicode="&#x16b;" horiz-adv-x="1265" d="M479 1243l49 232h607l-50 -232h-606zM18 233q0 53 17 136l151 708h387l-131 -620q-6 -30 -6 -56q0 -45 20.5 -69.5t57.5 -24.5q87 0 184 111l142 659h389l-137 -647q-7 -35 -7 -49q0 -27 13 -39t43 -14l-70 -328q-103 -20 -168 -20q-201 0 -201 149q0 4 5 39 q-174 -188 -437 -188q-123 0 -187.5 64.5t-64.5 188.5z" />
<glyph unicode="&#x16c;" horiz-adv-x="1460" d="M1110 1868h201q-31 -146 -139.5 -239t-249.5 -93q-121 0 -190.5 67.5t-69.5 180.5q0 36 10 84h200q-6 -24 -6 -47q0 -51 25.5 -85t64.5 -34q44 0 88 47t66 119zM98 487q0 101 25 220l160 747h399l-160 -747q-16 -82 -16 -146q0 -101 40.5 -160t125.5 -59q59 0 110.5 30 t88.5 82.5t63.5 116t42.5 136.5l160 747h399l-160 -747q-33 -155 -99 -284t-162 -227t-229.5 -153t-289.5 -55q-130 0 -227.5 37.5t-155.5 105.5t-86.5 157t-28.5 199z" />
<glyph unicode="&#x16d;" horiz-adv-x="1265" d="M952 1495h201q-31 -146 -139.5 -239t-249.5 -93q-121 0 -190.5 67.5t-69.5 180.5q0 36 10 84h201q-6 -24 -6 -47q0 -51 25.5 -85t64.5 -34q44 0 87.5 47t65.5 119zM18 233q0 53 17 136l151 708h387l-131 -620q-6 -30 -6 -56q0 -45 20.5 -69.5t57.5 -24.5q87 0 184 111 l142 659h389l-137 -647q-7 -35 -7 -49q0 -27 13 -39t43 -14l-70 -328q-103 -20 -168 -20q-201 0 -201 149q0 4 5 39q-174 -188 -437 -188q-123 0 -187.5 64.5t-64.5 188.5z" />
<glyph unicode="&#x16e;" horiz-adv-x="1460" d="M995 1868q95 0 148 -37t53 -107q0 -102 -75 -157.5t-201 -55.5q-95 0 -149 37t-54 107q0 102 75.5 157.5t202.5 55.5zM879 1679q0 -26 17 -41.5t46 -15.5q37 0 65.5 23.5t28.5 56.5q0 25 -18 40t-47 15q-39 0 -65.5 -22.5t-26.5 -55.5zM98 487q0 101 25 220l160 747h399 l-160 -747q-16 -82 -16 -146q0 -101 40.5 -160t125.5 -59q59 0 110.5 30t88.5 82.5t63.5 116t42.5 136.5l160 747h399l-160 -747q-33 -155 -99 -284t-162 -227t-229.5 -153t-289.5 -55q-130 0 -227.5 37.5t-155.5 105.5t-86.5 157t-28.5 199z" />
<glyph unicode="&#x16f;" horiz-adv-x="1265" d="M838 1495q95 0 147.5 -36.5t52.5 -106.5q0 -102 -75 -157.5t-201 -55.5q-95 0 -149 37t-54 106q0 102 76 157.5t203 55.5zM721 1307q0 -26 17 -42t46 -16q38 0 66.5 23.5t28.5 56.5q0 25 -18.5 40t-47.5 15q-39 0 -65.5 -22t-26.5 -55zM18 233q0 53 17 136l151 708h387 l-131 -620q-6 -30 -6 -56q0 -45 20.5 -69.5t57.5 -24.5q87 0 184 111l142 659h389l-137 -647q-7 -35 -7 -49q0 -27 13 -39t43 -14l-70 -328q-103 -20 -168 -20q-201 0 -201 149q0 4 5 39q-174 -188 -437 -188q-123 0 -187.5 64.5t-64.5 188.5z" />
<glyph unicode="&#x170;" horiz-adv-x="1460" d="M791 1559l-203 18l137 291h283zM1169 1559l-200 18l135 291h282zM98 487q0 101 25 220l160 747h399l-160 -747q-16 -82 -16 -146q0 -101 40.5 -160t125.5 -59q59 0 110.5 30t88.5 82.5t63.5 116t42.5 136.5l160 747h399l-160 -747q-33 -155 -99 -284t-162 -227 t-229.5 -153t-289.5 -55q-130 0 -227.5 37.5t-155.5 105.5t-86.5 157t-28.5 199z" />
<glyph unicode="&#x171;" horiz-adv-x="1265" d="M633 1186l-203 18l137 291h283zM1012 1186l-201 18l135 291h283zM18 233q0 53 17 136l151 708h387l-131 -620q-6 -30 -6 -56q0 -45 20.5 -69.5t57.5 -24.5q87 0 184 111l142 659h389l-137 -647q-7 -35 -7 -49q0 -27 13 -39t43 -14l-70 -328q-103 -20 -168 -20 q-201 0 -201 149q0 4 5 39q-174 -188 -437 -188q-123 0 -187.5 64.5t-64.5 188.5z" />
<glyph unicode="&#x172;" horiz-adv-x="1460" d="M1137 1454h399l-160 -747q-59 -282 -225 -473t-418 -234q-151 -99 -151 -170q0 -66 92 -66l-117 -204q-105 17 -166 67t-61 115q0 60 46 126.5t130 123.5q-107 13 -186.5 55t-127 108.5t-71 149t-23.5 182.5q0 101 25 220l160 747h399l-160 -747q-16 -82 -16 -146 q0 -101 40.5 -160t125.5 -59q59 0 110.5 30t88.5 82.5t63.5 116t42.5 136.5z" />
<glyph unicode="&#x173;" horiz-adv-x="1265" d="M1085 381q0 -27 13 -39t43 -14l-70 -328q-153 -98 -153 -170q0 -66 92 -66l-117 -204q-105 17 -166 67t-61 115q0 58 42.5 122.5t122.5 121.5q-129 23 -129 143q0 4 5 39q-174 -188 -437 -188q-123 0 -187.5 64.5t-64.5 188.5q0 53 17 136l151 708h387l-131 -620 q-6 -30 -6 -56q0 -45 20.5 -69.5t57.5 -24.5q87 0 184 111l142 659h389l-137 -647q-7 -35 -7 -49z" />
<glyph unicode="&#x174;" horiz-adv-x="2052" d="M870 1632l273 236h278l172 -236l-215 -86l-137 129l-192 -129zM141 1454h432l72 -997l146 303l-74 694h364l21 -448l211 448h366l-374 -694l22 -303l492 997h436l-848 -1454h-330l-80 520l-297 -520h-329z" />
<glyph unicode="&#x175;" horiz-adv-x="1671" d="M612 1251l273 236h278l172 -236l-215 -86l-137 129l-192 -129zM70 1077h368l78 -723q18 39 54 116t53 116l-80 491h307l18 -315l154 315h287q-63 -150 -124.5 -263t-144.5 -228l15 -127q164 212 221 306t158 312h348q-219 -530 -723 -1077h-223l-41 410l-215 -410h-320z " />
<glyph unicode="&#x176;" horiz-adv-x="1284" d="M473 1632l272 236h279l172 -236l-215 -86l-137 129l-193 -129zM406 485l-259 969h433l96 -629l371 629h434l-680 -973l-103 -481h-397z" />
<glyph unicode="&#x177;" horiz-adv-x="1112" d="M303 1251l272 236h279l172 -236l-215 -86l-137 129l-193 -129zM-115 -190q118 0 175.5 19.5t107.5 78.5l59 69l-141 1100h395l25 -747l69 114q160 265 230 633h373q-56 -201 -139 -372.5t-283 -493.5l-164 -264q-145 -234 -296 -330t-366 -96z" />
<glyph unicode="&#x178;" horiz-adv-x="1284" d="M428 1561l61 286h320l-61 -286h-320zM889 1561l61 286h318l-60 -286h-319zM406 485l-259 969h433l96 -629l371 629h434l-680 -973l-103 -481h-397z" />
<glyph unicode="&#x179;" horiz-adv-x="1214" d="M956 1565l-262 24l158 291h344zM-12 297l792 809h-590l74 348h1053l-64 -297l-753 -809h594l-74 -348h-1096z" />
<glyph unicode="&#x17a;" horiz-adv-x="966" d="M752 1188l-263 24l158 291h344zM-37 229l572 582h-418l57 266h823l-49 -229l-571 -582h467l-58 -266h-872z" />
<glyph unicode="&#x17b;" horiz-adv-x="1214" d="M651 1565l66 307h348l-66 -307h-348zM-12 297l792 809h-590l74 348h1053l-64 -297l-753 -809h594l-74 -348h-1096z" />
<glyph unicode="&#x17c;" horiz-adv-x="966" d="M446 1188l66 307h348l-65 -307h-349zM-37 229l572 582h-418l57 266h823l-49 -229l-571 -582h467l-58 -266h-872z" />
<glyph unicode="&#x17d;" horiz-adv-x="1214" d="M506 1786l215 86l137 -129l193 129l178 -86l-273 -236h-278zM-12 297l792 809h-590l74 348h1053l-64 -297l-753 -809h594l-74 -348h-1096z" />
<glyph unicode="&#x17e;" horiz-adv-x="966" d="M301 1409l215 86l137 -129l193 129l178 -86l-272 -235h-279zM-37 229l572 582h-418l57 266h823l-49 -229l-571 -582h467l-58 -266h-872z" />
<glyph unicode="&#x18f;" horiz-adv-x="1499" d="M31 582q0 131 57 260h971q4 36 4 53q0 109 -60 163t-153 54q-80 0 -157.5 -44t-112.5 -118l-394 117q121 184 310 289.5t424 105.5q114 0 210 -34.5t161.5 -93t111.5 -135.5t67 -161.5t21 -171.5q0 -116 -39.5 -238t-117 -236t-182.5 -204t-247 -144t-299 -54 q-117 0 -214 35.5t-163 94t-111.5 136t-66 159.5t-20.5 167zM987 549h-530q-6 -24 -6 -45q0 -76 66.5 -121t168.5 -45q103 0 183 56t118 155z" />
<glyph unicode="&#x192;" horiz-adv-x="1114" d="M-141 -317l215 264q23 -41 78 -41q33 0 56 23t32 65l141 665h-125l63 293h125l25 117q43 202 174 324.5t303 122.5q129 0 277 -62l-127 -295q-71 29 -131 29q-84 0 -105 -105l-29 -131h222l-64 -293h-219l-139 -655q-41 -191 -181.5 -311.5t-318.5 -120.5 q-170 0 -272 111z" />
<glyph unicode="&#x1a0;" horiz-adv-x="1511" d="M1384 1311q-19 -15 -36 -25q74 -86 113.5 -198t39.5 -236q0 -161 -72 -318.5t-190.5 -277.5t-282 -194t-335.5 -74q-132 0 -240.5 50.5t-178 136t-107.5 194.5t-38 229q0 162 73 320t192.5 277.5t283.5 193t336 73.5q26 0 76 -4q79 0 129.5 10t83.5 37q16 14 27.5 34 t15.5 31.5t11 42.5t9 38h265q-8 -39 -10.5 -48.5t-12 -46.5t-16.5 -53t-21 -48.5t-29 -52.5t-37.5 -45t-48.5 -46zM698 342q76 0 141.5 30t111.5 79.5t79 112.5t48.5 129.5t15.5 131.5q0 123 -58 203t-176 80q-75 0 -140 -29.5t-110.5 -78t-78.5 -111t-48.5 -129 t-15.5 -131.5q0 -125 57 -206t174 -81z" />
<glyph unicode="&#x1a1;" d="M1094 1264h264q-28 -128 -53 -185q-43 -93 -121 -155q-22 -20 -66 -39q56 -103 56 -244q0 -130 -47.5 -249t-133.5 -211t-216.5 -146.5t-284.5 -54.5q-124 0 -218 35.5t-150 99.5t-83 145t-27 178q0 130 47.5 249t133.5 210.5t216.5 146t284.5 54.5q104 0 187 -25 q100 6 147 45q16 14 27.5 34.5t15.5 30.5t12 44t9 37zM547 307q89 0 155 84.5t66 206.5q0 82 -33 127t-94 45q-89 0 -155 -84.5t-66 -206.5q0 -82 33 -127t94 -45z" />
<glyph unicode="&#x1af;" horiz-adv-x="1460" d="M1569 1647h264q-28 -128 -53 -185q-43 -93 -121 -155q-64 -51 -172 -78l-111 -522q-33 -155 -99 -284t-162 -227t-229.5 -153t-289.5 -55q-130 0 -227.5 37.5t-155.5 105.5t-86.5 157t-28.5 199q0 101 25 220l160 747h399l-160 -747q-16 -82 -16 -146q0 -101 40.5 -160 t125.5 -59q59 0 110.5 30t88.5 82.5t63.5 116t42.5 136.5l160 747h155q79 0 129.5 10t83.5 37q16 14 27.5 34.5t15.5 30.5t12 44t9 37z" />
<glyph unicode="&#x1b0;" horiz-adv-x="1265" d="M1321 1264h264q-28 -128 -53 -185q-43 -93 -121 -155q-78 -63 -235 -95l-84 -399q-7 -35 -7 -49q0 -27 13 -39t43 -14l-70 -328q-103 -20 -168 -20q-201 0 -201 149q0 4 5 39q-174 -188 -437 -188q-123 0 -187.5 64.5t-64.5 188.5q0 53 17 136l151 708h387l-131 -620 q-6 -30 -6 -56q0 -45 20.5 -69.5t57.5 -24.5q87 0 184 111l142 659h313q67 9 104 41q16 14 27.5 34.5t15.5 30.5t12 44t9 37z" />
<glyph unicode="&#x1e6;" horiz-adv-x="1456" d="M1094 1546h-279l-172 236l215 86l137 -129l193 129l178 -86zM782 487l60 287h581l-166 -774h-327l26 123q-175 -133 -362 -133q-114 0 -212.5 40.5t-170.5 114.5t-113 185.5t-41 247.5q0 182 75.5 348t198.5 283t285.5 186t331.5 69q187 0 322 -85t178 -232l-344 -227 q-22 86 -90 138t-156 52q-101 0 -190.5 -63.5t-144 -175t-54.5 -242.5q0 -130 62.5 -207.5t173.5 -77.5q156 0 315 143h-238z" />
<glyph unicode="&#x1e7;" horiz-adv-x="1282" d="M442 1401l215 86l138 -129l192 129l178 -86l-272 -236h-279zM-133 -250l250 213q45 -59 115 -95t153 -36q69 0 128 25t106.5 87t66.5 154l14 70q-58 -82 -149 -125t-191 -43q-160 0 -252 116.5t-92 301.5q0 184 84 341t225 248t304 91q108 0 181 -46.5t101 -133.5l35 159 h338l-209 -979q-54 -252 -258.5 -403.5t-490.5 -151.5q-306 0 -459 207zM754 418l41 192q-10 73 -50.5 116.5t-95.5 43.5q-86 0 -156.5 -90t-70.5 -203q0 -76 39 -123t106 -47q48 0 92 27t95 84z" />
<glyph unicode="&#x1ea;" horiz-adv-x="1511" d="M1501 852q0 -194 -99 -377t-270 -311t-372 -164q-154 -99 -154 -170q0 -66 92 -66l-116 -204q-105 17 -166.5 67t-61.5 115q0 61 45.5 127t130.5 125q-148 21 -257 110.5t-162.5 217.5t-53.5 276q0 162 73 320t192.5 277.5t283.5 193t336 73.5q131 0 239 -51t177 -136.5 t106 -194t37 -228.5zM698 342q76 0 141.5 30t111.5 79.5t79 112.5t48.5 129.5t15.5 131.5q0 123 -58 203t-176 80q-75 0 -140 -29.5t-110.5 -78t-78.5 -111t-48.5 -129t-15.5 -131.5q0 -125 57 -206t174 -81z" />
<glyph unicode="&#x1eb;" d="M627 -8q-140 -95 -140 -162q0 -66 93 -66l-117 -204q-105 17 -166 67t-61 115q0 58 42.5 122t120.5 122q-195 24 -290 147t-95 305q0 130 47.5 249t133.5 210.5t216.5 146t284.5 54.5q124 0 218 -35.5t150 -99t83 -144.5t27 -178q0 -155 -64 -291t-190 -232.5 t-293 -125.5zM641 770q-89 0 -155 -84.5t-66 -206.5q0 -82 33 -127t94 -45q89 0 155 84.5t66 206.5q0 82 -33 127t-94 45z" />
<glyph unicode="&#x1fa;" horiz-adv-x="1302" d="M1096 1573q0 -96 -70 -154l158 -1419h-406l-14 285h-348l-133 -285h-408l766 1425q-25 31 -25 78q0 73 40 123t112 72l123 217h344l-191 -238q52 -36 52 -104zM870 1606q-39 0 -65.5 -22.5t-26.5 -55.5q0 -26 17.5 -42t46.5 -16q37 0 65.5 23.5t28.5 56.5 q0 25 -18.5 40.5t-47.5 15.5zM530 551h228l-17 450z" />
<glyph unicode="&#x1fb;" horiz-adv-x="1323" d="M1018 1606l-262 24l157 291h344zM866 1495q95 0 148 -36.5t53 -106.5q0 -102 -75 -157.5t-201 -55.5q-95 0 -149 37t-54 106q0 102 75.5 157.5t202.5 55.5zM750 1307q0 -26 17 -42t46 -16q37 0 65.5 23.5t28.5 56.5q0 25 -18 40t-47 15q-39 0 -65.5 -22t-26.5 -55z M14 414q0 182 80 340t214.5 251t287.5 93q97 0 168 -48t96 -132l33 151h391l-137 -639q-6 -30 -6 -49q0 -27 12.5 -39t42.5 -14l-70 -328q-103 -20 -165 -20q-96 0 -147.5 36.5t-51.5 120.5q0 21 2 31q-71 -94 -167.5 -141t-201.5 -47q-176 0 -278.5 119.5t-102.5 314.5z M758 418l41 192q-11 71 -51 115.5t-95 44.5q-87 0 -158 -89.5t-71 -203.5q0 -78 39 -124t108 -46q48 0 91 26.5t96 84.5z" />
<glyph unicode="&#x1fc;" horiz-adv-x="1914" d="M1415 1561l-262 24l158 291h344zM979 1454h1034l-76 -348h-530l-41 -193h426l-74 -348h-426l-45 -217h547l-74 -348h-946l62 285h-383l-195 -285h-422zM879 633l79 381l-264 -381h185z" />
<glyph unicode="&#x1fd;" horiz-adv-x="1847" d="M1145 1180l-262 24l157 291h344zM-29 266q0 180 155 304t376 124q124 0 192 -41q11 74 11 82q0 51 -35 76t-109 25q-83 0 -163 -28.5t-177 -88.5l-61 242q232 137 495 137q225 0 340 -103q163 103 359 103q114 0 203.5 -35.5t145 -97.5t84 -142t28.5 -172 q0 -111 -52 -231h-702q-4 -24 -4 -39q0 -61 38 -92t95 -31t113 30t81 79l310 -95q-94 -134 -244.5 -213t-333.5 -79q-152 0 -256 55.5t-155 152.5q-93 -103 -213.5 -155.5t-225.5 -52.5q-133 0 -214 79.5t-81 206.5zM1405 653q0 5 1 14t1 19q0 62 -31.5 98.5t-87.5 36.5 q-63 0 -112 -45t-74 -123h303zM645 326q-2 10 -2 32q0 19 8 97q-65 28 -129 28q-67 0 -119.5 -41.5t-52.5 -99.5q0 -38 25.5 -61t73.5 -23q46 0 100.5 19.5t95.5 48.5z" />
<glyph unicode="&#x1fe;" horiz-adv-x="1511" d="M1331 1876l-239 -315l-263 24l158 291h344zM1657 1454l-240 -264q84 -153 84 -338q0 -161 -72 -318.5t-190.5 -277.5t-282 -194t-335.5 -74q-137 0 -246 53l-37 -41h-428l233 258q-86 151 -86 340q0 162 73 320t192.5 277.5t283.5 193t336 73.5q137 0 246 -53l41 45h428z M467 629v-15l444 490q-32 4 -51 4q-75 0 -140 -29.5t-110.5 -78t-78.5 -111t-48.5 -129t-15.5 -131.5zM1094 825v9l-443 -488q28 -4 47 -4q76 0 141.5 30t111.5 79.5t79 112.5t48.5 129.5t15.5 131.5z" />
<glyph unicode="&#x1ff;" d="M1294 1495l-239 -315l-262 24l157 291h344zM1071 1090h207l-182 -166q78 -116 78 -275q0 -126 -49.5 -245.5t-137 -214t-221.5 -152t-291 -57.5q-175 0 -295 86l-84 -78h-202l192 178q-72 113 -72 262q0 127 49.5 246.5t137.5 214t221.5 152t290.5 57.5q169 0 284 -78z M643 770q-92 0 -157.5 -84.5t-65.5 -210.5v-10l295 283q-31 22 -72 22zM545 307q92 0 158.5 84.5t66.5 210.5q0 19 -2 27l-303 -289q29 -33 80 -33z" />
<glyph unicode="&#x200;" horiz-adv-x="1302" d="M475 1882h283l12 -291l-205 -28zM856 1882h281l14 -291l-205 -28zM655 1454h367l162 -1454h-406l-14 285h-348l-133 -285h-408zM758 551l-17 450l-211 -450h228z" />
<glyph unicode="&#x201;" horiz-adv-x="1323" d="M412 1505h282l13 -291l-205 -28zM793 1505h280l14 -291l-204 -28zM14 414q0 182 80 340t214.5 251t287.5 93q97 0 168 -48t96 -132l33 151h391l-137 -639q-6 -30 -6 -49q0 -27 12.5 -39t42.5 -14l-70 -328q-103 -20 -165 -20q-96 0 -147.5 36.5t-51.5 120.5q0 21 2 31 q-71 -94 -167.5 -141t-201.5 -47q-176 0 -278.5 119.5t-102.5 314.5zM758 418l41 192q-11 71 -51 115.5t-95 44.5q-87 0 -158 -89.5t-71 -203.5q0 -78 39 -124t108 -46q48 0 91 26.5t96 84.5z" />
<glyph unicode="&#x202;" horiz-adv-x="1302" d="M926 1880q122 0 190 -71.5t68 -184.5q0 -22 -8 -76h-201q6 38 6 66q0 100 -92 100q-122 0 -154 -166h-198q31 146 139.5 239t249.5 93zM655 1454h367l162 -1454h-406l-14 285h-348l-133 -285h-408zM758 551l-17 450l-211 -450h228z" />
<glyph unicode="&#x203;" horiz-adv-x="1323" d="M862 1503q122 0 190 -71.5t68 -184.5q0 -22 -8 -76h-201q7 44 7 66q0 100 -93 100q-121 0 -153 -166h-199q31 146 139.5 239t249.5 93zM14 414q0 182 80 340t214.5 251t287.5 93q97 0 168 -48t96 -132l33 151h391l-137 -639q-6 -30 -6 -49q0 -27 12.5 -39t42.5 -14 l-70 -328q-103 -20 -165 -20q-96 0 -147.5 36.5t-51.5 120.5q0 21 2 31q-71 -94 -167.5 -141t-201.5 -47q-176 0 -278.5 119.5t-102.5 314.5zM758 418l41 192q-11 71 -51 115.5t-95 44.5q-87 0 -158 -89.5t-71 -203.5q0 -78 39 -124t108 -46q48 0 91 26.5t96 84.5z" />
<glyph unicode="&#x204;" horiz-adv-x="1177" d="M420 1882h282l13 -291l-205 -28zM801 1882h280l15 -291l-205 -28zM303 1454h971l-74 -348h-571l-43 -205h487l-69 -323h-488l-49 -230h590l-74 -348h-989z" />
<glyph unicode="&#x205;" horiz-adv-x="1159" d="M637 1206l-205 -28l-90 319h283zM1018 1206l-205 -28l-90 319h281zM551 258q132 0 201 111l305 -99q-91 -130 -251 -210t-329 -80q-211 0 -337 124.5t-126 331.5q0 136 56 258.5t151 211t226.5 140.5t277.5 52q195 0 305.5 -83t110.5 -231q0 -181 -168 -273.5t-494 -92.5 h-59v-2q0 -85 30.5 -121.5t100.5 -36.5zM655 821q-57 0 -107 -46t-83 -124h12q158 0 220.5 19.5t62.5 70.5q0 35 -29.5 57.5t-75.5 22.5z" />
<glyph unicode="&#x206;" horiz-adv-x="1177" d="M870 1880q122 0 190 -71.5t68 -184.5q0 -22 -8 -76h-200q6 38 6 66q0 100 -92 100q-122 0 -154 -166h-199q31 146 139.5 239t249.5 93zM303 1454h971l-74 -348h-571l-43 -205h487l-69 -323h-488l-49 -230h590l-74 -348h-989z" />
<glyph unicode="&#x207;" horiz-adv-x="1159" d="M756 1329q-122 0 -154 -166h-199q31 146 140 239t250 93q122 0 190 -71.5t68 -184.5q0 -15 -9 -76h-200q6 38 6 66q0 100 -92 100zM551 258q132 0 201 111l305 -99q-91 -130 -251 -210t-329 -80q-211 0 -337 124.5t-126 331.5q0 136 56 258.5t151 211t226.5 140.5 t277.5 52q195 0 305.5 -83t110.5 -231q0 -181 -168 -273.5t-494 -92.5h-59v-2q0 -85 30.5 -121.5t100.5 -36.5zM655 821q-57 0 -107 -46t-83 -124h12q158 0 220.5 19.5t62.5 70.5q0 35 -29.5 57.5t-75.5 22.5z" />
<glyph unicode="&#x208;" horiz-adv-x="649" d="M156 1882h282l13 -291l-205 -28zM537 1882h280l14 -291l-204 -28zM303 1454h399l-309 -1454h-399z" />
<glyph unicode="&#x209;" horiz-adv-x="585" d="M27 1505h282l13 -291l-205 -28zM408 1505h280l14 -291l-204 -28zM197 1077h389l-230 -1077h-389z" />
<glyph unicode="&#x20a;" horiz-adv-x="649" d="M606 1880q122 0 190 -71.5t68 -184.5q0 -22 -8 -76h-201q7 44 7 66q0 100 -93 100q-121 0 -153 -166h-199q31 146 139.5 239t249.5 93zM303 1454h399l-309 -1454h-399z" />
<glyph unicode="&#x20b;" horiz-adv-x="585" d="M477 1503q122 0 190 -71.5t68 -184.5q0 -22 -8 -76h-201q6 37 6 66q0 100 -92 100q-121 0 -153 -166h-199q31 146 139.5 239t249.5 93zM197 1077h389l-230 -1077h-389z" />
<glyph unicode="&#x20c;" horiz-adv-x="1511" d="M573 1878h283l12 -291l-204 -28zM954 1878h281l14 -291l-205 -28zM57 598q0 162 73 320t192.5 277.5t283.5 193t336 73.5q131 0 239 -51t177 -136.5t106 -194t37 -228.5q0 -161 -72 -318.5t-190.5 -277.5t-282 -194t-335.5 -74q-132 0 -240.5 50.5t-178 136t-107.5 194.5 t-38 229zM1094 825q0 123 -58 203t-176 80q-75 0 -140 -29.5t-110.5 -78t-78.5 -111t-48.5 -129t-15.5 -131.5q0 -125 57 -206t174 -81q76 0 141.5 30t111.5 79.5t79 112.5t48.5 129.5t15.5 131.5z" />
<glyph unicode="&#x20d;" d="M344 1497h283l12 -291l-205 -28zM725 1497h281l14 -291l-205 -28zM14 438q0 130 47.5 249t133.5 210.5t216.5 146t284.5 54.5q124 0 218 -35.5t150 -99t83 -144.5t27 -178q0 -130 -47.5 -249t-133.5 -211t-216.5 -146.5t-284.5 -54.5q-124 0 -218 35.5t-150 99.5t-83 145 t-27 178zM768 598q0 82 -33 127t-94 45q-89 0 -155 -84.5t-66 -206.5q0 -82 33 -127t94 -45q89 0 155 84.5t66 206.5z" />
<glyph unicode="&#x20e;" horiz-adv-x="1511" d="M1024 1876q122 0 190 -71.5t68 -184.5q0 -22 -8 -76h-201q6 37 6 66q0 100 -92 100q-121 0 -153 -166h-199q31 146 139.5 239t249.5 93zM57 598q0 162 73 320t192.5 277.5t283.5 193t336 73.5q131 0 239 -51t177 -136.5t106 -194t37 -228.5q0 -161 -72 -318.5 t-190.5 -277.5t-282 -194t-335.5 -74q-132 0 -240.5 50.5t-178 136t-107.5 194.5t-38 229zM1094 825q0 123 -58 203t-176 80q-75 0 -140 -29.5t-110.5 -78t-78.5 -111t-48.5 -129t-15.5 -131.5q0 -125 57 -206t174 -81q76 0 141.5 30t111.5 79.5t79 112.5t48.5 129.5 t15.5 131.5z" />
<glyph unicode="&#x20f;" d="M795 1495q122 0 190 -71.5t68 -184.5q0 -15 -9 -76h-200q6 38 6 66q0 100 -92 100q-122 0 -154 -166h-198q31 146 139.5 239t249.5 93zM14 438q0 130 47.5 249t133.5 210.5t216.5 146t284.5 54.5q124 0 218 -35.5t150 -99t83 -144.5t27 -178q0 -130 -47.5 -249 t-133.5 -211t-216.5 -146.5t-284.5 -54.5q-124 0 -218 35.5t-150 99.5t-83 145t-27 178zM768 598q0 82 -33 127t-94 45q-89 0 -155 -84.5t-66 -206.5q0 -82 33 -127t94 -45q89 0 155 84.5t66 206.5z" />
<glyph unicode="&#x210;" horiz-adv-x="1337" d="M463 1882h282l13 -291l-205 -28zM844 1882h280l15 -291l-205 -28zM-6 0l309 1454h639q113 0 200 -61t130 -155.5t43 -203.5q0 -142 -79 -277t-210 -222l174 -535h-450l-142 446h-121l-94 -446h-399zM784 795q38 0 78.5 58.5t40.5 139.5q0 52 -18.5 82.5t-44.5 30.5h-211 l-66 -311h221z" />
<glyph unicode="&#x211;" horiz-adv-x="835" d="M133 1497h283l12 -291l-205 -28zM514 1497h281l14 -291l-205 -28zM197 1077h356l-45 -205q78 107 171.5 166.5t184.5 59.5q37 0 45 -2l-73 -351q-241 0 -344 -106l-136 -639h-389z" />
<glyph unicode="&#x212;" horiz-adv-x="1337" d="M913 1880q122 0 190 -71.5t68 -184.5q0 -22 -8 -76h-200q6 38 6 66q0 100 -92 100q-122 0 -154 -166h-199q31 146 139.5 239t249.5 93zM-6 0l309 1454h639q113 0 200 -61t130 -155.5t43 -203.5q0 -142 -79 -277t-210 -222l174 -535h-450l-142 446h-121l-94 -446h-399z M784 795q38 0 78.5 58.5t40.5 139.5q0 52 -18.5 82.5t-44.5 30.5h-211l-66 -311h221z" />
<glyph unicode="&#x213;" horiz-adv-x="835" d="M584 1495q122 0 190 -71.5t68 -184.5q0 -22 -8 -76h-201q6 38 6 66q0 100 -92 100q-122 0 -154 -166h-198q31 146 139.5 239t249.5 93zM197 1077h356l-45 -205q78 107 171.5 166.5t184.5 59.5q37 0 45 -2l-73 -351q-241 0 -344 -106l-136 -639h-389z" />
<glyph unicode="&#x214;" horiz-adv-x="1460" d="M541 1878h282l13 -291l-205 -28zM922 1878h280l15 -291l-205 -28zM98 487q0 101 25 220l160 747h399l-160 -747q-16 -82 -16 -146q0 -101 40.5 -160t125.5 -59q59 0 110.5 30t88.5 82.5t63.5 116t42.5 136.5l160 747h399l-160 -747q-33 -155 -99 -284t-162 -227 t-229.5 -153t-289.5 -55q-130 0 -227.5 37.5t-155.5 105.5t-86.5 157t-28.5 199z" />
<glyph unicode="&#x215;" horiz-adv-x="1265" d="M383 1505h283l12 -291l-205 -28zM764 1505h280l15 -291l-205 -28zM18 233q0 53 17 136l151 708h387l-131 -620q-6 -30 -6 -56q0 -45 20.5 -69.5t57.5 -24.5q87 0 184 111l142 659h389l-137 -647q-7 -35 -7 -49q0 -27 13 -39t43 -14l-70 -328q-103 -20 -168 -20 q-201 0 -201 149q0 4 5 39q-174 -188 -437 -188q-123 0 -187.5 64.5t-64.5 188.5z" />
<glyph unicode="&#x216;" horiz-adv-x="1460" d="M991 1876q122 0 190 -71.5t68 -184.5q0 -22 -8 -76h-201q7 44 7 66q0 100 -93 100q-121 0 -153 -166h-199q31 146 139.5 239t249.5 93zM98 487q0 101 25 220l160 747h399l-160 -747q-16 -82 -16 -146q0 -101 40.5 -160t125.5 -59q59 0 110.5 30t88.5 82.5t63.5 116 t42.5 136.5l160 747h399l-160 -747q-33 -155 -99 -284t-162 -227t-229.5 -153t-289.5 -55q-130 0 -227.5 37.5t-155.5 105.5t-86.5 157t-28.5 199z" />
<glyph unicode="&#x217;" horiz-adv-x="1265" d="M834 1503q122 0 190 -71.5t68 -184.5q0 -15 -9 -76h-200q6 37 6 66q0 100 -92 100q-122 0 -154 -166h-199q31 146 140 239t250 93zM18 233q0 53 17 136l151 708h387l-131 -620q-6 -30 -6 -56q0 -45 20.5 -69.5t57.5 -24.5q87 0 184 111l142 659h389l-137 -647 q-7 -35 -7 -49q0 -27 13 -39t43 -14l-70 -328q-103 -20 -168 -20q-201 0 -201 149q0 4 5 39q-174 -188 -437 -188q-123 0 -187.5 64.5t-64.5 188.5z" />
<glyph unicode="&#x218;" d="M811 895q82 -31 136 -59.5t101.5 -70t70 -98t22.5 -130.5q0 -100 -26.5 -184.5t-74 -144t-108.5 -104t-134 -71t-146.5 -39t-149.5 -12.5q-150 0 -305.5 46.5t-264.5 123.5l246 350q1 -3 22.5 -19.5t62 -40.5t89 -46t111.5 -38t121 -16q63 0 84.5 20.5t21.5 55.5 q0 21 -13.5 38t-42.5 31.5t-56.5 25t-75.5 26.5t-78 28q-138 55 -203 131t-65 191q0 107 36 200.5t98 161.5t143 117t172.5 73.5t185.5 24.5q225 0 489 -157l-242 -330q-2 7 -49.5 37.5t-130.5 63t-156 32.5q-47 0 -77.5 -22t-30.5 -64q0 -10 3 -19t10 -17.5t14.5 -15 t21 -13.5t24.5 -12.5t30.5 -13t33.5 -12.5t38.5 -13.5t41.5 -14.5zM268 -311l47 217h320l-45 -217l-137 -125h-168l100 125h-117z" />
<glyph unicode="&#x219;" horiz-adv-x="993" d="M-55 160l180 233q171 -141 315 -141q74 0 74 61q0 24 -26 44.5t-89 41.5q-180 60 -253.5 118.5t-73.5 150.5q0 118 68.5 217.5t185.5 157t254 57.5q123 0 215.5 -33.5t175.5 -122.5l-195 -233q-86 66 -142.5 93t-109.5 27q-34 0 -54.5 -17.5t-20.5 -47.5q0 -26 27 -44 t99 -40q179 -54 253.5 -117.5t74.5 -163.5q0 -188 -141.5 -304.5t-370.5 -116.5q-137 0 -257 47t-189 133zM152 -436l100 125h-117l47 217h320l-45 -217l-138 -125h-167z" />
<glyph unicode="&#x21a;" horiz-adv-x="1228" d="M520 1106h-391l74 348h1179l-73 -348h-389l-236 -1106h-399zM270 -436l101 125h-117l47 217h320l-46 -217l-137 -125h-168z" />
<glyph unicode="&#x21b;" horiz-adv-x="849" d="M92 197q0 50 10 94l105 493h-125l63 293h125l72 338h389l-72 -338h197l-61 -293h-199l-76 -356q-4 -28 -4 -37q0 -59 62 -59q44 0 137 35l4 -308q-208 -82 -367 -82q-119 0 -189.5 52.5t-70.5 167.5zM96 -436l101 125h-117l47 217h319l-45 -217l-137 -125h-168z" />
<glyph unicode="&#x22a;" horiz-adv-x="1511" d="M754 2013l49 232h606l-49 -232h-606zM571 1561l62 286h319l-61 -286h-320zM1032 1561l62 286h317l-59 -286h-320zM57 598q0 162 73 320t192.5 277.5t283.5 193t336 73.5q131 0 239 -51t177 -136.5t106 -194t37 -228.5q0 -161 -72 -318.5t-190.5 -277.5t-282 -194 t-335.5 -74q-132 0 -240.5 50.5t-178 136t-107.5 194.5t-38 229zM1094 825q0 123 -58 203t-176 80q-75 0 -140 -29.5t-110.5 -78t-78.5 -111t-48.5 -129t-15.5 -131.5q0 -125 57 -206t174 -81q76 0 141.5 30t111.5 79.5t79 112.5t48.5 129.5t15.5 131.5z" />
<glyph unicode="&#x22b;" d="M524 1632l49 232h607l-50 -232h-606zM342 1180l61 286h320l-61 -286h-320zM803 1180l61 286h318l-60 -286h-319zM14 438q0 130 47.5 249t133.5 210.5t216.5 146t284.5 54.5q124 0 218 -35.5t150 -99t83 -144.5t27 -178q0 -130 -47.5 -249t-133.5 -211t-216.5 -146.5 t-284.5 -54.5q-124 0 -218 35.5t-150 99.5t-83 145t-27 178zM768 598q0 82 -33 127t-94 45q-89 0 -155 -84.5t-66 -206.5q0 -82 33 -127t94 -45q89 0 155 84.5t66 206.5z" />
<glyph unicode="&#x22c;" horiz-adv-x="1511" d="M758 2034l49 231h606l-49 -231h-606zM852 1642q-25 0 -45 -10t-31.5 -23.5t-19.5 -28.5t-10.5 -24t-2.5 -12h-206q5 24 22 61.5t49 83.5t71 85.5t93.5 66.5t110.5 27q43 0 79.5 -16.5t56.5 -36t48 -36t57 -16.5t53 14.5t38 37t19.5 33.5t8.5 20h205q-4 -17 -21 -52 t-50 -82.5t-73 -89t-96.5 -71t-113.5 -29.5q-40 0 -75.5 15.5t-57 33.5t-51 33.5t-58.5 15.5zM57 598q0 162 73 320t192.5 277.5t283.5 193t336 73.5q131 0 239 -51t177 -136.5t106 -194t37 -228.5q0 -161 -72 -318.5t-190.5 -277.5t-282 -194t-335.5 -74 q-132 0 -240.5 50.5t-178 136t-107.5 194.5t-38 229zM1094 825q0 123 -58 203t-176 80q-75 0 -140 -29.5t-110.5 -78t-78.5 -111t-48.5 -129t-15.5 -131.5q0 -125 57 -206t174 -81q76 0 141.5 30t111.5 79.5t79 112.5t48.5 129.5t15.5 131.5z" />
<glyph unicode="&#x22d;" d="M528 1653l50 231h606l-49 -231h-607zM623 1262q-25 0 -45 -10t-31.5 -23.5t-19.5 -29t-10.5 -24.5t-2.5 -12h-207q5 24 22 61.5t49 83.5t71 85.5t93.5 66.5t110.5 27q43 0 79.5 -16.5t57 -36t48.5 -36t57 -16.5t53 14.5t38 37t19.5 33.5t8.5 20h205q-3 -13 -16 -40.5 t-35 -64.5t-54.5 -75t-69.5 -70.5t-84.5 -53t-95.5 -20.5q-40 0 -75.5 15.5t-57 34t-50.5 34t-58 15.5zM14 438q0 130 47.5 249t133.5 210.5t216.5 146t284.5 54.5q124 0 218 -35.5t150 -99t83 -144.5t27 -178q0 -130 -47.5 -249t-133.5 -211t-216.5 -146.5t-284.5 -54.5 q-124 0 -218 35.5t-150 99.5t-83 145t-27 178zM768 598q0 82 -33 127t-94 45q-89 0 -155 -84.5t-66 -206.5q0 -82 33 -127t94 -45q89 0 155 84.5t66 206.5z" />
<glyph unicode="&#x230;" horiz-adv-x="1511" d="M758 2034l49 231h606l-49 -231h-606zM786 1561l66 307h348l-65 -307h-349zM57 598q0 162 73 320t192.5 277.5t283.5 193t336 73.5q131 0 239 -51t177 -136.5t106 -194t37 -228.5q0 -161 -72 -318.5t-190.5 -277.5t-282 -194t-335.5 -74q-132 0 -240.5 50.5t-178 136 t-107.5 194.5t-38 229zM1094 825q0 123 -58 203t-176 80q-75 0 -140 -29.5t-110.5 -78t-78.5 -111t-48.5 -129t-15.5 -131.5q0 -125 57 -206t174 -81q76 0 141.5 30t111.5 79.5t79 112.5t48.5 129.5t15.5 131.5z" />
<glyph unicode="&#x231;" d="M528 1653l50 231h606l-49 -231h-607zM557 1180l66 307h348l-66 -307h-348zM14 438q0 130 47.5 249t133.5 210.5t216.5 146t284.5 54.5q124 0 218 -35.5t150 -99t83 -144.5t27 -178q0 -130 -47.5 -249t-133.5 -211t-216.5 -146.5t-284.5 -54.5q-124 0 -218 35.5t-150 99.5 t-83 145t-27 178zM768 598q0 82 -33 127t-94 45q-89 0 -155 -84.5t-66 -206.5q0 -82 33 -127t94 -45q89 0 155 84.5t66 206.5z" />
<glyph unicode="&#x232;" horiz-adv-x="1284" d="M526 1616l49 231h607l-49 -231h-607zM406 485l-259 969h433l96 -629l371 629h434l-680 -973l-103 -481h-397z" />
<glyph unicode="&#x233;" horiz-adv-x="1112" d="M356 1235l50 231h606l-49 -231h-607zM-115 -190q118 0 175.5 19.5t107.5 78.5l59 69l-141 1100h395l25 -747l69 114q160 265 230 633h373q-56 -201 -139 -372.5t-283 -493.5l-164 -264q-145 -234 -296 -330t-366 -96z" />
<glyph unicode="&#x237;" horiz-adv-x="585" d="M-416 -317l215 264q23 -41 78 -41q33 0 56 23t32 65l230 1083h391l-224 -1052q-43 -201 -183.5 -327t-321.5 -126q-171 0 -273 111z" />
<glyph unicode="&#x259;" horiz-adv-x="1210" d="M465 -20q-115 0 -204.5 32.5t-145 90t-83.5 133.5t-28 167q0 126 49 254h707q2 10 2 33q0 64 -38 96.5t-93 32.5q-59 0 -115.5 -29.5t-81.5 -78.5l-309 94q95 134 244 213.5t333 79.5q113 0 203 -35t146 -96.5t85 -141t29 -170.5q0 -128 -49 -248.5t-136.5 -215.5 t-222 -153t-292.5 -58zM528 256q64 0 114.5 44.5t76.5 123.5h-305q-2 -10 -2 -31q0 -65 30 -101t86 -36z" />
<glyph unicode="&#x2b9;" horiz-adv-x="552" d="M211 1016l117 479h319l-188 -479h-248z" />
<glyph unicode="&#x2ba;" horiz-adv-x="1040" d="M211 1016l117 479h319l-188 -479h-248zM698 1016l117 479h320l-189 -479h-248z" />
<glyph unicode="&#x2bb;" horiz-adv-x="518" d="M580 1495l-101 -121h115l-49 -196h-307l47 196l135 121h160z" />
<glyph unicode="&#x2bc;" horiz-adv-x="546" d="M455 1139l-222 65l144 291h332z" />
<glyph unicode="&#x2be;" horiz-adv-x="276" d="M166 1124l31 115q24 0 44.5 28.5t20.5 63.5q0 64 -24 64l30 114q65 0 99 -42t34 -115q0 -102 -65.5 -165t-169.5 -63z" />
<glyph unicode="&#x2bf;" horiz-adv-x="274" d="M340 1124q-66 0 -100.5 42t-34.5 116q0 102 65.5 164.5t169.5 62.5l-30 -114q-24 0 -44 -27.5t-20 -60.5q0 -68 25 -68z" />
<glyph unicode="&#x2c6;" horiz-adv-x="927" d="M256 1260l272 235h279l172 -235l-215 -86l-137 129l-193 -129z" />
<glyph unicode="&#x2c7;" horiz-adv-x="927" d="M287 1409l215 86l137 -129l192 129l179 -86l-273 -235h-278z" />
<glyph unicode="&#x2c8;" horiz-adv-x="489" d="M532 1587v-786h-327v786h327z" />
<glyph unicode="&#x2c9;" horiz-adv-x="845" d="M281 1243l53 232h579l-53 -232h-579z" />
<glyph unicode="&#x2cb;" horiz-adv-x="534" d="M262 1016l49 479h318l-119 -479h-248z" />
<glyph unicode="&#x2cc;" horiz-adv-x="489" d="M305 520v-786h-328v786h328z" />
<glyph unicode="&#x2d8;" horiz-adv-x="843" d="M743 1495h201q-31 -146 -139.5 -239t-249.5 -93q-121 0 -190.5 67.5t-69.5 180.5q0 36 10 84h201q-6 -24 -6 -47q0 -51 25.5 -85t64.5 -34q44 0 87.5 47t65.5 119z" />
<glyph unicode="&#x2d9;" horiz-adv-x="552" d="M240 1188l65 307h348l-65 -307h-348z" />
<glyph unicode="&#x2da;" horiz-adv-x="679" d="M545 1495q95 0 147.5 -36.5t52.5 -106.5q0 -102 -75 -157.5t-201 -55.5q-95 0 -149 37t-54 106q0 102 76 157.5t203 55.5zM428 1307q0 -26 17.5 -42t46.5 -16q37 0 65.5 23.5t28.5 56.5q0 25 -18.5 40t-47.5 15q-39 0 -65.5 -22t-26.5 -55z" />
<glyph unicode="&#x2db;" horiz-adv-x="559" d="M-63 -256q0 76 71.5 159.5t198.5 147.5h131l4 -49q-154 -99 -154 -170q0 -65 93 -65l-117 -205q-105 17 -166 67t-61 115z" />
<glyph unicode="&#x2dc;" horiz-adv-x="1048" d="M553 1270q-25 0 -45 -10t-31.5 -23.5t-19.5 -29t-10.5 -24.5t-2.5 -12h-206q5 24 22 61.5t49 83.5t71 85.5t93.5 66.5t110.5 27q43 0 79.5 -16.5t56.5 -35.5t48 -35.5t57 -16.5t53 14.5t38 36.5t19.5 33t8.5 20h205q-4 -17 -21 -52t-50 -82.5t-73 -89t-96.5 -71 t-113.5 -29.5q-40 0 -75.5 15.5t-57 34t-51 34t-58.5 15.5z" />
<glyph unicode="&#x2dd;" horiz-adv-x="942" d="M446 1186l-202 18l137 291h283zM825 1186l-200 18l135 291h282z" />
<glyph unicode="&#x300;" horiz-adv-x="0" d="M-340 1495h344l35 -291l-270 -28z" />
<glyph unicode="&#x301;" horiz-adv-x="0" d="M-139 1180l-262 24l157 291h344z" />
<glyph unicode="&#x302;" horiz-adv-x="0" d="M-672 1260l273 235h278l172 -235l-215 -86l-137 129l-193 -129z" />
<glyph unicode="&#x303;" horiz-adv-x="0" d="M-496 1270q-25 0 -45 -10t-31 -23.5t-19 -29t-10.5 -24.5t-2.5 -12h-207q5 24 22 61.5t49 83.5t71 85.5t93.5 66.5t110.5 27q43 0 79.5 -16.5t57 -35.5t48.5 -35.5t57 -16.5t53 14.5t38 36.5t19.5 33t8.5 20h204q-4 -17 -21 -52t-50 -82.5t-73 -89t-96.5 -71 t-113.5 -29.5q-40 0 -75.5 15.5t-57 34t-51 34t-58.5 15.5z" />
<glyph unicode="&#x304;" horiz-adv-x="0" d="M-559 1243l49 232h606l-49 -232h-606z" />
<glyph unicode="&#x306;" horiz-adv-x="0" d="M-100 1495h200q-31 -146 -139.5 -239t-249.5 -93q-121 0 -190.5 67.5t-69.5 180.5q0 36 10 84h201q-6 -24 -6 -47q0 -51 25.5 -85t64.5 -34q44 0 88 47t66 119z" />
<glyph unicode="&#x307;" horiz-adv-x="0" d="M-313 1188l65 307h348l-65 -307h-348z" />
<glyph unicode="&#x308;" horiz-adv-x="0" d="M-745 1188l61 287h319l-61 -287h-319zM-285 1188l62 287h317l-59 -287h-320z" />
<glyph unicode="&#x309;" horiz-adv-x="0" d="M-268 1384l-66 103q164 121 285 121q91 0 127.5 -47t7.5 -125q-30 -78 -85 -130.5t-165 -121.5l-55 96q96 52 113 98q9 27 -1 44.5t-38 17.5q-19 0 -39.5 -8t-35 -17t-48.5 -31z" />
<glyph unicode="&#x30a;" horiz-adv-x="0" d="M-135 1495q95 0 148 -36.5t53 -106.5q0 -102 -75.5 -157.5t-201.5 -55.5q-95 0 -149 37t-54 106q0 102 76 157.5t203 55.5zM-252 1307q0 -26 17.5 -42t46.5 -16q37 0 65.5 23.5t28.5 56.5q0 25 -18.5 40t-47.5 15q-39 0 -65.5 -22t-26.5 -55z" />
<glyph unicode="&#x30b;" horiz-adv-x="0" d="M-496 1186l-202 18l137 291h282zM-117 1186l-200 18l135 291h282z" />
<glyph unicode="&#x30c;" horiz-adv-x="0" d="M-641 1409l215 86l137 -129l193 129l178 -86l-272 -235h-279z" />
<glyph unicode="&#x30f;" horiz-adv-x="0" d="M-637 1495h283l12 -291l-205 -28zM-256 1495h281l14 -291l-205 -28z" />
<glyph unicode="&#x311;" horiz-adv-x="0" d="M-219 1495q122 0 190 -71.5t68 -184.5q0 -22 -8 -76h-201q6 38 6 66q0 100 -92 100q-122 0 -154 -166h-198q31 146 139.5 239t249.5 93z" />
<glyph unicode="&#x312;" horiz-adv-x="0" d="M61 1495l-100 -121h115l-49 -196h-308l48 196l135 121h159z" />
<glyph unicode="&#x31b;" horiz-adv-x="0" d="M-512 963l55 262q79 0 129.5 10t83.5 37q13 11 22.5 24t16 29.5t9.5 27.5t8.5 33t7.5 31h264q-28 -128 -53 -185q-43 -93 -121 -155q-61 -49 -182 -81.5t-240 -32.5z" />
<glyph unicode="&#x323;" horiz-adv-x="0" d="M-657 -436l65 307h348l-65 -307h-348z" />
<glyph unicode="&#x324;" horiz-adv-x="0" d="M-1155 -438l65 286h316l-66 -286h-315zM-713 -438l66 286h315l-65 -286h-316z" />
<glyph unicode="&#x326;" horiz-adv-x="0" d="M-588 -436l101 125h-117l47 217h319l-45 -217l-137 -125h-168z" />
<glyph unicode="&#x327;" horiz-adv-x="0" d="M-543 -451q-108 0 -209 70l134 199q23 -39 65 -39q33 0 58.5 27t25.5 71q0 59 -33 123l135 74q107 -128 107 -248q0 -70 -31 -132t-97 -103.5t-155 -41.5z" />
<glyph unicode="&#x328;" horiz-adv-x="0" d="M-623 -256q0 76 72 159.5t199 147.5h131l4 -49q-154 -99 -154 -170q0 -65 92 -65l-116 -205q-105 17 -166.5 67t-61.5 115z" />
<glyph unicode="&#x32e;" horiz-adv-x="0" d="M-565 -436q-134 0 -195.5 92.5t-27.5 239.5h194q-15 -68 4.5 -117t63.5 -49q40 0 80.5 47t62.5 119h195q-34 -147 -139 -239.5t-238 -92.5z" />
<glyph unicode="&#x331;" horiz-adv-x="0" d="M-883 -383l54 231h579l-53 -231h-580z" />
<glyph unicode="&#x335;" horiz-adv-x="0" d="M-764 465l51 223h643l-51 -223h-643z" />
<glyph unicode="&#x3c0;" horiz-adv-x="1513" d="M764 291v450h-143v-741h-388v741h-143v328h1227v-328h-164v-313q0 -123 100 -123q50 0 107 31l49 -287q-68 -32 -156 -50.5t-166 -18.5q-156 0 -239.5 80.5t-83.5 230.5z" />
<glyph unicode="&#x400;" horiz-adv-x="1177" d="M537 1872h344l34 -291l-270 -29zM303 1454h971l-74 -348h-571l-43 -205h487l-69 -323h-488l-49 -230h590l-74 -348h-989z" />
<glyph unicode="&#x401;" horiz-adv-x="1177" d="M418 1565l61 286h320l-62 -286h-319zM879 1565l61 286h317l-59 -286h-319zM303 1454h971l-74 -348h-571l-43 -205h487l-69 -323h-488l-49 -230h590l-74 -348h-989z" />
<glyph unicode="&#x402;" horiz-adv-x="1714" d="M1165 961q240 0 362 -135.5t91 -354.5q-32 -230 -192 -360.5t-410 -130.5q-143 0 -268 45l149 321q65 -37 129 -37q86 0 152 44.5t79 138.5q10 81 -44 127.5t-148 46.5q-129 0 -254 -70l-127 -596h-399l235 1106h-391l74 348h1179l-73 -348h-389l-43 -201q133 56 288 56z " />
<glyph unicode="&#x403;" horiz-adv-x="1112" d="M958 1565l-262 24l158 291h344zM-20 0l307 1454h948l-74 -348h-549l-233 -1106h-399z" />
<glyph unicode="&#x404;" horiz-adv-x="1449" d="M758 342q92 0 179 43.5t134 134.5l299 -194q-56 -103 -170 -182t-244.5 -117.5t-257.5 -38.5q-125 0 -234.5 42t-187 115t-129.5 168t-70.5 205t-2.5 221q15 107 61.5 211t123.5 196.5t175 163t224 111.5t262 41q205 0 349 -85.5t201 -231.5l-335 -217q-16 66 -63 108.5 t-99 57t-113 14.5q-111 0 -193.5 -57t-131.5 -150h393l-66 -317h-383q20 -108 92.5 -175t186.5 -67z" />
<glyph unicode="&#x405;" d="M811 895q82 -31 136 -59.5t101.5 -70t70 -98t22.5 -130.5q0 -100 -26.5 -184.5t-74 -144t-108.5 -104t-134 -71t-146.5 -39t-149.5 -12.5q-150 0 -305.5 46.5t-264.5 123.5l246 350q1 -3 22.5 -19.5t62 -40.5t89 -46t111.5 -38t121 -16q63 0 84.5 20.5t21.5 55.5 q0 21 -13.5 38t-42.5 31.5t-56.5 25t-75.5 26.5t-78 28q-138 55 -203 131t-65 191q0 107 36 200.5t98 161.5t143 117t172.5 73.5t185.5 24.5q225 0 489 -157l-242 -330q-2 7 -49.5 37.5t-130.5 63t-156 32.5q-47 0 -77.5 -22t-30.5 -64q0 -10 3 -19t10 -17.5t14.5 -15 t21 -13.5t24.5 -12.5t30.5 -13t33.5 -12.5t38.5 -13.5t41.5 -14.5z" />
<glyph unicode="&#x406;" horiz-adv-x="649" d="M303 1454h399l-309 -1454h-399z" />
<glyph unicode="&#x407;" horiz-adv-x="649" d="M154 1565l61 286h320l-62 -286h-319zM614 1565l62 286h317l-59 -286h-320zM303 1454h399l-309 -1454h-399z" />
<glyph unicode="&#x408;" horiz-adv-x="999" d="M-98 68l151 325q7 -8 32 -21.5t74 -26.5t99 -13q109 0 158 81t96 302l158 739h399l-158 -739q-22 -104 -43.5 -181t-53 -158t-69.5 -138t-91.5 -109t-120 -83.5t-155 -50t-196.5 -18.5q-172 0 -280 91z" />
<glyph unicode="&#x409;" horiz-adv-x="2179" d="M-45 -14l72 344q45 0 78 11t65 41.5t57 76.5t53.5 124t56 174.5t62.5 237.5l115 459h1053l-101 -481h160q245 0 368.5 -128.5t92.5 -352.5q-31 -227 -186.5 -359.5t-391.5 -132.5h-649l234 1106h-283l-57 -229q-47 -186 -88.5 -315.5t-93.5 -233t-107.5 -165.5 t-132.5 -103.5t-166 -57t-211 -16.5zM1327 324h170q77 0 125 44.5t57 123.5q8 66 -27 111.5t-108 45.5h-147z" />
<glyph unicode="&#x40a;" horiz-adv-x="2146" d="M-6 0l309 1454h399l-114 -536h434l115 536h399l-102 -481h159q245 0 368.5 -128.5t92.5 -352.5q-31 -227 -186 -359.5t-391 -132.5h-650l121 569h-434l-121 -569h-399zM1294 324h170q78 0 126 44.5t57 123.5q8 65 -27.5 111t-108.5 46h-147z" />
<glyph unicode="&#x40b;" horiz-adv-x="1605" d="M1073 954q232 0 346.5 -135.5t77.5 -410.5l-86 -408h-391l94 440q22 103 -23 162.5t-143 59.5q-112 0 -252 -82l-123 -580h-399l236 1116h-279l72 338h1155l-72 -338h-477l-47 -227q141 65 311 65z" />
<glyph unicode="&#x40c;" horiz-adv-x="1454" d="M1051 1565l-263 24l158 291h344zM-4 0l307 1454h397l-112 -534h53l483 534h484l-680 -676l360 -778h-461l-221 557h-96l-117 -557h-397z" />
<glyph unicode="&#x40d;" horiz-adv-x="1511" d="M711 1872h344l35 -291l-271 -29zM-4 0l307 1454h399l-190 -899l678 899h373l-308 -1454h-399l180 846l-661 -846h-379z" />
<glyph unicode="&#x40e;" horiz-adv-x="1396" d="M881 1524q-193 0 -297.5 95t-81.5 257h301q-7 -55 25 -87t85 -32q52 0 94.5 32t49.5 87h301q-23 -163 -153.5 -257.5t-323.5 -94.5zM209 -14l70 327h174q30 0 50.5 12t43.5 37l12 15l-405 1077h440l180 -692l365 692h411l-729 -1243q-80 -126 -173.5 -175.5t-239.5 -49.5 h-199z" />
<glyph unicode="&#x40f;" horiz-adv-x="1478" d="M381 -279l59 279h-444l307 1454h399l-233 -1106h428l233 1106h400l-307 -1454h-445l-59 -279h-338z" />
<glyph unicode="&#x410;" horiz-adv-x="1302" d="M655 1454h367l162 -1454h-406l-14 285h-348l-133 -285h-408zM758 551l-17 450l-211 -450h228z" />
<glyph unicode="&#x411;" horiz-adv-x="1406" d="M-6 0l309 1454h1112l-72 -342h-712l-47 -221h315q246 0 361.5 -115.5t85.5 -320.5q-31 -216 -173 -335.5t-380 -119.5h-799zM465 336h317q69 0 107 38.5t47 92.5q9 53 -17.5 86t-103.5 33h-297z" />
<glyph unicode="&#x412;" horiz-adv-x="1366" d="M303 1454h813q116 0 181 -88t65 -211q0 -126 -75.5 -241t-205.5 -169q91 -30 141 -102.5t50 -181.5q0 -95 -32 -173t-87.5 -130.5t-131.5 -88.5t-162.5 -52.5t-182.5 -16.5h-682zM823 891q48 0 84.5 34t36.5 111q0 78 -61 78h-252l-49 -223h241zM748 336q52 0 90.5 41.5 t38.5 109.5q0 41 -18 67t-48 26h-295l-51 -244h283z" />
<glyph unicode="&#x413;" horiz-adv-x="1112" d="M-20 0l307 1454h948l-74 -348h-549l-233 -1106h-399z" />
<glyph unicode="&#x414;" horiz-adv-x="1724" d="M-82 -279l133 627h107q93 7 161.5 166t143.5 514l90 426h1069l-236 -1106h205l-133 -627h-348l59 279h-843l-60 -279h-348zM602 348h385l162 758h-293l-29 -135q-23 -113 -37 -176.5t-35.5 -144.5t-41.5 -129t-48.5 -95t-62.5 -78z" />
<glyph unicode="&#x415;" horiz-adv-x="1177" d="M303 1454h971l-74 -348h-571l-43 -205h487l-69 -323h-488l-49 -230h590l-74 -348h-989z" />
<glyph unicode="&#x416;" horiz-adv-x="2340" d="M-98 0l663 756l-370 698h421l269 -534h102l113 534h399l-113 -534h66l473 534h438l-624 -698l446 -756h-456l-322 557h-98l-117 -557h-399l116 557h-53l-498 -557h-456z" />
<glyph unicode="&#x417;" horiz-adv-x="1382" d="M592 -12q-201 0 -351.5 78.5t-224.5 220.5l326 186q38 -74 111.5 -115t175.5 -41q196 0 213 134q20 131 -176 131h-131l63 299h111q86 0 127 28t49 84t-28.5 85.5t-133.5 29.5q-101 0 -177.5 -36.5t-121.5 -98.5l-258 205q80 90 164.5 149.5t202.5 97t258 37.5 q263 0 390.5 -102.5t100.5 -302.5q-15 -100 -73.5 -183t-166.5 -129q113 -36 164.5 -125t34.5 -210q-19 -136 -110.5 -232.5t-229.5 -143t-309 -46.5z" />
<glyph unicode="&#x418;" horiz-adv-x="1511" d="M-4 0l307 1454h399l-190 -899l678 899h373l-308 -1454h-399l180 846l-661 -846h-379z" />
<glyph unicode="&#x419;" horiz-adv-x="1511" d="M946 1524q-193 0 -297.5 95t-81.5 257h301q-7 -55 25.5 -87t85.5 -32q52 0 94 32t49 87h301q-23 -163 -153.5 -257.5t-323.5 -94.5zM-4 0l307 1454h399l-190 -899l678 899h373l-308 -1454h-399l180 846l-661 -846h-379z" />
<glyph unicode="&#x41a;" horiz-adv-x="1454" d="M-4 0l307 1454h397l-112 -534h53l483 534h484l-680 -676l360 -778h-461l-221 557h-96l-117 -557h-397z" />
<glyph unicode="&#x41b;" horiz-adv-x="1515" d="M-45 -14l72 344q45 0 78 11t65 41.5t57 76.5t53.5 124t56 174.5t62.5 237.5l115 459h1053l-307 -1454h-400l234 1106h-283l-57 -229q-47 -186 -88.5 -315.5t-93.5 -233t-107.5 -165.5t-132.5 -103.5t-166 -57t-211 -16.5z" />
<glyph unicode="&#x41c;" horiz-adv-x="1679" d="M303 1454h436l133 -684l426 684h435l-310 -1454h-399l162 766l-324 -539h-211l-94 539l-164 -766h-399z" />
<glyph unicode="&#x41d;" horiz-adv-x="1482" d="M303 1454h399l-114 -536h434l115 536h399l-309 -1454h-400l121 569h-434l-121 -569h-399z" />
<glyph unicode="&#x41e;" horiz-adv-x="1572" d="M702 -12q-129 0 -239 41t-188 112t-129.5 164.5t-70 202.5t-3.5 221q20 143 95.5 276.5t186.5 234.5t259.5 161.5t306.5 60.5q160 0 290.5 -63.5t209 -168t113 -237.5t15.5 -272q-20 -142 -94.5 -275t-185 -234.5t-259.5 -162.5t-307 -61zM758 342q83 0 153 33.5 t116.5 89.5t76 123t39.5 141q15 102 -9 186t-94 138.5t-178 54.5q-83 0 -152.5 -33t-116.5 -88t-76.5 -122t-39.5 -140q-6 -59 -3 -114.5t24.5 -104.5t54.5 -85.5t86 -57.5t119 -21z" />
<glyph unicode="&#x41f;" horiz-adv-x="1499" d="M-4 0l307 1454h1247l-307 -1454h-399l233 1106h-448l-234 -1106h-399z" />
<glyph unicode="&#x420;" horiz-adv-x="1232" d="M303 1454h598q112 0 199 -61t130.5 -156t43.5 -203q0 -106 -46.5 -212t-123.5 -189t-185 -135t-223 -52h-209l-94 -446h-399zM743 795q43 0 82 54t39 152q0 55 -19 80t-46 25h-170l-66 -311h180z" />
<glyph unicode="&#x421;" horiz-adv-x="1449" d="M698 -12q-125 0 -234.5 42t-187 115t-129.5 168t-70.5 205t-2.5 221q15 107 61.5 211t123.5 196.5t175 163t224 111.5t262 41q205 0 349 -85.5t201 -231.5l-335 -217q-16 66 -63 108.5t-99 57t-113 14.5q-82 0 -152 -33.5t-116 -89t-75 -121.5t-40 -137 q-15 -103 12.5 -189.5t97.5 -141t171 -54.5q92 0 179 43.5t134 134.5l299 -194q-56 -103 -170 -182t-244.5 -117.5t-257.5 -38.5z" />
<glyph unicode="&#x422;" horiz-adv-x="1228" d="M520 1106h-391l74 348h1179l-73 -348h-389l-236 -1106h-399z" />
<glyph unicode="&#x423;" horiz-adv-x="1396" d="M209 -14l70 327h174q30 0 50.5 12t43.5 37l12 15l-405 1077h440l180 -692l365 692h411l-729 -1243q-80 -126 -173.5 -175.5t-239.5 -49.5h-199z" />
<glyph unicode="&#x424;" horiz-adv-x="1701" d="M1208 1393q109 -13 203 -61t163 -125t100.5 -190t13.5 -245q-19 -133 -90 -249t-174 -194.5t-227.5 -125.5t-252.5 -53l-31 -150h-376l30 152q-112 12 -208.5 61.5t-165.5 128t-100.5 190.5t-12.5 240q21 144 94.5 264t177.5 197.5t228.5 120.5t253.5 45l26 133h377z M438 772q-22 -149 37 -237t162 -107l147 694q-132 -5 -227 -95t-119 -255zM1329 772q21 145 -33.5 233.5t-156.5 110.5l-146 -690q121 15 217.5 104t118.5 242z" />
<glyph unicode="&#x425;" horiz-adv-x="1292" d="M457 717l-299 737h432l137 -459l332 459h430l-612 -737l286 -717h-430l-125 438l-311 -438h-432z" />
<glyph unicode="&#x426;" horiz-adv-x="1611" d="M997 -279l60 279h-1063l309 1454h399l-235 -1106h407l236 1106h399l-235 -1106h205l-133 -627h-349z" />
<glyph unicode="&#x427;" horiz-adv-x="1429" d="M1083 1454h400l-309 -1454h-400l109 506q-118 -47 -267 -47q-260 0 -378.5 127.5t-55.5 374.5l121 493h389l-121 -487q-25 -99 20.5 -144t166.5 -45q98 0 190 39z" />
<glyph unicode="&#x428;" horiz-adv-x="2101" d="M-4 0l307 1454h399l-233 -1106h326l233 1106h399l-233 -1106h326l233 1106h399l-307 -1454h-1849z" />
<glyph unicode="&#x429;" horiz-adv-x="2254" d="M1640 -279l60 279h-1706l309 1454h399l-235 -1106h326l235 1106h399l-235 -1106h326l235 1106h399l-235 -1106h205l-133 -627h-349z" />
<glyph unicode="&#x42a;" horiz-adv-x="1507" d="M186 0l238 1126h-291l70 328h690l-102 -481h180q245 0 369 -128.5t92 -352.5q-32 -228 -187 -360t-391 -132h-668zM655 324h187q77 0 125 44.5t57 123.5q8 66 -27 111.5t-108 45.5h-166z" />
<glyph unicode="&#x42b;" horiz-adv-x="1945" d="M-4 0l307 1454h399l-102 -481h160q245 0 368.5 -128.5t92.5 -352.5q-31 -227 -186.5 -359.5t-391.5 -132.5h-647zM1599 1454h400l-309 -1454h-400zM465 324h166q77 0 125 44.5t57 123.5q8 66 -27 111.5t-108 45.5h-146z" />
<glyph unicode="&#x42c;" horiz-adv-x="1374" d="M-4 0l307 1454h399l-102 -481h221q245 0 368.5 -128.5t92.5 -352.5q-32 -228 -186.5 -360t-390.5 -132h-709zM465 324h227q77 0 124 44.5t58 123.5q8 66 -27 111.5t-108 45.5h-207z" />
<glyph unicode="&#x42d;" horiz-adv-x="1439" d="M786 1462q169 0 300.5 -60.5t209 -163.5t109 -236.5t10.5 -280.5q-21 -150 -93 -283.5t-180.5 -233.5t-257 -158t-315.5 -58q-114 0 -206 24.5t-159 71t-115 105t-87 135.5l358 196q29 -82 95.5 -130t169.5 -48q126 0 213.5 65t132.5 177h-439l66 317h408q-21 97 -91 152 t-186 55q-104 0 -184.5 -50t-130.5 -134l-283 223q129 152 285 233.5t370 81.5z" />
<glyph unicode="&#x42e;" horiz-adv-x="2191" d="M1538 1462q129 0 239.5 -41t188 -113t129 -165.5t69.5 -202t3 -219.5q-20 -142 -94.5 -275t-185 -234.5t-259.5 -162.5t-307 -61q-137 0 -252.5 46t-194.5 125t-127.5 182t-60.5 220h-172l-119 -561h-399l307 1454h399l-114 -545h151q95 237 315 395t484 158zM1761 729 q15 102 -8.5 186t-93.5 138.5t-178 54.5q-83 0 -152.5 -33t-116.5 -88t-76.5 -122t-39.5 -140q-6 -59 -3 -114.5t24.5 -104.5t54 -85.5t85.5 -57.5t119 -21q83 0 153 33.5t116.5 89.5t76 123t39.5 141z" />
<glyph unicode="&#x42f;" horiz-adv-x="1404" d="M-72 0l488 641q-131 54 -189.5 167t-29.5 255q37 174 180 282.5t340 108.5h739l-307 -1454h-399l106 508h-72h-41l-366 -508h-449zM709 846h219l57 270h-237q-59 0 -105 -31.5t-57 -103.5q-9 -64 23 -99.5t100 -35.5z" />
<glyph unicode="&#x430;" horiz-adv-x="1323" d="M14 414q0 182 80 340t214.5 251t287.5 93q97 0 168 -48t96 -132l33 151h391l-137 -639q-6 -30 -6 -49q0 -27 12.5 -39t42.5 -14l-70 -328q-103 -20 -165 -20q-96 0 -147.5 36.5t-51.5 120.5q0 21 2 31q-71 -94 -167.5 -141t-201.5 -47q-176 0 -278.5 119.5t-102.5 314.5z M758 418l41 192q-11 71 -51 115.5t-95 44.5q-87 0 -158 -89.5t-71 -203.5q0 -78 39 -124t108 -46q48 0 91 26.5t96 84.5z" />
<glyph unicode="&#x431;" horiz-adv-x="1333" d="M623 -20q-300 0 -434.5 175.5t-77.5 499.5q34 196 95.5 339t152.5 236.5t205 146.5t263 75q28 6 70.5 12.5t70 11.5t57.5 13.5t50 24t31 38.5l256 -104q-14 -65 -37 -109.5t-56 -76t-88 -53t-120 -35t-166 -25.5q-129 -15 -207.5 -51t-124 -94t-84.5 -160 q142 145 383 145q203 0 320 -133t88 -338q-15 -115 -66 -213t-131.5 -170.5t-196.5 -113.5t-253 -41zM651 287q84 0 144.5 55t72.5 145q11 85 -34.5 140t-128.5 55t-145.5 -55t-72.5 -140q-12 -92 33.5 -146t130.5 -54z" />
<glyph unicode="&#x432;" horiz-adv-x="1208" d="M977 557q162 -79 162 -219q0 -110 -78.5 -192t-212 -124t-301.5 -42q-245 0 -367.5 112t-122.5 330q0 325 184 500.5t494 175.5q188 0 290.5 -76t102.5 -211q0 -148 -151 -254zM717 834q-83 0 -153 -60.5t-105 -167.5q23 -2 67 -2q154 0 221.5 47t67.5 109 q0 31 -22.5 52.5t-75.5 21.5zM614 238q74 0 123 32t49 95q0 58 -51 92q-109 -25 -221 -25q-55 0 -84 2v-18q0 -87 39.5 -132.5t144.5 -45.5z" />
<glyph unicode="&#x433;" horiz-adv-x="1191" d="M528 -18q-227 0 -332.5 84.5t-105.5 228.5q0 133 110.5 213t366.5 143q78 29 106.5 56t28.5 69q0 27 -27.5 41t-70.5 14q-57 0 -121 -31.5t-102 -84.5l-262 153q184 232 557 232q201 0 303 -82t102 -217q0 -123 -83.5 -196t-276.5 -128q-72 -21 -119 -41.5t-69.5 -41.5 t-30.5 -39t-8 -40q0 -53 120 -53q57 0 117 30t103 83l233 -191q-95 -96 -222.5 -149t-316.5 -53z" />
<glyph unicode="&#x434;" horiz-adv-x="1304" d="M582 -20q-149 0 -259 45.5t-170 123.5t-83 177t-7 211q13 102 58 193t116 161.5t173 111.5t221 41q232 0 330 -137q-12 204 -146 273q-126 67 -420 30v291q385 50 623 -94q248 -153 248 -485q0 -369 -133 -611q-88 -159 -228 -245t-323 -86zM606 283q81 0 141.5 63 t73.5 168q15 106 -27.5 170t-123.5 64q-83 0 -143.5 -64t-73.5 -170q-15 -106 27.5 -168.5t125.5 -62.5z" />
<glyph unicode="&#x435;" d="M614 258q130 0 193 111l311 -99q-85 -136 -226 -213t-333 -77q-211 0 -346 124.5t-150 331.5q-9 136 38.5 258.5t136.5 211t217 140.5t274 52q195 0 311.5 -83t126.5 -231q12 -181 -149.5 -273.5t-487.5 -92.5h-59v-2q6 -85 39 -121.5t104 -36.5zM678 821q-57 0 -104 -46 t-74 -124h12q157 0 218 19.5t58 70.5q-3 35 -33.5 57.5t-76.5 22.5z" />
<glyph unicode="&#x436;" horiz-adv-x="1767" d="M-98 0q81 186 201 332t255 231l-258 514h385l162 -383h72l82 383h387l-82 -383h61q83 62 155.5 163t117.5 220h393q-70 -160 -174 -294t-219 -234l243 -549h-413l-164 401h-62l-86 -401h-387l86 401h-36q-93 -52 -175.5 -158.5t-136.5 -242.5h-407z" />
<glyph unicode="&#x437;" horiz-adv-x="1028" d="M438 -20q-363 0 -481 243l330 144q28 -40 67.5 -60t104.5 -20q69 0 105.5 20.5t41.5 54.5q5 32 -23.5 50t-93.5 18h-120l49 234h104q94 0 103 63q5 30 -21.5 47t-87.5 17q-55 0 -92.5 -18t-71.5 -56l-268 155q80 107 209 166.5t287 59.5q192 0 303 -82t90 -232 q-10 -74 -54.5 -136t-127.5 -89q97 -28 137 -95t28 -163q-23 -155 -165.5 -238t-352.5 -83z" />
<glyph unicode="&#x438;" horiz-adv-x="1265" d="M18 233q0 53 17 136l151 708h387l-131 -620q-6 -30 -6 -56q0 -45 20.5 -69.5t57.5 -24.5q87 0 184 111l142 659h389l-137 -647q-7 -35 -7 -49q0 -27 13 -39t43 -14l-70 -328q-103 -20 -168 -20q-201 0 -201 149q0 4 5 39q-174 -188 -437 -188q-123 0 -187.5 64.5 t-64.5 188.5z" />
<glyph unicode="&#x439;" horiz-adv-x="1265" d="M727 1163q-162 0 -264.5 93t-102.5 239h201q0 -71 43 -118.5t123 -47.5q75 0 116.5 45t49.5 121h201q0 -146 -102.5 -239t-264.5 -93zM18 233q0 53 17 136l151 708h387l-131 -620q-6 -30 -6 -56q0 -45 20.5 -69.5t57.5 -24.5q87 0 184 111l142 659h389l-137 -647 q-7 -35 -7 -49q0 -27 13 -39t43 -14l-70 -328q-103 -20 -168 -20q-201 0 -201 149q0 4 5 39q-174 -188 -437 -188q-123 0 -187.5 64.5t-64.5 188.5z" />
<glyph unicode="&#x43a;" horiz-adv-x="1183" d="M-12 0l229 1077h387l-82 -383h62q82 62 154.5 163t117.5 220h393q-70 -160 -174 -294t-219 -234l244 -549h-414l-164 401h-61l-86 -401h-387z" />
<glyph unicode="&#x43b;" horiz-adv-x="1253" d="M-43 0q148 499 631 1077h401l129 -1077h-403l-21 752q-126 -211 -198 -364t-160 -388h-379z" />
<glyph unicode="&#x43c;" horiz-adv-x="1544" d="M-12 0l229 1077h397l152 -522l375 522h415l-229 -1077h-369l119 555l-258 -367h-241l-103 367l-119 -555h-368z" />
<glyph unicode="&#x43d;" horiz-adv-x="1269" d="M-12 0l229 1077h389l-82 -381h287l82 381h389l-229 -1077h-389l86 403h-287l-86 -403h-389z" />
<glyph unicode="&#x43e;" horiz-adv-x="1302" d="M575 -20q-140 0 -247.5 45.5t-169 123.5t-86.5 178t-9 212q16 113 68.5 213t136 177.5t203.5 123t260 45.5t247.5 -45.5t169 -123t86.5 -177.5t9 -213q-16 -112 -68.5 -212t-135.5 -178t-203.5 -123.5t-260.5 -45.5zM621 287q86 0 152 69t81 183t-33.5 183t-134.5 69 t-152 -69t-81 -183t33.5 -183t134.5 -69z" />
<glyph unicode="&#x43f;" horiz-adv-x="1239" d="M-12 0l229 1077h1034l-229 -1077h-389l166 780h-256l-166 -780h-389z" />
<glyph unicode="&#x440;" horiz-adv-x="1282" d="M195 1077h337l-34 -162q150 183 366 183q168 0 269.5 -121.5t101.5 -312.5q0 -180 -80.5 -339t-212.5 -252t-278 -93q-109 0 -180.5 46.5t-94.5 133.5l-127 -596h-389zM827 600q0 78 -39 124t-108 46q-85 0 -184 -111l-41 -186q11 -72 50.5 -119t92.5 -47q87 0 158 89.5 t71 203.5z" />
<glyph unicode="&#x441;" horiz-adv-x="1136" d="M12 432q0 125 50.5 245t139.5 213.5t222.5 150.5t288.5 57q182 0 293.5 -79t150.5 -214l-403 -115q-31 80 -113 80q-89 0 -156 -83.5t-67 -211.5q0 -78 34 -123t91 -45q78 0 145 80l354 -115q-97 -135 -241.5 -213.5t-325.5 -78.5q-114 0 -204 36t-145.5 98.5 t-84.5 143.5t-29 174z" />
<glyph unicode="&#x442;" horiz-adv-x="1849" d="M197 1077h350l-35 -159q69 86 176.5 133t226.5 47q225 0 244 -187q72 88 177.5 137.5t219.5 49.5q242 0 242 -238q0 -61 -18 -151l-152 -709h-389l129 606q6 34 6 60q0 45 -18.5 68.5t-46.5 23.5q-42 0 -98 -45t-91 -109l-127 -604h-389l129 606q6 35 6 60q0 45 -19 68.5 t-48 23.5q-42 0 -98 -45.5t-89 -108.5l-129 -604h-389z" />
<glyph unicode="&#x443;" horiz-adv-x="1112" d="M-115 -190q118 0 175.5 19.5t107.5 78.5l59 69l-141 1100h395l25 -747l69 114q160 265 230 633h373q-56 -201 -139 -372.5t-283 -493.5l-164 -264q-145 -234 -296 -330t-366 -96z" />
<glyph unicode="&#x444;" horiz-adv-x="1611" d="M391 -436l92 436l-43 2q-152 12 -254.5 90.5t-141.5 194.5t-19 252q16 109 64 205t125 171t189.5 118.5t245.5 43.5h64l88 418h389l-88 -418l28 -2q116 -8 205.5 -55t140.5 -120t71 -165.5t5 -195.5q-16 -108 -65.5 -204.5t-127.5 -171.5t-189.5 -119t-241.5 -44h-56 l-92 -436h-389zM537 297h30l103 485h-60q-77 0 -134.5 -65.5t-72.5 -177.5q-15 -111 23 -176.5t111 -65.5zM915 297h52q77 0 134.5 66t72.5 176q15 112 -23 177.5t-111 65.5h-22z" />
<glyph unicode="&#x445;" horiz-adv-x="1095" d="M322 539l-224 538h394l77 -264l11 -43l26 43l199 264h389l-455 -538l236 -539h-395l-91 264l-8 41l-26 -41l-201 -264h-395z" />
<glyph unicode="&#x446;" horiz-adv-x="1333" d="M762 -270l57 270q-54 15 -84.5 61.5t-25.5 106.5q-174 -188 -439 -188q-123 0 -187.5 64.5t-64.5 188.5q0 53 17 136l151 708h387l-131 -620q-6 -30 -6 -56q0 -45 20.5 -69.5t57.5 -24.5q87 0 184 111l142 659h389l-137 -647q-10 -52 6.5 -72t66.5 -20h74l-129 -608h-348 z" />
<glyph unicode="&#x447;" horiz-adv-x="1189" d="M573 0l80 334q-109 -43 -254 -43q-168 0 -254.5 93t-50.5 259l92 434h389l-81 -383q-11 -60 16 -88t80 -28t123 26l100 473h389l-229 -1077h-400z" />
<glyph unicode="&#x448;" horiz-adv-x="1849" d="M1653 0h-350l34 160q-69 -86 -176.5 -133t-226.5 -47q-225 0 -244 186q-72 -88 -177.5 -137t-219.5 -49q-242 0 -242 237q0 57 19 152l151 708h389l-129 -606q-6 -34 -6 -59q0 -45 19 -69t47 -24q42 0 97.5 45t90.5 109l127 604h389l-129 -606q-6 -35 -6 -59 q0 -45 19.5 -69t48.5 -24q42 0 97 45.5t89 108.5l129 604h389z" />
<glyph unicode="&#x449;" horiz-adv-x="1951" d="M1380 -270l58 270q-61 15 -95.5 61.5t-29.5 106.5q-71 -90 -181 -139t-233 -49q-225 0 -244 186q-72 -88 -177.5 -137t-219.5 -49q-242 0 -242 237q0 57 19 152l151 708h389l-129 -606q-6 -34 -6 -59q0 -45 19 -69t47 -24q44 0 95.5 40t92.5 114l127 604h389l-129 -606 q-6 -34 -6 -59q0 -45 19.5 -69t48.5 -24q43 0 96 42t90 112l129 604h389l-137 -647q-10 -52 7 -72t67 -20h74l-129 -608h-349z" />
<glyph unicode="&#x44a;" horiz-adv-x="1304" d="M715 -20q-229 0 -359 88.5t-129 271.5q0 213 174 444h-307l64 293h659q-14 -46 -43.5 -138t-44.5 -138q66 4 90 4q461 0 404 -408q-15 -105 -62.5 -186.5t-117.5 -131t-153 -74.5t-175 -25zM735 295q59 0 98.5 29t45.5 82q7 63 -27.5 105t-124.5 42q-37 0 -86 -6 q-47 -74 -47 -137q0 -55 38.5 -85t102.5 -30z" />
<glyph unicode="&#x44b;" horiz-adv-x="1734" d="M645 797q81 0 148 -11.5t126.5 -39.5t98 -72.5t55.5 -115t4 -161.5q-54 -417 -549 -417q-124 0 -219.5 26t-161.5 79t-91.5 140t-4.5 203q9 51 21.5 109.5t23 103.5t29 114t28 104t31.5 113.5t29 104.5h389q-38 -128 -78 -280h121zM1358 1077h389l-229 -1077h-390z M733 406q9 54 -28 86t-111 32h-135q-19 -94 -23 -118q-10 -51 33.5 -81t114.5 -30q65 0 104 28.5t45 82.5z" />
<glyph unicode="&#x44c;" horiz-adv-x="1181" d="M645 797q85 0 155 -11.5t133 -39.5t103 -72.5t57.5 -115t4.5 -161.5q-57 -417 -570 -417q-124 0 -219.5 26t-161.5 79t-91.5 140t-4.5 203q9 51 21.5 109.5t23 103.5t29 114t28 104t31.5 113.5t29 104.5h389q-38 -128 -78 -280h121zM754 406q11 54 -31.5 86t-128.5 32 h-135q-19 -94 -23 -118q-10 -51 33.5 -81t114.5 -30q74 0 118.5 28.5t51.5 82.5z" />
<glyph unicode="&#x44d;" horiz-adv-x="1226" d="M655 1098q140 0 247.5 -45.5t169 -123t86.5 -177.5t9 -213q-13 -91 -44 -171.5t-85 -152.5t-126.5 -123.5t-173 -81.5t-218.5 -30q-192 0 -318.5 71.5t-183.5 202.5l330 143q28 -56 73.5 -83t131.5 -27q72 0 132.5 40.5t94.5 112.5h-311l41 205h297q-17 69 -71 107.5 t-134 38.5q-73 0 -125 -25.5t-94 -79.5l-268 156q89 121 229 188.5t311 67.5z" />
<glyph unicode="&#x44e;" horiz-adv-x="1859" d="M1288 1098q140 0 247.5 -45.5t169 -123t86.5 -177.5t9 -213q-16 -112 -68.5 -212t-135.5 -178t-203 -123.5t-260 -45.5q-222 0 -353 108t-159 281h-166l-78 -369h-389l229 1077h389l-80 -370h142q74 174 235.5 282.5t384.5 108.5zM1411 539q15 114 -33.5 183t-134.5 69 t-152 -69t-81 -183t33.5 -183t134.5 -69t152 69t81 183z" />
<glyph unicode="&#x44f;" horiz-adv-x="1247" d="M-23 0l334 438q-193 110 -145 350q29 145 171.5 226.5t364.5 81.5q303 0 508 -97l-211 -999h-370l71 334h-71l-228 -334h-424zM629 606h129l39 182q-55 15 -125 15q-144 0 -164 -82q-11 -49 21 -82t100 -33z" />
<glyph unicode="&#x450;" d="M885 1204l-271 -28l-108 319h344zM614 258q130 0 193 111l311 -99q-85 -136 -226 -213t-333 -77q-211 0 -346 124.5t-150 331.5q-9 136 38.5 258.5t136.5 211t217 140.5t274 52q195 0 311.5 -83t126.5 -231q12 -181 -149.5 -273.5t-487.5 -92.5h-59v-2q6 -85 39 -121.5 t104 -36.5zM678 821q-57 0 -104 -46t-74 -124h12q157 0 218 19.5t58 70.5q-3 35 -33.5 57.5t-76.5 22.5z" />
<glyph unicode="&#x451;" d="M768 1475l-61 -287h-320l62 287h319zM1227 1475l-60 -287h-319l61 287h318zM1167 784q12 -181 -149.5 -273.5t-487.5 -92.5h-59v-2q6 -85 39 -121.5t104 -36.5q130 0 193 111l311 -99q-85 -136 -226 -213t-333 -77q-211 0 -346 124.5t-150 331.5q-9 136 38.5 258.5 t136.5 211t217 140.5t274 52q195 0 311.5 -83t126.5 -231zM500 651h12q157 0 218 19.5t58 70.5q-3 35 -33.5 57.5t-76.5 22.5q-57 0 -104 -46t-74 -124z" />
<glyph unicode="&#x452;" horiz-adv-x="1376" d="M913 975q209 0 286.5 -182t14.5 -519q-137 -708 -585 -708q-70 -6 -131 9t-98.5 40.5t-65 52t-38.5 45.5l-11 19l290 194q2 -5 6.5 -13t24 -21t45.5 -13q115 0 174 395q16 113 17.5 183.5t-13.5 110t-41 53.5t-71 14q-56 0 -103 -34t-77 -93l-107 -508h-389l229 1094 h-164l48 223h163l37 178h389l-36 -178h415l-47 -223h-416l-53 -250q131 131 307 131z" />
<glyph unicode="&#x453;" horiz-adv-x="1191" d="M862 1188l-262 24l158 291h344zM528 -18q-227 0 -332.5 84.5t-105.5 228.5q0 133 110.5 213t366.5 143q78 29 106.5 56t28.5 69q0 27 -27.5 41t-70.5 14q-57 0 -121 -31.5t-102 -84.5l-262 153q184 232 557 232q201 0 303 -82t102 -217q0 -123 -83.5 -196t-276.5 -128 q-72 -21 -119 -41.5t-69.5 -41.5t-30.5 -39t-8 -40q0 -53 120 -53q57 0 117 30t103 83l233 -191q-95 -96 -222.5 -149t-316.5 -53z" />
<glyph unicode="&#x454;" horiz-adv-x="1249" d="M596 307q95 0 162 80l362 -115q-89 -135 -234 -213.5t-333 -78.5q-111 0 -203 29.5t-154.5 82t-102.5 123t-53 153t-1 171.5q16 112 69.5 212t137.5 178t204 123.5t259 45.5q188 0 312 -79t173 -214l-395 -115q-42 80 -137 80q-64 0 -119 -33t-88 -92h284l-47 -205h-272 q13 -64 60 -98.5t116 -34.5z" />
<glyph unicode="&#x455;" horiz-adv-x="993" d="M-55 160l180 233q171 -141 315 -141q74 0 74 61q0 24 -26 44.5t-89 41.5q-180 60 -253.5 118.5t-73.5 150.5q0 118 68.5 217.5t185.5 157t254 57.5q123 0 215.5 -33.5t175.5 -122.5l-195 -233q-86 66 -142.5 93t-109.5 27q-34 0 -54.5 -17.5t-20.5 -47.5q0 -26 27 -44 t99 -40q179 -54 253.5 -117.5t74.5 -163.5q0 -188 -141.5 -304.5t-370.5 -116.5q-137 0 -257 47t-189 133z" />
<glyph unicode="&#x456;" horiz-adv-x="585" d="M285 1495h389l-70 -328h-389zM197 1077h389l-230 -1077h-389z" />
<glyph unicode="&#x457;" horiz-adv-x="585" d="M25 1188l61 287h320l-62 -287h-319zM485 1188l62 287h317l-59 -287h-320zM197 1077h389l-230 -1077h-389z" />
<glyph unicode="&#x458;" horiz-adv-x="593" d="M293 1495h389l-70 -328h-389zM-408 -317l215 264q23 -41 78 -41q33 0 56 23t32 65l230 1083h391l-223 -1052q-43 -201 -183.5 -327t-322.5 -126q-171 0 -273 111z" />
<glyph unicode="&#x459;" horiz-adv-x="1757" d="M1180 774q130 0 224.5 -24t159.5 -76t89.5 -140t5.5 -212q-14 -91 -60.5 -158.5t-116 -106.5t-150.5 -58t-173 -19q-240 0 -357.5 91.5t-117.5 309.5v391q-120 -219 -188 -376.5t-150 -395.5h-389q129 470 600 1077h422l27 -307q114 4 174 4zM1323 385q5 45 -29 67.5 t-110 22.5q-52 0 -154 -4l4 -37q10 -80 47 -109.5t113 -29.5q68 0 96 21.5t33 68.5z" />
<glyph unicode="&#x45a;" horiz-adv-x="1802" d="M1282 754q81 0 148 -10.5t127 -37t98 -68t55 -108.5t4 -153q-55 -397 -549 -397q-114 0 -202.5 22.5t-151.5 68t-91.5 119.5t-17.5 172l9 41h-248l-86 -403h-389l229 1077h389l-80 -383h246l80 383h369l-70 -323h131zM1370 385q9 58 -29.5 84.5t-152.5 26.5h-90l-25 -111 q-10 -52 22.5 -81.5t98.5 -29.5q158 0 176 111z" />
<glyph unicode="&#x45b;" horiz-adv-x="1349" d="M932 975q204 0 283.5 -99.5t39.5 -289.5l-125 -586h-389l103 483q15 74 -15 113t-96 39t-113 -40.5t-94 -123.5l-100 -471h-389l233 1094h-164l48 223h163l39 178h389l-38 -178h415l-47 -223h-416l-53 -252q146 133 326 133z" />
<glyph unicode="&#x45c;" horiz-adv-x="1183" d="M879 1188l-263 24l158 291h344zM-12 0l229 1077h387l-82 -383h62q82 62 154.5 163t117.5 220h393q-70 -160 -174 -294t-219 -234l244 -549h-414l-164 401h-61l-86 -401h-387z" />
<glyph unicode="&#x45d;" horiz-adv-x="1265" d="M479 1495h344l35 -291l-270 -28zM18 233q0 53 17 136l151 708h387l-131 -620q-6 -30 -6 -56q0 -45 20.5 -69.5t57.5 -24.5q87 0 184 111l142 659h389l-137 -647q-7 -35 -7 -49q0 -27 13 -39t43 -14l-70 -328q-103 -20 -168 -20q-201 0 -201 149q0 4 5 39 q-174 -188 -437 -188q-123 0 -187.5 64.5t-64.5 188.5z" />
<glyph unicode="&#x45e;" horiz-adv-x="1112" d="M651 1163q-162 0 -264 92.5t-102 239.5h200q0 -71 43 -118.5t123 -47.5q75 0 116.5 45t49.5 121h201q0 -146 -102.5 -239t-264.5 -93zM-115 -190q118 0 175.5 19.5t107.5 78.5l59 69l-141 1100h395l25 -747l69 114q160 265 230 633h373q-56 -201 -139 -372.5t-283 -493.5 l-164 -264q-145 -234 -296 -330t-366 -96z" />
<glyph unicode="&#x45f;" horiz-adv-x="1265" d="M18 233q0 53 17 136l151 708h387l-131 -620q-6 -30 -6 -56q0 -45 20.5 -69.5t57.5 -24.5q87 0 184 111l142 659h389l-137 -647q-7 -35 -7 -49q0 -27 13 -39t43 -14l-70 -328q-103 -20 -168 -20q-201 0 -201 149q0 4 5 39q-174 -188 -437 -188q-123 0 -187.5 64.5 t-64.5 188.5zM252 -436l65 307h349l-66 -307h-348z" />
<glyph unicode="&#x462;" horiz-adv-x="1497" d="M944 952q245 0 368.5 -122.5t92.5 -337.5q-32 -228 -187 -360t-391 -132h-708l231 1100h-231l49 231h231l35 164h400l-35 -164h280l-49 -231h-280l-31 -148h225zM997 492q8 66 -27 111.5t-108 45.5h-207l-67 -325h227q77 0 124 44.5t58 123.5z" />
<glyph unicode="&#x463;" horiz-adv-x="1736" d="M1100 -20q-112 0 -196.5 25.5t-142.5 80t-76 139.5t3 203l45 211q14 79 -3.5 107t-72.5 28q-44 0 -89 -34t-74 -93l-138 -647h-389l230 1077h360l-27 -121q126 136 314 136q88 0 148 -25t87.5 -69.5t35 -105t-8.5 -130.5q18 1 55 2t56 2q80 3 147.5 -6.5t127 -36.5 t98 -71t55.5 -114t4 -161q-55 -397 -549 -397zM1135 295q155 0 174 111q10 47 -26 81t-109 31q-20 -1 -60 -2t-59 -2l-27 -129q-9 -43 19.5 -66.5t87.5 -23.5z" />
<glyph unicode="&#x46a;" horiz-adv-x="2357" d="M2359 1454l-610 -719l453 -735h-445l-344 537h-47l-113 -537h-399l113 537h-84l-496 -537h-444l661 735l-409 719h2164zM911 899h547l262 324h-983z" />
<glyph unicode="&#x46b;" horiz-adv-x="1921" d="M-104 0l540 561l-352 516h1868l-498 -516l383 -561h-467l-201 379h-41l-79 -379h-398l80 379h-41l-325 -379h-469zM713 676h469l184 211h-774z" />
<glyph unicode="&#x472;" horiz-adv-x="1566" d="M920 1462q160 0 290.5 -63.5t209 -168t113 -237.5t15.5 -272q-20 -142 -94.5 -275t-185 -234.5t-259.5 -162.5t-307 -61q-129 0 -239 41t-188 112t-129.5 164.5t-70 202.5t-3.5 221q20 143 95.5 276.5t186.5 234.5t259.5 161.5t306.5 60.5zM862 1108q-130 0 -221.5 -76 t-136.5 -196h643q-10 121 -81.5 196.5t-203.5 75.5zM758 342q141 0 235 88t133 221h-653q0 -134 72 -221.5t213 -87.5z" />
<glyph unicode="&#x473;" horiz-adv-x="1263" d="M692 1098q140 0 247.5 -45.5t169 -123t86.5 -177.5t9 -213q-16 -112 -68.5 -212t-135.5 -178t-203 -123.5t-260 -45.5t-247.5 45.5t-169 123.5t-86.5 178t-9 212q16 113 68.5 213t135.5 177.5t203 123t260 45.5zM647 791q-68 0 -126.5 -46t-88.5 -127h385 q-9 81 -55.5 127t-114.5 46zM582 287q70 0 129 47.5t88 130.5h-387q6 -83 53 -130.5t117 -47.5z" />
<glyph unicode="&#x474;" horiz-adv-x="1349" d="M354 0l-198 1454h422l49 -950l317 653q76 158 180 227.5t275 69.5h145l-110 -328h-50q-59 0 -95.5 -21.5t-65.5 -76.5l-537 -1028h-332z" />
<glyph unicode="&#x475;" horiz-adv-x="1138" d="M197 0l-109 1077h404v-772q122 198 192 389q31 85 59 143t64 102.5t73.5 70t93.5 41.5t117.5 21t151.5 5l-63 -295q-61 0 -92 -20t-56 -72q-92 -194 -191 -356t-243 -334h-401z" />
<glyph unicode="&#x490;" horiz-adv-x="1128" d="M-6 0l309 1454h602l72 340h346l-145 -688h-549l-236 -1106h-399z" />
<glyph unicode="&#x491;" horiz-adv-x="995" d="M-41 -436q-130 0 -276 61l127 295q71 -29 131 -29q83 0 104 105l229 1081h431l57 271h344l-119 -564h-385l-168 -784q-44 -198 -174 -317t-301 -119z" />
<glyph unicode="&#x492;" horiz-adv-x="1183" d="M1233 1106h-549l-78 -369h363l-54 -252h-362l-102 -485h-400l103 485h-181l54 252h180l151 717h949z" />
<glyph unicode="&#x493;" horiz-adv-x="1021" d="M1016 739h-385l-45 -207h272l-49 -231h-272l-64 -301h-389l63 301h-147l49 231h148l116 545h774z" />
<glyph unicode="&#x494;" horiz-adv-x="1458" d="M874 838q241 0 363.5 -147t89.5 -384q-32 -230 -192 -360.5t-410 -130.5q-143 0 -268 45l149 321q65 -37 129 -37q87 0 150 44.5t73 138.5q10 102 -40.5 162.5t-143.5 60.5q-144 0 -280 -84l-99 -467h-399l307 1454h948l-73 -348h-549l-72 -336q145 68 317 68z" />
<glyph unicode="&#x495;" horiz-adv-x="1153" d="M725 604q196 0 275 -130.5t26 -385.5q-21 -98 -51 -175t-77.5 -144t-110 -111t-150.5 -69t-197 -25q-70 0 -131 17t-98.5 41.5t-65 49t-38.5 41.5l-11 17l291 194q2 -5 6.5 -13t24 -21t45.5 -13q70 0 119.5 48t74.5 163q39 205 -127 205q-48 0 -94 -19l-59 -274h-389 l229 1077h774l-71 -338h-385l-43 -196q106 61 233 61z" />
<glyph unicode="&#x496;" horiz-adv-x="2344" d="M1739 756l241 -408h281l-135 -627h-338l59 279h-118l-322 557h-98l-117 -557h-399l116 557h-53l-498 -557h-456l663 756l-370 698h421l269 -534h102l113 534h399l-113 -534h66l473 534h438z" />
<glyph unicode="&#x497;" horiz-adv-x="1849" d="M1440 549l94 -211h262l-131 -608h-348l57 270h-104l-164 401h-62l-86 -401h-387l86 401h-36q-93 -52 -175.5 -158.5t-136.5 -242.5h-407q81 186 201 332t255 231l-258 514h385l162 -383h72l82 383h387l-82 -383h61q83 62 155.5 163t117.5 220h393q-70 -160 -174 -294 t-219 -234z" />
<glyph unicode="&#x498;" horiz-adv-x="1382" d="M1282 1057q-15 -100 -73.5 -183t-166.5 -129q113 -36 164.5 -125t34.5 -210q-24 -172 -158.5 -277.5t-341.5 -134.5l-55 -274h-350l57 286q-266 64 -377 277l326 186q38 -74 111.5 -115t175.5 -41q196 0 213 134q20 131 -176 131h-131l63 299h111q86 0 127 28t49 84 t-28.5 85.5t-133.5 29.5q-101 0 -177.5 -36.5t-121.5 -98.5l-258 205q80 90 164.5 149.5t202.5 97t258 37.5q263 0 390.5 -102.5t100.5 -302.5z" />
<glyph unicode="&#x499;" horiz-adv-x="1052" d="M973 784q-10 -74 -54.5 -136t-127.5 -89q97 -28 137 -95t28 -163q-18 -127 -118 -206t-256 -105l-56 -260h-327l57 268q-214 50 -299 225l330 144q28 -40 67.5 -60t104.5 -20q69 0 105.5 20.5t41.5 54.5q5 32 -23.5 50t-93.5 18h-120l49 234h104q94 0 103 63 q5 30 -21.5 47t-87.5 17q-55 0 -92.5 -18t-71.5 -56l-268 155q80 107 209 166.5t287 59.5q192 0 303 -82t90 -232z" />
<glyph unicode="&#x49a;" horiz-adv-x="1515" d="M928 778l198 -430h306l-136 -627h-338l60 279h-191l-221 557h-96l-117 -557h-397l307 1454h397l-112 -534h53l483 534h484z" />
<glyph unicode="&#x49b;" horiz-adv-x="1269" d="M856 549l94 -211h267l-132 -608h-348l58 270h-109l-164 401h-61l-86 -401h-387l229 1077h387l-82 -383h62q82 62 154.5 163t117.5 220h393q-70 -160 -174 -294t-219 -234z" />
<glyph unicode="&#x49c;" horiz-adv-x="1507" d="M1612 1454l-488 -702l228 -752h-434l-160 578h-8l-45 -201h-134l45 201h-127l-120 -578h-398l308 1454h397l-117 -555h129l49 217h133l-49 -217h2l379 555h410z" />
<glyph unicode="&#x49d;" horiz-adv-x="1327" d="M1393 1077q-131 -299 -394 -528l244 -549h-414l-163 403h-27l-33 -145h-133l33 145h-66l-86 -403h-366l229 1077h367l-82 -383h69l39 174h133l-38 -174h22q83 61 154.5 162t117.5 221h394z" />
<glyph unicode="&#x4a0;" horiz-adv-x="1667" d="M1821 1454l-680 -676l360 -778h-461l-221 557h-96l-117 -557h-397l237 1126h-313l70 328h710l-112 -534h53l483 534h484z" />
<glyph unicode="&#x4a1;" horiz-adv-x="1359" d="M1425 1077q-70 -160 -174 -294t-219 -234l244 -549h-414l-164 401h-61l-86 -401h-387l168 784h-238l62 293h624l-82 -383h62q82 62 154.5 163t117.5 220h393z" />
<glyph unicode="&#x4a2;" horiz-adv-x="1642" d="M1536 1454l-236 -1106h209l-135 -627h-338l60 279h-269l121 569h-434l-121 -569h-399l309 1454h399l-114 -536h434l115 536h399z" />
<glyph unicode="&#x4a3;" horiz-adv-x="1396" d="M1124 338h179l-132 -608h-348l58 270h-217l86 403h-287l-86 -403h-389l229 1077h389l-82 -381h287l82 381h389z" />
<glyph unicode="&#x4a4;" horiz-adv-x="1959" d="M2083 1454l-74 -348h-547l-235 -1106h-400l121 569h-434l-121 -569h-399l309 1454h399l-114 -536h434l115 536h946z" />
<glyph unicode="&#x4a5;" horiz-adv-x="1601" d="M1667 1077l-74 -338h-383l-157 -739h-389l86 403h-287l-86 -403h-389l229 1077h389l-82 -381h287l82 381h774z" />
<glyph unicode="&#x4aa;" horiz-adv-x="1449" d="M758 342q92 0 179 43.5t134 134.5l299 -194q-49 -90 -144 -162.5t-205 -114t-226 -55.5l-58 -273h-327l63 306q-141 51 -240.5 163t-140 255t-18.5 294q15 107 61.5 211t123.5 196.5t175 163t224 111.5t262 41q205 0 349 -85.5t201 -231.5l-335 -217q-16 66 -63 108.5 t-99 57t-113 14.5q-82 0 -152 -33.5t-116 -89t-75 -121.5t-40 -137q-15 -103 12.5 -189.5t97.5 -141t171 -54.5z" />
<glyph unicode="&#x4ab;" horiz-adv-x="1138" d="M545 307q78 0 145 80l354 -115q-136 -190 -346 -258l-61 -284h-328l56 260q-87 16 -155 57.5t-110.5 100.5t-64 131t-21.5 153q0 125 50.5 245t139.5 213.5t222.5 150.5t288.5 57q182 0 293.5 -79t150.5 -214l-403 -115q-31 80 -113 80q-89 0 -156 -83.5t-67 -211.5 q0 -78 34 -123t91 -45z" />
<glyph unicode="&#x4ae;" horiz-adv-x="1284" d="M406 485l-259 969h433l96 -629l371 629h434l-680 -973l-103 -481h-397z" />
<glyph unicode="&#x4af;" horiz-adv-x="1122" d="M117 -436l92 436l-121 1077h404v-772q119 218 187 375t150 397h349q-133 -482 -594 -1077l-78 -436h-389z" />
<glyph unicode="&#x4b0;" horiz-adv-x="1284" d="M1481 1454l-674 -965h197l-54 -245h-200l-52 -244h-397l53 244h-168l54 245h163l-256 965h433l96 -629l371 629h434z" />
<glyph unicode="&#x4b1;" horiz-adv-x="1122" d="M1178 1077q-133 -482 -594 -1077h188l-35 -164h-182l-49 -272h-389l57 272h-180l35 164h180l-121 1077h404v-772q119 218 187 375t150 397h349z" />
<glyph unicode="&#x4b6;" horiz-adv-x="1523" d="M1483 1454l-236 -1106h144l-136 -627h-337l59 279h-203l109 506q-118 -47 -267 -47q-260 0 -378.5 127.5t-55.5 374.5l121 493h389l-121 -487q-25 -99 20.5 -144t166.5 -45q98 0 190 39l135 637h400z" />
<glyph unicode="&#x4b7;" horiz-adv-x="1323" d="M1044 338h185l-131 -608h-348l57 270h-234l80 334q-109 -43 -254 -43q-168 0 -254.5 93t-50.5 259l92 434h389l-81 -383q-11 -60 16 -88t80 -28t123 26l100 473h389z" />
<glyph unicode="&#x4b8;" horiz-adv-x="1429" d="M1083 1454h400l-309 -1454h-400l109 506q-75 -29 -144 -39l-43 -193h-133l41 185q-167 2 -274.5 57.5t-149 166.5t1.5 278l121 493h389l-121 -487q-20 -81 6.5 -125t100.5 -58l51 230h133l-51 -232q67 6 137 35z" />
<glyph unicode="&#x4b9;" horiz-adv-x="1243" d="M866 1077h389l-229 -1077h-389l70 334q-69 -19 -82 -21l-39 -178h-133l34 158q-33 -2 -106 -2q-158 0 -239 93.5t-48 258.5l94 434h390l-82 -383q-17 -104 57 -114l37 165h133l-35 -157q21 3 78 16z" />
<glyph unicode="&#x4ba;" horiz-adv-x="1429" d="M426 0h-399l309 1454h399l-108 -506q118 47 266 47q171 0 281 -55t153 -166t0 -280l-121 -494h-389l121 487q25 99 -20 144t-166 45q-99 0 -191 -39z" />
<glyph unicode="&#x4bb;" horiz-adv-x="1230" d="M285 1495h389l-123 -577q72 87 168.5 133.5t204.5 46.5q256 0 256 -238q0 -62 -19 -151l-149 -709h-389l129 606q6 30 6 56q0 49 -22.5 72.5t-61.5 23.5q-35 0 -93.5 -44.5t-95.5 -109.5l-129 -604h-389z" />
<glyph unicode="&#x4c0;" horiz-adv-x="649" d="M303 1454h399l-309 -1454h-399z" />
<glyph unicode="&#x4c1;" horiz-adv-x="2340" d="M1294 1524q-193 0 -297.5 95t-81.5 257h302q-7 -55 25 -87t85 -32q52 0 94 32t49 87h302q-23 -162 -154 -257t-324 -95zM-98 0l663 756l-370 698h421l269 -534h102l113 534h399l-113 -534h66l473 534h438l-624 -698l446 -756h-456l-322 557h-98l-117 -557h-399l116 557 h-53l-498 -557h-456z" />
<glyph unicode="&#x4c2;" horiz-adv-x="1767" d="M987 1163q-162 0 -264 92.5t-102 239.5h200q0 -71 43 -118.5t123 -47.5q75 0 116.5 45t49.5 121h201q0 -146 -102.5 -239t-264.5 -93zM-98 0q81 186 201 332t255 231l-258 514h385l162 -383h72l82 383h387l-82 -383h61q83 62 155.5 163t117.5 220h393q-70 -160 -174 -294 t-219 -234l243 -549h-413l-164 401h-62l-86 -401h-387l86 401h-36q-93 -52 -175.5 -158.5t-136.5 -242.5h-407z" />
<glyph unicode="&#x4cb;" horiz-adv-x="1429" d="M1083 1454h400l-309 -1454h-295l-60 -279h-338l117 553h236l49 232q-118 -47 -267 -47q-260 0 -378.5 127.5t-55.5 374.5l121 493h389l-121 -487q-25 -99 20.5 -144t166.5 -45q98 0 190 39z" />
<glyph unicode="&#x4cc;" horiz-adv-x="1249" d="M834 1077h389l-230 -1077h-219l-57 -270h-348l98 475h176l31 129q-109 -43 -254 -43q-168 0 -254.5 93t-50.5 259l92 434h389l-82 -383q-11 -60 16 -88t80 -28t123 26z" />
<glyph unicode="&#x4cf;" horiz-adv-x="585" d="M197 1077h389l-230 -1077h-389z" />
<glyph unicode="&#x4d0;" horiz-adv-x="1302" d="M831 1524q-193 0 -297 95t-81 257h301q-7 -55 25 -87t85 -32q52 0 94.5 32t49.5 87h301q-23 -162 -154 -257t-324 -95zM655 1454h367l162 -1454h-406l-14 285h-348l-133 -285h-408zM758 551l-17 450l-211 -450h228z" />
<glyph unicode="&#x4d1;" horiz-adv-x="1323" d="M817 1163q-162 0 -264 92.5t-102 239.5h200q0 -71 43 -118.5t123 -47.5q75 0 116.5 45t49.5 121h201q0 -146 -102.5 -239t-264.5 -93zM14 414q0 182 80 340t214.5 251t287.5 93q97 0 168 -48t96 -132l33 151h391l-137 -639q-6 -30 -6 -49q0 -27 12.5 -39t42.5 -14 l-70 -328q-103 -20 -165 -20q-96 0 -147.5 36.5t-51.5 120.5q0 21 2 31q-71 -94 -167.5 -141t-201.5 -47q-176 0 -278.5 119.5t-102.5 314.5zM758 418l41 192q-11 71 -51 115.5t-95 44.5q-87 0 -158 -89.5t-71 -203.5q0 -78 39 -124t108 -46q48 0 91 26.5t96 84.5z" />
<glyph unicode="&#x4d2;" horiz-adv-x="1302" d="M477 1565l62 286h319l-61 -286h-320zM938 1565l61 286h318l-60 -286h-319zM655 1454h367l162 -1454h-406l-14 285h-348l-133 -285h-408zM758 551l-17 450l-211 -450h228z" />
<glyph unicode="&#x4d3;" horiz-adv-x="1323" d="M451 1188l61 287h319l-61 -287h-319zM911 1188l62 287h317l-59 -287h-320zM14 414q0 182 80 340t214.5 251t287.5 93q97 0 168 -48t96 -132l33 151h391l-137 -639q-6 -30 -6 -49q0 -27 12.5 -39t42.5 -14l-70 -328q-103 -20 -165 -20q-96 0 -147.5 36.5t-51.5 120.5 q0 21 2 31q-71 -94 -167.5 -141t-201.5 -47q-176 0 -278.5 119.5t-102.5 314.5zM758 418l41 192q-11 71 -51 115.5t-95 44.5q-87 0 -158 -89.5t-71 -203.5q0 -78 39 -124t108 -46q48 0 91 26.5t96 84.5z" />
<glyph unicode="&#x4d4;" horiz-adv-x="1914" d="M979 1454h1034l-76 -348h-530l-41 -193h426l-74 -348h-426l-45 -217h547l-74 -348h-946l62 285h-383l-195 -285h-422zM879 633l79 381l-264 -381h185z" />
<glyph unicode="&#x4d5;" horiz-adv-x="1847" d="M-29 266q0 180 155 304t376 124q124 0 192 -41q11 74 11 82q0 51 -35 76t-109 25q-83 0 -163 -28.5t-177 -88.5l-61 242q232 137 495 137q225 0 340 -103q163 103 359 103q114 0 203.5 -35.5t145 -97.5t84 -142t28.5 -172q0 -111 -52 -231h-702q-4 -24 -4 -39 q0 -61 38 -92t95 -31t113 30t81 79l310 -95q-94 -134 -244.5 -213t-333.5 -79q-152 0 -256 55.5t-155 152.5q-93 -103 -213.5 -155.5t-225.5 -52.5q-133 0 -214 79.5t-81 206.5zM1405 653q0 5 1 14t1 19q0 62 -31.5 98.5t-87.5 36.5q-63 0 -112 -45t-74 -123h303zM645 326 q-2 10 -2 32q0 19 8 97q-65 28 -129 28q-67 0 -119.5 -41.5t-52.5 -99.5q0 -38 25.5 -61t73.5 -23q46 0 100.5 19.5t95.5 48.5z" />
<glyph unicode="&#x4d6;" horiz-adv-x="1177" d="M772 1524q-193 0 -297.5 95t-81.5 257h301q-7 -55 25.5 -87t85.5 -32q52 0 94 32t49 87h301q-23 -163 -153.5 -257.5t-323.5 -94.5zM303 1454h971l-74 -348h-571l-43 -205h487l-69 -323h-488l-49 -230h590l-74 -348h-989z" />
<glyph unicode="&#x4d7;" d="M754 1163q-162 0 -264.5 93t-102.5 239h201q0 -71 43 -118.5t123 -47.5q75 0 116.5 45t49.5 121h200q0 -147 -102 -239.5t-264 -92.5zM614 258q130 0 193 111l311 -99q-85 -136 -226 -213t-333 -77q-211 0 -346 124.5t-150 331.5q-9 136 38.5 258.5t136.5 211t217 140.5 t274 52q195 0 311.5 -83t126.5 -231q12 -181 -149.5 -273.5t-487.5 -92.5h-59v-2q6 -85 39 -121.5t104 -36.5zM678 821q-57 0 -104 -46t-74 -124h12q157 0 218 19.5t58 70.5q-3 35 -33.5 57.5t-76.5 22.5z" />
<glyph unicode="&#x4d8;" horiz-adv-x="1499" d="M31 582q0 131 57 260h971q4 36 4 53q0 109 -60 163t-153 54q-80 0 -157.5 -44t-112.5 -118l-394 117q121 184 310 289.5t424 105.5q114 0 210 -34.5t161.5 -93t111.5 -135.5t67 -161.5t21 -171.5q0 -116 -39.5 -238t-117 -236t-182.5 -204t-247 -144t-299 -54 q-117 0 -214 35.5t-163 94t-111.5 136t-66 159.5t-20.5 167zM987 549h-530q-6 -24 -6 -45q0 -76 66.5 -121t168.5 -45q103 0 183 56t118 155z" />
<glyph unicode="&#x4d9;" horiz-adv-x="1210" d="M465 -20q-115 0 -204.5 32.5t-145 90t-83.5 133.5t-28 167q0 126 49 254h707q2 10 2 33q0 64 -38 96.5t-93 32.5q-59 0 -115.5 -29.5t-81.5 -78.5l-309 94q95 134 244 213.5t333 79.5q113 0 203 -35t146 -96.5t85 -141t29 -170.5q0 -128 -49 -248.5t-136.5 -215.5 t-222 -153t-292.5 -58zM528 256q64 0 114.5 44.5t76.5 123.5h-305q-2 -10 -2 -31q0 -65 30 -101t86 -36z" />
<glyph unicode="&#x4dc;" horiz-adv-x="2340" d="M940 1565l61 286h320l-61 -286h-320zM1401 1565l61 286h318l-60 -286h-319zM-98 0l663 756l-370 698h421l269 -534h102l113 534h399l-113 -534h66l473 534h438l-624 -698l446 -756h-456l-322 557h-98l-117 -557h-399l116 557h-53l-498 -557h-456z" />
<glyph unicode="&#x4dd;" horiz-adv-x="1767" d="M621 1188l61 287h319l-61 -287h-319zM1081 1188l62 287h317l-59 -287h-320zM-98 0q81 186 201 332t255 231l-258 514h385l162 -383h72l82 383h387l-82 -383h61q83 62 155.5 163t117.5 220h393q-70 -160 -174 -294t-219 -234l243 -549h-413l-164 401h-62l-86 -401h-387 l86 401h-36q-93 -52 -175.5 -158.5t-136.5 -242.5h-407z" />
<glyph unicode="&#x4de;" horiz-adv-x="1382" d="M463 1565l61 286h320l-62 -286h-319zM924 1565l61 286h318l-60 -286h-319zM592 -12q-201 0 -351.5 78.5t-224.5 220.5l326 186q38 -74 111.5 -115t175.5 -41q196 0 213 134q20 131 -176 131h-131l63 299h111q86 0 127 28t49 84t-28.5 85.5t-133.5 29.5 q-101 0 -177.5 -36.5t-121.5 -98.5l-258 205q80 90 164.5 149.5t202.5 97t258 37.5q263 0 390.5 -102.5t100.5 -302.5q-15 -100 -73.5 -183t-166.5 -129q113 -36 164.5 -125t34.5 -210q-19 -136 -110.5 -232.5t-229.5 -143t-309 -46.5z" />
<glyph unicode="&#x4df;" horiz-adv-x="1028" d="M215 1188l61 287h320l-61 -287h-320zM676 1188l61 287h318l-60 -287h-319zM438 -20q-363 0 -481 243l330 144q28 -40 67.5 -60t104.5 -20q69 0 105.5 20.5t41.5 54.5q5 32 -23.5 50t-93.5 18h-120l49 234h104q94 0 103 63q5 30 -21.5 47t-87.5 17q-55 0 -92.5 -18 t-71.5 -56l-268 155q80 107 209 166.5t287 59.5q192 0 303 -82t90 -232q-10 -74 -54.5 -136t-127.5 -89q97 -28 137 -95t28 -163q-23 -155 -165.5 -238t-352.5 -83z" />
<glyph unicode="&#x4e2;" horiz-adv-x="1511" d="M690 1620l49 231h607l-50 -231h-606zM-4 0l307 1454h399l-190 -899l678 899h373l-308 -1454h-399l180 846l-661 -846h-379z" />
<glyph unicode="&#x4e3;" horiz-adv-x="1265" d="M459 1243l49 232h606l-49 -232h-606zM18 233q0 53 17 136l151 708h387l-131 -620q-6 -30 -6 -56q0 -45 20.5 -69.5t57.5 -24.5q87 0 184 111l142 659h389l-137 -647q-7 -35 -7 -49q0 -27 13 -39t43 -14l-70 -328q-103 -20 -168 -20q-201 0 -201 149q0 4 5 39 q-174 -188 -437 -188q-123 0 -187.5 64.5t-64.5 188.5z" />
<glyph unicode="&#x4e4;" horiz-adv-x="1511" d="M592 1565l61 286h320l-62 -286h-319zM1053 1565l61 286h318l-60 -286h-319zM-4 0l307 1454h399l-190 -899l678 899h373l-308 -1454h-399l180 846l-661 -846h-379z" />
<glyph unicode="&#x4e5;" horiz-adv-x="1265" d="M360 1188l62 287h319l-61 -287h-320zM821 1188l62 287h317l-59 -287h-320zM18 233q0 53 17 136l151 708h387l-131 -620q-6 -30 -6 -56q0 -45 20.5 -69.5t57.5 -24.5q87 0 184 111l142 659h389l-137 -647q-7 -35 -7 -49q0 -27 13 -39t43 -14l-70 -328q-103 -20 -168 -20 q-201 0 -201 149q0 4 5 39q-174 -188 -437 -188q-123 0 -187.5 64.5t-64.5 188.5z" />
<glyph unicode="&#x4e6;" horiz-adv-x="1572" d="M569 1565l62 286h319l-61 -286h-320zM1030 1565l62 286h317l-59 -286h-320zM702 -12q-129 0 -239 41t-188 112t-129.5 164.5t-70 202.5t-3.5 221q20 143 95.5 276.5t186.5 234.5t259.5 161.5t306.5 60.5q160 0 290.5 -63.5t209 -168t113 -237.5t15.5 -272 q-20 -142 -94.5 -275t-185 -234.5t-259.5 -162.5t-307 -61zM758 342q83 0 153 33.5t116.5 89.5t76 123t39.5 141q15 102 -9 186t-94 138.5t-178 54.5q-83 0 -152.5 -33t-116.5 -88t-76.5 -122t-39.5 -140q-6 -59 -3 -114.5t24.5 -104.5t54.5 -85.5t86 -57.5t119 -21z" />
<glyph unicode="&#x4e7;" horiz-adv-x="1302" d="M401 1180l62 286h319l-61 -286h-320zM862 1180l62 286h317l-59 -286h-320zM575 -20q-140 0 -247.5 45.5t-169 123.5t-86.5 178t-9 212q16 113 68.5 213t136 177.5t203.5 123t260 45.5t247.5 -45.5t169 -123t86.5 -177.5t9 -213q-16 -112 -68.5 -212t-135.5 -178 t-203.5 -123.5t-260.5 -45.5zM621 287q86 0 152 69t81 183t-33.5 183t-134.5 69t-152 -69t-81 -183t33.5 -183t134.5 -69z" />
<glyph unicode="&#x4e8;" horiz-adv-x="1566" d="M920 1462q160 0 290.5 -63.5t209 -168t113 -237.5t15.5 -272q-20 -142 -94.5 -275t-185 -234.5t-259.5 -162.5t-307 -61q-129 0 -239 41t-188 112t-129.5 164.5t-70 202.5t-3.5 221q20 143 95.5 276.5t186.5 234.5t259.5 161.5t306.5 60.5zM862 1108q-130 0 -221.5 -76 t-136.5 -196h643q-10 121 -81.5 196.5t-203.5 75.5zM758 342q141 0 235 88t133 221h-653q0 -134 72 -221.5t213 -87.5z" />
<glyph unicode="&#x4e9;" horiz-adv-x="1263" d="M692 1098q140 0 247.5 -45.5t169 -123t86.5 -177.5t9 -213q-16 -112 -68.5 -212t-135.5 -178t-203 -123.5t-260 -45.5t-247.5 45.5t-169 123.5t-86.5 178t-9 212q16 113 68.5 213t135.5 177.5t203 123t260 45.5zM647 791q-68 0 -126.5 -46t-88.5 -127h385 q-9 81 -55.5 127t-114.5 46zM582 287q70 0 129 47.5t88 130.5h-387q6 -83 53 -130.5t117 -47.5z" />
<glyph unicode="&#x4ee;" horiz-adv-x="1396" d="M625 1620l49 231h606l-49 -231h-606zM209 -14l70 327h174q30 0 50.5 12t43.5 37l12 15l-405 1077h440l180 -692l365 692h411l-729 -1243q-80 -126 -173.5 -175.5t-239.5 -49.5h-199z" />
<glyph unicode="&#x4ef;" horiz-adv-x="1112" d="M383 1243l49 232h606l-49 -232h-606zM-115 -190q118 0 175.5 19.5t107.5 78.5l59 69l-141 1100h395l25 -747l69 114q160 265 230 633h373q-56 -201 -139 -372.5t-283 -493.5l-164 -264q-145 -234 -296 -330t-366 -96z" />
<glyph unicode="&#x4f0;" horiz-adv-x="1396" d="M526 1565l62 286h319l-61 -286h-320zM987 1565l62 286h317l-59 -286h-320zM209 -14l70 327h174q30 0 50.5 12t43.5 37l12 15l-405 1077h440l180 -692l365 692h411l-729 -1243q-80 -126 -173.5 -175.5t-239.5 -49.5h-199z" />
<glyph unicode="&#x4f1;" horiz-adv-x="1112" d="M285 1188l61 287h320l-62 -287h-319zM745 1188l62 287h317l-59 -287h-320zM-115 -190q118 0 175.5 19.5t107.5 78.5l59 69l-141 1100h395l25 -747l69 114q160 265 230 633h373q-56 -201 -139 -372.5t-283 -493.5l-164 -264q-145 -234 -296 -330t-366 -96z" />
<glyph unicode="&#x4f2;" horiz-adv-x="1396" d="M778 1563l-203 18l138 291h282zM1157 1563l-201 18l136 291h282zM209 -14l70 327h174q30 0 50.5 12t43.5 37l12 15l-405 1077h440l180 -692l365 692h411l-729 -1243q-80 -126 -173.5 -175.5t-239.5 -49.5h-199z" />
<glyph unicode="&#x4f3;" horiz-adv-x="1112" d="M537 1186l-203 18l137 291h283zM915 1186l-200 18l135 291h283zM-115 -190q118 0 175.5 19.5t107.5 78.5l59 69l-141 1100h395l25 -747l69 114q160 265 230 633h373q-56 -201 -139 -372.5t-283 -493.5l-164 -264q-145 -234 -296 -330t-366 -96z" />
<glyph unicode="&#x4f4;" horiz-adv-x="1429" d="M559 1565l62 286h319l-61 -286h-320zM1020 1565l61 286h318l-60 -286h-319zM1083 1454h400l-309 -1454h-400l109 506q-118 -47 -267 -47q-260 0 -378.5 127.5t-55.5 374.5l121 493h389l-121 -487q-25 -99 20.5 -144t166.5 -45q98 0 190 39z" />
<glyph unicode="&#x4f5;" horiz-adv-x="1189" d="M377 1188l61 287h320l-62 -287h-319zM838 1188l61 287h318l-60 -287h-319zM573 0l80 334q-109 -43 -254 -43q-168 0 -254.5 93t-50.5 259l92 434h389l-81 -383q-11 -60 16 -88t80 -28t123 26l100 473h389l-229 -1077h-400z" />
<glyph unicode="&#x4f6;" horiz-adv-x="1112" d="M1161 1106h-549l-159 -758h219l-135 -627h-338l59 279h-278l307 1454h948z" />
<glyph unicode="&#x4f7;" horiz-adv-x="1191" d="M614 262q57 0 117 30t103 83l233 -191l-98 -454h-348l61 262q-78 -10 -154 -10q-227 0 -332.5 84.5t-105.5 228.5q0 133 110.5 213t366.5 143q78 29 106.5 56t28.5 69q0 27 -27.5 41t-70.5 14q-57 0 -121 -31.5t-102 -84.5l-262 153q184 232 557 232q201 0 303 -82 t102 -217q0 -123 -83.5 -196t-276.5 -128q-72 -21 -119 -41.5t-69.5 -41.5t-30.5 -39t-8 -40q0 -53 120 -53z" />
<glyph unicode="&#x4f8;" horiz-adv-x="1945" d="M788 1565l62 286h319l-61 -286h-320zM1249 1565l62 286h317l-59 -286h-320zM-4 0l307 1454h399l-102 -481h160q245 0 368.5 -128.5t92.5 -352.5q-31 -227 -186.5 -359.5t-391.5 -132.5h-647zM1599 1454h400l-309 -1454h-400zM465 324h166q77 0 125 44.5t57 123.5 q8 66 -27 111.5t-108 45.5h-146z" />
<glyph unicode="&#x4f9;" horiz-adv-x="1734" d="M1014 1475l-62 -287h-319l61 287h320zM1473 1475l-60 -287h-319l61 287h318zM645 797q81 0 148 -11.5t126.5 -39.5t98 -72.5t55.5 -115t4 -161.5q-54 -417 -549 -417q-124 0 -219.5 26t-161.5 79t-91.5 140t-4.5 203q9 51 21.5 109.5t23 103.5t29 114t28 104t31.5 113.5 t29 104.5h389q-38 -128 -78 -280h121zM1358 1077h389l-229 -1077h-390zM733 406q9 54 -28 86t-111 32h-135q-19 -94 -23 -118q-10 -51 33.5 -81t114.5 -30q65 0 104 28.5t45 82.5z" />
<glyph unicode="&#x51a;" horiz-adv-x="1509" d="M1499 852q0 -169 -77.5 -332.5t-211.5 -286.5l160 -233h-373l-43 63q-162 -73 -336 -73q-131 0 -239 50.5t-178 135t-108 193.5t-38 229q0 162 73 320.5t193 278t284 193.5t335 74q131 0 239 -51t177 -137t106 -195t37 -229zM698 344q24 0 60 4l-180 266h370l60 -86 q84 137 84 297q0 124 -58.5 204.5t-175.5 80.5q-74 0 -139 -29.5t-110.5 -78.5t-78.5 -111.5t-49 -129.5t-16 -132q0 -123 58 -204t175 -81z" />
<glyph unicode="&#x51b;" horiz-adv-x="1282" d="M14 410q0 141 50.5 269.5t134 219.5t195 145t229.5 54q211 0 286 -187l35 166h338l-225 -1063q-6 -24 -6 -43q0 -31 18 -44t59 -15l-69 -328q-120 -20 -219 -20t-161.5 51t-62.5 137q0 19 7 51l75 357q-60 -87 -150.5 -133.5t-201.5 -46.5q-152 0 -242 120t-90 310z M754 418l41 192q-12 71 -52 115.5t-94 44.5q-88 0 -158.5 -89t-70.5 -202q0 -79 39.5 -125.5t109.5 -46.5q91 0 185 111z" />
<glyph unicode="&#x51c;" horiz-adv-x="2052" d="M141 1454h432l72 -997l146 303l-74 694h364l21 -448l211 448h366l-374 -694l22 -303l492 997h436l-848 -1454h-330l-80 520l-297 -520h-329z" />
<glyph unicode="&#x51d;" horiz-adv-x="1671" d="M70 1077h368l78 -723q18 39 54 116t53 116l-80 491h307l18 -315l154 315h287q-63 -150 -124.5 -263t-144.5 -228l15 -127q164 212 221 306t158 312h348q-219 -530 -723 -1077h-223l-41 410l-215 -410h-320z" />
<glyph unicode="&#x524;" horiz-adv-x="1636" d="M1550 1454l-233 -1106h186l-135 -627h-338l60 279h-246l233 1106h-448l-234 -1106h-399l307 1454h1247z" />
<glyph unicode="&#x525;" horiz-adv-x="1366" d="M1094 338h178l-131 -608h-348l57 270h-217l166 780h-256l-166 -780h-389l229 1077h1034z" />
<glyph unicode="&#x1e08;" horiz-adv-x="1359" d="M1268 1880l-240 -315l-262 24l158 291h344zM696 342q84 0 167 43.5t132 134.5l285 -194q-84 -142 -257 -232t-353 -104q45 -78 45 -164q0 -70 -31 -132t-97 -103.5t-155 -41.5q-108 0 -209 70l133 199q11 -19 30 -29t36 -10q33 0 58.5 27t25.5 71q0 59 -33 123l6 4 q-131 32 -228.5 124.5t-145.5 217t-48 264.5q0 120 42.5 243t122.5 231.5t186.5 193.5t244.5 134.5t285 49.5q196 0 329 -86t175 -231l-350 -217q-7 50 -31 87t-58.5 56.5t-71 28t-77.5 8.5q-73 0 -137 -29.5t-109 -78t-78 -110t-49 -126.5t-16 -127q0 -127 59.5 -211 t171.5 -84z" />
<glyph unicode="&#x1e09;" horiz-adv-x="1136" d="M1106 1495l-240 -315l-262 24l158 291h344zM543 307q78 0 145 80l354 -115q-79 -112 -194.5 -186.5t-257.5 -97.5q45 -75 45 -162q0 -70 -31 -132t-97 -103.5t-155 -41.5q-108 0 -209 70l133 199q11 -19 30 -29t36 -10q33 0 58.5 27t25.5 71q0 52 -25 107 q-128 15 -217.5 80.5t-130.5 159t-41 208.5q0 125 50.5 245t139.5 213.5t222.5 150.5t288.5 57q182 0 293.5 -79t150.5 -214l-403 -115q-31 80 -113 80q-89 0 -156 -83.5t-67 -211.5q0 -78 34 -123t91 -45z" />
<glyph unicode="&#x1e0c;" horiz-adv-x="1419" d="M303 1454h537q141 0 250.5 -43.5t177 -121.5t102.5 -179.5t35 -222.5q0 -189 -67 -354t-183 -282t-278.5 -184t-346.5 -67h-536zM604 348q111 0 201 67t139 176.5t49 237.5q0 127 -59.5 202t-167.5 75h-137l-162 -758h137zM268 -436l66 307h348l-66 -307h-348z" />
<glyph unicode="&#x1e0d;" horiz-adv-x="1320" d="M14 414q0 182 80 340t214.5 251t287.5 93q97 0 168 -48t96 -132l123 577h391l-227 -1065q-6 -30 -6 -49q0 -27 12.5 -39t42.5 -14l-70 -328q-103 -20 -165 -20q-201 0 -201 147q0 13 4 41q-71 -94 -167.5 -141t-201.5 -47q-176 0 -278.5 119.5t-102.5 314.5zM758 418 l41 192q-11 71 -51 115.5t-95 44.5q-87 0 -158 -89.5t-71 -203.5q0 -78 39 -124t108 -46q48 0 91 26.5t96 84.5zM281 -436l65 307h348l-65 -307h-348z" />
<glyph unicode="&#x1e0e;" horiz-adv-x="1419" d="M303 1454h537q141 0 250.5 -43.5t177 -121.5t102.5 -179.5t35 -222.5q0 -189 -67 -354t-183 -282t-278.5 -184t-346.5 -67h-536zM604 348q111 0 201 67t139 176.5t49 237.5q0 127 -59.5 202t-167.5 75h-137l-162 -758h137zM158 -383l53 231h580l-54 -231h-579z" />
<glyph unicode="&#x1e0f;" horiz-adv-x="1320" d="M14 414q0 182 80 340t214.5 251t287.5 93q97 0 168 -48t96 -132l123 577h391l-227 -1065q-6 -30 -6 -49q0 -27 12.5 -39t42.5 -14l-70 -328q-103 -20 -165 -20q-201 0 -201 147q0 13 4 41q-71 -94 -167.5 -141t-201.5 -47q-176 0 -278.5 119.5t-102.5 314.5zM758 418 l41 192q-11 71 -51 115.5t-95 44.5q-87 0 -158 -89.5t-71 -203.5q0 -78 39 -124t108 -46q48 0 91 26.5t96 84.5zM170 -383l53 231h580l-53 -231h-580z" />
<glyph unicode="&#x1e14;" horiz-adv-x="1177" d="M621 2269h344l34 -291l-270 -28zM516 1620l49 231h606l-49 -231h-606zM303 1454h971l-74 -348h-571l-43 -205h487l-69 -323h-488l-49 -230h590l-74 -348h-989z" />
<glyph unicode="&#x1e15;" horiz-adv-x="1159" d="M922 1593l-271 -28l-108 319h344zM1094 1466l-50 -231h-606l49 231h607zM551 258q132 0 201 111l305 -99q-91 -130 -251 -210t-329 -80q-211 0 -337 124.5t-126 331.5q0 136 56 258.5t151 211t226.5 140.5t277.5 52q195 0 305.5 -83t110.5 -231q0 -181 -168 -273.5 t-494 -92.5h-59v-2q0 -85 30.5 -121.5t100.5 -36.5zM655 821q-57 0 -107 -46t-83 -124h12q158 0 220.5 19.5t62.5 70.5q0 35 -29.5 57.5t-75.5 22.5z" />
<glyph unicode="&#x1e16;" horiz-adv-x="1177" d="M1022 1962l-262 25l158 290h344zM516 1620l49 231h606l-49 -231h-606zM303 1454h971l-74 -348h-571l-43 -205h487l-69 -323h-488l-49 -230h590l-74 -348h-989z" />
<glyph unicode="&#x1e17;" horiz-adv-x="1159" d="M1184 1892l-240 -315l-262 25l158 290h344zM1094 1466l-50 -231h-606l49 231h607zM479 418h-59v-2q0 -85 30.5 -121.5t100.5 -36.5q132 0 201 111l305 -99q-91 -130 -251 -210t-329 -80q-211 0 -337 124.5t-126 331.5q0 136 56 258.5t151 211t226.5 140.5t277.5 52 q195 0 305.5 -83t110.5 -231q0 -181 -168 -273.5t-494 -92.5zM655 821q-57 0 -107 -46t-83 -124h12q158 0 220.5 19.5t62.5 70.5q0 35 -29.5 57.5t-75.5 22.5z" />
<glyph unicode="&#x1e1c;" horiz-adv-x="1177" d="M801 1540q-121 0 -190.5 67.5t-69.5 180.5q0 36 10 84h201q-7 -28 -7 -47q0 -51 25.5 -85t65.5 -34q44 0 87.5 47t65.5 119h201q-31 -146 -139.5 -239t-249.5 -93zM1200 1106h-571l-43 -205h487l-69 -323h-488l-49 -230h590l-74 -348h-410q52 -88 52 -174q0 -70 -31 -132 t-97 -103.5t-155 -41.5q-108 0 -209 70l133 199q11 -19 30 -29t36 -10q33 0 58.5 27t25.5 71q0 59 -33 123h-389l309 1454h971z" />
<glyph unicode="&#x1e1d;" horiz-adv-x="1159" d="M723 1155q-121 0 -190.5 67.5t-69.5 180.5q0 36 10 84h201q-6 -24 -6 -47q0 -51 25.5 -85t64.5 -34q44 0 87.5 47t65.5 119h201q-31 -146 -139.5 -239t-249.5 -93zM551 258q132 0 201 111l305 -99q-76 -110 -204.5 -185t-274.5 -97q45 -78 45 -162q0 -70 -31 -132 t-97 -103.5t-155 -41.5q-108 0 -209 70l133 199q11 -19 30 -29t36 -10q33 0 58.5 27t25.5 71q0 50 -27 109q-173 26 -273 146t-100 304q0 136 56 258.5t151 211t226.5 140.5t277.5 52q195 0 305.5 -83t110.5 -231q0 -181 -168 -273.5t-494 -92.5h-59v-2q0 -85 30.5 -121.5 t100.5 -36.5zM655 821q-57 0 -107 -46t-83 -124h12q158 0 220.5 19.5t62.5 70.5q0 35 -29.5 57.5t-75.5 22.5z" />
<glyph unicode="&#x1e20;" horiz-adv-x="1456" d="M1327 1847l-49 -231h-606l49 231h606zM782 487l60 287h581l-166 -774h-327l26 123q-175 -133 -362 -133q-114 0 -212.5 40.5t-170.5 114.5t-113 185.5t-41 247.5q0 182 75.5 348t198.5 283t285.5 186t331.5 69q187 0 322 -85t178 -232l-344 -227q-22 86 -90 138t-156 52 q-101 0 -190.5 -63.5t-144 -175t-54.5 -242.5q0 -130 62.5 -207.5t173.5 -77.5q156 0 315 143h-238z" />
<glyph unicode="&#x1e21;" horiz-adv-x="1282" d="M471 1235l49 231h606l-49 -231h-606zM-133 -250l250 213q45 -59 115 -95t153 -36q69 0 128 25t106.5 87t66.5 154l14 70q-58 -82 -149 -125t-191 -43q-160 0 -252 116.5t-92 301.5q0 184 84 341t225 248t304 91q108 0 181 -46.5t101 -133.5l35 159h338l-209 -979 q-54 -252 -258.5 -403.5t-490.5 -151.5q-306 0 -459 207zM754 418l41 192q-10 73 -50.5 116.5t-95.5 43.5q-86 0 -156.5 -90t-70.5 -203q0 -76 39 -123t106 -47q48 0 92 27t95 84z" />
<glyph unicode="&#x1e24;" horiz-adv-x="1482" d="M303 1454h399l-114 -536h434l115 536h399l-309 -1454h-400l121 569h-434l-121 -569h-399zM360 -436l66 307h348l-65 -307h-349z" />
<glyph unicode="&#x1e25;" horiz-adv-x="1230" d="M285 1495h389l-123 -577q72 87 168.5 133.5t204.5 46.5q256 0 256 -238q0 -62 -19 -151l-149 -709h-389l129 606q6 30 6 56q0 49 -22.5 72.5t-61.5 23.5q-35 0 -93.5 -44.5t-95.5 -109.5l-129 -604h-389zM236 -436l65 307h348l-65 -307h-348z" />
<glyph unicode="&#x1e2a;" horiz-adv-x="1482" d="M303 1454h399l-114 -536h434l115 536h399l-309 -1454h-400l121 569h-434l-121 -569h-399zM524 -436q-134 0 -195.5 92.5t-27.5 239.5h195q-15 -68 4 -117t63 -49q40 0 81 47t63 119h194q-34 -147 -139 -239.5t-238 -92.5z" />
<glyph unicode="&#x1e2b;" horiz-adv-x="1230" d="M285 1495h389l-123 -577q72 87 168.5 133.5t204.5 46.5q256 0 256 -238q0 -62 -19 -151l-149 -709h-389l129 606q6 30 6 56q0 49 -22.5 72.5t-61.5 23.5q-35 0 -93.5 -44.5t-95.5 -109.5l-129 -604h-389zM399 -436q-134 0 -195.5 92.5t-27.5 239.5h195q-15 -68 4 -117 t63 -49q40 0 81 47t63 119h194q-34 -147 -139 -239.5t-238 -92.5z" />
<glyph unicode="&#x1e2e;" horiz-adv-x="649" d="M758 1962l-262 25l157 290h344zM154 1565l61 286h320l-62 -286h-319zM614 1565l62 286h317l-59 -286h-320zM303 1454h399l-309 -1454h-399z" />
<glyph unicode="&#x1e2f;" horiz-adv-x="585" d="M629 1585l-262 25l157 291h344zM25 1188l61 287h320l-62 -287h-319zM485 1188l62 287h317l-59 -287h-320zM197 1077h389l-230 -1077h-389z" />
<glyph unicode="&#x1e36;" horiz-adv-x="1155" d="M303 1454h399l-235 -1106h612l-73 -348h-1012zM233 -436l66 307h348l-65 -307h-349z" />
<glyph unicode="&#x1e37;" horiz-adv-x="706" d="M10 199q0 51 10 92l256 1204h390l-228 -1067q-6 -24 -6 -45q0 -78 74 -78q46 0 106 31l-12 -287q-72 -32 -163 -50.5t-167 -18.5q-127 0 -193.5 56.5t-66.5 162.5zM8 -436l66 307h348l-66 -307h-348z" />
<glyph unicode="&#x1e3a;" horiz-adv-x="1155" d="M303 1454h399l-235 -1106h612l-73 -348h-1012zM123 -383l53 231h580l-54 -231h-579z" />
<glyph unicode="&#x1e3b;" horiz-adv-x="706" d="M10 199q0 51 10 92l256 1204h390l-228 -1067q-6 -24 -6 -45q0 -78 74 -78q46 0 106 31l-12 -287q-72 -32 -163 -50.5t-167 -18.5q-127 0 -193.5 56.5t-66.5 162.5zM-102 -383l53 231h579l-53 -231h-579z" />
<glyph unicode="&#x1e42;" horiz-adv-x="1679" d="M303 1454h436l133 -684l426 684h435l-310 -1454h-399l162 766l-324 -539h-211l-94 539l-164 -766h-399zM459 -436l65 307h348l-65 -307h-348z" />
<glyph unicode="&#x1e43;" horiz-adv-x="1849" d="M197 1077h350l-35 -159q69 86 176.5 133t226.5 47q225 0 244 -187q72 88 177.5 137.5t219.5 49.5q242 0 242 -238q0 -61 -18 -151l-152 -709h-389l129 606q6 34 6 60q0 45 -18.5 68.5t-46.5 23.5q-42 0 -98 -45t-91 -109l-127 -604h-389l129 606q6 35 6 60q0 45 -19 68.5 t-48 23.5q-42 0 -98 -45.5t-89 -108.5l-129 -604h-389zM545 -436l65 307h348l-65 -307h-348z" />
<glyph unicode="&#x1e44;" horiz-adv-x="1484" d="M748 1561l65 307h348l-65 -307h-348zM303 1454h311l369 -739l156 739h399l-309 -1454h-316l-368 715l-152 -715h-399z" />
<glyph unicode="&#x1e45;" horiz-adv-x="1230" d="M571 1180l66 307h348l-65 -307h-349zM197 1077h350l-35 -159q72 88 180 134t240 46q246 0 246 -244q0 -54 -17 -145l-149 -709h-389l129 606q6 30 6 53q0 48 -22.5 73.5t-57.5 25.5q-41 0 -98.5 -44.5t-94.5 -109.5l-129 -604h-389z" />
<glyph unicode="&#x1e46;" horiz-adv-x="1484" d="M303 1454h311l369 -739l156 739h399l-309 -1454h-316l-368 715l-152 -715h-399zM354 -436l66 307h348l-66 -307h-348z" />
<glyph unicode="&#x1e47;" horiz-adv-x="1230" d="M197 1077h350l-35 -159q72 88 180 134t240 46q246 0 246 -244q0 -54 -17 -145l-149 -709h-389l129 606q6 30 6 53q0 48 -22.5 73.5t-57.5 25.5q-41 0 -98.5 -44.5t-94.5 -109.5l-129 -604h-389zM225 -436l66 307h348l-66 -307h-348z" />
<glyph unicode="&#x1e48;" horiz-adv-x="1484" d="M303 1454h311l369 -739l156 739h399l-309 -1454h-316l-368 715l-152 -715h-399zM244 -383l53 231h580l-54 -231h-579z" />
<glyph unicode="&#x1e49;" horiz-adv-x="1230" d="M197 1077h350l-35 -159q72 88 180 134t240 46q246 0 246 -244q0 -54 -17 -145l-149 -709h-389l129 606q6 30 6 53q0 48 -22.5 73.5t-57.5 25.5q-41 0 -98.5 -44.5t-94.5 -109.5l-129 -604h-389zM115 -383l53 231h580l-54 -231h-579z" />
<glyph unicode="&#x1e4c;" horiz-adv-x="1511" d="M1180 1978l-262 25l157 291h344zM852 1642q-25 0 -45 -10t-31.5 -23.5t-19.5 -28.5t-10.5 -24t-2.5 -12h-206q5 24 22 61.5t49 83.5t71 85.5t93.5 66.5t110.5 27q43 0 79.5 -16.5t56.5 -36t48 -36t57 -16.5t53 14.5t38 37t19.5 33.5t8.5 20h205q-4 -17 -21 -52t-50 -82.5 t-73 -89t-96.5 -71t-113.5 -29.5q-40 0 -75.5 15.5t-57 33.5t-51 33.5t-58.5 15.5zM57 598q0 162 73 320t192.5 277.5t283.5 193t336 73.5q131 0 239 -51t177 -136.5t106 -194t37 -228.5q0 -161 -72 -318.5t-190.5 -277.5t-282 -194t-335.5 -74q-132 0 -240.5 50.5t-178 136 t-107.5 194.5t-38 229zM1094 825q0 123 -58 203t-176 80q-75 0 -140 -29.5t-110.5 -78t-78.5 -111t-48.5 -129t-15.5 -131.5q0 -125 57 -206t174 -81q76 0 141.5 30t111.5 79.5t79 112.5t48.5 129.5t15.5 131.5z" />
<glyph unicode="&#x1e4d;" d="M950 1597l-262 25l158 291h344zM623 1262q-25 0 -45 -10t-31.5 -23.5t-19.5 -29t-10.5 -24.5t-2.5 -12h-207q5 24 22 61.5t49 83.5t71 85.5t93.5 66.5t110.5 27q43 0 79.5 -16.5t57 -36t48.5 -36t57 -16.5t53 14.5t38 37t19.5 33.5t8.5 20h205q-3 -13 -16 -40.5 t-35 -64.5t-54.5 -75t-69.5 -70.5t-84.5 -53t-95.5 -20.5q-40 0 -75.5 15.5t-57 34t-50.5 34t-58 15.5zM14 438q0 130 47.5 249t133.5 210.5t216.5 146t284.5 54.5q124 0 218 -35.5t150 -99t83 -144.5t27 -178q0 -130 -47.5 -249t-133.5 -211t-216.5 -146.5t-284.5 -54.5 q-124 0 -218 35.5t-150 99.5t-83 145t-27 178zM768 598q0 82 -33 127t-94 45q-89 0 -155 -84.5t-66 -206.5q0 -82 33 -127t94 -45q89 0 155 84.5t66 206.5z" />
<glyph unicode="&#x1e4e;" horiz-adv-x="1511" d="M659 1978l62 287h319l-61 -287h-320zM1120 1978l62 287h317l-59 -287h-320zM852 1642q-25 0 -45 -10t-31.5 -23.5t-19.5 -28.5t-10.5 -24t-2.5 -12h-206q5 24 22 61.5t49 83.5t71 85.5t93.5 66.5t110.5 27q43 0 79.5 -16.5t56.5 -36t48 -36t57 -16.5t53 14.5t38 37 t19.5 33.5t8.5 20h205q-4 -17 -21 -52t-50 -82.5t-73 -89t-96.5 -71t-113.5 -29.5q-40 0 -75.5 15.5t-57 33.5t-51 33.5t-58.5 15.5zM57 598q0 162 73 320t192.5 277.5t283.5 193t336 73.5q131 0 239 -51t177 -136.5t106 -194t37 -228.5q0 -161 -72 -318.5t-190.5 -277.5 t-282 -194t-335.5 -74q-132 0 -240.5 50.5t-178 136t-107.5 194.5t-38 229zM1094 825q0 123 -58 203t-176 80q-75 0 -140 -29.5t-110.5 -78t-78.5 -111t-48.5 -129t-15.5 -131.5q0 -125 57 -206t174 -81q76 0 141.5 30t111.5 79.5t79 112.5t48.5 129.5t15.5 131.5z" />
<glyph unicode="&#x1e4f;" d="M430 1597l62 287h319l-61 -287h-320zM891 1597l61 287h318l-60 -287h-319zM623 1262q-25 0 -45 -10t-31.5 -23.5t-19.5 -29t-10.5 -24.5t-2.5 -12h-207q5 24 22 61.5t49 83.5t71 85.5t93.5 66.5t110.5 27q43 0 79.5 -16.5t57 -36t48.5 -36t57 -16.5t53 14.5t38 37 t19.5 33.5t8.5 20h205q-3 -13 -16 -40.5t-35 -64.5t-54.5 -75t-69.5 -70.5t-84.5 -53t-95.5 -20.5q-40 0 -75.5 15.5t-57 34t-50.5 34t-58 15.5zM14 438q0 130 47.5 249t133.5 210.5t216.5 146t284.5 54.5q124 0 218 -35.5t150 -99t83 -144.5t27 -178q0 -130 -47.5 -249 t-133.5 -211t-216.5 -146.5t-284.5 -54.5q-124 0 -218 35.5t-150 99.5t-83 145t-27 178zM768 598q0 82 -33 127t-94 45q-89 0 -155 -84.5t-66 -206.5q0 -82 33 -127t94 -45q89 0 155 84.5t66 206.5z" />
<glyph unicode="&#x1e50;" horiz-adv-x="1511" d="M774 2265h344l35 -291l-270 -28zM670 1616l49 231h606l-49 -231h-606zM57 598q0 162 73 320t192.5 277.5t283.5 193t336 73.5q131 0 239 -51t177 -136.5t106 -194t37 -228.5q0 -161 -72 -318.5t-190.5 -277.5t-282 -194t-335.5 -74q-132 0 -240.5 50.5t-178 136 t-107.5 194.5t-38 229zM1094 825q0 123 -58 203t-176 80q-75 0 -140 -29.5t-110.5 -78t-78.5 -111t-48.5 -129t-15.5 -131.5q0 -125 57 -206t174 -81q76 0 141.5 30t111.5 79.5t79 112.5t48.5 129.5t15.5 131.5z" />
<glyph unicode="&#x1e51;" d="M545 1884h344l35 -291l-271 -28zM440 1235l49 231h607l-49 -231h-607zM14 438q0 130 47.5 249t133.5 210.5t216.5 146t284.5 54.5q124 0 218 -35.5t150 -99t83 -144.5t27 -178q0 -130 -47.5 -249t-133.5 -211t-216.5 -146.5t-284.5 -54.5q-124 0 -218 35.5t-150 99.5 t-83 145t-27 178zM768 598q0 82 -33 127t-94 45q-89 0 -155 -84.5t-66 -206.5q0 -82 33 -127t94 -45q89 0 155 84.5t66 206.5z" />
<glyph unicode="&#x1e52;" horiz-adv-x="1511" d="M1176 1958l-263 24l158 291h344zM670 1616l49 231h606l-49 -231h-606zM57 598q0 162 73 320t192.5 277.5t283.5 193t336 73.5q131 0 239 -51t177 -136.5t106 -194t37 -228.5q0 -161 -72 -318.5t-190.5 -277.5t-282 -194t-335.5 -74q-132 0 -240.5 50.5t-178 136 t-107.5 194.5t-38 229zM1094 825q0 123 -58 203t-176 80q-75 0 -140 -29.5t-110.5 -78t-78.5 -111t-48.5 -129t-15.5 -131.5q0 -125 57 -206t174 -81q76 0 141.5 30t111.5 79.5t79 112.5t48.5 129.5t15.5 131.5z" />
<glyph unicode="&#x1e53;" d="M946 1577l-262 25l158 290h344zM440 1235l49 231h607l-49 -231h-607zM14 438q0 130 47.5 249t133.5 210.5t216.5 146t284.5 54.5q124 0 218 -35.5t150 -99t83 -144.5t27 -178q0 -130 -47.5 -249t-133.5 -211t-216.5 -146.5t-284.5 -54.5q-124 0 -218 35.5t-150 99.5 t-83 145t-27 178zM768 598q0 82 -33 127t-94 45q-89 0 -155 -84.5t-66 -206.5q0 -82 33 -127t94 -45q89 0 155 84.5t66 206.5z" />
<glyph unicode="&#x1e5a;" horiz-adv-x="1337" d="M-6 0l309 1454h639q113 0 200 -61t130 -155.5t43 -203.5q0 -142 -79 -277t-210 -222l174 -535h-450l-142 446h-121l-94 -446h-399zM784 795q38 0 78.5 58.5t40.5 139.5q0 52 -18.5 82.5t-44.5 30.5h-211l-66 -311h221zM272 -436l66 307h348l-65 -307h-349z" />
<glyph unicode="&#x1e5b;" horiz-adv-x="835" d="M197 1077h356l-45 -205q78 107 171.5 166.5t184.5 59.5q37 0 45 -2l-73 -351q-241 0 -344 -106l-136 -639h-389zM-100 -436l65 307h348l-65 -307h-348z" />
<glyph unicode="&#x1e5e;" horiz-adv-x="1337" d="M-6 0l309 1454h639q113 0 200 -61t130 -155.5t43 -203.5q0 -142 -79 -277t-210 -222l174 -535h-450l-142 446h-121l-94 -446h-399zM784 795q38 0 78.5 58.5t40.5 139.5q0 52 -18.5 82.5t-44.5 30.5h-211l-66 -311h221zM162 -383l53 231h580l-54 -231h-579z" />
<glyph unicode="&#x1e5f;" horiz-adv-x="835" d="M197 1077h356l-45 -205q78 107 171.5 166.5t184.5 59.5q37 0 45 -2l-73 -351q-241 0 -344 -106l-136 -639h-389zM-211 -383l53 231h580l-53 -231h-580z" />
<glyph unicode="&#x1e60;" d="M1077 1894l-65 -307h-348l65 307h348zM811 895q82 -31 136 -59.5t101.5 -70t70 -98t22.5 -130.5q0 -100 -26.5 -184.5t-74 -144t-108.5 -104t-134 -71t-146.5 -39t-149.5 -12.5q-150 0 -305.5 46.5t-264.5 123.5l246 350q1 -3 22.5 -19.5t62 -40.5t89 -46t111.5 -38 t121 -16q63 0 84.5 20.5t21.5 55.5q0 21 -13.5 38t-42.5 31.5t-56.5 25t-75.5 26.5t-78 28q-138 55 -203 131t-65 191q0 107 36 200.5t98 161.5t143 117t172.5 73.5t185.5 24.5q225 0 489 -157l-242 -330q-2 7 -49.5 37.5t-130.5 63t-156 32.5q-47 0 -77.5 -22t-30.5 -64 q0 -10 3 -19t10 -17.5t14.5 -15t21 -13.5t24.5 -12.5t30.5 -13t33.5 -12.5t38.5 -13.5t41.5 -14.5z" />
<glyph unicode="&#x1e61;" horiz-adv-x="993" d="M442 1180l66 307h348l-65 -307h-349zM-55 160l180 233q171 -141 315 -141q74 0 74 61q0 24 -26 44.5t-89 41.5q-180 60 -253.5 118.5t-73.5 150.5q0 118 68.5 217.5t185.5 157t254 57.5q123 0 215.5 -33.5t175.5 -122.5l-195 -233q-86 66 -142.5 93t-109.5 27 q-34 0 -54.5 -17.5t-20.5 -47.5q0 -26 27 -44t99 -40q179 -54 253.5 -117.5t74.5 -163.5q0 -188 -141.5 -304.5t-370.5 -116.5q-137 0 -257 47t-189 133z" />
<glyph unicode="&#x1e62;" d="M811 895q82 -31 136 -59.5t101.5 -70t70 -98t22.5 -130.5q0 -100 -26.5 -184.5t-74 -144t-108.5 -104t-134 -71t-146.5 -39t-149.5 -12.5q-150 0 -305.5 46.5t-264.5 123.5l246 350q1 -3 22.5 -19.5t62 -40.5t89 -46t111.5 -38t121 -16q63 0 84.5 20.5t21.5 55.5 q0 21 -13.5 38t-42.5 31.5t-56.5 25t-75.5 26.5t-78 28q-138 55 -203 131t-65 191q0 107 36 200.5t98 161.5t143 117t172.5 73.5t185.5 24.5q225 0 489 -157l-242 -330q-2 7 -49.5 37.5t-130.5 63t-156 32.5q-47 0 -77.5 -22t-30.5 -64q0 -10 3 -19t10 -17.5t14.5 -15 t21 -13.5t24.5 -12.5t30.5 -13t33.5 -12.5t38.5 -13.5t41.5 -14.5zM233 -436l66 307h348l-65 -307h-349z" />
<glyph unicode="&#x1e63;" horiz-adv-x="993" d="M-55 160l180 233q171 -141 315 -141q74 0 74 61q0 24 -26 44.5t-89 41.5q-180 60 -253.5 118.5t-73.5 150.5q0 118 68.5 217.5t185.5 157t254 57.5q123 0 215.5 -33.5t175.5 -122.5l-195 -233q-86 66 -142.5 93t-109.5 27q-34 0 -54.5 -17.5t-20.5 -47.5q0 -26 27 -44 t99 -40q179 -54 253.5 -117.5t74.5 -163.5q0 -188 -141.5 -304.5t-370.5 -116.5q-137 0 -257 47t-189 133zM100 -436l66 307h348l-65 -307h-349z" />
<glyph unicode="&#x1e64;" d="M1241 2320l-65 -307h-349l66 307h348zM1208 1903l-239 -316l-262 25l157 291h344zM811 895q82 -31 136 -59.5t101.5 -70t70 -98t22.5 -130.5q0 -100 -26.5 -184.5t-74 -144t-108.5 -104t-134 -71t-146.5 -39t-149.5 -12.5q-150 0 -305.5 46.5t-264.5 123.5l246 350 q1 -3 22.5 -19.5t62 -40.5t89 -46t111.5 -38t121 -16q63 0 84.5 20.5t21.5 55.5q0 21 -13.5 38t-42.5 31.5t-56.5 25t-75.5 26.5t-78 28q-138 55 -203 131t-65 191q0 107 36 200.5t98 161.5t143 117t172.5 73.5t185.5 24.5q225 0 489 -157l-242 -330q-2 7 -49.5 37.5 t-130.5 63t-156 32.5q-47 0 -77.5 -22t-30.5 -64q0 -10 3 -19t10 -17.5t14.5 -15t21 -13.5t24.5 -12.5t30.5 -13t33.5 -12.5t38.5 -13.5t41.5 -14.5z" />
<glyph unicode="&#x1e65;" horiz-adv-x="993" d="M606 1606l66 307h348l-66 -307h-348zM748 1180l-263 24l158 291h344zM-55 160l180 233q171 -141 315 -141q74 0 74 61q0 24 -26 44.5t-89 41.5q-180 60 -253.5 118.5t-73.5 150.5q0 118 68.5 217.5t185.5 157t254 57.5q123 0 215.5 -33.5t175.5 -122.5l-195 -233 q-86 66 -142.5 93t-109.5 27q-34 0 -54.5 -17.5t-20.5 -47.5q0 -26 27 -44t99 -40q179 -54 253.5 -117.5t74.5 -163.5q0 -188 -141.5 -304.5t-370.5 -116.5q-137 0 -257 47t-189 133z" />
<glyph unicode="&#x1e66;" d="M1161 2312l-65 -307h-348l65 307h348zM969 1573h-279l-172 235l215 86l137 -129l193 129l178 -86zM811 895q82 -31 136 -59.5t101.5 -70t70 -98t22.5 -130.5q0 -100 -26.5 -184.5t-74 -144t-108.5 -104t-134 -71t-146.5 -39t-149.5 -12.5q-150 0 -305.5 46.5 t-264.5 123.5l246 350q1 -3 22.5 -19.5t62 -40.5t89 -46t111.5 -38t121 -16q63 0 84.5 20.5t21.5 55.5q0 21 -13.5 38t-42.5 31.5t-56.5 25t-75.5 26.5t-78 28q-138 55 -203 131t-65 191q0 107 36 200.5t98 161.5t143 117t172.5 73.5t185.5 24.5q225 0 489 -157l-242 -330 q-2 7 -49.5 37.5t-130.5 63t-156 32.5q-47 0 -77.5 -22t-30.5 -64q0 -10 3 -19t10 -17.5t14.5 -15t21 -13.5t24.5 -12.5t30.5 -13t33.5 -12.5t38.5 -13.5t41.5 -14.5z" />
<glyph unicode="&#x1e67;" horiz-adv-x="993" d="M526 1597l66 308h348l-66 -308h-348zM297 1401l215 86l137 -129l193 129l178 -86l-272 -236h-279zM-55 160l180 233q171 -141 315 -141q74 0 74 61q0 24 -26 44.5t-89 41.5q-180 60 -253.5 118.5t-73.5 150.5q0 118 68.5 217.5t185.5 157t254 57.5q123 0 215.5 -33.5 t175.5 -122.5l-195 -233q-86 66 -142.5 93t-109.5 27q-34 0 -54.5 -17.5t-20.5 -47.5q0 -26 27 -44t99 -40q179 -54 253.5 -117.5t74.5 -163.5q0 -188 -141.5 -304.5t-370.5 -116.5q-137 0 -257 47t-189 133z" />
<glyph unicode="&#x1e68;" d="M1077 1894l-65 -307h-348l65 307h348zM811 895q82 -31 136 -59.5t101.5 -70t70 -98t22.5 -130.5q0 -100 -26.5 -184.5t-74 -144t-108.5 -104t-134 -71t-146.5 -39t-149.5 -12.5q-150 0 -305.5 46.5t-264.5 123.5l246 350q1 -3 22.5 -19.5t62 -40.5t89 -46t111.5 -38 t121 -16q63 0 84.5 20.5t21.5 55.5q0 21 -13.5 38t-42.5 31.5t-56.5 25t-75.5 26.5t-78 28q-138 55 -203 131t-65 191q0 107 36 200.5t98 161.5t143 117t172.5 73.5t185.5 24.5q225 0 489 -157l-242 -330q-2 7 -49.5 37.5t-130.5 63t-156 32.5q-47 0 -77.5 -22t-30.5 -64 q0 -10 3 -19t10 -17.5t14.5 -15t21 -13.5t24.5 -12.5t30.5 -13t33.5 -12.5t38.5 -13.5t41.5 -14.5zM233 -436l66 307h348l-65 -307h-349z" />
<glyph unicode="&#x1e69;" horiz-adv-x="993" d="M442 1180l66 307h348l-65 -307h-349zM-55 160l180 233q171 -141 315 -141q74 0 74 61q0 24 -26 44.5t-89 41.5q-180 60 -253.5 118.5t-73.5 150.5q0 118 68.5 217.5t185.5 157t254 57.5q123 0 215.5 -33.5t175.5 -122.5l-195 -233q-86 66 -142.5 93t-109.5 27 q-34 0 -54.5 -17.5t-20.5 -47.5q0 -26 27 -44t99 -40q179 -54 253.5 -117.5t74.5 -163.5q0 -188 -141.5 -304.5t-370.5 -116.5q-137 0 -257 47t-189 133zM100 -436l66 307h348l-65 -307h-349z" />
<glyph unicode="&#x1e6c;" horiz-adv-x="1228" d="M520 1106h-391l74 348h1179l-73 -348h-389l-236 -1106h-399zM219 -436l66 307h348l-66 -307h-348z" />
<glyph unicode="&#x1e6d;" horiz-adv-x="849" d="M92 197q0 50 10 94l105 493h-125l63 293h125l72 338h389l-72 -338h197l-61 -293h-199l-76 -356q-4 -28 -4 -37q0 -59 62 -59q44 0 137 35l4 -308q-208 -82 -367 -82q-119 0 -189.5 52.5t-70.5 167.5zM45 -436l66 307h348l-66 -307h-348z" />
<glyph unicode="&#x1e6e;" horiz-adv-x="1228" d="M520 1106h-391l74 348h1179l-73 -348h-389l-236 -1106h-399zM109 -383l53 231h579l-53 -231h-579z" />
<glyph unicode="&#x1e6f;" horiz-adv-x="849" d="M92 197q0 50 10 94l105 493h-125l63 293h125l72 338h389l-72 -338h197l-61 -293h-199l-76 -356q-4 -28 -4 -37q0 -59 62 -59q44 0 137 35l4 -308q-208 -82 -367 -82q-119 0 -189.5 52.5t-70.5 167.5zM-66 -383l54 231h579l-53 -231h-580z" />
<glyph unicode="&#x1e78;" horiz-adv-x="1460" d="M1147 1978l-262 25l157 291h344zM819 1642q-25 0 -45 -10t-31 -23.5t-19 -28.5t-10.5 -24t-2.5 -12h-207q5 24 22 61.5t49 83.5t71 85.5t93.5 66.5t110.5 27q43 0 79.5 -16.5t57 -36t48.5 -36t57 -16.5t53 14.5t38 37t19 33.5t8 20h205q-4 -17 -21 -52t-50 -82.5t-73 -89 t-96.5 -71t-113.5 -29.5q-40 0 -75.5 15.5t-57 33.5t-51 33.5t-58.5 15.5zM98 487q0 101 25 220l160 747h399l-160 -747q-16 -82 -16 -146q0 -101 40.5 -160t125.5 -59q59 0 110.5 30t88.5 82.5t63.5 116t42.5 136.5l160 747h399l-160 -747q-33 -155 -99 -284t-162 -227 t-229.5 -153t-289.5 -55q-130 0 -227.5 37.5t-155.5 105.5t-86.5 157t-28.5 199z" />
<glyph unicode="&#x1e79;" horiz-adv-x="1265" d="M989 1606l-262 24l158 291h344zM662 1270q-25 0 -45 -10t-31.5 -23.5t-19.5 -29t-10.5 -24.5t-2.5 -12h-207q5 24 22 61.5t49 83.5t71 85.5t93.5 66.5t110.5 27q43 0 79.5 -16.5t57 -35.5t48.5 -35.5t57 -16.5t53 14.5t38 36.5t19.5 33t8.5 20h204q-4 -17 -21 -52 t-50 -82.5t-73 -89t-96.5 -71t-113.5 -29.5q-40 0 -75.5 15.5t-57 34t-50.5 34t-58 15.5zM18 233q0 53 17 136l151 708h387l-131 -620q-6 -30 -6 -56q0 -45 20.5 -69.5t57.5 -24.5q87 0 184 111l142 659h389l-137 -647q-7 -35 -7 -49q0 -27 13 -39t43 -14l-70 -328 q-103 -20 -168 -20q-201 0 -201 149q0 4 5 39q-174 -188 -437 -188q-123 0 -187.5 64.5t-64.5 188.5z" />
<glyph unicode="&#x1e7a;" horiz-adv-x="1460" d="M623 1958l61 287h320l-62 -287h-319zM1083 1958l62 287h317l-59 -287h-320zM637 1616l49 231h606l-49 -231h-606zM98 487q0 101 25 220l160 747h399l-160 -747q-16 -82 -16 -146q0 -101 40.5 -160t125.5 -59q59 0 110.5 30t88.5 82.5t63.5 116t42.5 136.5l160 747h399 l-160 -747q-33 -155 -99 -284t-162 -227t-229.5 -153t-289.5 -55q-130 0 -227.5 37.5t-155.5 105.5t-86.5 157t-28.5 199z" />
<glyph unicode="&#x1e7b;" horiz-adv-x="1265" d="M465 1585l61 287h320l-62 -287h-319zM926 1585l61 287h318l-60 -287h-319zM479 1243l49 232h607l-50 -232h-606zM18 233q0 53 17 136l151 708h387l-131 -620q-6 -30 -6 -56q0 -45 20.5 -69.5t57.5 -24.5q87 0 184 111l142 659h389l-137 -647q-7 -35 -7 -49q0 -27 13 -39 t43 -14l-70 -328q-103 -20 -168 -20q-201 0 -201 149q0 4 5 39q-174 -188 -437 -188q-123 0 -187.5 64.5t-64.5 188.5z" />
<glyph unicode="&#x1e80;" horiz-adv-x="2052" d="M944 1868h344l35 -291l-270 -29zM141 1454h432l72 -997l146 303l-74 694h364l21 -448l211 448h366l-374 -694l22 -303l492 997h436l-848 -1454h-330l-80 520l-297 -520h-329z" />
<glyph unicode="&#x1e81;" horiz-adv-x="1671" d="M686 1487h344l35 -291l-270 -29zM70 1077h368l78 -723q18 39 54 116t53 116l-80 491h307l18 -315l154 315h287q-63 -150 -124.5 -263t-144.5 -228l15 -127q164 212 221 306t158 312h348q-219 -530 -723 -1077h-223l-41 410l-215 -410h-320z" />
<glyph unicode="&#x1e82;" horiz-adv-x="2052" d="M1346 1561l-263 24l158 291h344zM141 1454h432l72 -997l146 303l-74 694h364l21 -448l211 448h366l-374 -694l22 -303l492 997h436l-848 -1454h-330l-80 520l-297 -520h-329z" />
<glyph unicode="&#x1e83;" horiz-adv-x="1671" d="M1087 1180l-262 24l158 291h344zM70 1077h368l78 -723q18 39 54 116t53 116l-80 491h307l18 -315l154 315h287q-63 -150 -124.5 -263t-144.5 -228l15 -127q164 212 221 306t158 312h348q-219 -530 -723 -1077h-223l-41 410l-215 -410h-320z" />
<glyph unicode="&#x1e84;" horiz-adv-x="2052" d="M825 1561l62 286h319l-61 -286h-320zM1286 1561l62 286h317l-59 -286h-320zM141 1454h432l72 -997l146 303l-74 694h364l21 -448l211 448h366l-374 -694l22 -303l492 997h436l-848 -1454h-330l-80 520l-297 -520h-329z" />
<glyph unicode="&#x1e85;" horiz-adv-x="1671" d="M567 1180l62 286h319l-61 -286h-320zM1028 1180l62 286h317l-59 -286h-320zM70 1077h368l78 -723q18 39 54 116t53 116l-80 491h307l18 -315l154 315h287q-63 -150 -124.5 -263t-144.5 -228l15 -127q164 212 221 306t158 312h348q-219 -530 -723 -1077h-223l-41 410 l-215 -410h-320z" />
<glyph unicode="&#x1e8e;" horiz-adv-x="1284" d="M643 1561l66 307h348l-66 -307h-348zM406 485l-259 969h433l96 -629l371 629h434l-680 -973l-103 -481h-397z" />
<glyph unicode="&#x1e8f;" horiz-adv-x="1112" d="M473 1180l66 307h348l-66 -307h-348zM-115 -190q118 0 175.5 19.5t107.5 78.5l59 69l-141 1100h395l25 -747l69 114q160 265 230 633h373q-56 -201 -139 -372.5t-283 -493.5l-164 -264q-145 -234 -296 -330t-366 -96z" />
</font>
</defs>
</svg>
