<?xml version="1.0" standalone="no"?>
<!DOCTYPE svg PUBLIC "-//W3C//DTD SVG 1.1//EN" "http://www.w3.org/Graphics/SVG/1.1/DTD/svg11.dtd" >
<svg xmlns="http://www.w3.org/2000/svg" xmlns:xlink="http://www.w3.org/1999/xlink" version="1.1">
<metadata></metadata>
<defs>
<font id="rawlineblack" horiz-adv-x="1257" >
<font-face units-per-em="2048" ascent="1638" descent="-410" />
<missing-glyph horiz-adv-x="460" />
<glyph unicode="fi" horiz-adv-x="1271" d="M174 659h-133v293h133v117q0 201 136.5 324t353.5 123q116 0 227.5 -39.5t243.5 -124.5l-148 -295q-71 62 -149 96.5t-148 34.5q-61 0 -94 -26.5t-33 -78.5v-131h613v-952h-390v659h-223v-659h-389v659z" />
<glyph unicode="fl" horiz-adv-x="1470" d="M1161 -18q-149 0 -238 75t-89 183v729q0 120 -24.5 169.5t-102.5 49.5q-79 0 -111.5 -46t-32.5 -130v-60h142v-293h-142v-659h-389v659h-133v293h133v154q0 206 138.5 308t377.5 102q270 0 401.5 -124.5t131.5 -347.5v-600q0 -45 21.5 -80.5t66.5 -35.5q20 0 48 8 t47.5 16t20.5 8l48 -311q-5 -5 -49.5 -20t-121.5 -31t-143 -16z" />
<glyph unicode="&#xd;" horiz-adv-x="0" />
<glyph unicode=" "  horiz-adv-x="460" />
<glyph unicode="&#x09;" horiz-adv-x="460" />
<glyph unicode="&#xa0;" horiz-adv-x="460" />
<glyph unicode="!" horiz-adv-x="741" d="M176 614v854h389v-854h-389zM176 0v377h389v-377h-389z" />
<glyph unicode="&#x22;" horiz-adv-x="974" d="M109 1016v479h327v-479h-327zM539 1016v479h327v-479h-327z" />
<glyph unicode="#" horiz-adv-x="1550" d="M1477 813h-326l-41 -178h262v-287h-332l-84 -348h-309l86 348h-123l-84 -348h-309l86 348h-229v287h299l41 178h-236v266h301l92 375h310l-95 -375h123l92 375h310l-94 -375h260v-266zM803 635l41 178h-123l-41 -178h123z" />
<glyph unicode="$" horiz-adv-x="1329" d="M1251 444q0 -94 -27.5 -170.5t-73 -127.5t-110 -86.5t-133.5 -53t-147 -22.5v-248h-164v250q-138 14 -279 58t-251 108l172 350q8 -5 21.5 -13.5t57 -32t87 -42.5t104.5 -38.5t117 -27.5v180q-9 2 -127 39q-196 66 -282.5 158.5t-86.5 249.5q0 141 64.5 249t168.5 166 t234 72v207h164v-207q198 -22 457 -153l-173 -330q-18 11 -48 28.5t-113 52t-152 46.5v-186q31 -7 82 -25q88 -27 149.5 -53t119.5 -63.5t93 -82.5t55.5 -108.5t20.5 -143.5zM543 1040q0 -29 19.5 -48t62.5 -38v156q-82 -10 -82 -70zM731 342q90 8 90 64q0 29 -22.5 49 t-67.5 39v-152z" />
<glyph unicode="%" horiz-adv-x="1742" d="M240 133l579 653l514 691l170 -154l-555 -633l-538 -710zM68 1151q0 135 105.5 229.5t258.5 94.5t259 -94.5t106 -229.5t-106 -229.5t-259 -94.5t-258.5 94.5t-105.5 229.5zM530 1151q0 57 -29 98t-69 41t-69 -41t-29 -98t29 -98t69 -41t69 41t29 98zM946 303 q0 135 106 229.5t259 94.5t258.5 -94.5t105.5 -229.5t-105.5 -229t-258.5 -94t-259 94t-106 229zM1409 303q0 57 -29 98t-69 41t-69.5 -41t-29.5 -98t29.5 -98t69.5 -41t69 41t29 98z" />
<glyph unicode="&#x26;" horiz-adv-x="1533" d="M1546 0h-510l-75 82q-173 -102 -377 -102q-122 0 -222 40.5t-161.5 106.5t-95 147.5t-33.5 167.5q0 209 204 377q-65 78 -91.5 141t-26.5 138q0 174 119 274.5t307 100.5q82 0 156.5 -20.5t136.5 -61t98.5 -110t36.5 -159.5q0 -200 -189 -358l170 -180q45 118 45 268h314 q-3 -297 -131 -510zM584 1190q-34 0 -54 -21.5t-20 -54.5q0 -24 13 -42t55 -58q43 29 60 51t17 53q0 34 -19.5 53t-51.5 19zM625 283q64 0 123 26l-232 248q-72 -59 -72 -115q0 -55 46 -107t135 -52z" />
<glyph unicode="'" horiz-adv-x="544" d="M109 1016v479h327v-479h-327z" />
<glyph unicode="(" horiz-adv-x="700" d="M371 1581l297 -119q-31 -50 -67.5 -122.5t-82 -178.5t-75 -228t-29.5 -226q0 -153 61 -314.5t182 -390.5l-282 -137q-324 486 -324 848q0 191 82 397t238 471z" />
<glyph unicode=")" horiz-adv-x="698" d="M324 -135l-283 137q122 230 183 391.5t61 313.5q0 104 -29.5 226t-75 228t-82 178.5t-67.5 122.5l297 119q155 -264 237 -470.5t82 -397.5q0 -363 -323 -848z" />
<glyph unicode="*" horiz-adv-x="745" d="M133 1022l100 160l-147 43l49 157l154 -73l-15 168h197l-14 -168l153 73l49 -157l-147 -43l100 -160l-141 -92l-98 170l-99 -170z" />
<glyph unicode="+" horiz-adv-x="876" d="M786 881v-308h-174v-194h-348v194h-174v308h174v194h348v-194h174z" />
<glyph unicode="," horiz-adv-x="526" d="M145 -322l74 322h-117v377h322v-377l-111 -322h-168z" />
<glyph unicode="-" horiz-adv-x="845" d="M102 391v348h641v-348h-641z" />
<glyph unicode="." horiz-adv-x="520" d="M102 0v377h316v-377h-316z" />
<glyph unicode="/" horiz-adv-x="1591" d="M1538 1454l-1057 -1454h-428l1055 1454h430z" />
<glyph unicode="0" horiz-adv-x="1462" d="M72 717q0 105 29 210.5t86 200t135 167.5t184 116t225 43q125 0 234.5 -46t186 -122t131.5 -172.5t81.5 -198t26.5 -198.5q0 -106 -29 -212t-86.5 -200.5t-135.5 -167t-184 -115t-225 -42.5q-126 0 -235 45t-185 120t-131 171t-81.5 198.5t-26.5 202.5zM731 334 q67 0 118.5 36.5t79.5 95t42 122.5t14 129q0 69 -15 135t-44.5 122.5t-80 91t-114.5 34.5q-67 0 -118.5 -36.5t-79.5 -95t-42 -122.5t-14 -129q0 -70 14.5 -135.5t43.5 -122t80 -91t116 -34.5z" />
<glyph unicode="1" horiz-adv-x="1126" d="M1081 348v-348h-948v348h291v742q-37 -52 -148.5 -114.5t-189.5 -62.5v357q41 0 90.5 19.5t91 46.5t77.5 56t56.5 48.5t22.5 23.5h397v-1116h260z" />
<glyph unicode="2" horiz-adv-x="1292" d="M74 0q0 112 5 184t21 142.5t47 120.5t80.5 97t124.5 93q30 18 85 49t91.5 51.5t82 52.5t72.5 61t46 68.5t19 81.5q0 64 -38 94.5t-96 30.5q-75 0 -156 -42.5t-145 -104.5l-239 260q87 99 246.5 165t349.5 66q247 0 384.5 -117.5t137.5 -324.5q0 -150 -73.5 -259.5 t-215.5 -199.5q-249 -157 -336 -221h627v-348h-1120z" />
<glyph unicode="3" horiz-adv-x="1200" d="M535 -10q-307 0 -498 164l199 282q115 -90 278 -90q104 0 152.5 32t48.5 101q0 77 -62 111.5t-200 34.5h-64v270h72q98 0 157.5 38.5t59.5 102.5q0 50 -35 77.5t-98 27.5q-147 0 -244 -144l-246 289q72 82 220.5 133t314.5 51q228 0 367 -99t139 -261q0 -122 -75.5 -217 t-189.5 -117q126 -22 206.5 -124.5t80.5 -243.5q0 -194 -156.5 -306t-426.5 -112z" />
<glyph unicode="4" horiz-adv-x="1222" d="M578 2v279h-527v348l649 827h267v-827h180v-348h-180v-279h-389zM434 629h189v245z" />
<glyph unicode="5" horiz-adv-x="1191" d="M555 -18q-160 0 -288 60.5t-197 168.5l213 246q58 -63 131.5 -99t142.5 -36q75 0 118.5 41t43.5 110q0 67 -39 108.5t-102 41.5q-42 0 -78.5 -19.5t-55.5 -52.5h-333l172 905h729v-354h-449l-22 -158q28 10 94 10q213 0 348 -132t135 -341q0 -221 -156.5 -360 t-406.5 -139z" />
<glyph unicode="6" horiz-adv-x="1247" d="M659 969q-142 0 -221 -70q5 109 63 170t158 61q144 0 254 -110l215 250q-196 196 -462 196q-274 0 -430 -205.5t-156 -564.5q0 -340 143 -528t404 -188q232 0 388 148t156 364q0 204 -146 340.5t-366 136.5zM453 492q0 72 51 122t123 50t123 -50t51 -122 q0 -75 -52.5 -131t-121.5 -56t-121.5 56t-52.5 131z" />
<glyph unicode="7" horiz-adv-x="1224" d="M629 1102h-555v354h1167l-711 -1454h-440z" />
<glyph unicode="8" horiz-adv-x="1251" d="M625 -20q-108 0 -207.5 34.5t-175.5 96t-121 154t-45 200.5q0 99 51.5 178t124.5 133q-58 35 -96.5 105t-38.5 141q0 101 47.5 185.5t122.5 136.5t163 81t175 29q69 0 139.5 -17t137 -53t118.5 -85.5t83.5 -120.5t31.5 -152q0 -71 -40 -143.5t-98 -106.5 q74 -55 125.5 -136.5t51.5 -186.5q0 -139 -74 -248t-199 -167t-276 -58zM625 905q45 0 79.5 28.5t34.5 80.5q0 41 -32 69.5t-82 28.5t-81.5 -28.5t-31.5 -69.5q0 -52 34 -80.5t79 -28.5zM625 616q-68 0 -111 -38.5t-43 -102.5q0 -60 44.5 -100.5t109.5 -40.5q67 0 110 41 t43 100q0 66 -42.5 103.5t-110.5 37.5z" />
<glyph unicode="9" horiz-adv-x="1245" d="M586 477q142 0 221 70q-5 -109 -63 -170.5t-158 -61.5q-143 0 -254 111l-215 -250q196 -196 463 -196q274 0 429.5 205t155.5 565q0 340 -143 528t-404 188q-232 0 -388 -148t-156 -364q0 -204 146 -340.5t366 -136.5zM793 954q0 -72 -51.5 -122t-123.5 -50t-123 50 t-51 122q0 75 52.5 131t121.5 56t122 -56t53 -131z" />
<glyph unicode=":" horiz-adv-x="622" d="M154 686v377h315v-377h-315zM154 0v377h315v-377h-315z" />
<glyph unicode=";" horiz-adv-x="624" d="M156 686v377h315v-377h-315zM195 -322l73 322h-116v377h321v-377l-111 -322h-167z" />
<glyph unicode="&#x3c;" horiz-adv-x="1067" d="M63 610l869 529v-414l-303 -195l303 -178v-434l-869 512v180z" />
<glyph unicode="=" horiz-adv-x="886" d="M113 678v246h661v-246h-661zM113 207v246h661v-246h-661z" />
<glyph unicode="&#x3e;" horiz-adv-x="1067" d="M1004 430l-869 -512v434l303 178l-303 195v414l869 -529v-180z" />
<glyph unicode="?" horiz-adv-x="1013" d="M195 530q0 52 4.5 87t19.5 76.5t49 75.5t88 62q5 3 38.5 20t55 28.5t54.5 34t53 42.5t35.5 47t15.5 54q0 45 -36 73.5t-87 28.5q-28 0 -51.5 -9t-41.5 -25.5t-30 -30.5t-26 -34.5t-19 -27.5l-247 176q52 124 167 194.5t263 70.5q65 0 126.5 -13.5t120.5 -45.5t102.5 -79 t70 -119t26.5 -161q0 -211 -164 -322q-40 -27 -117.5 -65t-115 -68t-37.5 -70h-317zM201 0v336h317v-336h-317z" />
<glyph unicode="@" horiz-adv-x="1744" d="M1653 453q0 -32 -1.5 -63t-9 -82t-20.5 -94t-38 -90.5t-59 -80.5t-86.5 -54.5t-117.5 -21.5q-103 0 -153 45.5t-60 104.5q-68 -63 -158.5 -96t-187.5 -33q-154 0 -236 79.5t-82 215.5q0 86 32 149t88 98t121 51.5t140 16.5q125 0 209 -41q0 91 -48 138.5t-169 47.5 q-169 0 -260 -84l-65 199q149 100 364 100q82 0 146.5 -15.5t106.5 -39t72 -62t45 -72t23 -84t9.5 -82.5t1.5 -81v-137q0 -45 1 -74t6.5 -67t15.5 -59.5t29.5 -37.5t47.5 -16q45 0 76 37.5t44 96.5t18 105.5t5 90.5q0 137 -45.5 253.5t-128 200t-204 130.5t-267.5 47 q-193 0 -337.5 -81t-219 -221.5t-74.5 -320.5q0 -130 40.5 -243t115 -198.5t189 -134.5t253.5 -49q29 0 56 2t53.5 7t44.5 9t45.5 13.5t39.5 13.5t43.5 16.5t41.5 16.5l41 -139q-174 -82 -371 -82q-153 0 -289 55t-236.5 153t-159 244.5t-58.5 319.5q0 147 42 271.5 t116.5 214t174.5 152.5t217 93.5t244 30.5q123 0 235.5 -28.5t213 -90.5t174.5 -152t117 -221t43 -290zM1032 303v84q-100 39 -203 39q-84 0 -122.5 -35t-38.5 -106q0 -59 28.5 -87t91.5 -28q100 0 164 35q32 17 56 42t24 56z" />
<glyph unicode="A" horiz-adv-x="1366" d="M461 1454h446l463 -1454h-405l-88 285h-388l-86 -285h-407zM813 551l-129 512l-135 -512h264z" />
<glyph unicode="B" horiz-adv-x="1413" d="M840 0h-715v1454h844q98 0 175.5 -55.5t116.5 -139.5t39 -178q0 -107 -54 -199.5t-154 -136.5q129 -38 199.5 -131t70.5 -241q0 -95 -40.5 -168t-113 -117t-165.5 -66t-203 -22zM524 1114v-223h273q47 0 77.5 25.5t30.5 87.5q0 56 -27 83t-69 27h-285zM854 580h-330v-244 h316q51 0 83.5 31.5t32.5 87.5q0 54 -29 89.5t-73 35.5z" />
<glyph unicode="C" horiz-adv-x="1415" d="M788 1462q205 0 362 -86t234 -231l-305 -217q-20 51 -54 87.5t-76 56t-83.5 28t-85.5 8.5q-82 0 -147 -33.5t-103.5 -89t-58.5 -121.5t-20 -137q0 -159 91 -272t242 -113q59 0 113 16.5t103.5 58t72.5 103.5l326 -194q-41 -103 -143.5 -182t-227.5 -117.5t-252 -38.5 q-156 0 -294.5 65t-233 170.5t-149 241t-54.5 274.5q0 134 51.5 262.5t144 231.5t235.5 166t312 63z" />
<glyph unicode="D" horiz-adv-x="1466" d="M125 0v1454h559q176 0 317.5 -56.5t231 -156t137 -230t47.5 -282.5q0 -330 -200.5 -529.5t-532.5 -199.5h-559zM684 1106h-160v-758h160q153 0 240.5 106t87.5 275q0 171 -88 274t-240 103z" />
<glyph unicode="E" horiz-adv-x="1222" d="M1161 348v-348h-1036v1454h1018v-348h-619v-205h529v-323h-529v-230h637z" />
<glyph unicode="F" horiz-adv-x="1153" d="M125 0v1454h997v-348h-598v-242h488v-323h-488v-541h-399z" />
<glyph unicode="G" horiz-adv-x="1513" d="M844 774h598v-774h-330v121q-154 -131 -358 -131q-143 0 -270.5 51.5t-225 145t-154.5 236.5t-57 316q0 151 58 285t157 230.5t237.5 153t293.5 56.5q197 0 356 -85t237 -232l-296 -227q-42 86 -129 138t-183 52q-142 0 -233.5 -108t-91.5 -277q0 -171 92.5 -276 t242.5 -105q171 0 308 143h-252v287z" />
<glyph unicode="H" horiz-adv-x="1536" d="M1411 1454v-1454h-399v569h-488v-569h-399v1454h399v-536h488v536h399z" />
<glyph unicode="I" horiz-adv-x="649" d="M125 0v1454h399v-1454h-399z" />
<glyph unicode="J" horiz-adv-x="1019" d="M86 393q22 -16 88.5 -38.5t142.5 -22.5q51 0 85.5 14t56.5 40.5t33.5 75.5t15.5 106.5t4 146.5v739h399v-739q0 -103 -5 -180.5t-20.5 -158.5t-42 -138t-71 -109t-106.5 -83.5t-150 -50t-199 -18.5q-182 0 -315 91z" />
<glyph unicode="K" horiz-adv-x="1413" d="M125 0v1454h399v-553l443 553h450l-528 -651l565 -803h-459l-360 535l-111 -115v-420h-399z" />
<glyph unicode="L" horiz-adv-x="1198" d="M125 0v1454h399v-1106h660v-348h-1059z" />
<glyph unicode="M" horiz-adv-x="1748" d="M1225 0v766l-244 -539h-213l-244 539v-766h-399v1454h436l313 -684l316 684h434v-1454h-399z" />
<glyph unicode="N" horiz-adv-x="1544" d="M524 715v-715h-399v1454h311l584 -739v739h399v-1454h-317z" />
<glyph unicode="O" horiz-adv-x="1566" d="M45 729q0 143 56 276.5t153 234.5t236.5 161.5t297.5 60.5q160 0 300 -63.5t233.5 -168t147 -237.5t53.5 -272q0 -142 -55.5 -275t-152 -234.5t-236.5 -162.5t-298 -61q-160 0 -299.5 63t-233.5 167t-148 237.5t-54 273.5zM784 342q83 0 148.5 33.5t104.5 89.5t59 123 t20 141q0 102 -35.5 186t-113 138.5t-185.5 54.5q-83 0 -148 -33t-104 -88t-59 -122t-20 -140q0 -75 20.5 -142.5t60.5 -122t105 -86.5t147 -32z" />
<glyph unicode="P" horiz-adv-x="1275" d="M125 0v1454h627q103 0 196 -44t156 -115t100 -161.5t37 -183.5q0 -97 -35 -188t-96.5 -161t-152.5 -112.5t-195 -42.5h-238v-446h-399zM524 795h211q42 0 71.5 37t29.5 118q0 82 -33.5 119t-77.5 37h-201v-311z" />
<glyph unicode="Q" horiz-adv-x="1566" d="M1559 0h-373l-66 70q-154 -80 -340 -80q-160 0 -299.5 63t-233.5 166t-148 236.5t-54 273.5q0 143 56 277t153 235t236.5 162t297.5 61q160 0 300 -64t233.5 -168.5t147 -238t53.5 -272.5q0 -132 -48 -257t-135 -224zM784 344q45 0 78 8l-241 262h372l80 -88 q43 90 43 203q0 102 -35.5 186.5t-113 139.5t-185.5 55q-83 0 -148 -33t-104 -88.5t-59 -123t-20 -140.5q0 -75 20.5 -142t60.5 -121t105 -86t147 -32z" />
<glyph unicode="R" horiz-adv-x="1382" d="M125 0v1454h668q103 0 196 -44t156 -115t100 -161.5t37 -183.5q0 -126 -55.5 -236t-153.5 -179l307 -535h-438l-256 446h-162v-446h-399zM524 795h252q39 0 70 42.5t31 112.5t-35 113t-76 43h-242v-311z" />
<glyph unicode="S" horiz-adv-x="1263" d="M1006 979q-9 5 -24 14t-61 32t-90 40.5t-102.5 32t-107.5 14.5q-117 0 -117 -72q0 -16 5.5 -29t19.5 -24t27.5 -19t41.5 -18t48 -16t61 -18.5t67 -20.5q88 -27 149.5 -53t119.5 -63.5t93 -82.5t55.5 -108.5t20.5 -143.5q0 -101 -32 -182t-84.5 -132.5t-125.5 -85.5 t-149.5 -48t-161.5 -14q-157 0 -329 46.5t-303 123.5l172 350q10 -7 27.5 -17.5t72 -38t107.5 -48.5t125.5 -38.5t134.5 -17.5q116 0 116 64q0 24 -15 42.5t-50 34t-67.5 26t-92 28t-98.5 30.5q-196 66 -282.5 158.5t-86.5 249.5q0 117 44.5 212t120 155t172.5 92t206 32 q233 0 545 -157z" />
<glyph unicode="T" horiz-adv-x="1277" d="M1257 1106h-417v-1106h-400v1106h-420v348h1237v-348z" />
<glyph unicode="U" horiz-adv-x="1521" d="M760 -12q-136 0 -246.5 38t-186 104t-126.5 158t-74 196.5t-23 222.5v747h400v-747q0 -75 14.5 -139t44 -115.5t80 -81t117.5 -29.5q68 0 119 30t80.5 82.5t44 116t14.5 136.5v747h399v-747q0 -155 -40 -284t-118.5 -227t-206 -153t-292.5 -55z" />
<glyph unicode="V" horiz-adv-x="1376" d="M406 1454l284 -993l281 993h420l-502 -1454h-397l-508 1454h422z" />
<glyph unicode="W" horiz-adv-x="2164" d="M582 1454h366l133 -448l136 448h366l-246 -694l105 -297l313 991h434l-549 -1454h-346l-213 520l-211 -520h-346l-549 1454h433l315 -991l100 297z" />
<glyph unicode="X" horiz-adv-x="1345" d="M410 1454l264 -459l264 459h430l-457 -737l441 -717h-430l-248 438l-248 -438h-432l440 717l-457 737h433z" />
<glyph unicode="Y" horiz-adv-x="1363" d="M420 1454l260 -594l266 594h434l-501 -973v-481h-398v485l-493 969h432z" />
<glyph unicode="Z" horiz-adv-x="1273" d="M55 297l660 809h-629v348h1110v-297l-618 -809h630v-348h-1153v297z" />
<glyph unicode="[" horiz-adv-x="759" d="M162 -82v1598h502v-308h-144v-983h144v-307h-502z" />
<glyph unicode="\" horiz-adv-x="1421" d="M481 1454l891 -1454h-428l-893 1454h430z" />
<glyph unicode="]" horiz-adv-x="759" d="M96 -82v307h144v983h-144v308h502v-1598h-502z" />
<glyph unicode="^" horiz-adv-x="1280" d="M74 621l405 833h324l403 -833h-313l-252 518l-258 -518h-309z" />
<glyph unicode="_" horiz-adv-x="903" d="M90 -348v348h723v-348h-723z" />
<glyph unicode="`" horiz-adv-x="581" d="M92 1495h346l103 -291l-246 -65z" />
<glyph unicode="a" horiz-adv-x="1226" d="M39 326q0 162 130.5 265t334.5 103q133 0 217 -41v33q0 76 -44.5 113t-141.5 37q-87 0 -165 -28.5t-169 -88.5l-113 242q213 137 485 137q259 0 398 -117t139 -342v-209q0 -55 16 -77t58 -25v-328q-90 -20 -164 -20q-199 0 -229 149l-9 39q-147 -188 -366 -188 q-162 0 -269.5 98.5t-107.5 247.5zM670 299q51 33 51 76v80q-79 28 -150 28q-70 0 -117.5 -35t-47.5 -88q0 -44 35.5 -73t90.5 -29q77 0 138 41z" />
<glyph unicode="b" horiz-adv-x="1325" d="M436 168v-168h-338v1495h389v-577q46 88 132.5 134t203.5 46q198 0 329.5 -160t131.5 -403q0 -239 -142.5 -397t-357.5 -158q-244 0 -348 188zM885 532q0 99 -56.5 168.5t-140.5 69.5q-61 0 -117 -44.5t-84 -115.5v-192q76 -111 185 -111q95 0 154 62t59 163z" />
<glyph unicode="c" horiz-adv-x="1181" d="M631 -20q-139 0 -252.5 45.5t-187 123.5t-113 178t-39.5 212t39.5 212t113 178t187 123.5t252.5 45.5q188 0 322.5 -79t203.5 -214l-379 -115q-55 80 -149 80q-82 0 -136.5 -62.5t-54.5 -168.5t54.5 -169t136.5 -63q94 0 149 80l379 -115q-69 -135 -203.5 -213.5 t-322.5 -78.5z" />
<glyph unicode="d" horiz-adv-x="1361" d="M41 541q0 157 59.5 284t167.5 200t244 73q105 0 193 -48t133 -132v577h389v-1065q0 -55 16 -77t57 -25v-328q-100 -20 -163 -20q-200 0 -230 149l-8 39q-53 -94 -146 -141t-204 -47q-223 0 -365.5 157t-142.5 404zM840 418v192q-28 71 -84 115.5t-117 44.5 q-84 0 -140.5 -69.5t-56.5 -168.5q0 -101 59 -163t154 -62q109 0 185 111z" />
<glyph unicode="e" horiz-adv-x="1247" d="M629 -20q-111 0 -206.5 29t-165 79.5t-119.5 119t-74.5 149t-24.5 167.5q0 118 38.5 221t111.5 182t186.5 125t253.5 46t254 -45.5t186 -123t111 -177.5t39 -213q0 -59 -11 -119h-755q6 -81 60 -121.5t128 -40.5q65 0 121 30t74 79l329 -95q-69 -134 -207.5 -213 t-328.5 -79zM444 653h357q-9 78 -56.5 123t-121.5 45t-122 -45t-57 -123z" />
<glyph unicode="f" horiz-adv-x="823" d="M174 0v659h-133v293h133v117q0 202 108 324.5t287 122.5q134 0 299 -62l-65 -295q-82 29 -146 29q-94 0 -94 -105v-131h236v-293h-236v-659h-389z" />
<glyph unicode="g" horiz-adv-x="1325" d="M43 541q0 242 141 399.5t361 157.5q116 0 204.5 -46t139.5 -134v159h338v-979q0 -251 -180.5 -403t-475.5 -152q-320 0 -524 207l205 213q62 -59 145.5 -95t173.5 -36q116 0 191.5 65t75.5 201v70q-44 -82 -131.5 -125t-194.5 -43q-138 0 -245.5 71.5t-165.5 194.5 t-58 275zM838 418v192q-29 73 -85 116.5t-118 43.5q-82 0 -138.5 -70.5t-56.5 -169.5t59 -161t152 -62q111 0 187 111z" />
<glyph unicode="h" horiz-adv-x="1271" d="M1182 0h-389v606q0 76 -34 114t-91 38q-42 0 -98.5 -44t-82.5 -110v-604h-389v1495h389v-577q57 87 149.5 133.5t207.5 46.5q87 0 151 -26t99 -64.5t56 -94.5t26.5 -102t5.5 -102v-709z" />
<glyph unicode="i" horiz-adv-x="585" d="M98 1167v328h389v-328h-389zM98 0v1077h389v-1077h-389z" />
<glyph unicode="j" horiz-adv-x="593" d="M106 1167v328h390v-328h-390zM-231 -317l159 264q38 -41 97 -41q38 0 59.5 23.5t21.5 64.5v1083h390v-1052q0 -201 -118 -327t-304 -126q-176 0 -305 111z" />
<glyph unicode="k" horiz-adv-x="1191" d="M809 0l-244 393l-78 -86v-307h-389v1495h389v-817l287 399h410l-371 -471l408 -606h-412z" />
<glyph unicode="l" horiz-adv-x="727" d="M90 1495h389v-1067q0 -123 101 -123q49 0 106 31l49 -287q-68 -32 -155.5 -50.5t-165.5 -18.5q-156 0 -240 80.5t-84 230.5v1204z" />
<glyph unicode="m" horiz-adv-x="1925" d="M1835 0h-389v606q0 75 -30.5 113.5t-78.5 38.5q-47 0 -99.5 -44t-76.5 -110v-604h-389v606q0 76 -30.5 114t-77.5 38t-100 -44.5t-77 -109.5v-604h-389v1077h351v-159q117 180 395 180q122 0 193.5 -53t97.5 -134q57 88 157.5 137.5t225.5 49.5q68 0 121.5 -18t87 -50.5 t56 -70t33.5 -85t15 -85.5t4 -80v-709z" />
<glyph unicode="n" horiz-adv-x="1271" d="M1182 0h-389v606q0 75 -34 113.5t-85 38.5t-106 -44t-81 -110v-604h-389v1077h351v-159q57 88 161 134t244 46q70 0 125.5 -18t90 -50.5t58 -70t35 -85t15.5 -85.5t4 -80v-709z" />
<glyph unicode="o" d="M39 539q0 113 39 213t111 177.5t186 123t254 45.5t254 -45.5t186 -123t111 -177.5t39 -213q0 -112 -39 -212t-111 -178t-186 -123.5t-254 -45.5t-254 45.5t-186 123.5t-111 178t-39 212zM629 307q84 0 137 63t53 169t-53 168.5t-137 62.5q-85 0 -138 -62.5t-53 -168.5 t53.5 -169t137.5 -63z" />
<glyph unicode="p" horiz-adv-x="1325" d="M487 160v-596h-389v1513h338v-162q119 183 348 183q215 0 356.5 -158t141.5 -397q0 -243 -130.5 -403t-328.5 -160q-117 0 -203.5 46t-132.5 134zM885 545q0 101 -59 163t-154 62q-108 0 -185 -111v-186q28 -72 84 -119t117 -47q84 0 140.5 69.5t56.5 168.5z" />
<glyph unicode="q" horiz-adv-x="1325" d="M43 543q0 239 141.5 397t356.5 158q227 0 348 -187v166h338v-1515h-389v598q-46 -88 -132.5 -134t-203.5 -46q-198 0 -328.5 160t-130.5 403zM838 418v192q-28 71 -84 115.5t-117 44.5q-84 0 -140.5 -69.5t-56.5 -168.5q0 -101 59 -163t154 -62q109 0 185 111z" />
<glyph unicode="r" horiz-adv-x="851" d="M829 745q-260 0 -342 -106v-639h-389v1077h357v-205q57 107 142.5 166.5t182.5 59.5q39 0 49 -2v-351z" />
<glyph unicode="s" horiz-adv-x="1026" d="M530 -20q-144 0 -279.5 47t-227.5 133l133 239q210 -139 362 -139q84 0 84 49q0 25 -30 40.5t-111 41.5q-57 20 -90.5 32.5t-76.5 30t-67 31.5t-52 33.5t-42.5 39t-28.5 44.5t-19 54.5t-5 64.5q0 169 124 274t339 105q247 0 430 -156l-148 -237q-189 116 -299 116 q-86 0 -86 -57q0 -29 29.5 -45.5t108.5 -38.5q90 -28 148 -49.5t110.5 -50.5t80.5 -61.5t44 -76.5t16 -102q0 -169 -120 -265.5t-327 -96.5z" />
<glyph unicode="t" horiz-adv-x="866" d="M854 59q-190 -82 -358 -82q-69 0 -125.5 17t-102 52.5t-71 97.5t-25.5 147v493h-133v293h133v338h389v-338h211v-293h-211v-356q0 -96 84 -96q53 0 139 35z" />
<glyph unicode="u" horiz-adv-x="1306" d="M88 369v708h389v-620q0 -70 31.5 -110t87.5 -40q110 0 186 111v659h389v-647q0 -55 16 -77t58 -25v-328q-100 -20 -164 -20q-199 0 -229 149l-8 39q-141 -188 -420 -188q-163 0 -249.5 100t-86.5 289z" />
<glyph unicode="v" horiz-adv-x="1153" d="M365 0l-363 1077h399l193 -731l194 731h363l-363 -1077h-423z" />
<glyph unicode="w" horiz-adv-x="1765" d="M1419 1077h367l-440 -1077h-318l-145 410l-146 -410h-317l-440 1077h366l256 -712l72 241l-197 471h314l92 -315l92 315h313l-196 -471l71 -241z" />
<glyph unicode="x" horiz-adv-x="1134" d="M393 1077l154 -264l20 -43l21 43l153 264h396l-346 -532l356 -545h-395l-166 264l-19 41l-18 -41l-166 -264h-395l356 535l-346 542h395z" />
<glyph unicode="y" horiz-adv-x="1136" d="M90 -109q90 -34 160 -34q125 0 137 143l-391 1077h399l205 -678l166 678h362l-364 -1206q-47 -158 -177 -254t-296 -96q-106 0 -201 39v331z" />
<glyph unicode="z" horiz-adv-x="1011" d="M45 229l492 582h-461v266h866v-229l-489 -582h508v-266h-916v229z" />
<glyph unicode="{" horiz-adv-x="765" d="M543 1208v-315q0 -51 -21.5 -85t-62.5 -71q26 -23 41.5 -41t29 -48.5t13.5 -65.5v-338h112v-307h-413q-17 0 -32 13.5t-15 47.5v451q0 60 -38 103.5t-85 53.5v266q43 0 83 49t40 105v428q0 33 15.5 47.5t31.5 14.5h413v-308h-112z" />
<glyph unicode="|" horiz-adv-x="638" d="M156 -266v1853h327v-1853h-327z" />
<glyph unicode="}" horiz-adv-x="765" d="M111 1208v308h413q16 0 31.5 -14.5t15.5 -47.5v-428q0 -56 40 -105t83 -49v-266q-47 -10 -85 -53.5t-38 -103.5v-451q0 -34 -15 -47.5t-32 -13.5h-413v307h112v338q0 50 22 84.5t62 70.5q-27 24 -42 41.5t-28.5 48t-13.5 66.5v315h-112z" />
<glyph unicode="~" horiz-adv-x="1249" d="M432 766q70 0 139.5 -26t132 -52t115.5 -26q35 0 62 10t41.5 24t24 30t12 26t2.5 14h204q0 -13 -7.5 -39t-23 -63.5t-44 -75.5t-65 -71t-91 -54t-117.5 -21q-67 0 -136 25t-133 49.5t-118 24.5q-36 0 -62.5 -10t-39 -23t-20 -29.5t-8.5 -24.5t-1 -12h-207q0 24 10 60 t35.5 83t62 86.5t97.5 67t135 27.5z" />
<glyph unicode="&#xa1;" horiz-adv-x="737" d="M563 1454v-377h-389v377h389zM563 840v-854h-389v854h389z" />
<glyph unicode="&#xa2;" horiz-adv-x="1265" d="M565 -246v228q-139 11 -253 93t-176 202.5t-62 250.5q0 215 126.5 369t364.5 197v227h164v-227q142 -5 267.5 -78.5t197.5 -210.5l-379 -115q-13 24 -38.5 43.5t-47.5 24.5v-441q59 25 86 70l379 -115q-43 -92 -131 -161.5t-175 -100t-159 -30.5v-226h-164zM565 336v403 q-41 -23 -65.5 -79.5t-24.5 -131.5q0 -126 90 -192z" />
<glyph unicode="&#xa3;" horiz-adv-x="1200" d="M1034 326l94 -287q-46 -31 -114 -50.5t-129 -19.5q-62 0 -202 34t-210 34q-125 0 -295 -55l-78 274q62 36 110 105t69 147h-154v287h113q-3 8 -19 45.5t-21 50.5t-17 45.5t-16 52t-8.5 46.5t-4.5 52q0 158 134.5 267.5t329.5 109.5q135 0 259 -57t212 -158l-196 -239 q-53 60 -132 100.5t-145 40.5q-55 0 -86.5 -28.5t-31.5 -78.5q0 -32 12.5 -69.5t38 -93t37.5 -86.5h387v-287h-363q-30 -107 -129 -209q89 31 160 31q43 0 132.5 -15.5t133.5 -15.5q55 0 129 27z" />
<glyph unicode="&#xa4;" horiz-adv-x="1165" d="M375 1038q92 45 211 45q112 0 205 -41l139 142l145 -146l-129 -129q62 -100 62 -217q0 -121 -64 -219l131 -131l-135 -135l-145 137q-85 -43 -209 -43q-123 0 -215 45l-148 -139l-135 135l135 135q-59 95 -59 215q0 122 57 211l-133 135l145 146zM586 530q67 0 108 44 t41 118t-41 118t-108 44t-108.5 -44t-41.5 -118t41.5 -118t108.5 -44z" />
<glyph unicode="&#xa5;" horiz-adv-x="1519" d="M1159 885h131v-246h-258l-80 -158v-67h340v-246h-340v-168h-397v168h-338v246h338v71l-78 154h-258v246h133l-291 569h433l260 -629l266 629h434z" />
<glyph unicode="&#xa6;" horiz-adv-x="647" d="M487 1587v-786h-327v786h327zM487 520v-786h-327v786h327z" />
<glyph unicode="&#xa7;" horiz-adv-x="1128" d="M1051 270q0 -97 -32.5 -176t-83.5 -129t-118 -83.5t-131 -47.5t-127 -14q-83 0 -164 26t-141 65.5t-101 75.5t-65 68l248 238q94 -105 205 -105q46 0 75 17.5t29 50.5q0 16 -7 26.5t-21 15.5t-25 6.5t-29 2.5q-219 18 -331.5 124t-112.5 267q0 36 5.5 64.5t11.5 46 t7 22.5q-65 101 -65 213q0 79 34.5 154.5t93.5 134.5t146.5 95t186.5 36q75 0 145 -23t117 -52.5t95 -77t71 -76.5t53 -72l-297 -139q-61 96 -160 96q-92 0 -92 -69q0 -25 14 -38.5t30 -17t44 -4.5q67 -3 129 -14.5t125 -39t109 -67t75 -102.5t29 -141q0 -80 -27 -152 q52 -77 52 -205zM639 567q18 15 18 47q0 35 -26 51.5t-56 16.5q-13 0 -28 2t-24 4l-9 2q-18 -14 -18 -47q0 -26 17 -41.5t37.5 -19.5t49 -7.5t39.5 -7.5z" />
<glyph unicode="&#xa8;" horiz-adv-x="1159" d="M184 1188v287h320v-287h-320zM655 1188v287h320v-287h-320z" />
<glyph unicode="&#xa9;" horiz-adv-x="1734" d="M78 727q0 156 59 293t162 234.5t248 153.5t311 56q227 0 410.5 -95.5t287 -264.5t103.5 -377q0 -157 -61 -294.5t-166.5 -235.5t-254.5 -154.5t-319 -56.5q-166 0 -311 56.5t-248 154.5t-162 235.5t-59 294.5zM1516 727q0 124 -50 236t-137 193.5t-209.5 129t-261.5 47.5 q-178 0 -324.5 -81t-229.5 -220t-83 -305q0 -168 82.5 -308t229 -221t325.5 -81q183 0 333 76.5t237.5 217t87.5 316.5zM348 725q0 96 35 182t100.5 152.5t168 105.5t227.5 39q174 0 298 -76t187 -206l-365 -111q-46 78 -122 78q-62 0 -104 -44t-42 -120t42 -120t104 -44 q76 0 122 78l365 -111q-63 -130 -187 -206t-298 -76q-125 0 -227.5 39t-168 105.5t-100.5 152.5t-35 182z" />
<glyph unicode="&#xaa;" horiz-adv-x="923" d="M68 924q0 114 86 186t221 72q83 0 139 -29v23q0 55 -27.5 80.5t-91.5 25.5q-57 0 -108 -20t-111 -62l-78 168q140 96 324 96q173 0 265.5 -81.5t92.5 -239.5v-146q0 -38 14.5 -53.5t49.5 -17.5v-230q-66 -14 -125 -14q-135 0 -156 104l-6 29q-95 -133 -240 -133 q-107 0 -178 69t-71 173zM481 905q33 23 33 53v56q-45 20 -92 20q-44 0 -74.5 -24.5t-30.5 -61.5q0 -31 23 -51t57 -20q44 0 84 28z" />
<glyph unicode="&#xab;" horiz-adv-x="1460" d="M61 610l568 406v-311l-262 -175l262 -157v-312l-568 369v180zM780 610l568 406v-311l-263 -175l263 -157v-312l-568 369v180z" />
<glyph unicode="&#xac;" horiz-adv-x="1304" d="M1184 883v-701h-328v353h-756v348h1084z" />
<glyph unicode="&#xad;" horiz-adv-x="1288" d="M102 391v348h1084v-348h-1084z" />
<glyph unicode="&#xae;" horiz-adv-x="1734" d="M78 727q0 156 59 293t162 234.5t249 153.5t314 56t316 -56t253.5 -153.5t166.5 -234.5t61 -293q0 -157 -61 -294.5t-166.5 -235.5t-253.5 -154.5t-316 -56.5q-224 0 -403.5 96.5t-280 265.5t-100.5 379zM1507 721q0 169 -82.5 309t-230.5 221.5t-330 81.5 q-137 0 -256 -47.5t-202 -129.5t-130 -193.5t-47 -237.5t47 -238t130 -194t202 -130t256 -48q179 0 326 78.5t232 217.5t85 310zM514 1171h408q125 0 211 -95t86 -212q0 -72 -35 -139t-92 -109l196 -321h-301l-166 268h-37v-268h-270v876zM893 780q59 0 59 84t-63 84h-105 v-168h109z" />
<glyph unicode="&#xaf;" horiz-adv-x="897" d="M131 1243v232h635v-232h-635z" />
<glyph unicode="&#xb0;" horiz-adv-x="614" d="M307 1483q106 0 175 -67t69 -167q0 -116 -68 -185t-176 -69q-107 0 -175.5 71t-68.5 183q0 100 69 167t175 67zM242 1239q0 -27 18 -45q20 -20 47 -20q28 0 45 20q19 16 19 45t-19 45q-14 19 -45 19q-28 0 -47 -19q-18 -18 -18 -45z" />
<glyph unicode="&#xb1;" horiz-adv-x="983" d="M881 946v-307h-215v-236h-349v236h-215v307h215v236h349v-236h215zM100 2v307h779v-307h-779z" />
<glyph unicode="&#xb2;" horiz-adv-x="903" d="M53 770q0 166 55 252.5t218 161.5q21 10 60.5 26.5t64 27t55.5 28t49 33t30.5 36.5t12.5 45q0 48 -43 75.5t-111 27.5q-138 0 -247 -109l-140 164q46 62 160 102.5t252 40.5q181 0 278 -74t97 -208q0 -69 -25.5 -124.5t-68 -90.5t-81 -55t-81.5 -33q-43 -12 -66 -20.5 t-49 -21.5t-37.5 -28.5t-11.5 -36.5h422v-219h-793z" />
<glyph unicode="&#xb3;" horiz-adv-x="864" d="M47 901l113 152q98 -82 239 -82q158 0 158 88q0 44 -48.5 63t-172.5 19h-51v196h49q106 0 149 17.5t43 56.5q0 74 -125 74q-129 0 -227 -86l-131 168q51 54 161 84t220 30q162 0 261 -69t99 -178q0 -71 -43 -120.5t-116 -62.5q83 -13 131.5 -78.5t48.5 -154.5 q0 -70 -32 -122t-88 -82t-123.5 -44t-147.5 -14q-130 0 -229.5 36.5t-137.5 108.5z" />
<glyph unicode="&#xb4;" horiz-adv-x="581" d="M338 1139l-246 65l103 291h346z" />
<glyph unicode="&#xb5;" horiz-adv-x="1449" d="M1237 430q0 -56 20 -77.5t74 -24.5v-328q-111 -20 -184 -20q-199 0 -229 149l-9 39q-21 -55 -102.5 -121.5t-161.5 -66.5q-25 0 -47 7t-36 17.5t-24.5 21.5t-15 18t-4.5 9l25 -489h-389v1513h389v-620q0 -72 32 -111t95 -39q102 0 178 111v659h389v-647z" />
<glyph unicode="&#xb6;" horiz-adv-x="1443" d="M647 1454h699v-287h-144v-1331h-328v549h-63v-549h-328v549q-184 0 -298.5 146t-114.5 380q0 259 151 401t426 142zM483 672v495q-40 -8 -66 -77t-26 -168q0 -101 26 -171.5t66 -78.5zM874 1167h-63v-495h63v495z" />
<glyph unicode="&#xb7;" horiz-adv-x="520" d="M102 487v377h316v-377h-316z" />
<glyph unicode="&#xb8;" horiz-adv-x="741" d="M301 -451q-123 0 -254 70l90 199q45 -39 99 -39q38 0 62 21.5t24 58.5q0 68 -86 141l122 74q59 -45 96.5 -82.5t66 -93.5t28.5 -117q0 -98 -63.5 -165t-184.5 -67z" />
<glyph unicode="&#xb9;" horiz-adv-x="657" d="M614 993v-219h-518v219h156v453q-25 -33 -86 -71t-105 -38v224q37 0 85 30t75.5 57t30.5 33h225v-688h137z" />
<glyph unicode="&#xba;" horiz-adv-x="897" d="M57 1073q0 165 104 278t288 113q94 0 169.5 -31.5t123 -86t73 -124.5t25.5 -149t-25.5 -148.5t-73 -124t-123 -86.5t-169.5 -32q-93 0 -168.5 32t-124 86t-74 124t-25.5 149zM449 911q53 0 85.5 44t32.5 118t-32.5 118t-85.5 44t-86 -44t-33 -118t33 -118t86 -44z" />
<glyph unicode="&#xbb;" horiz-adv-x="1460" d="M680 430l-567 -369v312l262 157l-262 175v311l567 -406v-180zM1399 430l-568 -369v312l263 157l-263 175v311l568 -406v-180z" />
<glyph unicode="&#xbc;" horiz-adv-x="1951" d="M614 809v-219h-518v219h156v453q-25 -33 -86 -71t-105 -38v223q37 0 85 30.5t75.5 57.5t30.5 33h225v-688h137zM270 133l580 653l514 691l170 -154l-555 -633l-539 -710zM1528 2v191h-420v198l510 512h172v-534h111v-176h-111v-191h-262zM1315 369h221v229z" />
<glyph unicode="&#xbd;" horiz-adv-x="2066" d="M614 809v-219h-518v219h156v453q-25 -33 -86 -71t-105 -38v223q37 0 85 30.5t75.5 57.5t30.5 33h225v-688h137zM270 133l580 653l514 691l170 -154l-555 -633l-539 -710zM1202 0q0 166 55 252.5t218 161.5q21 10 60.5 26.5t64 27t55.5 28t49 33t30.5 36.5t12.5 45 q0 48 -43 75.5t-111 27.5q-138 0 -247 -109l-140 164q46 62 160 102.5t252 40.5q181 0 278 -74t97 -208q0 -69 -25.5 -124.5t-68 -90.5t-81 -55t-81.5 -33q-43 -12 -66 -20.5t-49 -21.5t-37.5 -28.5t-11.5 -36.5h422v-219h-793z" />
<glyph unicode="&#xbe;" horiz-adv-x="2158" d="M47 717l113 151q98 -82 239 -82q158 0 158 88q0 44 -48.5 63t-172.5 19h-51v197h49q106 0 149 17.5t43 56.5q0 73 -125 73q-129 0 -227 -86l-131 168q51 54 161 84.5t220 30.5q162 0 261 -69.5t99 -178.5q0 -71 -43 -120t-116 -62q83 -13 131.5 -78.5t48.5 -154.5 q0 -70 -32 -122t-88 -82t-124 -44.5t-147 -14.5q-130 0 -229.5 37t-137.5 109zM477 133l580 653l514 691l170 -154l-555 -633l-539 -710zM1735 2v191h-420v198l510 512h172v-534h110v-176h-110v-191h-262zM1522 369h221v229z" />
<glyph unicode="&#xbf;" horiz-adv-x="997" d="M803 1036v-336h-318v336h318zM809 506q0 -52 -4.5 -87t-20 -76.5t-49.5 -75.5t-88 -62q-6 -3 -39 -20t-54.5 -28.5t-54.5 -33.5t-53 -42t-35.5 -47t-15.5 -54q0 -45 36 -74t87 -29q28 0 51.5 9t41.5 25.5t30 30.5t26 34.5t19 27.5l248 -176q-52 -124 -167 -194t-263 -70 q-65 0 -127 13.5t-120.5 45.5t-102.5 79t-70.5 119t-26.5 161q0 210 164 321q40 27 117.5 65t115.5 68t38 70h317z" />
<glyph unicode="&#xc0;" horiz-adv-x="1366" d="M377 1872h346l102 -291l-245 -65zM461 1454h446l463 -1454h-405l-88 285h-388l-86 -285h-407zM813 551l-129 512l-135 -512h264z" />
<glyph unicode="&#xc1;" horiz-adv-x="1366" d="M807 1516l-246 65l103 291h346zM461 1454h446l463 -1454h-405l-88 285h-388l-86 -285h-407zM813 551l-129 512l-135 -512h264z" />
<glyph unicode="&#xc2;" horiz-adv-x="1366" d="M313 1636l232 236h278l232 -236l-197 -86l-174 129l-174 -129zM461 1454h446l463 -1454h-405l-88 285h-388l-86 -285h-407zM813 551l-129 512l-135 -512h264z" />
<glyph unicode="&#xc3;" horiz-adv-x="1366" d="M551 1647q-26 0 -45 -10t-28 -23t-14 -29.5t-6 -24t-1 -12.5h-207q0 24 9.5 61.5t32 83.5t54 85.5t81.5 66.5t108 27q45 0 86 -16.5t67 -36t59 -36t64 -16.5q25 0 45 10.5t30 24.5t16.5 30.5t8.5 26t2 13.5h205q0 -17 -10 -52t-33 -82.5t-55 -89t-84 -71t-111 -29.5 q-42 0 -82.5 15.5t-67 34t-60.5 34t-64 15.5zM461 1454h446l463 -1454h-405l-88 285h-388l-86 -285h-407zM813 551l-129 512l-135 -512h264z" />
<glyph unicode="&#xc4;" horiz-adv-x="1366" d="M289 1567v286h319v-286h-319zM760 1567v286h319v-286h-319zM461 1454h446l463 -1454h-405l-88 285h-388l-86 -285h-407zM813 551l-129 512l-135 -512h264z" />
<glyph unicode="&#xc5;" horiz-adv-x="1366" d="M684 1886q109 0 174.5 -51.5t65.5 -140.5t-65.5 -141t-174.5 -52t-174.5 52t-65.5 141t65.5 140.5t174.5 51.5zM602 1696q0 -32 24 -56t58 -24q33 0 57.5 24.5t24.5 55.5q0 30 -24 53t-58 23t-58 -23t-24 -53zM461 1454h446l463 -1454h-405l-88 285h-388l-86 -285h-407z M813 551l-129 512l-135 -512h264z" />
<glyph unicode="&#xc6;" horiz-adv-x="1988" d="M829 1454h1080v-348h-578v-193h467v-348h-467v-217h596v-348h-993v285h-412l-153 -285h-422zM903 633v381l-213 -381h213z" />
<glyph unicode="&#xc7;" horiz-adv-x="1415" d="M1399 326q-53 -130 -194 -217t-312 -113q100 -100 100 -215q0 -98 -63.5 -165t-184.5 -67q-122 0 -253 70l90 199q45 -39 98 -39q38 0 62 21.5t24 58.5q0 63 -78 135q-140 17 -261.5 87.5t-204 173t-130 229t-47.5 255.5q0 134 51.5 262.5t144 231.5t235.5 166t312 63 q205 0 362 -86t234 -231l-305 -217q-20 51 -54 87.5t-76 56t-83.5 28t-85.5 8.5q-82 0 -147 -33.5t-103.5 -89t-58.5 -121.5t-20 -137q0 -159 91 -272t242 -113q59 0 113 16.5t103.5 58t72.5 103.5z" />
<glyph unicode="&#xc8;" horiz-adv-x="1222" d="M340 1872h346l102 -291l-245 -65zM1161 348v-348h-1036v1454h1018v-348h-619v-205h529v-323h-529v-230h637z" />
<glyph unicode="&#xc9;" horiz-adv-x="1222" d="M770 1516l-246 65l103 291h346zM1161 348v-348h-1036v1454h1018v-348h-619v-205h529v-323h-529v-230h637z" />
<glyph unicode="&#xca;" horiz-adv-x="1222" d="M276 1636l232 236h278l232 -236l-197 -86l-174 129l-174 -129zM1161 348v-348h-1036v1454h1018v-348h-619v-205h529v-323h-529v-230h637z" />
<glyph unicode="&#xcb;" horiz-adv-x="1222" d="M252 1567v286h319v-286h-319zM723 1567v286h319v-286h-319zM1161 348v-348h-1036v1454h1018v-348h-619v-205h529v-323h-529v-230h637z" />
<glyph unicode="&#xcc;" horiz-adv-x="649" d="M16 1872h346l103 -291l-246 -65zM125 0v1454h399v-1454h-399z" />
<glyph unicode="&#xcd;" horiz-adv-x="649" d="M446 1516l-245 65l102 291h346zM125 0v1454h399v-1454h-399z" />
<glyph unicode="&#xce;" horiz-adv-x="649" d="M-47 1636l231 236h279l231 -236l-196 -86l-174 129l-174 -129zM125 0v1454h399v-1454h-399z" />
<glyph unicode="&#xcf;" horiz-adv-x="649" d="M-72 1567v286h320v-286h-320zM399 1567v286h320v-286h-320zM125 0v1454h399v-1454h-399z" />
<glyph unicode="&#xd0;" horiz-adv-x="1474" d="M692 1454q176 0 317.5 -56.5t231 -156t137 -230t47.5 -282.5q0 -330 -200.5 -529.5t-532.5 -199.5h-559v588h-76v286h76v580h559zM692 348q153 0 240.5 106t87.5 275q0 171 -88 274t-240 103h-160v-232h234v-286h-234v-240h160z" />
<glyph unicode="&#xd1;" horiz-adv-x="1544" d="M633 1645q-26 0 -45 -10t-28 -23t-14 -29.5t-6 -24t-1 -12.5h-207q0 24 9.5 61.5t32 83.5t53.5 85.5t81 66.5t108 27q45 0 86 -16.5t67 -36t59.5 -36t64.5 -16.5q25 0 45 10.5t30 24.5t16.5 30.5t8.5 26t2 13.5h205q0 -17 -10 -52t-33 -82.5t-55 -89t-84 -71t-111 -29.5 q-42 0 -82.5 15.5t-67 34t-60.5 34t-64 15.5zM524 715v-715h-399v1454h311l584 -739v739h399v-1454h-317z" />
<glyph unicode="&#xd2;" horiz-adv-x="1566" d="M481 1872h346l103 -291l-246 -65zM45 729q0 143 56 276.5t153 234.5t236.5 161.5t297.5 60.5q160 0 300 -63.5t233.5 -168t147 -237.5t53.5 -272q0 -142 -55.5 -275t-152 -234.5t-236.5 -162.5t-298 -61q-160 0 -299.5 63t-233.5 167t-148 237.5t-54 273.5zM784 342 q83 0 148.5 33.5t104.5 89.5t59 123t20 141q0 102 -35.5 186t-113 138.5t-185.5 54.5q-83 0 -148 -33t-104 -88t-59 -122t-20 -140q0 -75 20.5 -142.5t60.5 -122t105 -86.5t147 -32z" />
<glyph unicode="&#xd3;" horiz-adv-x="1566" d="M911 1516l-245 65l102 291h346zM45 729q0 143 56 276.5t153 234.5t236.5 161.5t297.5 60.5q160 0 300 -63.5t233.5 -168t147 -237.5t53.5 -272q0 -142 -55.5 -275t-152 -234.5t-236.5 -162.5t-298 -61q-160 0 -299.5 63t-233.5 167t-148 237.5t-54 273.5zM784 342 q83 0 148.5 33.5t104.5 89.5t59 123t20 141q0 102 -35.5 186t-113 138.5t-185.5 54.5q-83 0 -148 -33t-104 -88t-59 -122t-20 -140q0 -75 20.5 -142.5t60.5 -122t105 -86.5t147 -32z" />
<glyph unicode="&#xd4;" horiz-adv-x="1566" d="M418 1636l231 236h279l231 -236l-196 -86l-175 129l-174 -129zM45 729q0 143 56 276.5t153 234.5t236.5 161.5t297.5 60.5q160 0 300 -63.5t233.5 -168t147 -237.5t53.5 -272q0 -142 -55.5 -275t-152 -234.5t-236.5 -162.5t-298 -61q-160 0 -299.5 63t-233.5 167 t-148 237.5t-54 273.5zM784 342q83 0 148.5 33.5t104.5 89.5t59 123t20 141q0 102 -35.5 186t-113 138.5t-185.5 54.5q-83 0 -148 -33t-104 -88t-59 -122t-20 -140q0 -75 20.5 -142.5t60.5 -122t105 -86.5t147 -32z" />
<glyph unicode="&#xd5;" horiz-adv-x="1566" d="M655 1647q-26 0 -45 -10t-28 -23t-14 -29.5t-6 -24t-1 -12.5h-207q0 24 9.5 61.5t32 83.5t54 85.5t81.5 66.5t108 27q45 0 86 -16.5t67 -36t59 -36t64 -16.5q25 0 45 10.5t30.5 24.5t17 30.5t8.5 26t2 13.5h205q0 -17 -10 -52t-33 -82.5t-55 -89t-84 -71t-111 -29.5 q-53 0 -102.5 25t-92.5 49.5t-80 24.5zM45 729q0 143 56 276.5t153 234.5t236.5 161.5t297.5 60.5q160 0 300 -63.5t233.5 -168t147 -237.5t53.5 -272q0 -142 -55.5 -275t-152 -234.5t-236.5 -162.5t-298 -61q-160 0 -299.5 63t-233.5 167t-148 237.5t-54 273.5zM784 342 q83 0 148.5 33.5t104.5 89.5t59 123t20 141q0 102 -35.5 186t-113 138.5t-185.5 54.5q-83 0 -148 -33t-104 -88t-59 -122t-20 -140q0 -75 20.5 -142.5t60.5 -122t105 -86.5t147 -32z" />
<glyph unicode="&#xd6;" horiz-adv-x="1566" d="M393 1567v286h320v-286h-320zM864 1567v286h320v-286h-320zM45 729q0 143 56 276.5t153 234.5t236.5 161.5t297.5 60.5q160 0 300 -63.5t233.5 -168t147 -237.5t53.5 -272q0 -142 -55.5 -275t-152 -234.5t-236.5 -162.5t-298 -61q-160 0 -299.5 63t-233.5 167t-148 237.5 t-54 273.5zM784 342q83 0 148.5 33.5t104.5 89.5t59 123t20 141q0 102 -35.5 186t-113 138.5t-185.5 54.5q-83 0 -148 -33t-104 -88t-59 -122t-20 -140q0 -75 20.5 -142.5t60.5 -122t105 -86.5t147 -32z" />
<glyph unicode="&#xd7;" horiz-adv-x="1007" d="M924 391l-244 -241l-178 178l-178 -178l-240 241l176 176l-164 166l244 242l164 -164l164 164l239 -242l-164 -164z" />
<glyph unicode="&#xd8;" horiz-adv-x="1562" d="M1526 1454l-183 -250q86 -101 132.5 -226.5t46.5 -256.5q0 -142 -55.5 -275t-152 -234.5t-236.5 -162.5t-298 -61q-148 0 -280 55l-31 -43h-428l180 248q-85 101 -130.5 226t-45.5 255q0 143 56 276.5t153 234.5t236.5 161.5t297.5 60.5q151 0 275 -53l33 45h430z M451 725q0 -71 18 -135l373 514q-36 4 -60 4q-83 0 -148 -33t-104 -88t-59 -122t-20 -140zM1116 729q0 71 -18 135l-377 -516q30 -6 63 -6q83 0 148.5 33.5t104.5 89.5t59 123t20 141z" />
<glyph unicode="&#xd9;" horiz-adv-x="1521" d="M453 1872h346l102 -291l-246 -65zM760 -12q-136 0 -246.5 38t-186 104t-126.5 158t-74 196.5t-23 222.5v747h400v-747q0 -75 14.5 -139t44 -115.5t80 -81t117.5 -29.5q68 0 119 30t80.5 82.5t44 116t14.5 136.5v747h399v-747q0 -155 -40 -284t-118.5 -227t-206 -153 t-292.5 -55z" />
<glyph unicode="&#xda;" horiz-adv-x="1521" d="M883 1516l-246 65l102 291h346zM760 -12q-136 0 -246.5 38t-186 104t-126.5 158t-74 196.5t-23 222.5v747h400v-747q0 -75 14.5 -139t44 -115.5t80 -81t117.5 -29.5q68 0 119 30t80.5 82.5t44 116t14.5 136.5v747h399v-747q0 -155 -40 -284t-118.5 -227t-206 -153 t-292.5 -55z" />
<glyph unicode="&#xdb;" horiz-adv-x="1521" d="M389 1636l232 236h278l231 -236l-196 -86l-174 129l-174 -129zM760 -12q-136 0 -246.5 38t-186 104t-126.5 158t-74 196.5t-23 222.5v747h400v-747q0 -75 14.5 -139t44 -115.5t80 -81t117.5 -29.5q68 0 119 30t80.5 82.5t44 116t14.5 136.5v747h399v-747q0 -155 -40 -284 t-118.5 -227t-206 -153t-292.5 -55z" />
<glyph unicode="&#xdc;" horiz-adv-x="1521" d="M365 1567v286h319v-286h-319zM836 1567v286h319v-286h-319zM760 -12q-136 0 -246.5 38t-186 104t-126.5 158t-74 196.5t-23 222.5v747h400v-747q0 -75 14.5 -139t44 -115.5t80 -81t117.5 -29.5q68 0 119 30t80.5 82.5t44 116t14.5 136.5v747h399v-747q0 -155 -40 -284 t-118.5 -227t-206 -153t-292.5 -55z" />
<glyph unicode="&#xdd;" horiz-adv-x="1363" d="M803 1516l-246 65l102 291h347zM420 1454l260 -594l266 594h434l-501 -973v-481h-398v485l-493 969h432z" />
<glyph unicode="&#xde;" horiz-adv-x="1239" d="M1210 711q0 -131 -59 -245.5t-170 -186.5t-250 -72h-207v-207h-399v1454h399v-242h197q104 0 196.5 -43.5t155.5 -114t100 -160.5t37 -183zM811 711q0 70 -34.5 111.5t-76.5 41.5h-176v-309h187q40 0 70 43.5t30 112.5z" />
<glyph unicode="&#xdf;" horiz-adv-x="1153" d="M520 344q79 0 132 37.5t53 103.5q0 45 -26.5 78t-57.5 45.5t-58 12.5h-47v348h43q41 0 60.5 22t19.5 58q0 24 -9 41.5t-20.5 26t-26.5 13t-21 5t-11 0.5q-84 0 -84 -123v-1012h-369v1083q0 162 142 270.5t350 108.5q186 0 302 -91.5t116 -252.5q0 -99 -43 -180.5 t-103 -112.5q118 -45 185 -145t67 -244q0 -102 -36 -182t-93.5 -129t-137 -81t-159.5 -44t-168 -12v356z" />
<glyph unicode="&#xe0;" horiz-adv-x="1226" d="M266 1495h346l103 -291l-246 -65zM39 326q0 162 130.5 265t334.5 103q133 0 217 -41v33q0 76 -44.5 113t-141.5 37q-87 0 -165 -28.5t-169 -88.5l-113 242q213 137 485 137q259 0 398 -117t139 -342v-209q0 -55 16 -77t58 -25v-328q-90 -20 -164 -20q-199 0 -229 149 l-9 39q-147 -188 -366 -188q-162 0 -269.5 98.5t-107.5 247.5zM670 299q51 33 51 76v80q-79 28 -150 28q-70 0 -117.5 -35t-47.5 -88q0 -44 35.5 -73t90.5 -29q77 0 138 41z" />
<glyph unicode="&#xe1;" horiz-adv-x="1226" d="M696 1139l-245 65l102 291h346zM39 326q0 162 130.5 265t334.5 103q133 0 217 -41v33q0 76 -44.5 113t-141.5 37q-87 0 -165 -28.5t-169 -88.5l-113 242q213 137 485 137q259 0 398 -117t139 -342v-209q0 -55 16 -77t58 -25v-328q-90 -20 -164 -20q-199 0 -229 149l-9 39 q-147 -188 -366 -188q-162 0 -269.5 98.5t-107.5 247.5zM670 299q51 33 51 76v80q-79 28 -150 28q-70 0 -117.5 -35t-47.5 -88q0 -44 35.5 -73t90.5 -29q77 0 138 41z" />
<glyph unicode="&#xe2;" horiz-adv-x="1226" d="M203 1260l231 235h279l231 -235l-196 -86l-175 129l-174 -129zM39 326q0 162 130.5 265t334.5 103q133 0 217 -41v33q0 76 -44.5 113t-141.5 37q-87 0 -165 -28.5t-169 -88.5l-113 242q213 137 485 137q259 0 398 -117t139 -342v-209q0 -55 16 -77t58 -25v-328 q-90 -20 -164 -20q-199 0 -229 149l-9 39q-147 -188 -366 -188q-162 0 -269.5 98.5t-107.5 247.5zM670 299q51 33 51 76v80q-79 28 -150 28q-70 0 -117.5 -35t-47.5 -88q0 -44 35.5 -73t90.5 -29q77 0 138 41z" />
<glyph unicode="&#xe3;" horiz-adv-x="1226" d="M440 1270q-26 0 -45 -10t-28 -23t-14 -29.5t-6 -24t-1 -12.5h-207q0 24 9.5 61.5t32 83.5t54 85.5t81.5 66.5t108 27q45 0 86 -16.5t66.5 -35.5t59 -35.5t64.5 -16.5q25 0 45 10.5t30.5 24.5t17 30t8.5 25.5t2 13.5h205q0 -17 -10 -52t-33 -82.5t-55 -89t-84 -71 t-111 -29.5q-42 0 -82.5 15.5t-67.5 34t-61 34t-64 15.5zM39 326q0 162 130.5 265t334.5 103q133 0 217 -41v33q0 76 -44.5 113t-141.5 37q-87 0 -165 -28.5t-169 -88.5l-113 242q213 137 485 137q259 0 398 -117t139 -342v-209q0 -55 16 -77t58 -25v-328q-90 -20 -164 -20 q-199 0 -229 149l-9 39q-147 -188 -366 -188q-162 0 -269.5 98.5t-107.5 247.5zM670 299q51 33 51 76v80q-79 28 -150 28q-70 0 -117.5 -35t-47.5 -88q0 -44 35.5 -73t90.5 -29q77 0 138 41z" />
<glyph unicode="&#xe4;" horiz-adv-x="1226" d="M178 1190v287h320v-287h-320zM649 1190v287h320v-287h-320zM39 326q0 162 130.5 265t334.5 103q133 0 217 -41v33q0 76 -44.5 113t-141.5 37q-87 0 -165 -28.5t-169 -88.5l-113 242q213 137 485 137q259 0 398 -117t139 -342v-209q0 -55 16 -77t58 -25v-328 q-90 -20 -164 -20q-199 0 -229 149l-9 39q-147 -188 -366 -188q-162 0 -269.5 98.5t-107.5 247.5zM670 299q51 33 51 76v80q-79 28 -150 28q-70 0 -117.5 -35t-47.5 -88q0 -44 35.5 -73t90.5 -29q77 0 138 41z" />
<glyph unicode="&#xe5;" horiz-adv-x="1226" d="M573 1509q109 0 174.5 -51.5t65.5 -140.5t-65.5 -141t-174.5 -52t-174 52t-65 141t65 140.5t174 51.5zM492 1319q0 -32 23.5 -56t57.5 -24q33 0 57.5 24.5t24.5 55.5q0 30 -24 53t-58 23t-57.5 -23t-23.5 -53zM39 326q0 162 130.5 265t334.5 103q133 0 217 -41v33 q0 76 -44.5 113t-141.5 37q-87 0 -165 -28.5t-169 -88.5l-113 242q213 137 485 137q259 0 398 -117t139 -342v-209q0 -55 16 -77t58 -25v-328q-90 -20 -164 -20q-199 0 -229 149l-9 39q-147 -188 -366 -188q-162 0 -269.5 98.5t-107.5 247.5zM670 299q51 33 51 76v80 q-79 28 -150 28q-70 0 -117.5 -35t-47.5 -88q0 -44 35.5 -73t90.5 -29q77 0 138 41z" />
<glyph unicode="&#xe6;" horiz-adv-x="1929" d="M39 326q0 162 130.5 265t334.5 103q133 0 217 -41v33q-2 76 -45.5 113t-140.5 37q-87 0 -165 -28.5t-169 -88.5l-113 242q213 137 485 137q240 0 379 -103q150 103 359 103q140 0 254 -45.5t186 -123t111 -177.5t39 -213q0 -59 -11 -119h-755q6 -81 60 -121.5t128 -40.5 q65 0 121 30t74 79l329 -95q-69 -134 -207.5 -213t-328.5 -79q-158 0 -279.5 55.5t-197.5 152.5q-73 -103 -189 -155.5t-229 -52.5q-162 0 -269.5 98.5t-107.5 247.5zM1483 653q-9 78 -56.5 123t-121.5 45t-122 -45t-57 -123h357zM670 299q51 33 51 76v80q-79 28 -150 28 q-70 0 -117.5 -35t-47.5 -88q0 -44 35.5 -73t90.5 -29q77 0 138 41z" />
<glyph unicode="&#xe7;" horiz-adv-x="1181" d="M629 307q94 0 149 80l379 -115q-58 -111 -159.5 -185t-241.5 -97q92 -99 92 -209q0 -98 -63.5 -165t-184.5 -67q-123 0 -254 70l90 199q45 -39 99 -39q38 0 62 21.5t24 58.5q0 60 -68 125q-161 16 -279.5 97.5t-176.5 200t-58 257.5q0 112 39.5 212t113 178t187 123.5 t252.5 45.5q188 0 322.5 -79t203.5 -214l-379 -115q-55 80 -149 80q-82 0 -136.5 -62.5t-54.5 -168.5t54.5 -169t136.5 -63z" />
<glyph unicode="&#xe8;" horiz-adv-x="1247" d="M322 1495h346l102 -291l-246 -65zM629 -20q-111 0 -206.5 29t-165 79.5t-119.5 119t-74.5 149t-24.5 167.5q0 118 38.5 221t111.5 182t186.5 125t253.5 46t254 -45.5t186 -123t111 -177.5t39 -213q0 -59 -11 -119h-755q6 -81 60 -121.5t128 -40.5q65 0 121 30t74 79 l329 -95q-69 -134 -207.5 -213t-328.5 -79zM444 653h357q-9 78 -56.5 123t-121.5 45t-122 -45t-57 -123z" />
<glyph unicode="&#xe9;" horiz-adv-x="1247" d="M752 1139l-246 65l102 291h346zM629 -20q-111 0 -206.5 29t-165 79.5t-119.5 119t-74.5 149t-24.5 167.5q0 118 38.5 221t111.5 182t186.5 125t253.5 46t254 -45.5t186 -123t111 -177.5t39 -213q0 -59 -11 -119h-755q6 -81 60 -121.5t128 -40.5q65 0 121 30t74 79 l329 -95q-69 -134 -207.5 -213t-328.5 -79zM444 653h357q-9 78 -56.5 123t-121.5 45t-122 -45t-57 -123z" />
<glyph unicode="&#xea;" horiz-adv-x="1247" d="M258 1260l231 235h279l231 -235l-196 -86l-174 129l-174 -129zM629 -20q-111 0 -206.5 29t-165 79.5t-119.5 119t-74.5 149t-24.5 167.5q0 118 38.5 221t111.5 182t186.5 125t253.5 46t254 -45.5t186 -123t111 -177.5t39 -213q0 -59 -11 -119h-755q6 -81 60 -121.5 t128 -40.5q65 0 121 30t74 79l329 -95q-69 -134 -207.5 -213t-328.5 -79zM444 653h357q-9 78 -56.5 123t-121.5 45t-122 -45t-57 -123z" />
<glyph unicode="&#xeb;" horiz-adv-x="1247" d="M233 1190v287h320v-287h-320zM705 1190v287h319v-287h-319zM629 -20q-111 0 -206.5 29t-165 79.5t-119.5 119t-74.5 149t-24.5 167.5q0 118 38.5 221t111.5 182t186.5 125t253.5 46t254 -45.5t186 -123t111 -177.5t39 -213q0 -59 -11 -119h-755q6 -81 60 -121.5 t128 -40.5q65 0 121 30t74 79l329 -95q-69 -134 -207.5 -213t-328.5 -79zM444 653h357q-9 78 -56.5 123t-121.5 45t-122 -45t-57 -123z" />
<glyph unicode="&#xec;" horiz-adv-x="585" d="M-14 1495h346l102 -291l-246 -65zM98 0v1077h389v-1077h-389z" />
<glyph unicode="&#xed;" horiz-adv-x="585" d="M416 1139l-246 65l102 291h346zM98 0v1077h389v-1077h-389z" />
<glyph unicode="&#xee;" horiz-adv-x="585" d="M-78 1260l232 235h278l232 -235l-197 -86l-174 129l-174 -129zM98 0v1077h389v-1077h-389z" />
<glyph unicode="&#xef;" horiz-adv-x="585" d="M-102 1190v287h319v-287h-319zM369 1190v287h319v-287h-319zM98 0v1077h389v-1077h-389z" />
<glyph unicode="&#xf0;" horiz-adv-x="1271" d="M1001 1247q105 -134 164.5 -304.5t59.5 -346.5q0 -288 -157 -452t-433 -164q-171 0 -305.5 63.5t-209.5 177t-75 258.5q0 204 141 345t346 141q167 0 293 -95q-38 140 -120 252l-156 -78l-107 146l140 70q-137 122 -361 235h471q92 -38 182 -115l148 78l106 -145z M635 307q86 0 138 48t52 126t-52 126t-138 48t-138.5 -48t-52.5 -126t52.5 -126t138.5 -48z" />
<glyph unicode="&#xf1;" horiz-adv-x="1271" d="M549 1270q-26 0 -45 -10t-28 -23t-14 -29.5t-6 -24t-1 -12.5h-207q0 24 9.5 61.5t32 83.5t53.5 85.5t81 66.5t108 27q45 0 86 -16.5t67 -35.5t59.5 -35.5t64.5 -16.5q25 0 45 10.5t30 24.5t16.5 30t8.5 25.5t2 13.5h205q0 -17 -10 -52t-33 -82.5t-55 -89t-84 -71 t-111 -29.5q-42 0 -82.5 15.5t-67 34t-60.5 34t-64 15.5zM1182 0h-389v606q0 75 -34 113.5t-85 38.5t-106 -44t-81 -110v-604h-389v1077h351v-159q57 88 161 134t244 46q70 0 125.5 -18t90 -50.5t58 -70t35 -85t15.5 -85.5t4 -80v-709z" />
<glyph unicode="&#xf2;" d="M322 1495h346l102 -291l-246 -65zM39 539q0 113 39 213t111 177.5t186 123t254 45.5t254 -45.5t186 -123t111 -177.5t39 -213q0 -112 -39 -212t-111 -178t-186 -123.5t-254 -45.5t-254 45.5t-186 123.5t-111 178t-39 212zM629 307q84 0 137 63t53 169t-53 168.5 t-137 62.5q-85 0 -138 -62.5t-53 -168.5t53.5 -169t137.5 -63z" />
<glyph unicode="&#xf3;" d="M752 1139l-246 65l102 291h346zM39 539q0 113 39 213t111 177.5t186 123t254 45.5t254 -45.5t186 -123t111 -177.5t39 -213q0 -112 -39 -212t-111 -178t-186 -123.5t-254 -45.5t-254 45.5t-186 123.5t-111 178t-39 212zM629 307q84 0 137 63t53 169t-53 168.5t-137 62.5 q-85 0 -138 -62.5t-53 -168.5t53.5 -169t137.5 -63z" />
<glyph unicode="&#xf4;" d="M258 1260l231 235h279l231 -235l-196 -86l-174 129l-174 -129zM39 539q0 113 39 213t111 177.5t186 123t254 45.5t254 -45.5t186 -123t111 -177.5t39 -213q0 -112 -39 -212t-111 -178t-186 -123.5t-254 -45.5t-254 45.5t-186 123.5t-111 178t-39 212zM629 307 q84 0 137 63t53 169t-53 168.5t-137 62.5q-85 0 -138 -62.5t-53 -168.5t53.5 -169t137.5 -63z" />
<glyph unicode="&#xf5;" d="M496 1270q-26 0 -45 -10t-28 -23t-14.5 -29.5t-6.5 -24.5t-1 -12h-206q0 24 9.5 61.5t32 83.5t53.5 85.5t81 66.5t108 27q45 0 86 -16.5t67 -35.5t59.5 -35.5t64.5 -16.5q25 0 45 10.5t30 24.5t16.5 30t8.5 25.5t2 13.5h205q0 -17 -10 -52t-33 -82.5t-55 -89t-84 -71 t-111 -29.5q-42 0 -82.5 15.5t-67 34t-60.5 34t-64 15.5zM39 539q0 113 39 213t111 177.5t186 123t254 45.5t254 -45.5t186 -123t111 -177.5t39 -213q0 -112 -39 -212t-111 -178t-186 -123.5t-254 -45.5t-254 45.5t-186 123.5t-111 178t-39 212zM629 307q84 0 137 63t53 169 t-53 168.5t-137 62.5q-85 0 -138 -62.5t-53 -168.5t53.5 -169t137.5 -63z" />
<glyph unicode="&#xf6;" d="M233 1190v287h320v-287h-320zM705 1190v287h319v-287h-319zM39 539q0 113 39 213t111 177.5t186 123t254 45.5t254 -45.5t186 -123t111 -177.5t39 -213q0 -112 -39 -212t-111 -178t-186 -123.5t-254 -45.5t-254 45.5t-186 123.5t-111 178t-39 212zM629 307q84 0 137 63 t53 169t-53 168.5t-137 62.5q-85 0 -138 -62.5t-53 -168.5t53.5 -169t137.5 -63z" />
<glyph unicode="&#xf7;" horiz-adv-x="993" d="M336 891v328h326v-328h-326zM84 481v307h827v-307h-827zM336 55v328h326v-328h-326z" />
<glyph unicode="&#xf8;" d="M1073 924q146 -155 146 -385q0 -112 -39 -212t-111 -178t-186 -123.5t-254 -45.5q-190 0 -330 81l-66 -73h-204l145 176q-135 153 -135 375q0 113 39 213t111 177.5t186 123t254 45.5q180 0 315 -74l60 66h206zM629 770q-85 0 -138 -62.5t-53 -168.5q0 -44 13 -88 l264 299q-39 20 -86 20zM629 307q84 0 137 63t53 169q0 56 -16 102l-273 -305q47 -29 99 -29z" />
<glyph unicode="&#xf9;" horiz-adv-x="1306" d="M324 1495h346l102 -291l-246 -65zM88 369v708h389v-620q0 -70 31.5 -110t87.5 -40q110 0 186 111v659h389v-647q0 -55 16 -77t58 -25v-328q-100 -20 -164 -20q-199 0 -229 149l-8 39q-141 -188 -420 -188q-163 0 -249.5 100t-86.5 289z" />
<glyph unicode="&#xfa;" horiz-adv-x="1306" d="M754 1139l-246 65l102 291h346zM88 369v708h389v-620q0 -70 31.5 -110t87.5 -40q110 0 186 111v659h389v-647q0 -55 16 -77t58 -25v-328q-100 -20 -164 -20q-199 0 -229 149l-8 39q-141 -188 -420 -188q-163 0 -249.5 100t-86.5 289z" />
<glyph unicode="&#xfb;" horiz-adv-x="1306" d="M260 1260l232 235h278l231 -235l-196 -86l-174 129l-174 -129zM88 369v708h389v-620q0 -70 31.5 -110t87.5 -40q110 0 186 111v659h389v-647q0 -55 16 -77t58 -25v-328q-100 -20 -164 -20q-199 0 -229 149l-8 39q-141 -188 -420 -188q-163 0 -249.5 100t-86.5 289z" />
<glyph unicode="&#xfc;" horiz-adv-x="1306" d="M236 1190v287h319v-287h-319zM707 1190v287h319v-287h-319zM88 369v708h389v-620q0 -70 31.5 -110t87.5 -40q110 0 186 111v659h389v-647q0 -55 16 -77t58 -25v-328q-100 -20 -164 -20q-199 0 -229 149l-8 39q-141 -188 -420 -188q-163 0 -249.5 100t-86.5 289z" />
<glyph unicode="&#xfd;" horiz-adv-x="1136" d="M723 1139l-246 65l103 291h346zM90 -109q90 -34 160 -34q125 0 137 143l-391 1077h399l205 -678l166 678h362l-364 -1206q-47 -158 -177 -254t-296 -96q-106 0 -201 39v331z" />
<glyph unicode="&#xfe;" horiz-adv-x="1226" d="M639 -63q-46 0 -81 8.5t-47.5 16.5t-12.5 11v-409h-400v1890h400v-379q4 4 13.5 10.5t49.5 17.5t92 11q95 0 180.5 -34t149.5 -93t111.5 -134.5t71.5 -160.5t24 -170q0 -152 -75 -287t-203 -216.5t-273 -81.5zM629 766q-44 0 -74 -24t-57 -72v-303q0 -24 39 -53t88 -29 q73 0 119.5 68t46.5 177q0 103 -42.5 169.5t-119.5 66.5z" />
<glyph unicode="&#xff;" horiz-adv-x="1136" d="M205 1190v287h319v-287h-319zM676 1190v287h319v-287h-319zM90 -109q90 -34 160 -34q125 0 137 143l-391 1077h399l205 -678l166 678h362l-364 -1206q-47 -158 -177 -254t-296 -96q-106 0 -201 39v331z" />
<glyph unicode="&#x100;" horiz-adv-x="1366" d="M369 1620v231h635v-231h-635zM461 1454h446l463 -1454h-405l-88 285h-388l-86 -285h-407zM813 551l-129 512l-135 -512h264z" />
<glyph unicode="&#x101;" horiz-adv-x="1226" d="M258 1243v232h635v-232h-635zM39 326q0 162 130.5 265t334.5 103q133 0 217 -41v33q0 76 -44.5 113t-141.5 37q-87 0 -165 -28.5t-169 -88.5l-113 242q213 137 485 137q259 0 398 -117t139 -342v-209q0 -55 16 -77t58 -25v-328q-90 -20 -164 -20q-199 0 -229 149l-9 39 q-147 -188 -366 -188q-162 0 -269.5 98.5t-107.5 247.5zM670 299q51 33 51 76v80q-79 28 -150 28q-70 0 -117.5 -35t-47.5 -88q0 -44 35.5 -73t90.5 -29q77 0 138 41z" />
<glyph unicode="&#x102;" horiz-adv-x="1366" d="M809 1872h201q0 -147 -91 -239.5t-235 -92.5t-235 92.5t-91 239.5h201q0 -68 37 -117t88 -49q47 0 83 47t42 119zM461 1454h446l463 -1454h-405l-88 285h-388l-86 -285h-407zM813 551l-129 512l-135 -512h264z" />
<glyph unicode="&#x103;" horiz-adv-x="1226" d="M698 1495h201q0 -147 -91 -239.5t-235 -92.5t-234.5 92.5t-90.5 239.5h201q0 -68 36.5 -117t87.5 -49q47 0 83 47t42 119zM39 326q0 162 130.5 265t334.5 103q133 0 217 -41v33q0 76 -44.5 113t-141.5 37q-87 0 -165 -28.5t-169 -88.5l-113 242q213 137 485 137 q259 0 398 -117t139 -342v-209q0 -55 16 -77t58 -25v-328q-90 -20 -164 -20q-199 0 -229 149l-9 39q-147 -188 -366 -188q-162 0 -269.5 98.5t-107.5 247.5zM670 299q51 33 51 76v80q-79 28 -150 28q-70 0 -117.5 -35t-47.5 -88q0 -44 35.5 -73t90.5 -29q77 0 138 41z" />
<glyph unicode="&#x104;" horiz-adv-x="1366" d="M1223 -160q0 -35 36 -55.5t107 -20.5l-72 -204q-153 18 -232 73.5t-79 130.5q0 126 150 236h-168l-88 285h-388l-86 -285h-407l465 1454h446l463 -1454q-70 -41 -108.5 -83t-38.5 -77zM549 551h264l-129 512z" />
<glyph unicode="&#x105;" horiz-adv-x="1226" d="M1184 0q-148 -87 -148 -160q0 -35 36.5 -55.5t107.5 -20.5l-72 -204q-153 18 -232 73.5t-79 130.5q0 57 34 115.5t99 108.5q-114 26 -139 141l-9 39q-147 -188 -366 -188q-162 0 -269.5 98.5t-107.5 247.5q0 162 130.5 265t334.5 103q133 0 217 -41v33q0 76 -44.5 113 t-141.5 37q-87 0 -165 -28.5t-169 -88.5l-113 242q213 137 485 137q259 0 398 -117t139 -342v-209q0 -55 16 -77t58 -25v-328zM721 375v80q-79 28 -150 28q-70 0 -117.5 -35t-47.5 -88q0 -44 35.5 -73t90.5 -29q77 0 138 41q51 33 51 76z" />
<glyph unicode="&#x106;" horiz-adv-x="1415" d="M911 1516l-245 65l102 291h346zM788 1462q205 0 362 -86t234 -231l-305 -217q-20 51 -54 87.5t-76 56t-83.5 28t-85.5 8.5q-82 0 -147 -33.5t-103.5 -89t-58.5 -121.5t-20 -137q0 -159 91 -272t242 -113q59 0 113 16.5t103.5 58t72.5 103.5l326 -194 q-41 -103 -143.5 -182t-227.5 -117.5t-252 -38.5q-156 0 -294.5 65t-233 170.5t-149 241t-54.5 274.5q0 134 51.5 262.5t144 231.5t235.5 166t312 63z" />
<glyph unicode="&#x107;" horiz-adv-x="1181" d="M754 1139l-246 65l102 291h346zM631 -20q-139 0 -252.5 45.5t-187 123.5t-113 178t-39.5 212t39.5 212t113 178t187 123.5t252.5 45.5q188 0 322.5 -79t203.5 -214l-379 -115q-55 80 -149 80q-82 0 -136.5 -62.5t-54.5 -168.5t54.5 -169t136.5 -63q94 0 149 80l379 -115 q-69 -135 -203.5 -213.5t-322.5 -78.5z" />
<glyph unicode="&#x108;" horiz-adv-x="1415" d="M418 1636l231 236h279l231 -236l-196 -86l-175 129l-174 -129zM788 1462q205 0 362 -86t234 -231l-305 -217q-20 51 -54 87.5t-76 56t-83.5 28t-85.5 8.5q-82 0 -147 -33.5t-103.5 -89t-58.5 -121.5t-20 -137q0 -159 91 -272t242 -113q59 0 113 16.5t103.5 58t72.5 103.5 l326 -194q-41 -103 -143.5 -182t-227.5 -117.5t-252 -38.5q-156 0 -294.5 65t-233 170.5t-149 241t-54.5 274.5q0 134 51.5 262.5t144 231.5t235.5 166t312 63z" />
<glyph unicode="&#x109;" horiz-adv-x="1181" d="M260 1260l232 235h278l231 -235l-196 -86l-174 129l-174 -129zM631 -20q-139 0 -252.5 45.5t-187 123.5t-113 178t-39.5 212t39.5 212t113 178t187 123.5t252.5 45.5q188 0 322.5 -79t203.5 -214l-379 -115q-55 80 -149 80q-82 0 -136.5 -62.5t-54.5 -168.5t54.5 -169 t136.5 -63q94 0 149 80l379 -115q-69 -135 -203.5 -213.5t-322.5 -78.5z" />
<glyph unicode="&#x10a;" horiz-adv-x="1415" d="M614 1565v307h349v-307h-349zM788 1462q205 0 362 -86t234 -231l-305 -217q-20 51 -54 87.5t-76 56t-83.5 28t-85.5 8.5q-82 0 -147 -33.5t-103.5 -89t-58.5 -121.5t-20 -137q0 -159 91 -272t242 -113q59 0 113 16.5t103.5 58t72.5 103.5l326 -194q-41 -103 -143.5 -182 t-227.5 -117.5t-252 -38.5q-156 0 -294.5 65t-233 170.5t-149 241t-54.5 274.5q0 134 51.5 262.5t144 231.5t235.5 166t312 63z" />
<glyph unicode="&#x10b;" horiz-adv-x="1181" d="M457 1188v307h348v-307h-348zM631 -20q-139 0 -252.5 45.5t-187 123.5t-113 178t-39.5 212t39.5 212t113 178t187 123.5t252.5 45.5q188 0 322.5 -79t203.5 -214l-379 -115q-55 80 -149 80q-82 0 -136.5 -62.5t-54.5 -168.5t54.5 -169t136.5 -63q94 0 149 80l379 -115 q-69 -135 -203.5 -213.5t-322.5 -78.5z" />
<glyph unicode="&#x10c;" horiz-adv-x="1415" d="M614 1872l174 -129l175 129l196 -86l-231 -236h-279l-231 236zM788 1462q205 0 362 -86t234 -231l-305 -217q-20 51 -54 87.5t-76 56t-83.5 28t-85.5 8.5q-82 0 -147 -33.5t-103.5 -89t-58.5 -121.5t-20 -137q0 -159 91 -272t242 -113q59 0 113 16.5t103.5 58t72.5 103.5 l326 -194q-41 -103 -143.5 -182t-227.5 -117.5t-252 -38.5q-156 0 -294.5 65t-233 170.5t-149 241t-54.5 274.5q0 134 51.5 262.5t144 231.5t235.5 166t312 63z" />
<glyph unicode="&#x10d;" horiz-adv-x="1181" d="M457 1495l174 -129l174 129l196 -86l-231 -235h-278l-232 235zM631 -20q-139 0 -252.5 45.5t-187 123.5t-113 178t-39.5 212t39.5 212t113 178t187 123.5t252.5 45.5q188 0 322.5 -79t203.5 -214l-379 -115q-55 80 -149 80q-82 0 -136.5 -62.5t-54.5 -168.5t54.5 -169 t136.5 -63q94 0 149 80l379 -115q-69 -135 -203.5 -213.5t-322.5 -78.5z" />
<glyph unicode="&#x10e;" horiz-adv-x="1466" d="M475 1872l174 -129l174 129l197 -86l-232 -236h-278l-231 236zM125 0v1454h559q176 0 317.5 -56.5t231 -156t137 -230t47.5 -282.5q0 -330 -200.5 -529.5t-532.5 -199.5h-559zM684 1106h-160v-758h160q153 0 240.5 106t87.5 275q0 171 -88 274t-240 103z" />
<glyph unicode="&#x10f;" horiz-adv-x="1361" d="M41 541q0 157 59.5 284t167.5 200t244 73q105 0 193 -48t133 -132v577h389v-1065q0 -55 16 -77t57 -25v-328q-100 -20 -163 -20q-200 0 -230 149l-8 39q-53 -94 -146 -141t-204 -47q-223 0 -365.5 157t-142.5 404zM1511 1139l-245 65l102 291h346zM840 418v192 q-28 71 -84 115.5t-117 44.5q-84 0 -140.5 -69.5t-56.5 -168.5q0 -101 59 -163t154 -62q109 0 185 111z" />
<glyph unicode="&#x110;" horiz-adv-x="1474" d="M692 1454q176 0 317.5 -56.5t231 -156t137 -230t47.5 -282.5q0 -330 -200.5 -529.5t-532.5 -199.5h-559v588h-76v286h76v580h559zM692 348q153 0 240.5 106t87.5 275q0 171 -88 274t-240 103h-160v-232h234v-286h-234v-240h160z" />
<glyph unicode="&#x111;" horiz-adv-x="1361" d="M1346 1186h-119v-756q0 -55 16 -77t57 -25v-328q-100 -20 -163 -20q-200 0 -230 149l-8 39q-53 -94 -146 -141t-204 -47q-223 0 -365.5 157t-142.5 404q0 157 59.5 284t167.5 200t244 73q105 0 193 -48t133 -132v268h-179v223h179v86h389v-86h119v-223zM840 418v192 q-28 71 -84 115.5t-117 44.5q-84 0 -140.5 -69.5t-56.5 -168.5q0 -101 59 -163t154 -62q109 0 185 111z" />
<glyph unicode="&#x112;" horiz-adv-x="1222" d="M332 1620v231h635v-231h-635zM1161 348v-348h-1036v1454h1018v-348h-619v-205h529v-323h-529v-230h637z" />
<glyph unicode="&#x113;" horiz-adv-x="1247" d="M313 1243v232h635v-232h-635zM629 -20q-111 0 -206.5 29t-165 79.5t-119.5 119t-74.5 149t-24.5 167.5q0 118 38.5 221t111.5 182t186.5 125t253.5 46t254 -45.5t186 -123t111 -177.5t39 -213q0 -59 -11 -119h-755q6 -81 60 -121.5t128 -40.5q65 0 121 30t74 79l329 -95 q-69 -134 -207.5 -213t-328.5 -79zM444 653h357q-9 78 -56.5 123t-121.5 45t-122 -45t-57 -123z" />
<glyph unicode="&#x114;" horiz-adv-x="1222" d="M772 1872h201q0 -147 -91 -239.5t-235 -92.5t-234.5 92.5t-90.5 239.5h200q0 -68 37 -117t88 -49q47 0 83 47t42 119zM1161 348v-348h-1036v1454h1018v-348h-619v-205h529v-323h-529v-230h637z" />
<glyph unicode="&#x115;" horiz-adv-x="1247" d="M754 1495h200q0 -147 -90.5 -239.5t-234.5 -92.5t-235 92.5t-91 239.5h201q0 -68 37 -117t88 -49q47 0 83 47t42 119zM629 -20q-111 0 -206.5 29t-165 79.5t-119.5 119t-74.5 149t-24.5 167.5q0 118 38.5 221t111.5 182t186.5 125t253.5 46t254 -45.5t186 -123 t111 -177.5t39 -213q0 -59 -11 -119h-755q6 -81 60 -121.5t128 -40.5q65 0 121 30t74 79l329 -95q-69 -134 -207.5 -213t-328.5 -79zM444 653h357q-9 78 -56.5 123t-121.5 45t-122 -45t-57 -123z" />
<glyph unicode="&#x116;" horiz-adv-x="1222" d="M473 1565v307h348v-307h-348zM1161 348v-348h-1036v1454h1018v-348h-619v-205h529v-323h-529v-230h637z" />
<glyph unicode="&#x117;" horiz-adv-x="1247" d="M455 1188v307h348v-307h-348zM629 -20q-111 0 -206.5 29t-165 79.5t-119.5 119t-74.5 149t-24.5 167.5q0 118 38.5 221t111.5 182t186.5 125t253.5 46t254 -45.5t186 -123t111 -177.5t39 -213q0 -59 -11 -119h-755q6 -81 60 -121.5t128 -40.5q65 0 121 30t74 79l329 -95 q-69 -134 -207.5 -213t-328.5 -79zM444 653h357q-9 78 -56.5 123t-121.5 45t-122 -45t-57 -123z" />
<glyph unicode="&#x118;" horiz-adv-x="1222" d="M1161 0q-70 -41 -108.5 -83t-38.5 -77t36 -55.5t107 -20.5l-72 -204q-153 18 -232 73.5t-79 130.5q0 126 150 236h-799v1454h1018v-348h-619v-205h529v-323h-529v-230h637v-348z" />
<glyph unicode="&#x119;" horiz-adv-x="1247" d="M1219 539q0 -59 -11 -119h-755q6 -81 60 -121.5t128 -40.5q65 0 121 30t74 79l329 -95q-52 -102 -146 -173.5t-222 -100.5q-144 -86 -144 -158q0 -35 36.5 -55.5t107.5 -20.5l-72 -204q-153 18 -232 73.5t-79 130.5q0 118 129 220q-236 27 -370 179.5t-134 360.5 q0 118 38.5 221t111.5 182t186.5 125t253.5 46t254 -45.5t186 -123t111 -177.5t39 -213zM444 653h357q-9 78 -56.5 123t-121.5 45t-122 -45t-57 -123z" />
<glyph unicode="&#x11a;" horiz-adv-x="1222" d="M473 1872l174 -129l174 129l197 -86l-232 -236h-278l-232 236zM1161 348v-348h-1036v1454h1018v-348h-619v-205h529v-323h-529v-230h637z" />
<glyph unicode="&#x11b;" horiz-adv-x="1247" d="M455 1495l174 -129l174 129l196 -86l-231 -235h-279l-231 235zM629 -20q-111 0 -206.5 29t-165 79.5t-119.5 119t-74.5 149t-24.5 167.5q0 118 38.5 221t111.5 182t186.5 125t253.5 46t254 -45.5t186 -123t111 -177.5t39 -213q0 -59 -11 -119h-755q6 -81 60 -121.5 t128 -40.5q65 0 121 30t74 79l329 -95q-69 -134 -207.5 -213t-328.5 -79zM444 653h357q-9 78 -56.5 123t-121.5 45t-122 -45t-57 -123z" />
<glyph unicode="&#x11c;" horiz-adv-x="1513" d="M793 1679l-175 -129l-196 86l231 236h279l231 -236l-196 -86zM844 774h598v-774h-330v121q-154 -131 -358 -131q-143 0 -270.5 51.5t-225 145t-154.5 236.5t-57 316q0 151 58 285t157 230.5t237.5 153t293.5 56.5q197 0 356 -85t237 -232l-296 -227q-42 86 -129 138 t-183 52q-142 0 -233.5 -108t-91.5 -277q0 -171 92.5 -276t242.5 -105q171 0 308 143h-252v287z" />
<glyph unicode="&#x11d;" horiz-adv-x="1325" d="M297 1260l231 235h279l231 -235l-196 -86l-174 129l-174 -129zM43 541q0 242 141 399.5t361 157.5q116 0 204.5 -46t139.5 -134v159h338v-979q0 -251 -180.5 -403t-475.5 -152q-320 0 -524 207l205 213q62 -59 145.5 -95t173.5 -36q116 0 191.5 65t75.5 201v70 q-44 -82 -131.5 -125t-194.5 -43q-138 0 -245.5 71.5t-165.5 194.5t-58 275zM838 418v192q-29 73 -85 116.5t-118 43.5q-82 0 -138.5 -70.5t-56.5 -169.5t59 -161t152 -62q111 0 187 111z" />
<glyph unicode="&#x11e;" horiz-adv-x="1513" d="M793 1540q-144 0 -235 92.5t-91 239.5h201q0 -68 37 -117t88 -49q47 0 83 47t42 119h200q0 -147 -90.5 -239.5t-234.5 -92.5zM844 774h598v-774h-330v121q-154 -131 -358 -131q-143 0 -270.5 51.5t-225 145t-154.5 236.5t-57 316q0 151 58 285t157 230.5t237.5 153 t293.5 56.5q197 0 356 -85t237 -232l-296 -227q-42 86 -129 138t-183 52q-142 0 -233.5 -108t-91.5 -277q0 -171 92.5 -276t242.5 -105q171 0 308 143h-252v287z" />
<glyph unicode="&#x11f;" horiz-adv-x="1325" d="M793 1495h200q0 -147 -90.5 -239.5t-234.5 -92.5t-235 92.5t-91 239.5h201q0 -68 37 -117t88 -49q47 0 83 47t42 119zM43 541q0 242 141 399.5t361 157.5q116 0 204.5 -46t139.5 -134v159h338v-979q0 -251 -180.5 -403t-475.5 -152q-320 0 -524 207l205 213 q62 -59 145.5 -95t173.5 -36q116 0 191.5 65t75.5 201v70q-44 -82 -131.5 -125t-194.5 -43q-138 0 -245.5 71.5t-165.5 194.5t-58 275zM838 418v192q-29 73 -85 116.5t-118 43.5q-82 0 -138.5 -70.5t-56.5 -169.5t59 -161t152 -62q111 0 187 111z" />
<glyph unicode="&#x120;" horiz-adv-x="1513" d="M967 1872v-307h-349v307h349zM844 774h598v-774h-330v121q-154 -131 -358 -131q-143 0 -270.5 51.5t-225 145t-154.5 236.5t-57 316q0 151 58 285t157 230.5t237.5 153t293.5 56.5q197 0 356 -85t237 -232l-296 -227q-42 86 -129 138t-183 52q-142 0 -233.5 -108 t-91.5 -277q0 -171 92.5 -276t242.5 -105q171 0 308 143h-252v287z" />
<glyph unicode="&#x121;" horiz-adv-x="1325" d="M494 1188v307h348v-307h-348zM43 541q0 242 141 399.5t361 157.5q116 0 204.5 -46t139.5 -134v159h338v-979q0 -251 -180.5 -403t-475.5 -152q-320 0 -524 207l205 213q62 -59 145.5 -95t173.5 -36q116 0 191.5 65t75.5 201v70q-44 -82 -131.5 -125t-194.5 -43 q-138 0 -245.5 71.5t-165.5 194.5t-58 275zM838 418v192q-29 73 -85 116.5t-118 43.5q-82 0 -138.5 -70.5t-56.5 -169.5t59 -161t152 -62q111 0 187 111z" />
<glyph unicode="&#x122;" horiz-adv-x="1513" d="M844 774h598v-774h-330v121q-154 -131 -358 -131q-143 0 -270.5 51.5t-225 145t-154.5 236.5t-57 316q0 151 58 285t157 230.5t237.5 153t293.5 56.5q197 0 356 -85t237 -232l-296 -227q-42 86 -129 138t-183 52q-142 0 -233.5 -108t-91.5 -277q0 -171 92.5 -276 t242.5 -105q171 0 308 143h-252v287zM586 -311v217h321v-217l-110 -125h-168l73 125h-116z" />
<glyph unicode="&#x123;" horiz-adv-x="1325" d="M784 1495l-73 -121h116v-196h-321v196l110 121h168zM43 541q0 242 141 399.5t361 157.5q116 0 204.5 -46t139.5 -134v159h338v-979q0 -251 -180.5 -403t-475.5 -152q-320 0 -524 207l205 213q62 -59 145.5 -95t173.5 -36q116 0 191.5 65t75.5 201v70q-44 -82 -131.5 -125 t-194.5 -43q-138 0 -245.5 71.5t-165.5 194.5t-58 275zM838 418v192q-29 73 -85 116.5t-118 43.5q-82 0 -138.5 -70.5t-56.5 -169.5t59 -161t152 -62q111 0 187 111z" />
<glyph unicode="&#x124;" horiz-adv-x="1536" d="M403 1634l232 236h278l232 -236l-197 -86l-174 129l-174 -129zM1411 1454v-1454h-399v569h-488v-569h-399v1454h399v-536h488v536h399z" />
<glyph unicode="&#x125;" horiz-adv-x="1271" d="M299 1636l231 236h279l231 -236l-196 -86l-174 129l-174 -129zM1182 0h-389v606q0 76 -34 114t-91 38q-42 0 -98.5 -44t-82.5 -110v-604h-389v1495h389v-577q57 87 149.5 133.5t207.5 46.5q87 0 151 -26t99 -64.5t56 -94.5t26.5 -102t5.5 -102v-709z" />
<glyph unicode="&#x126;" horiz-adv-x="1548" d="M1520 1282v-180h-103v-1102h-399v569h-488v-569h-399v1102h-102v180h102v172h399v-172h488v172h399v-172h103zM1018 918v184h-488v-184h488z" />
<glyph unicode="&#x127;" horiz-adv-x="1271" d="M844 1098q87 0 151 -26t99 -64.5t56 -94.5t26.5 -102t5.5 -102v-709h-389v606q0 76 -34 114t-91 38q-42 0 -98.5 -44t-82.5 -110v-604h-389v1186h-61v223h61v86h389v-86h236v-223h-236v-268q57 87 149.5 133.5t207.5 46.5z" />
<glyph unicode="&#x128;" horiz-adv-x="649" d="M190 1647q-26 0 -45 -10t-28 -23t-14 -29.5t-6 -24t-1 -12.5h-207q0 24 9.5 61.5t32 83.5t54 85.5t81.5 66.5t108 27q45 0 86 -16.5t67 -36t59.5 -36t64.5 -16.5q25 0 45 10.5t30 24.5t16.5 30.5t8.5 26t2 13.5h205q0 -17 -10 -52t-33 -82.5t-55 -89t-84 -71t-111 -29.5 q-53 0 -102.5 25t-92.5 49.5t-80 24.5zM125 0v1454h399v-1454h-399z" />
<glyph unicode="&#x129;" horiz-adv-x="585" d="M160 1270q-26 0 -45 -10t-28 -23t-14 -29.5t-6 -24t-1 -12.5h-207q0 24 9.5 61.5t32 83.5t53.5 85.5t81 66.5t108 27q45 0 86 -16.5t67 -35.5t59.5 -35.5t64.5 -16.5q25 0 45 10.5t30 24.5t16.5 30t8.5 25.5t2 13.5h205q0 -17 -10 -52t-33 -82.5t-55 -89t-84 -71 t-111 -29.5q-42 0 -82.5 15.5t-67 34t-60.5 34t-64 15.5zM98 0v1077h389v-1077h-389z" />
<glyph unicode="&#x12a;" horiz-adv-x="649" d="M8 1620v231h635v-231h-635zM125 0v1454h399v-1454h-399z" />
<glyph unicode="&#x12b;" horiz-adv-x="585" d="M-23 1243v232h635v-232h-635zM98 0v1077h389v-1077h-389z" />
<glyph unicode="&#x12c;" horiz-adv-x="649" d="M449 1872h200q0 -147 -90.5 -239.5t-234.5 -92.5t-235 92.5t-91 239.5h201q0 -68 37 -117t88 -49q47 0 83 47t42 119zM125 0v1454h399v-1454h-399z" />
<glyph unicode="&#x12d;" horiz-adv-x="585" d="M418 1495h200q0 -147 -90.5 -239.5t-234.5 -92.5t-235 92.5t-91 239.5h201q0 -68 37 -117t88 -49q47 0 83 47t42 119zM98 0v1077h389v-1077h-389z" />
<glyph unicode="&#x12e;" horiz-adv-x="649" d="M524 0q-70 -41 -108.5 -83t-38.5 -77t36 -55.5t107 -20.5l-71 -204q-153 18 -232.5 73.5t-79.5 130.5q0 126 150 236h-162v1454h399v-1454z" />
<glyph unicode="&#x12f;" horiz-adv-x="585" d="M98 1495h389v-328h-389v328zM98 0v1077h389v-1077q-70 -41 -108.5 -83t-38.5 -77t36 -55.5t107 -20.5l-71 -204q-153 18 -232.5 73.5t-79.5 130.5q0 126 150 236h-152z" />
<glyph unicode="&#x130;" horiz-adv-x="649" d="M150 1565v307h348v-307h-348zM125 0v1454h399v-1454h-399z" />
<glyph unicode="&#x131;" horiz-adv-x="585" d="M98 0v1077h389v-1077h-389z" />
<glyph unicode="&#x134;" horiz-adv-x="1019" d="M346 1636l232 236h278l231 -236l-196 -86l-174 129l-174 -129zM86 393q22 -16 88.5 -38.5t142.5 -22.5q51 0 85.5 14t56.5 40.5t33.5 75.5t15.5 106.5t4 146.5v739h399v-739q0 -103 -5 -180.5t-20.5 -158.5t-42 -138t-71 -109t-106.5 -83.5t-150 -50t-199 -18.5 q-182 0 -315 91z" />
<glyph unicode="&#x135;" horiz-adv-x="585" d="M-78 1260l232 235h278l232 -235l-197 -86l-174 129l-174 -129zM-240 -317l160 264q38 -41 96 -41q38 0 60 23.5t22 64.5v1083h389v-1052q0 -201 -117.5 -327t-303.5 -126q-176 0 -306 111z" />
<glyph unicode="&#x136;" horiz-adv-x="1413" d="M125 0v1454h399v-553l443 553h450l-528 -651l565 -803h-459l-360 535l-111 -115v-420h-399zM633 -436l74 125h-117v217h321v-217l-110 -125h-168z" />
<glyph unicode="&#x137;" horiz-adv-x="1191" d="M809 0l-244 393l-78 -86v-307h-389v1495h389v-817l287 399h410l-371 -471l408 -606h-412zM489 -436l74 125h-117v217h322v-217l-111 -125h-168z" />
<glyph unicode="&#x138;" horiz-adv-x="1191" d="M809 0l-244 393l-78 -86v-307h-389v1077h389v-399l287 399h410l-371 -471l408 -606h-412z" />
<glyph unicode="&#x139;" horiz-adv-x="1198" d="M453 1516l-246 65l102 291h346zM125 0v1454h399v-1106h660v-348h-1059z" />
<glyph unicode="&#x13a;" horiz-adv-x="727" d="M408 1516l-246 65l102 291h346zM90 1495h389v-1067q0 -123 101 -123q49 0 106 31l49 -287q-68 -32 -155.5 -50.5t-165.5 -18.5q-156 0 -240 80.5t-84 230.5v1204z" />
<glyph unicode="&#x13b;" horiz-adv-x="1198" d="M125 0v1454h399v-1106h660v-348h-1059zM565 -436l74 125h-117v217h322v-217l-111 -125h-168z" />
<glyph unicode="&#x13c;" horiz-adv-x="727" d="M90 1495h389v-1067q0 -123 101 -123q49 0 106 31l49 -287q-68 -32 -155.5 -50.5t-165.5 -18.5q-156 0 -240 80.5t-84 230.5v1204zM289 -436l73 125h-116v217h321v-217l-110 -125h-168z" />
<glyph unicode="&#x13d;" horiz-adv-x="1198" d="M952 1139l-245 65l102 291h346zM125 0v1454h399v-1106h660v-348h-1059z" />
<glyph unicode="&#x13e;" horiz-adv-x="727" d="M90 1495h389v-1067q0 -123 101 -123q49 0 106 31l49 -287q-68 -32 -155.5 -50.5t-165.5 -18.5q-156 0 -240 80.5t-84 230.5v1204zM797 1139l-246 65l102 291h346z" />
<glyph unicode="&#x13f;" horiz-adv-x="1198" d="M125 0v1454h399v-1106h660v-348h-1059zM745 649v377h316v-377h-316z" />
<glyph unicode="&#x140;" horiz-adv-x="956" d="M90 1495h389v-1067q0 -123 101 -123q49 0 106 31l49 -287q-68 -32 -155.5 -50.5t-165.5 -18.5q-156 0 -240 80.5t-84 230.5v1204zM604 489v377h316v-377h-316z" />
<glyph unicode="&#x141;" horiz-adv-x="1222" d="M549 348h659v-348h-1058v563l-97 -47l-88 207l185 90v641h399v-446l145 71l88 -207l-233 -114v-410z" />
<glyph unicode="&#x142;" horiz-adv-x="792" d="M637 305q49 0 106 31l50 -287q-68 -32 -156 -50.5t-166 -18.5q-156 0 -240 80.5t-84 230.5v266l-81 -41l-89 207l170 84v688h390v-500l170 84l88 -207l-258 -127v-317q0 -123 100 -123z" />
<glyph unicode="&#x143;" horiz-adv-x="1544" d="M889 1513l-246 66l102 291h347zM524 715v-715h-399v1454h311l584 -739v739h399v-1454h-317z" />
<glyph unicode="&#x144;" horiz-adv-x="1271" d="M805 1139l-246 65l103 291h346zM1182 0h-389v606q0 75 -34 113.5t-85 38.5t-106 -44t-81 -110v-604h-389v1077h351v-159q57 88 161 134t244 46q70 0 125.5 -18t90 -50.5t58 -70t35 -85t15.5 -85.5t4 -80v-709z" />
<glyph unicode="&#x145;" horiz-adv-x="1544" d="M524 715v-715h-399v1454h311l584 -739v739h399v-1454h-317zM641 -436l74 125h-117v217h322v-217l-111 -125h-168z" />
<glyph unicode="&#x146;" horiz-adv-x="1271" d="M1182 0h-389v606q0 75 -34 113.5t-85 38.5t-106 -44t-81 -110v-604h-389v1077h351v-159q57 88 161 134t244 46q70 0 125.5 -18t90 -50.5t58 -70t35 -85t15.5 -85.5t4 -80v-709zM512 -436l74 125h-117v217h322v-217l-111 -125h-168z" />
<glyph unicode="&#x147;" horiz-adv-x="1544" d="M592 1870l174 -129l174 129l197 -86l-232 -236h-278l-232 236zM524 715v-715h-399v1454h311l584 -739v739h399v-1454h-317z" />
<glyph unicode="&#x148;" horiz-adv-x="1271" d="M508 1495l174 -129l174 129l197 -86l-232 -235h-278l-232 235zM1182 0h-389v606q0 75 -34 113.5t-85 38.5t-106 -44t-81 -110v-604h-389v1077h351v-159q57 88 161 134t244 46q70 0 125.5 -18t90 -50.5t58 -70t35 -85t15.5 -85.5t4 -80v-709z" />
<glyph unicode="&#x14a;" horiz-adv-x="1505" d="M524 702v-702h-399v1454h307l547 -719v717h399v-1442q0 -197 -119.5 -317.5t-302.5 -120.5q-176 0 -305 111l160 264q38 -41 96 -41q38 0 60 23.5t22 64.5v96z" />
<glyph unicode="&#x14b;" horiz-adv-x="1269" d="M453 -317l159 264q38 -41 97 -41q39 0 61.5 23.5t22.5 64.5v612q0 75 -34 113.5t-85 38.5t-106 -44t-81 -110v-604h-389v1077h351v-159q57 88 161 134t244 46q326 0 326 -389v-684q0 -200 -119 -326.5t-303 -126.5q-176 0 -305 111z" />
<glyph unicode="&#x14c;" horiz-adv-x="1566" d="M473 1620v231h635v-231h-635zM45 729q0 143 56 276.5t153 234.5t236.5 161.5t297.5 60.5q160 0 300 -63.5t233.5 -168t147 -237.5t53.5 -272q0 -142 -55.5 -275t-152 -234.5t-236.5 -162.5t-298 -61q-160 0 -299.5 63t-233.5 167t-148 237.5t-54 273.5zM784 342 q83 0 148.5 33.5t104.5 89.5t59 123t20 141q0 102 -35.5 186t-113 138.5t-185.5 54.5q-83 0 -148 -33t-104 -88t-59 -122t-20 -140q0 -75 20.5 -142.5t60.5 -122t105 -86.5t147 -32z" />
<glyph unicode="&#x14d;" d="M313 1243v232h635v-232h-635zM39 539q0 113 39 213t111 177.5t186 123t254 45.5t254 -45.5t186 -123t111 -177.5t39 -213q0 -112 -39 -212t-111 -178t-186 -123.5t-254 -45.5t-254 45.5t-186 123.5t-111 178t-39 212zM629 307q84 0 137 63t53 169t-53 168.5t-137 62.5 q-85 0 -138 -62.5t-53 -168.5t53.5 -169t137.5 -63z" />
<glyph unicode="&#x14e;" horiz-adv-x="1566" d="M913 1872h201q0 -147 -91 -239.5t-235 -92.5t-234.5 92.5t-90.5 239.5h201q0 -68 36.5 -117t87.5 -49q47 0 83 47t42 119zM45 729q0 143 56 276.5t153 234.5t236.5 161.5t297.5 60.5q160 0 300 -63.5t233.5 -168t147 -237.5t53.5 -272q0 -142 -55.5 -275t-152 -234.5 t-236.5 -162.5t-298 -61q-160 0 -299.5 63t-233.5 167t-148 237.5t-54 273.5zM784 342q83 0 148.5 33.5t104.5 89.5t59 123t20 141q0 102 -35.5 186t-113 138.5t-185.5 54.5q-83 0 -148 -33t-104 -88t-59 -122t-20 -140q0 -75 20.5 -142.5t60.5 -122t105 -86.5t147 -32z" />
<glyph unicode="&#x14f;" d="M754 1495h200q0 -147 -90.5 -239.5t-234.5 -92.5t-235 92.5t-91 239.5h201q0 -68 37 -117t88 -49q47 0 83 47t42 119zM39 539q0 113 39 213t111 177.5t186 123t254 45.5t254 -45.5t186 -123t111 -177.5t39 -213q0 -112 -39 -212t-111 -178t-186 -123.5t-254 -45.5 t-254 45.5t-186 123.5t-111 178t-39 212zM629 307q84 0 137 63t53 169t-53 168.5t-137 62.5q-85 0 -138 -62.5t-53 -168.5t53.5 -169t137.5 -63z" />
<glyph unicode="&#x150;" horiz-adv-x="1566" d="M659 1518l-184 65l82 291h285zM1049 1518l-185 65l82 291h285zM45 729q0 143 56 276.5t153 234.5t236.5 161.5t297.5 60.5q160 0 300 -63.5t233.5 -168t147 -237.5t53.5 -272q0 -142 -55.5 -275t-152 -234.5t-236.5 -162.5t-298 -61q-160 0 -299.5 63t-233.5 167 t-148 237.5t-54 273.5zM784 342q83 0 148.5 33.5t104.5 89.5t59 123t20 141q0 102 -35.5 186t-113 138.5t-185.5 54.5q-83 0 -148 -33t-104 -88t-59 -122t-20 -140q0 -75 20.5 -142.5t60.5 -122t105 -86.5t147 -32z" />
<glyph unicode="&#x151;" d="M500 1141l-185 65l82 291h285zM889 1141l-184 65l81 291h285zM39 539q0 113 39 213t111 177.5t186 123t254 45.5t254 -45.5t186 -123t111 -177.5t39 -213q0 -112 -39 -212t-111 -178t-186 -123.5t-254 -45.5t-254 45.5t-186 123.5t-111 178t-39 212zM629 307q84 0 137 63 t53 169t-53 168.5t-137 62.5q-85 0 -138 -62.5t-53 -168.5t53.5 -169t137.5 -63z" />
<glyph unicode="&#x152;" horiz-adv-x="2109" d="M2048 348v-348h-995v84q-152 -94 -314 -94q-151 0 -283 63t-221 166t-139.5 236.5t-50.5 273.5q0 192 89.5 360t252.5 271.5t361 103.5q160 0 305 -92v82h977v-348h-578v-193h467v-348h-467v-217h596zM1034 729q0 102 -31 186.5t-99.5 139.5t-162.5 55q-73 0 -130 -33 t-91 -88.5t-51.5 -122.5t-17.5 -141q0 -101 30.5 -185.5t98.5 -140t163 -55.5q73 0 130.5 33t91.5 88.5t51.5 122.5t17.5 141z" />
<glyph unicode="&#x153;" horiz-adv-x="2029" d="M39 539q0 246 163.5 402.5t418.5 156.5q123 0 218 -42.5t179 -133.5q95 94 189 135t212 41q168 0 301 -71.5t207 -199t74 -288.5q0 -64 -10 -119h-756q4 -73 59.5 -121.5t135.5 -48.5q66 0 122 33t76 84l320 -95q-70 -136 -212 -214t-319 -78q-109 0 -197 36t-202 127 q-114 -92 -199.5 -127.5t-193.5 -35.5q-258 0 -422 156.5t-164 402.5zM1591 653q-9 77 -59 122.5t-125 45.5q-76 0 -126 -45.5t-58 -122.5h368zM819 539q0 104 -52 167.5t-138 63.5t-138.5 -63.5t-52.5 -167.5t52.5 -168t138.5 -64t138 63.5t52 168.5z" />
<glyph unicode="&#x154;" horiz-adv-x="1382" d="M776 1513l-246 66l103 291h346zM125 0v1454h668q103 0 196 -44t156 -115t100 -161.5t37 -183.5q0 -126 -55.5 -236t-153.5 -179l307 -535h-438l-256 446h-162v-446h-399zM524 795h252q39 0 70 42.5t31 112.5t-35 113t-76 43h-242v-311z" />
<glyph unicode="&#x155;" horiz-adv-x="851" d="M575 1139l-245 65l102 291h346zM829 745q-260 0 -342 -106v-639h-389v1077h357v-205q57 107 142.5 166.5t182.5 59.5q39 0 49 -2v-351z" />
<glyph unicode="&#x156;" horiz-adv-x="1382" d="M125 0v1454h668q103 0 196 -44t156 -115t100 -161.5t37 -183.5q0 -126 -55.5 -236t-153.5 -179l307 -535h-438l-256 446h-162v-446h-399zM524 795h252q39 0 70 42.5t31 112.5t-35 113t-76 43h-242v-311zM600 -436l74 125h-117v217h322v-217l-111 -125h-168z" />
<glyph unicode="&#x157;" horiz-adv-x="851" d="M829 745q-260 0 -342 -106v-639h-389v1077h357v-205q57 107 142.5 166.5t182.5 59.5q39 0 49 -2v-351zM154 -436l73 125h-116v217h321v-217l-110 -125h-168z" />
<glyph unicode="&#x158;" horiz-adv-x="1382" d="M479 1870l174 -129l174 129l197 -86l-231 -236h-279l-231 236zM125 0v1454h668q103 0 196 -44t156 -115t100 -161.5t37 -183.5q0 -126 -55.5 -236t-153.5 -179l307 -535h-438l-256 446h-162v-446h-399zM524 795h252q39 0 70 42.5t31 112.5t-35 113t-76 43h-242v-311z" />
<glyph unicode="&#x159;" horiz-adv-x="851" d="M279 1495l174 -129l174 129l196 -86l-231 -235h-279l-231 235zM829 745q-260 0 -342 -106v-639h-389v1077h357v-205q57 107 142.5 166.5t182.5 59.5q39 0 49 -2v-351z" />
<glyph unicode="&#x15a;" horiz-adv-x="1263" d="M766 1516l-246 65l103 291h346zM1006 979q-9 5 -24 14t-61 32t-90 40.5t-102.5 32t-107.5 14.5q-117 0 -117 -72q0 -16 5.5 -29t19.5 -24t27.5 -19t41.5 -18t48 -16t61 -18.5t67 -20.5q88 -27 149.5 -53t119.5 -63.5t93 -82.5t55.5 -108.5t20.5 -143.5q0 -101 -32 -182 t-84.5 -132.5t-125.5 -85.5t-149.5 -48t-161.5 -14q-157 0 -329 46.5t-303 123.5l172 350q10 -7 27.5 -17.5t72 -38t107.5 -48.5t125.5 -38.5t134.5 -17.5q116 0 116 64q0 24 -15 42.5t-50 34t-67.5 26t-92 28t-98.5 30.5q-196 66 -282.5 158.5t-86.5 249.5q0 117 44.5 212 t120 155t172.5 92t206 32q233 0 545 -157z" />
<glyph unicode="&#x15b;" horiz-adv-x="1026" d="M653 1139l-245 65l102 291h346zM530 -20q-144 0 -279.5 47t-227.5 133l133 239q210 -139 362 -139q84 0 84 49q0 25 -30 40.5t-111 41.5q-57 20 -90.5 32.5t-76.5 30t-67 31.5t-52 33.5t-42.5 39t-28.5 44.5t-19 54.5t-5 64.5q0 169 124 274t339 105q247 0 430 -156 l-148 -237q-189 116 -299 116q-86 0 -86 -57q0 -29 29.5 -45.5t108.5 -38.5q90 -28 148 -49.5t110.5 -50.5t80.5 -61.5t44 -76.5t16 -102q0 -169 -120 -265.5t-327 -96.5z" />
<glyph unicode="&#x15c;" horiz-adv-x="1263" d="M272 1636l232 236h278l232 -236l-197 -86l-174 129l-174 -129zM1006 979q-9 5 -24 14t-61 32t-90 40.5t-102.5 32t-107.5 14.5q-117 0 -117 -72q0 -16 5.5 -29t19.5 -24t27.5 -19t41.5 -18t48 -16t61 -18.5t67 -20.5q88 -27 149.5 -53t119.5 -63.5t93 -82.5t55.5 -108.5 t20.5 -143.5q0 -101 -32 -182t-84.5 -132.5t-125.5 -85.5t-149.5 -48t-161.5 -14q-157 0 -329 46.5t-303 123.5l172 350q10 -7 27.5 -17.5t72 -38t107.5 -48.5t125.5 -38.5t134.5 -17.5q116 0 116 64q0 24 -15 42.5t-50 34t-67.5 26t-92 28t-98.5 30.5q-196 66 -282.5 158.5 t-86.5 249.5q0 117 44.5 212t120 155t172.5 92t206 32q233 0 545 -157z" />
<glyph unicode="&#x15d;" horiz-adv-x="1026" d="M160 1260l231 235h279l231 -235l-196 -86l-175 129l-174 -129zM530 -20q-144 0 -279.5 47t-227.5 133l133 239q210 -139 362 -139q84 0 84 49q0 25 -30 40.5t-111 41.5q-57 20 -90.5 32.5t-76.5 30t-67 31.5t-52 33.5t-42.5 39t-28.5 44.5t-19 54.5t-5 64.5 q0 169 124 274t339 105q247 0 430 -156l-148 -237q-189 116 -299 116q-86 0 -86 -57q0 -29 29.5 -45.5t108.5 -38.5q90 -28 148 -49.5t110.5 -50.5t80.5 -61.5t44 -76.5t16 -102q0 -169 -120 -265.5t-327 -96.5z" />
<glyph unicode="&#x15e;" horiz-adv-x="1263" d="M1212 444q0 -107 -34 -190t-95 -136t-134.5 -84t-162.5 -44q95 -98 95 -209q0 -98 -63.5 -165t-184.5 -67q-123 0 -254 70l90 199q45 -39 98 -39q38 0 62 21.5t24 58.5q0 61 -67 125q-146 10 -294.5 55t-264.5 113l172 350q10 -7 27.5 -17.5t72 -38t107.5 -48.5 t125.5 -38.5t134.5 -17.5q116 0 116 64q0 24 -15 42.5t-50 34t-67.5 26t-92 28t-98.5 30.5q-196 66 -282.5 158.5t-86.5 249.5q0 117 44.5 212t120 155t172.5 92t206 32q233 0 545 -157l-172 -330q-9 5 -24 14t-61 32t-90 40.5t-102.5 32t-107.5 14.5q-117 0 -117 -72 q0 -16 5.5 -29t19.5 -24t27.5 -19t41.5 -18t48 -16t61 -18.5t67 -20.5q88 -27 149.5 -53t119.5 -63.5t93 -82.5t55.5 -108.5t20.5 -143.5z" />
<glyph unicode="&#x15f;" horiz-adv-x="1026" d="M977 342q0 -140 -84 -232t-234 -120q95 -98 95 -209q0 -98 -63.5 -165t-184.5 -67q-123 0 -254 70l90 199q45 -39 98 -39q38 0 62 21.5t24 58.5q0 59 -67 123q-126 11 -241 57t-195 121l133 239q210 -139 362 -139q84 0 84 49q0 25 -30 40.5t-111 41.5q-57 20 -90.5 32.5 t-76.5 30t-67 31.5t-52 33.5t-42.5 39t-28.5 44.5t-19 54.5t-5 64.5q0 169 124 274t339 105q247 0 430 -156l-148 -237q-189 116 -299 116q-86 0 -86 -57q0 -29 29.5 -45.5t108.5 -38.5q90 -28 148 -49.5t110.5 -50.5t80.5 -61.5t44 -76.5t16 -102z" />
<glyph unicode="&#x160;" horiz-adv-x="1263" d="M469 1872l174 -129l174 129l197 -86l-232 -236h-278l-232 236zM1006 979q-9 5 -24 14t-61 32t-90 40.5t-102.5 32t-107.5 14.5q-117 0 -117 -72q0 -16 5.5 -29t19.5 -24t27.5 -19t41.5 -18t48 -16t61 -18.5t67 -20.5q88 -27 149.5 -53t119.5 -63.5t93 -82.5t55.5 -108.5 t20.5 -143.5q0 -101 -32 -182t-84.5 -132.5t-125.5 -85.5t-149.5 -48t-161.5 -14q-157 0 -329 46.5t-303 123.5l172 350q10 -7 27.5 -17.5t72 -38t107.5 -48.5t125.5 -38.5t134.5 -17.5q116 0 116 64q0 24 -15 42.5t-50 34t-67.5 26t-92 28t-98.5 30.5q-196 66 -282.5 158.5 t-86.5 249.5q0 117 44.5 212t120 155t172.5 92t206 32q233 0 545 -157z" />
<glyph unicode="&#x161;" horiz-adv-x="1026" d="M356 1495l174 -129l175 129l196 -86l-231 -235h-279l-231 235zM530 -20q-144 0 -279.5 47t-227.5 133l133 239q210 -139 362 -139q84 0 84 49q0 25 -30 40.5t-111 41.5q-57 20 -90.5 32.5t-76.5 30t-67 31.5t-52 33.5t-42.5 39t-28.5 44.5t-19 54.5t-5 64.5 q0 169 124 274t339 105q247 0 430 -156l-148 -237q-189 116 -299 116q-86 0 -86 -57q0 -29 29.5 -45.5t108.5 -38.5q90 -28 148 -49.5t110.5 -50.5t80.5 -61.5t44 -76.5t16 -102q0 -169 -120 -265.5t-327 -96.5z" />
<glyph unicode="&#x162;" horiz-adv-x="1277" d="M840 1106v-1106h-90q104 -101 104 -219q0 -98 -63.5 -165t-184.5 -67q-123 0 -254 70l90 199q45 -39 99 -39q38 0 62 21.5t24 58.5q0 68 -86 141h-101v1106h-420v348h1237v-348h-417z" />
<glyph unicode="&#x163;" horiz-adv-x="866" d="M854 59q-117 -50 -238 -71q93 -96 93 -207q0 -98 -63.5 -165t-184.5 -67q-123 0 -254 70l90 199q45 -39 98 -39q38 0 62 21.5t24 58.5q0 61 -67 125q-242 44 -242 307v493h-133v293h133v338h389v-338h211v-293h-211v-356q0 -96 84 -96q53 0 139 35z" />
<glyph unicode="&#x164;" horiz-adv-x="1277" d="M481 1872l174 -129l174 129l197 -86l-231 -236h-279l-231 236zM1257 1106h-417v-1106h-400v1106h-420v348h1237v-348z" />
<glyph unicode="&#x165;" horiz-adv-x="866" d="M866 1139l-245 65l102 291h346zM854 59q-190 -82 -358 -82q-69 0 -125.5 17t-102 52.5t-71 97.5t-25.5 147v493h-133v293h133v338h389v-338h211v-293h-211v-356q0 -96 84 -96q53 0 139 35z" />
<glyph unicode="&#x166;" horiz-adv-x="1323" d="M1280 1106h-418v-377h316v-180h-316v-549h-399v549h-318v180h318v377h-420v348h1237v-348z" />
<glyph unicode="&#x167;" horiz-adv-x="868" d="M786 367l70 -308q-190 -82 -358 -82q-69 0 -125.5 17t-102 52.5t-71 97.5t-25.5 147v174h-119v223h119v96h-133v293h133v338h389v-338h211v-293h-211v-96h191v-223h-191v-37q0 -96 84 -96q53 0 139 35z" />
<glyph unicode="&#x168;" horiz-adv-x="1521" d="M627 1647q-26 0 -45 -10t-28 -23t-14.5 -29.5t-6.5 -24.5t-1 -12h-206q0 24 9.5 61.5t32 83.5t53.5 85.5t81 66.5t108 27q45 0 86 -16.5t67 -36t59.5 -36t64.5 -16.5q25 0 45 10.5t30 24.5t16.5 30.5t8.5 26t2 13.5h205q0 -17 -10 -52t-33 -82.5t-55 -89t-84 -71 t-111 -29.5q-42 0 -82.5 15.5t-67 34t-60.5 34t-64 15.5zM760 -12q-136 0 -246.5 38t-186 104t-126.5 158t-74 196.5t-23 222.5v747h400v-747q0 -75 14.5 -139t44 -115.5t80 -81t117.5 -29.5q68 0 119 30t80.5 82.5t44 116t14.5 136.5v747h399v-747q0 -155 -40 -284 t-118.5 -227t-206 -153t-292.5 -55z" />
<glyph unicode="&#x169;" horiz-adv-x="1306" d="M498 1270q-26 0 -45 -10t-28 -23t-14.5 -29.5t-6.5 -24.5t-1 -12h-206q0 24 9.5 61.5t32 83.5t53.5 85.5t81 66.5t108 27q45 0 86 -16.5t67 -35.5t59.5 -35.5t64.5 -16.5q25 0 45 10.5t30 24.5t16.5 30t8.5 25.5t2 13.5h205q0 -17 -10 -52t-33 -82.5t-55 -89t-84 -71 t-111 -29.5q-42 0 -82.5 15.5t-67 34t-60.5 34t-64 15.5zM88 369v708h389v-620q0 -70 31.5 -110t87.5 -40q110 0 186 111v659h389v-647q0 -55 16 -77t58 -25v-328q-100 -20 -164 -20q-199 0 -229 149l-8 39q-141 -188 -420 -188q-163 0 -249.5 100t-86.5 289z" />
<glyph unicode="&#x16a;" horiz-adv-x="1521" d="M444 1620v231h635v-231h-635zM760 -12q-136 0 -246.5 38t-186 104t-126.5 158t-74 196.5t-23 222.5v747h400v-747q0 -75 14.5 -139t44 -115.5t80 -81t117.5 -29.5q68 0 119 30t80.5 82.5t44 116t14.5 136.5v747h399v-747q0 -155 -40 -284t-118.5 -227t-206 -153 t-292.5 -55z" />
<glyph unicode="&#x16b;" horiz-adv-x="1306" d="M315 1243v232h635v-232h-635zM88 369v708h389v-620q0 -70 31.5 -110t87.5 -40q110 0 186 111v659h389v-647q0 -55 16 -77t58 -25v-328q-100 -20 -164 -20q-199 0 -229 149l-8 39q-141 -188 -420 -188q-163 0 -249.5 100t-86.5 289z" />
<glyph unicode="&#x16c;" horiz-adv-x="1521" d="M885 1872h200q0 -147 -90.5 -239.5t-234.5 -92.5t-235 92.5t-91 239.5h201q0 -68 37 -117t88 -49q47 0 83 47t42 119zM760 -12q-136 0 -246.5 38t-186 104t-126.5 158t-74 196.5t-23 222.5v747h400v-747q0 -75 14.5 -139t44 -115.5t80 -81t117.5 -29.5q68 0 119 30 t80.5 82.5t44 116t14.5 136.5v747h399v-747q0 -155 -40 -284t-118.5 -227t-206 -153t-292.5 -55z" />
<glyph unicode="&#x16d;" horiz-adv-x="1306" d="M756 1495h200q0 -147 -90.5 -239.5t-234.5 -92.5t-235 92.5t-91 239.5h201q0 -68 37 -117t88 -49q47 0 83 47t42 119zM88 369v708h389v-620q0 -70 31.5 -110t87.5 -40q110 0 186 111v659h389v-647q0 -55 16 -77t58 -25v-328q-100 -20 -164 -20q-199 0 -229 149l-8 39 q-141 -188 -420 -188q-163 0 -249.5 100t-86.5 289z" />
<glyph unicode="&#x16e;" horiz-adv-x="1521" d="M760 1886q109 0 174 -51.5t65 -140.5t-65 -141t-174 -52t-174.5 52t-65.5 141t65.5 140.5t174.5 51.5zM678 1696q0 -32 24 -56t58 -24q33 0 57.5 24.5t24.5 55.5q0 30 -24 53t-58 23t-58 -23t-24 -53zM760 -12q-136 0 -246.5 38t-186 104t-126.5 158t-74 196.5t-23 222.5 v747h400v-747q0 -75 14.5 -139t44 -115.5t80 -81t117.5 -29.5q68 0 119 30t80.5 82.5t44 116t14.5 136.5v747h399v-747q0 -155 -40 -284t-118.5 -227t-206 -153t-292.5 -55z" />
<glyph unicode="&#x16f;" horiz-adv-x="1306" d="M631 1509q109 0 174 -51.5t65 -140.5t-65 -141t-174 -52t-174.5 52t-65.5 141t65.5 140.5t174.5 51.5zM549 1319q0 -32 24 -56t58 -24q33 0 57.5 24.5t24.5 55.5q0 30 -24 53t-58 23t-58 -23t-24 -53zM88 369v708h389v-620q0 -70 31.5 -110t87.5 -40q110 0 186 111v659 h389v-647q0 -55 16 -77t58 -25v-328q-100 -20 -164 -20q-199 0 -229 149l-8 39q-141 -188 -420 -188q-163 0 -249.5 100t-86.5 289z" />
<glyph unicode="&#x170;" horiz-adv-x="1521" d="M631 1518l-185 65l82 291h285zM1020 1518l-184 65l82 291h284zM760 -12q-136 0 -246.5 38t-186 104t-126.5 158t-74 196.5t-23 222.5v747h400v-747q0 -75 14.5 -139t44 -115.5t80 -81t117.5 -29.5q68 0 119 30t80.5 82.5t44 116t14.5 136.5v747h399v-747q0 -155 -40 -284 t-118.5 -227t-206 -153t-292.5 -55z" />
<glyph unicode="&#x171;" horiz-adv-x="1306" d="M502 1141l-185 65l82 291h285zM891 1141l-184 65l81 291h285zM88 369v708h389v-620q0 -70 31.5 -110t87.5 -40q110 0 186 111v659h389v-647q0 -55 16 -77t58 -25v-328q-100 -20 -164 -20q-199 0 -229 149l-8 39q-141 -188 -420 -188q-163 0 -249.5 100t-86.5 289z" />
<glyph unicode="&#x172;" horiz-adv-x="1521" d="M1018 1454h399v-747q0 -176 -50 -317.5t-157 -243t-262 -138.5q-67 -40 -104 -80.5t-37 -74.5q0 -35 36 -55.5t107 -20.5l-71 -205q-153 18 -232.5 74t-79.5 131q0 113 121 213q-121 10 -219.5 52.5t-165.5 109t-112.5 155t-66 188.5t-20.5 212v747h400v-747 q0 -75 14.5 -139t44 -115.5t80 -81t117.5 -29.5q68 0 119 30t80.5 82.5t44 116t14.5 136.5v747z" />
<glyph unicode="&#x173;" horiz-adv-x="1306" d="M1245 0q-70 -41 -108.5 -83t-38.5 -77t36 -55.5t107 -20.5l-72 -204q-153 18 -232 73.5t-79 130.5q0 121 135 226q-121 28 -141 139l-8 39q-141 -188 -420 -188q-163 0 -249.5 100t-86.5 289v708h389v-620q0 -70 31.5 -110t87.5 -40q110 0 186 111v659h389v-647 q0 -55 16 -77t58 -25v-328z" />
<glyph unicode="&#x174;" horiz-adv-x="2164" d="M711 1636l231 236h279l231 -236l-197 -86l-174 129l-174 -129zM582 1454h366l133 -448l136 448h366l-246 -694l105 -297l313 991h434l-549 -1454h-346l-213 520l-211 -520h-346l-549 1454h433l315 -991l100 297z" />
<glyph unicode="&#x175;" horiz-adv-x="1765" d="M512 1260l231 235h279l231 -235l-196 -86l-174 129l-174 -129zM1419 1077h367l-440 -1077h-318l-145 410l-146 -410h-317l-440 1077h366l256 -712l72 241l-197 471h314l92 -315l92 315h313l-196 -471l71 -241z" />
<glyph unicode="&#x176;" horiz-adv-x="1363" d="M309 1636l232 236h278l232 -236l-197 -86l-174 129l-174 -129zM420 1454l260 -594l266 594h434l-501 -973v-481h-398v485l-493 969h432z" />
<glyph unicode="&#x177;" horiz-adv-x="1136" d="M229 1260l232 235h278l232 -235l-197 -86l-174 129l-174 -129zM90 -109q90 -34 160 -34q125 0 137 143l-391 1077h399l205 -678l166 678h362l-364 -1206q-47 -158 -177 -254t-296 -96q-106 0 -201 39v331z" />
<glyph unicode="&#x178;" horiz-adv-x="1363" d="M285 1567v286h319v-286h-319zM756 1567v286h319v-286h-319zM420 1454l260 -594l266 594h434l-501 -973v-481h-398v485l-493 969h432z" />
<glyph unicode="&#x179;" horiz-adv-x="1273" d="M778 1516l-246 65l103 291h346zM55 297l660 809h-629v348h1110v-297l-618 -809h630v-348h-1153v297z" />
<glyph unicode="&#x17a;" horiz-adv-x="1011" d="M621 1139l-246 65l102 291h346zM45 229l492 582h-461v266h866v-229l-489 -582h508v-266h-916v229z" />
<glyph unicode="&#x17b;" horiz-adv-x="1273" d="M481 1565v307h348v-307h-348zM55 297l660 809h-629v348h1110v-297l-618 -809h630v-348h-1153v297z" />
<glyph unicode="&#x17c;" horiz-adv-x="1011" d="M324 1188v307h348v-307h-348zM45 229l492 582h-461v266h866v-229l-489 -582h508v-266h-916v229z" />
<glyph unicode="&#x17d;" horiz-adv-x="1273" d="M481 1872l174 -129l174 129l197 -86l-231 -236h-279l-231 236zM55 297l660 809h-629v348h1110v-297l-618 -809h630v-348h-1153v297z" />
<glyph unicode="&#x17e;" horiz-adv-x="1011" d="M324 1495l174 -129l174 129l196 -86l-231 -235h-279l-231 235zM45 229l492 582h-461v266h866v-229l-489 -582h508v-266h-916v229z" />
<glyph unicode="&#x18f;" horiz-adv-x="1552" d="M25 692q0 68 12 150h1034q-13 136 -97 203t-202 67q-90 0 -166 -44t-98 -118l-416 117q86 184 260.5 289.5t415.5 105.5q138 0 259 -43t207 -115t149 -164.5t93.5 -192t30.5 -197.5q0 -111 -30 -219.5t-91.5 -206.5t-148 -172t-208 -118t-261.5 -44q-117 0 -223 30.5 t-185.5 83.5t-144.5 122.5t-106 148t-62.5 159.5t-21.5 158zM1061 549h-594q19 -99 101 -155t206 -56q116 0 193 56t94 155z" />
<glyph unicode="&#x192;" horiz-adv-x="1157" d="M57 -317l160 264q38 -41 96 -41q38 0 60 23.5t22 64.5v665h-133v293h133v117q0 202 108.5 324.5t287.5 122.5q134 0 299 -62l-66 -295q-82 29 -145 29q-95 0 -95 -105v-131h236v-293h-236v-655q0 -191 -119.5 -311.5t-302.5 -120.5q-175 0 -305 111z" />
<glyph unicode="&#x1a0;" horiz-adv-x="1566" d="M1270 1280q120 -107 186 -254.5t66 -304.5q0 -142 -55.5 -275t-152 -234.5t-236.5 -162.5t-298 -61q-160 0 -299.5 63t-233.5 167t-148 237.5t-54 273.5q0 143 56 276.5t153 234.5t236.5 161.5t297.5 60.5q57 0 125 -10q76 0 123 10t74 37q11 11 18 23.5t10.5 31 t4.5 27.5t1.5 34t0.5 30h264q0 -55 -2 -86.5t-11 -82.5t-32 -93.5t-61 -77.5q-9 -9 -33 -25zM784 342q83 0 148.5 33.5t104.5 89.5t59 123t20 141q0 102 -35.5 186t-113 138.5t-185.5 54.5q-83 0 -148 -33t-104 -88t-59 -122t-20 -140q0 -75 20.5 -142.5t60.5 -122 t105 -86.5t147 -32z" />
<glyph unicode="&#x1a1;" d="M1126 928q-3 -2 -14 -12t-18 -15q125 -149 125 -362q0 -112 -39 -212t-111 -178t-186 -123.5t-254 -45.5t-254 45.5t-186 123.5t-111 178t-39 212q0 113 39 213t111 177.5t186 123t254 45.5q95 0 174 -21q92 6 131 45q11 11 18 23.5t10.5 31t4.5 27.5t1.5 34t0.5 30h264 q0 -43 -1 -68t-6.5 -67.5t-16 -73t-32 -66.5t-51.5 -65zM629 307q84 0 137 63t53 169t-53 168.5t-137 62.5q-85 0 -138 -62.5t-53 -168.5t53.5 -169t137.5 -63z" />
<glyph unicode="&#x1af;" horiz-adv-x="1521" d="M1399 1647h264q0 -43 -1 -68t-6.5 -67.5t-16 -73t-32 -66.5t-51.5 -65q-45 -42 -139 -74v-526q0 -155 -40 -284t-118.5 -227t-206 -153t-292.5 -55q-136 0 -246.5 38t-186 104t-126.5 158t-74 196.5t-23 222.5v747h400v-747q0 -75 14.5 -139t44 -115.5t80 -81 t117.5 -29.5q68 0 119 30t80.5 82.5t44 116t14.5 136.5v747h143q79 0 127.5 10t75.5 37q11 11 18 23.5t10.5 31t4.5 27.5t1.5 34t0.5 30z" />
<glyph unicode="&#x1b0;" horiz-adv-x="1306" d="M1217 1270h264q0 -43 -1 -68t-6.5 -67.5t-16 -73t-32 -66.5t-51.5 -65q-62 -59 -203 -92v-408q0 -55 16 -77t58 -25v-328q-100 -20 -164 -20q-199 0 -229 149l-8 39q-141 -188 -420 -188q-163 0 -249.5 100t-86.5 289v708h389v-620q0 -70 31.5 -110t87.5 -40 q110 0 186 111v659h197q79 0 127.5 10t75.5 37q11 11 18 23.5t10.5 31t4.5 27.5t1.5 34t0.5 30z" />
<glyph unicode="&#x1e6;" horiz-adv-x="1513" d="M932 1550h-279l-231 236l196 86l175 -129l174 129l196 -86zM844 774h598v-774h-330v121q-154 -131 -358 -131q-143 0 -270.5 51.5t-225 145t-154.5 236.5t-57 316q0 151 58 285t157 230.5t237.5 153t293.5 56.5q197 0 356 -85t237 -232l-296 -227q-42 86 -129 138 t-183 52q-142 0 -233.5 -108t-91.5 -277q0 -171 92.5 -276t242.5 -105q171 0 308 143h-252v287z" />
<glyph unicode="&#x1e7;" horiz-adv-x="1325" d="M494 1495l174 -129l174 129l196 -86l-231 -235h-279l-231 235zM43 541q0 242 141 399.5t361 157.5q116 0 204.5 -46t139.5 -134v159h338v-979q0 -251 -180.5 -403t-475.5 -152q-320 0 -524 207l205 213q62 -59 145.5 -95t173.5 -36q116 0 191.5 65t75.5 201v70 q-44 -82 -131.5 -125t-194.5 -43q-138 0 -245.5 71.5t-165.5 194.5t-58 275zM838 418v192q-29 73 -85 116.5t-118 43.5q-82 0 -138.5 -70.5t-56.5 -169.5t59 -161t152 -62q111 0 187 111z" />
<glyph unicode="&#x1ea;" horiz-adv-x="1566" d="M958 8q-67 -40 -104 -80.5t-37 -74.5q0 -35 36.5 -55.5t107.5 -20.5l-72 -205q-152 18 -231.5 74t-79.5 131q0 114 122 215q-191 20 -343 130t-232 270t-80 337q0 143 56 276.5t153 234.5t236.5 161.5t297.5 60.5q160 0 300 -63.5t233.5 -168t147 -237.5t53.5 -272 q0 -162 -69.5 -310.5t-199.5 -256t-295 -146.5zM451 725q0 -75 20.5 -142.5t60.5 -122t105 -86.5t147 -32q83 0 148.5 33.5t104.5 89.5t59 123t20 141q0 102 -35.5 186t-113 138.5t-185.5 54.5q-83 0 -148 -33t-104 -88t-59 -122t-20 -140z" />
<glyph unicode="&#x1eb;" d="M799 -2q-69 -40 -107.5 -81.5t-38.5 -76.5t36.5 -55.5t107.5 -20.5l-72 -204q-153 18 -232 73.5t-79 130.5q0 118 129 220q-160 18 -276 99.5t-172 199t-56 256.5q0 113 39 213t111 177.5t186 123t254 45.5t254 -45.5t186 -123t111 -177.5t39 -213q0 -193 -110.5 -343 t-309.5 -198zM438 539q0 -106 53.5 -169t137.5 -63t137 63t53 169t-53 168.5t-137 62.5q-85 0 -138 -62.5t-53 -168.5z" />
<glyph unicode="&#x1fa;" horiz-adv-x="1366" d="M907 1454l463 -1454h-405l-88 285h-388l-86 -285h-407l465 1454h2q-19 40 -19 84q0 102 84 154l90 223h347l-140 -215q47 -24 73 -65.5t26 -96.5q0 -44 -19 -84h2zM684 1616q-34 0 -58 -23t-24 -53q0 -32 24 -56t58 -24q33 0 57.5 24.5t24.5 55.5q0 30 -24 53t-58 23z M549 551h264l-129 512z" />
<glyph unicode="&#x1fb;" horiz-adv-x="1226" d="M756 1516l-246 65l102 291h346zM573 1509q109 0 174.5 -51.5t65.5 -140.5t-65.5 -141t-174.5 -52t-174 52t-65 141t65 140.5t174 51.5zM492 1319q0 -32 23.5 -56t57.5 -24q33 0 57.5 24.5t24.5 55.5q0 30 -24 53t-58 23t-57.5 -23t-23.5 -53zM39 326q0 162 130.5 265 t334.5 103q133 0 217 -41v33q0 76 -44.5 113t-141.5 37q-87 0 -165 -28.5t-169 -88.5l-113 242q213 137 485 137q259 0 398 -117t139 -342v-209q0 -55 16 -77t58 -25v-328q-90 -20 -164 -20q-199 0 -229 149l-9 39q-147 -188 -366 -188q-162 0 -269.5 98.5t-107.5 247.5z M670 299q51 33 51 76v80q-79 28 -150 28q-70 0 -117.5 -35t-47.5 -88q0 -44 35.5 -73t90.5 -29q77 0 138 41z" />
<glyph unicode="&#x1fc;" horiz-adv-x="1988" d="M1403 1516l-246 65l103 291h346zM829 1454h1080v-348h-578v-193h467v-348h-467v-217h596v-348h-993v285h-412l-153 -285h-422zM903 633v381l-213 -381h213z" />
<glyph unicode="&#x1fd;" horiz-adv-x="1929" d="M1075 1139l-246 65l103 291h346zM39 326q0 162 130.5 265t334.5 103q133 0 217 -41v33q-2 76 -45.5 113t-140.5 37q-87 0 -165 -28.5t-169 -88.5l-113 242q213 137 485 137q240 0 379 -103q150 103 359 103q140 0 254 -45.5t186 -123t111 -177.5t39 -213q0 -59 -11 -119 h-755q6 -81 60 -121.5t128 -40.5q65 0 121 30t74 79l329 -95q-69 -134 -207.5 -213t-328.5 -79q-158 0 -279.5 55.5t-197.5 152.5q-73 -103 -189 -155.5t-229 -52.5q-162 0 -269.5 98.5t-107.5 247.5zM1483 653q-9 78 -56.5 123t-121.5 45t-122 -45t-57 -123h357zM670 299 q51 33 51 76v80q-79 28 -150 28q-70 0 -117.5 -35t-47.5 -88q0 -44 35.5 -73t90.5 -29q77 0 138 41z" />
<glyph unicode="&#x1fe;" horiz-adv-x="1562" d="M1114 1872l-203 -356l-245 65l102 291h346zM1526 1454l-183 -250q86 -101 132.5 -226.5t46.5 -256.5q0 -142 -55.5 -275t-152 -234.5t-236.5 -162.5t-298 -61q-148 0 -280 55l-31 -43h-428l180 248q-85 101 -130.5 226t-45.5 255q0 143 56 276.5t153 234.5t236.5 161.5 t297.5 60.5q151 0 275 -53l33 45h430zM451 725q0 -71 18 -135l373 514q-36 4 -60 4q-83 0 -148 -33t-104 -88t-59 -122t-20 -140zM1116 729q0 71 -18 135l-377 -516q30 -6 63 -6q83 0 148.5 33.5t104.5 89.5t59 123t20 141z" />
<glyph unicode="&#x1ff;" d="M899 1495l-203 -356l-245 65l102 291h346zM1073 924q146 -155 146 -385q0 -112 -39 -212t-111 -178t-186 -123.5t-254 -45.5q-190 0 -330 81l-66 -73h-204l145 176q-135 153 -135 375q0 113 39 213t111 177.5t186 123t254 45.5q180 0 315 -74l60 66h206zM629 770 q-85 0 -138 -62.5t-53 -168.5q0 -44 13 -88l264 299q-39 20 -86 20zM629 307q84 0 137 63t53 169q0 56 -16 102l-273 -305q47 -29 99 -29z" />
<glyph unicode="&#x200;" horiz-adv-x="1366" d="M240 1874h284l82 -291l-184 -65zM629 1874h284l82 -291l-184 -65zM461 1454h446l463 -1454h-405l-88 285h-388l-86 -285h-407zM813 551l-129 512l-135 -512h264z" />
<glyph unicode="&#x201;" horiz-adv-x="1226" d="M129 1497h285l82 -291l-185 -65zM518 1497h285l82 -291l-185 -65zM39 326q0 162 130.5 265t334.5 103q133 0 217 -41v33q0 76 -44.5 113t-141.5 37q-87 0 -165 -28.5t-169 -88.5l-113 242q213 137 485 137q259 0 398 -117t139 -342v-209q0 -55 16 -77t58 -25v-328 q-90 -20 -164 -20q-199 0 -229 149l-9 39q-147 -188 -366 -188q-162 0 -269.5 98.5t-107.5 247.5zM670 299q51 33 51 76v80q-79 28 -150 28q-70 0 -117.5 -35t-47.5 -88q0 -44 35.5 -73t90.5 -29q77 0 138 41z" />
<glyph unicode="&#x202;" horiz-adv-x="1366" d="M559 1540h-201q0 147 91 239.5t235 92.5t235 -92.5t91 -239.5h-201q-6 72 -42 119t-83 47q-51 0 -88 -49t-37 -117zM461 1454h446l463 -1454h-405l-88 285h-388l-86 -285h-407zM813 551l-129 512l-135 -512h264z" />
<glyph unicode="&#x203;" horiz-adv-x="1226" d="M449 1163h-201q0 147 90.5 239.5t234.5 92.5t235 -92.5t91 -239.5h-201q-6 72 -42 119t-83 47q-51 0 -87.5 -49t-36.5 -117zM39 326q0 162 130.5 265t334.5 103q133 0 217 -41v33q0 76 -44.5 113t-141.5 37q-87 0 -165 -28.5t-169 -88.5l-113 242q213 137 485 137 q259 0 398 -117t139 -342v-209q0 -55 16 -77t58 -25v-328q-90 -20 -164 -20q-199 0 -229 149l-9 39q-147 -188 -366 -188q-162 0 -269.5 98.5t-107.5 247.5zM670 299q51 33 51 76v80q-79 28 -150 28q-70 0 -117.5 -35t-47.5 -88q0 -44 35.5 -73t90.5 -29q77 0 138 41z" />
<glyph unicode="&#x204;" horiz-adv-x="1222" d="M203 1874h284l82 -291l-184 -65zM592 1874h285l81 -291l-184 -65zM1161 348v-348h-1036v1454h1018v-348h-619v-205h529v-323h-529v-230h637z" />
<glyph unicode="&#x205;" horiz-adv-x="1247" d="M184 1497h285l82 -291l-184 -65zM573 1497h285l82 -291l-184 -65zM629 -20q-111 0 -206.5 29t-165 79.5t-119.5 119t-74.5 149t-24.5 167.5q0 118 38.5 221t111.5 182t186.5 125t253.5 46t254 -45.5t186 -123t111 -177.5t39 -213q0 -59 -11 -119h-755q6 -81 60 -121.5 t128 -40.5q65 0 121 30t74 79l329 -95q-69 -134 -207.5 -213t-328.5 -79zM444 653h357q-9 78 -56.5 123t-121.5 45t-122 -45t-57 -123z" />
<glyph unicode="&#x206;" horiz-adv-x="1222" d="M522 1540h-200q0 147 90.5 239.5t234.5 92.5t235 -92.5t91 -239.5h-201q-6 72 -42 119t-83 47q-51 0 -88 -49t-37 -117zM1161 348v-348h-1036v1454h1018v-348h-619v-205h529v-323h-529v-230h637z" />
<glyph unicode="&#x207;" horiz-adv-x="1247" d="M504 1163h-201q0 147 91 239.5t235 92.5t234.5 -92.5t90.5 -239.5h-200q-6 72 -42 119t-83 47q-51 0 -88 -49t-37 -117zM629 -20q-111 0 -206.5 29t-165 79.5t-119.5 119t-74.5 149t-24.5 167.5q0 118 38.5 221t111.5 182t186.5 125t253.5 46t254 -45.5t186 -123 t111 -177.5t39 -213q0 -59 -11 -119h-755q6 -81 60 -121.5t128 -40.5q65 0 121 30t74 79l329 -95q-69 -134 -207.5 -213t-328.5 -79zM444 653h357q-9 78 -56.5 123t-121.5 45t-122 -45t-57 -123z" />
<glyph unicode="&#x208;" horiz-adv-x="649" d="M-121 1874h285l82 -291l-185 -65zM268 1874h285l82 -291l-184 -65zM125 0v1454h399v-1454h-399z" />
<glyph unicode="&#x209;" horiz-adv-x="585" d="M-152 1497h285l82 -291l-184 -65zM238 1497h284l82 -291l-184 -65zM98 0v1077h389v-1077h-389z" />
<glyph unicode="&#x20a;" horiz-adv-x="649" d="M199 1540h-201q0 147 91 239.5t235 92.5t234.5 -92.5t90.5 -239.5h-200q-6 72 -42 119t-83 47q-51 0 -88 -49t-37 -117zM125 0v1454h399v-1454h-399z" />
<glyph unicode="&#x20b;" horiz-adv-x="585" d="M168 1163h-201q0 147 91 239.5t235 92.5t234.5 -92.5t90.5 -239.5h-200q-6 72 -42 119t-83 47q-51 0 -88 -49t-37 -117zM98 0v1077h389v-1077h-389z" />
<glyph unicode="&#x20c;" horiz-adv-x="1566" d="M344 1874h285l82 -291l-185 -65zM733 1874h285l82 -291l-185 -65zM45 729q0 143 56 276.5t153 234.5t236.5 161.5t297.5 60.5q160 0 300 -63.5t233.5 -168t147 -237.5t53.5 -272q0 -142 -55.5 -275t-152 -234.5t-236.5 -162.5t-298 -61q-160 0 -299.5 63t-233.5 167 t-148 237.5t-54 273.5zM784 342q83 0 148.5 33.5t104.5 89.5t59 123t20 141q0 102 -35.5 186t-113 138.5t-185.5 54.5q-83 0 -148 -33t-104 -88t-59 -122t-20 -140q0 -75 20.5 -142.5t60.5 -122t105 -86.5t147 -32z" />
<glyph unicode="&#x20d;" d="M184 1497h285l82 -291l-184 -65zM573 1497h285l82 -291l-184 -65zM39 539q0 113 39 213t111 177.5t186 123t254 45.5t254 -45.5t186 -123t111 -177.5t39 -213q0 -112 -39 -212t-111 -178t-186 -123.5t-254 -45.5t-254 45.5t-186 123.5t-111 178t-39 212zM629 307 q84 0 137 63t53 169t-53 168.5t-137 62.5q-85 0 -138 -62.5t-53 -168.5t53.5 -169t137.5 -63z" />
<glyph unicode="&#x20e;" horiz-adv-x="1566" d="M664 1540h-201q0 147 90.5 239.5t234.5 92.5t235 -92.5t91 -239.5h-201q-6 72 -42 119t-83 47q-51 0 -87.5 -49t-36.5 -117zM45 729q0 143 56 276.5t153 234.5t236.5 161.5t297.5 60.5q160 0 300 -63.5t233.5 -168t147 -237.5t53.5 -272q0 -142 -55.5 -275t-152 -234.5 t-236.5 -162.5t-298 -61q-160 0 -299.5 63t-233.5 167t-148 237.5t-54 273.5zM784 342q83 0 148.5 33.5t104.5 89.5t59 123t20 141q0 102 -35.5 186t-113 138.5t-185.5 54.5q-83 0 -148 -33t-104 -88t-59 -122t-20 -140q0 -75 20.5 -142.5t60.5 -122t105 -86.5t147 -32z" />
<glyph unicode="&#x20f;" d="M504 1163h-201q0 147 91 239.5t235 92.5t234.5 -92.5t90.5 -239.5h-200q-6 72 -42 119t-83 47q-51 0 -88 -49t-37 -117zM39 539q0 113 39 213t111 177.5t186 123t254 45.5t254 -45.5t186 -123t111 -177.5t39 -213q0 -112 -39 -212t-111 -178t-186 -123.5t-254 -45.5 t-254 45.5t-186 123.5t-111 178t-39 212zM629 307q84 0 137 63t53 169t-53 168.5t-137 62.5q-85 0 -138 -62.5t-53 -168.5t53.5 -169t137.5 -63z" />
<glyph unicode="&#x210;" horiz-adv-x="1382" d="M209 1872h285l81 -291l-184 -65zM598 1872h285l82 -291l-185 -65zM125 0v1454h668q103 0 196 -44t156 -115t100 -161.5t37 -183.5q0 -126 -55.5 -236t-153.5 -179l307 -535h-438l-256 446h-162v-446h-399zM524 795h252q39 0 70 42.5t31 112.5t-35 113t-76 43h-242v-311z " />
<glyph unicode="&#x211;" horiz-adv-x="851" d="M8 1497h285l82 -291l-185 -65zM397 1497h285l82 -291l-184 -65zM829 745q-260 0 -342 -106v-639h-389v1077h357v-205q57 107 142.5 166.5t182.5 59.5q39 0 49 -2v-351z" />
<glyph unicode="&#x212;" horiz-adv-x="1382" d="M528 1538h-200q0 147 90.5 239.5t234.5 92.5t235 -92.5t91 -239.5h-201q-6 72 -42 119t-83 47q-51 0 -88 -49t-37 -117zM125 0v1454h668q103 0 196 -44t156 -115t100 -161.5t37 -183.5q0 -126 -55.5 -236t-153.5 -179l307 -535h-438l-256 446h-162v-446h-399zM524 795 h252q39 0 70 42.5t31 112.5t-35 113t-76 43h-242v-311z" />
<glyph unicode="&#x213;" horiz-adv-x="851" d="M328 1163h-201q0 147 91 239.5t235 92.5t234.5 -92.5t90.5 -239.5h-200q-6 72 -42 119t-83 47q-51 0 -88 -49t-37 -117zM829 745q-260 0 -342 -106v-639h-389v1077h357v-205q57 107 142.5 166.5t182.5 59.5q39 0 49 -2v-351z" />
<glyph unicode="&#x214;" horiz-adv-x="1521" d="M315 1874h285l82 -291l-184 -65zM705 1874h284l82 -291l-184 -65zM760 -12q-136 0 -246.5 38t-186 104t-126.5 158t-74 196.5t-23 222.5v747h400v-747q0 -75 14.5 -139t44 -115.5t80 -81t117.5 -29.5q68 0 119 30t80.5 82.5t44 116t14.5 136.5v747h399v-747 q0 -155 -40 -284t-118.5 -227t-206 -153t-292.5 -55z" />
<glyph unicode="&#x215;" horiz-adv-x="1306" d="M186 1497h285l82 -291l-184 -65zM575 1497h285l82 -291l-184 -65zM88 369v708h389v-620q0 -70 31.5 -110t87.5 -40q110 0 186 111v659h389v-647q0 -55 16 -77t58 -25v-328q-100 -20 -164 -20q-199 0 -229 149l-8 39q-141 -188 -420 -188q-163 0 -249.5 100t-86.5 289z " />
<glyph unicode="&#x216;" horiz-adv-x="1521" d="M635 1540h-201q0 147 91 239.5t235 92.5t234.5 -92.5t90.5 -239.5h-200q-6 72 -42 119t-83 47q-51 0 -88 -49t-37 -117zM760 -12q-136 0 -246.5 38t-186 104t-126.5 158t-74 196.5t-23 222.5v747h400v-747q0 -75 14.5 -139t44 -115.5t80 -81t117.5 -29.5q68 0 119 30 t80.5 82.5t44 116t14.5 136.5v747h399v-747q0 -155 -40 -284t-118.5 -227t-206 -153t-292.5 -55z" />
<glyph unicode="&#x217;" horiz-adv-x="1306" d="M506 1163h-201q0 147 91 239.5t235 92.5t234.5 -92.5t90.5 -239.5h-200q-6 72 -42 119t-83 47q-51 0 -88 -49t-37 -117zM88 369v708h389v-620q0 -70 31.5 -110t87.5 -40q110 0 186 111v659h389v-647q0 -55 16 -77t58 -25v-328q-100 -20 -164 -20q-199 0 -229 149l-8 39 q-141 -188 -420 -188q-163 0 -249.5 100t-86.5 289z" />
<glyph unicode="&#x218;" horiz-adv-x="1263" d="M1006 979q-9 5 -24 14t-61 32t-90 40.5t-102.5 32t-107.5 14.5q-117 0 -117 -72q0 -16 5.5 -29t19.5 -24t27.5 -19t41.5 -18t48 -16t61 -18.5t67 -20.5q88 -27 149.5 -53t119.5 -63.5t93 -82.5t55.5 -108.5t20.5 -143.5q0 -101 -32 -182t-84.5 -132.5t-125.5 -85.5 t-149.5 -48t-161.5 -14q-157 0 -329 46.5t-303 123.5l172 350q10 -7 27.5 -17.5t72 -38t107.5 -48.5t125.5 -38.5t134.5 -17.5q116 0 116 64q0 24 -15 42.5t-50 34t-67.5 26t-92 28t-98.5 30.5q-196 66 -282.5 158.5t-86.5 249.5q0 117 44.5 212t120 155t172.5 92t206 32 q233 0 545 -157zM539 -436l73 125h-116v217h321v-217l-110 -125h-168z" />
<glyph unicode="&#x219;" horiz-adv-x="1026" d="M530 -20q-144 0 -279.5 47t-227.5 133l133 239q210 -139 362 -139q84 0 84 49q0 25 -30 40.5t-111 41.5q-57 20 -90.5 32.5t-76.5 30t-67 31.5t-52 33.5t-42.5 39t-28.5 44.5t-19 54.5t-5 64.5q0 169 124 274t339 105q247 0 430 -156l-148 -237q-189 116 -299 116 q-86 0 -86 -57q0 -29 29.5 -45.5t108.5 -38.5q90 -28 148 -49.5t110.5 -50.5t80.5 -61.5t44 -76.5t16 -102q0 -169 -120 -265.5t-327 -96.5zM412 -436l73 125h-116v217h321v-217l-110 -125h-168z" />
<glyph unicode="&#x21a;" horiz-adv-x="1277" d="M1257 1106h-417v-1106h-400v1106h-420v348h1237v-348zM512 -436l74 125h-117v217h322v-217l-111 -125h-168z" />
<glyph unicode="&#x21b;" horiz-adv-x="866" d="M854 59q-190 -82 -358 -82q-69 0 -125.5 17t-102 52.5t-71 97.5t-25.5 147v493h-133v293h133v338h389v-338h211v-293h-211v-356q0 -96 84 -96q53 0 139 35zM367 -436l73 125h-116v217h321v-217l-110 -125h-168z" />
<glyph unicode="&#x22a;" horiz-adv-x="1566" d="M473 2019v232h635v-232h-635zM393 1567v286h320v-286h-320zM864 1567v286h320v-286h-320zM45 729q0 143 56 276.5t153 234.5t236.5 161.5t297.5 60.5q160 0 300 -63.5t233.5 -168t147 -237.5t53.5 -272q0 -142 -55.5 -275t-152 -234.5t-236.5 -162.5t-298 -61 q-160 0 -299.5 63t-233.5 167t-148 237.5t-54 273.5zM784 342q83 0 148.5 33.5t104.5 89.5t59 123t20 141q0 102 -35.5 186t-113 138.5t-185.5 54.5q-83 0 -148 -33t-104 -88t-59 -122t-20 -140q0 -75 20.5 -142.5t60.5 -122t105 -86.5t147 -32z" />
<glyph unicode="&#x22b;" d="M313 1642v232h635v-232h-635zM233 1190v287h320v-287h-320zM705 1190v287h319v-287h-319zM39 539q0 113 39 213t111 177.5t186 123t254 45.5t254 -45.5t186 -123t111 -177.5t39 -213q0 -112 -39 -212t-111 -178t-186 -123.5t-254 -45.5t-254 45.5t-186 123.5t-111 178 t-39 212zM629 307q84 0 137 63t53 169t-53 168.5t-137 62.5q-85 0 -138 -62.5t-53 -168.5t53.5 -169t137.5 -63z" />
<glyph unicode="&#x22c;" horiz-adv-x="1566" d="M473 2038v231h635v-231h-635zM655 1647q-26 0 -45 -10t-28 -23t-14 -29.5t-6 -24t-1 -12.5h-207q0 24 9.5 61.5t32 83.5t54 85.5t81.5 66.5t108 27q45 0 86 -16.5t67 -36t59 -36t64 -16.5q25 0 45 10.5t30.5 24.5t17 30.5t8.5 26t2 13.5h205q0 -17 -10 -52t-33 -82.5 t-55 -89t-84 -71t-111 -29.5q-53 0 -102.5 25t-92.5 49.5t-80 24.5zM45 729q0 143 56 276.5t153 234.5t236.5 161.5t297.5 60.5q160 0 300 -63.5t233.5 -168t147 -237.5t53.5 -272q0 -142 -55.5 -275t-152 -234.5t-236.5 -162.5t-298 -61q-160 0 -299.5 63t-233.5 167 t-148 237.5t-54 273.5zM784 342q83 0 148.5 33.5t104.5 89.5t59 123t20 141q0 102 -35.5 186t-113 138.5t-185.5 54.5q-83 0 -148 -33t-104 -88t-59 -122t-20 -140q0 -75 20.5 -142.5t60.5 -122t105 -86.5t147 -32z" />
<glyph unicode="&#x22d;" d="M313 1661v231h635v-231h-635zM496 1270q-26 0 -45 -10t-28 -23t-14.5 -29.5t-6.5 -24.5t-1 -12h-206q0 24 9.5 61.5t32 83.5t53.5 85.5t81 66.5t108 27q45 0 86 -16.5t67 -35.5t59.5 -35.5t64.5 -16.5q25 0 45 10.5t30 24.5t16.5 30t8.5 25.5t2 13.5h205q0 -17 -10 -52 t-33 -82.5t-55 -89t-84 -71t-111 -29.5q-42 0 -82.5 15.5t-67 34t-60.5 34t-64 15.5zM39 539q0 113 39 213t111 177.5t186 123t254 45.5t254 -45.5t186 -123t111 -177.5t39 -213q0 -112 -39 -212t-111 -178t-186 -123.5t-254 -45.5t-254 45.5t-186 123.5t-111 178t-39 212z M629 307q84 0 137 63t53 169t-53 168.5t-137 62.5q-85 0 -138 -62.5t-53 -168.5t53.5 -169t137.5 -63z" />
<glyph unicode="&#x230;" horiz-adv-x="1566" d="M473 2038v231h635v-231h-635zM614 1565v307h349v-307h-349zM45 729q0 143 56 276.5t153 234.5t236.5 161.5t297.5 60.5q160 0 300 -63.5t233.5 -168t147 -237.5t53.5 -272q0 -142 -55.5 -275t-152 -234.5t-236.5 -162.5t-298 -61q-160 0 -299.5 63t-233.5 167t-148 237.5 t-54 273.5zM784 342q83 0 148.5 33.5t104.5 89.5t59 123t20 141q0 102 -35.5 186t-113 138.5t-185.5 54.5q-83 0 -148 -33t-104 -88t-59 -122t-20 -140q0 -75 20.5 -142.5t60.5 -122t105 -86.5t147 -32z" />
<glyph unicode="&#x231;" d="M313 1661v231h635v-231h-635zM455 1188v307h348v-307h-348zM39 539q0 113 39 213t111 177.5t186 123t254 45.5t254 -45.5t186 -123t111 -177.5t39 -213q0 -112 -39 -212t-111 -178t-186 -123.5t-254 -45.5t-254 45.5t-186 123.5t-111 178t-39 212zM629 307q84 0 137 63 t53 169t-53 168.5t-137 62.5q-85 0 -138 -62.5t-53 -168.5t53.5 -169t137.5 -63z" />
<glyph unicode="&#x232;" horiz-adv-x="1363" d="M365 1620v231h634v-231h-634zM420 1454l260 -594l266 594h434l-501 -973v-481h-398v485l-493 969h432z" />
<glyph unicode="&#x233;" horiz-adv-x="1136" d="M285 1243v232h635v-232h-635zM90 -109q90 -34 160 -34q125 0 137 143l-391 1077h399l205 -678l166 678h362l-364 -1206q-47 -158 -177 -254t-296 -96q-106 0 -201 39v331z" />
<glyph unicode="&#x237;" horiz-adv-x="585" d="M-240 -317l160 264q38 -41 96 -41q38 0 60 23.5t22 64.5v1083h389v-1052q0 -201 -117.5 -327t-303.5 -126q-176 0 -306 111z" />
<glyph unicode="&#x259;" horiz-adv-x="1247" d="M618 -20q-140 0 -253.5 45.5t-186 123t-111 177.5t-38.5 213q0 63 10 118h756q-6 81 -60 121.5t-129 40.5q-65 0 -120.5 -29.5t-73.5 -78.5l-330 94q69 134 207.5 213.5t328.5 79.5q138 0 251.5 -44.5t186.5 -120t112.5 -173.5t39.5 -207q0 -118 -38.5 -221t-111.5 -182 t-186.5 -124.5t-253.5 -45.5zM625 256q74 0 121.5 45t56.5 123h-357q9 -78 57 -123t122 -45z" />
<glyph unicode="&#x2b9;" horiz-adv-x="544" d="M109 1016v479h327l-82 -479h-245z" />
<glyph unicode="&#x2ba;" horiz-adv-x="1089" d="M109 1016v479h327l-82 -479h-245zM653 1016v479h328l-82 -479h-246z" />
<glyph unicode="&#x2bb;" horiz-adv-x="493" d="M319 1495l-73 -121h116v-196h-321v196l111 121h167z" />
<glyph unicode="&#x2bc;" horiz-adv-x="581" d="M338 1139l-246 65l103 291h346z" />
<glyph unicode="&#x2be;" horiz-adv-x="321" d="M41 1124v115q33 0 57.5 24.5t24.5 55.5q0 30 -24 53t-58 23v114q109 0 174.5 -51.5t65.5 -140.5t-65.5 -141t-174.5 -52z" />
<glyph unicode="&#x2bf;" horiz-adv-x="321" d="M281 1124q-109 0 -174.5 52t-65.5 141t65.5 140.5t174.5 51.5v-114q-34 0 -58 -23t-24 -53q0 -32 24 -56t58 -24v-115z" />
<glyph unicode="&#x2c6;" horiz-adv-x="823" d="M41 1260l231 235h279l231 -235l-196 -86l-174 129l-174 -129z" />
<glyph unicode="&#x2c7;" horiz-adv-x="823" d="M238 1495l174 -129l174 129l196 -86l-231 -235h-279l-231 235z" />
<glyph unicode="&#x2c8;" horiz-adv-x="647" d="M487 1587v-786h-327v786h327z" />
<glyph unicode="&#x2c9;" horiz-adv-x="897" d="M131 1243v232h635v-232h-635z" />
<glyph unicode="&#x2ca;" horiz-adv-x="544" d="M109 1016v479h327l-82 -479h-245z" />
<glyph unicode="&#x2cb;" horiz-adv-x="544" d="M190 1016l-81 479h327v-479h-246z" />
<glyph unicode="&#x2cc;" horiz-adv-x="647" d="M487 520v-786h-327v786h327z" />
<glyph unicode="&#x2d8;" horiz-adv-x="753" d="M502 1495h200q0 -147 -90.5 -239.5t-234.5 -92.5t-235 92.5t-91 239.5h201q0 -68 37 -117t88 -49q47 0 83 47t42 119z" />
<glyph unicode="&#x2d9;" horiz-adv-x="552" d="M102 1188v307h349v-307h-349z" />
<glyph unicode="&#x2da;" horiz-adv-x="561" d="M281 1509q109 0 174 -51.5t65 -140.5t-65 -141t-174 -52t-174.5 52t-65.5 141t65.5 140.5t174.5 51.5zM199 1319q0 -32 24 -56t58 -24q33 0 57 24.5t24 55.5q0 30 -23.5 53t-57.5 23t-58 -23t-24 -53z" />
<glyph unicode="&#x2db;" horiz-adv-x="679" d="M152 -233q0 76 59.5 151.5t171.5 132.5h129l27 -49q-148 -87 -148 -160q0 -35 36.5 -55t107.5 -20l-72 -205q-152 18 -231.5 74t-79.5 131z" />
<glyph unicode="&#x2dc;" horiz-adv-x="950" d="M342 1270q-26 0 -45 -10t-28 -23t-14 -29.5t-6 -24t-1 -12.5h-207q0 24 9.5 61.5t32 83.5t54 85.5t81.5 66.5t108 27q45 0 86 -16.5t66.5 -35.5t59 -35.5t64.5 -16.5q25 0 45 10.5t30.5 24.5t17 30t8.5 25.5t2 13.5h204q0 -17 -10 -52t-33 -82.5t-55 -89t-84 -71 t-111 -29.5q-42 0 -82.5 15.5t-67 34t-60.5 34t-64 15.5z" />
<glyph unicode="&#x2dd;" horiz-adv-x="817" d="M236 1139l-185 65l82 291h285zM625 1139l-185 65l82 291h285z" />
<glyph unicode="&#x300;" horiz-adv-x="0" d="M-489 1495h346l102 -291l-246 -65z" />
<glyph unicode="&#x301;" horiz-adv-x="0" d="M-244 1139l-245 65l102 291h346z" />
<glyph unicode="&#x302;" horiz-adv-x="0" d="M-782 1260l231 235h279l231 -235l-197 -86l-174 129l-174 -129z" />
<glyph unicode="&#x303;" horiz-adv-x="0" d="M-608 1270q-26 0 -45 -10t-28 -23t-14 -29.5t-6 -24t-1 -12.5h-207q0 24 9.5 61.5t32 83.5t53.5 85.5t81 66.5t108 27q45 0 86 -16.5t67 -35.5t59.5 -35.5t64.5 -16.5q25 0 45 10.5t30 24.5t16.5 30t8.5 25.5t2 13.5h205q0 -17 -10 -52t-33 -82.5t-55 -89t-84 -71 t-111 -29.5q-42 0 -82.5 15.5t-67 34t-60.5 34t-64 15.5z" />
<glyph unicode="&#x304;" horiz-adv-x="0" d="M-766 1243v232h635v-232h-635z" />
<glyph unicode="&#x306;" horiz-adv-x="0" d="M-252 1495h201q0 -147 -91 -239.5t-235 -92.5t-234.5 92.5t-90.5 239.5h200q0 -68 37 -117t88 -49q47 0 83 47t42 119z" />
<glyph unicode="&#x307;" horiz-adv-x="0" d="M-451 1188v307h349v-307h-349z" />
<glyph unicode="&#x308;" horiz-adv-x="0" d="M-975 1188v287h320v-287h-320zM-504 1188v287h320v-287h-320z" />
<glyph unicode="&#x309;" horiz-adv-x="0" d="M-709 1384l-104 103q115 121 238 121q91 0 145.5 -47t54.5 -125q0 -79 -34 -131.5t-117 -120.5l-92 96q73 50 73 98q0 27 -16.5 44.5t-44.5 17.5q-19 0 -36.5 -8t-28.5 -16.5t-38 -31.5z" />
<glyph unicode="&#x30a;" horiz-adv-x="0" d="M-281 1509q109 0 174.5 -51.5t65.5 -140.5t-65.5 -141t-174.5 -52t-174 52t-65 141t65 140.5t174 51.5zM-362 1319q0 -32 23.5 -56t57.5 -24q33 0 57.5 24.5t24.5 55.5q0 30 -24 53t-58 23t-57.5 -23t-23.5 -53z" />
<glyph unicode="&#x30b;" horiz-adv-x="0" d="M-582 1139l-184 65l82 291h285zM-193 1139l-184 65l82 291h285z" />
<glyph unicode="&#x30c;" horiz-adv-x="0" d="M-586 1495l174 -129l174 129l197 -86l-231 -235h-279l-231 235z" />
<glyph unicode="&#x30f;" horiz-adv-x="0" d="M-807 1495h285l82 -291l-185 -65zM-418 1495h285l82 -291l-185 -65z" />
<glyph unicode="&#x311;" horiz-adv-x="0" d="M-502 1163h-200q0 147 90.5 239.5t234.5 92.5t235 -92.5t91 -239.5h-201q-6 72 -42 119t-83 47q-51 0 -88 -49t-37 -117z" />
<glyph unicode="&#x312;" horiz-adv-x="0" d="M-174 1495l-74 -121h117v-196h-322v196l111 121h168z" />
<glyph unicode="&#x31b;" horiz-adv-x="0" d="M-608 963l4 262q79 0 127.5 10t75.5 37q11 11 18 24t10 30t4 27t1.5 33t0.5 31h265q0 -43 -1 -68t-6.5 -67.5t-16 -73t-32 -66.5t-51.5 -65q-52 -49 -166 -81.5t-233 -32.5z" />
<glyph unicode="&#x323;" horiz-adv-x="0" d="M-451 -438v307h349v-307h-349z" />
<glyph unicode="&#x324;" horiz-adv-x="0" d="M-975 -438v286h320v-286h-320zM-504 -438v286h320v-286h-320z" />
<glyph unicode="&#x326;" horiz-adv-x="0" d="M-319 -436l73 125h-116v217h321v-217l-111 -125h-167z" />
<glyph unicode="&#x327;" horiz-adv-x="0" d="M-309 -451q-123 0 -254 70l90 199q45 -39 98 -39q38 0 62 21.5t24 58.5q0 68 -86 141l123 74q59 -45 96.5 -82.5t66 -93.5t28.5 -117q0 -98 -63.5 -165t-184.5 -67z" />
<glyph unicode="&#x328;" horiz-adv-x="0" d="M-528 -233q0 76 59.5 151.5t171.5 132.5h129l27 -49q-148 -87 -148 -160q0 -35 36.5 -55t107.5 -20l-72 -205q-152 18 -231.5 74t-79.5 131z" />
<glyph unicode="&#x32e;" horiz-adv-x="0" d="M-252 -104h201q0 -147 -91 -239.5t-235 -92.5t-234.5 92.5t-90.5 239.5h200q0 -68 37 -117t88 -49q47 0 83 47t42 119z" />
<glyph unicode="&#x331;" horiz-adv-x="0" d="M-766 -383v231h635v-231h-635z" />
<glyph unicode="&#x335;" horiz-adv-x="0" d="M-801 465v223h699v-223h-699z" />
<glyph unicode="&#x3c0;" horiz-adv-x="1396" d="M586 741v-741h-387v741h-144v328h1227v-328h-164v-313q0 -123 101 -123q49 0 106 31l49 -287q-68 -32 -155.5 -50.5t-165.5 -18.5q-156 0 -240 80.5t-84 230.5v450h-143z" />
<glyph unicode="&#x400;" horiz-adv-x="1222" d="M340 1872h346l102 -291l-245 -65zM1161 348v-348h-1036v1454h1018v-348h-619v-205h529v-323h-529v-230h637z" />
<glyph unicode="&#x401;" horiz-adv-x="1222" d="M252 1567v286h319v-286h-319zM723 1567v286h319v-286h-319zM1161 348v-348h-1036v1454h1018v-348h-619v-205h529v-323h-529v-230h637z" />
<glyph unicode="&#x402;" horiz-adv-x="1617" d="M1024 -20q-143 0 -274 45l104 321q68 -37 133 -37q79 0 129.5 38.5t50.5 123.5q0 74 -51.5 118t-134.5 44q-176 0 -324 -127v-506h-389v1116h-248v338h1197v-338h-560v-266q154 111 377 111q240 0 381 -135.5t141 -354.5q0 -230 -141 -360.5t-391 -130.5z" />
<glyph unicode="&#x403;" horiz-adv-x="1132" d="M815 1516l-246 65l103 291h346zM133 0v1454h948v-348h-549v-1106h-399z" />
<glyph unicode="&#x404;" horiz-adv-x="1470" d="M776 -12q-164 0 -303.5 63.5t-232 168.5t-144 240t-51.5 279q0 111 30 215.5t92 196.5t148.5 161.5t208.5 109.5t264 40q205 0 362 -86t234 -231l-305 -217q-20 51 -54 87.5t-76 56t-83.5 28t-85.5 8.5q-115 0 -190.5 -54t-108.5 -153h414v-317h-424q25 -108 110.5 -175 t202.5 -67q59 0 113 16.5t103.5 58t72.5 103.5l326 -194q-41 -103 -143.5 -182t-227.5 -117.5t-252 -38.5z" />
<glyph unicode="&#x405;" horiz-adv-x="1263" d="M1006 979q-9 5 -24 14t-61 32t-90 40.5t-102.5 32t-107.5 14.5q-117 0 -117 -72q0 -16 5.5 -29t19.5 -24t27.5 -19t41.5 -18t48 -16t61 -18.5t67 -20.5q88 -27 149.5 -53t119.5 -63.5t93 -82.5t55.5 -108.5t20.5 -143.5q0 -101 -32 -182t-84.5 -132.5t-125.5 -85.5 t-149.5 -48t-161.5 -14q-157 0 -329 46.5t-303 123.5l172 350q10 -7 27.5 -17.5t72 -38t107.5 -48.5t125.5 -38.5t134.5 -17.5q116 0 116 64q0 24 -15 42.5t-50 34t-67.5 26t-92 28t-98.5 30.5q-196 66 -282.5 158.5t-86.5 249.5q0 117 44.5 212t120 155t172.5 92t206 32 q233 0 545 -157z" />
<glyph unicode="&#x406;" horiz-adv-x="649" d="M125 0v1454h399v-1454h-399z" />
<glyph unicode="&#x407;" horiz-adv-x="649" d="M-72 1567v286h320v-286h-320zM399 1567v286h320v-286h-320zM125 0v1454h399v-1454h-399z" />
<glyph unicode="&#x408;" horiz-adv-x="1019" d="M86 393q22 -16 88.5 -38.5t142.5 -22.5q51 0 85.5 14t56.5 40.5t33.5 75.5t15.5 106.5t4 146.5v739h399v-739q0 -103 -5 -180.5t-20.5 -158.5t-42 -138t-71 -109t-106.5 -83.5t-150 -50t-199 -18.5q-182 0 -315 91z" />
<glyph unicode="&#x409;" horiz-adv-x="2156" d="M51 -14v344q51 7 84 18.5t66 39.5t53.5 74.5t38 122.5t27.5 184t16 259l16 426h1032v-518h230q234 0 369 -125.5t135 -343.5q0 -216 -129.5 -341.5t-354.5 -125.5h-649v1106h-272l-6 -197q-6 -187 -24 -325.5t-54 -242.5t-85.5 -171t-123.5 -108.5t-161.5 -58 t-207.5 -17.5zM1384 324h193q65 0 99 38t34 105q0 60 -35.5 102.5t-97.5 42.5h-193v-288z" />
<glyph unicode="&#x40a;" horiz-adv-x="2170" d="M133 0v1454h399v-536h467v536h400v-518h229q234 0 369 -125.5t135 -343.5q0 -216 -129 -341.5t-354 -125.5h-650v569h-467v-569h-399zM1399 324h192q65 0 99 38t34 105q0 60 -35.5 102.5t-97.5 42.5h-192v-288z" />
<glyph unicode="&#x40b;" horiz-adv-x="1576" d="M268 0v1116h-248v338h1156v-338h-519v-219q145 57 320 57q241 0 374.5 -135t133.5 -411v-408h-391v362q0 222 -205 222q-121 0 -232 -62v-522h-389z" />
<glyph unicode="&#x40c;" horiz-adv-x="1501" d="M860 1516l-246 65l103 291h346zM133 0v1454h397v-534h82l375 534h438l-512 -702l560 -752h-484l-393 557h-66v-557h-397z" />
<glyph unicode="&#x40d;" horiz-adv-x="1574" d="M481 1872h346l103 -291l-246 -65zM133 0v1454h399v-889l537 889h373v-1454h-400v864l-530 -864h-379z" />
<glyph unicode="&#x40e;" horiz-adv-x="1349" d="M692 1540q-162 0 -264 92.5t-102 239.5h200q0 -71 43 -118.5t123 -47.5q75 0 116.5 45t49.5 121h201q0 -146 -102.5 -239t-264.5 -93zM246 -14v327h145q54 0 83.5 19.5t39.5 64.5l4 21l-538 1036h440l276 -633l254 633h420l-555 -1243q-62 -126 -149.5 -175.5 t-233.5 -49.5h-186z" />
<glyph unicode="&#x40f;" horiz-adv-x="1476" d="M575 -279v279h-450v1454h399v-1106h428v1106h400v-1454h-439v-279h-338z" />
<glyph unicode="&#x410;" horiz-adv-x="1366" d="M461 1454h446l463 -1454h-405l-88 285h-388l-86 -285h-407zM813 551l-129 512l-135 -512h264z" />
<glyph unicode="&#x411;" horiz-adv-x="1394" d="M133 0v1454h1112v-342h-713v-221h320q246 0 377 -115.5t131 -320.5q0 -215 -125 -335t-363 -120h-739zM532 342h281q70 0 103.5 36t33.5 89q0 119 -139 119h-279v-244z" />
<glyph unicode="&#x412;" horiz-adv-x="1413" d="M840 0h-715v1454h844q98 0 175.5 -55.5t116.5 -139.5t39 -178q0 -107 -54 -199.5t-154 -136.5q129 -38 199.5 -131t70.5 -241q0 -95 -40.5 -168t-113 -117t-165.5 -66t-203 -22zM524 1114v-223h273q47 0 77.5 25.5t30.5 87.5q0 56 -27 83t-69 27h-285zM854 580h-330v-244 h316q51 0 83.5 31.5t32.5 87.5q0 54 -29 89.5t-73 35.5z" />
<glyph unicode="&#x413;" horiz-adv-x="1132" d="M133 0v1454h948v-348h-549v-1106h-399z" />
<glyph unicode="&#x414;" horiz-adv-x="1693" d="M51 -279v627h90q103 0 155.5 165t63.5 515l13 426h1054v-1106h205v-627h-348v279h-885v-279h-348zM594 348h434v758h-291l-4 -135q-8 -259 -37 -403.5t-102 -219.5z" />
<glyph unicode="&#x415;" horiz-adv-x="1222" d="M1161 348v-348h-1036v1454h1018v-348h-619v-205h529v-323h-529v-230h637z" />
<glyph unicode="&#x416;" horiz-adv-x="2340" d="M29 0l557 756l-510 698h463l372 -534h60v534h399v-534h60l372 534h463l-510 -698l557 -756h-457l-419 557h-66v-557h-399v557h-66l-420 -557h-456z" />
<glyph unicode="&#x417;" horiz-adv-x="1343" d="M682 -12q-201 0 -363 78.5t-256 220.5l299 186q48 -74 128 -115t182 -41q194 0 194 134q0 131 -194 131h-203v299h203q87 0 124.5 28t37.5 84t-41 85.5t-138 29.5q-115 0 -195 -39t-122 -106l-287 204q108 142 256 218.5t365 76.5q263 0 406 -102.5t143 -302.5 q0 -99 -47 -182t-148 -130q117 -36 181.5 -125t64.5 -210q0 -136 -78 -232.5t-209.5 -143t-302.5 -46.5z" />
<glyph unicode="&#x418;" horiz-adv-x="1574" d="M133 0v1454h399v-889l537 889h373v-1454h-400v864l-530 -864h-379z" />
<glyph unicode="&#x419;" horiz-adv-x="1574" d="M788 1540q-162 0 -264 92.5t-102 239.5h201q0 -72 42.5 -119t122.5 -47q75 0 116.5 45t49.5 121h201q0 -146 -102.5 -239t-264.5 -93zM133 0v1454h399v-889l537 889h373v-1454h-400v864l-530 -864h-379z" />
<glyph unicode="&#x41a;" horiz-adv-x="1501" d="M133 0v1454h397v-534h82l375 534h438l-512 -702l560 -752h-484l-393 557h-66v-557h-397z" />
<glyph unicode="&#x41b;" horiz-adv-x="1529" d="M1006 0v1106h-283l-8 -197q-8 -187 -27.5 -325.5t-56.5 -242.5t-86.5 -171t-124 -108.5t-162 -58t-207.5 -17.5v344q59 0 98.5 15t75 57t56.5 120.5t35 202t20 303.5l16 426h1053v-1454h-399z" />
<glyph unicode="&#x41c;" horiz-adv-x="1748" d="M1225 0v766l-244 -539h-213l-244 539v-766h-399v1454h436l313 -684l316 684h434v-1454h-399z" />
<glyph unicode="&#x41d;" horiz-adv-x="1536" d="M1411 1454v-1454h-399v569h-488v-569h-399v1454h399v-536h488v536h399z" />
<glyph unicode="&#x41e;" horiz-adv-x="1566" d="M45 729q0 143 56 276.5t153 234.5t236.5 161.5t297.5 60.5q160 0 300 -63.5t233.5 -168t147 -237.5t53.5 -272q0 -142 -55.5 -275t-152 -234.5t-236.5 -162.5t-298 -61q-160 0 -299.5 63t-233.5 167t-148 237.5t-54 273.5zM784 342q83 0 148.5 33.5t104.5 89.5t59 123 t20 141q0 102 -35.5 186t-113 138.5t-185.5 54.5q-83 0 -148 -33t-104 -88t-59 -122t-20 -140q0 -75 20.5 -142.5t60.5 -122t105 -86.5t147 -32z" />
<glyph unicode="&#x41f;" horiz-adv-x="1513" d="M133 0v1454h1247v-1454h-399v1106h-449v-1106h-399z" />
<glyph unicode="&#x420;" horiz-adv-x="1275" d="M125 0v1454h627q103 0 196 -44t156 -115t100 -161.5t37 -183.5q0 -97 -35 -188t-96.5 -161t-152.5 -112.5t-195 -42.5h-238v-446h-399zM524 795h211q42 0 71.5 37t29.5 118q0 82 -33.5 119t-77.5 37h-201v-311z" />
<glyph unicode="&#x421;" horiz-adv-x="1415" d="M788 1462q205 0 362 -86t234 -231l-305 -217q-20 51 -54 87.5t-76 56t-83.5 28t-85.5 8.5q-82 0 -147 -33.5t-103.5 -89t-58.5 -121.5t-20 -137q0 -159 91 -272t242 -113q59 0 113 16.5t103.5 58t72.5 103.5l326 -194q-41 -103 -143.5 -182t-227.5 -117.5t-252 -38.5 q-156 0 -294.5 65t-233 170.5t-149 241t-54.5 274.5q0 134 51.5 262.5t144 231.5t235.5 166t312 63z" />
<glyph unicode="&#x422;" horiz-adv-x="1277" d="M1257 1106h-417v-1106h-400v1106h-420v348h1237v-348z" />
<glyph unicode="&#x423;" horiz-adv-x="1349" d="M246 -14v327h145q54 0 83.5 19.5t39.5 64.5l4 21l-538 1036h440l276 -633l254 633h420l-555 -1243q-62 -126 -149.5 -175.5t-233.5 -49.5h-186z" />
<glyph unicode="&#x424;" horiz-adv-x="1720" d="M672 0v129q-123 8 -236 57t-200.5 130.5t-139.5 200.5t-51 255q1 142 54.5 262.5t142 200.5t199.5 127t231 55v115h377v-115q120 -8 231 -55t199.5 -127t141.5 -200.5t54 -262.5q1 -136 -51 -255t-139 -200.5t-200 -130.5t-236 -57v-129h-377zM682 446v654 q-103 -14 -170.5 -98.5t-67.5 -229.5q0 -144 69 -227.5t169 -98.5zM1038 446q100 15 169 98.5t69 227.5t-67.5 229t-170.5 99v-654z" />
<glyph unicode="&#x425;" horiz-adv-x="1345" d="M410 1454l264 -459l264 459h430l-457 -737l441 -717h-430l-248 438l-248 -438h-432l440 717l-457 737h433z" />
<glyph unicode="&#x426;" horiz-adv-x="1597" d="M1188 -279v279h-1063v1454h399v-1106h408v1106h399v-1106h205v-627h-348z" />
<glyph unicode="&#x427;" horiz-adv-x="1454" d="M940 0v516q-10 -6 -31 -15.5t-93.5 -25.5t-156.5 -16q-274 0 -410 121.5t-136 380.5v493h389v-448q0 -99 55.5 -144t200.5 -45q94 0 182 37v600h389v-1454h-389z" />
<glyph unicode="&#x428;" horiz-adv-x="2099" d="M125 0v1454h399v-1106h326v1106h399v-1106h326v1106h399v-1454h-1849z" />
<glyph unicode="&#x429;" horiz-adv-x="2240" d="M1831 -279v279h-1706v1454h399v-1106h326v1106h399v-1106h326v1106h399v-1106h205v-627h-348z" />
<glyph unicode="&#x42a;" horiz-adv-x="1546" d="M342 0v1126h-301v328h700v-481h238q245 0 386.5 -128.5t141.5 -352.5q0 -228 -136 -360t-372 -132h-657zM741 324h201q77 0 117.5 44.5t40.5 123.5q0 65 -42.5 111t-115.5 46h-201v-325z" />
<glyph unicode="&#x42b;" horiz-adv-x="2000" d="M125 0v1454h399v-481h238q245 0 386.5 -128.5t141.5 -352.5q0 -228 -136 -360t-372 -132h-657zM1477 0v1454h399v-1454h-399zM524 324h201q77 0 117.5 44.5t40.5 123.5q0 65 -42.5 111t-115.5 46h-201v-325z" />
<glyph unicode="&#x42c;" horiz-adv-x="1337" d="M133 0v1454h399v-481h238q245 0 386.5 -128.5t141.5 -352.5q0 -228 -135.5 -360t-371.5 -132h-658zM532 324h201q77 0 117.5 44.5t40.5 123.5q0 65 -42.5 111t-115.5 46h-201v-325z" />
<glyph unicode="&#x42d;" horiz-adv-x="1452" d="M666 -12q-151 0 -271 45t-198.5 116t-145.5 175l330 196q40 -82 113 -130t176 -48q126 0 204 65t109 177h-426v317h418q-35 97 -113 152t-194 55q-104 0 -178 -50t-113 -134l-314 223q107 152 252 233.5t359 81.5q169 0 309 -60.5t231.5 -163.5t142 -236.5t50.5 -280.5 q0 -150 -52.5 -283.5t-146.5 -233.5t-234.5 -158t-307.5 -58z" />
<glyph unicode="&#x42e;" horiz-adv-x="2101" d="M1366 -12q-268 0 -447 152.5t-223 420.5h-172v-561h-399v1454h399v-545h174q49 262 231 407.5t445 145.5q310 0 496 -201t186 -540q0 -178 -51 -318t-143 -230.5t-218 -137.5t-278 -47zM1370 342q143 0 212 103t69 284q0 182 -71.5 280.5t-211.5 98.5 q-142 0 -211.5 -101.5t-69.5 -281.5q0 -182 71 -282.5t212 -100.5z" />
<glyph unicode="&#x42f;" horiz-adv-x="1443" d="M86 0l330 555q-120 55 -187 166t-67 260q0 207 137.5 340t351.5 133h668v-1454h-399v508h-52h-51l-282 -508h-449zM709 846h211v270h-211q-59 0 -100.5 -31.5t-41.5 -103.5q0 -73 40.5 -104t101.5 -31z" />
<glyph unicode="&#x430;" horiz-adv-x="1226" d="M39 326q0 162 130.5 265t334.5 103q133 0 217 -41v33q0 76 -44.5 113t-141.5 37q-87 0 -165 -28.5t-169 -88.5l-113 242q213 137 485 137q259 0 398 -117t139 -342v-209q0 -55 16 -77t58 -25v-328q-90 -20 -164 -20q-199 0 -229 149l-9 39q-147 -188 -366 -188 q-162 0 -269.5 98.5t-107.5 247.5zM670 299q51 33 51 76v80q-79 28 -150 28q-70 0 -117.5 -35t-47.5 -88q0 -44 35.5 -73t90.5 -29q77 0 138 41z" />
<glyph unicode="&#x431;" horiz-adv-x="1298" d="M670 -20q-590 0 -590 675q0 190 34.5 324t109.5 223.5t181 140.5t261 80l469 93v-304l-476 -104q-133 -30 -221.5 -111.5t-99.5 -208.5q156 201 446 201q203 0 339.5 -133t136.5 -338q0 -115 -38.5 -213t-111.5 -170.5t-186 -113.5t-254 -41zM670 307q84 0 137 52.5 t53 138.5q0 80 -53.5 132t-136.5 52t-137 -52t-54 -132q0 -88 53 -139.5t138 -51.5z" />
<glyph unicode="&#x432;" horiz-adv-x="1214" d="M102 0v1077h652q180 0 264 -72.5t84 -185.5q0 -191 -168 -264q217 -61 217 -258q0 -163 -111 -230t-338 -67h-600zM471 662h186q37 0 58.5 21.5t21.5 59.5q0 35 -21.5 55.5t-58.5 20.5h-186v-157zM471 258h219q38 0 62 22.5t24 61.5t-24 61.5t-62 22.5h-219v-168z" />
<glyph unicode="&#x433;" horiz-adv-x="901" d="M102 0v1077h775v-338h-385v-739h-390z" />
<glyph unicode="&#x434;" horiz-adv-x="1398" d="M51 -270v608h35q39 1 68.5 16.5t56.5 54t44 114t21 184.5l17 370h897v-739h156v-608h-338v270h-619v-270h-338zM545 338h256v422h-170l-6 -94q-9 -136 -27.5 -212.5t-52.5 -115.5z" />
<glyph unicode="&#x435;" horiz-adv-x="1247" d="M629 -20q-111 0 -206.5 29t-165 79.5t-119.5 119t-74.5 149t-24.5 167.5q0 118 38.5 221t111.5 182t186.5 125t253.5 46t254 -45.5t186 -123t111 -177.5t39 -213q0 -59 -11 -119h-755q6 -81 60 -121.5t128 -40.5q65 0 121 30t74 79l329 -95q-69 -134 -207.5 -213 t-328.5 -79zM444 653h357q-9 78 -56.5 123t-121.5 45t-122 -45t-57 -123z" />
<glyph unicode="&#x436;" horiz-adv-x="1882" d="M12 0l359 561l-342 516h430l235 -360h47v360h402v-360h53l231 360h431l-342 -516l360 -561h-440l-240 379h-55v-379h-398v379h-51l-241 -379h-439z" />
<glyph unicode="&#x437;" horiz-adv-x="1081" d="M545 -20q-364 0 -514 243l309 144q64 -80 182 -80q69 0 103 20.5t34 54.5q0 68 -127 68h-112v234h112q95 0 95 63q0 64 -117 64q-55 0 -91 -18t-63 -56l-290 155q65 107 185.5 166.5t278.5 59.5q192 0 314.5 -82t122.5 -232q0 -47 -13 -89t-48 -79.5t-89 -56.5 q100 -29 150.5 -96t50.5 -162q0 -104 -62.5 -177.5t-168 -108.5t-242.5 -35z" />
<glyph unicode="&#x438;" horiz-adv-x="1288" d="M102 0v1077h390v-559l339 559h355v-1077h-389v541l-338 -541h-357z" />
<glyph unicode="&#x439;" horiz-adv-x="1288" d="M645 1163q-162 0 -264 92.5t-102 239.5h200q0 -71 43 -118.5t123 -47.5q75 0 116.5 45t49.5 121h201q0 -146 -102.5 -239t-264.5 -93zM102 0v1077h390v-559l339 559h355v-1077h-389v541l-338 -541h-357z" />
<glyph unicode="&#x43a;" horiz-adv-x="1294" d="M102 0v1077h387v-362h62l235 362h414l-356 -516l391 -561h-442l-252 381h-52v-381h-387z" />
<glyph unicode="&#x43b;" horiz-adv-x="1261" d="M41 -20v344q49 2 82 17.5t60 57t41.5 117t19.5 191.5l16 370h899v-1077h-389v739h-166l-4 -73q-11 -200 -47 -331t-106 -210t-166.5 -111t-239.5 -34z" />
<glyph unicode="&#x43c;" horiz-adv-x="1544" d="M102 0v1077h408l262 -522l264 522h406v-1077h-369v555l-180 -367h-242l-180 367v-555h-369z" />
<glyph unicode="&#x43d;" horiz-adv-x="1269" d="M102 0v1077h390v-366h286v366h389v-1077h-389v393h-286v-393h-390z" />
<glyph unicode="&#x43e;" d="M39 539q0 113 39 213t111 177.5t186 123t254 45.5t254 -45.5t186 -123t111 -177.5t39 -213q0 -112 -39 -212t-111 -178t-186 -123.5t-254 -45.5t-254 45.5t-186 123.5t-111 178t-39 212zM629 307q84 0 137 63t53 169t-53 168.5t-137 62.5q-85 0 -138 -62.5t-53 -168.5 t53.5 -169t137.5 -63z" />
<glyph unicode="&#x43f;" horiz-adv-x="1259" d="M102 0v1077h1055v-1077h-389v739h-276v-739h-390z" />
<glyph unicode="&#x440;" horiz-adv-x="1325" d="M487 160v-596h-389v1513h338v-162q119 183 348 183q215 0 356.5 -158t141.5 -397q0 -243 -130.5 -403t-328.5 -160q-117 0 -203.5 46t-132.5 134zM885 545q0 101 -59 163t-154 62q-108 0 -185 -111v-186q28 -72 84 -119t117 -47q84 0 140.5 69.5t56.5 168.5z" />
<glyph unicode="&#x441;" horiz-adv-x="1181" d="M631 -20q-139 0 -252.5 45.5t-187 123.5t-113 178t-39.5 212t39.5 212t113 178t187 123.5t252.5 45.5q188 0 322.5 -79t203.5 -214l-379 -115q-55 80 -149 80q-82 0 -136.5 -62.5t-54.5 -168.5t54.5 -169t136.5 -63q94 0 149 80l379 -115q-69 -135 -203.5 -213.5 t-322.5 -78.5z" />
<glyph unicode="&#x442;" horiz-adv-x="1052" d="M334 0v739h-307v338h1003v-338h-307v-739h-389z" />
<glyph unicode="&#x443;" horiz-adv-x="1136" d="M90 -109q90 -34 160 -34q125 0 137 143l-391 1077h399l205 -678l166 678h362l-364 -1206q-47 -158 -177 -254t-296 -96q-106 0 -201 39v331z" />
<glyph unicode="&#x444;" horiz-adv-x="1605" d="M608 -436v436h-20q-130 0 -235.5 44t-173 119t-104 171.5t-36.5 204.5q0 109 36.5 205.5t104 171t173 118t235.5 43.5h20v418h389v-418h21q130 0 235.5 -43.5t173 -118t104 -171t36.5 -205.5q0 -108 -36.5 -204.5t-104 -171.5t-173 -119t-235.5 -44h-21v-436h-389z M588 307h41v463h-41q-75 0 -122.5 -62.5t-47.5 -168.5t47.5 -169t122.5 -63zM977 307h41q75 0 122.5 63t47.5 169t-47.5 168.5t-122.5 62.5h-41v-463z" />
<glyph unicode="&#x445;" horiz-adv-x="1134" d="M393 1077l154 -264l20 -43l21 43l153 264h396l-346 -532l356 -545h-395l-166 264l-19 41l-18 -41l-166 -264h-395l356 535l-346 542h395z" />
<glyph unicode="&#x446;" horiz-adv-x="1320" d="M930 -270v270h-828v1077h390v-739h231v739h389v-739h156v-608h-338z" />
<glyph unicode="&#x447;" horiz-adv-x="1179" d="M688 0v334q-102 -43 -248 -43q-166 0 -267 92.5t-101 259.5v434h389v-383q0 -112 110 -112q63 0 117 22v473h389v-1077h-389z" />
<glyph unicode="&#x448;" horiz-adv-x="1861" d="M102 0v1077h390v-739h245v739h389v-739h244v739h389v-1077h-1657z" />
<glyph unicode="&#x449;" horiz-adv-x="1968" d="M1577 -270v270h-1475v1077h390v-739h245v739h389v-739h244v739h389v-739h156v-608h-338z" />
<glyph unicode="&#x44a;" horiz-adv-x="1318" d="M276 0v770h-235v307h604v-303h219q194 0 304 -102.5t110 -274.5q0 -183 -102.5 -290t-288.5 -107h-611zM645 293h176q49 0 75 27t26 77q0 48 -26 76.5t-75 28.5h-176v-209z" />
<glyph unicode="&#x44b;" horiz-adv-x="1705" d="M102 0v1077h390v-303h155q196 0 306 -102.5t110 -274.5q0 -183 -102.5 -290t-288.5 -107h-570zM1214 0v1077h390v-1077h-390zM492 293h114q49 0 75 27t26 77q0 48 -26 76.5t-75 28.5h-114v-209z" />
<glyph unicode="&#x44c;" horiz-adv-x="1165" d="M102 0v1077h390v-303h217q195 0 305 -102t110 -275q0 -183 -102.5 -290t-288.5 -107h-631zM492 293h176q49 0 74.5 27t25.5 77q0 48 -26 76.5t-74 28.5h-176v-209z" />
<glyph unicode="&#x44d;" horiz-adv-x="1218" d="M590 -20q-178 0 -311.5 72t-206.5 202l309 143q34 -56 77.5 -83t110.5 -27q72 0 126.5 34t82.5 97h-276v246h274q-28 60 -82.5 93.5t-124.5 33.5t-115.5 -25.5t-78.5 -79.5l-291 156q71 121 202.5 188.5t303.5 67.5q140 0 254 -45.5t186 -123t111 -177.5t39 -213 q0 -112 -39 -212t-111 -178t-186 -123.5t-254 -45.5z" />
<glyph unicode="&#x44e;" horiz-adv-x="1773" d="M1165 -20q-214 0 -355.5 108t-191.5 281h-131v-369h-389v1077h389v-370h131q48 174 190 282.5t357 108.5q135 0 245 -45.5t180 -123t107.5 -177.5t37.5 -213q0 -112 -37.5 -212t-107.5 -178t-180 -123.5t-245 -45.5zM1165 307q75 0 122.5 63t47.5 169t-47.5 168.5 t-122.5 62.5t-122.5 -62.5t-47.5 -168.5t47.5 -169t122.5 -63z" />
<glyph unicode="&#x44f;" horiz-adv-x="1232" d="M72 0l233 403q-180 71 -180 306q0 174 113 274t294 100h598v-1083h-389v334h-65l-180 -334h-424zM592 606h149v185h-153q-44 0 -69 -25t-25 -68t25.5 -67.5t72.5 -24.5z" />
<glyph unicode="&#x450;" horiz-adv-x="1247" d="M307 1497h346l103 -291l-246 -65zM629 -20q-111 0 -206.5 29t-165 79.5t-119.5 119t-74.5 149t-24.5 167.5q0 118 38.5 221t111.5 182t186.5 125t253.5 46t254 -45.5t186 -123t111 -177.5t39 -213q0 -59 -11 -119h-755q6 -81 60 -121.5t128 -40.5q65 0 121 30t74 79 l329 -95q-69 -134 -207.5 -213t-328.5 -79zM444 653h357q-9 78 -56.5 123t-121.5 45t-122 -45t-57 -123z" />
<glyph unicode="&#x451;" horiz-adv-x="1247" d="M233 1190v287h320v-287h-320zM705 1190v287h319v-287h-319zM629 -20q-111 0 -206.5 29t-165 79.5t-119.5 119t-74.5 149t-24.5 167.5q0 118 38.5 221t111.5 182t186.5 125t253.5 46t254 -45.5t186 -123t111 -177.5t39 -213q0 -59 -11 -119h-755q6 -81 60 -121.5 t128 -40.5q65 0 121 30t74 79l329 -95q-69 -134 -207.5 -213t-328.5 -79zM444 653h357q-9 78 -56.5 123t-121.5 45t-122 -45t-57 -123z" />
<glyph unicode="&#x452;" horiz-adv-x="1302" d="M723 -455q-70 0 -133.5 17t-104.5 41.5t-71.5 49t-43.5 41.5l-14 17l262 195q3 -5 8 -13t26.5 -21t47.5 -13q29 0 49.5 6.5t42.5 31t35.5 68t22 121.5t8.5 188q0 149 -22 228t-63 106t-116 27q-104 0 -145 -133v-502h-389v1094h-164v223h164v178h389v-178h416v-223h-416 v-258q116 139 295 139q119 0 199 -32.5t135.5 -112t80.5 -215t25 -341.5q0 -134 -16 -242t-53.5 -200.5t-96.5 -154.5t-149.5 -97t-208.5 -35z" />
<glyph unicode="&#x453;" horiz-adv-x="901" d="M717 1139l-246 65l102 291h347zM102 0v1077h775v-338h-385v-739h-390z" />
<glyph unicode="&#x454;" horiz-adv-x="1218" d="M629 -20q-140 0 -254 45.5t-186 123.5t-111 178t-39 212q0 113 39 213t111 177.5t186 123t254 45.5q172 0 303.5 -67.5t202.5 -188.5l-291 -156q-33 54 -79 79.5t-116 25.5t-124.5 -33.5t-82.5 -93.5h275v-246h-277q28 -63 82.5 -97t126.5 -34q67 0 111 27t78 83 l309 -143q-73 -130 -206.5 -202t-311.5 -72z" />
<glyph unicode="&#x455;" horiz-adv-x="1026" d="M530 -20q-144 0 -279.5 47t-227.5 133l133 239q210 -139 362 -139q84 0 84 49q0 25 -30 40.5t-111 41.5q-57 20 -90.5 32.5t-76.5 30t-67 31.5t-52 33.5t-42.5 39t-28.5 44.5t-19 54.5t-5 64.5q0 169 124 274t339 105q247 0 430 -156l-148 -237q-189 116 -299 116 q-86 0 -86 -57q0 -29 29.5 -45.5t108.5 -38.5q90 -28 148 -49.5t110.5 -50.5t80.5 -61.5t44 -76.5t16 -102q0 -169 -120 -265.5t-327 -96.5z" />
<glyph unicode="&#x456;" horiz-adv-x="585" d="M98 1167v328h389v-328h-389zM98 0v1077h389v-1077h-389z" />
<glyph unicode="&#x457;" horiz-adv-x="585" d="M-102 1190v287h319v-287h-319zM369 1190v287h319v-287h-319zM98 0v1077h389v-1077h-389z" />
<glyph unicode="&#x458;" horiz-adv-x="593" d="M106 1167v328h390v-328h-390zM-231 -317l159 264q38 -41 97 -41q38 0 59.5 23.5t21.5 64.5v1083h390v-1052q0 -201 -118 -327t-304 -126q-176 0 -305 111z" />
<glyph unicode="&#x459;" horiz-adv-x="1783" d="M41 -20v344q49 2 82 17.5t60 57t41.5 117t19.5 191.5l16 370h891v-311h176q196 0 306 -101t110 -272q0 -181 -102.5 -287t-288.5 -106h-590v739h-158l-4 -73q-11 -200 -47 -331t-106 -210t-166.5 -111t-239.5 -34zM1151 293h135q49 0 74.5 26t25.5 74q0 47 -26 74t-74 27 h-135v-201z" />
<glyph unicode="&#x45a;" horiz-adv-x="1826" d="M102 0v1077h390v-366h323v366h379v-311h176q196 0 306 -101t110 -272q0 -181 -102.5 -287t-288.5 -106h-580v373h-323v-373h-390zM1194 293h135q49 0 75 26t26 74q0 47 -26 74t-75 27h-135v-201z" />
<glyph unicode="&#x45b;" horiz-adv-x="1318" d="M123 0v1094h-164v223h164v178h389v-178h416v-223h-416v-258q122 139 315 139q201 0 290 -97.5t89 -291.5v-586h-389v483q0 74 -36.5 113t-102.5 39q-119 0 -166 -133v-502h-389z" />
<glyph unicode="&#x45c;" horiz-adv-x="1294" d="M758 1139l-246 65l102 291h347zM102 0v1077h387v-362h62l235 362h414l-356 -516l391 -561h-442l-252 381h-52v-381h-387z" />
<glyph unicode="&#x45d;" horiz-adv-x="1288" d="M338 1495h346l102 -291l-245 -65zM102 0v1077h390v-559l339 559h355v-1077h-389v541l-338 -541h-357z" />
<glyph unicode="&#x45e;" horiz-adv-x="1136" d="M569 1163q-162 0 -264 92.5t-102 239.5h200q0 -71 43 -118.5t123 -47.5q75 0 116.5 45t49.5 121h201q0 -146 -102.5 -239t-264.5 -93zM90 -109q90 -34 160 -34q125 0 137 143l-391 1077h399l205 -678l166 678h362l-364 -1206q-47 -158 -177 -254t-296 -96q-106 0 -201 39 v331z" />
<glyph unicode="&#x45f;" d="M465 -270v270h-363v1077h390v-739h274v739h389v-1077h-362v-270h-328z" />
<glyph unicode="&#x462;" horiz-adv-x="1413" d="M846 973q245 0 386.5 -128.5t141.5 -352.5q0 -228 -136 -360t-372 -132h-657v1135h-209v211h209v170h399v-170h303v-211h-303v-162h238zM809 324q77 0 117.5 44.5t40.5 123.5q0 65 -42.5 111t-115.5 46h-201v-325h201z" />
<glyph unicode="&#x463;" horiz-adv-x="1236" d="M174 0v997h-215v232h215v266h389v-266h307v-232h-307v-223h217q196 0 306 -102.5t110 -274.5q0 -183 -102.5 -290t-288.5 -107h-631zM563 293h176q49 0 75 27t26 77q0 48 -26 76.5t-75 28.5h-176v-209z" />
<glyph unicode="&#x46a;" horiz-adv-x="2316" d="M29 0l557 735l-510 719h2165l-510 -719l557 -735h-445l-420 537h-65v-537h-400v537h-65l-420 -537h-444zM899 899h518l217 324h-952z" />
<glyph unicode="&#x46b;" horiz-adv-x="1959" d="M12 0l420 561l-383 516h1868l-385 -516l422 -561h-467l-275 379h-30v-379h-398v379h-30l-273 -379h-469zM786 676h396l155 211h-706z" />
<glyph unicode="&#x472;" horiz-adv-x="1566" d="M788 1462q160 0 300 -63.5t233.5 -168t147 -237.5t53.5 -272q0 -142 -55.5 -275t-152 -234.5t-236.5 -162.5t-298 -61q-160 0 -299.5 63t-233.5 167t-148 237.5t-54 273.5q0 143 56 276.5t153 234.5t236.5 161.5t297.5 60.5zM782 1108q-130 0 -211 -76.5t-108 -195.5h643 q-28 122 -110.5 197t-213.5 75zM784 342q141 0 223 88t103 221h-653q19 -134 102.5 -221.5t224.5 -87.5z" />
<glyph unicode="&#x473;" d="M629 1098q140 0 254 -45.5t186 -123t111 -177.5t39 -213q0 -112 -39 -212t-111 -178t-186 -123.5t-254 -45.5t-254 45.5t-186 123.5t-111 178t-39 212q0 113 39 213t111 177.5t186 123t254 45.5zM629 770q-66 0 -114.5 -40.5t-65.5 -111.5h360q-17 71 -65.5 111.5 t-114.5 40.5zM629 307q67 0 116 42t66 116h-365q17 -73 66 -115.5t117 -42.5z" />
<glyph unicode="&#x474;" horiz-adv-x="1472" d="M524 0l-540 1454h422l284 -932l197 635q48 157 138.5 227t260.5 70h156v-328h-96q-59 0 -90.5 -21.5t-51.5 -76.5l-379 -1028h-301z" />
<glyph unicode="&#x475;" horiz-adv-x="1234" d="M365 0l-363 1077h387l193 -751l125 483q37 141 121 204.5t239 63.5h147v-295h-88q-52 0 -79 -19.5t-46 -70.5l-253 -692h-383z" />
<glyph unicode="&#x490;" horiz-adv-x="1130" d="M131 0v1454h602v340h346v-688h-549v-1106h-399z" />
<glyph unicode="&#x491;" horiz-adv-x="901" d="M102 0v1077h430v271h345v-609h-385v-739h-390z" />
<glyph unicode="&#x492;" horiz-adv-x="1204" d="M1153 1106h-549v-328h318v-252h-318v-526h-399v526h-185v252h185v676h948v-348z" />
<glyph unicode="&#x493;" horiz-adv-x="993" d="M969 739h-385v-207h266v-231h-266v-301h-389v301h-154v231h154v545h774v-338z" />
<glyph unicode="&#x494;" horiz-adv-x="1513" d="M870 797q266 0 408.5 -147.5t142.5 -403.5q0 -260 -141 -406.5t-391 -146.5q-144 0 -275 45l105 321q67 -36 133 -36q75 0 127.5 54t52.5 169q0 223 -229 223q-81 0 -140 -23.5t-139 -80.5v-365h-399v1454h948v-348h-549v-397q142 88 346 88z" />
<glyph unicode="&#x495;" horiz-adv-x="1298" d="M848 625q87 0 156.5 -34.5t113 -93t66 -131t22.5 -151.5v-70q0 -264 -123.5 -430t-318.5 -166q-176 0 -305 111l159 264q38 -41 97 -41q47 0 74.5 62t27.5 170v39q0 86 -38.5 129t-98.5 43q-59 0 -109.5 -19.5t-78.5 -52.5v-254h-390v1077h775v-338h-385v-213 q119 99 356 99z" />
<glyph unicode="&#x496;" horiz-adv-x="2377" d="M2056 348h281v-627h-338v279h-144l-419 557h-66v-557h-399v557h-66l-420 -557h-456l557 756l-510 698h463l372 -534h60v534h399v-534h60l372 534h463l-510 -698z" />
<glyph unicode="&#x497;" horiz-adv-x="1959" d="M1686 297h223v-567h-307v270h-166l-240 379h-55v-379h-398v379h-51l-241 -379h-439l359 561l-342 516h430l235 -360h47v360h402v-360h53l231 360h431l-342 -516z" />
<glyph unicode="&#x498;" horiz-adv-x="1343" d="M1272 410q0 -177 -128.5 -284.5t-342.5 -131.5q98 -98 98 -213q0 -98 -63.5 -165t-184.5 -67q-123 0 -254 70l90 199q45 -39 99 -39q38 0 62 21.5t24 58.5q0 63 -76 133q-173 15 -311.5 92t-221.5 203l299 186q48 -74 128 -115t182 -41q194 0 194 134q0 131 -194 131 h-203v299h203q87 0 124.5 28t37.5 84t-41 85.5t-138 29.5q-115 0 -195 -39t-122 -106l-287 204q108 142 256 218.5t365 76.5q263 0 406 -102.5t143 -302.5q0 -99 -47 -182t-148 -130q117 -36 181.5 -125t64.5 -210z" />
<glyph unicode="&#x499;" horiz-adv-x="1081" d="M1018 301q0 -134 -100 -215t-267 -100q90 -97 90 -205q0 -98 -63 -165t-184 -67q-123 0 -254 70l90 199q45 -39 98 -39q38 0 62 21.5t24 58.5q0 61 -70 125q-284 32 -413 239l309 144q64 -80 182 -80q69 0 103 20.5t34 54.5q0 68 -127 68h-112v234h112q95 0 95 63 q0 64 -117 64q-55 0 -91 -18t-63 -56l-290 155q65 107 185.5 166.5t278.5 59.5q192 0 314.5 -82t122.5 -232q0 -47 -13 -89t-48 -79.5t-89 -56.5q100 -29 150.5 -96t50.5 -162z" />
<glyph unicode="&#x49a;" horiz-adv-x="1513" d="M1214 348h259v-627h-338v279h-146l-393 557h-66v-557h-397v1454h397v-534h82l375 534h438l-512 -702z" />
<glyph unicode="&#x49b;" horiz-adv-x="1312" d="M1028 297h234v-567h-308v270h-161l-252 381h-52v-381h-387v1077h387v-362h62l235 362h414l-356 -516z" />
<glyph unicode="&#x49c;" horiz-adv-x="1505" d="M1159 752l387 -752h-434l-281 578h-26v-213h-158v213h-125v-578h-397v1454h397v-555h125v199h158v-199h22l263 555h409z" />
<glyph unicode="&#x49d;" horiz-adv-x="1431" d="M1073 561l299 -561h-422l-198 385h-54v-158h-137v158h-76v-385h-387v1077h387v-366h76v149h137v-149h54l184 366h410z" />
<glyph unicode="&#x4a0;" horiz-adv-x="1599" d="M1081 752l559 -752h-483l-393 557h-66v-557h-397v1126h-281v328h678v-534h82l375 534h438z" />
<glyph unicode="&#x4a1;" horiz-adv-x="1359" d="M997 561l392 -561h-443l-252 381h-51v-381h-387v764h-236v313h623v-362h62l235 362h414z" />
<glyph unicode="&#x4a2;" horiz-adv-x="1679" d="M1411 348h207v-627h-338v279h-268v569h-488v-569h-399v1454h399v-536h488v536h399v-1106z" />
<glyph unicode="&#x4a3;" horiz-adv-x="1396" d="M1167 338h176v-608h-348v270h-217v393h-286v-393h-390v1077h390v-366h286v366h389v-739z" />
<glyph unicode="&#x4a4;" horiz-adv-x="2011" d="M1960 1454v-348h-549v-1106h-399v569h-488v-569h-399v1454h399v-536h488v536h948z" />
<glyph unicode="&#x4a5;" horiz-adv-x="1574" d="M1550 1077v-338h-383v-739h-389v393h-286v-393h-390v1077h390v-366h286v364l-2 2h774z" />
<glyph unicode="&#x4aa;" horiz-adv-x="1415" d="M1399 326q-49 -121 -173.5 -204.5t-281.5 -115.5v-285h-328v285q-167 39 -299 152t-202 265.5t-70 315.5q0 134 51.5 262.5t144 231.5t235.5 166t312 63q205 0 362 -86t234 -231l-305 -217q-20 51 -54 87.5t-76 56t-83.5 28t-85.5 8.5q-82 0 -147 -33.5t-103.5 -89 t-58.5 -121.5t-20 -137q0 -159 91 -272t242 -113q59 0 113 16.5t103.5 58t72.5 103.5z" />
<glyph unicode="&#x4ab;" horiz-adv-x="1181" d="M629 307q94 0 149 80l379 -115q-54 -105 -148.5 -177t-224.5 -99v-266h-327v270q-197 50 -307.5 199t-110.5 340q0 112 39.5 212t113 178t187 123.5t252.5 45.5q188 0 322.5 -79t203.5 -214l-379 -115q-55 80 -149 80q-82 0 -136.5 -62.5t-54.5 -168.5t54.5 -169 t136.5 -63z" />
<glyph unicode="&#x4ae;" horiz-adv-x="1363" d="M420 1454l260 -594l266 594h434l-501 -973v-481h-398v485l-493 969h432z" />
<glyph unicode="&#x4af;" horiz-adv-x="1153" d="M383 -436v436l-381 1077h399l193 -772l194 772h363l-379 -1077v-436h-389z" />
<glyph unicode="&#x4b0;" horiz-adv-x="1327" d="M463 0v223h-346v246h346v16l-494 969h432l261 -629l266 629h434l-502 -973v-12h348v-246h-348v-223h-397z" />
<glyph unicode="&#x4b1;" horiz-adv-x="1103" d="M383 -436v272h-256v164h256l-381 1077h385l197 -809l198 809h369l-379 -1077h242v-164h-242v-272h-389z" />
<glyph unicode="&#x4b6;" horiz-adv-x="1546" d="M1329 348h156v-627h-338v279h-207v516q-10 -6 -31 -15.5t-93.5 -25.5t-156.5 -16q-274 0 -410 121.5t-136 380.5v493h389v-448q0 -99 55.5 -144t200.5 -45q94 0 182 37v600h389v-1106z" />
<glyph unicode="&#x4b7;" horiz-adv-x="1263" d="M1077 338h133v-608h-348v270h-217v317q-79 -26 -205 -26q-166 0 -267 92.5t-101 259.5v434h389v-383q0 -112 110 -112q63 0 117 22v473h389v-739z" />
<glyph unicode="&#x4b8;" horiz-adv-x="1454" d="M940 1454h389v-1454h-389v516q-37 -23 -109 -39v-176h-157v158h-15q-274 0 -410 121.5t-136 380.5v493h389v-448q0 -83 38.5 -128.5t133.5 -56.5v213h157v-211q56 9 109 31v600z" />
<glyph unicode="&#x4b9;" horiz-adv-x="1261" d="M770 1077h389v-1077h-389v334q-48 -19 -72 -25v-164h-137v146h-39q-204 0 -327 92.5t-123 259.5v434h389v-383q0 -44 22 -70t78 -36v190h137v-194q37 6 72 20v473z" />
<glyph unicode="&#x4ba;" horiz-adv-x="1454" d="M514 1454v-516q10 6 31 15.5t93.5 25.5t156.5 16q274 0 410 -121t136 -380v-494h-389v449q0 98 -55.5 143t-200.5 45q-94 0 -182 -37v-600h-389v1454h389z" />
<glyph unicode="&#x4bb;" horiz-adv-x="1271" d="M1182 0h-389v606q0 76 -34 114t-91 38q-42 0 -98.5 -44t-82.5 -110v-604h-389v1495h389v-577q57 87 149.5 133.5t207.5 46.5q87 0 151 -26t99 -64.5t56 -94.5t26.5 -102t5.5 -102v-709z" />
<glyph unicode="&#x4c0;" horiz-adv-x="649" d="M125 0v1454h399v-1454h-399z" />
<glyph unicode="&#x4c1;" horiz-adv-x="2340" d="M1171 1540q-162 0 -264 92.5t-102 239.5h201q0 -72 42.5 -119t122.5 -47q75 0 116.5 45t49.5 121h201q0 -146 -102.5 -239t-264.5 -93zM29 0l557 756l-510 698h463l372 -534h60v534h399v-534h60l372 534h463l-510 -698l557 -756h-457l-419 557h-66v-557h-399v557h-66 l-420 -557h-456z" />
<glyph unicode="&#x4c2;" horiz-adv-x="1882" d="M942 1163q-162 0 -264.5 93t-102.5 239h201q0 -71 43 -118.5t123 -47.5q75 0 116.5 45t49.5 121h201q0 -146 -102.5 -239t-264.5 -93zM12 0l359 561l-342 516h430l235 -360h47v360h402v-360h53l231 360h431l-342 -516l360 -561h-440l-240 379h-55v-379h-398v379h-51 l-241 -379h-439z" />
<glyph unicode="&#x4cb;" horiz-adv-x="1454" d="M940 1454h389v-1454h-315v-279h-338v504h264v373q-11 -6 -33 -15.5t-100 -25.5t-168 -16q-264 0 -395 121t-131 380v412h389v-367q0 -96 55.5 -142t179.5 -46q105 0 203 37v518z" />
<glyph unicode="&#x4cc;" horiz-adv-x="1146" d="M500 -270v444h168v219q-109 -41 -205 -41q-169 0 -280 106t-111 267v352h368v-301q0 -133 125 -133q46 0 103 29v405h376v-1077h-217v-270h-327z" />
<glyph unicode="&#x4cf;" horiz-adv-x="585" d="M98 0v1077h389v-1077h-389z" />
<glyph unicode="&#x4d0;" horiz-adv-x="1366" d="M684 1540q-162 0 -264.5 93t-102.5 239h201q0 -71 43 -118.5t123 -47.5q75 0 116.5 45t49.5 121h201q0 -146 -102.5 -239t-264.5 -93zM461 1454h446l463 -1454h-405l-88 285h-388l-86 -285h-407zM813 551l-129 512l-135 -512h264z" />
<glyph unicode="&#x4d1;" horiz-adv-x="1226" d="M614 1163q-162 0 -264 92.5t-102 239.5h201q0 -72 42.5 -119t122.5 -47q75 0 116.5 45t49.5 121h201q0 -146 -102.5 -239t-264.5 -93zM39 326q0 162 130.5 265t334.5 103q133 0 217 -41v33q0 76 -44.5 113t-141.5 37q-87 0 -165 -28.5t-169 -88.5l-113 242 q213 137 485 137q259 0 398 -117t139 -342v-209q0 -55 16 -77t58 -25v-328q-90 -20 -164 -20q-199 0 -229 149l-9 39q-147 -188 -366 -188q-162 0 -269.5 98.5t-107.5 247.5zM670 299q51 33 51 76v80q-79 28 -150 28q-70 0 -117.5 -35t-47.5 -88q0 -44 35.5 -73t90.5 -29 q77 0 138 41z" />
<glyph unicode="&#x4d2;" horiz-adv-x="1366" d="M289 1567v286h319v-286h-319zM760 1567v286h319v-286h-319zM461 1454h446l463 -1454h-405l-88 285h-388l-86 -285h-407zM813 551l-129 512l-135 -512h264z" />
<glyph unicode="&#x4d3;" horiz-adv-x="1226" d="M219 1190v287h320v-287h-320zM690 1190v287h320v-287h-320zM39 326q0 162 130.5 265t334.5 103q133 0 217 -41v33q0 76 -44.5 113t-141.5 37q-87 0 -165 -28.5t-169 -88.5l-113 242q213 137 485 137q259 0 398 -117t139 -342v-209q0 -55 16 -77t58 -25v-328 q-90 -20 -164 -20q-199 0 -229 149l-9 39q-147 -188 -366 -188q-162 0 -269.5 98.5t-107.5 247.5zM670 299q51 33 51 76v80q-79 28 -150 28q-70 0 -117.5 -35t-47.5 -88q0 -44 35.5 -73t90.5 -29q77 0 138 41z" />
<glyph unicode="&#x4d4;" horiz-adv-x="1988" d="M829 1454h1080v-348h-578v-193h467v-348h-467v-217h596v-348h-993v285h-412l-153 -285h-422zM903 633v381l-213 -381h213z" />
<glyph unicode="&#x4d5;" horiz-adv-x="1929" d="M39 326q0 162 130.5 265t334.5 103q133 0 217 -41v33q-2 76 -45.5 113t-140.5 37q-87 0 -165 -28.5t-169 -88.5l-113 242q213 137 485 137q240 0 379 -103q150 103 359 103q140 0 254 -45.5t186 -123t111 -177.5t39 -213q0 -59 -11 -119h-755q6 -81 60 -121.5t128 -40.5 q65 0 121 30t74 79l329 -95q-69 -134 -207.5 -213t-328.5 -79q-158 0 -279.5 55.5t-197.5 152.5q-73 -103 -189 -155.5t-229 -52.5q-162 0 -269.5 98.5t-107.5 247.5zM1483 653q-9 78 -56.5 123t-121.5 45t-122 -45t-57 -123h357zM670 299q51 33 51 76v80q-79 28 -150 28 q-70 0 -117.5 -35t-47.5 -88q0 -44 35.5 -73t90.5 -29q77 0 138 41z" />
<glyph unicode="&#x4d6;" horiz-adv-x="1222" d="M647 1540q-162 0 -264 92.5t-102 239.5h200q0 -71 43 -118.5t123 -47.5q75 0 116.5 45t49.5 121h201q0 -146 -102.5 -239t-264.5 -93zM1161 348v-348h-1036v1454h1018v-348h-619v-205h529v-323h-529v-230h637z" />
<glyph unicode="&#x4d7;" horiz-adv-x="1247" d="M629 1163q-162 0 -264.5 93t-102.5 239h201q0 -71 43 -118.5t123 -47.5q75 0 116.5 45t49.5 121h200q0 -147 -102 -239.5t-264 -92.5zM629 -20q-111 0 -206.5 29t-165 79.5t-119.5 119t-74.5 149t-24.5 167.5q0 118 38.5 221t111.5 182t186.5 125t253.5 46t254 -45.5 t186 -123t111 -177.5t39 -213q0 -59 -11 -119h-755q6 -81 60 -121.5t128 -40.5q65 0 121 30t74 79l329 -95q-69 -134 -207.5 -213t-328.5 -79zM444 653h357q-9 78 -56.5 123t-121.5 45t-122 -45t-57 -123z" />
<glyph unicode="&#x4d8;" horiz-adv-x="1552" d="M25 692q0 68 12 150h1034q-13 136 -97 203t-202 67q-90 0 -166 -44t-98 -118l-416 117q86 184 260.5 289.5t415.5 105.5q138 0 259 -43t207 -115t149 -164.5t93.5 -192t30.5 -197.5q0 -111 -30 -219.5t-91.5 -206.5t-148 -172t-208 -118t-261.5 -44q-117 0 -223 30.5 t-185.5 83.5t-144.5 122.5t-106 148t-62.5 159.5t-21.5 158zM1061 549h-594q19 -99 101 -155t206 -56q116 0 193 56t94 155z" />
<glyph unicode="&#x4d9;" horiz-adv-x="1247" d="M618 -20q-140 0 -253.5 45.5t-186 123t-111 177.5t-38.5 213q0 63 10 118h756q-6 81 -60 121.5t-129 40.5q-65 0 -120.5 -29.5t-73.5 -78.5l-330 94q69 134 207.5 213.5t328.5 79.5q138 0 251.5 -44.5t186.5 -120t112.5 -173.5t39.5 -207q0 -118 -38.5 -221t-111.5 -182 t-186.5 -124.5t-253.5 -45.5zM625 256q74 0 121.5 45t56.5 123h-357q9 -78 57 -123t122 -45z" />
<glyph unicode="&#x4dc;" horiz-adv-x="2340" d="M776 1567v286h320v-286h-320zM1247 1567v286h320v-286h-320zM29 0l557 756l-510 698h463l372 -534h60v534h399v-534h60l372 534h463l-510 -698l557 -756h-457l-419 557h-66v-557h-399v557h-66l-420 -557h-456z" />
<glyph unicode="&#x4dd;" horiz-adv-x="1882" d="M547 1190v287h319v-287h-319zM1018 1190v287h319v-287h-319zM12 0l359 561l-342 516h430l235 -360h47v360h402v-360h53l231 360h431l-342 -516l360 -561h-440l-240 379h-55v-379h-398v379h-51l-241 -379h-439z" />
<glyph unicode="&#x4de;" horiz-adv-x="1343" d="M276 1567v286h320v-286h-320zM748 1567v286h319v-286h-319zM682 -12q-201 0 -363 78.5t-256 220.5l299 186q48 -74 128 -115t182 -41q194 0 194 134q0 131 -194 131h-203v299h203q87 0 124.5 28t37.5 84t-41 85.5t-138 29.5q-115 0 -195 -39t-122 -106l-287 204 q108 142 256 218.5t365 76.5q263 0 406 -102.5t143 -302.5q0 -99 -47 -182t-148 -130q117 -36 181.5 -125t64.5 -210q0 -136 -78 -232.5t-209.5 -143t-302.5 -46.5z" />
<glyph unicode="&#x4df;" horiz-adv-x="1081" d="M133 1190v287h320v-287h-320zM604 1190v287h320v-287h-320zM545 -20q-364 0 -514 243l309 144q64 -80 182 -80q69 0 103 20.5t34 54.5q0 68 -127 68h-112v234h112q95 0 95 63q0 64 -117 64q-55 0 -91 -18t-63 -56l-290 155q65 107 185.5 166.5t278.5 59.5 q192 0 314.5 -82t122.5 -232q0 -47 -13 -89t-48 -79.5t-89 -56.5q100 -29 150.5 -96t50.5 -162q0 -104 -62.5 -177.5t-168 -108.5t-242.5 -35z" />
<glyph unicode="&#x4e2;" horiz-adv-x="1574" d="M473 1620v231h635v-231h-635zM133 0v1454h399v-889l537 889h373v-1454h-400v864l-530 -864h-379z" />
<glyph unicode="&#x4e3;" horiz-adv-x="1288" d="M330 1243v232h635v-232h-635zM102 0v1077h390v-559l339 559h355v-1077h-389v541l-338 -541h-357z" />
<glyph unicode="&#x4e4;" horiz-adv-x="1574" d="M393 1567v286h320v-286h-320zM864 1567v286h320v-286h-320zM133 0v1454h399v-889l537 889h373v-1454h-400v864l-530 -864h-379z" />
<glyph unicode="&#x4e5;" horiz-adv-x="1288" d="M250 1190v287h319v-287h-319zM721 1190v287h319v-287h-319zM102 0v1077h390v-559l339 559h355v-1077h-389v541l-338 -541h-357z" />
<glyph unicode="&#x4e6;" horiz-adv-x="1566" d="M393 1567v286h320v-286h-320zM864 1567v286h320v-286h-320zM45 729q0 143 56 276.5t153 234.5t236.5 161.5t297.5 60.5q160 0 300 -63.5t233.5 -168t147 -237.5t53.5 -272q0 -142 -55.5 -275t-152 -234.5t-236.5 -162.5t-298 -61q-160 0 -299.5 63t-233.5 167t-148 237.5 t-54 273.5zM784 342q83 0 148.5 33.5t104.5 89.5t59 123t20 141q0 102 -35.5 186t-113 138.5t-185.5 54.5q-83 0 -148 -33t-104 -88t-59 -122t-20 -140q0 -75 20.5 -142.5t60.5 -122t105 -86.5t147 -32z" />
<glyph unicode="&#x4e7;" d="M233 1190v287h320v-287h-320zM705 1190v287h319v-287h-319zM39 539q0 113 39 213t111 177.5t186 123t254 45.5t254 -45.5t186 -123t111 -177.5t39 -213q0 -112 -39 -212t-111 -178t-186 -123.5t-254 -45.5t-254 45.5t-186 123.5t-111 178t-39 212zM629 307q84 0 137 63 t53 169t-53 168.5t-137 62.5q-85 0 -138 -62.5t-53 -168.5t53.5 -169t137.5 -63z" />
<glyph unicode="&#x4e8;" horiz-adv-x="1566" d="M788 1462q160 0 300 -63.5t233.5 -168t147 -237.5t53.5 -272q0 -142 -55.5 -275t-152 -234.5t-236.5 -162.5t-298 -61q-160 0 -299.5 63t-233.5 167t-148 237.5t-54 273.5q0 143 56 276.5t153 234.5t236.5 161.5t297.5 60.5zM782 1108q-130 0 -211 -76.5t-108 -195.5h643 q-28 122 -110.5 197t-213.5 75zM784 342q141 0 223 88t103 221h-653q19 -134 102.5 -221.5t224.5 -87.5z" />
<glyph unicode="&#x4e9;" d="M629 1098q140 0 254 -45.5t186 -123t111 -177.5t39 -213q0 -112 -39 -212t-111 -178t-186 -123.5t-254 -45.5t-254 45.5t-186 123.5t-111 178t-39 212q0 113 39 213t111 177.5t186 123t254 45.5zM629 770q-66 0 -114.5 -40.5t-65.5 -111.5h360q-17 71 -65.5 111.5 t-114.5 40.5zM629 307q67 0 116 42t66 116h-365q17 -73 66 -115.5t117 -42.5z" />
<glyph unicode="&#x4ee;" horiz-adv-x="1349" d="M377 1620v231h635v-231h-635zM246 -14v327h145q54 0 83.5 19.5t39.5 64.5l4 21l-538 1036h440l276 -633l254 633h420l-555 -1243q-62 -126 -149.5 -175.5t-233.5 -49.5h-186z" />
<glyph unicode="&#x4ef;" horiz-adv-x="1136" d="M254 1243v232h635v-232h-635zM90 -109q90 -34 160 -34q125 0 137 143l-391 1077h399l205 -678l166 678h362l-364 -1206q-47 -158 -177 -254t-296 -96q-106 0 -201 39v331z" />
<glyph unicode="&#x4f0;" horiz-adv-x="1349" d="M297 1567v286h319v-286h-319zM768 1567v286h319v-286h-319zM246 -14v327h145q54 0 83.5 19.5t39.5 64.5l4 21l-538 1036h440l276 -633l254 633h420l-555 -1243q-62 -126 -149.5 -175.5t-233.5 -49.5h-186z" />
<glyph unicode="&#x4f1;" horiz-adv-x="1136" d="M174 1190v287h320v-287h-320zM645 1190v287h320v-287h-320zM90 -109q90 -34 160 -34q125 0 137 143l-391 1077h399l205 -678l166 678h362l-364 -1206q-47 -158 -177 -254t-296 -96q-106 0 -201 39v331z" />
<glyph unicode="&#x4f2;" horiz-adv-x="1349" d="M563 1518l-184 65l82 291h284zM952 1518l-184 65l82 291h285zM246 -14v327h145q54 0 83.5 19.5t39.5 64.5l4 21l-538 1036h440l276 -633l254 633h420l-555 -1243q-62 -126 -149.5 -175.5t-233.5 -49.5h-186z" />
<glyph unicode="&#x4f3;" horiz-adv-x="1136" d="M440 1141l-184 65l82 291h285zM829 1141l-184 65l82 291h285zM90 -109q90 -34 160 -34q125 0 137 143l-391 1077h399l205 -678l166 678h362l-364 -1206q-47 -158 -177 -254t-296 -96q-106 0 -201 39v331z" />
<glyph unicode="&#x4f4;" horiz-adv-x="1454" d="M356 1567v286h320v-286h-320zM827 1567v286h320v-286h-320zM940 0v516q-10 -6 -31 -15.5t-93.5 -25.5t-156.5 -16q-274 0 -410 121.5t-136 380.5v493h389v-448q0 -99 55.5 -144t200.5 -45q94 0 182 37v600h389v-1454h-389z" />
<glyph unicode="&#x4f5;" horiz-adv-x="1179" d="M180 1190v287h320v-287h-320zM651 1190v287h320v-287h-320zM688 0v334q-102 -43 -248 -43q-166 0 -267 92.5t-101 259.5v434h389v-383q0 -112 110 -112q63 0 117 22v473h389v-1077h-389z" />
<glyph unicode="&#x4f6;" horiz-adv-x="1132" d="M1081 1106h-549v-758h177v-627h-338v279h-238v1454h948v-348z" />
<glyph unicode="&#x4f7;" horiz-adv-x="901" d="M877 739h-385v-401h176v-608h-349v270h-217v1077h775v-338z" />
<glyph unicode="&#x4f8;" horiz-adv-x="2000" d="M606 1567v286h320v-286h-320zM1077 1567v286h320v-286h-320zM125 0v1454h399v-481h238q245 0 386.5 -128.5t141.5 -352.5q0 -228 -136 -360t-372 -132h-657zM1477 0v1454h399v-1454h-399zM524 324h201q77 0 117.5 44.5t40.5 123.5q0 65 -42.5 111t-115.5 46h-201v-325z " />
<glyph unicode="&#x4f9;" horiz-adv-x="1705" d="M463 1190v287h319v-287h-319zM934 1190v287h319v-287h-319zM102 0v1077h390v-303h155q196 0 306 -102.5t110 -274.5q0 -183 -102.5 -290t-288.5 -107h-570zM1214 0v1077h390v-1077h-390zM492 293h114q49 0 75 27t26 77q0 48 -26 76.5t-75 28.5h-114v-209z" />
<glyph unicode="&#x51a;" horiz-adv-x="1566" d="M1559 0h-373l-66 70q-154 -80 -340 -80q-160 0 -299.5 63t-233.5 166t-148 236.5t-54 273.5q0 143 56 277t153 235t236.5 162t297.5 61q160 0 300 -64t233.5 -168.5t147 -238t53.5 -272.5q0 -132 -48 -257t-135 -224zM784 344q45 0 78 8l-241 262h372l80 -88 q43 90 43 203q0 102 -35.5 186.5t-113 139.5t-185.5 55q-83 0 -148 -33t-104 -88.5t-59 -123t-20 -140.5q0 -75 20.5 -142t60.5 -121t105 -86t147 -32z" />
<glyph unicode="&#x51b;" horiz-adv-x="1325" d="M43 543q0 239 141.5 397t356.5 158q227 0 348 -187v166h338v-1515h-389v598q-46 -88 -132.5 -134t-203.5 -46q-198 0 -328.5 160t-130.5 403zM838 418v192q-28 71 -84 115.5t-117 44.5q-84 0 -140.5 -69.5t-56.5 -168.5q0 -101 59 -163t154 -62q109 0 185 111z" />
<glyph unicode="&#x51c;" horiz-adv-x="2164" d="M582 1454h366l133 -448l136 448h366l-246 -694l105 -297l313 991h434l-549 -1454h-346l-213 520l-211 -520h-346l-549 1454h433l315 -991l100 297z" />
<glyph unicode="&#x51d;" horiz-adv-x="1765" d="M1419 1077h367l-440 -1077h-318l-145 410l-146 -410h-317l-440 1077h366l256 -712l72 241l-197 471h314l92 -315l92 315h313l-196 -471l71 -241z" />
<glyph unicode="&#x524;" horiz-adv-x="1628" d="M1380 348h187v-627h-338v279h-248v1106h-449v-1106h-399v1454h1247v-1106z" />
<glyph unicode="&#x525;" horiz-adv-x="1386" d="M1157 338h176v-608h-348v270h-217v739h-276v-739h-390v1077h1055v-739z" />
<glyph unicode="&#x1e08;" horiz-adv-x="1415" d="M1114 1872l-203 -356l-245 65l102 291h346zM1399 326q-53 -130 -194 -217t-312 -113q100 -100 100 -215q0 -98 -63.5 -165t-184.5 -67q-122 0 -253 70l90 199q45 -39 98 -39q38 0 62 21.5t24 58.5q0 63 -78 135q-140 17 -261.5 87.5t-204 173t-130 229t-47.5 255.5 q0 134 51.5 262.5t144 231.5t235.5 166t312 63q205 0 362 -86t234 -231l-305 -217q-20 51 -54 87.5t-76 56t-83.5 28t-85.5 8.5q-82 0 -147 -33.5t-103.5 -89t-58.5 -121.5t-20 -137q0 -159 91 -272t242 -113q59 0 113 16.5t103.5 58t72.5 103.5z" />
<glyph unicode="&#x1e09;" horiz-adv-x="1181" d="M956 1495l-202 -356l-246 65l102 291h346zM629 307q94 0 149 80l379 -115q-58 -111 -159.5 -185t-241.5 -97q92 -99 92 -209q0 -98 -63.5 -165t-184.5 -67q-123 0 -254 70l90 199q45 -39 99 -39q38 0 62 21.5t24 58.5q0 60 -68 125q-161 16 -279.5 97.5t-176.5 200 t-58 257.5q0 112 39.5 212t113 178t187 123.5t252.5 45.5q188 0 322.5 -79t203.5 -214l-379 -115q-55 80 -149 80q-82 0 -136.5 -62.5t-54.5 -168.5t54.5 -169t136.5 -63z" />
<glyph unicode="&#x1e0c;" horiz-adv-x="1466" d="M125 0v1454h559q176 0 317.5 -56.5t231 -156t137 -230t47.5 -282.5q0 -330 -200.5 -529.5t-532.5 -199.5h-559zM684 1106h-160v-758h160q153 0 240.5 106t87.5 275q0 171 -88 274t-240 103zM559 -438v307h348v-307h-348z" />
<glyph unicode="&#x1e0d;" horiz-adv-x="1361" d="M41 541q0 157 59.5 284t167.5 200t244 73q105 0 193 -48t133 -132v577h389v-1065q0 -55 16 -77t57 -25v-328q-100 -20 -163 -20q-200 0 -230 149l-8 39q-53 -94 -146 -141t-204 -47q-223 0 -365.5 157t-142.5 404zM840 418v192q-28 71 -84 115.5t-117 44.5 q-84 0 -140.5 -69.5t-56.5 -168.5q0 -101 59 -163t154 -62q109 0 185 111zM508 -438v307h348v-307h-348z" />
<glyph unicode="&#x1e0e;" horiz-adv-x="1466" d="M125 0v1454h559q176 0 317.5 -56.5t231 -156t137 -230t47.5 -282.5q0 -330 -200.5 -529.5t-532.5 -199.5h-559zM684 1106h-160v-758h160q153 0 240.5 106t87.5 275q0 171 -88 274t-240 103zM416 -383v231h635v-231h-635z" />
<glyph unicode="&#x1e0f;" horiz-adv-x="1361" d="M41 541q0 157 59.5 284t167.5 200t244 73q105 0 193 -48t133 -132v577h389v-1065q0 -55 16 -77t57 -25v-328q-100 -20 -163 -20q-200 0 -230 149l-8 39q-53 -94 -146 -141t-204 -47q-223 0 -365.5 157t-142.5 404zM840 418v192q-28 71 -84 115.5t-117 44.5 q-84 0 -140.5 -69.5t-56.5 -168.5q0 -101 59 -163t154 -62q109 0 185 111zM365 -383v231h634v-231h-634z" />
<glyph unicode="&#x1e14;" horiz-adv-x="1222" d="M342 2269h346l103 -291l-246 -65zM332 1620v231h635v-231h-635zM1161 348v-348h-1036v1454h1018v-348h-619v-205h529v-323h-529v-230h637z" />
<glyph unicode="&#x1e15;" horiz-adv-x="1247" d="M324 1892h346l102 -290l-246 -66zM313 1243v232h635v-232h-635zM629 -20q-111 0 -206.5 29t-165 79.5t-119.5 119t-74.5 149t-24.5 167.5q0 118 38.5 221t111.5 182t186.5 125t253.5 46t254 -45.5t186 -123t111 -177.5t39 -213q0 -59 -11 -119h-755q6 -81 60 -121.5 t128 -40.5q65 0 121 30t74 79l329 -95q-69 -134 -207.5 -213t-328.5 -79zM444 653h357q-9 78 -56.5 123t-121.5 45t-122 -45t-57 -123z" />
<glyph unicode="&#x1e16;" horiz-adv-x="1222" d="M772 1913l-246 65l103 291h346zM332 1620v231h635v-231h-635zM1161 348v-348h-1036v1454h1018v-348h-619v-205h529v-323h-529v-230h637z" />
<glyph unicode="&#x1e17;" horiz-adv-x="1247" d="M754 1536l-246 66l102 290h346zM313 1243v232h635v-232h-635zM629 -20q-111 0 -206.5 29t-165 79.5t-119.5 119t-74.5 149t-24.5 167.5q0 118 38.5 221t111.5 182t186.5 125t253.5 46t254 -45.5t186 -123t111 -177.5t39 -213q0 -59 -11 -119h-755q6 -81 60 -121.5 t128 -40.5q65 0 121 30t74 79l329 -95q-69 -134 -207.5 -213t-328.5 -79zM444 653h357q-9 78 -56.5 123t-121.5 45t-122 -45t-57 -123z" />
<glyph unicode="&#x1e1c;" horiz-adv-x="1222" d="M647 1540q-144 0 -234.5 92.5t-90.5 239.5h200q0 -68 37 -117t88 -49q47 0 83 47t42 119h201q0 -147 -91 -239.5t-235 -92.5zM1161 348v-348h-401q104 -101 104 -219q0 -98 -63.5 -165t-184.5 -67q-123 0 -254 70l91 199q45 -39 98 -39q38 0 62 21.5t24 58.5 q0 68 -86 141h-426v1454h1018v-348h-619v-205h529v-323h-529v-230h637z" />
<glyph unicode="&#x1e1d;" horiz-adv-x="1247" d="M629 1163q-144 0 -235 92.5t-91 239.5h201q0 -68 37 -117t88 -49q47 0 83 47t42 119h200q0 -147 -90.5 -239.5t-234.5 -92.5zM1219 539q0 -59 -11 -119h-755q6 -81 60 -121.5t128 -40.5q65 0 121 30t74 79l329 -95q-57 -111 -162 -185t-249 -97q92 -99 92 -209 q0 -98 -63.5 -165t-184.5 -67q-123 0 -254 70l90 199q45 -39 98 -39q38 0 62 21.5t24 58.5q0 61 -67 125q-160 16 -278 94.5t-176 194t-58 251.5q0 118 38.5 221t111.5 182t186.5 125t253.5 46t254 -45.5t186 -123t111 -177.5t39 -213zM444 653h357q-9 78 -56.5 123 t-121.5 45t-122 -45t-57 -123z" />
<glyph unicode="&#x1e20;" horiz-adv-x="1513" d="M1112 1851v-231h-635v231h635zM844 774h598v-774h-330v121q-154 -131 -358 -131q-143 0 -270.5 51.5t-225 145t-154.5 236.5t-57 316q0 151 58 285t157 230.5t237.5 153t293.5 56.5q197 0 356 -85t237 -232l-296 -227q-42 86 -129 138t-183 52q-142 0 -233.5 -108 t-91.5 -277q0 -171 92.5 -276t242.5 -105q171 0 308 143h-252v287z" />
<glyph unicode="&#x1e21;" horiz-adv-x="1325" d="M352 1243v232h635v-232h-635zM43 541q0 242 141 399.5t361 157.5q116 0 204.5 -46t139.5 -134v159h338v-979q0 -251 -180.5 -403t-475.5 -152q-320 0 -524 207l205 213q62 -59 145.5 -95t173.5 -36q116 0 191.5 65t75.5 201v70q-44 -82 -131.5 -125t-194.5 -43 q-138 0 -245.5 71.5t-165.5 194.5t-58 275zM838 418v192q-29 73 -85 116.5t-118 43.5q-82 0 -138.5 -70.5t-56.5 -169.5t59 -161t152 -62q111 0 187 111z" />
<glyph unicode="&#x1e24;" horiz-adv-x="1536" d="M1411 1454v-1454h-399v569h-488v-569h-399v1454h399v-536h488v536h399zM594 -438v307h348v-307h-348z" />
<glyph unicode="&#x1e25;" horiz-adv-x="1271" d="M1182 0h-389v606q0 76 -34 114t-91 38q-42 0 -98.5 -44t-82.5 -110v-604h-389v1495h389v-577q57 87 149.5 133.5t207.5 46.5q87 0 151 -26t99 -64.5t56 -94.5t26.5 -102t5.5 -102v-709zM463 -438v307h348v-307h-348z" />
<glyph unicode="&#x1e2a;" horiz-adv-x="1536" d="M1411 1454v-1454h-399v569h-488v-569h-399v1454h399v-536h488v536h399zM893 -104h201q0 -147 -91 -239.5t-235 -92.5t-235 92.5t-91 239.5h201q0 -68 37 -117t88 -49q47 0 83 47t42 119z" />
<glyph unicode="&#x1e2b;" horiz-adv-x="1271" d="M1182 0h-389v606q0 76 -34 114t-91 38q-42 0 -98.5 -44t-82.5 -110v-604h-389v1495h389v-577q57 87 149.5 133.5t207.5 46.5q87 0 151 -26t99 -64.5t56 -94.5t26.5 -102t5.5 -102v-709zM762 -104h201q0 -147 -91 -239.5t-235 -92.5t-235 92.5t-91 239.5h201 q0 -68 37 -117t88 -49q47 0 83 47t42 119z" />
<glyph unicode="&#x1e2e;" horiz-adv-x="649" d="M446 1915l-245 65l102 291h346zM-72 1567v286h320v-286h-320zM399 1567v286h320v-286h-320zM125 0v1454h399v-1454h-399z" />
<glyph unicode="&#x1e2f;" horiz-adv-x="585" d="M416 1538l-246 66l102 290h346zM-102 1190v287h319v-287h-319zM369 1190v287h319v-287h-319zM98 0v1077h389v-1077h-389z" />
<glyph unicode="&#x1e36;" horiz-adv-x="1198" d="M125 0v1454h399v-1106h660v-348h-1059zM516 -438v307h348v-307h-348z" />
<glyph unicode="&#x1e37;" horiz-adv-x="727" d="M90 1495h389v-1067q0 -123 101 -123q49 0 106 31l49 -287q-68 -32 -155.5 -50.5t-165.5 -18.5q-156 0 -240 80.5t-84 230.5v1204zM240 -438v307h348v-307h-348z" />
<glyph unicode="&#x1e3a;" horiz-adv-x="1198" d="M125 0v1454h399v-1106h660v-348h-1059zM373 -383v231h635v-231h-635z" />
<glyph unicode="&#x1e3b;" horiz-adv-x="727" d="M90 1495h389v-1067q0 -123 101 -123q49 0 106 31l49 -287q-68 -32 -155.5 -50.5t-165.5 -18.5q-156 0 -240 80.5t-84 230.5v1204zM96 -383v231h635v-231h-635z" />
<glyph unicode="&#x1e42;" horiz-adv-x="1748" d="M1225 0v766l-244 -539h-213l-244 539v-766h-399v1454h436l313 -684l316 684h434v-1454h-399zM700 -438v307h349v-307h-349z" />
<glyph unicode="&#x1e43;" horiz-adv-x="1925" d="M1835 0h-389v606q0 75 -30.5 113.5t-78.5 38.5q-47 0 -99.5 -44t-76.5 -110v-604h-389v606q0 76 -30.5 114t-77.5 38t-100 -44.5t-77 -109.5v-604h-389v1077h351v-159q117 180 395 180q122 0 193.5 -53t97.5 -134q57 88 157.5 137.5t225.5 49.5q68 0 121.5 -18t87 -50.5 t56 -70t33.5 -85t15 -85.5t4 -80v-709zM788 -438v307h349v-307h-349z" />
<glyph unicode="&#x1e44;" horiz-adv-x="1544" d="M592 1563v307h348v-307h-348zM524 715v-715h-399v1454h311l584 -739v739h399v-1454h-317z" />
<glyph unicode="&#x1e45;" horiz-adv-x="1271" d="M508 1188v307h348v-307h-348zM1182 0h-389v606q0 75 -34 113.5t-85 38.5t-106 -44t-81 -110v-604h-389v1077h351v-159q57 88 161 134t244 46q70 0 125.5 -18t90 -50.5t58 -70t35 -85t15.5 -85.5t4 -80v-709z" />
<glyph unicode="&#x1e46;" horiz-adv-x="1544" d="M524 715v-715h-399v1454h311l584 -739v739h399v-1454h-317zM592 -438v307h348v-307h-348z" />
<glyph unicode="&#x1e47;" horiz-adv-x="1271" d="M1182 0h-389v606q0 75 -34 113.5t-85 38.5t-106 -44t-81 -110v-604h-389v1077h351v-159q57 88 161 134t244 46q70 0 125.5 -18t90 -50.5t58 -70t35 -85t15.5 -85.5t4 -80v-709zM463 -438v307h348v-307h-348z" />
<glyph unicode="&#x1e48;" horiz-adv-x="1544" d="M524 715v-715h-399v1454h311l584 -739v739h399v-1454h-317zM449 -383v231h634v-231h-634z" />
<glyph unicode="&#x1e49;" horiz-adv-x="1271" d="M1182 0h-389v606q0 75 -34 113.5t-85 38.5t-106 -44t-81 -110v-604h-389v1077h351v-159q57 88 161 134t244 46q70 0 125.5 -18t90 -50.5t58 -70t35 -85t15.5 -85.5t4 -80v-709zM319 -383v231h635v-231h-635z" />
<glyph unicode="&#x1e4c;" horiz-adv-x="1566" d="M911 1933l-245 66l102 291h346zM655 1647q-26 0 -45 -10t-28 -23t-14 -29.5t-6 -24t-1 -12.5h-207q0 24 9.5 61.5t32 83.5t54 85.5t81.5 66.5t108 27q45 0 86 -16.5t67 -36t59 -36t64 -16.5q25 0 45 10.5t30.5 24.5t17 30.5t8.5 26t2 13.5h205q0 -17 -10 -52t-33 -82.5 t-55 -89t-84 -71t-111 -29.5q-53 0 -102.5 25t-92.5 49.5t-80 24.5zM45 729q0 143 56 276.5t153 234.5t236.5 161.5t297.5 60.5q160 0 300 -63.5t233.5 -168t147 -237.5t53.5 -272q0 -142 -55.5 -275t-152 -234.5t-236.5 -162.5t-298 -61q-160 0 -299.5 63t-233.5 167 t-148 237.5t-54 273.5zM784 342q83 0 148.5 33.5t104.5 89.5t59 123t20 141q0 102 -35.5 186t-113 138.5t-185.5 54.5q-83 0 -148 -33t-104 -88t-59 -122t-20 -140q0 -75 20.5 -142.5t60.5 -122t105 -86.5t147 -32z" />
<glyph unicode="&#x1e4d;" d="M752 1556l-246 66l102 291h346zM496 1270q-26 0 -45 -10t-28 -23t-14.5 -29.5t-6.5 -24.5t-1 -12h-206q0 24 9.5 61.5t32 83.5t53.5 85.5t81 66.5t108 27q45 0 86 -16.5t67 -35.5t59.5 -35.5t64.5 -16.5q25 0 45 10.5t30 24.5t16.5 30t8.5 25.5t2 13.5h205q0 -17 -10 -52 t-33 -82.5t-55 -89t-84 -71t-111 -29.5q-42 0 -82.5 15.5t-67 34t-60.5 34t-64 15.5zM39 539q0 113 39 213t111 177.5t186 123t254 45.5t254 -45.5t186 -123t111 -177.5t39 -213q0 -112 -39 -212t-111 -178t-186 -123.5t-254 -45.5t-254 45.5t-186 123.5t-111 178t-39 212z M629 307q84 0 137 63t53 169t-53 168.5t-137 62.5q-85 0 -138 -62.5t-53 -168.5t53.5 -169t137.5 -63z" />
<glyph unicode="&#x1e4e;" horiz-adv-x="1566" d="M393 1985v286h320v-286h-320zM864 1985v286h320v-286h-320zM655 1647q-26 0 -45 -10t-28 -23t-14 -29.5t-6 -24t-1 -12.5h-207q0 24 9.5 61.5t32 83.5t54 85.5t81.5 66.5t108 27q45 0 86 -16.5t67 -36t59 -36t64 -16.5q25 0 45 10.5t30.5 24.5t17 30.5t8.5 26t2 13.5h205 q0 -17 -10 -52t-33 -82.5t-55 -89t-84 -71t-111 -29.5q-53 0 -102.5 25t-92.5 49.5t-80 24.5zM45 729q0 143 56 276.5t153 234.5t236.5 161.5t297.5 60.5q160 0 300 -63.5t233.5 -168t147 -237.5t53.5 -272q0 -142 -55.5 -275t-152 -234.5t-236.5 -162.5t-298 -61 q-160 0 -299.5 63t-233.5 167t-148 237.5t-54 273.5zM784 342q83 0 148.5 33.5t104.5 89.5t59 123t20 141q0 102 -35.5 186t-113 138.5t-185.5 54.5q-83 0 -148 -33t-104 -88t-59 -122t-20 -140q0 -75 20.5 -142.5t60.5 -122t105 -86.5t147 -32z" />
<glyph unicode="&#x1e4f;" d="M233 1608v286h320v-286h-320zM705 1608v286h319v-286h-319zM496 1270q-26 0 -45 -10t-28 -23t-14.5 -29.5t-6.5 -24.5t-1 -12h-206q0 24 9.5 61.5t32 83.5t53.5 85.5t81 66.5t108 27q45 0 86 -16.5t67 -35.5t59.5 -35.5t64.5 -16.5q25 0 45 10.5t30 24.5t16.5 30 t8.5 25.5t2 13.5h205q0 -17 -10 -52t-33 -82.5t-55 -89t-84 -71t-111 -29.5q-42 0 -82.5 15.5t-67 34t-60.5 34t-64 15.5zM39 539q0 113 39 213t111 177.5t186 123t254 45.5t254 -45.5t186 -123t111 -177.5t39 -213q0 -112 -39 -212t-111 -178t-186 -123.5t-254 -45.5 t-254 45.5t-186 123.5t-111 178t-39 212zM629 307q84 0 137 63t53 169t-53 168.5t-137 62.5q-85 0 -138 -62.5t-53 -168.5t53.5 -169t137.5 -63z" />
<glyph unicode="&#x1e50;" horiz-adv-x="1566" d="M483 2269h346l103 -291l-246 -65zM473 1620v231h635v-231h-635zM45 729q0 143 56 276.5t153 234.5t236.5 161.5t297.5 60.5q160 0 300 -63.5t233.5 -168t147 -237.5t53.5 -272q0 -142 -55.5 -275t-152 -234.5t-236.5 -162.5t-298 -61q-160 0 -299.5 63t-233.5 167 t-148 237.5t-54 273.5zM784 342q83 0 148.5 33.5t104.5 89.5t59 123t20 141q0 102 -35.5 186t-113 138.5t-185.5 54.5q-83 0 -148 -33t-104 -88t-59 -122t-20 -140q0 -75 20.5 -142.5t60.5 -122t105 -86.5t147 -32z" />
<glyph unicode="&#x1e51;" d="M324 1892h346l102 -290l-246 -66zM313 1243v232h635v-232h-635zM39 539q0 113 39 213t111 177.5t186 123t254 45.5t254 -45.5t186 -123t111 -177.5t39 -213q0 -112 -39 -212t-111 -178t-186 -123.5t-254 -45.5t-254 45.5t-186 123.5t-111 178t-39 212zM629 307 q84 0 137 63t53 169t-53 168.5t-137 62.5q-85 0 -138 -62.5t-53 -168.5t53.5 -169t137.5 -63z" />
<glyph unicode="&#x1e52;" horiz-adv-x="1566" d="M913 1913l-245 65l102 291h346zM473 1620v231h635v-231h-635zM45 729q0 143 56 276.5t153 234.5t236.5 161.5t297.5 60.5q160 0 300 -63.5t233.5 -168t147 -237.5t53.5 -272q0 -142 -55.5 -275t-152 -234.5t-236.5 -162.5t-298 -61q-160 0 -299.5 63t-233.5 167 t-148 237.5t-54 273.5zM784 342q83 0 148.5 33.5t104.5 89.5t59 123t20 141q0 102 -35.5 186t-113 138.5t-185.5 54.5q-83 0 -148 -33t-104 -88t-59 -122t-20 -140q0 -75 20.5 -142.5t60.5 -122t105 -86.5t147 -32z" />
<glyph unicode="&#x1e53;" d="M754 1536l-246 66l102 290h346zM313 1243v232h635v-232h-635zM39 539q0 113 39 213t111 177.5t186 123t254 45.5t254 -45.5t186 -123t111 -177.5t39 -213q0 -112 -39 -212t-111 -178t-186 -123.5t-254 -45.5t-254 45.5t-186 123.5t-111 178t-39 212zM629 307q84 0 137 63 t53 169t-53 168.5t-137 62.5q-85 0 -138 -62.5t-53 -168.5t53.5 -169t137.5 -63z" />
<glyph unicode="&#x1e5a;" horiz-adv-x="1382" d="M125 0v1454h668q103 0 196 -44t156 -115t100 -161.5t37 -183.5q0 -126 -55.5 -236t-153.5 -179l307 -535h-438l-256 446h-162v-446h-399zM524 795h252q39 0 70 42.5t31 112.5t-35 113t-76 43h-242v-311zM551 -438v307h348v-307h-348z" />
<glyph unicode="&#x1e5b;" horiz-adv-x="851" d="M829 745q-260 0 -342 -106v-639h-389v1077h357v-205q57 107 142.5 166.5t182.5 59.5q39 0 49 -2v-351zM104 -438v307h349v-307h-349z" />
<glyph unicode="&#x1e5e;" horiz-adv-x="1382" d="M125 0v1454h668q103 0 196 -44t156 -115t100 -161.5t37 -183.5q0 -126 -55.5 -236t-153.5 -179l307 -535h-438l-256 446h-162v-446h-399zM524 795h252q39 0 70 42.5t31 112.5t-35 113t-76 43h-242v-311zM408 -383v231h634v-231h-634z" />
<glyph unicode="&#x1e5f;" horiz-adv-x="851" d="M829 745q-260 0 -342 -106v-639h-389v1077h357v-205q57 107 142.5 166.5t182.5 59.5q39 0 49 -2v-351zM-39 -383v231h635v-231h-635z" />
<glyph unicode="&#x1e60;" horiz-adv-x="1263" d="M469 1565v307h348v-307h-348zM1006 979q-9 5 -24 14t-61 32t-90 40.5t-102.5 32t-107.5 14.5q-117 0 -117 -72q0 -16 5.5 -29t19.5 -24t27.5 -19t41.5 -18t48 -16t61 -18.5t67 -20.5q88 -27 149.5 -53t119.5 -63.5t93 -82.5t55.5 -108.5t20.5 -143.5q0 -101 -32 -182 t-84.5 -132.5t-125.5 -85.5t-149.5 -48t-161.5 -14q-157 0 -329 46.5t-303 123.5l172 350q10 -7 27.5 -17.5t72 -38t107.5 -48.5t125.5 -38.5t134.5 -17.5q116 0 116 64q0 24 -15 42.5t-50 34t-67.5 26t-92 28t-98.5 30.5q-196 66 -282.5 158.5t-86.5 249.5q0 117 44.5 212 t120 155t172.5 92t206 32q233 0 545 -157z" />
<glyph unicode="&#x1e61;" horiz-adv-x="1026" d="M356 1188v307h349v-307h-349zM530 -20q-144 0 -279.5 47t-227.5 133l133 239q210 -139 362 -139q84 0 84 49q0 25 -30 40.5t-111 41.5q-57 20 -90.5 32.5t-76.5 30t-67 31.5t-52 33.5t-42.5 39t-28.5 44.5t-19 54.5t-5 64.5q0 169 124 274t339 105q247 0 430 -156 l-148 -237q-189 116 -299 116q-86 0 -86 -57q0 -29 29.5 -45.5t108.5 -38.5q90 -28 148 -49.5t110.5 -50.5t80.5 -61.5t44 -76.5t16 -102q0 -169 -120 -265.5t-327 -96.5z" />
<glyph unicode="&#x1e62;" horiz-adv-x="1263" d="M1006 979q-9 5 -24 14t-61 32t-90 40.5t-102.5 32t-107.5 14.5q-117 0 -117 -72q0 -16 5.5 -29t19.5 -24t27.5 -19t41.5 -18t48 -16t61 -18.5t67 -20.5q88 -27 149.5 -53t119.5 -63.5t93 -82.5t55.5 -108.5t20.5 -143.5q0 -101 -32 -182t-84.5 -132.5t-125.5 -85.5 t-149.5 -48t-161.5 -14q-157 0 -329 46.5t-303 123.5l172 350q10 -7 27.5 -17.5t72 -38t107.5 -48.5t125.5 -38.5t134.5 -17.5q116 0 116 64q0 24 -15 42.5t-50 34t-67.5 26t-92 28t-98.5 30.5q-196 66 -282.5 158.5t-86.5 249.5q0 117 44.5 212t120 155t172.5 92t206 32 q233 0 545 -157zM489 -438v307h349v-307h-349z" />
<glyph unicode="&#x1e63;" horiz-adv-x="1026" d="M530 -20q-144 0 -279.5 47t-227.5 133l133 239q210 -139 362 -139q84 0 84 49q0 25 -30 40.5t-111 41.5q-57 20 -90.5 32.5t-76.5 30t-67 31.5t-52 33.5t-42.5 39t-28.5 44.5t-19 54.5t-5 64.5q0 169 124 274t339 105q247 0 430 -156l-148 -237q-189 116 -299 116 q-86 0 -86 -57q0 -29 29.5 -45.5t108.5 -38.5q90 -28 148 -49.5t110.5 -50.5t80.5 -61.5t44 -76.5t16 -102q0 -169 -120 -265.5t-327 -96.5zM362 -438v307h349v-307h-349z" />
<glyph unicode="&#x1e64;" horiz-adv-x="1263" d="M571 1982v308h349v-308h-349zM766 1516l-246 65l103 291h346zM1006 979q-9 5 -24 14t-61 32t-90 40.5t-102.5 32t-107.5 14.5q-117 0 -117 -72q0 -16 5.5 -29t19.5 -24t27.5 -19t41.5 -18t48 -16t61 -18.5t67 -20.5q88 -27 149.5 -53t119.5 -63.5t93 -82.5t55.5 -108.5 t20.5 -143.5q0 -101 -32 -182t-84.5 -132.5t-125.5 -85.5t-149.5 -48t-161.5 -14q-157 0 -329 46.5t-303 123.5l172 350q10 -7 27.5 -17.5t72 -38t107.5 -48.5t125.5 -38.5t134.5 -17.5q116 0 116 64q0 24 -15 42.5t-50 34t-67.5 26t-92 28t-98.5 30.5q-196 66 -282.5 158.5 t-86.5 249.5q0 117 44.5 212t120 155t172.5 92t206 32q233 0 545 -157z" />
<glyph unicode="&#x1e65;" horiz-adv-x="1026" d="M459 1606v307h348v-307h-348zM653 1139l-245 65l102 291h346zM530 -20q-144 0 -279.5 47t-227.5 133l133 239q210 -139 362 -139q84 0 84 49q0 25 -30 40.5t-111 41.5q-57 20 -90.5 32.5t-76.5 30t-67 31.5t-52 33.5t-42.5 39t-28.5 44.5t-19 54.5t-5 64.5q0 169 124 274 t339 105q247 0 430 -156l-148 -237q-189 116 -299 116q-86 0 -86 -57q0 -29 29.5 -45.5t108.5 -38.5q90 -28 148 -49.5t110.5 -50.5t80.5 -61.5t44 -76.5t16 -102q0 -169 -120 -265.5t-327 -96.5z" />
<glyph unicode="&#x1e66;" horiz-adv-x="1263" d="M469 1982v308h348v-308h-348zM469 1872l174 -129l174 129l197 -86l-232 -236h-278l-232 236zM1006 979q-9 5 -24 14t-61 32t-90 40.5t-102.5 32t-107.5 14.5q-117 0 -117 -72q0 -16 5.5 -29t19.5 -24t27.5 -19t41.5 -18t48 -16t61 -18.5t67 -20.5q88 -27 149.5 -53 t119.5 -63.5t93 -82.5t55.5 -108.5t20.5 -143.5q0 -101 -32 -182t-84.5 -132.5t-125.5 -85.5t-149.5 -48t-161.5 -14q-157 0 -329 46.5t-303 123.5l172 350q10 -7 27.5 -17.5t72 -38t107.5 -48.5t125.5 -38.5t134.5 -17.5q116 0 116 64q0 24 -15 42.5t-50 34t-67.5 26 t-92 28t-98.5 30.5q-196 66 -282.5 158.5t-86.5 249.5q0 117 44.5 212t120 155t172.5 92t206 32q233 0 545 -157z" />
<glyph unicode="&#x1e67;" horiz-adv-x="1026" d="M356 1606v307h349v-307h-349zM356 1495l174 -129l175 129l196 -86l-231 -235h-279l-231 235zM530 -20q-144 0 -279.5 47t-227.5 133l133 239q210 -139 362 -139q84 0 84 49q0 25 -30 40.5t-111 41.5q-57 20 -90.5 32.5t-76.5 30t-67 31.5t-52 33.5t-42.5 39t-28.5 44.5 t-19 54.5t-5 64.5q0 169 124 274t339 105q247 0 430 -156l-148 -237q-189 116 -299 116q-86 0 -86 -57q0 -29 29.5 -45.5t108.5 -38.5q90 -28 148 -49.5t110.5 -50.5t80.5 -61.5t44 -76.5t16 -102q0 -169 -120 -265.5t-327 -96.5z" />
<glyph unicode="&#x1e68;" horiz-adv-x="1263" d="M469 1565v307h348v-307h-348zM1006 979q-9 5 -24 14t-61 32t-90 40.5t-102.5 32t-107.5 14.5q-117 0 -117 -72q0 -16 5.5 -29t19.5 -24t27.5 -19t41.5 -18t48 -16t61 -18.5t67 -20.5q88 -27 149.5 -53t119.5 -63.5t93 -82.5t55.5 -108.5t20.5 -143.5q0 -101 -32 -182 t-84.5 -132.5t-125.5 -85.5t-149.5 -48t-161.5 -14q-157 0 -329 46.5t-303 123.5l172 350q10 -7 27.5 -17.5t72 -38t107.5 -48.5t125.5 -38.5t134.5 -17.5q116 0 116 64q0 24 -15 42.5t-50 34t-67.5 26t-92 28t-98.5 30.5q-196 66 -282.5 158.5t-86.5 249.5q0 117 44.5 212 t120 155t172.5 92t206 32q233 0 545 -157zM489 -438v307h349v-307h-349z" />
<glyph unicode="&#x1e69;" horiz-adv-x="1026" d="M356 1188v307h349v-307h-349zM530 -20q-144 0 -279.5 47t-227.5 133l133 239q210 -139 362 -139q84 0 84 49q0 25 -30 40.5t-111 41.5q-57 20 -90.5 32.5t-76.5 30t-67 31.5t-52 33.5t-42.5 39t-28.5 44.5t-19 54.5t-5 64.5q0 169 124 274t339 105q247 0 430 -156 l-148 -237q-189 116 -299 116q-86 0 -86 -57q0 -29 29.5 -45.5t108.5 -38.5q90 -28 148 -49.5t110.5 -50.5t80.5 -61.5t44 -76.5t16 -102q0 -169 -120 -265.5t-327 -96.5zM362 -438v307h349v-307h-349z" />
<glyph unicode="&#x1e6c;" horiz-adv-x="1277" d="M1257 1106h-417v-1106h-400v1106h-420v348h1237v-348zM463 -438v307h348v-307h-348z" />
<glyph unicode="&#x1e6d;" horiz-adv-x="866" d="M854 59q-190 -82 -358 -82q-69 0 -125.5 17t-102 52.5t-71 97.5t-25.5 147v493h-133v293h133v338h389v-338h211v-293h-211v-356q0 -96 84 -96q53 0 139 35zM317 -438v307h349v-307h-349z" />
<glyph unicode="&#x1e6e;" horiz-adv-x="1277" d="M1257 1106h-417v-1106h-400v1106h-420v348h1237v-348zM319 -383v231h635v-231h-635z" />
<glyph unicode="&#x1e6f;" horiz-adv-x="866" d="M854 59q-190 -82 -358 -82q-69 0 -125.5 17t-102 52.5t-71 97.5t-25.5 147v493h-133v293h133v338h389v-338h211v-293h-211v-356q0 -96 84 -96q53 0 139 35zM174 -383v231h635v-231h-635z" />
<glyph unicode="&#x1e78;" horiz-adv-x="1521" d="M883 1933l-246 66l102 291h346zM627 1647q-26 0 -45 -10t-28 -23t-14.5 -29.5t-6.5 -24.5t-1 -12h-206q0 24 9.5 61.5t32 83.5t53.5 85.5t81 66.5t108 27q45 0 86 -16.5t67 -36t59.5 -36t64.5 -16.5q25 0 45 10.5t30 24.5t16.5 30.5t8.5 26t2 13.5h205q0 -17 -10 -52 t-33 -82.5t-55 -89t-84 -71t-111 -29.5q-42 0 -82.5 15.5t-67 34t-60.5 34t-64 15.5zM760 -12q-136 0 -246.5 38t-186 104t-126.5 158t-74 196.5t-23 222.5v747h400v-747q0 -75 14.5 -139t44 -115.5t80 -81t117.5 -29.5q68 0 119 30t80.5 82.5t44 116t14.5 136.5v747h399 v-747q0 -155 -40 -284t-118.5 -227t-206 -153t-292.5 -55z" />
<glyph unicode="&#x1e79;" horiz-adv-x="1306" d="M754 1556l-246 66l102 291h346zM498 1270q-26 0 -45 -10t-28 -23t-14.5 -29.5t-6.5 -24.5t-1 -12h-206q0 24 9.5 61.5t32 83.5t53.5 85.5t81 66.5t108 27q45 0 86 -16.5t67 -35.5t59.5 -35.5t64.5 -16.5q25 0 45 10.5t30 24.5t16.5 30t8.5 25.5t2 13.5h205q0 -17 -10 -52 t-33 -82.5t-55 -89t-84 -71t-111 -29.5q-42 0 -82.5 15.5t-67 34t-60.5 34t-64 15.5zM88 369v708h389v-620q0 -70 31.5 -110t87.5 -40q110 0 186 111v659h389v-647q0 -55 16 -77t58 -25v-328q-100 -20 -164 -20q-199 0 -229 149l-8 39q-141 -188 -420 -188 q-163 0 -249.5 100t-86.5 289z" />
<glyph unicode="&#x1e7a;" horiz-adv-x="1521" d="M367 1964v287h319v-287h-319zM838 1964v287h319v-287h-319zM444 1620v231h635v-231h-635zM760 -12q-136 0 -246.5 38t-186 104t-126.5 158t-74 196.5t-23 222.5v747h400v-747q0 -75 14.5 -139t44 -115.5t80 -81t117.5 -29.5q68 0 119 30t80.5 82.5t44 116t14.5 136.5v747 h399v-747q0 -155 -40 -284t-118.5 -227t-206 -153t-292.5 -55z" />
<glyph unicode="&#x1e7b;" horiz-adv-x="1306" d="M238 1587v287h319v-287h-319zM709 1587v287h319v-287h-319zM315 1243v232h635v-232h-635zM88 369v708h389v-620q0 -70 31.5 -110t87.5 -40q110 0 186 111v659h389v-647q0 -55 16 -77t58 -25v-328q-100 -20 -164 -20q-199 0 -229 149l-8 39q-141 -188 -420 -188 q-163 0 -249.5 100t-86.5 289z" />
<glyph unicode="&#x1e80;" horiz-adv-x="2164" d="M774 1872h346l103 -291l-246 -65zM582 1454h366l133 -448l136 448h366l-246 -694l105 -297l313 991h434l-549 -1454h-346l-213 520l-211 -520h-346l-549 1454h433l315 -991l100 297z" />
<glyph unicode="&#x1e81;" horiz-adv-x="1765" d="M575 1495h347l102 -291l-246 -65zM1419 1077h367l-440 -1077h-318l-145 410l-146 -410h-317l-440 1077h366l256 -712l72 241l-197 471h314l92 -315l92 315h313l-196 -471l71 -241z" />
<glyph unicode="&#x1e82;" horiz-adv-x="2164" d="M1204 1516l-246 65l103 291h346zM582 1454h366l133 -448l136 448h366l-246 -694l105 -297l313 991h434l-549 -1454h-346l-213 520l-211 -520h-346l-549 1454h433l315 -991l100 297z" />
<glyph unicode="&#x1e83;" horiz-adv-x="1765" d="M1006 1139l-246 65l102 291h346zM1419 1077h367l-440 -1077h-318l-145 410l-146 -410h-317l-440 1077h366l256 -712l72 241l-197 471h314l92 -315l92 315h313l-196 -471l71 -241z" />
<glyph unicode="&#x1e84;" horiz-adv-x="2164" d="M686 1567v286h320v-286h-320zM1157 1567v286h320v-286h-320zM582 1454h366l133 -448l136 448h366l-246 -694l105 -297l313 991h434l-549 -1454h-346l-213 520l-211 -520h-346l-549 1454h433l315 -991l100 297z" />
<glyph unicode="&#x1e85;" horiz-adv-x="1765" d="M487 1190v287h320v-287h-320zM958 1190v287h320v-287h-320zM1419 1077h367l-440 -1077h-318l-145 410l-146 -410h-317l-440 1077h366l256 -712l72 241l-197 471h314l92 -315l92 315h313l-196 -471l71 -241z" />
<glyph unicode="&#x1e8e;" horiz-adv-x="1363" d="M506 1565v307h348v-307h-348zM420 1454l260 -594l266 594h434l-501 -973v-481h-398v485l-493 969h432z" />
<glyph unicode="&#x1e8f;" horiz-adv-x="1136" d="M426 1188v307h348v-307h-348zM90 -109q90 -34 160 -34q125 0 137 143l-391 1077h399l205 -678l166 678h362l-364 -1206q-47 -158 -177 -254t-296 -96q-106 0 -201 39v331z" />
<glyph unicode="&#x1e92;" horiz-adv-x="1273" d="M55 297l660 809h-629v348h1110v-297l-618 -809h630v-348h-1153v297zM463 -438v307h348v-307h-348z" />
<glyph unicode="&#x1e93;" horiz-adv-x="1011" d="M45 229l492 582h-461v266h866v-229l-489 -582h508v-266h-916v229zM332 -438v307h348v-307h-348z" />
<glyph unicode="&#x1e97;" horiz-adv-x="866" d="M-29 1567v286h320v-286h-320zM442 1567v286h320v-286h-320zM854 59q-190 -82 -358 -82q-69 0 -125.5 17t-102 52.5t-71 97.5t-25.5 147v493h-133v293h133v338h389v-338h211v-293h-211v-356q0 -96 84 -96q53 0 139 35z" />
<glyph unicode="&#x1e9e;" horiz-adv-x="1476" d="M1069 670q46 -15 73.5 -24.5t62.5 -23t55.5 -23t45.5 -23t39 -25.5t30 -28.5t24 -33.5t15.5 -39t10 -46.5t2.5 -53.5q0 -177 -107 -273.5t-304 -96.5q-139 0 -275 47t-227 133l133 239q188 -139 326 -139q80 0 80 51q0 23 -21 41t-80 39q-68 24 -102 37t-83.5 34 t-72.5 36.5t-52 40t-41 50t-21 59t-9 75.5q0 284 347 371q-53 61 -170 61q-150 0 -215.5 -79.5t-65.5 -237.5v-838h-369v909q0 115 33.5 208t92 156.5t139.5 106.5t173 62.5t195 19.5q160 0 284.5 -46.5t210 -148t111.5 -251.5l19 -107q-68 -12 -103.5 -18.5t-95 -18.5 t-91.5 -22.5t-67.5 -24.5t-51 -30.5t-15.5 -34.5q0 -28 34.5 -47.5t102.5 -42.5z" />
<glyph unicode="&#x1ea0;" horiz-adv-x="1366" d="M461 1454h446l463 -1454h-405l-88 285h-388l-86 -285h-407zM813 551l-129 512l-135 -512h264zM532 -438v307h349v-307h-349z" />
<glyph unicode="&#x1ea1;" horiz-adv-x="1226" d="M39 326q0 162 130.5 265t334.5 103q133 0 217 -41v33q0 76 -44.5 113t-141.5 37q-87 0 -165 -28.5t-169 -88.5l-113 242q213 137 485 137q259 0 398 -117t139 -342v-209q0 -55 16 -77t58 -25v-328q-90 -20 -164 -20q-199 0 -229 149l-9 39q-147 -188 -366 -188 q-162 0 -269.5 98.5t-107.5 247.5zM670 299q51 33 51 76v80q-79 28 -150 28q-70 0 -117.5 -35t-47.5 -88q0 -44 35.5 -73t90.5 -29q77 0 138 41zM438 -438v307h348v-307h-348z" />
<glyph unicode="&#x1ea2;" horiz-adv-x="1366" d="M569 1761l-104 103q115 121 237 121q91 0 146 -47.5t55 -125.5q0 -54 -18 -97t-47.5 -75.5t-85.5 -78.5l-93 96q74 51 74 98q0 27 -16.5 44.5t-44.5 17.5q-19 0 -36.5 -8t-28.5 -16.5t-38 -31.5zM461 1454h446l463 -1454h-405l-88 285h-388l-86 -285h-407zM813 551 l-129 512l-135 -512h264z" />
<glyph unicode="&#x1ea3;" horiz-adv-x="1226" d="M459 1384l-105 103q116 121 238 121q91 0 146 -47t55 -125q0 -54 -18 -97t-48 -76t-86 -79l-92 96q74 51 74 98q0 27 -16.5 44.5t-45.5 17.5q-19 0 -36.5 -8.5t-27.5 -16t-38 -31.5zM39 326q0 162 130.5 265t334.5 103q133 0 217 -41v33q0 76 -44.5 113t-141.5 37 q-87 0 -165 -28.5t-169 -88.5l-113 242q213 137 485 137q259 0 398 -117t139 -342v-209q0 -55 16 -77t58 -25v-328q-90 -20 -164 -20q-199 0 -229 149l-9 39q-147 -188 -366 -188q-162 0 -269.5 98.5t-107.5 247.5zM670 299q51 33 51 76v80q-79 28 -150 28q-70 0 -117.5 -35 t-47.5 -88q0 -44 35.5 -73t90.5 -29q77 0 138 41z" />
<glyph unicode="&#x1ea4;" horiz-adv-x="1366" d="M1155 1776l-246 65l103 291h346zM313 1636l232 236h278l232 -236l-197 -86l-174 129l-174 -129zM461 1454h446l463 -1454h-405l-88 285h-388l-86 -285h-407zM813 551l-129 512l-135 -512h264z" />
<glyph unicode="&#x1ea5;" horiz-adv-x="1226" d="M1044 1399l-245 65l102 291h346zM203 1260l231 235h279l231 -235l-196 -86l-175 129l-174 -129zM39 326q0 162 130.5 265t334.5 103q133 0 217 -41v33q0 76 -44.5 113t-141.5 37q-87 0 -165 -28.5t-169 -88.5l-113 242q213 137 485 137q259 0 398 -117t139 -342v-209 q0 -55 16 -77t58 -25v-328q-90 -20 -164 -20q-199 0 -229 149l-9 39q-147 -188 -366 -188q-162 0 -269.5 98.5t-107.5 247.5zM670 299q51 33 51 76v80q-79 28 -150 28q-70 0 -117.5 -35t-47.5 -88q0 -44 35.5 -73t90.5 -29q77 0 138 41z" />
<glyph unicode="&#x1ea6;" horiz-adv-x="1366" d="M-23 2134h347l102 -291l-246 -65zM293 1636l231 236h279l231 -236l-196 -86l-174 129l-175 -129zM461 1454h446l463 -1454h-405l-88 285h-388l-86 -285h-407zM813 551l-129 512l-135 -512h264z" />
<glyph unicode="&#x1ea7;" horiz-adv-x="1226" d="M-133 1757h346l102 -291l-245 -65zM182 1260l232 235h278l232 -235l-197 -86l-174 129l-174 -129zM39 326q0 162 130.5 265t334.5 103q133 0 217 -41v33q0 76 -44.5 113t-141.5 37q-87 0 -165 -28.5t-169 -88.5l-113 242q213 137 485 137q259 0 398 -117t139 -342v-209 q0 -55 16 -77t58 -25v-328q-90 -20 -164 -20q-199 0 -229 149l-9 39q-147 -188 -366 -188q-162 0 -269.5 98.5t-107.5 247.5zM670 299q51 33 51 76v80q-79 28 -150 28q-70 0 -117.5 -35t-47.5 -88q0 -44 35.5 -73t90.5 -29q77 0 138 41z" />
<glyph unicode="&#x1ea8;" horiz-adv-x="1366" d="M903 1931l-104 103q115 120 237 120q91 0 146 -47t55 -125t-34 -130t-118 -121l-92 96q74 51 74 98q0 27 -16.5 44.5t-44.5 17.5q-19 0 -36.5 -8t-28.5 -16.5t-38 -31.5zM293 1636l231 236h279l231 -236l-196 -86l-174 129l-175 -129zM461 1454h446l463 -1454h-405 l-88 285h-388l-86 -285h-407zM813 551l-129 512l-135 -512h264z" />
<glyph unicode="&#x1ea9;" horiz-adv-x="1226" d="M793 1554l-105 103q116 121 238 121q91 0 145.5 -47t54.5 -125q0 -79 -34 -131.5t-117 -120.5l-92 96q73 50 73 98q0 27 -16.5 44.5t-44.5 17.5q-19 0 -36.5 -8.5t-27.5 -16t-38 -31.5zM182 1260l232 235h278l232 -235l-197 -86l-174 129l-174 -129zM39 326 q0 162 130.5 265t334.5 103q133 0 217 -41v33q0 76 -44.5 113t-141.5 37q-87 0 -165 -28.5t-169 -88.5l-113 242q213 137 485 137q259 0 398 -117t139 -342v-209q0 -55 16 -77t58 -25v-328q-90 -20 -164 -20q-199 0 -229 149l-9 39q-147 -188 -366 -188q-162 0 -269.5 98.5 t-107.5 247.5zM670 299q51 33 51 76v80q-79 28 -150 28q-70 0 -117.5 -35t-47.5 -88q0 -44 35.5 -73t90.5 -29q77 0 138 41z" />
<glyph unicode="&#x1eaa;" horiz-adv-x="1366" d="M545 2064q-26 0 -45 -10t-28 -23t-14 -29t-6 -23.5t-1 -12.5h-207q0 24 9.5 61.5t32 83.5t53.5 85.5t81 66.5t108 27q45 0 86 -16.5t67 -36t59.5 -36t64.5 -16.5q25 0 45 10.5t30 24.5t16.5 30.5t8.5 26t2 13.5h205q0 -17 -10 -52t-33 -82.5t-55 -89t-84 -71t-111 -29.5 q-42 0 -82.5 15.5t-67 33.5t-60.5 33.5t-64 15.5zM307 1636l232 236h278l232 -236l-197 -86l-174 129l-174 -129zM461 1454h446l463 -1454h-405l-88 285h-388l-86 -285h-407zM813 551l-129 512l-135 -512h264z" />
<glyph unicode="&#x1eab;" horiz-adv-x="1226" d="M434 1688q-26 0 -45 -10t-28 -23t-14 -29.5t-6 -24t-1 -12.5h-207q0 24 9.5 61.5t32 83.5t54 85.5t81.5 66.5t108 27q45 0 86 -16.5t66.5 -36t59 -36t64.5 -16.5q25 0 45 10.5t30.5 24.5t17 30.5t8.5 26t2 13.5h204q0 -17 -9.5 -52t-33 -82.5t-55.5 -89t-83.5 -71 t-110.5 -29.5q-42 0 -82.5 15.5t-67.5 34t-61 34t-64 15.5zM197 1260l231 235h279l231 -235l-197 -86l-174 129l-174 -129zM39 326q0 162 130.5 265t334.5 103q133 0 217 -41v33q0 76 -44.5 113t-141.5 37q-87 0 -165 -28.5t-169 -88.5l-113 242q213 137 485 137 q259 0 398 -117t139 -342v-209q0 -55 16 -77t58 -25v-328q-90 -20 -164 -20q-199 0 -229 149l-9 39q-147 -188 -366 -188q-162 0 -269.5 98.5t-107.5 247.5zM670 299q51 33 51 76v80q-79 28 -150 28q-70 0 -117.5 -35t-47.5 -88q0 -44 35.5 -73t90.5 -29q77 0 138 41z" />
<glyph unicode="&#x1eac;" horiz-adv-x="1366" d="M313 1636l232 236h278l232 -236l-197 -86l-174 129l-174 -129zM461 1454h446l463 -1454h-405l-88 285h-388l-86 -285h-407zM813 551l-129 512l-135 -512h264zM532 -438v307h349v-307h-349z" />
<glyph unicode="&#x1ead;" horiz-adv-x="1226" d="M203 1260l231 235h279l231 -235l-196 -86l-175 129l-174 -129zM39 326q0 162 130.5 265t334.5 103q133 0 217 -41v33q0 76 -44.5 113t-141.5 37q-87 0 -165 -28.5t-169 -88.5l-113 242q213 137 485 137q259 0 398 -117t139 -342v-209q0 -55 16 -77t58 -25v-328 q-90 -20 -164 -20q-199 0 -229 149l-9 39q-147 -188 -366 -188q-162 0 -269.5 98.5t-107.5 247.5zM670 299q51 33 51 76v80q-79 28 -150 28q-70 0 -117.5 -35t-47.5 -88q0 -44 35.5 -73t90.5 -29q77 0 138 41zM438 -438v307h348v-307h-348z" />
<glyph unicode="&#x1eae;" horiz-adv-x="1366" d="M782 1892l-245 66l102 291h346zM791 1872h200q0 -147 -90.5 -239.5t-234.5 -92.5t-235 92.5t-91 239.5h201q0 -68 37 -117t88 -49q47 0 83 47t42 119zM461 1454h446l463 -1454h-405l-88 285h-388l-86 -285h-407zM813 551l-129 512l-135 -512h264z" />
<glyph unicode="&#x1eaf;" horiz-adv-x="1226" d="M672 1516l-246 65l102 291h346zM680 1495h201q0 -147 -91 -239.5t-235 -92.5t-235 92.5t-91 239.5h201q0 -68 37 -117t88 -49q47 0 83 47t42 119zM39 326q0 162 130.5 265t334.5 103q133 0 217 -41v33q0 76 -44.5 113t-141.5 37q-87 0 -165 -28.5t-169 -88.5l-113 242 q213 137 485 137q259 0 398 -117t139 -342v-209q0 -55 16 -77t58 -25v-328q-90 -20 -164 -20q-199 0 -229 149l-9 39q-147 -188 -366 -188q-162 0 -269.5 98.5t-107.5 247.5zM670 299q51 33 51 76v80q-79 28 -150 28q-70 0 -117.5 -35t-47.5 -88q0 -44 35.5 -73t90.5 -29 q77 0 138 41z" />
<glyph unicode="&#x1eb0;" horiz-adv-x="1366" d="M360 2290h347l102 -291l-246 -66zM793 1872h200q0 -147 -90.5 -239.5t-234.5 -92.5t-235 92.5t-91 239.5h201q0 -68 37 -117t88 -49q47 0 83 47t42 119zM461 1454h446l463 -1454h-405l-88 285h-388l-86 -285h-407zM813 551l-129 512l-135 -512h264z" />
<glyph unicode="&#x1eb1;" horiz-adv-x="1226" d="M250 1913h346l102 -291l-245 -66zM682 1495h201q0 -147 -91 -239.5t-235 -92.5t-235 92.5t-91 239.5h201q0 -68 37 -117t88 -49q47 0 83 47t42 119zM39 326q0 162 130.5 265t334.5 103q133 0 217 -41v33q0 76 -44.5 113t-141.5 37q-87 0 -165 -28.5t-169 -88.5l-113 242 q213 137 485 137q259 0 398 -117t139 -342v-209q0 -55 16 -77t58 -25v-328q-90 -20 -164 -20q-199 0 -229 149l-9 39q-147 -188 -366 -188q-162 0 -269.5 98.5t-107.5 247.5zM670 299q51 33 51 76v80q-79 28 -150 28q-70 0 -117.5 -35t-47.5 -88q0 -44 35.5 -73t90.5 -29 q77 0 138 41z" />
<glyph unicode="&#x1eb2;" horiz-adv-x="1366" d="M516 2073l-104 102q116 121 237 121q91 0 146 -47t55 -125q0 -54 -18 -97t-48 -76t-86 -79l-92 96q74 51 74 98q0 27 -16.5 44.5t-45.5 17.5q-19 0 -36.5 -8t-28 -16t-37.5 -31zM813 1872h201q0 -147 -91 -239.5t-235 -92.5t-235 92.5t-91 239.5h201q0 -68 37 -117 t88 -49q47 0 83 47t42 119zM461 1454h446l463 -1454h-405l-88 285h-388l-86 -285h-407zM813 551l-129 512l-135 -512h264z" />
<glyph unicode="&#x1eb3;" horiz-adv-x="1226" d="M406 1696l-105 102q116 121 238 121q91 0 145.5 -47t54.5 -125q0 -79 -34 -131.5t-117 -120.5l-92 96q73 50 73 99q0 27 -16 44t-45 17q-19 0 -36.5 -8t-28 -16t-37.5 -31zM702 1495h201q0 -147 -90.5 -239.5t-234.5 -92.5t-235 92.5t-91 239.5h201q0 -68 37 -117t88 -49 q47 0 82.5 47t41.5 119zM39 326q0 162 130.5 265t334.5 103q133 0 217 -41v33q0 76 -44.5 113t-141.5 37q-87 0 -165 -28.5t-169 -88.5l-113 242q213 137 485 137q259 0 398 -117t139 -342v-209q0 -55 16 -77t58 -25v-328q-90 -20 -164 -20q-199 0 -229 149l-9 39 q-147 -188 -366 -188q-162 0 -269.5 98.5t-107.5 247.5zM670 299q51 33 51 76v80q-79 28 -150 28q-70 0 -117.5 -35t-47.5 -88q0 -44 35.5 -73t90.5 -29q77 0 138 41z" />
<glyph unicode="&#x1eb4;" horiz-adv-x="1366" d="M500 2064q-26 0 -45 -10t-28 -23t-14 -29t-6 -23.5t-1 -12.5h-207q0 24 9.5 61.5t32 83.5t53.5 85.5t81 66.5t108 27q45 0 86 -16.5t67 -36t59.5 -36t64.5 -16.5q25 0 45 10.5t30 24.5t16.5 30.5t8.5 26t2 13.5h205q0 -17 -10 -52t-33 -82.5t-55 -89t-84 -71t-111 -29.5 q-42 0 -82.5 15.5t-67 33.5t-60.5 33.5t-64 15.5zM758 1872h200q0 -147 -90.5 -239.5t-234.5 -92.5t-235 92.5t-91 239.5h201q0 -68 37 -117t88 -49q47 0 83 47t42 119zM461 1454h446l463 -1454h-405l-88 285h-388l-86 -285h-407zM813 551l-129 512l-135 -512h264z" />
<glyph unicode="&#x1eb5;" horiz-adv-x="1226" d="M389 1688q-26 0 -45 -10t-28 -23t-14 -29.5t-6 -24t-1 -12.5h-207q0 24 9.5 61.5t32 83.5t54 85.5t81.5 66.5t108 27q45 0 86 -16.5t67 -36t59 -36t64 -16.5q25 0 45 10.5t30.5 24.5t17 30.5t8.5 26t2 13.5h204q0 -17 -9.5 -52t-33 -82.5t-55.5 -89t-83.5 -71 t-110.5 -29.5q-42 0 -82.5 15.5t-67.5 34t-61 34t-64 15.5zM647 1495h201q0 -147 -91 -239.5t-235 -92.5t-234.5 92.5t-90.5 239.5h200q0 -68 37 -117t88 -49q47 0 83 47t42 119zM39 326q0 162 130.5 265t334.5 103q133 0 217 -41v33q0 76 -44.5 113t-141.5 37 q-87 0 -165 -28.5t-169 -88.5l-113 242q213 137 485 137q259 0 398 -117t139 -342v-209q0 -55 16 -77t58 -25v-328q-90 -20 -164 -20q-199 0 -229 149l-9 39q-147 -188 -366 -188q-162 0 -269.5 98.5t-107.5 247.5zM670 299q51 33 51 76v80q-79 28 -150 28q-70 0 -117.5 -35 t-47.5 -88q0 -44 35.5 -73t90.5 -29q77 0 138 41z" />
<glyph unicode="&#x1eb6;" horiz-adv-x="1366" d="M809 1872h201q0 -147 -91 -239.5t-235 -92.5t-235 92.5t-91 239.5h201q0 -68 37 -117t88 -49q47 0 83 47t42 119zM461 1454h446l463 -1454h-405l-88 285h-388l-86 -285h-407zM813 551l-129 512l-135 -512h264zM532 -438v307h349v-307h-349z" />
<glyph unicode="&#x1eb7;" horiz-adv-x="1226" d="M698 1495h201q0 -147 -91 -239.5t-235 -92.5t-234.5 92.5t-90.5 239.5h201q0 -68 36.5 -117t87.5 -49q47 0 83 47t42 119zM39 326q0 162 130.5 265t334.5 103q133 0 217 -41v33q0 76 -44.5 113t-141.5 37q-87 0 -165 -28.5t-169 -88.5l-113 242q213 137 485 137 q259 0 398 -117t139 -342v-209q0 -55 16 -77t58 -25v-328q-90 -20 -164 -20q-199 0 -229 149l-9 39q-147 -188 -366 -188q-162 0 -269.5 98.5t-107.5 247.5zM670 299q51 33 51 76v80q-79 28 -150 28q-70 0 -117.5 -35t-47.5 -88q0 -44 35.5 -73t90.5 -29q77 0 138 41z M438 -438v307h348v-307h-348z" />
<glyph unicode="&#x1eb8;" horiz-adv-x="1222" d="M1161 348v-348h-1036v1454h1018v-348h-619v-205h529v-323h-529v-230h637zM473 -438v307h348v-307h-348z" />
<glyph unicode="&#x1eb9;" horiz-adv-x="1247" d="M629 -20q-111 0 -206.5 29t-165 79.5t-119.5 119t-74.5 149t-24.5 167.5q0 118 38.5 221t111.5 182t186.5 125t253.5 46t254 -45.5t186 -123t111 -177.5t39 -213q0 -59 -11 -119h-755q6 -81 60 -121.5t128 -40.5q65 0 121 30t74 79l329 -95q-69 -134 -207.5 -213 t-328.5 -79zM444 653h357q-9 78 -56.5 123t-121.5 45t-122 -45t-57 -123zM455 -438v307h348v-307h-348z" />
<glyph unicode="&#x1eba;" horiz-adv-x="1222" d="M532 1761l-104 103q115 121 238 121q91 0 145.5 -47.5t54.5 -125.5q0 -54 -18 -97t-47.5 -75.5t-85.5 -78.5l-92 96q73 50 73 98q0 27 -16.5 44.5t-44.5 17.5q-19 0 -36.5 -8t-28.5 -16.5t-38 -31.5zM1161 348v-348h-1036v1454h1018v-348h-619v-205h529v-323h-529v-230 h637z" />
<glyph unicode="&#x1ebb;" horiz-adv-x="1247" d="M514 1384l-104 103q116 121 237 121q91 0 146 -47t55 -125q0 -54 -18 -97t-48 -76t-86 -79l-92 96q74 51 74 98q0 27 -16.5 44.5t-45.5 17.5q-19 0 -36.5 -8.5t-27.5 -16t-38 -31.5zM629 -20q-111 0 -206.5 29t-165 79.5t-119.5 119t-74.5 149t-24.5 167.5 q0 118 38.5 221t111.5 182t186.5 125t253.5 46t254 -45.5t186 -123t111 -177.5t39 -213q0 -59 -11 -119h-755q6 -81 60 -121.5t128 -40.5q65 0 121 30t74 79l329 -95q-69 -134 -207.5 -213t-328.5 -79zM444 653h357q-9 78 -56.5 123t-121.5 45t-122 -45t-57 -123z" />
<glyph unicode="&#x1ebc;" horiz-adv-x="1222" d="M514 1647q-26 0 -45 -10t-28 -23t-14 -29.5t-6 -24t-1 -12.5h-207q0 24 9.5 61.5t32 83.5t54 85.5t81.5 66.5t108 27q45 0 86 -16.5t66.5 -36t59 -36t64.5 -16.5q25 0 45 10.5t30.5 24.5t17 30.5t8.5 26t2 13.5h204q0 -17 -10 -52t-33 -82.5t-55 -89t-84 -71t-111 -29.5 q-42 0 -82.5 15.5t-67 34t-60.5 34t-64 15.5zM1161 348v-348h-1036v1454h1018v-348h-619v-205h529v-323h-529v-230h637z" />
<glyph unicode="&#x1ebd;" horiz-adv-x="1247" d="M496 1270q-26 0 -45 -10t-28 -23t-14.5 -29.5t-6.5 -24.5t-1 -12h-206q0 24 9.5 61.5t32 83.5t53.5 85.5t81 66.5t108 27q45 0 86 -16.5t67 -35.5t59.5 -35.5t64.5 -16.5q25 0 45 10.5t30 24.5t16.5 30t8.5 25.5t2 13.5h205q0 -17 -10 -52t-33 -82.5t-55 -89t-84 -71 t-111 -29.5q-42 0 -82.5 15.5t-67 34t-60.5 34t-64 15.5zM629 -20q-111 0 -206.5 29t-165 79.5t-119.5 119t-74.5 149t-24.5 167.5q0 118 38.5 221t111.5 182t186.5 125t253.5 46t254 -45.5t186 -123t111 -177.5t39 -213q0 -59 -11 -119h-755q6 -81 60 -121.5t128 -40.5 q65 0 121 30t74 79l329 -95q-69 -134 -207.5 -213t-328.5 -79zM444 653h357q-9 78 -56.5 123t-121.5 45t-122 -45t-57 -123z" />
<glyph unicode="&#x1ebe;" horiz-adv-x="1222" d="M1118 1776l-246 65l103 291h346zM276 1636l232 236h278l232 -236l-197 -86l-174 129l-174 -129zM1161 348v-348h-1036v1454h1018v-348h-619v-205h529v-323h-529v-230h637z" />
<glyph unicode="&#x1ebf;" horiz-adv-x="1247" d="M1100 1399l-246 65l102 291h347zM258 1260l231 235h279l231 -235l-196 -86l-174 129l-174 -129zM629 -20q-111 0 -206.5 29t-165 79.5t-119.5 119t-74.5 149t-24.5 167.5q0 118 38.5 221t111.5 182t186.5 125t253.5 46t254 -45.5t186 -123t111 -177.5t39 -213 q0 -59 -11 -119h-755q6 -81 60 -121.5t128 -40.5q65 0 121 30t74 79l329 -95q-69 -134 -207.5 -213t-328.5 -79zM444 653h357q-9 78 -56.5 123t-121.5 45t-122 -45t-57 -123z" />
<glyph unicode="&#x1ec0;" horiz-adv-x="1222" d="M-59 2134h346l102 -291l-246 -65zM256 1636l231 236h279l231 -236l-196 -86l-174 129l-174 -129zM1161 348v-348h-1036v1454h1018v-348h-619v-205h529v-323h-529v-230h637z" />
<glyph unicode="&#x1ec1;" horiz-adv-x="1247" d="M-78 1757h346l103 -291l-246 -65zM238 1260l231 235h279l231 -235l-197 -86l-174 129l-174 -129zM629 -20q-111 0 -206.5 29t-165 79.5t-119.5 119t-74.5 149t-24.5 167.5q0 118 38.5 221t111.5 182t186.5 125t253.5 46t254 -45.5t186 -123t111 -177.5t39 -213 q0 -59 -11 -119h-755q6 -81 60 -121.5t128 -40.5q65 0 121 30t74 79l329 -95q-69 -134 -207.5 -213t-328.5 -79zM444 653h357q-9 78 -56.5 123t-121.5 45t-122 -45t-57 -123z" />
<glyph unicode="&#x1ec2;" horiz-adv-x="1222" d="M866 1931l-104 103q115 120 237 120q91 0 146 -47t55 -125q0 -54 -18 -97t-47.5 -75.5t-85.5 -78.5l-93 96q74 51 74 98q0 27 -16.5 44.5t-44.5 17.5q-19 0 -36.5 -8t-28.5 -16.5t-38 -31.5zM256 1636l231 236h279l231 -236l-196 -86l-174 129l-174 -129zM1161 348v-348 h-1036v1454h1018v-348h-619v-205h529v-323h-529v-230h637z" />
</font>
</defs>
</svg>
